<svg width="36" height="36" viewBox="0 0 36 36" fill="none" xmlns="http://www.w3.org/2000/svg">
<path d="M11.4465 0C12.1884 0 12.7713 0.589595 12.7713 1.30058C12.7713 1.82081 13.213 2.23699 13.7429 2.23699H15.4917C18.159 2.25434 20.3317 4.38728 20.3494 6.98844V7.31792C22.0275 7.31792 23.7056 7.3526 25.4014 7.36994C31.5309 7.36994 36 11.7399 36 17.7746V25.526C36 31.5607 31.5309 35.9306 25.4014 35.9306C22.946 35.9827 20.4907 36 18.0177 36C15.5447 36 13.054 35.9827 10.5986 35.9306C4.46909 35.9306 0 31.5607 0 25.526V17.7746C0 11.7399 4.46909 7.36994 10.6163 7.36994C12.9303 7.33526 15.2974 7.30058 17.6997 7.30058V7.00578C17.6997 5.80925 16.6928 4.83815 15.4917 4.83815H13.7429C11.7468 4.83815 10.1217 3.24277 10.1217 1.30058C10.1217 0.589595 10.7223 0 11.4465 0ZM12.7537 17.2197C12.0118 17.2197 11.4289 17.8092 11.4289 18.5202V20.341H9.55643C8.83219 20.341 8.2316 20.9306 8.2316 21.6416C8.2316 22.3699 8.83219 22.9422 9.55643 22.9422H11.4289V24.7803C11.4289 25.4913 12.0118 26.0809 12.7537 26.0809C13.4779 26.0809 14.0785 25.4913 14.0785 24.7803V22.9422H15.9333C16.6575 22.9422 17.2581 22.3699 17.2581 21.6416C17.2581 20.9306 16.6575 20.341 15.9333 20.341H14.0785V18.5202C14.0785 17.8092 13.4779 17.2197 12.7537 17.2197ZM26.6379 23.3757H26.4612C25.7176 23.3757 25.1364 23.9653 25.1364 24.6763C25.1364 25.4046 25.7176 25.9769 26.4612 25.9769H26.6379C27.3621 25.9769 27.9627 25.4046 27.9627 24.6763C27.9627 23.9653 27.3621 23.3757 26.6379 23.3757ZM23.6173 17.4104H23.4406C22.6987 17.4104 22.1158 18 22.1158 18.711C22.1158 19.4393 22.6987 20.0116 23.4406 20.0116H23.6173C24.3415 20.0116 24.9421 19.4393 24.9421 18.711C24.9421 18 24.3415 17.4104 23.6173 17.4104Z" fill="#325876"/>
</svg>
