<svg width="37" height="36" viewBox="0 0 37 36" fill="none" xmlns="http://www.w3.org/2000/svg">
<path d="M13.5879 15.1583C17.7716 15.1583 21.1631 11.765 21.1631 7.57915C21.1631 3.3933 17.7716 0 13.5879 0C9.40423 0 6.0127 3.3933 6.0127 7.57915C6.0127 11.765 9.40423 15.1583 13.5879 15.1583Z" fill="#325876"/>
<path d="M13.5877 36.004C20.9091 36.004 26.8443 32.6107 26.8443 28.4249C26.8443 24.239 20.9091 20.8457 13.5877 20.8457C6.26624 20.8457 0.331055 24.239 0.331055 28.4249C0.331055 32.6107 6.26624 36.004 13.5877 36.004Z" fill="#325876"/>
<path d="M36.3125 28.4247C36.3125 31.5644 32.4567 34.1091 27.7506 34.1091C29.1369 32.5932 30.0914 30.689 30.0914 28.4285C30.0914 26.1642 29.135 24.26 27.7449 22.7422C32.4529 22.7403 36.3125 25.2869 36.3125 28.4247ZM30.6311 7.58204C30.6317 8.49669 30.4117 9.39797 29.9898 10.2094C29.5679 11.0208 28.9565 11.7183 28.2075 12.2428C27.4586 12.7673 26.5942 13.1032 25.6878 13.222C24.7814 13.3408 23.8597 13.2391 23.001 12.9253C23.9261 11.2969 24.4111 9.45522 24.4081 7.58204C24.4081 5.63988 23.8967 3.8171 23.0029 2.24063C23.8615 1.92729 24.783 1.82582 25.6891 1.94483C26.5953 2.06384 27.4594 2.39982 28.2081 2.92425C28.9568 3.44869 29.568 4.14609 29.9898 4.95729C30.4116 5.76848 30.6316 6.66763 30.6311 7.58204Z" fill="#325876"/>
</svg>
