<svg width="43" height="36" viewBox="0 0 43 36" fill="none" xmlns="http://www.w3.org/2000/svg">
<path d="M29.025 7.875C29.025 8.90916 28.8304 9.93319 28.4522 10.8886C28.074 11.8441 27.5197 12.7122 26.821 13.4435C26.1222 14.1747 25.2927 14.7548 24.3797 15.1506C23.4667 15.5463 22.4882 15.75 21.5 15.75C20.5118 15.75 19.5333 15.5463 18.6203 15.1506C17.7073 14.7548 16.8778 14.1747 16.179 13.4435C15.4803 12.7122 14.926 11.8441 14.5478 10.8886C14.1696 9.93319 13.975 8.90916 13.975 7.875C13.975 5.78642 14.7678 3.78338 16.179 2.30653C17.5902 0.829686 19.5042 0 21.5 0C23.4958 0 25.4098 0.829686 26.821 2.30653C28.2322 3.78338 29.025 5.78642 29.025 7.875ZM34.4 28.125C34.4 32.4742 28.6251 36 21.5 36C14.3749 36 8.6 32.4742 8.6 28.125C8.6 23.7758 14.3749 20.25 21.5 20.25C28.6251 20.25 34.4 23.7758 34.4 28.125ZM11.0123 2.25C11.395 2.25 11.7648 2.28825 12.126 2.3625C11.2209 4.04512 10.7469 5.94408 10.75 7.875C10.75 9.828 11.2252 11.6662 12.0615 13.266C11.7218 13.3335 11.3735 13.3672 11.0123 13.3672C7.9722 13.3672 5.50615 10.8788 5.50615 7.80975C5.50615 4.7385 7.9722 2.25 11.0123 2.25ZM7.41105 33.7185C6.192 32.1908 5.375 30.3165 5.375 28.125C5.375 26.001 6.14255 24.174 7.3014 22.6732C3.2035 23.0062 0 25.3507 0 28.1902C0 31.059 3.26155 33.4215 7.41105 33.7185ZM32.25 7.875C32.25 9.828 31.7749 11.6662 30.9385 13.266C31.2761 13.3335 31.6265 13.3672 31.9877 13.3672C35.0278 13.3672 37.4917 10.8788 37.4917 7.80975C37.4917 4.7385 35.0278 2.25 31.9877 2.25C31.605 2.25 31.2352 2.28825 30.874 2.3625C31.7491 3.9915 32.25 5.8725 32.25 7.875ZM35.589 33.7185C39.7385 33.4215 43 31.059 43 28.1902C43 25.3485 39.7944 23.0062 35.6986 22.6732C36.8596 24.174 37.625 26.001 37.625 28.125C37.625 30.3165 36.808 32.1908 35.589 33.7185Z" fill="#325876"/>
</svg>
