<svg width="10" height="38" viewBox="0 0 10 38" fill="none" xmlns="http://www.w3.org/2000/svg">
<path d="M4.9974 14.455C4.34113 14.455 3.69129 14.5725 3.08497 14.8009C2.47866 15.0293 1.92776 15.3641 1.4637 15.7862C0.999653 16.2082 0.631547 16.7093 0.380404 17.2607C0.129262 17.8121 5.16772e-07 18.4031 5.16772e-07 19C5.16772e-07 19.5969 0.129262 20.1879 0.380404 20.7393C0.631547 21.2907 0.999653 21.7918 1.4637 22.2138C1.92776 22.6359 2.47866 22.9707 3.08497 23.1991C3.69129 23.4275 4.34113 23.545 4.9974 23.545C6.32279 23.5448 7.59378 23.0657 8.53076 22.2131C9.46774 21.3605 9.99396 20.2044 9.99366 18.999C9.99336 17.7935 9.46656 16.6376 8.52915 15.7854C7.59174 14.9333 6.32052 14.4547 4.99513 14.455H4.9974ZM4.9974 9.08597C5.65337 9.0857 6.30285 8.96792 6.90878 8.73936C7.5147 8.51081 8.06519 8.17595 8.52882 7.7539C8.99245 7.33185 9.36014 6.83089 9.61089 6.2796C9.86164 5.72832 9.99055 5.13751 9.99025 4.54092C9.98995 3.94433 9.86046 3.35363 9.60915 2.80255C9.35785 2.25148 8.98966 1.75081 8.52561 1.32915C8.06156 0.907486 7.51073 0.57308 6.90458 0.345024C6.29843 0.116968 5.64882 -0.000270709 4.99285 4.6936e-07C3.66807 0.000548157 2.39778 0.479708 1.46143 1.33207C0.525091 2.18443 -0.00060166 3.34018 5.16772e-07 4.54505C0.000602694 5.74992 0.52745 6.90523 1.46464 7.75682C2.40184 8.60841 3.67261 9.08652 4.9974 9.08597ZM4.9974 28.9099C3.67201 28.9099 2.4009 29.3888 1.4637 30.2411C0.526511 31.0935 5.16772e-07 32.2495 5.16772e-07 33.455C5.16772e-07 34.6604 0.526511 35.8164 1.4637 36.6688C2.4009 37.5211 3.67201 38 4.9974 38C6.32279 38 7.5939 37.5211 8.53109 36.6688C9.46828 35.8164 9.99479 34.6604 9.99479 33.455C9.99479 32.2495 9.46828 31.0935 8.53109 30.2411C7.5939 29.3888 6.32279 28.9099 4.9974 28.9099Z" fill="#233D51"/>
</svg>
