<svg width="96" height="97" viewBox="0 0 96 97" fill="none" xmlns="http://www.w3.org/2000/svg">
<rect width="96" height="97" rx="22" fill="#F4F4F4"/>
<path d="M26.8838 54.2051C26.6624 54.2051 26.4411 54.166 26.2197 54.0879C26.0049 54.0098 25.7965 53.8958 25.5947 53.7461C25.3929 53.5898 25.2171 53.3848 25.0674 53.1309C24.9176 52.877 24.8363 52.5742 24.8232 52.2227V48.6973C24.8232 48.515 24.8883 48.3652 25.0186 48.248C25.1553 48.1243 25.3148 48.0625 25.4971 48.0625C25.8877 48.0951 26.0993 48.3066 26.1318 48.6973V52.1445C26.1383 52.3008 26.1709 52.4342 26.2295 52.5449C26.2881 52.6491 26.3532 52.7337 26.4248 52.7988C26.4964 52.8574 26.568 52.903 26.6396 52.9355C26.7178 52.9616 26.7959 52.9746 26.874 52.9746C26.9521 52.9746 27.0303 52.9616 27.1084 52.9355C27.1865 52.903 27.2614 52.8574 27.333 52.7988C27.4046 52.7337 27.4697 52.6491 27.5283 52.5449C27.5869 52.4342 27.6162 52.3008 27.6162 52.1445V48.6973C27.6162 48.515 27.6813 48.3652 27.8115 48.248C27.9482 48.1243 28.1077 48.0625 28.29 48.0625C28.6807 48.0951 28.8955 48.3066 28.9346 48.6973V52.1445C28.9411 52.3008 28.9736 52.431 29.0322 52.5352C29.0908 52.6458 29.1559 52.7337 29.2275 52.7988C29.2992 52.8574 29.3708 52.903 29.4424 52.9355C29.5205 52.9616 29.5986 52.9746 29.6768 52.9746C29.7549 52.9746 29.833 52.9616 29.9111 52.9355C29.9893 52.903 30.0641 52.8574 30.1357 52.7988C30.2074 52.7337 30.2725 52.6491 30.3311 52.5449C30.3896 52.4342 30.4189 52.3008 30.4189 52.1445V48.6973C30.4189 48.515 30.484 48.3652 30.6143 48.248C30.751 48.1243 30.9105 48.0625 31.0928 48.0625C31.4834 48.0951 31.6982 48.3066 31.7373 48.6973V52.2227C31.7373 52.5742 31.6592 52.877 31.5029 53.1309C31.3532 53.3848 31.1774 53.5898 30.9756 53.7461C30.7803 53.8958 30.5719 54.0098 30.3506 54.0879C30.1357 54.166 29.9144 54.2051 29.6865 54.2051C29.4652 54.2051 29.2438 54.166 29.0225 54.0879C28.8076 54.0098 28.5993 53.8926 28.3975 53.7363C28.3584 53.7103 28.3226 53.681 28.29 53.6484C28.251 53.681 28.2152 53.7103 28.1826 53.7363C27.9808 53.8926 27.7692 54.0098 27.5479 54.0879C27.333 54.166 27.1117 54.2051 26.8838 54.2051ZM38.4756 53.4629V51.1094C38.4756 50.9466 38.391 50.862 38.2217 50.8555H34.8037C34.68 50.862 34.5726 50.9173 34.4814 51.0215C34.3903 51.1191 34.3219 51.2363 34.2764 51.373C34.2373 51.5033 34.2178 51.6367 34.2178 51.7734C34.2178 51.9036 34.2373 52.0371 34.2764 52.1738C34.3219 52.304 34.3903 52.4212 34.4814 52.5254C34.5726 52.623 34.68 52.6719 34.8037 52.6719H37.3037C37.486 52.6719 37.639 52.737 37.7627 52.8672C37.8929 52.9909 37.958 53.1439 37.958 53.3262C37.958 53.5085 37.8929 53.6615 37.7627 53.7852C37.639 53.9154 37.486 53.9805 37.3037 53.9805H34.8428C34.387 53.974 34.0094 53.847 33.71 53.5996C33.417 53.3457 33.2054 53.0625 33.0752 52.75C32.9515 52.431 32.8896 52.1022 32.8896 51.7637C32.8896 51.4382 32.9548 51.1191 33.085 50.8066C33.2152 50.4876 33.4268 50.2044 33.7197 49.957C34.0127 49.7031 34.4456 49.5664 35.0186 49.5469H39.1201C39.3024 49.5469 39.4587 49.6087 39.5889 49.7324C39.7191 49.8496 39.7874 49.9993 39.7939 50.1816V53.4629C39.7939 53.6452 39.7256 53.7982 39.5889 53.9219C39.4587 54.0391 39.3024 54.0977 39.1201 54.0977C38.7295 54.0651 38.5146 53.8535 38.4756 53.4629ZM41.2588 50.7773C41.3825 50.4648 41.5908 50.1849 41.8838 49.9375C42.1833 49.6836 42.5609 49.5534 43.0166 49.5469H46.6885C46.8708 49.5469 47.0238 49.612 47.1475 49.7422C47.2777 49.8659 47.3428 50.0189 47.3428 50.2012C47.3428 50.3835 47.2777 50.5397 47.1475 50.6699C47.0238 50.7936 46.8708 50.8555 46.6885 50.8555H42.9775C42.8538 50.8555 42.7464 50.9076 42.6553 51.0117C42.5641 51.1094 42.4925 51.2266 42.4404 51.3633C42.3949 51.5 42.3721 51.6302 42.3721 51.7539V53.4629C42.333 53.8535 42.1182 54.0651 41.7275 54.0977C41.5452 54.0977 41.3857 54.0391 41.249 53.9219C41.1188 53.7982 41.0537 53.6452 41.0537 53.4629V51.7637H41.0635C41.0635 51.4251 41.1286 51.0964 41.2588 50.7773ZM48.5146 50.7773C48.6383 50.4648 48.8467 50.1849 49.1396 49.9375C49.4391 49.6836 49.8167 49.5534 50.2725 49.5469H53.9443C54.1266 49.5469 54.2796 49.612 54.4033 49.7422C54.5335 49.8659 54.5986 50.0189 54.5986 50.2012C54.5986 50.3835 54.5335 50.5397 54.4033 50.6699C54.2796 50.7936 54.1266 50.8555 53.9443 50.8555H50.2334C50.1097 50.8555 50.0023 50.9076 49.9111 51.0117C49.82 51.1094 49.7484 51.2266 49.6963 51.3633C49.6507 51.5 49.6279 51.6302 49.6279 51.7539V53.4629C49.5889 53.8535 49.374 54.0651 48.9834 54.0977C48.8011 54.0977 48.6416 54.0391 48.5049 53.9219C48.3747 53.7982 48.3096 53.6452 48.3096 53.4629V51.7637H48.3193C48.3193 51.4251 48.3844 51.0964 48.5146 50.7773ZM56.2393 49.4492C56.415 49.4557 56.5648 49.5208 56.6885 49.6445C56.8122 49.7617 56.8773 49.9082 56.8838 50.084V53.4629C56.8447 53.8535 56.6299 54.0651 56.2393 54.0977C56.057 54.0977 55.8975 54.0391 55.7607 53.9219C55.6305 53.7982 55.5654 53.6452 55.5654 53.4629V50.084C55.5719 49.9017 55.6403 49.752 55.7705 49.6348C55.9007 49.5111 56.057 49.4492 56.2393 49.4492ZM55.4189 48.1797C55.4189 47.9974 55.4971 47.8411 55.6533 47.7109C55.8096 47.5807 55.9984 47.5156 56.2197 47.5156C56.4411 47.5156 56.6299 47.5807 56.7861 47.7109C56.9424 47.8411 57.0205 47.9974 57.0205 48.1797C57.0205 48.3685 56.9424 48.528 56.7861 48.6582C56.6299 48.7884 56.4411 48.8535 56.2197 48.8535C55.9984 48.8535 55.8096 48.7884 55.6533 48.6582C55.4971 48.528 55.4189 48.3685 55.4189 48.1797ZM60.0967 53.9805C59.5238 53.9609 59.0908 53.8275 58.7979 53.5801C58.5049 53.3262 58.2933 53.043 58.1631 52.7305C58.0329 52.4115 57.9678 52.0892 57.9678 51.7637C57.9678 51.4251 58.0296 51.0996 58.1533 50.7871C58.2835 50.4681 58.4951 50.1849 58.7881 49.9375C59.0876 49.6836 59.4652 49.5534 59.9209 49.5469H63.085C63.5407 49.5534 63.915 49.6836 64.208 49.9375C64.5075 50.1849 64.7191 50.4681 64.8428 50.7871C64.973 51.0996 65.0381 51.4251 65.0381 51.7637C65.0381 52.0892 64.973 52.4115 64.8428 52.7305C64.7126 53.043 64.501 53.3262 64.208 53.5801C63.915 53.8275 63.4821 53.9609 62.9092 53.9805H60.0967ZM59.8818 50.8555C59.7581 50.8555 59.6507 50.9076 59.5596 51.0117C59.4684 51.1094 59.4001 51.2266 59.3545 51.3633C59.3154 51.4935 59.2959 51.6237 59.2959 51.7539C59.2959 51.8906 59.3154 52.0273 59.3545 52.1641C59.4001 52.2943 59.4684 52.4115 59.5596 52.5156C59.6507 52.6133 59.7581 52.6654 59.8818 52.6719H63.124C63.2477 52.6654 63.3551 52.6133 63.4463 52.5156C63.5374 52.4115 63.6025 52.2943 63.6416 52.1641C63.6872 52.0273 63.71 51.8906 63.71 51.7539C63.71 51.6237 63.6872 51.4935 63.6416 51.3633C63.6025 51.2266 63.5374 51.1094 63.4463 51.0117C63.3551 50.9076 63.2477 50.8555 63.124 50.8555H59.8818ZM66.3662 50.7773C66.4899 50.4648 66.6982 50.1849 66.9912 49.9375C67.2907 49.6836 67.6683 49.5534 68.124 49.5469H71.7959C71.9782 49.5469 72.1312 49.612 72.2549 49.7422C72.3851 49.8659 72.4502 50.0189 72.4502 50.2012C72.4502 50.3835 72.3851 50.5397 72.2549 50.6699C72.1312 50.7936 71.9782 50.8555 71.7959 50.8555H68.085C67.9613 50.8555 67.8538 50.9076 67.7627 51.0117C67.6715 51.1094 67.5999 51.2266 67.5479 51.3633C67.5023 51.5 67.4795 51.6302 67.4795 51.7539V53.4629C67.4404 53.8535 67.2256 54.0651 66.835 54.0977C66.6527 54.0977 66.4932 54.0391 66.3564 53.9219C66.2262 53.7982 66.1611 53.6452 66.1611 53.4629V51.7637H66.1709C66.1709 51.4251 66.236 51.0964 66.3662 50.7773Z" fill="#72757A"/>
<path d="M22.5078 60.625C22.5807 60.625 22.6432 60.6497 22.6953 60.6992C22.7474 60.7461 22.7747 60.806 22.7773 60.8789V60.9531C22.7747 61.0599 22.7812 61.1589 22.7969 61.25C22.8151 61.3385 22.8568 61.418 22.9219 61.4883C22.987 61.5586 23.069 61.5964 23.168 61.6016H24.2656V60.8867C24.2656 60.8138 24.2917 60.7539 24.3438 60.707C24.3984 60.6576 24.4622 60.6328 24.5352 60.6328C24.6914 60.6458 24.7773 60.7305 24.793 60.8867V61.793C24.793 62.0013 24.7643 62.1979 24.707 62.3828C24.6549 62.5469 24.569 62.6862 24.4492 62.8008C24.332 62.9128 24.1823 62.974 24 62.9844H22.5938C22.5234 62.9818 22.4635 62.957 22.4141 62.9102C22.3672 62.8607 22.3424 62.8008 22.3398 62.7305C22.3398 62.6576 22.3633 62.5951 22.4102 62.543C22.4596 62.4909 22.5208 62.4635 22.5938 62.4609H23.8672C23.9661 62.4557 24.0482 62.418 24.1133 62.3477C24.1732 62.2826 24.2135 62.2083 24.2344 62.125H23.0352C22.8529 62.1146 22.7018 62.0534 22.582 61.9414C22.4648 61.8268 22.3802 61.6875 22.3281 61.5234C22.2786 61.3594 22.2526 61.1849 22.25 61V60.8789C22.2526 60.8086 22.2786 60.75 22.3281 60.7031C22.3776 60.6536 22.4375 60.6276 22.5078 60.625ZM26.1133 62.9922C25.8841 62.9844 25.7109 62.931 25.5938 62.832C25.4766 62.7305 25.3919 62.6172 25.3398 62.4922C25.2878 62.3646 25.2617 62.2357 25.2617 62.1055C25.2617 61.9701 25.2865 61.8398 25.3359 61.7148C25.388 61.5872 25.4727 61.474 25.5898 61.375C25.7096 61.2734 25.8607 61.2214 26.043 61.2188H27.3086C27.4909 61.2214 27.6406 61.2734 27.7578 61.375C27.8776 61.474 27.9622 61.5872 28.0117 61.7148C28.0638 61.8398 28.0898 61.9701 28.0898 62.1055C28.0898 62.2357 28.0638 62.3646 28.0117 62.4922C27.9596 62.6172 27.875 62.7305 27.7578 62.832C27.6406 62.931 27.4674 62.9844 27.2383 62.9922H26.1133ZM26.0273 61.7422C25.9779 61.7422 25.9349 61.763 25.8984 61.8047C25.862 61.8438 25.8346 61.8906 25.8164 61.9453C25.8008 61.9974 25.793 62.0495 25.793 62.1016C25.793 62.1562 25.8008 62.2109 25.8164 62.2656C25.8346 62.3177 25.862 62.3646 25.8984 62.4062C25.9349 62.4453 25.9779 62.4661 26.0273 62.4688H27.3242C27.3737 62.4661 27.4167 62.4453 27.4531 62.4062C27.4896 62.3646 27.5156 62.3177 27.5312 62.2656C27.5495 62.2109 27.5586 62.1562 27.5586 62.1016C27.5586 62.0495 27.5495 61.9974 27.5312 61.9453C27.5156 61.8906 27.4896 61.8438 27.4531 61.8047C27.4167 61.763 27.3737 61.7422 27.3242 61.7422H26.0273ZM29.7852 63.0586C29.6497 63.0586 29.5156 63.043 29.3828 63.0117C29.2526 62.9805 29.1276 62.9349 29.0078 62.875C28.888 62.8125 28.7826 62.7305 28.6914 62.6289C28.6003 62.5273 28.5508 62.4062 28.543 62.2656V62.1016V61.4336C28.543 61.3607 28.569 61.3008 28.6211 61.2539C28.6758 61.2044 28.7396 61.1797 28.8125 61.1797C28.9688 61.1927 29.0534 61.2773 29.0664 61.4336V61.6055V62.1445C29.0716 62.2253 29.1016 62.293 29.1562 62.3477C29.2135 62.3997 29.276 62.4414 29.3438 62.4727C29.4141 62.5039 29.4857 62.5273 29.5586 62.543C29.6341 62.5586 29.7096 62.5664 29.7852 62.5664C29.8607 62.5664 29.9349 62.5586 30.0078 62.543C30.0833 62.5273 30.1549 62.5039 30.2227 62.4727C30.293 62.4414 30.3555 62.3997 30.4102 62.3477C30.4674 62.293 30.4987 62.2253 30.5039 62.1445V61.6055V61.4336C30.5039 61.3607 30.5299 61.3008 30.582 61.2539C30.6367 61.2044 30.7005 61.1797 30.7734 61.1797C30.9297 61.1927 31.0156 61.2773 31.0312 61.4336V62.1016V62.2656C31.0234 62.4062 30.9727 62.5273 30.8789 62.6289C30.7878 62.7305 30.6823 62.8125 30.5625 62.875C30.4427 62.9349 30.3164 62.9805 30.1836 63.0117C30.0534 63.043 29.9206 63.0586 29.7852 63.0586ZM34.3242 62.9922C34.0951 62.9844 33.9219 62.931 33.8047 62.832C33.6875 62.7305 33.6029 62.6172 33.5508 62.4922C33.4987 62.3646 33.4727 62.2357 33.4727 62.1055C33.4727 61.9701 33.4974 61.8398 33.5469 61.7148C33.599 61.5872 33.6836 61.474 33.8008 61.375C33.9206 61.2734 34.0716 61.2214 34.2539 61.2188H35.7383C35.8112 61.2188 35.8724 61.2448 35.9219 61.2969C35.974 61.3464 36 61.4076 36 61.4805C36 61.5534 35.974 61.6159 35.9219 61.668C35.8724 61.7174 35.8112 61.7422 35.7383 61.7422H34.2383C34.1888 61.7422 34.1458 61.763 34.1094 61.8047C34.0729 61.8438 34.0456 61.8906 34.0273 61.9453C34.0117 61.9974 34.0039 62.0495 34.0039 62.1016C34.0039 62.1562 34.0117 62.2109 34.0273 62.2656C34.0456 62.3177 34.0729 62.3646 34.1094 62.4062C34.1458 62.4453 34.1888 62.4661 34.2383 62.4688H35.7383C35.8112 62.4688 35.8724 62.4948 35.9219 62.5469C35.974 62.5964 36 62.6576 36 62.7305C36 62.8034 35.974 62.8646 35.9219 62.9141C35.8724 62.9661 35.8112 62.9922 35.7383 62.9922H34.3242ZM38.5938 62.7852V61.8438C38.5938 61.7786 38.5599 61.7448 38.4922 61.7422H37.125C37.0755 61.7448 37.0326 61.7669 36.9961 61.8086C36.9596 61.8477 36.9323 61.8945 36.9141 61.9492C36.8984 62.0013 36.8906 62.0547 36.8906 62.1094C36.8906 62.1615 36.8984 62.2148 36.9141 62.2695C36.9323 62.3216 36.9596 62.3685 36.9961 62.4102C37.0326 62.4492 37.0755 62.4688 37.125 62.4688H38.125C38.1979 62.4688 38.2591 62.4948 38.3086 62.5469C38.3607 62.5964 38.3867 62.6576 38.3867 62.7305C38.3867 62.8034 38.3607 62.8646 38.3086 62.9141C38.2591 62.9661 38.1979 62.9922 38.125 62.9922H37.1406C36.9583 62.9896 36.8073 62.9388 36.6875 62.8398C36.5703 62.7383 36.4857 62.625 36.4336 62.5C36.3841 62.3724 36.3594 62.2409 36.3594 62.1055C36.3594 61.9753 36.3854 61.8477 36.4375 61.7227C36.4896 61.5951 36.5742 61.4818 36.6914 61.3828C36.8086 61.2812 36.9818 61.2266 37.2109 61.2188H38.8516C38.9245 61.2188 38.987 61.2435 39.0391 61.293C39.0911 61.3398 39.1185 61.3997 39.1211 61.4727V62.7852C39.1211 62.8581 39.0938 62.9193 39.0391 62.9688C38.987 63.0156 38.9245 63.0391 38.8516 63.0391C38.6953 63.026 38.6094 62.9414 38.5938 62.7852ZM40.8711 61.1602C41.0065 61.1602 41.1393 61.1758 41.2695 61.207C41.4023 61.2383 41.5286 61.2852 41.6484 61.3477C41.7682 61.4076 41.8737 61.4883 41.9648 61.5898C42.0586 61.6914 42.1094 61.8125 42.1172 61.9531V62.1172V62.7852C42.1016 62.9414 42.0156 63.026 41.8594 63.0391C41.7865 63.0391 41.7227 63.0156 41.668 62.9688C41.6159 62.9193 41.5898 62.8581 41.5898 62.7852V62.6133V62.0742C41.5846 61.9935 41.5534 61.9271 41.4961 61.875C41.4414 61.8203 41.3789 61.7773 41.3086 61.7461C41.2409 61.7148 41.1693 61.6914 41.0938 61.6758C41.0208 61.6602 40.9466 61.6523 40.8711 61.6523C40.7956 61.6523 40.7201 61.6602 40.6445 61.6758C40.5716 61.6914 40.5 61.7148 40.4297 61.7461C40.362 61.7773 40.2995 61.8203 40.2422 61.875C40.1875 61.9271 40.1576 61.9935 40.1523 62.0742V62.6133V62.7852C40.1393 62.9414 40.0547 63.026 39.8984 63.0391C39.8255 63.0391 39.7617 63.0156 39.707 62.9688C39.6549 62.9193 39.6289 62.8581 39.6289 62.7852V62.1172V61.9531C39.6367 61.8125 39.6862 61.6914 39.7773 61.5898C39.8685 61.4883 39.974 61.4076 40.0938 61.3477C40.2135 61.2852 40.3385 61.2383 40.4688 61.207C40.6016 61.1758 40.7357 61.1602 40.8711 61.1602ZM44.8828 60.625C44.9531 60.6276 45.013 60.6536 45.0625 60.7031C45.112 60.75 45.138 60.8086 45.1406 60.8789V62.793C45.125 62.9492 45.0391 63.0339 44.8828 63.0469C44.8099 63.0469 44.7461 63.0234 44.6914 62.9766C44.6393 62.9271 44.6133 62.8659 44.6133 62.793V60.8789C44.6159 60.806 44.6432 60.7461 44.6953 60.6992C44.7474 60.6497 44.8099 60.625 44.8828 60.625ZM46.4453 62.9922C46.2161 62.9844 46.043 62.931 45.9258 62.832C45.8086 62.7305 45.724 62.6172 45.6719 62.4922C45.6198 62.3646 45.5938 62.2357 45.5938 62.1055C45.5938 61.9701 45.6185 61.8398 45.668 61.7148C45.7201 61.5872 45.8047 61.474 45.9219 61.375C46.0417 61.2734 46.1927 61.2214 46.375 61.2188H47.6406C47.8229 61.2214 47.9727 61.2734 48.0898 61.375C48.2096 61.474 48.2943 61.5872 48.3438 61.7148C48.3958 61.8398 48.4219 61.9701 48.4219 62.1055C48.4219 62.2357 48.3958 62.3646 48.3438 62.4922C48.2917 62.6172 48.207 62.7305 48.0898 62.832C47.9727 62.931 47.7995 62.9844 47.5703 62.9922H46.4453ZM46.3594 61.7422C46.3099 61.7422 46.2669 61.763 46.2305 61.8047C46.194 61.8438 46.1667 61.8906 46.1484 61.9453C46.1328 61.9974 46.125 62.0495 46.125 62.1016C46.125 62.1562 46.1328 62.2109 46.1484 62.2656C46.1667 62.3177 46.194 62.3646 46.2305 62.4062C46.2669 62.4453 46.3099 62.4661 46.3594 62.4688H47.6562C47.7057 62.4661 47.7487 62.4453 47.7852 62.4062C47.8216 62.3646 47.8477 62.3177 47.8633 62.2656C47.8815 62.2109 47.8906 62.1562 47.8906 62.1016C47.8906 62.0495 47.8815 61.9974 47.8633 61.9453C47.8477 61.8906 47.8216 61.8438 47.7852 61.8047C47.7487 61.763 47.7057 61.7422 47.6562 61.7422H46.3594ZM49.6641 62.9922C49.4349 62.9844 49.2617 62.931 49.1445 62.832C49.0273 62.7305 48.9427 62.6172 48.8906 62.4922C48.8385 62.3646 48.8125 62.2357 48.8125 62.1055C48.8125 61.9701 48.8372 61.8398 48.8867 61.7148C48.9388 61.5872 49.0234 61.474 49.1406 61.375C49.2604 61.2734 49.4115 61.2214 49.5938 61.2188H51.0781C51.151 61.2188 51.2122 61.2448 51.2617 61.2969C51.3138 61.3464 51.3398 61.4076 51.3398 61.4805C51.3398 61.5534 51.3138 61.6159 51.2617 61.668C51.2122 61.7174 51.151 61.7422 51.0781 61.7422H49.5781C49.5286 61.7422 49.4857 61.763 49.4492 61.8047C49.4128 61.8438 49.3854 61.8906 49.3672 61.9453C49.3516 61.9974 49.3438 62.0495 49.3438 62.1016C49.3438 62.1562 49.3516 62.2109 49.3672 62.2656C49.3854 62.3177 49.4128 62.3646 49.4492 62.4062C49.4857 62.4453 49.5286 62.4661 49.5781 62.4688H51.0781C51.151 62.4688 51.2122 62.4948 51.2617 62.5469C51.3138 62.5964 51.3398 62.6576 51.3398 62.7305C51.3398 62.8034 51.3138 62.8646 51.2617 62.9141C51.2122 62.9661 51.151 62.9922 51.0781 62.9922H49.6641ZM52.0195 60.625C52.0898 60.6276 52.1497 60.6536 52.1992 60.7031C52.2487 60.75 52.2747 60.8086 52.2773 60.8789V62.793C52.2617 62.9492 52.1758 63.0339 52.0195 63.0469C51.9466 63.0469 51.8828 63.0234 51.8281 62.9766C51.776 62.9271 51.75 62.8659 51.75 62.793V60.8789C51.7526 60.806 51.7799 60.7461 51.832 60.6992C51.8841 60.6497 51.9466 60.625 52.0195 60.625ZM52.5156 61.7148C52.5911 61.5924 52.7357 61.5026 52.9492 61.4453L53.9531 61.1758C54.0234 61.1549 54.0898 61.1615 54.1523 61.1953C54.2174 61.2266 54.2604 61.2773 54.2812 61.3477C54.3047 61.4154 54.2995 61.4818 54.2656 61.5469C54.2344 61.6094 54.1836 61.6523 54.1133 61.6758L53.043 61.9531C52.9674 61.9818 52.931 62.0312 52.9336 62.1016C52.931 62.1719 52.9674 62.2214 53.043 62.25L54.1133 62.5273C54.1836 62.5508 54.2344 62.5951 54.2656 62.6602C54.2995 62.7227 54.3047 62.7878 54.2812 62.8555C54.2604 62.9258 54.2174 62.9766 54.1523 63.0078C54.0898 63.0417 54.0234 63.0482 53.9531 63.0273L52.9492 62.7578C52.7331 62.6979 52.5872 62.6068 52.5117 62.4844C52.4388 62.362 52.4023 62.2344 52.4023 62.1016C52.4023 61.9688 52.4401 61.8398 52.5156 61.7148ZM57.5508 60.625C57.6237 60.625 57.6862 60.6497 57.7383 60.6992C57.7904 60.7461 57.8177 60.806 57.8203 60.8789V61.2188H59.1484C59.2214 61.2188 59.2839 61.2435 59.3359 61.293C59.3854 61.3451 59.4102 61.4076 59.4102 61.4805C59.4102 61.5534 59.3841 61.6159 59.332 61.668C59.2826 61.7174 59.2214 61.7422 59.1484 61.7422H57.8203V61.8203C57.8177 61.9271 57.8242 62.026 57.8398 62.1172C57.8581 62.2057 57.8997 62.2852 57.9648 62.3555C58.0299 62.4258 58.112 62.4635 58.2109 62.4688H59.1641C59.237 62.4714 59.2969 62.4987 59.3438 62.5508C59.3932 62.6029 59.418 62.6654 59.418 62.7383C59.4154 62.8086 59.3893 62.8685 59.3398 62.918C59.293 62.9648 59.2344 62.9896 59.1641 62.9922H58.0781C57.8958 62.9818 57.7448 62.9206 57.625 62.8086C57.5078 62.694 57.4232 62.5547 57.3711 62.3906C57.3216 62.2266 57.2956 62.0521 57.293 61.8672V61.7422H56.8438C56.7708 61.7422 56.7096 61.7161 56.6602 61.6641C56.6081 61.6146 56.582 61.5534 56.582 61.4805C56.582 61.4076 56.6068 61.3464 56.6562 61.2969C56.7083 61.2448 56.7708 61.2188 56.8438 61.2188H57.293V60.8789C57.2956 60.8086 57.3216 60.75 57.3711 60.7031C57.4206 60.6536 57.4805 60.6276 57.5508 60.625ZM60.0625 60.625C60.1328 60.6276 60.1927 60.6536 60.2422 60.7031C60.2917 60.75 60.3177 60.8086 60.3203 60.8789V61.2188H61.5312C61.7135 61.2214 61.8633 61.2734 61.9805 61.375C62.1003 61.474 62.1849 61.5859 62.2344 61.7109C62.2865 61.8385 62.3125 61.9701 62.3125 62.1055H62.3164V62.7852C62.3164 62.8581 62.2891 62.9193 62.2344 62.9688C62.1823 63.0156 62.1198 63.0391 62.0469 63.0391C61.8906 63.026 61.8047 62.9414 61.7891 62.7852V62.1016C61.7891 62.0521 61.7786 62 61.7578 61.9453C61.7396 61.8906 61.7122 61.8438 61.6758 61.8047C61.6393 61.763 61.5964 61.7422 61.5469 61.7422H60.3203V62.793C60.3047 62.9492 60.2188 63.0339 60.0625 63.0469C59.9896 63.0469 59.9258 63.0234 59.8711 62.9766C59.819 62.9271 59.793 62.8659 59.793 62.793V60.8789C59.7956 60.806 59.8229 60.7461 59.875 60.6992C59.9271 60.6497 59.9896 60.625 60.0625 60.625ZM63.0781 61.1797C63.1484 61.1823 63.2083 61.2083 63.2578 61.2578C63.3073 61.3047 63.3333 61.3633 63.3359 61.4336V62.7852C63.3203 62.9414 63.2344 63.026 63.0781 63.0391C63.0052 63.0391 62.9414 63.0156 62.8867 62.9688C62.8346 62.9193 62.8086 62.8581 62.8086 62.7852V61.4336C62.8112 61.3607 62.8385 61.3008 62.8906 61.2539C62.9427 61.2044 63.0052 61.1797 63.0781 61.1797ZM62.75 60.6719C62.75 60.599 62.7812 60.5365 62.8438 60.4844C62.9062 60.4323 62.9818 60.4062 63.0703 60.4062C63.1589 60.4062 63.2344 60.4323 63.2969 60.4844C63.3594 60.5365 63.3906 60.599 63.3906 60.6719C63.3906 60.7474 63.3594 60.8112 63.2969 60.8633C63.2344 60.9154 63.1589 60.9414 63.0703 60.9414C62.9818 60.9414 62.9062 60.9154 62.8438 60.8633C62.7812 60.8112 62.75 60.7474 62.75 60.6719ZM66.293 61.4453C66.293 61.5104 66.2669 61.5651 66.2148 61.6094C66.1654 61.651 66.1042 61.6719 66.0312 61.6719H64.3789C64.3451 61.6719 64.3177 61.6784 64.2969 61.6914C64.276 61.7044 64.2604 61.7188 64.25 61.7344C64.2396 61.7474 64.2344 61.7591 64.2344 61.7695C64.2344 61.7826 64.2396 61.7969 64.25 61.8125C64.2604 61.8255 64.276 61.8385 64.2969 61.8516C64.3177 61.862 64.3451 61.8685 64.3789 61.8711H65.6562C65.8203 61.8737 65.9557 61.9062 66.0625 61.9688C66.1693 62.0286 66.2448 62.1003 66.2891 62.1836C66.3359 62.2643 66.3594 62.3464 66.3594 62.4297C66.3594 62.5104 66.3359 62.5924 66.2891 62.6758C66.2422 62.7565 66.1654 62.8281 66.0586 62.8906C65.9544 62.9505 65.8203 62.9805 65.6562 62.9805C65.6276 62.9831 65.6068 62.9844 65.5938 62.9844H64.0781C64.0052 62.9844 63.9427 62.9635 63.8906 62.9219C63.8411 62.8776 63.8164 62.8242 63.8164 62.7617C63.8164 62.6966 63.8424 62.6419 63.8945 62.5977C63.944 62.556 64.0052 62.5352 64.0781 62.5352H65.6875C65.7266 62.5378 65.7578 62.5326 65.7812 62.5195C65.8073 62.5065 65.8268 62.4922 65.8398 62.4766C65.8529 62.4609 65.8594 62.4453 65.8594 62.4297C65.8594 62.4219 65.8529 62.4089 65.8398 62.3906C65.8268 62.3698 65.8073 62.3542 65.7812 62.3438C65.7578 62.3307 65.7266 62.3229 65.6875 62.3203H64.4062C64.2552 62.3177 64.1302 62.2865 64.0312 62.2266C63.9323 62.1641 63.862 62.0924 63.8203 62.0117C63.7786 61.931 63.7578 61.8503 63.7578 61.7695C63.7578 61.6888 63.7786 61.6094 63.8203 61.5312C63.8646 61.4505 63.9349 61.3815 64.0312 61.3242C64.1302 61.2643 64.2552 61.2318 64.4062 61.2266C64.4323 61.224 64.4518 61.2227 64.4648 61.2227H66.0312C66.1042 61.2227 66.1654 61.2448 66.2148 61.2891C66.2669 61.3307 66.293 61.3828 66.293 61.4453ZM69.3203 60.8789V62.3672C69.3203 62.4323 69.3542 62.4661 69.4219 62.4688H70.7891C70.8385 62.4661 70.8815 62.4453 70.918 62.4062C70.9544 62.3646 70.9805 62.3177 70.9961 62.2656C71.0143 62.2109 71.0234 62.1562 71.0234 62.1016C71.0234 62.0495 71.0143 61.9974 70.9961 61.9453C70.9805 61.8906 70.9544 61.8438 70.918 61.8047C70.8815 61.763 70.8385 61.7422 70.7891 61.7422H69.7891C69.7161 61.7422 69.6536 61.7174 69.6016 61.668C69.5521 61.6159 69.5273 61.5534 69.5273 61.4805C69.5273 61.4076 69.5534 61.3464 69.6055 61.2969C69.6549 61.2448 69.7161 61.2188 69.7891 61.2188H70.7734C70.9557 61.2214 71.1055 61.2734 71.2227 61.375C71.3424 61.474 71.4271 61.5872 71.4766 61.7148C71.5286 61.8398 71.5547 61.9701 71.5547 62.1055C71.5547 62.2357 71.5286 62.3646 71.4766 62.4922C71.4245 62.6172 71.3398 62.7305 71.2227 62.832C71.1055 62.931 70.9323 62.9844 70.7031 62.9922H69.0625C68.9896 62.9922 68.9271 62.9688 68.875 62.9219C68.8229 62.8724 68.7956 62.8112 68.793 62.7383V60.8789C68.793 60.806 68.819 60.7461 68.8711 60.6992C68.9258 60.6497 68.9896 60.625 69.0625 60.625C69.2188 60.638 69.3047 60.7227 69.3203 60.8789ZM72.2383 61.1719C72.3112 61.1719 72.3737 61.1966 72.4258 61.2461C72.4779 61.293 72.5052 61.3529 72.5078 61.4258V61.8203C72.5052 61.9271 72.5117 62.026 72.5273 62.1172C72.5456 62.2057 72.5872 62.2852 72.6523 62.3555C72.7174 62.4258 72.7995 62.4635 72.8984 62.4688H73.9414V61.4336C73.9414 61.3607 73.9674 61.3008 74.0195 61.2539C74.0742 61.2044 74.138 61.1797 74.2109 61.1797C74.3672 61.1927 74.4531 61.2773 74.4688 61.4336V62.707C74.4688 62.9154 74.4401 63.112 74.3828 63.2969C74.3307 63.4609 74.2448 63.599 74.125 63.7109C74.0078 63.8255 73.8581 63.888 73.6758 63.8984H72.3242C72.2539 63.8958 72.194 63.8698 72.1445 63.8203C72.0977 63.7734 72.0729 63.7148 72.0703 63.6445C72.0703 63.5716 72.0938 63.5091 72.1406 63.457C72.1901 63.4049 72.2513 63.3776 72.3242 63.375H73.543C73.6419 63.3698 73.724 63.332 73.7891 63.2617C73.8542 63.1914 73.8958 63.1094 73.9141 63.0156C73.9167 63.0078 73.918 63 73.918 62.9922H72.7656C72.5833 62.9818 72.4323 62.9206 72.3125 62.8086C72.1953 62.694 72.1107 62.5547 72.0586 62.3906C72.0091 62.2266 71.9831 62.0521 71.9805 61.8672V61.4258C71.9831 61.3555 72.0091 61.2969 72.0586 61.25C72.1081 61.2005 72.168 61.1745 72.2383 61.1719ZM23.0742 67.043C22.9857 67.043 22.8971 67.0273 22.8086 66.9961C22.7227 66.9648 22.6393 66.9193 22.5586 66.8594C22.4779 66.7969 22.4076 66.7148 22.3477 66.6133C22.2878 66.5117 22.2552 66.3906 22.25 66.25V65.418C22.25 65.3451 22.276 65.2852 22.3281 65.2383C22.3828 65.1888 22.4466 65.1641 22.5195 65.1641C22.6758 65.1771 22.7604 65.2617 22.7734 65.418V66.2188C22.776 66.2812 22.7891 66.3346 22.8125 66.3789C22.8359 66.4206 22.862 66.4544 22.8906 66.4805C22.9193 66.5039 22.9479 66.5221 22.9766 66.5352C23.0078 66.5456 23.0391 66.5508 23.0703 66.5508C23.1016 66.5508 23.1328 66.5456 23.1641 66.5352C23.1953 66.5221 23.2253 66.5039 23.2539 66.4805C23.2826 66.4544 23.3086 66.4206 23.332 66.3789C23.3555 66.3346 23.3672 66.2812 23.3672 66.2188V65.418C23.3672 65.3451 23.3932 65.2852 23.4453 65.2383C23.5 65.1888 23.5638 65.1641 23.6367 65.1641C23.793 65.1771 23.8789 65.2617 23.8945 65.418V66.2188C23.8971 66.2812 23.9102 66.3333 23.9336 66.375C23.957 66.4193 23.9831 66.4544 24.0117 66.4805C24.0404 66.5039 24.069 66.5221 24.0977 66.5352C24.1289 66.5456 24.1602 66.5508 24.1914 66.5508C24.2227 66.5508 24.2539 66.5456 24.2852 66.5352C24.3164 66.5221 24.3464 66.5039 24.375 66.4805C24.4036 66.4544 24.4297 66.4206 24.4531 66.3789C24.4766 66.3346 24.4883 66.2812 24.4883 66.2188V65.418C24.4883 65.3451 24.5143 65.2852 24.5664 65.2383C24.6211 65.1888 24.6849 65.1641 24.7578 65.1641C24.9141 65.1771 25 65.2617 25.0156 65.418V66.25C25.0156 66.3906 24.9844 66.5117 24.9219 66.6133C24.862 66.7148 24.7917 66.7969 24.7109 66.8594C24.6328 66.9193 24.5495 66.9648 24.4609 66.9961C24.375 67.0273 24.2865 67.043 24.1953 67.043C24.1068 67.043 24.0182 67.0273 23.9297 66.9961C23.8438 66.9648 23.7604 66.918 23.6797 66.8555C23.6641 66.8451 23.6497 66.8333 23.6367 66.8203C23.6211 66.8333 23.6068 66.8451 23.5938 66.8555C23.513 66.918 23.4284 66.9648 23.3398 66.9961C23.2539 67.0273 23.1654 67.043 23.0742 67.043ZM25.8008 65.1797C25.8711 65.1823 25.931 65.2083 25.9805 65.2578C26.0299 65.3047 26.056 65.3633 26.0586 65.4336V66.7852C26.043 66.9414 25.957 67.026 25.8008 67.0391C25.7279 67.0391 25.6641 67.0156 25.6094 66.9688C25.5573 66.9193 25.5312 66.8581 25.5312 66.7852V65.4336C25.5339 65.3607 25.5612 65.3008 25.6133 65.2539C25.6654 65.2044 25.7279 65.1797 25.8008 65.1797ZM25.4727 64.6719C25.4727 64.599 25.5039 64.5365 25.5664 64.4844C25.6289 64.4323 25.7044 64.4062 25.793 64.4062C25.8815 64.4062 25.957 64.4323 26.0195 64.4844C26.082 64.5365 26.1133 64.599 26.1133 64.6719C26.1133 64.7474 26.082 64.8112 26.0195 64.8633C25.957 64.9154 25.8815 64.9414 25.793 64.9414C25.7044 64.9414 25.6289 64.9154 25.5664 64.8633C25.5039 64.8112 25.4727 64.7474 25.4727 64.6719ZM27.7812 65.1602C27.9167 65.1602 28.0495 65.1758 28.1797 65.207C28.3125 65.2383 28.4388 65.2852 28.5586 65.3477C28.6784 65.4076 28.7839 65.4883 28.875 65.5898C28.9688 65.6914 29.0195 65.8125 29.0273 65.9531V66.1172V66.7852C29.0117 66.9414 28.9258 67.026 28.7695 67.0391C28.6966 67.0391 28.6328 67.0156 28.5781 66.9688C28.526 66.9193 28.5 66.8581 28.5 66.7852V66.6133V66.0742C28.4948 65.9935 28.4635 65.9271 28.4062 65.875C28.3516 65.8203 28.2891 65.7773 28.2188 65.7461C28.151 65.7148 28.0794 65.6914 28.0039 65.6758C27.931 65.6602 27.8568 65.6523 27.7812 65.6523C27.7057 65.6523 27.6302 65.6602 27.5547 65.6758C27.4818 65.6914 27.4102 65.7148 27.3398 65.7461C27.2721 65.7773 27.2096 65.8203 27.1523 65.875C27.0977 65.9271 27.0677 65.9935 27.0625 66.0742V66.6133V66.7852C27.0495 66.9414 26.9648 67.026 26.8086 67.0391C26.7357 67.0391 26.6719 67.0156 26.6172 66.9688C26.5651 66.9193 26.5391 66.8581 26.5391 66.7852V66.1172V65.9531C26.5469 65.8125 26.5964 65.6914 26.6875 65.5898C26.7786 65.4883 26.8841 65.4076 27.0039 65.3477C27.1237 65.2852 27.2487 65.2383 27.3789 65.207C27.5117 65.1758 27.6458 65.1602 27.7812 65.1602ZM29.793 65.1797C29.8633 65.1823 29.9232 65.2083 29.9727 65.2578C30.0221 65.3047 30.0482 65.3633 30.0508 65.4336V66.7852C30.0352 66.9414 29.9492 67.026 29.793 67.0391C29.7201 67.0391 29.6562 67.0156 29.6016 66.9688C29.5495 66.9193 29.5234 66.8581 29.5234 66.7852V65.4336C29.526 65.3607 29.5534 65.3008 29.6055 65.2539C29.6576 65.2044 29.7201 65.1797 29.793 65.1797ZM29.4648 64.6719C29.4648 64.599 29.4961 64.5365 29.5586 64.4844C29.6211 64.4323 29.6966 64.4062 29.7852 64.4062C29.8737 64.4062 29.9492 64.4323 30.0117 64.4844C30.0742 64.5365 30.1055 64.599 30.1055 64.6719C30.1055 64.7474 30.0742 64.8112 30.0117 64.8633C29.9492 64.9154 29.8737 64.9414 29.7852 64.9414C29.6966 64.9414 29.6211 64.9154 29.5586 64.8633C29.4961 64.8112 29.4648 64.7474 29.4648 64.6719ZM31.7734 65.1602C31.9089 65.1602 32.0417 65.1758 32.1719 65.207C32.3047 65.2383 32.431 65.2852 32.5508 65.3477C32.6706 65.4076 32.776 65.4883 32.8672 65.5898C32.9609 65.6914 33.0117 65.8125 33.0195 65.9531V66.1172V66.7852C33.0039 66.9414 32.918 67.026 32.7617 67.0391C32.6888 67.0391 32.625 67.0156 32.5703 66.9688C32.5182 66.9193 32.4922 66.8581 32.4922 66.7852V66.6133V66.0742C32.487 65.9935 32.4557 65.9271 32.3984 65.875C32.3438 65.8203 32.2812 65.7773 32.2109 65.7461C32.1432 65.7148 32.0716 65.6914 31.9961 65.6758C31.9232 65.6602 31.849 65.6523 31.7734 65.6523C31.6979 65.6523 31.6224 65.6602 31.5469 65.6758C31.474 65.6914 31.4023 65.7148 31.332 65.7461C31.2643 65.7773 31.2018 65.8203 31.1445 65.875C31.0898 65.9271 31.0599 65.9935 31.0547 66.0742V66.6133V66.7852C31.0417 66.9414 30.957 67.026 30.8008 67.0391C30.7279 67.0391 30.6641 67.0156 30.6094 66.9688C30.5573 66.9193 30.5312 66.8581 30.5312 66.7852V66.1172V65.9531C30.5391 65.8125 30.5885 65.6914 30.6797 65.5898C30.7708 65.4883 30.8763 65.4076 30.9961 65.3477C31.1159 65.2852 31.2409 65.2383 31.3711 65.207C31.5039 65.1758 31.638 65.1602 31.7734 65.1602ZM35.707 65.8438C35.707 65.7786 35.6732 65.7448 35.6055 65.7422H34.2383C34.1888 65.7448 34.1458 65.7669 34.1094 65.8086C34.0729 65.8477 34.0456 65.8945 34.0273 65.9492C34.0117 66.0013 34.0039 66.0547 34.0039 66.1094C34.0039 66.1615 34.0117 66.2148 34.0273 66.2695C34.0456 66.3216 34.0729 66.3685 34.1094 66.4102C34.1458 66.4492 34.1888 66.4688 34.2383 66.4688H35.2383C35.3112 66.4688 35.3724 66.4948 35.4219 66.5469C35.474 66.5964 35.5 66.6576 35.5 66.7305C35.5 66.8034 35.474 66.8646 35.4219 66.9141C35.3724 66.9661 35.3112 66.9922 35.2383 66.9922H34.2539C34.0716 66.9896 33.9206 66.9388 33.8008 66.8398C33.6836 66.7383 33.599 66.625 33.5469 66.5C33.4974 66.3724 33.4727 66.2409 33.4727 66.1055C33.4727 65.9753 33.4987 65.8477 33.5508 65.7227C33.6029 65.5951 33.6875 65.4818 33.8047 65.3828C33.9219 65.2812 34.0951 65.2266 34.3242 65.2188H35.9648C36.0378 65.2188 36.1003 65.2435 36.1523 65.293C36.2044 65.3398 36.2318 65.3997 36.2344 65.4727V66.707C36.2344 66.9154 36.2057 67.112 36.1484 67.2969C36.0964 67.4609 36.0104 67.599 35.8906 67.7109C35.7734 67.8255 35.6237 67.888 35.4414 67.8984H34.0898C34.0195 67.8958 33.9596 67.8698 33.9102 67.8203C33.8633 67.7734 33.8385 67.7148 33.8359 67.6445C33.8359 67.5716 33.8594 67.5091 33.9062 67.457C33.9557 67.4049 34.0169 67.3776 34.0898 67.375H35.3086C35.4076 67.3698 35.4896 67.332 35.5547 67.2617C35.6198 67.1914 35.6615 67.1094 35.6797 67.0156C35.6979 66.9219 35.707 66.8008 35.707 66.6523V65.8438ZM39.0312 65.1797C39.1016 65.1823 39.1615 65.2083 39.2109 65.2578C39.2604 65.3047 39.2865 65.3633 39.2891 65.4336V66.7852C39.2734 66.9414 39.1875 67.026 39.0312 67.0391C38.9583 67.0391 38.8945 67.0156 38.8398 66.9688C38.7878 66.9193 38.7617 66.8581 38.7617 66.7852V65.4336C38.7643 65.3607 38.7917 65.3008 38.8438 65.2539C38.8958 65.2044 38.9583 65.1797 39.0312 65.1797ZM38.7031 64.6719C38.7031 64.599 38.7344 64.5365 38.7969 64.4844C38.8594 64.4323 38.9349 64.4062 39.0234 64.4062C39.112 64.4062 39.1875 64.4323 39.25 64.4844C39.3125 64.5365 39.3438 64.599 39.3438 64.6719C39.3438 64.7474 39.3125 64.8112 39.25 64.8633C39.1875 64.9154 39.112 64.9414 39.0234 64.9414C38.9349 64.9414 38.8594 64.9154 38.7969 64.8633C38.7344 64.8112 38.7031 64.7474 38.7031 64.6719ZM41.0117 65.1602C41.1471 65.1602 41.2799 65.1758 41.4102 65.207C41.543 65.2383 41.6693 65.2852 41.7891 65.3477C41.9089 65.4076 42.0143 65.4883 42.1055 65.5898C42.1992 65.6914 42.25 65.8125 42.2578 65.9531V66.1172V66.7852C42.2422 66.9414 42.1562 67.026 42 67.0391C41.9271 67.0391 41.8633 67.0156 41.8086 66.9688C41.7565 66.9193 41.7305 66.8581 41.7305 66.7852V66.6133V66.0742C41.7253 65.9935 41.694 65.9271 41.6367 65.875C41.582 65.8203 41.5195 65.7773 41.4492 65.7461C41.3815 65.7148 41.3099 65.6914 41.2344 65.6758C41.1615 65.6602 41.0872 65.6523 41.0117 65.6523C40.9362 65.6523 40.8607 65.6602 40.7852 65.6758C40.7122 65.6914 40.6406 65.7148 40.5703 65.7461C40.5026 65.7773 40.4401 65.8203 40.3828 65.875C40.3281 65.9271 40.2982 65.9935 40.293 66.0742V66.6133V66.7852C40.2799 66.9414 40.1953 67.026 40.0391 67.0391C39.9661 67.0391 39.9023 67.0156 39.8477 66.9688C39.7956 66.9193 39.7695 66.8581 39.7695 66.7852V66.1172V65.9531C39.7773 65.8125 39.8268 65.6914 39.918 65.5898C40.0091 65.4883 40.1146 65.4076 40.2344 65.3477C40.3542 65.2852 40.4792 65.2383 40.6094 65.207C40.7422 65.1758 40.8763 65.1602 41.0117 65.1602ZM45.0586 65.668C45.0143 65.6107 44.9961 65.5469 45.0039 65.4766C45.0143 65.4062 45.0482 65.3477 45.1055 65.3008L45.875 64.7031C45.9323 64.651 45.9974 64.625 46.0703 64.625C46.1406 64.6276 46.2005 64.6536 46.25 64.7031C46.2995 64.75 46.3255 64.8086 46.3281 64.8789V66.793C46.3125 66.9492 46.2266 67.0339 46.0703 67.0469C45.9974 67.0469 45.9336 67.0234 45.8789 66.9766C45.8268 66.9271 45.8008 66.8659 45.8008 66.793V65.4258L45.4258 65.7148C45.3685 65.7591 45.3047 65.776 45.2344 65.7656C45.1615 65.7578 45.1029 65.7253 45.0586 65.668ZM50.0703 65.8438C50.0703 65.7786 50.0365 65.7448 49.9688 65.7422H48.6016C48.5521 65.7448 48.5091 65.7669 48.4727 65.8086C48.4362 65.8477 48.4089 65.8945 48.3906 65.9492C48.375 66.0013 48.3672 66.0547 48.3672 66.1094C48.3672 66.1615 48.375 66.2148 48.3906 66.2695C48.4089 66.3216 48.4362 66.3685 48.4727 66.4102C48.5091 66.4492 48.5521 66.4688 48.6016 66.4688H49.6016C49.6745 66.4688 49.7357 66.4948 49.7852 66.5469C49.8372 66.5964 49.8633 66.6576 49.8633 66.7305C49.8633 66.8034 49.8372 66.8646 49.7852 66.9141C49.7357 66.9661 49.6745 66.9922 49.6016 66.9922H48.6172C48.4349 66.9896 48.2839 66.9388 48.1641 66.8398C48.0469 66.7383 47.9622 66.625 47.9102 66.5C47.8607 66.3724 47.8359 66.2409 47.8359 66.1055C47.8359 65.9753 47.862 65.8477 47.9141 65.7227C47.9661 65.5951 48.0508 65.4818 48.168 65.3828C48.2852 65.2812 48.4583 65.2266 48.6875 65.2188H50.3281C50.401 65.2188 50.4635 65.2435 50.5156 65.293C50.5677 65.3398 50.5951 65.3997 50.5977 65.4727V66.707C50.5977 66.9154 50.569 67.112 50.5117 67.2969C50.4596 67.4609 50.3737 67.599 50.2539 67.7109C50.1367 67.8255 49.987 67.888 49.8047 67.8984H48.4531C48.3828 67.8958 48.3229 67.8698 48.2734 67.8203C48.2266 67.7734 48.2018 67.7148 48.1992 67.6445C48.1992 67.5716 48.2227 67.5091 48.2695 67.457C48.319 67.4049 48.3802 67.3776 48.4531 67.375H49.6719C49.7708 67.3698 49.8529 67.332 49.918 67.2617C49.9831 67.1914 50.0247 67.1094 50.043 67.0156C50.0612 66.9219 50.0703 66.8008 50.0703 66.6523V65.8438ZM53.3086 66.7852V65.8438C53.3086 65.7786 53.2747 65.7448 53.207 65.7422H51.8398C51.7904 65.7448 51.7474 65.7669 51.7109 65.8086C51.6745 65.8477 51.6471 65.8945 51.6289 65.9492C51.6133 66.0013 51.6055 66.0547 51.6055 66.1094C51.6055 66.1615 51.6133 66.2148 51.6289 66.2695C51.6471 66.3216 51.6745 66.3685 51.7109 66.4102C51.7474 66.4492 51.7904 66.4688 51.8398 66.4688H52.8398C52.9128 66.4688 52.974 66.4948 53.0234 66.5469C53.0755 66.5964 53.1016 66.6576 53.1016 66.7305C53.1016 66.8034 53.0755 66.8646 53.0234 66.9141C52.974 66.9661 52.9128 66.9922 52.8398 66.9922H51.8555C51.6732 66.9896 51.5221 66.9388 51.4023 66.8398C51.2852 66.7383 51.2005 66.625 51.1484 66.5C51.099 66.3724 51.0742 66.2409 51.0742 66.1055C51.0742 65.9753 51.1003 65.8477 51.1523 65.7227C51.2044 65.5951 51.2891 65.4818 51.4062 65.3828C51.5234 65.2812 51.6966 65.2266 51.9258 65.2188H53.5664C53.6393 65.2188 53.7018 65.2435 53.7539 65.293C53.806 65.3398 53.8333 65.3997 53.8359 65.4727V66.7852C53.8359 66.8581 53.8086 66.9193 53.7539 66.9688C53.7018 67.0156 53.6393 67.0391 53.5664 67.0391C53.4102 67.026 53.3242 66.9414 53.3086 66.7852ZM55.168 65.1602C55.2591 65.1602 55.3477 65.1758 55.4336 65.207C55.5221 65.2383 55.6068 65.2839 55.6875 65.3438C55.7005 65.3568 55.7148 65.3698 55.7305 65.3828C55.7435 65.3698 55.7578 65.3568 55.7734 65.3438C55.8542 65.2839 55.9375 65.2383 56.0234 65.207C56.112 65.1758 56.2005 65.1602 56.2891 65.1602C56.3802 65.1602 56.4688 65.1758 56.5547 65.207C56.6432 65.2383 56.7266 65.2852 56.8047 65.3477C56.8854 65.4076 56.9557 65.4883 57.0156 65.5898C57.0781 65.6914 57.1094 65.8125 57.1094 65.9531V66.7852C57.0938 66.9414 57.0078 67.026 56.8516 67.0391C56.7786 67.0391 56.7148 67.0156 56.6602 66.9688C56.6081 66.9193 56.582 66.8581 56.582 66.7852V65.9844C56.582 65.9219 56.5703 65.8698 56.5469 65.8281C56.5234 65.7839 56.4974 65.75 56.4688 65.7266C56.4401 65.7005 56.4102 65.6823 56.3789 65.6719C56.3477 65.6589 56.3164 65.6523 56.2852 65.6523C56.2539 65.6523 56.2227 65.6589 56.1914 65.6719C56.1628 65.6823 56.1341 65.7005 56.1055 65.7266C56.0768 65.75 56.0508 65.7839 56.0273 65.8281C56.0039 65.8698 55.9909 65.9219 55.9883 65.9844V66.7852C55.9727 66.9414 55.8867 67.026 55.7305 67.0391C55.6576 67.0391 55.5938 67.0156 55.5391 66.9688C55.487 66.9193 55.4609 66.8581 55.4609 66.7852V65.9844C55.4609 65.9219 55.4492 65.8698 55.4258 65.8281C55.4023 65.7839 55.3763 65.75 55.3477 65.7266C55.319 65.7005 55.2891 65.6823 55.2578 65.6719C55.2266 65.6589 55.1953 65.6523 55.1641 65.6523C55.1328 65.6523 55.1016 65.6589 55.0703 65.6719C55.0417 65.6823 55.013 65.7005 54.9844 65.7266C54.9557 65.75 54.9297 65.7839 54.9062 65.8281C54.8828 65.8698 54.8698 65.9219 54.8672 65.9844V66.7852C54.8542 66.9414 54.7695 67.026 54.6133 67.0391C54.5404 67.0391 54.4766 67.0156 54.4219 66.9688C54.3698 66.9193 54.3438 66.8581 54.3438 66.7852V65.9531C54.349 65.8125 54.3815 65.6914 54.4414 65.5898C54.5013 65.4883 54.5716 65.4076 54.6523 65.3477C54.7331 65.2852 54.8164 65.2383 54.9023 65.207C54.9909 65.1758 55.0794 65.1602 55.168 65.1602ZM58.3945 66.9922C58.1654 66.9844 57.9922 66.931 57.875 66.832C57.7578 66.7305 57.6732 66.6172 57.6211 66.4922C57.569 66.3646 57.543 66.2357 57.543 66.1055C57.543 65.9701 57.5677 65.8398 57.6172 65.7148C57.6693 65.5872 57.7539 65.474 57.8711 65.375C57.9909 65.2734 58.1419 65.2214 58.3242 65.2188H59.8086C59.8815 65.2188 59.9427 65.2435 59.9922 65.293C60.0443 65.3398 60.0703 65.3971 60.0703 65.4648C60.0703 65.5352 60.0443 65.5951 59.9922 65.6445C59.9427 65.6914 59.8815 65.7148 59.8086 65.7148H58.3477C58.2904 65.7148 58.2396 65.7344 58.1953 65.7734C58.1536 65.8125 58.1224 65.8633 58.1016 65.9258C58.0833 65.9883 58.0742 66.0495 58.0742 66.1094C58.0742 66.1745 58.0833 66.2383 58.1016 66.3008C58.1224 66.3633 58.1536 66.4141 58.1953 66.4531C58.2396 66.4896 58.2904 66.5091 58.3477 66.5117H59.8086C59.8815 66.5117 59.9427 66.5352 59.9922 66.582C60.0443 66.6289 60.0703 66.6849 60.0703 66.75C60.0703 66.8177 60.0443 66.875 59.9922 66.9219C59.9427 66.9688 59.8815 66.9922 59.8086 66.9922H58.3945ZM60.0234 66.0977C60.0234 66.1471 60.0013 66.1901 59.957 66.2266C59.918 66.2604 59.8685 66.2773 59.8086 66.2773H58.5312C58.4714 66.2773 58.4206 66.2604 58.3789 66.2266C58.3372 66.1901 58.3164 66.1471 58.3164 66.0977C58.3164 66.0508 58.3372 66.0091 58.3789 65.9727C58.4206 65.9388 58.4714 65.9219 58.5312 65.9219H59.8086C59.8685 65.9219 59.9193 65.9401 59.9609 65.9766C60.0026 66.0104 60.0234 66.0508 60.0234 66.0977ZM62.7891 65.1797C62.8594 65.1823 62.9193 65.2083 62.9688 65.2578C63.0182 65.3047 63.0443 65.3633 63.0469 65.4336V66.7852C63.0312 66.9414 62.9453 67.026 62.7891 67.0391C62.7161 67.0391 62.6523 67.0156 62.5977 66.9688C62.5456 66.9193 62.5195 66.8581 62.5195 66.7852V65.4336C62.5221 65.3607 62.5495 65.3008 62.6016 65.2539C62.6536 65.2044 62.7161 65.1797 62.7891 65.1797ZM62.4609 64.6719C62.4609 64.599 62.4922 64.5365 62.5547 64.4844C62.6172 64.4323 62.6927 64.4062 62.7812 64.4062C62.8698 64.4062 62.9453 64.4323 63.0078 64.4844C63.0703 64.5365 63.1016 64.599 63.1016 64.6719C63.1016 64.7474 63.0703 64.8112 63.0078 64.8633C62.9453 64.9154 62.8698 64.9414 62.7812 64.9414C62.6927 64.9414 62.6172 64.9154 62.5547 64.8633C62.4922 64.8112 62.4609 64.7474 62.4609 64.6719ZM64.7695 65.1602C64.9049 65.1602 65.0378 65.1758 65.168 65.207C65.3008 65.2383 65.4271 65.2852 65.5469 65.3477C65.6667 65.4076 65.7721 65.4883 65.8633 65.5898C65.957 65.6914 66.0078 65.8125 66.0156 65.9531V66.1172V66.7852C66 66.9414 65.9141 67.026 65.7578 67.0391C65.6849 67.0391 65.6211 67.0156 65.5664 66.9688C65.5143 66.9193 65.4883 66.8581 65.4883 66.7852V66.6133V66.0742C65.4831 65.9935 65.4518 65.9271 65.3945 65.875C65.3398 65.8203 65.2773 65.7773 65.207 65.7461C65.1393 65.7148 65.0677 65.6914 64.9922 65.6758C64.9193 65.6602 64.8451 65.6523 64.7695 65.6523C64.694 65.6523 64.6185 65.6602 64.543 65.6758C64.4701 65.6914 64.3984 65.7148 64.3281 65.7461C64.2604 65.7773 64.1979 65.8203 64.1406 65.875C64.0859 65.9271 64.056 65.9935 64.0508 66.0742V66.6133V66.7852C64.0378 66.9414 63.9531 67.026 63.7969 67.0391C63.724 67.0391 63.6602 67.0156 63.6055 66.9688C63.5534 66.9193 63.5273 66.8581 63.5273 66.7852V66.1172V65.9531C63.5352 65.8125 63.5846 65.6914 63.6758 65.5898C63.7669 65.4883 63.8724 65.4076 63.9922 65.3477C64.112 65.2852 64.237 65.2383 64.3672 65.207C64.5 65.1758 64.6341 65.1602 64.7695 65.1602ZM23.0938 68.625C23.1667 68.625 23.2292 68.6497 23.2812 68.6992C23.3333 68.7461 23.3607 68.806 23.3633 68.8789V69.2188H24.6914C24.7643 69.2188 24.8268 69.2435 24.8789 69.293C24.9284 69.3451 24.9531 69.4076 24.9531 69.4805C24.9531 69.5534 24.9271 69.6159 24.875 69.668C24.8255 69.7174 24.7643 69.7422 24.6914 69.7422H23.3633V69.8203C23.3607 69.9271 23.3672 70.026 23.3828 70.1172C23.401 70.2057 23.4427 70.2852 23.5078 70.3555C23.5729 70.4258 23.6549 70.4635 23.7539 70.4688H24.707C24.7799 70.4714 24.8398 70.4987 24.8867 70.5508C24.9362 70.6029 24.9609 70.6654 24.9609 70.7383C24.9583 70.8086 24.9323 70.8685 24.8828 70.918C24.8359 70.9648 24.7773 70.9896 24.707 70.9922H23.6211C23.4388 70.9818 23.2878 70.9206 23.168 70.8086C23.0508 70.694 22.9661 70.5547 22.9141 70.3906C22.8646 70.2266 22.8385 70.0521 22.8359 69.8672V69.7422H22.3867C22.3138 69.7422 22.2526 69.7161 22.2031 69.6641C22.151 69.6146 22.125 69.5534 22.125 69.4805C22.125 69.4076 22.1497 69.3464 22.1992 69.2969C22.2513 69.2448 22.3138 69.2188 22.3867 69.2188H22.8359V68.8789C22.8385 68.8086 22.8646 68.75 22.9141 68.7031C22.9635 68.6536 23.0234 68.6276 23.0938 68.625ZM25.6055 68.625C25.6758 68.6276 25.7357 68.6536 25.7852 68.7031C25.8346 68.75 25.8607 68.8086 25.8633 68.8789V69.2188H27.0742C27.2565 69.2214 27.4062 69.2734 27.5234 69.375C27.6432 69.474 27.7279 69.5859 27.7773 69.7109C27.8294 69.8385 27.8555 69.9701 27.8555 70.1055H27.8594V70.7852C27.8594 70.8581 27.832 70.9193 27.7773 70.9688C27.7253 71.0156 27.6628 71.0391 27.5898 71.0391C27.4336 71.026 27.3477 70.9414 27.332 70.7852V70.1016C27.332 70.0521 27.3216 70 27.3008 69.9453C27.2826 69.8906 27.2552 69.8438 27.2188 69.8047C27.1823 69.763 27.1393 69.7422 27.0898 69.7422H25.8633V70.793C25.8477 70.9492 25.7617 71.0339 25.6055 71.0469C25.5326 71.0469 25.4688 71.0234 25.4141 70.9766C25.362 70.9271 25.3359 70.8659 25.3359 70.793V68.8789C25.3385 68.806 25.3659 68.7461 25.418 68.6992C25.4701 68.6497 25.5326 68.625 25.6055 68.625ZM29.1523 70.9922C28.9232 70.9844 28.75 70.931 28.6328 70.832C28.5156 70.7305 28.431 70.6172 28.3789 70.4922C28.3268 70.3646 28.3008 70.2357 28.3008 70.1055C28.3008 69.9701 28.3255 69.8398 28.375 69.7148C28.4271 69.5872 28.5117 69.474 28.6289 69.375C28.7487 69.2734 28.8997 69.2214 29.082 69.2188H30.5664C30.6393 69.2188 30.7005 69.2435 30.75 69.293C30.8021 69.3398 30.8281 69.3971 30.8281 69.4648C30.8281 69.5352 30.8021 69.5951 30.75 69.6445C30.7005 69.6914 30.6393 69.7148 30.5664 69.7148H29.1055C29.0482 69.7148 28.9974 69.7344 28.9531 69.7734C28.9115 69.8125 28.8802 69.8633 28.8594 69.9258C28.8411 69.9883 28.832 70.0495 28.832 70.1094C28.832 70.1745 28.8411 70.2383 28.8594 70.3008C28.8802 70.3633 28.9115 70.4141 28.9531 70.4531C28.9974 70.4896 29.0482 70.5091 29.1055 70.5117H30.5664C30.6393 70.5117 30.7005 70.5352 30.75 70.582C30.8021 70.6289 30.8281 70.6849 30.8281 70.75C30.8281 70.8177 30.8021 70.875 30.75 70.9219C30.7005 70.9688 30.6393 70.9922 30.5664 70.9922H29.1523ZM30.7812 70.0977C30.7812 70.1471 30.7591 70.1901 30.7148 70.2266C30.6758 70.2604 30.6263 70.2773 30.5664 70.2773H29.2891C29.2292 70.2773 29.1784 70.2604 29.1367 70.2266C29.0951 70.1901 29.0742 70.1471 29.0742 70.0977C29.0742 70.0508 29.0951 70.0091 29.1367 69.9727C29.1784 69.9388 29.2292 69.9219 29.2891 69.9219H30.5664C30.6263 69.9219 30.6771 69.9401 30.7188 69.9766C30.7604 70.0104 30.7812 70.0508 30.7812 70.0977ZM34.1719 71.0391C34.1016 71.0365 34.0417 71.0117 33.9922 70.9648C33.9427 70.9154 33.9167 70.8555 33.9141 70.7852V70.2578H33.4648C33.3919 70.2578 33.3294 70.2331 33.2773 70.1836C33.2279 70.1315 33.2031 70.069 33.2031 69.9961C33.2031 69.9232 33.2292 69.862 33.2812 69.8125C33.3307 69.7604 33.3919 69.7344 33.4648 69.7344H33.9141C33.9219 69.5807 33.9479 69.4323 33.9922 69.2891C34.0443 69.125 34.1289 68.987 34.2461 68.875C34.3659 68.7604 34.5169 68.6979 34.6992 68.6875H35.7852C35.8555 68.6901 35.9141 68.7161 35.9609 68.7656C36.0104 68.8125 36.0365 68.8711 36.0391 68.9414C36.0391 69.0143 36.0143 69.0768 35.9648 69.1289C35.918 69.181 35.8581 69.2083 35.7852 69.2109H34.832C34.7331 69.2161 34.651 69.2539 34.5859 69.3242C34.5208 69.3945 34.4805 69.474 34.4648 69.5625C34.4518 69.6198 34.444 69.6771 34.4414 69.7344H35.7695C35.8424 69.7344 35.9036 69.7604 35.9531 69.8125C36.0052 69.862 36.0312 69.9232 36.0312 69.9961C36.0312 70.069 36.0065 70.1315 35.957 70.1836C35.9049 70.2331 35.8424 70.2578 35.7695 70.2578H34.4414V70.7852C34.4388 70.8581 34.4115 70.9193 34.3594 70.9688C34.3073 71.0156 34.2448 71.0391 34.1719 71.0391ZM36.5273 69.7109C36.5768 69.5859 36.6602 69.474 36.7773 69.375C36.8971 69.2734 37.0482 69.2214 37.2305 69.2188H38.6992C38.7721 69.2188 38.8333 69.2448 38.8828 69.2969C38.9349 69.3464 38.9609 69.4076 38.9609 69.4805C38.9609 69.5534 38.9349 69.6159 38.8828 69.668C38.8333 69.7174 38.7721 69.7422 38.6992 69.7422H37.2148C37.1654 69.7422 37.1224 69.763 37.0859 69.8047C37.0495 69.8438 37.0208 69.8906 37 69.9453C36.9818 70 36.9727 70.0521 36.9727 70.1016V70.7852C36.957 70.9414 36.8711 71.026 36.7148 71.0391C36.6419 71.0391 36.5781 71.0156 36.5234 70.9688C36.4714 70.9193 36.4453 70.8581 36.4453 70.7852V70.1055H36.4492C36.4492 69.9701 36.4753 69.8385 36.5273 69.7109ZM39.6172 69.1797C39.6875 69.1823 39.7474 69.2083 39.7969 69.2578C39.8464 69.3047 39.8724 69.3633 39.875 69.4336V70.7852C39.8594 70.9414 39.7734 71.026 39.6172 71.0391C39.5443 71.0391 39.4805 71.0156 39.4258 70.9688C39.3737 70.9193 39.3477 70.8581 39.3477 70.7852V69.4336C39.3503 69.3607 39.3776 69.3008 39.4297 69.2539C39.4818 69.2044 39.5443 69.1797 39.6172 69.1797ZM39.2891 68.6719C39.2891 68.599 39.3203 68.5365 39.3828 68.4844C39.4453 68.4323 39.5208 68.4062 39.6094 68.4062C39.6979 68.4062 39.7734 68.4323 39.8359 68.4844C39.8984 68.5365 39.9297 68.599 39.9297 68.6719C39.9297 68.7474 39.8984 68.8112 39.8359 68.8633C39.7734 68.9154 39.6979 68.9414 39.6094 68.9414C39.5208 68.9414 39.4453 68.9154 39.3828 68.8633C39.3203 68.8112 39.2891 68.7474 39.2891 68.6719ZM41.1523 70.9922C40.9232 70.9844 40.75 70.931 40.6328 70.832C40.5156 70.7305 40.431 70.6172 40.3789 70.4922C40.3268 70.3646 40.3008 70.2357 40.3008 70.1055C40.3008 69.9701 40.3255 69.8398 40.375 69.7148C40.4271 69.5872 40.5117 69.474 40.6289 69.375C40.7487 69.2734 40.8997 69.2214 41.082 69.2188H42.5664C42.6393 69.2188 42.7005 69.2435 42.75 69.293C42.8021 69.3398 42.8281 69.3971 42.8281 69.4648C42.8281 69.5352 42.8021 69.5951 42.75 69.6445C42.7005 69.6914 42.6393 69.7148 42.5664 69.7148H41.1055C41.0482 69.7148 40.9974 69.7344 40.9531 69.7734C40.9115 69.8125 40.8802 69.8633 40.8594 69.9258C40.8411 69.9883 40.832 70.0495 40.832 70.1094C40.832 70.1745 40.8411 70.2383 40.8594 70.3008C40.8802 70.3633 40.9115 70.4141 40.9531 70.4531C40.9974 70.4896 41.0482 70.5091 41.1055 70.5117H42.5664C42.6393 70.5117 42.7005 70.5352 42.75 70.582C42.8021 70.6289 42.8281 70.6849 42.8281 70.75C42.8281 70.8177 42.8021 70.875 42.75 70.9219C42.7005 70.9688 42.6393 70.9922 42.5664 70.9922H41.1523ZM42.7812 70.0977C42.7812 70.1471 42.7591 70.1901 42.7148 70.2266C42.6758 70.2604 42.6263 70.2773 42.5664 70.2773H41.2891C41.2292 70.2773 41.1784 70.2604 41.1367 70.2266C41.0951 70.1901 41.0742 70.1471 41.0742 70.0977C41.0742 70.0508 41.0951 70.0091 41.1367 69.9727C41.1784 69.9388 41.2292 69.9219 41.2891 69.9219H42.5664C42.6263 69.9219 42.6771 69.9401 42.7188 69.9766C42.7604 70.0104 42.7812 70.0508 42.7812 70.0977ZM44.5234 69.1602C44.6589 69.1602 44.7917 69.1758 44.9219 69.207C45.0547 69.2383 45.181 69.2852 45.3008 69.3477C45.4206 69.4076 45.526 69.4883 45.6172 69.5898C45.7109 69.6914 45.7617 69.8125 45.7695 69.9531V70.1172V70.7852C45.7539 70.9414 45.668 71.026 45.5117 71.0391C45.4388 71.0391 45.375 71.0156 45.3203 70.9688C45.2682 70.9193 45.2422 70.8581 45.2422 70.7852V70.6133V70.0742C45.237 69.9935 45.2057 69.9271 45.1484 69.875C45.0938 69.8203 45.0312 69.7773 44.9609 69.7461C44.8932 69.7148 44.8216 69.6914 44.7461 69.6758C44.6732 69.6602 44.599 69.6523 44.5234 69.6523C44.4479 69.6523 44.3724 69.6602 44.2969 69.6758C44.224 69.6914 44.1523 69.7148 44.082 69.7461C44.0143 69.7773 43.9518 69.8203 43.8945 69.875C43.8398 69.9271 43.8099 69.9935 43.8047 70.0742V70.6133V70.7852C43.7917 70.9414 43.707 71.026 43.5508 71.0391C43.4779 71.0391 43.4141 71.0156 43.3594 70.9688C43.3073 70.9193 43.2812 70.8581 43.2812 70.7852V70.1172V69.9531C43.2891 69.8125 43.3385 69.6914 43.4297 69.5898C43.5208 69.4883 43.6263 69.4076 43.7461 69.3477C43.8659 69.2852 43.9909 69.2383 44.1211 69.207C44.2539 69.1758 44.388 69.1602 44.5234 69.1602ZM48.4414 68.8789C48.457 68.7227 48.543 68.638 48.6992 68.625C48.7721 68.625 48.8346 68.6497 48.8867 68.6992C48.9414 68.7461 48.9688 68.806 48.9688 68.8789V70.7383C48.9661 70.8112 48.9388 70.8724 48.8867 70.9219C48.8346 70.9688 48.7721 70.9922 48.6992 70.9922H47.0586C46.8294 70.9844 46.6562 70.931 46.5391 70.832C46.4219 70.7305 46.3372 70.6172 46.2852 70.4922C46.2331 70.3646 46.207 70.2357 46.207 70.1055C46.207 69.9701 46.2318 69.8398 46.2812 69.7148C46.3333 69.5872 46.418 69.474 46.5352 69.375C46.6549 69.2734 46.806 69.2214 46.9883 69.2188H47.9727C48.0456 69.2188 48.1068 69.2448 48.1562 69.2969C48.2083 69.3464 48.2344 69.4076 48.2344 69.4805C48.2344 69.5534 48.2083 69.6159 48.1562 69.668C48.1068 69.7174 48.0456 69.7422 47.9727 69.7422H46.9727C46.9232 69.7422 46.8802 69.763 46.8438 69.8047C46.8073 69.8438 46.7799 69.8906 46.7617 69.9453C46.7461 69.9974 46.7383 70.0495 46.7383 70.1016C46.7383 70.1562 46.7461 70.2109 46.7617 70.2656C46.7799 70.3177 46.8073 70.3646 46.8438 70.4062C46.8802 70.4453 46.9232 70.4661 46.9727 70.4688H48.3398C48.4076 70.4661 48.4414 70.4323 48.4414 70.3672V68.8789ZM51.9648 69.4453C51.9648 69.5104 51.9388 69.5651 51.8867 69.6094C51.8372 69.651 51.776 69.6719 51.7031 69.6719H50.0508C50.0169 69.6719 49.9896 69.6784 49.9688 69.6914C49.9479 69.7044 49.9323 69.7188 49.9219 69.7344C49.9115 69.7474 49.9062 69.7591 49.9062 69.7695C49.9062 69.7826 49.9115 69.7969 49.9219 69.8125C49.9323 69.8255 49.9479 69.8385 49.9688 69.8516C49.9896 69.862 50.0169 69.8685 50.0508 69.8711H51.3281C51.4922 69.8737 51.6276 69.9062 51.7344 69.9688C51.8411 70.0286 51.9167 70.1003 51.9609 70.1836C52.0078 70.2643 52.0312 70.3464 52.0312 70.4297C52.0312 70.5104 52.0078 70.5924 51.9609 70.6758C51.9141 70.7565 51.8372 70.8281 51.7305 70.8906C51.6263 70.9505 51.4922 70.9805 51.3281 70.9805C51.2995 70.9831 51.2786 70.9844 51.2656 70.9844H49.75C49.6771 70.9844 49.6146 70.9635 49.5625 70.9219C49.513 70.8776 49.4883 70.8242 49.4883 70.7617C49.4883 70.6966 49.5143 70.6419 49.5664 70.5977C49.6159 70.556 49.6771 70.5352 49.75 70.5352H51.3594C51.3984 70.5378 51.4297 70.5326 51.4531 70.5195C51.4792 70.5065 51.4987 70.4922 51.5117 70.4766C51.5247 70.4609 51.5312 70.4453 51.5312 70.4297C51.5312 70.4219 51.5247 70.4089 51.5117 70.3906C51.4987 70.3698 51.4792 70.3542 51.4531 70.3438C51.4297 70.3307 51.3984 70.3229 51.3594 70.3203H50.0781C49.9271 70.3177 49.8021 70.2865 49.7031 70.2266C49.6042 70.1641 49.5339 70.0924 49.4922 70.0117C49.4505 69.931 49.4297 69.8503 49.4297 69.7695C49.4297 69.6888 49.4505 69.6094 49.4922 69.5312C49.5365 69.4505 49.6068 69.3815 49.7031 69.3242C49.8021 69.2643 49.9271 69.2318 50.0781 69.2266C50.1042 69.224 50.1237 69.2227 50.1367 69.2227H51.7031C51.776 69.2227 51.8372 69.2448 51.8867 69.2891C51.9388 69.3307 51.9648 69.3828 51.9648 69.4453ZM55.293 69.1602C55.3841 69.1602 55.4727 69.1758 55.5586 69.207C55.6471 69.2383 55.7318 69.2839 55.8125 69.3438C55.8255 69.3568 55.8398 69.3698 55.8555 69.3828C55.8685 69.3698 55.8828 69.3568 55.8984 69.3438C55.9792 69.2839 56.0625 69.2383 56.1484 69.207C56.237 69.1758 56.3255 69.1602 56.4141 69.1602C56.5052 69.1602 56.5938 69.1758 56.6797 69.207C56.7682 69.2383 56.8516 69.2852 56.9297 69.3477C57.0104 69.4076 57.0807 69.4883 57.1406 69.5898C57.2031 69.6914 57.2344 69.8125 57.2344 69.9531V70.7852C57.2188 70.9414 57.1328 71.026 56.9766 71.0391C56.9036 71.0391 56.8398 71.0156 56.7852 70.9688C56.7331 70.9193 56.707 70.8581 56.707 70.7852V69.9844C56.707 69.9219 56.6953 69.8698 56.6719 69.8281C56.6484 69.7839 56.6224 69.75 56.5938 69.7266C56.5651 69.7005 56.5352 69.6823 56.5039 69.6719C56.4727 69.6589 56.4414 69.6523 56.4102 69.6523C56.3789 69.6523 56.3477 69.6589 56.3164 69.6719C56.2878 69.6823 56.2591 69.7005 56.2305 69.7266C56.2018 69.75 56.1758 69.7839 56.1523 69.8281C56.1289 69.8698 56.1159 69.9219 56.1133 69.9844V70.7852C56.0977 70.9414 56.0117 71.026 55.8555 71.0391C55.7826 71.0391 55.7188 71.0156 55.6641 70.9688C55.612 70.9193 55.5859 70.8581 55.5859 70.7852V69.9844C55.5859 69.9219 55.5742 69.8698 55.5508 69.8281C55.5273 69.7839 55.5013 69.75 55.4727 69.7266C55.444 69.7005 55.4141 69.6823 55.3828 69.6719C55.3516 69.6589 55.3203 69.6523 55.2891 69.6523C55.2578 69.6523 55.2266 69.6589 55.1953 69.6719C55.1667 69.6823 55.138 69.7005 55.1094 69.7266C55.0807 69.75 55.0547 69.7839 55.0312 69.8281C55.0078 69.8698 54.9948 69.9219 54.9922 69.9844V70.7852C54.9792 70.9414 54.8945 71.026 54.7383 71.0391C54.6654 71.0391 54.6016 71.0156 54.5469 70.9688C54.4948 70.9193 54.4688 70.8581 54.4688 70.7852V69.9531C54.474 69.8125 54.5065 69.6914 54.5664 69.5898C54.6263 69.4883 54.6966 69.4076 54.7773 69.3477C54.8581 69.2852 54.9414 69.2383 55.0273 69.207C55.1159 69.1758 55.2044 69.1602 55.293 69.1602ZM58.5273 70.9922C58.2982 70.9844 58.125 70.931 58.0078 70.832C57.8906 70.7305 57.806 70.6172 57.7539 70.4922C57.7018 70.3646 57.6758 70.2357 57.6758 70.1055C57.6758 69.9701 57.7005 69.8398 57.75 69.7148C57.8021 69.5872 57.8867 69.474 58.0039 69.375C58.1237 69.2734 58.2747 69.2214 58.457 69.2188H59.7227C59.9049 69.2214 60.0547 69.2734 60.1719 69.375C60.2917 69.474 60.3763 69.5872 60.4258 69.7148C60.4779 69.8398 60.5039 69.9701 60.5039 70.1055C60.5039 70.2357 60.4779 70.3646 60.4258 70.4922C60.3737 70.6172 60.2891 70.7305 60.1719 70.832C60.0547 70.931 59.8815 70.9844 59.6523 70.9922H58.5273ZM58.4414 69.7422C58.3919 69.7422 58.349 69.763 58.3125 69.8047C58.276 69.8438 58.2487 69.8906 58.2305 69.9453C58.2148 69.9974 58.207 70.0495 58.207 70.1016C58.207 70.1562 58.2148 70.2109 58.2305 70.2656C58.2487 70.3177 58.276 70.3646 58.3125 70.4062C58.349 70.4453 58.3919 70.4661 58.4414 70.4688H59.7383C59.7878 70.4661 59.8307 70.4453 59.8672 70.4062C59.9036 70.3646 59.9297 70.3177 59.9453 70.2656C59.9635 70.2109 59.9727 70.1562 59.9727 70.1016C59.9727 70.0495 59.9635 69.9974 59.9453 69.9453C59.9297 69.8906 59.9036 69.8438 59.8672 69.8047C59.8307 69.763 59.7878 69.7422 59.7383 69.7422H58.4414ZM63.1289 68.8789C63.1445 68.7227 63.2305 68.638 63.3867 68.625C63.4596 68.625 63.5221 68.6497 63.5742 68.6992C63.6289 68.7461 63.6562 68.806 63.6562 68.8789V70.7383C63.6536 70.8112 63.6263 70.8724 63.5742 70.9219C63.5221 70.9688 63.4596 70.9922 63.3867 70.9922H61.7461C61.5169 70.9844 61.3438 70.931 61.2266 70.832C61.1094 70.7305 61.0247 70.6172 60.9727 70.4922C60.9206 70.3646 60.8945 70.2357 60.8945 70.1055C60.8945 69.9701 60.9193 69.8398 60.9688 69.7148C61.0208 69.5872 61.1055 69.474 61.2227 69.375C61.3424 69.2734 61.4935 69.2214 61.6758 69.2188H62.6602C62.7331 69.2188 62.7943 69.2448 62.8438 69.2969C62.8958 69.3464 62.9219 69.4076 62.9219 69.4805C62.9219 69.5534 62.8958 69.6159 62.8438 69.668C62.7943 69.7174 62.7331 69.7422 62.6602 69.7422H61.6602C61.6107 69.7422 61.5677 69.763 61.5312 69.8047C61.4948 69.8438 61.4674 69.8906 61.4492 69.9453C61.4336 69.9974 61.4258 70.0495 61.4258 70.1016C61.4258 70.1562 61.4336 70.2109 61.4492 70.2656C61.4674 70.3177 61.4948 70.3646 61.5312 70.4062C61.5677 70.4453 61.6107 70.4661 61.6602 70.4688H63.0273C63.0951 70.4661 63.1289 70.4323 63.1289 70.3672V68.8789ZM64.9727 70.9922C64.7435 70.9844 64.5703 70.931 64.4531 70.832C64.3359 70.7305 64.2513 70.6172 64.1992 70.4922C64.1471 70.3646 64.1211 70.2357 64.1211 70.1055C64.1211 69.9701 64.1458 69.8398 64.1953 69.7148C64.2474 69.5872 64.332 69.474 64.4492 69.375C64.569 69.2734 64.7201 69.2214 64.9023 69.2188H66.3867C66.4596 69.2188 66.5208 69.2435 66.5703 69.293C66.6224 69.3398 66.6484 69.3971 66.6484 69.4648C66.6484 69.5352 66.6224 69.5951 66.5703 69.6445C66.5208 69.6914 66.4596 69.7148 66.3867 69.7148H64.9258C64.8685 69.7148 64.8177 69.7344 64.7734 69.7734C64.7318 69.8125 64.7005 69.8633 64.6797 69.9258C64.6615 69.9883 64.6523 70.0495 64.6523 70.1094C64.6523 70.1745 64.6615 70.2383 64.6797 70.3008C64.7005 70.3633 64.7318 70.4141 64.7734 70.4531C64.8177 70.4896 64.8685 70.5091 64.9258 70.5117H66.3867C66.4596 70.5117 66.5208 70.5352 66.5703 70.582C66.6224 70.6289 66.6484 70.6849 66.6484 70.75C66.6484 70.8177 66.6224 70.875 66.5703 70.9219C66.5208 70.9688 66.4596 70.9922 66.3867 70.9922H64.9727ZM66.6016 70.0977C66.6016 70.1471 66.5794 70.1901 66.5352 70.2266C66.4961 70.2604 66.4466 70.2773 66.3867 70.2773H65.1094C65.0495 70.2773 64.9987 70.2604 64.957 70.2266C64.9154 70.1901 64.8945 70.1471 64.8945 70.0977C64.8945 70.0508 64.9154 70.0091 64.957 69.9727C64.9987 69.9388 65.0495 69.9219 65.1094 69.9219H66.3867C66.4466 69.9219 66.4974 69.9401 66.5391 69.9766C66.5807 70.0104 66.6016 70.0508 66.6016 70.0977ZM67.5 71.0547C67.3958 71.0547 67.3086 71.0182 67.2383 70.9453C67.1706 70.8724 67.1367 70.7812 67.1367 70.6719C67.1367 70.5625 67.1706 70.4714 67.2383 70.3984C67.3086 70.3255 67.3958 70.2891 67.5 70.2891C67.6042 70.2891 67.6914 70.3255 67.7617 70.3984C67.832 70.4714 67.8672 70.5625 67.8672 70.6719C67.8672 70.7812 67.832 70.8724 67.7617 70.9453C67.6914 71.0182 67.6042 71.0547 67.5 71.0547Z" fill="#537790"/>
</svg>
