<svg width="96" height="97" viewBox="0 0 96 97" fill="none" xmlns="http://www.w3.org/2000/svg">
<g clip-path="url(#clip0_65_1688)">
<rect width="96" height="97" rx="22" fill="#F4F4F4"/>
<path d="M26.8838 54.2051C26.6624 54.2051 26.4411 54.166 26.2197 54.0879C26.0049 54.0098 25.7965 53.8958 25.5947 53.7461C25.3929 53.5898 25.2171 53.3848 25.0674 53.1309C24.9176 52.877 24.8363 52.5742 24.8232 52.2227V48.6973C24.8232 48.515 24.8883 48.3652 25.0186 48.248C25.1553 48.1243 25.3148 48.0625 25.4971 48.0625C25.8877 48.0951 26.0993 48.3066 26.1318 48.6973V52.1445C26.1383 52.3008 26.1709 52.4342 26.2295 52.5449C26.2881 52.6491 26.3532 52.7337 26.4248 52.7988C26.4964 52.8574 26.568 52.903 26.6396 52.9355C26.7178 52.9616 26.7959 52.9746 26.874 52.9746C26.9521 52.9746 27.0303 52.9616 27.1084 52.9355C27.1865 52.903 27.2614 52.8574 27.333 52.7988C27.4046 52.7337 27.4697 52.6491 27.5283 52.5449C27.5869 52.4342 27.6162 52.3008 27.6162 52.1445V48.6973C27.6162 48.515 27.6813 48.3652 27.8115 48.248C27.9482 48.1243 28.1077 48.0625 28.29 48.0625C28.6807 48.0951 28.8955 48.3066 28.9346 48.6973V52.1445C28.9411 52.3008 28.9736 52.431 29.0322 52.5352C29.0908 52.6458 29.1559 52.7337 29.2275 52.7988C29.2992 52.8574 29.3708 52.903 29.4424 52.9355C29.5205 52.9616 29.5986 52.9746 29.6768 52.9746C29.7549 52.9746 29.833 52.9616 29.9111 52.9355C29.9893 52.903 30.0641 52.8574 30.1357 52.7988C30.2074 52.7337 30.2725 52.6491 30.3311 52.5449C30.3896 52.4342 30.4189 52.3008 30.4189 52.1445V48.6973C30.4189 48.515 30.484 48.3652 30.6143 48.248C30.751 48.1243 30.9105 48.0625 31.0928 48.0625C31.4834 48.0951 31.6982 48.3066 31.7373 48.6973V52.2227C31.7373 52.5742 31.6592 52.877 31.5029 53.1309C31.3532 53.3848 31.1774 53.5898 30.9756 53.7461C30.7803 53.8958 30.5719 54.0098 30.3506 54.0879C30.1357 54.166 29.9144 54.2051 29.6865 54.2051C29.4652 54.2051 29.2438 54.166 29.0225 54.0879C28.8076 54.0098 28.5993 53.8926 28.3975 53.7363C28.3584 53.7103 28.3226 53.681 28.29 53.6484C28.251 53.681 28.2152 53.7103 28.1826 53.7363C27.9808 53.8926 27.7692 54.0098 27.5479 54.0879C27.333 54.166 27.1117 54.2051 26.8838 54.2051ZM38.4756 53.4629V51.1094C38.4756 50.9466 38.391 50.862 38.2217 50.8555H34.8037C34.68 50.862 34.5726 50.9173 34.4814 51.0215C34.3903 51.1191 34.3219 51.2363 34.2764 51.373C34.2373 51.5033 34.2178 51.6367 34.2178 51.7734C34.2178 51.9036 34.2373 52.0371 34.2764 52.1738C34.3219 52.304 34.3903 52.4212 34.4814 52.5254C34.5726 52.623 34.68 52.6719 34.8037 52.6719H37.3037C37.486 52.6719 37.639 52.737 37.7627 52.8672C37.8929 52.9909 37.958 53.1439 37.958 53.3262C37.958 53.5085 37.8929 53.6615 37.7627 53.7852C37.639 53.9154 37.486 53.9805 37.3037 53.9805H34.8428C34.387 53.974 34.0094 53.847 33.71 53.5996C33.417 53.3457 33.2054 53.0625 33.0752 52.75C32.9515 52.431 32.8896 52.1022 32.8896 51.7637C32.8896 51.4382 32.9548 51.1191 33.085 50.8066C33.2152 50.4876 33.4268 50.2044 33.7197 49.957C34.0127 49.7031 34.4456 49.5664 35.0186 49.5469H39.1201C39.3024 49.5469 39.4587 49.6087 39.5889 49.7324C39.7191 49.8496 39.7874 49.9993 39.7939 50.1816V53.4629C39.7939 53.6452 39.7256 53.7982 39.5889 53.9219C39.4587 54.0391 39.3024 54.0977 39.1201 54.0977C38.7295 54.0651 38.5146 53.8535 38.4756 53.4629ZM41.2588 50.7773C41.3825 50.4648 41.5908 50.1849 41.8838 49.9375C42.1833 49.6836 42.5609 49.5534 43.0166 49.5469H46.6885C46.8708 49.5469 47.0238 49.612 47.1475 49.7422C47.2777 49.8659 47.3428 50.0189 47.3428 50.2012C47.3428 50.3835 47.2777 50.5397 47.1475 50.6699C47.0238 50.7936 46.8708 50.8555 46.6885 50.8555H42.9775C42.8538 50.8555 42.7464 50.9076 42.6553 51.0117C42.5641 51.1094 42.4925 51.2266 42.4404 51.3633C42.3949 51.5 42.3721 51.6302 42.3721 51.7539V53.4629C42.333 53.8535 42.1182 54.0651 41.7275 54.0977C41.5452 54.0977 41.3857 54.0391 41.249 53.9219C41.1188 53.7982 41.0537 53.6452 41.0537 53.4629V51.7637H41.0635C41.0635 51.4251 41.1286 51.0964 41.2588 50.7773ZM48.5146 50.7773C48.6383 50.4648 48.8467 50.1849 49.1396 49.9375C49.4391 49.6836 49.8167 49.5534 50.2725 49.5469H53.9443C54.1266 49.5469 54.2796 49.612 54.4033 49.7422C54.5335 49.8659 54.5986 50.0189 54.5986 50.2012C54.5986 50.3835 54.5335 50.5397 54.4033 50.6699C54.2796 50.7936 54.1266 50.8555 53.9443 50.8555H50.2334C50.1097 50.8555 50.0023 50.9076 49.9111 51.0117C49.82 51.1094 49.7484 51.2266 49.6963 51.3633C49.6507 51.5 49.6279 51.6302 49.6279 51.7539V53.4629C49.5889 53.8535 49.374 54.0651 48.9834 54.0977C48.8011 54.0977 48.6416 54.0391 48.5049 53.9219C48.3747 53.7982 48.3096 53.6452 48.3096 53.4629V51.7637H48.3193C48.3193 51.4251 48.3844 51.0964 48.5146 50.7773ZM56.2393 49.4492C56.415 49.4557 56.5648 49.5208 56.6885 49.6445C56.8122 49.7617 56.8773 49.9082 56.8838 50.084V53.4629C56.8447 53.8535 56.6299 54.0651 56.2393 54.0977C56.057 54.0977 55.8975 54.0391 55.7607 53.9219C55.6305 53.7982 55.5654 53.6452 55.5654 53.4629V50.084C55.5719 49.9017 55.6403 49.752 55.7705 49.6348C55.9007 49.5111 56.057 49.4492 56.2393 49.4492ZM55.4189 48.1797C55.4189 47.9974 55.4971 47.8411 55.6533 47.7109C55.8096 47.5807 55.9984 47.5156 56.2197 47.5156C56.4411 47.5156 56.6299 47.5807 56.7861 47.7109C56.9424 47.8411 57.0205 47.9974 57.0205 48.1797C57.0205 48.3685 56.9424 48.528 56.7861 48.6582C56.6299 48.7884 56.4411 48.8535 56.2197 48.8535C55.9984 48.8535 55.8096 48.7884 55.6533 48.6582C55.4971 48.528 55.4189 48.3685 55.4189 48.1797ZM60.0967 53.9805C59.5238 53.9609 59.0908 53.8275 58.7979 53.5801C58.5049 53.3262 58.2933 53.043 58.1631 52.7305C58.0329 52.4115 57.9678 52.0892 57.9678 51.7637C57.9678 51.4251 58.0296 51.0996 58.1533 50.7871C58.2835 50.4681 58.4951 50.1849 58.7881 49.9375C59.0876 49.6836 59.4652 49.5534 59.9209 49.5469H63.085C63.5407 49.5534 63.915 49.6836 64.208 49.9375C64.5075 50.1849 64.7191 50.4681 64.8428 50.7871C64.973 51.0996 65.0381 51.4251 65.0381 51.7637C65.0381 52.0892 64.973 52.4115 64.8428 52.7305C64.7126 53.043 64.501 53.3262 64.208 53.5801C63.915 53.8275 63.4821 53.9609 62.9092 53.9805H60.0967ZM59.8818 50.8555C59.7581 50.8555 59.6507 50.9076 59.5596 51.0117C59.4684 51.1094 59.4001 51.2266 59.3545 51.3633C59.3154 51.4935 59.2959 51.6237 59.2959 51.7539C59.2959 51.8906 59.3154 52.0273 59.3545 52.1641C59.4001 52.2943 59.4684 52.4115 59.5596 52.5156C59.6507 52.6133 59.7581 52.6654 59.8818 52.6719H63.124C63.2477 52.6654 63.3551 52.6133 63.4463 52.5156C63.5374 52.4115 63.6025 52.2943 63.6416 52.1641C63.6872 52.0273 63.71 51.8906 63.71 51.7539C63.71 51.6237 63.6872 51.4935 63.6416 51.3633C63.6025 51.2266 63.5374 51.1094 63.4463 51.0117C63.3551 50.9076 63.2477 50.8555 63.124 50.8555H59.8818ZM66.3662 50.7773C66.4899 50.4648 66.6982 50.1849 66.9912 49.9375C67.2907 49.6836 67.6683 49.5534 68.124 49.5469H71.7959C71.9782 49.5469 72.1312 49.612 72.2549 49.7422C72.3851 49.8659 72.4502 50.0189 72.4502 50.2012C72.4502 50.3835 72.3851 50.5397 72.2549 50.6699C72.1312 50.7936 71.9782 50.8555 71.7959 50.8555H68.085C67.9613 50.8555 67.8538 50.9076 67.7627 51.0117C67.6715 51.1094 67.5999 51.2266 67.5479 51.3633C67.5023 51.5 67.4795 51.6302 67.4795 51.7539V53.4629C67.4404 53.8535 67.2256 54.0651 66.835 54.0977C66.6527 54.0977 66.4932 54.0391 66.3564 53.9219C66.2262 53.7982 66.1611 53.6452 66.1611 53.4629V51.7637H66.1709C66.1709 51.4251 66.236 51.0964 66.3662 50.7773Z" fill="#72757A"/>
<path d="M21.5078 60.625C21.5807 60.625 21.6432 60.6497 21.6953 60.6992C21.7474 60.7461 21.7747 60.806 21.7773 60.8789V60.9531C21.7747 61.0599 21.7812 61.1589 21.7969 61.25C21.8151 61.3385 21.8568 61.418 21.9219 61.4883C21.987 61.5586 22.069 61.5964 22.168 61.6016H23.2656V60.8867C23.2656 60.8138 23.2917 60.7539 23.3438 60.707C23.3984 60.6576 23.4622 60.6328 23.5352 60.6328C23.6914 60.6458 23.7773 60.7305 23.793 60.8867V61.793C23.793 62.0013 23.7643 62.1979 23.707 62.3828C23.6549 62.5469 23.569 62.6862 23.4492 62.8008C23.332 62.9128 23.1823 62.974 23 62.9844H21.5938C21.5234 62.9818 21.4635 62.957 21.4141 62.9102C21.3672 62.8607 21.3424 62.8008 21.3398 62.7305C21.3398 62.6576 21.3633 62.5951 21.4102 62.543C21.4596 62.4909 21.5208 62.4635 21.5938 62.4609H22.8672C22.9661 62.4557 23.0482 62.418 23.1133 62.3477C23.1732 62.2826 23.2135 62.2083 23.2344 62.125H22.0352C21.8529 62.1146 21.7018 62.0534 21.582 61.9414C21.4648 61.8268 21.3802 61.6875 21.3281 61.5234C21.2786 61.3594 21.2526 61.1849 21.25 61V60.8789C21.2526 60.8086 21.2786 60.75 21.3281 60.7031C21.3776 60.6536 21.4375 60.6276 21.5078 60.625ZM25.1133 62.9922C24.8841 62.9844 24.7109 62.931 24.5938 62.832C24.4766 62.7305 24.3919 62.6172 24.3398 62.4922C24.2878 62.3646 24.2617 62.2357 24.2617 62.1055C24.2617 61.9701 24.2865 61.8398 24.3359 61.7148C24.388 61.5872 24.4727 61.474 24.5898 61.375C24.7096 61.2734 24.8607 61.2214 25.043 61.2188H26.3086C26.4909 61.2214 26.6406 61.2734 26.7578 61.375C26.8776 61.474 26.9622 61.5872 27.0117 61.7148C27.0638 61.8398 27.0898 61.9701 27.0898 62.1055C27.0898 62.2357 27.0638 62.3646 27.0117 62.4922C26.9596 62.6172 26.875 62.7305 26.7578 62.832C26.6406 62.931 26.4674 62.9844 26.2383 62.9922H25.1133ZM25.0273 61.7422C24.9779 61.7422 24.9349 61.763 24.8984 61.8047C24.862 61.8438 24.8346 61.8906 24.8164 61.9453C24.8008 61.9974 24.793 62.0495 24.793 62.1016C24.793 62.1562 24.8008 62.2109 24.8164 62.2656C24.8346 62.3177 24.862 62.3646 24.8984 62.4062C24.9349 62.4453 24.9779 62.4661 25.0273 62.4688H26.3242C26.3737 62.4661 26.4167 62.4453 26.4531 62.4062C26.4896 62.3646 26.5156 62.3177 26.5312 62.2656C26.5495 62.2109 26.5586 62.1562 26.5586 62.1016C26.5586 62.0495 26.5495 61.9974 26.5312 61.9453C26.5156 61.8906 26.4896 61.8438 26.4531 61.8047C26.4167 61.763 26.3737 61.7422 26.3242 61.7422H25.0273ZM28.7852 63.0586C28.6497 63.0586 28.5156 63.043 28.3828 63.0117C28.2526 62.9805 28.1276 62.9349 28.0078 62.875C27.888 62.8125 27.7826 62.7305 27.6914 62.6289C27.6003 62.5273 27.5508 62.4062 27.543 62.2656V62.1016V61.4336C27.543 61.3607 27.569 61.3008 27.6211 61.2539C27.6758 61.2044 27.7396 61.1797 27.8125 61.1797C27.9688 61.1927 28.0534 61.2773 28.0664 61.4336V61.6055V62.1445C28.0716 62.2253 28.1016 62.293 28.1562 62.3477C28.2135 62.3997 28.276 62.4414 28.3438 62.4727C28.4141 62.5039 28.4857 62.5273 28.5586 62.543C28.6341 62.5586 28.7096 62.5664 28.7852 62.5664C28.8607 62.5664 28.9349 62.5586 29.0078 62.543C29.0833 62.5273 29.1549 62.5039 29.2227 62.4727C29.293 62.4414 29.3555 62.3997 29.4102 62.3477C29.4674 62.293 29.4987 62.2253 29.5039 62.1445V61.6055V61.4336C29.5039 61.3607 29.5299 61.3008 29.582 61.2539C29.6367 61.2044 29.7005 61.1797 29.7734 61.1797C29.9297 61.1927 30.0156 61.2773 30.0312 61.4336V62.1016V62.2656C30.0234 62.4062 29.9727 62.5273 29.8789 62.6289C29.7878 62.7305 29.6823 62.8125 29.5625 62.875C29.4427 62.9349 29.3164 62.9805 29.1836 63.0117C29.0534 63.043 28.9206 63.0586 28.7852 63.0586ZM33.3242 62.9922C33.0951 62.9844 32.9219 62.931 32.8047 62.832C32.6875 62.7305 32.6029 62.6172 32.5508 62.4922C32.4987 62.3646 32.4727 62.2357 32.4727 62.1055C32.4727 61.9701 32.4974 61.8398 32.5469 61.7148C32.599 61.5872 32.6836 61.474 32.8008 61.375C32.9206 61.2734 33.0716 61.2214 33.2539 61.2188H34.7383C34.8112 61.2188 34.8724 61.2448 34.9219 61.2969C34.974 61.3464 35 61.4076 35 61.4805C35 61.5534 34.974 61.6159 34.9219 61.668C34.8724 61.7174 34.8112 61.7422 34.7383 61.7422H33.2383C33.1888 61.7422 33.1458 61.763 33.1094 61.8047C33.0729 61.8438 33.0456 61.8906 33.0273 61.9453C33.0117 61.9974 33.0039 62.0495 33.0039 62.1016C33.0039 62.1562 33.0117 62.2109 33.0273 62.2656C33.0456 62.3177 33.0729 62.3646 33.1094 62.4062C33.1458 62.4453 33.1888 62.4661 33.2383 62.4688H34.7383C34.8112 62.4688 34.8724 62.4948 34.9219 62.5469C34.974 62.5964 35 62.6576 35 62.7305C35 62.8034 34.974 62.8646 34.9219 62.9141C34.8724 62.9661 34.8112 62.9922 34.7383 62.9922H33.3242ZM37.5938 62.7852V61.8438C37.5938 61.7786 37.5599 61.7448 37.4922 61.7422H36.125C36.0755 61.7448 36.0326 61.7669 35.9961 61.8086C35.9596 61.8477 35.9323 61.8945 35.9141 61.9492C35.8984 62.0013 35.8906 62.0547 35.8906 62.1094C35.8906 62.1615 35.8984 62.2148 35.9141 62.2695C35.9323 62.3216 35.9596 62.3685 35.9961 62.4102C36.0326 62.4492 36.0755 62.4688 36.125 62.4688H37.125C37.1979 62.4688 37.2591 62.4948 37.3086 62.5469C37.3607 62.5964 37.3867 62.6576 37.3867 62.7305C37.3867 62.8034 37.3607 62.8646 37.3086 62.9141C37.2591 62.9661 37.1979 62.9922 37.125 62.9922H36.1406C35.9583 62.9896 35.8073 62.9388 35.6875 62.8398C35.5703 62.7383 35.4857 62.625 35.4336 62.5C35.3841 62.3724 35.3594 62.2409 35.3594 62.1055C35.3594 61.9753 35.3854 61.8477 35.4375 61.7227C35.4896 61.5951 35.5742 61.4818 35.6914 61.3828C35.8086 61.2812 35.9818 61.2266 36.2109 61.2188H37.8516C37.9245 61.2188 37.987 61.2435 38.0391 61.293C38.0911 61.3398 38.1185 61.3997 38.1211 61.4727V62.7852C38.1211 62.8581 38.0938 62.9193 38.0391 62.9688C37.987 63.0156 37.9245 63.0391 37.8516 63.0391C37.6953 63.026 37.6094 62.9414 37.5938 62.7852ZM39.8711 61.1602C40.0065 61.1602 40.1393 61.1758 40.2695 61.207C40.4023 61.2383 40.5286 61.2852 40.6484 61.3477C40.7682 61.4076 40.8737 61.4883 40.9648 61.5898C41.0586 61.6914 41.1094 61.8125 41.1172 61.9531V62.1172V62.7852C41.1016 62.9414 41.0156 63.026 40.8594 63.0391C40.7865 63.0391 40.7227 63.0156 40.668 62.9688C40.6159 62.9193 40.5898 62.8581 40.5898 62.7852V62.6133V62.0742C40.5846 61.9935 40.5534 61.9271 40.4961 61.875C40.4414 61.8203 40.3789 61.7773 40.3086 61.7461C40.2409 61.7148 40.1693 61.6914 40.0938 61.6758C40.0208 61.6602 39.9466 61.6523 39.8711 61.6523C39.7956 61.6523 39.7201 61.6602 39.6445 61.6758C39.5716 61.6914 39.5 61.7148 39.4297 61.7461C39.362 61.7773 39.2995 61.8203 39.2422 61.875C39.1875 61.9271 39.1576 61.9935 39.1523 62.0742V62.6133V62.7852C39.1393 62.9414 39.0547 63.026 38.8984 63.0391C38.8255 63.0391 38.7617 63.0156 38.707 62.9688C38.6549 62.9193 38.6289 62.8581 38.6289 62.7852V62.1172V61.9531C38.6367 61.8125 38.6862 61.6914 38.7773 61.5898C38.8685 61.4883 38.974 61.4076 39.0938 61.3477C39.2135 61.2852 39.3385 61.2383 39.4688 61.207C39.6016 61.1758 39.7357 61.1602 39.8711 61.1602ZM43.8828 60.625C43.9531 60.6276 44.013 60.6536 44.0625 60.7031C44.112 60.75 44.138 60.8086 44.1406 60.8789V62.793C44.125 62.9492 44.0391 63.0339 43.8828 63.0469C43.8099 63.0469 43.7461 63.0234 43.6914 62.9766C43.6393 62.9271 43.6133 62.8659 43.6133 62.793V60.8789C43.6159 60.806 43.6432 60.7461 43.6953 60.6992C43.7474 60.6497 43.8099 60.625 43.8828 60.625ZM45.4453 62.9922C45.2161 62.9844 45.043 62.931 44.9258 62.832C44.8086 62.7305 44.724 62.6172 44.6719 62.4922C44.6198 62.3646 44.5938 62.2357 44.5938 62.1055C44.5938 61.9701 44.6185 61.8398 44.668 61.7148C44.7201 61.5872 44.8047 61.474 44.9219 61.375C45.0417 61.2734 45.1927 61.2214 45.375 61.2188H46.6406C46.8229 61.2214 46.9727 61.2734 47.0898 61.375C47.2096 61.474 47.2943 61.5872 47.3438 61.7148C47.3958 61.8398 47.4219 61.9701 47.4219 62.1055C47.4219 62.2357 47.3958 62.3646 47.3438 62.4922C47.2917 62.6172 47.207 62.7305 47.0898 62.832C46.9727 62.931 46.7995 62.9844 46.5703 62.9922H45.4453ZM45.3594 61.7422C45.3099 61.7422 45.2669 61.763 45.2305 61.8047C45.194 61.8438 45.1667 61.8906 45.1484 61.9453C45.1328 61.9974 45.125 62.0495 45.125 62.1016C45.125 62.1562 45.1328 62.2109 45.1484 62.2656C45.1667 62.3177 45.194 62.3646 45.2305 62.4062C45.2669 62.4453 45.3099 62.4661 45.3594 62.4688H46.6562C46.7057 62.4661 46.7487 62.4453 46.7852 62.4062C46.8216 62.3646 46.8477 62.3177 46.8633 62.2656C46.8815 62.2109 46.8906 62.1562 46.8906 62.1016C46.8906 62.0495 46.8815 61.9974 46.8633 61.9453C46.8477 61.8906 46.8216 61.8438 46.7852 61.8047C46.7487 61.763 46.7057 61.7422 46.6562 61.7422H45.3594ZM48.6641 62.9922C48.4349 62.9844 48.2617 62.931 48.1445 62.832C48.0273 62.7305 47.9427 62.6172 47.8906 62.4922C47.8385 62.3646 47.8125 62.2357 47.8125 62.1055C47.8125 61.9701 47.8372 61.8398 47.8867 61.7148C47.9388 61.5872 48.0234 61.474 48.1406 61.375C48.2604 61.2734 48.4115 61.2214 48.5938 61.2188H50.0781C50.151 61.2188 50.2122 61.2448 50.2617 61.2969C50.3138 61.3464 50.3398 61.4076 50.3398 61.4805C50.3398 61.5534 50.3138 61.6159 50.2617 61.668C50.2122 61.7174 50.151 61.7422 50.0781 61.7422H48.5781C48.5286 61.7422 48.4857 61.763 48.4492 61.8047C48.4128 61.8438 48.3854 61.8906 48.3672 61.9453C48.3516 61.9974 48.3438 62.0495 48.3438 62.1016C48.3438 62.1562 48.3516 62.2109 48.3672 62.2656C48.3854 62.3177 48.4128 62.3646 48.4492 62.4062C48.4857 62.4453 48.5286 62.4661 48.5781 62.4688H50.0781C50.151 62.4688 50.2122 62.4948 50.2617 62.5469C50.3138 62.5964 50.3398 62.6576 50.3398 62.7305C50.3398 62.8034 50.3138 62.8646 50.2617 62.9141C50.2122 62.9661 50.151 62.9922 50.0781 62.9922H48.6641ZM51.0195 60.625C51.0898 60.6276 51.1497 60.6536 51.1992 60.7031C51.2487 60.75 51.2747 60.8086 51.2773 60.8789V62.793C51.2617 62.9492 51.1758 63.0339 51.0195 63.0469C50.9466 63.0469 50.8828 63.0234 50.8281 62.9766C50.776 62.9271 50.75 62.8659 50.75 62.793V60.8789C50.7526 60.806 50.7799 60.7461 50.832 60.6992C50.8841 60.6497 50.9466 60.625 51.0195 60.625ZM51.5156 61.7148C51.5911 61.5924 51.7357 61.5026 51.9492 61.4453L52.9531 61.1758C53.0234 61.1549 53.0898 61.1615 53.1523 61.1953C53.2174 61.2266 53.2604 61.2773 53.2812 61.3477C53.3047 61.4154 53.2995 61.4818 53.2656 61.5469C53.2344 61.6094 53.1836 61.6523 53.1133 61.6758L52.043 61.9531C51.9674 61.9818 51.931 62.0312 51.9336 62.1016C51.931 62.1719 51.9674 62.2214 52.043 62.25L53.1133 62.5273C53.1836 62.5508 53.2344 62.5951 53.2656 62.6602C53.2995 62.7227 53.3047 62.7878 53.2812 62.8555C53.2604 62.9258 53.2174 62.9766 53.1523 63.0078C53.0898 63.0417 53.0234 63.0482 52.9531 63.0273L51.9492 62.7578C51.7331 62.6979 51.5872 62.6068 51.5117 62.4844C51.4388 62.362 51.4023 62.2344 51.4023 62.1016C51.4023 61.9688 51.4401 61.8398 51.5156 61.7148ZM56.5508 60.625C56.6237 60.625 56.6862 60.6497 56.7383 60.6992C56.7904 60.7461 56.8177 60.806 56.8203 60.8789V61.2188H58.1484C58.2214 61.2188 58.2839 61.2435 58.3359 61.293C58.3854 61.3451 58.4102 61.4076 58.4102 61.4805C58.4102 61.5534 58.3841 61.6159 58.332 61.668C58.2826 61.7174 58.2214 61.7422 58.1484 61.7422H56.8203V61.8203C56.8177 61.9271 56.8242 62.026 56.8398 62.1172C56.8581 62.2057 56.8997 62.2852 56.9648 62.3555C57.0299 62.4258 57.112 62.4635 57.2109 62.4688H58.1641C58.237 62.4714 58.2969 62.4987 58.3438 62.5508C58.3932 62.6029 58.418 62.6654 58.418 62.7383C58.4154 62.8086 58.3893 62.8685 58.3398 62.918C58.293 62.9648 58.2344 62.9896 58.1641 62.9922H57.0781C56.8958 62.9818 56.7448 62.9206 56.625 62.8086C56.5078 62.694 56.4232 62.5547 56.3711 62.3906C56.3216 62.2266 56.2956 62.0521 56.293 61.8672V61.7422H55.8438C55.7708 61.7422 55.7096 61.7161 55.6602 61.6641C55.6081 61.6146 55.582 61.5534 55.582 61.4805C55.582 61.4076 55.6068 61.3464 55.6562 61.2969C55.7083 61.2448 55.7708 61.2188 55.8438 61.2188H56.293V60.8789C56.2956 60.8086 56.3216 60.75 56.3711 60.7031C56.4206 60.6536 56.4805 60.6276 56.5508 60.625ZM59.0625 60.625C59.1328 60.6276 59.1927 60.6536 59.2422 60.7031C59.2917 60.75 59.3177 60.8086 59.3203 60.8789V61.2188H60.5312C60.7135 61.2214 60.8633 61.2734 60.9805 61.375C61.1003 61.474 61.1849 61.5859 61.2344 61.7109C61.2865 61.8385 61.3125 61.9701 61.3125 62.1055H61.3164V62.7852C61.3164 62.8581 61.2891 62.9193 61.2344 62.9688C61.1823 63.0156 61.1198 63.0391 61.0469 63.0391C60.8906 63.026 60.8047 62.9414 60.7891 62.7852V62.1016C60.7891 62.0521 60.7786 62 60.7578 61.9453C60.7396 61.8906 60.7122 61.8438 60.6758 61.8047C60.6393 61.763 60.5964 61.7422 60.5469 61.7422H59.3203V62.793C59.3047 62.9492 59.2188 63.0339 59.0625 63.0469C58.9896 63.0469 58.9258 63.0234 58.8711 62.9766C58.819 62.9271 58.793 62.8659 58.793 62.793V60.8789C58.7956 60.806 58.8229 60.7461 58.875 60.6992C58.9271 60.6497 58.9896 60.625 59.0625 60.625ZM62.0781 61.1797C62.1484 61.1823 62.2083 61.2083 62.2578 61.2578C62.3073 61.3047 62.3333 61.3633 62.3359 61.4336V62.7852C62.3203 62.9414 62.2344 63.026 62.0781 63.0391C62.0052 63.0391 61.9414 63.0156 61.8867 62.9688C61.8346 62.9193 61.8086 62.8581 61.8086 62.7852V61.4336C61.8112 61.3607 61.8385 61.3008 61.8906 61.2539C61.9427 61.2044 62.0052 61.1797 62.0781 61.1797ZM61.75 60.6719C61.75 60.599 61.7812 60.5365 61.8438 60.4844C61.9062 60.4323 61.9818 60.4062 62.0703 60.4062C62.1589 60.4062 62.2344 60.4323 62.2969 60.4844C62.3594 60.5365 62.3906 60.599 62.3906 60.6719C62.3906 60.7474 62.3594 60.8112 62.2969 60.8633C62.2344 60.9154 62.1589 60.9414 62.0703 60.9414C61.9818 60.9414 61.9062 60.9154 61.8438 60.8633C61.7812 60.8112 61.75 60.7474 61.75 60.6719ZM65.293 61.4453C65.293 61.5104 65.2669 61.5651 65.2148 61.6094C65.1654 61.651 65.1042 61.6719 65.0312 61.6719H63.3789C63.3451 61.6719 63.3177 61.6784 63.2969 61.6914C63.276 61.7044 63.2604 61.7188 63.25 61.7344C63.2396 61.7474 63.2344 61.7591 63.2344 61.7695C63.2344 61.7826 63.2396 61.7969 63.25 61.8125C63.2604 61.8255 63.276 61.8385 63.2969 61.8516C63.3177 61.862 63.3451 61.8685 63.3789 61.8711H64.6562C64.8203 61.8737 64.9557 61.9062 65.0625 61.9688C65.1693 62.0286 65.2448 62.1003 65.2891 62.1836C65.3359 62.2643 65.3594 62.3464 65.3594 62.4297C65.3594 62.5104 65.3359 62.5924 65.2891 62.6758C65.2422 62.7565 65.1654 62.8281 65.0586 62.8906C64.9544 62.9505 64.8203 62.9805 64.6562 62.9805C64.6276 62.9831 64.6068 62.9844 64.5938 62.9844H63.0781C63.0052 62.9844 62.9427 62.9635 62.8906 62.9219C62.8411 62.8776 62.8164 62.8242 62.8164 62.7617C62.8164 62.6966 62.8424 62.6419 62.8945 62.5977C62.944 62.556 63.0052 62.5352 63.0781 62.5352H64.6875C64.7266 62.5378 64.7578 62.5326 64.7812 62.5195C64.8073 62.5065 64.8268 62.4922 64.8398 62.4766C64.8529 62.4609 64.8594 62.4453 64.8594 62.4297C64.8594 62.4219 64.8529 62.4089 64.8398 62.3906C64.8268 62.3698 64.8073 62.3542 64.7812 62.3438C64.7578 62.3307 64.7266 62.3229 64.6875 62.3203H63.4062C63.2552 62.3177 63.1302 62.2865 63.0312 62.2266C62.9323 62.1641 62.862 62.0924 62.8203 62.0117C62.7786 61.931 62.7578 61.8503 62.7578 61.7695C62.7578 61.6888 62.7786 61.6094 62.8203 61.5312C62.8646 61.4505 62.9349 61.3815 63.0312 61.3242C63.1302 61.2643 63.2552 61.2318 63.4062 61.2266C63.4323 61.224 63.4518 61.2227 63.4648 61.2227H65.0312C65.1042 61.2227 65.1654 61.2448 65.2148 61.2891C65.2669 61.3307 65.293 61.3828 65.293 61.4453ZM68.3203 60.8789V62.3672C68.3203 62.4323 68.3542 62.4661 68.4219 62.4688H69.7891C69.8385 62.4661 69.8815 62.4453 69.918 62.4062C69.9544 62.3646 69.9805 62.3177 69.9961 62.2656C70.0143 62.2109 70.0234 62.1562 70.0234 62.1016C70.0234 62.0495 70.0143 61.9974 69.9961 61.9453C69.9805 61.8906 69.9544 61.8438 69.918 61.8047C69.8815 61.763 69.8385 61.7422 69.7891 61.7422H68.7891C68.7161 61.7422 68.6536 61.7174 68.6016 61.668C68.5521 61.6159 68.5273 61.5534 68.5273 61.4805C68.5273 61.4076 68.5534 61.3464 68.6055 61.2969C68.6549 61.2448 68.7161 61.2188 68.7891 61.2188H69.7734C69.9557 61.2214 70.1055 61.2734 70.2227 61.375C70.3424 61.474 70.4271 61.5872 70.4766 61.7148C70.5286 61.8398 70.5547 61.9701 70.5547 62.1055C70.5547 62.2357 70.5286 62.3646 70.4766 62.4922C70.4245 62.6172 70.3398 62.7305 70.2227 62.832C70.1055 62.931 69.9323 62.9844 69.7031 62.9922H68.0625C67.9896 62.9922 67.9271 62.9688 67.875 62.9219C67.8229 62.8724 67.7956 62.8112 67.793 62.7383V60.8789C67.793 60.806 67.819 60.7461 67.8711 60.6992C67.9258 60.6497 67.9896 60.625 68.0625 60.625C68.2188 60.638 68.3047 60.7227 68.3203 60.8789ZM71.2383 61.1719C71.3112 61.1719 71.3737 61.1966 71.4258 61.2461C71.4779 61.293 71.5052 61.3529 71.5078 61.4258V61.8203C71.5052 61.9271 71.5117 62.026 71.5273 62.1172C71.5456 62.2057 71.5872 62.2852 71.6523 62.3555C71.7174 62.4258 71.7995 62.4635 71.8984 62.4688H72.9414V61.4336C72.9414 61.3607 72.9674 61.3008 73.0195 61.2539C73.0742 61.2044 73.138 61.1797 73.2109 61.1797C73.3672 61.1927 73.4531 61.2773 73.4688 61.4336V62.707C73.4688 62.9154 73.4401 63.112 73.3828 63.2969C73.3307 63.4609 73.2448 63.599 73.125 63.7109C73.0078 63.8255 72.8581 63.888 72.6758 63.8984H71.3242C71.2539 63.8958 71.194 63.8698 71.1445 63.8203C71.0977 63.7734 71.0729 63.7148 71.0703 63.6445C71.0703 63.5716 71.0938 63.5091 71.1406 63.457C71.1901 63.4049 71.2513 63.3776 71.3242 63.375H72.543C72.6419 63.3698 72.724 63.332 72.7891 63.2617C72.8542 63.1914 72.8958 63.1094 72.9141 63.0156C72.9167 63.0078 72.918 63 72.918 62.9922H71.7656C71.5833 62.9818 71.4323 62.9206 71.3125 62.8086C71.1953 62.694 71.1107 62.5547 71.0586 62.3906C71.0091 62.2266 70.9831 62.0521 70.9805 61.8672V61.4258C70.9831 61.3555 71.0091 61.2969 71.0586 61.25C71.1081 61.2005 71.168 61.1745 71.2383 61.1719ZM22.0742 67.043C21.9857 67.043 21.8971 67.0273 21.8086 66.9961C21.7227 66.9648 21.6393 66.9193 21.5586 66.8594C21.4779 66.7969 21.4076 66.7148 21.3477 66.6133C21.2878 66.5117 21.2552 66.3906 21.25 66.25V65.418C21.25 65.3451 21.276 65.2852 21.3281 65.2383C21.3828 65.1888 21.4466 65.1641 21.5195 65.1641C21.6758 65.1771 21.7604 65.2617 21.7734 65.418V66.2188C21.776 66.2812 21.7891 66.3346 21.8125 66.3789C21.8359 66.4206 21.862 66.4544 21.8906 66.4805C21.9193 66.5039 21.9479 66.5221 21.9766 66.5352C22.0078 66.5456 22.0391 66.5508 22.0703 66.5508C22.1016 66.5508 22.1328 66.5456 22.1641 66.5352C22.1953 66.5221 22.2253 66.5039 22.2539 66.4805C22.2826 66.4544 22.3086 66.4206 22.332 66.3789C22.3555 66.3346 22.3672 66.2812 22.3672 66.2188V65.418C22.3672 65.3451 22.3932 65.2852 22.4453 65.2383C22.5 65.1888 22.5638 65.1641 22.6367 65.1641C22.793 65.1771 22.8789 65.2617 22.8945 65.418V66.2188C22.8971 66.2812 22.9102 66.3333 22.9336 66.375C22.957 66.4193 22.9831 66.4544 23.0117 66.4805C23.0404 66.5039 23.069 66.5221 23.0977 66.5352C23.1289 66.5456 23.1602 66.5508 23.1914 66.5508C23.2227 66.5508 23.2539 66.5456 23.2852 66.5352C23.3164 66.5221 23.3464 66.5039 23.375 66.4805C23.4036 66.4544 23.4297 66.4206 23.4531 66.3789C23.4766 66.3346 23.4883 66.2812 23.4883 66.2188V65.418C23.4883 65.3451 23.5143 65.2852 23.5664 65.2383C23.6211 65.1888 23.6849 65.1641 23.7578 65.1641C23.9141 65.1771 24 65.2617 24.0156 65.418V66.25C24.0156 66.3906 23.9844 66.5117 23.9219 66.6133C23.862 66.7148 23.7917 66.7969 23.7109 66.8594C23.6328 66.9193 23.5495 66.9648 23.4609 66.9961C23.375 67.0273 23.2865 67.043 23.1953 67.043C23.1068 67.043 23.0182 67.0273 22.9297 66.9961C22.8438 66.9648 22.7604 66.918 22.6797 66.8555C22.6641 66.8451 22.6497 66.8333 22.6367 66.8203C22.6211 66.8333 22.6068 66.8451 22.5938 66.8555C22.513 66.918 22.4284 66.9648 22.3398 66.9961C22.2539 67.0273 22.1654 67.043 22.0742 67.043ZM24.8008 65.1797C24.8711 65.1823 24.931 65.2083 24.9805 65.2578C25.0299 65.3047 25.056 65.3633 25.0586 65.4336V66.7852C25.043 66.9414 24.957 67.026 24.8008 67.0391C24.7279 67.0391 24.6641 67.0156 24.6094 66.9688C24.5573 66.9193 24.5312 66.8581 24.5312 66.7852V65.4336C24.5339 65.3607 24.5612 65.3008 24.6133 65.2539C24.6654 65.2044 24.7279 65.1797 24.8008 65.1797ZM24.4727 64.6719C24.4727 64.599 24.5039 64.5365 24.5664 64.4844C24.6289 64.4323 24.7044 64.4062 24.793 64.4062C24.8815 64.4062 24.957 64.4323 25.0195 64.4844C25.082 64.5365 25.1133 64.599 25.1133 64.6719C25.1133 64.7474 25.082 64.8112 25.0195 64.8633C24.957 64.9154 24.8815 64.9414 24.793 64.9414C24.7044 64.9414 24.6289 64.9154 24.5664 64.8633C24.5039 64.8112 24.4727 64.7474 24.4727 64.6719ZM26.7812 65.1602C26.9167 65.1602 27.0495 65.1758 27.1797 65.207C27.3125 65.2383 27.4388 65.2852 27.5586 65.3477C27.6784 65.4076 27.7839 65.4883 27.875 65.5898C27.9688 65.6914 28.0195 65.8125 28.0273 65.9531V66.1172V66.7852C28.0117 66.9414 27.9258 67.026 27.7695 67.0391C27.6966 67.0391 27.6328 67.0156 27.5781 66.9688C27.526 66.9193 27.5 66.8581 27.5 66.7852V66.6133V66.0742C27.4948 65.9935 27.4635 65.9271 27.4062 65.875C27.3516 65.8203 27.2891 65.7773 27.2188 65.7461C27.151 65.7148 27.0794 65.6914 27.0039 65.6758C26.931 65.6602 26.8568 65.6523 26.7812 65.6523C26.7057 65.6523 26.6302 65.6602 26.5547 65.6758C26.4818 65.6914 26.4102 65.7148 26.3398 65.7461C26.2721 65.7773 26.2096 65.8203 26.1523 65.875C26.0977 65.9271 26.0677 65.9935 26.0625 66.0742V66.6133V66.7852C26.0495 66.9414 25.9648 67.026 25.8086 67.0391C25.7357 67.0391 25.6719 67.0156 25.6172 66.9688C25.5651 66.9193 25.5391 66.8581 25.5391 66.7852V66.1172V65.9531C25.5469 65.8125 25.5964 65.6914 25.6875 65.5898C25.7786 65.4883 25.8841 65.4076 26.0039 65.3477C26.1237 65.2852 26.2487 65.2383 26.3789 65.207C26.5117 65.1758 26.6458 65.1602 26.7812 65.1602ZM28.793 65.1797C28.8633 65.1823 28.9232 65.2083 28.9727 65.2578C29.0221 65.3047 29.0482 65.3633 29.0508 65.4336V66.7852C29.0352 66.9414 28.9492 67.026 28.793 67.0391C28.7201 67.0391 28.6562 67.0156 28.6016 66.9688C28.5495 66.9193 28.5234 66.8581 28.5234 66.7852V65.4336C28.526 65.3607 28.5534 65.3008 28.6055 65.2539C28.6576 65.2044 28.7201 65.1797 28.793 65.1797ZM28.4648 64.6719C28.4648 64.599 28.4961 64.5365 28.5586 64.4844C28.6211 64.4323 28.6966 64.4062 28.7852 64.4062C28.8737 64.4062 28.9492 64.4323 29.0117 64.4844C29.0742 64.5365 29.1055 64.599 29.1055 64.6719C29.1055 64.7474 29.0742 64.8112 29.0117 64.8633C28.9492 64.9154 28.8737 64.9414 28.7852 64.9414C28.6966 64.9414 28.6211 64.9154 28.5586 64.8633C28.4961 64.8112 28.4648 64.7474 28.4648 64.6719ZM30.7734 65.1602C30.9089 65.1602 31.0417 65.1758 31.1719 65.207C31.3047 65.2383 31.431 65.2852 31.5508 65.3477C31.6706 65.4076 31.776 65.4883 31.8672 65.5898C31.9609 65.6914 32.0117 65.8125 32.0195 65.9531V66.1172V66.7852C32.0039 66.9414 31.918 67.026 31.7617 67.0391C31.6888 67.0391 31.625 67.0156 31.5703 66.9688C31.5182 66.9193 31.4922 66.8581 31.4922 66.7852V66.6133V66.0742C31.487 65.9935 31.4557 65.9271 31.3984 65.875C31.3438 65.8203 31.2812 65.7773 31.2109 65.7461C31.1432 65.7148 31.0716 65.6914 30.9961 65.6758C30.9232 65.6602 30.849 65.6523 30.7734 65.6523C30.6979 65.6523 30.6224 65.6602 30.5469 65.6758C30.474 65.6914 30.4023 65.7148 30.332 65.7461C30.2643 65.7773 30.2018 65.8203 30.1445 65.875C30.0898 65.9271 30.0599 65.9935 30.0547 66.0742V66.6133V66.7852C30.0417 66.9414 29.957 67.026 29.8008 67.0391C29.7279 67.0391 29.6641 67.0156 29.6094 66.9688C29.5573 66.9193 29.5312 66.8581 29.5312 66.7852V66.1172V65.9531C29.5391 65.8125 29.5885 65.6914 29.6797 65.5898C29.7708 65.4883 29.8763 65.4076 29.9961 65.3477C30.1159 65.2852 30.2409 65.2383 30.3711 65.207C30.5039 65.1758 30.638 65.1602 30.7734 65.1602ZM34.707 65.8438C34.707 65.7786 34.6732 65.7448 34.6055 65.7422H33.2383C33.1888 65.7448 33.1458 65.7669 33.1094 65.8086C33.0729 65.8477 33.0456 65.8945 33.0273 65.9492C33.0117 66.0013 33.0039 66.0547 33.0039 66.1094C33.0039 66.1615 33.0117 66.2148 33.0273 66.2695C33.0456 66.3216 33.0729 66.3685 33.1094 66.4102C33.1458 66.4492 33.1888 66.4688 33.2383 66.4688H34.2383C34.3112 66.4688 34.3724 66.4948 34.4219 66.5469C34.474 66.5964 34.5 66.6576 34.5 66.7305C34.5 66.8034 34.474 66.8646 34.4219 66.9141C34.3724 66.9661 34.3112 66.9922 34.2383 66.9922H33.2539C33.0716 66.9896 32.9206 66.9388 32.8008 66.8398C32.6836 66.7383 32.599 66.625 32.5469 66.5C32.4974 66.3724 32.4727 66.2409 32.4727 66.1055C32.4727 65.9753 32.4987 65.8477 32.5508 65.7227C32.6029 65.5951 32.6875 65.4818 32.8047 65.3828C32.9219 65.2812 33.0951 65.2266 33.3242 65.2188H34.9648C35.0378 65.2188 35.1003 65.2435 35.1523 65.293C35.2044 65.3398 35.2318 65.3997 35.2344 65.4727V66.707C35.2344 66.9154 35.2057 67.112 35.1484 67.2969C35.0964 67.4609 35.0104 67.599 34.8906 67.7109C34.7734 67.8255 34.6237 67.888 34.4414 67.8984H33.0898C33.0195 67.8958 32.9596 67.8698 32.9102 67.8203C32.8633 67.7734 32.8385 67.7148 32.8359 67.6445C32.8359 67.5716 32.8594 67.5091 32.9062 67.457C32.9557 67.4049 33.0169 67.3776 33.0898 67.375H34.3086C34.4076 67.3698 34.4896 67.332 34.5547 67.2617C34.6198 67.1914 34.6615 67.1094 34.6797 67.0156C34.6979 66.9219 34.707 66.8008 34.707 66.6523V65.8438ZM38.0312 65.1797C38.1016 65.1823 38.1615 65.2083 38.2109 65.2578C38.2604 65.3047 38.2865 65.3633 38.2891 65.4336V66.7852C38.2734 66.9414 38.1875 67.026 38.0312 67.0391C37.9583 67.0391 37.8945 67.0156 37.8398 66.9688C37.7878 66.9193 37.7617 66.8581 37.7617 66.7852V65.4336C37.7643 65.3607 37.7917 65.3008 37.8438 65.2539C37.8958 65.2044 37.9583 65.1797 38.0312 65.1797ZM37.7031 64.6719C37.7031 64.599 37.7344 64.5365 37.7969 64.4844C37.8594 64.4323 37.9349 64.4062 38.0234 64.4062C38.112 64.4062 38.1875 64.4323 38.25 64.4844C38.3125 64.5365 38.3438 64.599 38.3438 64.6719C38.3438 64.7474 38.3125 64.8112 38.25 64.8633C38.1875 64.9154 38.112 64.9414 38.0234 64.9414C37.9349 64.9414 37.8594 64.9154 37.7969 64.8633C37.7344 64.8112 37.7031 64.7474 37.7031 64.6719ZM40.0117 65.1602C40.1471 65.1602 40.2799 65.1758 40.4102 65.207C40.543 65.2383 40.6693 65.2852 40.7891 65.3477C40.9089 65.4076 41.0143 65.4883 41.1055 65.5898C41.1992 65.6914 41.25 65.8125 41.2578 65.9531V66.1172V66.7852C41.2422 66.9414 41.1562 67.026 41 67.0391C40.9271 67.0391 40.8633 67.0156 40.8086 66.9688C40.7565 66.9193 40.7305 66.8581 40.7305 66.7852V66.6133V66.0742C40.7253 65.9935 40.694 65.9271 40.6367 65.875C40.582 65.8203 40.5195 65.7773 40.4492 65.7461C40.3815 65.7148 40.3099 65.6914 40.2344 65.6758C40.1615 65.6602 40.0872 65.6523 40.0117 65.6523C39.9362 65.6523 39.8607 65.6602 39.7852 65.6758C39.7122 65.6914 39.6406 65.7148 39.5703 65.7461C39.5026 65.7773 39.4401 65.8203 39.3828 65.875C39.3281 65.9271 39.2982 65.9935 39.293 66.0742V66.6133V66.7852C39.2799 66.9414 39.1953 67.026 39.0391 67.0391C38.9661 67.0391 38.9023 67.0156 38.8477 66.9688C38.7956 66.9193 38.7695 66.8581 38.7695 66.7852V66.1172V65.9531C38.7773 65.8125 38.8268 65.6914 38.918 65.5898C39.0091 65.4883 39.1146 65.4076 39.2344 65.3477C39.3542 65.2852 39.4792 65.2383 39.6094 65.207C39.7422 65.1758 39.8763 65.1602 40.0117 65.1602ZM44.0586 65.668C44.0143 65.6107 43.9961 65.5469 44.0039 65.4766C44.0143 65.4062 44.0482 65.3477 44.1055 65.3008L44.875 64.7031C44.9323 64.651 44.9974 64.625 45.0703 64.625C45.1406 64.6276 45.2005 64.6536 45.25 64.7031C45.2995 64.75 45.3255 64.8086 45.3281 64.8789V66.793C45.3125 66.9492 45.2266 67.0339 45.0703 67.0469C44.9974 67.0469 44.9336 67.0234 44.8789 66.9766C44.8268 66.9271 44.8008 66.8659 44.8008 66.793V65.4258L44.4258 65.7148C44.3685 65.7591 44.3047 65.776 44.2344 65.7656C44.1615 65.7578 44.1029 65.7253 44.0586 65.668ZM49.0703 65.8438C49.0703 65.7786 49.0365 65.7448 48.9688 65.7422H47.6016C47.5521 65.7448 47.5091 65.7669 47.4727 65.8086C47.4362 65.8477 47.4089 65.8945 47.3906 65.9492C47.375 66.0013 47.3672 66.0547 47.3672 66.1094C47.3672 66.1615 47.375 66.2148 47.3906 66.2695C47.4089 66.3216 47.4362 66.3685 47.4727 66.4102C47.5091 66.4492 47.5521 66.4688 47.6016 66.4688H48.6016C48.6745 66.4688 48.7357 66.4948 48.7852 66.5469C48.8372 66.5964 48.8633 66.6576 48.8633 66.7305C48.8633 66.8034 48.8372 66.8646 48.7852 66.9141C48.7357 66.9661 48.6745 66.9922 48.6016 66.9922H47.6172C47.4349 66.9896 47.2839 66.9388 47.1641 66.8398C47.0469 66.7383 46.9622 66.625 46.9102 66.5C46.8607 66.3724 46.8359 66.2409 46.8359 66.1055C46.8359 65.9753 46.862 65.8477 46.9141 65.7227C46.9661 65.5951 47.0508 65.4818 47.168 65.3828C47.2852 65.2812 47.4583 65.2266 47.6875 65.2188H49.3281C49.401 65.2188 49.4635 65.2435 49.5156 65.293C49.5677 65.3398 49.5951 65.3997 49.5977 65.4727V66.707C49.5977 66.9154 49.569 67.112 49.5117 67.2969C49.4596 67.4609 49.3737 67.599 49.2539 67.7109C49.1367 67.8255 48.987 67.888 48.8047 67.8984H47.4531C47.3828 67.8958 47.3229 67.8698 47.2734 67.8203C47.2266 67.7734 47.2018 67.7148 47.1992 67.6445C47.1992 67.5716 47.2227 67.5091 47.2695 67.457C47.319 67.4049 47.3802 67.3776 47.4531 67.375H48.6719C48.7708 67.3698 48.8529 67.332 48.918 67.2617C48.9831 67.1914 49.0247 67.1094 49.043 67.0156C49.0612 66.9219 49.0703 66.8008 49.0703 66.6523V65.8438ZM52.3086 66.7852V65.8438C52.3086 65.7786 52.2747 65.7448 52.207 65.7422H50.8398C50.7904 65.7448 50.7474 65.7669 50.7109 65.8086C50.6745 65.8477 50.6471 65.8945 50.6289 65.9492C50.6133 66.0013 50.6055 66.0547 50.6055 66.1094C50.6055 66.1615 50.6133 66.2148 50.6289 66.2695C50.6471 66.3216 50.6745 66.3685 50.7109 66.4102C50.7474 66.4492 50.7904 66.4688 50.8398 66.4688H51.8398C51.9128 66.4688 51.974 66.4948 52.0234 66.5469C52.0755 66.5964 52.1016 66.6576 52.1016 66.7305C52.1016 66.8034 52.0755 66.8646 52.0234 66.9141C51.974 66.9661 51.9128 66.9922 51.8398 66.9922H50.8555C50.6732 66.9896 50.5221 66.9388 50.4023 66.8398C50.2852 66.7383 50.2005 66.625 50.1484 66.5C50.099 66.3724 50.0742 66.2409 50.0742 66.1055C50.0742 65.9753 50.1003 65.8477 50.1523 65.7227C50.2044 65.5951 50.2891 65.4818 50.4062 65.3828C50.5234 65.2812 50.6966 65.2266 50.9258 65.2188H52.5664C52.6393 65.2188 52.7018 65.2435 52.7539 65.293C52.806 65.3398 52.8333 65.3997 52.8359 65.4727V66.7852C52.8359 66.8581 52.8086 66.9193 52.7539 66.9688C52.7018 67.0156 52.6393 67.0391 52.5664 67.0391C52.4102 67.026 52.3242 66.9414 52.3086 66.7852ZM54.168 65.1602C54.2591 65.1602 54.3477 65.1758 54.4336 65.207C54.5221 65.2383 54.6068 65.2839 54.6875 65.3438C54.7005 65.3568 54.7148 65.3698 54.7305 65.3828C54.7435 65.3698 54.7578 65.3568 54.7734 65.3438C54.8542 65.2839 54.9375 65.2383 55.0234 65.207C55.112 65.1758 55.2005 65.1602 55.2891 65.1602C55.3802 65.1602 55.4688 65.1758 55.5547 65.207C55.6432 65.2383 55.7266 65.2852 55.8047 65.3477C55.8854 65.4076 55.9557 65.4883 56.0156 65.5898C56.0781 65.6914 56.1094 65.8125 56.1094 65.9531V66.7852C56.0938 66.9414 56.0078 67.026 55.8516 67.0391C55.7786 67.0391 55.7148 67.0156 55.6602 66.9688C55.6081 66.9193 55.582 66.8581 55.582 66.7852V65.9844C55.582 65.9219 55.5703 65.8698 55.5469 65.8281C55.5234 65.7839 55.4974 65.75 55.4688 65.7266C55.4401 65.7005 55.4102 65.6823 55.3789 65.6719C55.3477 65.6589 55.3164 65.6523 55.2852 65.6523C55.2539 65.6523 55.2227 65.6589 55.1914 65.6719C55.1628 65.6823 55.1341 65.7005 55.1055 65.7266C55.0768 65.75 55.0508 65.7839 55.0273 65.8281C55.0039 65.8698 54.9909 65.9219 54.9883 65.9844V66.7852C54.9727 66.9414 54.8867 67.026 54.7305 67.0391C54.6576 67.0391 54.5938 67.0156 54.5391 66.9688C54.487 66.9193 54.4609 66.8581 54.4609 66.7852V65.9844C54.4609 65.9219 54.4492 65.8698 54.4258 65.8281C54.4023 65.7839 54.3763 65.75 54.3477 65.7266C54.319 65.7005 54.2891 65.6823 54.2578 65.6719C54.2266 65.6589 54.1953 65.6523 54.1641 65.6523C54.1328 65.6523 54.1016 65.6589 54.0703 65.6719C54.0417 65.6823 54.013 65.7005 53.9844 65.7266C53.9557 65.75 53.9297 65.7839 53.9062 65.8281C53.8828 65.8698 53.8698 65.9219 53.8672 65.9844V66.7852C53.8542 66.9414 53.7695 67.026 53.6133 67.0391C53.5404 67.0391 53.4766 67.0156 53.4219 66.9688C53.3698 66.9193 53.3438 66.8581 53.3438 66.7852V65.9531C53.349 65.8125 53.3815 65.6914 53.4414 65.5898C53.5013 65.4883 53.5716 65.4076 53.6523 65.3477C53.7331 65.2852 53.8164 65.2383 53.9023 65.207C53.9909 65.1758 54.0794 65.1602 54.168 65.1602ZM57.3945 66.9922C57.1654 66.9844 56.9922 66.931 56.875 66.832C56.7578 66.7305 56.6732 66.6172 56.6211 66.4922C56.569 66.3646 56.543 66.2357 56.543 66.1055C56.543 65.9701 56.5677 65.8398 56.6172 65.7148C56.6693 65.5872 56.7539 65.474 56.8711 65.375C56.9909 65.2734 57.1419 65.2214 57.3242 65.2188H58.8086C58.8815 65.2188 58.9427 65.2435 58.9922 65.293C59.0443 65.3398 59.0703 65.3971 59.0703 65.4648C59.0703 65.5352 59.0443 65.5951 58.9922 65.6445C58.9427 65.6914 58.8815 65.7148 58.8086 65.7148H57.3477C57.2904 65.7148 57.2396 65.7344 57.1953 65.7734C57.1536 65.8125 57.1224 65.8633 57.1016 65.9258C57.0833 65.9883 57.0742 66.0495 57.0742 66.1094C57.0742 66.1745 57.0833 66.2383 57.1016 66.3008C57.1224 66.3633 57.1536 66.4141 57.1953 66.4531C57.2396 66.4896 57.2904 66.5091 57.3477 66.5117H58.8086C58.8815 66.5117 58.9427 66.5352 58.9922 66.582C59.0443 66.6289 59.0703 66.6849 59.0703 66.75C59.0703 66.8177 59.0443 66.875 58.9922 66.9219C58.9427 66.9688 58.8815 66.9922 58.8086 66.9922H57.3945ZM59.0234 66.0977C59.0234 66.1471 59.0013 66.1901 58.957 66.2266C58.918 66.2604 58.8685 66.2773 58.8086 66.2773H57.5312C57.4714 66.2773 57.4206 66.2604 57.3789 66.2266C57.3372 66.1901 57.3164 66.1471 57.3164 66.0977C57.3164 66.0508 57.3372 66.0091 57.3789 65.9727C57.4206 65.9388 57.4714 65.9219 57.5312 65.9219H58.8086C58.8685 65.9219 58.9193 65.9401 58.9609 65.9766C59.0026 66.0104 59.0234 66.0508 59.0234 66.0977ZM61.7891 65.1797C61.8594 65.1823 61.9193 65.2083 61.9688 65.2578C62.0182 65.3047 62.0443 65.3633 62.0469 65.4336V66.7852C62.0312 66.9414 61.9453 67.026 61.7891 67.0391C61.7161 67.0391 61.6523 67.0156 61.5977 66.9688C61.5456 66.9193 61.5195 66.8581 61.5195 66.7852V65.4336C61.5221 65.3607 61.5495 65.3008 61.6016 65.2539C61.6536 65.2044 61.7161 65.1797 61.7891 65.1797ZM61.4609 64.6719C61.4609 64.599 61.4922 64.5365 61.5547 64.4844C61.6172 64.4323 61.6927 64.4062 61.7812 64.4062C61.8698 64.4062 61.9453 64.4323 62.0078 64.4844C62.0703 64.5365 62.1016 64.599 62.1016 64.6719C62.1016 64.7474 62.0703 64.8112 62.0078 64.8633C61.9453 64.9154 61.8698 64.9414 61.7812 64.9414C61.6927 64.9414 61.6172 64.9154 61.5547 64.8633C61.4922 64.8112 61.4609 64.7474 61.4609 64.6719ZM63.7695 65.1602C63.9049 65.1602 64.0378 65.1758 64.168 65.207C64.3008 65.2383 64.4271 65.2852 64.5469 65.3477C64.6667 65.4076 64.7721 65.4883 64.8633 65.5898C64.957 65.6914 65.0078 65.8125 65.0156 65.9531V66.1172V66.7852C65 66.9414 64.9141 67.026 64.7578 67.0391C64.6849 67.0391 64.6211 67.0156 64.5664 66.9688C64.5143 66.9193 64.4883 66.8581 64.4883 66.7852V66.6133V66.0742C64.4831 65.9935 64.4518 65.9271 64.3945 65.875C64.3398 65.8203 64.2773 65.7773 64.207 65.7461C64.1393 65.7148 64.0677 65.6914 63.9922 65.6758C63.9193 65.6602 63.8451 65.6523 63.7695 65.6523C63.694 65.6523 63.6185 65.6602 63.543 65.6758C63.4701 65.6914 63.3984 65.7148 63.3281 65.7461C63.2604 65.7773 63.1979 65.8203 63.1406 65.875C63.0859 65.9271 63.056 65.9935 63.0508 66.0742V66.6133V66.7852C63.0378 66.9414 62.9531 67.026 62.7969 67.0391C62.724 67.0391 62.6602 67.0156 62.6055 66.9688C62.5534 66.9193 62.5273 66.8581 62.5273 66.7852V66.1172V65.9531C62.5352 65.8125 62.5846 65.6914 62.6758 65.5898C62.7669 65.4883 62.8724 65.4076 62.9922 65.3477C63.112 65.2852 63.237 65.2383 63.3672 65.207C63.5 65.1758 63.6341 65.1602 63.7695 65.1602ZM22.0938 68.625C22.1667 68.625 22.2292 68.6497 22.2812 68.6992C22.3333 68.7461 22.3607 68.806 22.3633 68.8789V69.2188H23.6914C23.7643 69.2188 23.8268 69.2435 23.8789 69.293C23.9284 69.3451 23.9531 69.4076 23.9531 69.4805C23.9531 69.5534 23.9271 69.6159 23.875 69.668C23.8255 69.7174 23.7643 69.7422 23.6914 69.7422H22.3633V69.8203C22.3607 69.9271 22.3672 70.026 22.3828 70.1172C22.401 70.2057 22.4427 70.2852 22.5078 70.3555C22.5729 70.4258 22.6549 70.4635 22.7539 70.4688H23.707C23.7799 70.4714 23.8398 70.4987 23.8867 70.5508C23.9362 70.6029 23.9609 70.6654 23.9609 70.7383C23.9583 70.8086 23.9323 70.8685 23.8828 70.918C23.8359 70.9648 23.7773 70.9896 23.707 70.9922H22.6211C22.4388 70.9818 22.2878 70.9206 22.168 70.8086C22.0508 70.694 21.9661 70.5547 21.9141 70.3906C21.8646 70.2266 21.8385 70.0521 21.8359 69.8672V69.7422H21.3867C21.3138 69.7422 21.2526 69.7161 21.2031 69.6641C21.151 69.6146 21.125 69.5534 21.125 69.4805C21.125 69.4076 21.1497 69.3464 21.1992 69.2969C21.2513 69.2448 21.3138 69.2188 21.3867 69.2188H21.8359V68.8789C21.8385 68.8086 21.8646 68.75 21.9141 68.7031C21.9635 68.6536 22.0234 68.6276 22.0938 68.625ZM24.6055 68.625C24.6758 68.6276 24.7357 68.6536 24.7852 68.7031C24.8346 68.75 24.8607 68.8086 24.8633 68.8789V69.2188H26.0742C26.2565 69.2214 26.4062 69.2734 26.5234 69.375C26.6432 69.474 26.7279 69.5859 26.7773 69.7109C26.8294 69.8385 26.8555 69.9701 26.8555 70.1055H26.8594V70.7852C26.8594 70.8581 26.832 70.9193 26.7773 70.9688C26.7253 71.0156 26.6628 71.0391 26.5898 71.0391C26.4336 71.026 26.3477 70.9414 26.332 70.7852V70.1016C26.332 70.0521 26.3216 70 26.3008 69.9453C26.2826 69.8906 26.2552 69.8438 26.2188 69.8047C26.1823 69.763 26.1393 69.7422 26.0898 69.7422H24.8633V70.793C24.8477 70.9492 24.7617 71.0339 24.6055 71.0469C24.5326 71.0469 24.4688 71.0234 24.4141 70.9766C24.362 70.9271 24.3359 70.8659 24.3359 70.793V68.8789C24.3385 68.806 24.3659 68.7461 24.418 68.6992C24.4701 68.6497 24.5326 68.625 24.6055 68.625ZM28.1523 70.9922C27.9232 70.9844 27.75 70.931 27.6328 70.832C27.5156 70.7305 27.431 70.6172 27.3789 70.4922C27.3268 70.3646 27.3008 70.2357 27.3008 70.1055C27.3008 69.9701 27.3255 69.8398 27.375 69.7148C27.4271 69.5872 27.5117 69.474 27.6289 69.375C27.7487 69.2734 27.8997 69.2214 28.082 69.2188H29.5664C29.6393 69.2188 29.7005 69.2435 29.75 69.293C29.8021 69.3398 29.8281 69.3971 29.8281 69.4648C29.8281 69.5352 29.8021 69.5951 29.75 69.6445C29.7005 69.6914 29.6393 69.7148 29.5664 69.7148H28.1055C28.0482 69.7148 27.9974 69.7344 27.9531 69.7734C27.9115 69.8125 27.8802 69.8633 27.8594 69.9258C27.8411 69.9883 27.832 70.0495 27.832 70.1094C27.832 70.1745 27.8411 70.2383 27.8594 70.3008C27.8802 70.3633 27.9115 70.4141 27.9531 70.4531C27.9974 70.4896 28.0482 70.5091 28.1055 70.5117H29.5664C29.6393 70.5117 29.7005 70.5352 29.75 70.582C29.8021 70.6289 29.8281 70.6849 29.8281 70.75C29.8281 70.8177 29.8021 70.875 29.75 70.9219C29.7005 70.9688 29.6393 70.9922 29.5664 70.9922H28.1523ZM29.7812 70.0977C29.7812 70.1471 29.7591 70.1901 29.7148 70.2266C29.6758 70.2604 29.6263 70.2773 29.5664 70.2773H28.2891C28.2292 70.2773 28.1784 70.2604 28.1367 70.2266C28.0951 70.1901 28.0742 70.1471 28.0742 70.0977C28.0742 70.0508 28.0951 70.0091 28.1367 69.9727C28.1784 69.9388 28.2292 69.9219 28.2891 69.9219H29.5664C29.6263 69.9219 29.6771 69.9401 29.7188 69.9766C29.7604 70.0104 29.7812 70.0508 29.7812 70.0977ZM33.1719 71.0391C33.1016 71.0365 33.0417 71.0117 32.9922 70.9648C32.9427 70.9154 32.9167 70.8555 32.9141 70.7852V70.2578H32.4648C32.3919 70.2578 32.3294 70.2331 32.2773 70.1836C32.2279 70.1315 32.2031 70.069 32.2031 69.9961C32.2031 69.9232 32.2292 69.862 32.2812 69.8125C32.3307 69.7604 32.3919 69.7344 32.4648 69.7344H32.9141C32.9219 69.5807 32.9479 69.4323 32.9922 69.2891C33.0443 69.125 33.1289 68.987 33.2461 68.875C33.3659 68.7604 33.5169 68.6979 33.6992 68.6875H34.7852C34.8555 68.6901 34.9141 68.7161 34.9609 68.7656C35.0104 68.8125 35.0365 68.8711 35.0391 68.9414C35.0391 69.0143 35.0143 69.0768 34.9648 69.1289C34.918 69.181 34.8581 69.2083 34.7852 69.2109H33.832C33.7331 69.2161 33.651 69.2539 33.5859 69.3242C33.5208 69.3945 33.4805 69.474 33.4648 69.5625C33.4518 69.6198 33.444 69.6771 33.4414 69.7344H34.7695C34.8424 69.7344 34.9036 69.7604 34.9531 69.8125C35.0052 69.862 35.0312 69.9232 35.0312 69.9961C35.0312 70.069 35.0065 70.1315 34.957 70.1836C34.9049 70.2331 34.8424 70.2578 34.7695 70.2578H33.4414V70.7852C33.4388 70.8581 33.4115 70.9193 33.3594 70.9688C33.3073 71.0156 33.2448 71.0391 33.1719 71.0391ZM35.5273 69.7109C35.5768 69.5859 35.6602 69.474 35.7773 69.375C35.8971 69.2734 36.0482 69.2214 36.2305 69.2188H37.6992C37.7721 69.2188 37.8333 69.2448 37.8828 69.2969C37.9349 69.3464 37.9609 69.4076 37.9609 69.4805C37.9609 69.5534 37.9349 69.6159 37.8828 69.668C37.8333 69.7174 37.7721 69.7422 37.6992 69.7422H36.2148C36.1654 69.7422 36.1224 69.763 36.0859 69.8047C36.0495 69.8438 36.0208 69.8906 36 69.9453C35.9818 70 35.9727 70.0521 35.9727 70.1016V70.7852C35.957 70.9414 35.8711 71.026 35.7148 71.0391C35.6419 71.0391 35.5781 71.0156 35.5234 70.9688C35.4714 70.9193 35.4453 70.8581 35.4453 70.7852V70.1055H35.4492C35.4492 69.9701 35.4753 69.8385 35.5273 69.7109ZM38.6172 69.1797C38.6875 69.1823 38.7474 69.2083 38.7969 69.2578C38.8464 69.3047 38.8724 69.3633 38.875 69.4336V70.7852C38.8594 70.9414 38.7734 71.026 38.6172 71.0391C38.5443 71.0391 38.4805 71.0156 38.4258 70.9688C38.3737 70.9193 38.3477 70.8581 38.3477 70.7852V69.4336C38.3503 69.3607 38.3776 69.3008 38.4297 69.2539C38.4818 69.2044 38.5443 69.1797 38.6172 69.1797ZM38.2891 68.6719C38.2891 68.599 38.3203 68.5365 38.3828 68.4844C38.4453 68.4323 38.5208 68.4062 38.6094 68.4062C38.6979 68.4062 38.7734 68.4323 38.8359 68.4844C38.8984 68.5365 38.9297 68.599 38.9297 68.6719C38.9297 68.7474 38.8984 68.8112 38.8359 68.8633C38.7734 68.9154 38.6979 68.9414 38.6094 68.9414C38.5208 68.9414 38.4453 68.9154 38.3828 68.8633C38.3203 68.8112 38.2891 68.7474 38.2891 68.6719ZM40.1523 70.9922C39.9232 70.9844 39.75 70.931 39.6328 70.832C39.5156 70.7305 39.431 70.6172 39.3789 70.4922C39.3268 70.3646 39.3008 70.2357 39.3008 70.1055C39.3008 69.9701 39.3255 69.8398 39.375 69.7148C39.4271 69.5872 39.5117 69.474 39.6289 69.375C39.7487 69.2734 39.8997 69.2214 40.082 69.2188H41.5664C41.6393 69.2188 41.7005 69.2435 41.75 69.293C41.8021 69.3398 41.8281 69.3971 41.8281 69.4648C41.8281 69.5352 41.8021 69.5951 41.75 69.6445C41.7005 69.6914 41.6393 69.7148 41.5664 69.7148H40.1055C40.0482 69.7148 39.9974 69.7344 39.9531 69.7734C39.9115 69.8125 39.8802 69.8633 39.8594 69.9258C39.8411 69.9883 39.832 70.0495 39.832 70.1094C39.832 70.1745 39.8411 70.2383 39.8594 70.3008C39.8802 70.3633 39.9115 70.4141 39.9531 70.4531C39.9974 70.4896 40.0482 70.5091 40.1055 70.5117H41.5664C41.6393 70.5117 41.7005 70.5352 41.75 70.582C41.8021 70.6289 41.8281 70.6849 41.8281 70.75C41.8281 70.8177 41.8021 70.875 41.75 70.9219C41.7005 70.9688 41.6393 70.9922 41.5664 70.9922H40.1523ZM41.7812 70.0977C41.7812 70.1471 41.7591 70.1901 41.7148 70.2266C41.6758 70.2604 41.6263 70.2773 41.5664 70.2773H40.2891C40.2292 70.2773 40.1784 70.2604 40.1367 70.2266C40.0951 70.1901 40.0742 70.1471 40.0742 70.0977C40.0742 70.0508 40.0951 70.0091 40.1367 69.9727C40.1784 69.9388 40.2292 69.9219 40.2891 69.9219H41.5664C41.6263 69.9219 41.6771 69.9401 41.7188 69.9766C41.7604 70.0104 41.7812 70.0508 41.7812 70.0977ZM43.5234 69.1602C43.6589 69.1602 43.7917 69.1758 43.9219 69.207C44.0547 69.2383 44.181 69.2852 44.3008 69.3477C44.4206 69.4076 44.526 69.4883 44.6172 69.5898C44.7109 69.6914 44.7617 69.8125 44.7695 69.9531V70.1172V70.7852C44.7539 70.9414 44.668 71.026 44.5117 71.0391C44.4388 71.0391 44.375 71.0156 44.3203 70.9688C44.2682 70.9193 44.2422 70.8581 44.2422 70.7852V70.6133V70.0742C44.237 69.9935 44.2057 69.9271 44.1484 69.875C44.0938 69.8203 44.0312 69.7773 43.9609 69.7461C43.8932 69.7148 43.8216 69.6914 43.7461 69.6758C43.6732 69.6602 43.599 69.6523 43.5234 69.6523C43.4479 69.6523 43.3724 69.6602 43.2969 69.6758C43.224 69.6914 43.1523 69.7148 43.082 69.7461C43.0143 69.7773 42.9518 69.8203 42.8945 69.875C42.8398 69.9271 42.8099 69.9935 42.8047 70.0742V70.6133V70.7852C42.7917 70.9414 42.707 71.026 42.5508 71.0391C42.4779 71.0391 42.4141 71.0156 42.3594 70.9688C42.3073 70.9193 42.2812 70.8581 42.2812 70.7852V70.1172V69.9531C42.2891 69.8125 42.3385 69.6914 42.4297 69.5898C42.5208 69.4883 42.6263 69.4076 42.7461 69.3477C42.8659 69.2852 42.9909 69.2383 43.1211 69.207C43.2539 69.1758 43.388 69.1602 43.5234 69.1602ZM47.4414 68.8789C47.457 68.7227 47.543 68.638 47.6992 68.625C47.7721 68.625 47.8346 68.6497 47.8867 68.6992C47.9414 68.7461 47.9688 68.806 47.9688 68.8789V70.7383C47.9661 70.8112 47.9388 70.8724 47.8867 70.9219C47.8346 70.9688 47.7721 70.9922 47.6992 70.9922H46.0586C45.8294 70.9844 45.6562 70.931 45.5391 70.832C45.4219 70.7305 45.3372 70.6172 45.2852 70.4922C45.2331 70.3646 45.207 70.2357 45.207 70.1055C45.207 69.9701 45.2318 69.8398 45.2812 69.7148C45.3333 69.5872 45.418 69.474 45.5352 69.375C45.6549 69.2734 45.806 69.2214 45.9883 69.2188H46.9727C47.0456 69.2188 47.1068 69.2448 47.1562 69.2969C47.2083 69.3464 47.2344 69.4076 47.2344 69.4805C47.2344 69.5534 47.2083 69.6159 47.1562 69.668C47.1068 69.7174 47.0456 69.7422 46.9727 69.7422H45.9727C45.9232 69.7422 45.8802 69.763 45.8438 69.8047C45.8073 69.8438 45.7799 69.8906 45.7617 69.9453C45.7461 69.9974 45.7383 70.0495 45.7383 70.1016C45.7383 70.1562 45.7461 70.2109 45.7617 70.2656C45.7799 70.3177 45.8073 70.3646 45.8438 70.4062C45.8802 70.4453 45.9232 70.4661 45.9727 70.4688H47.3398C47.4076 70.4661 47.4414 70.4323 47.4414 70.3672V68.8789ZM50.9648 69.4453C50.9648 69.5104 50.9388 69.5651 50.8867 69.6094C50.8372 69.651 50.776 69.6719 50.7031 69.6719H49.0508C49.0169 69.6719 48.9896 69.6784 48.9688 69.6914C48.9479 69.7044 48.9323 69.7188 48.9219 69.7344C48.9115 69.7474 48.9062 69.7591 48.9062 69.7695C48.9062 69.7826 48.9115 69.7969 48.9219 69.8125C48.9323 69.8255 48.9479 69.8385 48.9688 69.8516C48.9896 69.862 49.0169 69.8685 49.0508 69.8711H50.3281C50.4922 69.8737 50.6276 69.9062 50.7344 69.9688C50.8411 70.0286 50.9167 70.1003 50.9609 70.1836C51.0078 70.2643 51.0312 70.3464 51.0312 70.4297C51.0312 70.5104 51.0078 70.5924 50.9609 70.6758C50.9141 70.7565 50.8372 70.8281 50.7305 70.8906C50.6263 70.9505 50.4922 70.9805 50.3281 70.9805C50.2995 70.9831 50.2786 70.9844 50.2656 70.9844H48.75C48.6771 70.9844 48.6146 70.9635 48.5625 70.9219C48.513 70.8776 48.4883 70.8242 48.4883 70.7617C48.4883 70.6966 48.5143 70.6419 48.5664 70.5977C48.6159 70.556 48.6771 70.5352 48.75 70.5352H50.3594C50.3984 70.5378 50.4297 70.5326 50.4531 70.5195C50.4792 70.5065 50.4987 70.4922 50.5117 70.4766C50.5247 70.4609 50.5312 70.4453 50.5312 70.4297C50.5312 70.4219 50.5247 70.4089 50.5117 70.3906C50.4987 70.3698 50.4792 70.3542 50.4531 70.3438C50.4297 70.3307 50.3984 70.3229 50.3594 70.3203H49.0781C48.9271 70.3177 48.8021 70.2865 48.7031 70.2266C48.6042 70.1641 48.5339 70.0924 48.4922 70.0117C48.4505 69.931 48.4297 69.8503 48.4297 69.7695C48.4297 69.6888 48.4505 69.6094 48.4922 69.5312C48.5365 69.4505 48.6068 69.3815 48.7031 69.3242C48.8021 69.2643 48.9271 69.2318 49.0781 69.2266C49.1042 69.224 49.1237 69.2227 49.1367 69.2227H50.7031C50.776 69.2227 50.8372 69.2448 50.8867 69.2891C50.9388 69.3307 50.9648 69.3828 50.9648 69.4453ZM54.293 69.1602C54.3841 69.1602 54.4727 69.1758 54.5586 69.207C54.6471 69.2383 54.7318 69.2839 54.8125 69.3438C54.8255 69.3568 54.8398 69.3698 54.8555 69.3828C54.8685 69.3698 54.8828 69.3568 54.8984 69.3438C54.9792 69.2839 55.0625 69.2383 55.1484 69.207C55.237 69.1758 55.3255 69.1602 55.4141 69.1602C55.5052 69.1602 55.5938 69.1758 55.6797 69.207C55.7682 69.2383 55.8516 69.2852 55.9297 69.3477C56.0104 69.4076 56.0807 69.4883 56.1406 69.5898C56.2031 69.6914 56.2344 69.8125 56.2344 69.9531V70.7852C56.2188 70.9414 56.1328 71.026 55.9766 71.0391C55.9036 71.0391 55.8398 71.0156 55.7852 70.9688C55.7331 70.9193 55.707 70.8581 55.707 70.7852V69.9844C55.707 69.9219 55.6953 69.8698 55.6719 69.8281C55.6484 69.7839 55.6224 69.75 55.5938 69.7266C55.5651 69.7005 55.5352 69.6823 55.5039 69.6719C55.4727 69.6589 55.4414 69.6523 55.4102 69.6523C55.3789 69.6523 55.3477 69.6589 55.3164 69.6719C55.2878 69.6823 55.2591 69.7005 55.2305 69.7266C55.2018 69.75 55.1758 69.7839 55.1523 69.8281C55.1289 69.8698 55.1159 69.9219 55.1133 69.9844V70.7852C55.0977 70.9414 55.0117 71.026 54.8555 71.0391C54.7826 71.0391 54.7188 71.0156 54.6641 70.9688C54.612 70.9193 54.5859 70.8581 54.5859 70.7852V69.9844C54.5859 69.9219 54.5742 69.8698 54.5508 69.8281C54.5273 69.7839 54.5013 69.75 54.4727 69.7266C54.444 69.7005 54.4141 69.6823 54.3828 69.6719C54.3516 69.6589 54.3203 69.6523 54.2891 69.6523C54.2578 69.6523 54.2266 69.6589 54.1953 69.6719C54.1667 69.6823 54.138 69.7005 54.1094 69.7266C54.0807 69.75 54.0547 69.7839 54.0312 69.8281C54.0078 69.8698 53.9948 69.9219 53.9922 69.9844V70.7852C53.9792 70.9414 53.8945 71.026 53.7383 71.0391C53.6654 71.0391 53.6016 71.0156 53.5469 70.9688C53.4948 70.9193 53.4688 70.8581 53.4688 70.7852V69.9531C53.474 69.8125 53.5065 69.6914 53.5664 69.5898C53.6263 69.4883 53.6966 69.4076 53.7773 69.3477C53.8581 69.2852 53.9414 69.2383 54.0273 69.207C54.1159 69.1758 54.2044 69.1602 54.293 69.1602ZM57.5273 70.9922C57.2982 70.9844 57.125 70.931 57.0078 70.832C56.8906 70.7305 56.806 70.6172 56.7539 70.4922C56.7018 70.3646 56.6758 70.2357 56.6758 70.1055C56.6758 69.9701 56.7005 69.8398 56.75 69.7148C56.8021 69.5872 56.8867 69.474 57.0039 69.375C57.1237 69.2734 57.2747 69.2214 57.457 69.2188H58.7227C58.9049 69.2214 59.0547 69.2734 59.1719 69.375C59.2917 69.474 59.3763 69.5872 59.4258 69.7148C59.4779 69.8398 59.5039 69.9701 59.5039 70.1055C59.5039 70.2357 59.4779 70.3646 59.4258 70.4922C59.3737 70.6172 59.2891 70.7305 59.1719 70.832C59.0547 70.931 58.8815 70.9844 58.6523 70.9922H57.5273ZM57.4414 69.7422C57.3919 69.7422 57.349 69.763 57.3125 69.8047C57.276 69.8438 57.2487 69.8906 57.2305 69.9453C57.2148 69.9974 57.207 70.0495 57.207 70.1016C57.207 70.1562 57.2148 70.2109 57.2305 70.2656C57.2487 70.3177 57.276 70.3646 57.3125 70.4062C57.349 70.4453 57.3919 70.4661 57.4414 70.4688H58.7383C58.7878 70.4661 58.8307 70.4453 58.8672 70.4062C58.9036 70.3646 58.9297 70.3177 58.9453 70.2656C58.9635 70.2109 58.9727 70.1562 58.9727 70.1016C58.9727 70.0495 58.9635 69.9974 58.9453 69.9453C58.9297 69.8906 58.9036 69.8438 58.8672 69.8047C58.8307 69.763 58.7878 69.7422 58.7383 69.7422H57.4414ZM62.1289 68.8789C62.1445 68.7227 62.2305 68.638 62.3867 68.625C62.4596 68.625 62.5221 68.6497 62.5742 68.6992C62.6289 68.7461 62.6562 68.806 62.6562 68.8789V70.7383C62.6536 70.8112 62.6263 70.8724 62.5742 70.9219C62.5221 70.9688 62.4596 70.9922 62.3867 70.9922H60.7461C60.5169 70.9844 60.3438 70.931 60.2266 70.832C60.1094 70.7305 60.0247 70.6172 59.9727 70.4922C59.9206 70.3646 59.8945 70.2357 59.8945 70.1055C59.8945 69.9701 59.9193 69.8398 59.9688 69.7148C60.0208 69.5872 60.1055 69.474 60.2227 69.375C60.3424 69.2734 60.4935 69.2214 60.6758 69.2188H61.6602C61.7331 69.2188 61.7943 69.2448 61.8438 69.2969C61.8958 69.3464 61.9219 69.4076 61.9219 69.4805C61.9219 69.5534 61.8958 69.6159 61.8438 69.668C61.7943 69.7174 61.7331 69.7422 61.6602 69.7422H60.6602C60.6107 69.7422 60.5677 69.763 60.5312 69.8047C60.4948 69.8438 60.4674 69.8906 60.4492 69.9453C60.4336 69.9974 60.4258 70.0495 60.4258 70.1016C60.4258 70.1562 60.4336 70.2109 60.4492 70.2656C60.4674 70.3177 60.4948 70.3646 60.5312 70.4062C60.5677 70.4453 60.6107 70.4661 60.6602 70.4688H62.0273C62.0951 70.4661 62.1289 70.4323 62.1289 70.3672V68.8789ZM63.9727 70.9922C63.7435 70.9844 63.5703 70.931 63.4531 70.832C63.3359 70.7305 63.2513 70.6172 63.1992 70.4922C63.1471 70.3646 63.1211 70.2357 63.1211 70.1055C63.1211 69.9701 63.1458 69.8398 63.1953 69.7148C63.2474 69.5872 63.332 69.474 63.4492 69.375C63.569 69.2734 63.7201 69.2214 63.9023 69.2188H65.3867C65.4596 69.2188 65.5208 69.2435 65.5703 69.293C65.6224 69.3398 65.6484 69.3971 65.6484 69.4648C65.6484 69.5352 65.6224 69.5951 65.5703 69.6445C65.5208 69.6914 65.4596 69.7148 65.3867 69.7148H63.9258C63.8685 69.7148 63.8177 69.7344 63.7734 69.7734C63.7318 69.8125 63.7005 69.8633 63.6797 69.9258C63.6615 69.9883 63.6523 70.0495 63.6523 70.1094C63.6523 70.1745 63.6615 70.2383 63.6797 70.3008C63.7005 70.3633 63.7318 70.4141 63.7734 70.4531C63.8177 70.4896 63.8685 70.5091 63.9258 70.5117H65.3867C65.4596 70.5117 65.5208 70.5352 65.5703 70.582C65.6224 70.6289 65.6484 70.6849 65.6484 70.75C65.6484 70.8177 65.6224 70.875 65.5703 70.9219C65.5208 70.9688 65.4596 70.9922 65.3867 70.9922H63.9727ZM65.6016 70.0977C65.6016 70.1471 65.5794 70.1901 65.5352 70.2266C65.4961 70.2604 65.4466 70.2773 65.3867 70.2773H64.1094C64.0495 70.2773 63.9987 70.2604 63.957 70.2266C63.9154 70.1901 63.8945 70.1471 63.8945 70.0977C63.8945 70.0508 63.9154 70.0091 63.957 69.9727C63.9987 69.9388 64.0495 69.9219 64.1094 69.9219H65.3867C65.4466 69.9219 65.4974 69.9401 65.5391 69.9766C65.5807 70.0104 65.6016 70.0508 65.6016 70.0977ZM66.5 71.0547C66.3958 71.0547 66.3086 71.0182 66.2383 70.9453C66.1706 70.8724 66.1367 70.7812 66.1367 70.6719C66.1367 70.5625 66.1706 70.4714 66.2383 70.3984C66.3086 70.3255 66.3958 70.2891 66.5 70.2891C66.6042 70.2891 66.6914 70.3255 66.7617 70.3984C66.832 70.4714 66.8672 70.5625 66.8672 70.6719C66.8672 70.7812 66.832 70.8724 66.7617 70.9453C66.6914 71.0182 66.6042 71.0547 66.5 71.0547Z" fill="#537790"/>
<g filter="url(#filter0_b_65_1688)">
<rect width="96" height="97" rx="22" fill="#D9D9D9" fill-opacity="0.1"/>
</g>
<path d="M52 44V43C52 41.9391 51.5786 40.9217 50.8284 40.1716C50.0783 39.4214 49.0609 39 48 39C46.9391 39 45.9217 39.4214 45.1716 40.1716C44.4214 40.9217 44 41.9391 44 43V44" fill="#54555A"/>
<path d="M52 44V43C52 41.9391 51.5786 40.9217 50.8284 40.1716C50.0783 39.4214 49.0609 39 48 39C46.9391 39 45.9217 39.4214 45.1716 40.1716C44.4214 40.9217 44 41.9391 44 43V44" stroke="#54555A" stroke-width="2" stroke-linecap="round"/>
<path fill-rule="evenodd" clip-rule="evenodd" d="M39.879 43.879C39 44.757 39 46.172 39 49V50C39 53.771 39 55.657 40.172 56.828C41.343 58 43.229 58 47 58H49C52.771 58 54.657 58 55.828 56.828C57 55.657 57 53.771 57 50V49C57 46.172 57 44.757 56.121 43.879C55.243 43 53.828 43 51 43H45C42.172 43 40.757 43 39.879 43.879ZM48 51C48.2652 51 48.5196 50.8946 48.7071 50.7071C48.8946 50.5196 49 50.2652 49 50C49 49.7348 48.8946 49.4804 48.7071 49.2929C48.5196 49.1054 48.2652 49 48 49C47.7348 49 47.4804 49.1054 47.2929 49.2929C47.1054 49.4804 47 49.7348 47 50C47 50.2652 47.1054 50.5196 47.2929 50.7071C47.4804 50.8946 47.7348 51 48 51ZM51 50C51.0002 50.6206 50.8079 51.226 50.4498 51.7329C50.0916 52.2397 49.5851 52.623 49 52.83V55H47V52.83C46.4811 52.6468 46.0226 52.3245 45.6746 51.8984C45.3266 51.4722 45.1024 50.9585 45.0266 50.4135C44.9508 49.8686 45.0263 49.3132 45.2448 48.8082C45.4634 48.3033 45.8165 47.8681 46.2657 47.5503C46.7149 47.2325 47.2428 47.0443 47.7917 47.0063C48.3407 46.9683 48.8895 47.082 49.3781 47.3348C49.8668 47.5877 50.2766 47.9701 50.5626 48.4401C50.8487 48.9101 51 49.4498 51 50Z" fill="#54555A"/>
</g>
<defs>
<filter id="filter0_b_65_1688" x="-2" y="-2" width="100" height="101" filterUnits="userSpaceOnUse" color-interpolation-filters="sRGB">
<feFlood flood-opacity="0" result="BackgroundImageFix"/>
<feGaussianBlur in="BackgroundImageFix" stdDeviation="1"/>
<feComposite in2="SourceAlpha" operator="in" result="effect1_backgroundBlur_65_1688"/>
<feBlend mode="normal" in="SourceGraphic" in2="effect1_backgroundBlur_65_1688" result="shape"/>
</filter>
<clipPath id="clip0_65_1688">
<rect width="96" height="97" rx="22" fill="white"/>
</clipPath>
</defs>
</svg>
