<svg width="96" height="97" viewBox="0 0 96 97" fill="none" xmlns="http://www.w3.org/2000/svg">
<g clip-path="url(#clip0_65_1721)">
<rect width="96" height="97" rx="22" fill="#F4F4F4"/>
<path d="M25.9072 48.2188C26.363 48.2448 26.7373 48.4206 27.0303 48.7461C27.3232 49.0651 27.5348 49.4297 27.665 49.8398C27.7952 50.25 27.8604 50.6699 27.8604 51.0996C27.8604 51.5293 27.7952 51.9492 27.665 52.3594C27.5413 52.7695 27.3298 53.1374 27.0303 53.4629C26.7373 53.7819 26.363 53.9544 25.9072 53.9805H22.3135C22.1377 53.974 21.988 53.9121 21.8643 53.7949C21.7471 53.6712 21.6852 53.5215 21.6787 53.3457V50.9238C21.6852 50.7415 21.7536 50.5918 21.8838 50.4746C22.014 50.3509 22.1702 50.2891 22.3525 50.2891C22.5283 50.2956 22.6781 50.3607 22.8018 50.4844C22.9255 50.6016 22.9906 50.748 22.9971 50.9238V52.4082C22.9971 52.584 23.0882 52.6719 23.2705 52.6719H25.5752C25.8226 52.6589 26.0277 52.5645 26.1904 52.3887C26.3532 52.2129 26.4704 52.0143 26.542 51.793C26.6201 51.5651 26.6592 51.334 26.6592 51.0996C26.6592 50.8652 26.6201 50.6374 26.542 50.416C26.4704 50.1882 26.3532 49.9863 26.1904 49.8105C26.0277 49.6348 25.8226 49.5404 25.5752 49.5273H22.3135C21.9229 49.4948 21.7113 49.2832 21.6787 48.8926C21.6787 48.7103 21.7373 48.554 21.8545 48.4238C21.9782 48.2936 22.1312 48.2253 22.3135 48.2188H25.9072ZM30.9268 53.9805C30.3538 53.9609 29.9209 53.8275 29.6279 53.5801C29.335 53.3262 29.1234 53.043 28.9932 52.7305C28.863 52.4115 28.7979 52.0892 28.7979 51.7637C28.7979 51.4251 28.8597 51.0996 28.9834 50.7871C29.1136 50.4681 29.3252 50.1849 29.6182 49.9375C29.9176 49.6836 30.2952 49.5534 30.751 49.5469H34.4619C34.6442 49.5469 34.7972 49.6087 34.9209 49.7324C35.0511 49.8496 35.1162 49.9928 35.1162 50.1621C35.1162 50.3379 35.0511 50.4876 34.9209 50.6113C34.7972 50.7285 34.6442 50.7871 34.4619 50.7871H30.8096C30.6663 50.7871 30.5394 50.8359 30.4287 50.9336C30.3245 51.0312 30.2464 51.1582 30.1943 51.3145C30.1488 51.4707 30.126 51.6237 30.126 51.7734C30.126 51.9362 30.1488 52.0957 30.1943 52.252C30.2464 52.4082 30.3245 52.5352 30.4287 52.6328C30.5394 52.724 30.6663 52.7728 30.8096 52.7793H34.4619C34.6442 52.7793 34.7972 52.8379 34.9209 52.9551C35.0511 53.0723 35.1162 53.2122 35.1162 53.375C35.1162 53.5443 35.0511 53.6875 34.9209 53.8047C34.7972 53.9219 34.6442 53.9805 34.4619 53.9805H30.9268ZM34.999 51.7441C34.999 51.8678 34.9437 51.9753 34.833 52.0664C34.7354 52.151 34.6117 52.1934 34.4619 52.1934H31.2686C31.1188 52.1934 30.9919 52.151 30.8877 52.0664C30.7835 51.9753 30.7314 51.8678 30.7314 51.7441C30.7314 51.627 30.7835 51.5228 30.8877 51.4316C30.9919 51.347 31.1188 51.3047 31.2686 51.3047H34.4619C34.6117 51.3047 34.7386 51.3503 34.8428 51.4414C34.9469 51.526 34.999 51.627 34.999 51.7441ZM38.4756 54.0977C38.2998 54.0911 38.1501 54.0293 38.0264 53.9121C37.9027 53.7884 37.8376 53.6387 37.8311 53.4629V52.1445H36.708C36.5257 52.1445 36.3695 52.0827 36.2393 51.959C36.1156 51.8288 36.0537 51.6725 36.0537 51.4902C36.0537 51.3079 36.1188 51.1549 36.249 51.0312C36.3727 50.901 36.5257 50.8359 36.708 50.8359H37.8311C37.8506 50.4518 37.9157 50.0807 38.0264 49.7227C38.1566 49.3125 38.3682 48.9674 38.6611 48.6875C38.9606 48.401 39.3382 48.2448 39.7939 48.2188H42.5088C42.6846 48.2253 42.8311 48.2904 42.9482 48.4141C43.0719 48.5312 43.137 48.6777 43.1436 48.8535C43.1436 49.0358 43.0817 49.1921 42.958 49.3223C42.8408 49.4525 42.6911 49.5208 42.5088 49.5273H40.126C39.8786 49.5404 39.6735 49.6348 39.5107 49.8105C39.348 49.9863 39.2471 50.1849 39.208 50.4062C39.1755 50.5495 39.1559 50.6927 39.1494 50.8359H42.4697C42.652 50.8359 42.805 50.901 42.9287 51.0312C43.0589 51.1549 43.124 51.3079 43.124 51.4902C43.124 51.6725 43.0622 51.8288 42.9385 51.959C42.8083 52.0827 42.652 52.1445 42.4697 52.1445H39.1494V53.4629C39.1429 53.6452 39.0745 53.7982 38.9443 53.9219C38.8141 54.0391 38.6579 54.0977 38.4756 54.0977ZM46.1611 53.9805C45.5882 53.9609 45.1553 53.8275 44.8623 53.5801C44.5693 53.3262 44.3577 53.043 44.2275 52.7305C44.0973 52.4115 44.0322 52.0892 44.0322 51.7637C44.0322 51.4251 44.0941 51.0996 44.2178 50.7871C44.348 50.4681 44.5596 50.1849 44.8525 49.9375C45.152 49.6836 45.5296 49.5534 45.9854 49.5469H49.6963C49.8786 49.5469 50.0316 49.6087 50.1553 49.7324C50.2855 49.8496 50.3506 49.9928 50.3506 50.1621C50.3506 50.3379 50.2855 50.4876 50.1553 50.6113C50.0316 50.7285 49.8786 50.7871 49.6963 50.7871H46.0439C45.9007 50.7871 45.7738 50.8359 45.6631 50.9336C45.5589 51.0312 45.4808 51.1582 45.4287 51.3145C45.3831 51.4707 45.3604 51.6237 45.3604 51.7734C45.3604 51.9362 45.3831 52.0957 45.4287 52.252C45.4808 52.4082 45.5589 52.5352 45.6631 52.6328C45.7738 52.724 45.9007 52.7728 46.0439 52.7793H49.6963C49.8786 52.7793 50.0316 52.8379 50.1553 52.9551C50.2855 53.0723 50.3506 53.2122 50.3506 53.375C50.3506 53.5443 50.2855 53.6875 50.1553 53.8047C50.0316 53.9219 49.8786 53.9805 49.6963 53.9805H46.1611ZM50.2334 51.7441C50.2334 51.8678 50.1781 51.9753 50.0674 52.0664C49.9697 52.151 49.846 52.1934 49.6963 52.1934H46.5029C46.3532 52.1934 46.2262 52.151 46.1221 52.0664C46.0179 51.9753 45.9658 51.8678 45.9658 51.7441C45.9658 51.627 46.0179 51.5228 46.1221 51.4316C46.2262 51.347 46.3532 51.3047 46.5029 51.3047H49.6963C49.846 51.3047 49.973 51.3503 50.0771 51.4414C50.1813 51.526 50.2334 51.627 50.2334 51.7441ZM54.5889 49.4004C54.9274 49.4004 55.2594 49.4395 55.585 49.5176C55.917 49.5957 56.2327 49.7129 56.5322 49.8691C56.8317 50.0189 57.0954 50.2207 57.3232 50.4746C57.5576 50.7285 57.6846 51.0312 57.7041 51.3828V51.793V53.4629C57.665 53.8535 57.4502 54.0651 57.0596 54.0977C56.8773 54.0977 56.7178 54.0391 56.5811 53.9219C56.4508 53.7982 56.3857 53.6452 56.3857 53.4629V53.0332V51.6855C56.3727 51.4837 56.2946 51.3177 56.1514 51.1875C56.0146 51.0508 55.8584 50.9434 55.6826 50.8652C55.5133 50.7871 55.3343 50.7285 55.1455 50.6895C54.9632 50.6504 54.7777 50.6309 54.5889 50.6309C54.4001 50.6309 54.2113 50.6504 54.0225 50.6895C53.8402 50.7285 53.6611 50.7871 53.4854 50.8652C53.3161 50.9434 53.1598 51.0508 53.0166 51.1875C52.8799 51.3177 52.805 51.4837 52.792 51.6855V53.0332V53.4629C52.7594 53.8535 52.5479 54.0651 52.1572 54.0977C51.9749 54.0977 51.8154 54.0391 51.6787 53.9219C51.5485 53.7982 51.4834 53.6452 51.4834 53.4629V51.793V51.3828C51.5029 51.0312 51.6266 50.7285 51.8545 50.4746C52.0824 50.2207 52.346 50.0189 52.6455 49.8691C52.945 49.7129 53.2575 49.5957 53.583 49.5176C53.915 49.4395 54.2503 49.4004 54.5889 49.4004ZM64.3838 48.6973C64.4229 48.3066 64.6377 48.0951 65.0283 48.0625C65.2106 48.0625 65.3669 48.1243 65.4971 48.248C65.6338 48.3652 65.7021 48.515 65.7021 48.6973V53.3457C65.6956 53.528 65.6273 53.681 65.4971 53.8047C65.3669 53.9219 65.2106 53.9805 65.0283 53.9805H60.9268C60.3538 53.9609 59.9209 53.8275 59.6279 53.5801C59.335 53.3262 59.1234 53.043 58.9932 52.7305C58.863 52.4115 58.7979 52.0892 58.7979 51.7637C58.7979 51.4251 58.8597 51.0996 58.9834 50.7871C59.1136 50.4681 59.3252 50.1849 59.6182 49.9375C59.9176 49.6836 60.2952 49.5534 60.751 49.5469H63.2119C63.3942 49.5469 63.5472 49.612 63.6709 49.7422C63.8011 49.8659 63.8662 50.0189 63.8662 50.2012C63.8662 50.3835 63.8011 50.5397 63.6709 50.6699C63.5472 50.7936 63.3942 50.8555 63.2119 50.8555H60.7119C60.5882 50.8555 60.4808 50.9076 60.3896 51.0117C60.2985 51.1094 60.2301 51.2266 60.1846 51.3633C60.1455 51.4935 60.126 51.6237 60.126 51.7539C60.126 51.8906 60.1455 52.0273 60.1846 52.1641C60.2301 52.2943 60.2985 52.4115 60.3896 52.5156C60.4808 52.6133 60.5882 52.6654 60.7119 52.6719H64.1299C64.2992 52.6654 64.3838 52.5807 64.3838 52.418V48.6973ZM68.9932 53.9805C68.4202 53.9609 67.9873 53.8275 67.6943 53.5801C67.4014 53.3262 67.1898 53.043 67.0596 52.7305C66.9294 52.4115 66.8643 52.0892 66.8643 51.7637C66.8643 51.4251 66.9261 51.0996 67.0498 50.7871C67.18 50.4681 67.3916 50.1849 67.6846 49.9375C67.984 49.6836 68.3617 49.5534 68.8174 49.5469H72.5283C72.7106 49.5469 72.8636 49.6087 72.9873 49.7324C73.1175 49.8496 73.1826 49.9928 73.1826 50.1621C73.1826 50.3379 73.1175 50.4876 72.9873 50.6113C72.8636 50.7285 72.7106 50.7871 72.5283 50.7871H68.876C68.7327 50.7871 68.6058 50.8359 68.4951 50.9336C68.391 51.0312 68.3128 51.1582 68.2607 51.3145C68.2152 51.4707 68.1924 51.6237 68.1924 51.7734C68.1924 51.9362 68.2152 52.0957 68.2607 52.252C68.3128 52.4082 68.391 52.5352 68.4951 52.6328C68.6058 52.724 68.7327 52.7728 68.876 52.7793H72.5283C72.7106 52.7793 72.8636 52.8379 72.9873 52.9551C73.1175 53.0723 73.1826 53.2122 73.1826 53.375C73.1826 53.5443 73.1175 53.6875 72.9873 53.8047C72.8636 53.9219 72.7106 53.9805 72.5283 53.9805H68.9932ZM73.0654 51.7441C73.0654 51.8678 73.0101 51.9753 72.8994 52.0664C72.8018 52.151 72.6781 52.1934 72.5283 52.1934H69.335C69.1852 52.1934 69.0583 52.151 68.9541 52.0664C68.8499 51.9753 68.7979 51.8678 68.7979 51.7441C68.7979 51.627 68.8499 51.5228 68.9541 51.4316C69.0583 51.347 69.1852 51.3047 69.335 51.3047H72.5283C72.6781 51.3047 72.805 51.3503 72.9092 51.4414C73.0133 51.526 73.0654 51.627 73.0654 51.7441ZM74.5107 50.7773C74.6344 50.4648 74.8428 50.1849 75.1357 49.9375C75.4352 49.6836 75.8128 49.5534 76.2686 49.5469H79.9404C80.1227 49.5469 80.2757 49.612 80.3994 49.7422C80.5296 49.8659 80.5947 50.0189 80.5947 50.2012C80.5947 50.3835 80.5296 50.5397 80.3994 50.6699C80.2757 50.7936 80.1227 50.8555 79.9404 50.8555H76.2295C76.1058 50.8555 75.9984 50.9076 75.9072 51.0117C75.8161 51.1094 75.7445 51.2266 75.6924 51.3633C75.6468 51.5 75.624 51.6302 75.624 51.7539V53.4629C75.585 53.8535 75.3701 54.0651 74.9795 54.0977C74.7972 54.0977 74.6377 54.0391 74.501 53.9219C74.3708 53.7982 74.3057 53.6452 74.3057 53.4629V51.7637H74.3154C74.3154 51.4251 74.3805 51.0964 74.5107 50.7773Z" fill="#72757A"/>
<path d="M21.5078 60.625C21.5807 60.625 21.6432 60.6497 21.6953 60.6992C21.7474 60.7461 21.7747 60.806 21.7773 60.8789V60.9531C21.7747 61.0599 21.7812 61.1589 21.7969 61.25C21.8151 61.3385 21.8568 61.418 21.9219 61.4883C21.987 61.5586 22.069 61.5964 22.168 61.6016H23.2656V60.8867C23.2656 60.8138 23.2917 60.7539 23.3438 60.707C23.3984 60.6576 23.4622 60.6328 23.5352 60.6328C23.6914 60.6458 23.7773 60.7305 23.793 60.8867V61.793C23.793 62.0013 23.7643 62.1979 23.707 62.3828C23.6549 62.5469 23.569 62.6862 23.4492 62.8008C23.332 62.9128 23.1823 62.974 23 62.9844H21.5938C21.5234 62.9818 21.4635 62.957 21.4141 62.9102C21.3672 62.8607 21.3424 62.8008 21.3398 62.7305C21.3398 62.6576 21.3633 62.5951 21.4102 62.543C21.4596 62.4909 21.5208 62.4635 21.5938 62.4609H22.8672C22.9661 62.4557 23.0482 62.418 23.1133 62.3477C23.1732 62.2826 23.2135 62.2083 23.2344 62.125H22.0352C21.8529 62.1146 21.7018 62.0534 21.582 61.9414C21.4648 61.8268 21.3802 61.6875 21.3281 61.5234C21.2786 61.3594 21.2526 61.1849 21.25 61V60.8789C21.2526 60.8086 21.2786 60.75 21.3281 60.7031C21.3776 60.6536 21.4375 60.6276 21.5078 60.625ZM25.1133 62.9922C24.8841 62.9844 24.7109 62.931 24.5938 62.832C24.4766 62.7305 24.3919 62.6172 24.3398 62.4922C24.2878 62.3646 24.2617 62.2357 24.2617 62.1055C24.2617 61.9701 24.2865 61.8398 24.3359 61.7148C24.388 61.5872 24.4727 61.474 24.5898 61.375C24.7096 61.2734 24.8607 61.2214 25.043 61.2188H26.3086C26.4909 61.2214 26.6406 61.2734 26.7578 61.375C26.8776 61.474 26.9622 61.5872 27.0117 61.7148C27.0638 61.8398 27.0898 61.9701 27.0898 62.1055C27.0898 62.2357 27.0638 62.3646 27.0117 62.4922C26.9596 62.6172 26.875 62.7305 26.7578 62.832C26.6406 62.931 26.4674 62.9844 26.2383 62.9922H25.1133ZM25.0273 61.7422C24.9779 61.7422 24.9349 61.763 24.8984 61.8047C24.862 61.8438 24.8346 61.8906 24.8164 61.9453C24.8008 61.9974 24.793 62.0495 24.793 62.1016C24.793 62.1562 24.8008 62.2109 24.8164 62.2656C24.8346 62.3177 24.862 62.3646 24.8984 62.4062C24.9349 62.4453 24.9779 62.4661 25.0273 62.4688H26.3242C26.3737 62.4661 26.4167 62.4453 26.4531 62.4062C26.4896 62.3646 26.5156 62.3177 26.5312 62.2656C26.5495 62.2109 26.5586 62.1562 26.5586 62.1016C26.5586 62.0495 26.5495 61.9974 26.5312 61.9453C26.5156 61.8906 26.4896 61.8438 26.4531 61.8047C26.4167 61.763 26.3737 61.7422 26.3242 61.7422H25.0273ZM28.7852 63.0586C28.6497 63.0586 28.5156 63.043 28.3828 63.0117C28.2526 62.9805 28.1276 62.9349 28.0078 62.875C27.888 62.8125 27.7826 62.7305 27.6914 62.6289C27.6003 62.5273 27.5508 62.4062 27.543 62.2656V62.1016V61.4336C27.543 61.3607 27.569 61.3008 27.6211 61.2539C27.6758 61.2044 27.7396 61.1797 27.8125 61.1797C27.9688 61.1927 28.0534 61.2773 28.0664 61.4336V61.6055V62.1445C28.0716 62.2253 28.1016 62.293 28.1562 62.3477C28.2135 62.3997 28.276 62.4414 28.3438 62.4727C28.4141 62.5039 28.4857 62.5273 28.5586 62.543C28.6341 62.5586 28.7096 62.5664 28.7852 62.5664C28.8607 62.5664 28.9349 62.5586 29.0078 62.543C29.0833 62.5273 29.1549 62.5039 29.2227 62.4727C29.293 62.4414 29.3555 62.3997 29.4102 62.3477C29.4674 62.293 29.4987 62.2253 29.5039 62.1445V61.6055V61.4336C29.5039 61.3607 29.5299 61.3008 29.582 61.2539C29.6367 61.2044 29.7005 61.1797 29.7734 61.1797C29.9297 61.1927 30.0156 61.2773 30.0312 61.4336V62.1016V62.2656C30.0234 62.4062 29.9727 62.5273 29.8789 62.6289C29.7878 62.7305 29.6823 62.8125 29.5625 62.875C29.4427 62.9349 29.3164 62.9805 29.1836 63.0117C29.0534 63.043 28.9206 63.0586 28.7852 63.0586ZM33.3242 62.9922C33.0951 62.9844 32.9219 62.931 32.8047 62.832C32.6875 62.7305 32.6029 62.6172 32.5508 62.4922C32.4987 62.3646 32.4727 62.2357 32.4727 62.1055C32.4727 61.9701 32.4974 61.8398 32.5469 61.7148C32.599 61.5872 32.6836 61.474 32.8008 61.375C32.9206 61.2734 33.0716 61.2214 33.2539 61.2188H34.7383C34.8112 61.2188 34.8724 61.2448 34.9219 61.2969C34.974 61.3464 35 61.4076 35 61.4805C35 61.5534 34.974 61.6159 34.9219 61.668C34.8724 61.7174 34.8112 61.7422 34.7383 61.7422H33.2383C33.1888 61.7422 33.1458 61.763 33.1094 61.8047C33.0729 61.8438 33.0456 61.8906 33.0273 61.9453C33.0117 61.9974 33.0039 62.0495 33.0039 62.1016C33.0039 62.1562 33.0117 62.2109 33.0273 62.2656C33.0456 62.3177 33.0729 62.3646 33.1094 62.4062C33.1458 62.4453 33.1888 62.4661 33.2383 62.4688H34.7383C34.8112 62.4688 34.8724 62.4948 34.9219 62.5469C34.974 62.5964 35 62.6576 35 62.7305C35 62.8034 34.974 62.8646 34.9219 62.9141C34.8724 62.9661 34.8112 62.9922 34.7383 62.9922H33.3242ZM37.5938 62.7852V61.8438C37.5938 61.7786 37.5599 61.7448 37.4922 61.7422H36.125C36.0755 61.7448 36.0326 61.7669 35.9961 61.8086C35.9596 61.8477 35.9323 61.8945 35.9141 61.9492C35.8984 62.0013 35.8906 62.0547 35.8906 62.1094C35.8906 62.1615 35.8984 62.2148 35.9141 62.2695C35.9323 62.3216 35.9596 62.3685 35.9961 62.4102C36.0326 62.4492 36.0755 62.4688 36.125 62.4688H37.125C37.1979 62.4688 37.2591 62.4948 37.3086 62.5469C37.3607 62.5964 37.3867 62.6576 37.3867 62.7305C37.3867 62.8034 37.3607 62.8646 37.3086 62.9141C37.2591 62.9661 37.1979 62.9922 37.125 62.9922H36.1406C35.9583 62.9896 35.8073 62.9388 35.6875 62.8398C35.5703 62.7383 35.4857 62.625 35.4336 62.5C35.3841 62.3724 35.3594 62.2409 35.3594 62.1055C35.3594 61.9753 35.3854 61.8477 35.4375 61.7227C35.4896 61.5951 35.5742 61.4818 35.6914 61.3828C35.8086 61.2812 35.9818 61.2266 36.2109 61.2188H37.8516C37.9245 61.2188 37.987 61.2435 38.0391 61.293C38.0911 61.3398 38.1185 61.3997 38.1211 61.4727V62.7852C38.1211 62.8581 38.0938 62.9193 38.0391 62.9688C37.987 63.0156 37.9245 63.0391 37.8516 63.0391C37.6953 63.026 37.6094 62.9414 37.5938 62.7852ZM39.8711 61.1602C40.0065 61.1602 40.1393 61.1758 40.2695 61.207C40.4023 61.2383 40.5286 61.2852 40.6484 61.3477C40.7682 61.4076 40.8737 61.4883 40.9648 61.5898C41.0586 61.6914 41.1094 61.8125 41.1172 61.9531V62.1172V62.7852C41.1016 62.9414 41.0156 63.026 40.8594 63.0391C40.7865 63.0391 40.7227 63.0156 40.668 62.9688C40.6159 62.9193 40.5898 62.8581 40.5898 62.7852V62.6133V62.0742C40.5846 61.9935 40.5534 61.9271 40.4961 61.875C40.4414 61.8203 40.3789 61.7773 40.3086 61.7461C40.2409 61.7148 40.1693 61.6914 40.0938 61.6758C40.0208 61.6602 39.9466 61.6523 39.8711 61.6523C39.7956 61.6523 39.7201 61.6602 39.6445 61.6758C39.5716 61.6914 39.5 61.7148 39.4297 61.7461C39.362 61.7773 39.2995 61.8203 39.2422 61.875C39.1875 61.9271 39.1576 61.9935 39.1523 62.0742V62.6133V62.7852C39.1393 62.9414 39.0547 63.026 38.8984 63.0391C38.8255 63.0391 38.7617 63.0156 38.707 62.9688C38.6549 62.9193 38.6289 62.8581 38.6289 62.7852V62.1172V61.9531C38.6367 61.8125 38.6862 61.6914 38.7773 61.5898C38.8685 61.4883 38.974 61.4076 39.0938 61.3477C39.2135 61.2852 39.3385 61.2383 39.4688 61.207C39.6016 61.1758 39.7357 61.1602 39.8711 61.1602ZM43.8828 60.625C43.9531 60.6276 44.013 60.6536 44.0625 60.7031C44.112 60.75 44.138 60.8086 44.1406 60.8789V62.793C44.125 62.9492 44.0391 63.0339 43.8828 63.0469C43.8099 63.0469 43.7461 63.0234 43.6914 62.9766C43.6393 62.9271 43.6133 62.8659 43.6133 62.793V60.8789C43.6159 60.806 43.6432 60.7461 43.6953 60.6992C43.7474 60.6497 43.8099 60.625 43.8828 60.625ZM45.4453 62.9922C45.2161 62.9844 45.043 62.931 44.9258 62.832C44.8086 62.7305 44.724 62.6172 44.6719 62.4922C44.6198 62.3646 44.5938 62.2357 44.5938 62.1055C44.5938 61.9701 44.6185 61.8398 44.668 61.7148C44.7201 61.5872 44.8047 61.474 44.9219 61.375C45.0417 61.2734 45.1927 61.2214 45.375 61.2188H46.6406C46.8229 61.2214 46.9727 61.2734 47.0898 61.375C47.2096 61.474 47.2943 61.5872 47.3438 61.7148C47.3958 61.8398 47.4219 61.9701 47.4219 62.1055C47.4219 62.2357 47.3958 62.3646 47.3438 62.4922C47.2917 62.6172 47.207 62.7305 47.0898 62.832C46.9727 62.931 46.7995 62.9844 46.5703 62.9922H45.4453ZM45.3594 61.7422C45.3099 61.7422 45.2669 61.763 45.2305 61.8047C45.194 61.8438 45.1667 61.8906 45.1484 61.9453C45.1328 61.9974 45.125 62.0495 45.125 62.1016C45.125 62.1562 45.1328 62.2109 45.1484 62.2656C45.1667 62.3177 45.194 62.3646 45.2305 62.4062C45.2669 62.4453 45.3099 62.4661 45.3594 62.4688H46.6562C46.7057 62.4661 46.7487 62.4453 46.7852 62.4062C46.8216 62.3646 46.8477 62.3177 46.8633 62.2656C46.8815 62.2109 46.8906 62.1562 46.8906 62.1016C46.8906 62.0495 46.8815 61.9974 46.8633 61.9453C46.8477 61.8906 46.8216 61.8438 46.7852 61.8047C46.7487 61.763 46.7057 61.7422 46.6562 61.7422H45.3594ZM48.6641 62.9922C48.4349 62.9844 48.2617 62.931 48.1445 62.832C48.0273 62.7305 47.9427 62.6172 47.8906 62.4922C47.8385 62.3646 47.8125 62.2357 47.8125 62.1055C47.8125 61.9701 47.8372 61.8398 47.8867 61.7148C47.9388 61.5872 48.0234 61.474 48.1406 61.375C48.2604 61.2734 48.4115 61.2214 48.5938 61.2188H50.0781C50.151 61.2188 50.2122 61.2448 50.2617 61.2969C50.3138 61.3464 50.3398 61.4076 50.3398 61.4805C50.3398 61.5534 50.3138 61.6159 50.2617 61.668C50.2122 61.7174 50.151 61.7422 50.0781 61.7422H48.5781C48.5286 61.7422 48.4857 61.763 48.4492 61.8047C48.4128 61.8438 48.3854 61.8906 48.3672 61.9453C48.3516 61.9974 48.3438 62.0495 48.3438 62.1016C48.3438 62.1562 48.3516 62.2109 48.3672 62.2656C48.3854 62.3177 48.4128 62.3646 48.4492 62.4062C48.4857 62.4453 48.5286 62.4661 48.5781 62.4688H50.0781C50.151 62.4688 50.2122 62.4948 50.2617 62.5469C50.3138 62.5964 50.3398 62.6576 50.3398 62.7305C50.3398 62.8034 50.3138 62.8646 50.2617 62.9141C50.2122 62.9661 50.151 62.9922 50.0781 62.9922H48.6641ZM51.0195 60.625C51.0898 60.6276 51.1497 60.6536 51.1992 60.7031C51.2487 60.75 51.2747 60.8086 51.2773 60.8789V62.793C51.2617 62.9492 51.1758 63.0339 51.0195 63.0469C50.9466 63.0469 50.8828 63.0234 50.8281 62.9766C50.776 62.9271 50.75 62.8659 50.75 62.793V60.8789C50.7526 60.806 50.7799 60.7461 50.832 60.6992C50.8841 60.6497 50.9466 60.625 51.0195 60.625ZM51.5156 61.7148C51.5911 61.5924 51.7357 61.5026 51.9492 61.4453L52.9531 61.1758C53.0234 61.1549 53.0898 61.1615 53.1523 61.1953C53.2174 61.2266 53.2604 61.2773 53.2812 61.3477C53.3047 61.4154 53.2995 61.4818 53.2656 61.5469C53.2344 61.6094 53.1836 61.6523 53.1133 61.6758L52.043 61.9531C51.9674 61.9818 51.931 62.0312 51.9336 62.1016C51.931 62.1719 51.9674 62.2214 52.043 62.25L53.1133 62.5273C53.1836 62.5508 53.2344 62.5951 53.2656 62.6602C53.2995 62.7227 53.3047 62.7878 53.2812 62.8555C53.2604 62.9258 53.2174 62.9766 53.1523 63.0078C53.0898 63.0417 53.0234 63.0482 52.9531 63.0273L51.9492 62.7578C51.7331 62.6979 51.5872 62.6068 51.5117 62.4844C51.4388 62.362 51.4023 62.2344 51.4023 62.1016C51.4023 61.9688 51.4401 61.8398 51.5156 61.7148ZM56.5508 60.625C56.6237 60.625 56.6862 60.6497 56.7383 60.6992C56.7904 60.7461 56.8177 60.806 56.8203 60.8789V61.2188H58.1484C58.2214 61.2188 58.2839 61.2435 58.3359 61.293C58.3854 61.3451 58.4102 61.4076 58.4102 61.4805C58.4102 61.5534 58.3841 61.6159 58.332 61.668C58.2826 61.7174 58.2214 61.7422 58.1484 61.7422H56.8203V61.8203C56.8177 61.9271 56.8242 62.026 56.8398 62.1172C56.8581 62.2057 56.8997 62.2852 56.9648 62.3555C57.0299 62.4258 57.112 62.4635 57.2109 62.4688H58.1641C58.237 62.4714 58.2969 62.4987 58.3438 62.5508C58.3932 62.6029 58.418 62.6654 58.418 62.7383C58.4154 62.8086 58.3893 62.8685 58.3398 62.918C58.293 62.9648 58.2344 62.9896 58.1641 62.9922H57.0781C56.8958 62.9818 56.7448 62.9206 56.625 62.8086C56.5078 62.694 56.4232 62.5547 56.3711 62.3906C56.3216 62.2266 56.2956 62.0521 56.293 61.8672V61.7422H55.8438C55.7708 61.7422 55.7096 61.7161 55.6602 61.6641C55.6081 61.6146 55.582 61.5534 55.582 61.4805C55.582 61.4076 55.6068 61.3464 55.6562 61.2969C55.7083 61.2448 55.7708 61.2188 55.8438 61.2188H56.293V60.8789C56.2956 60.8086 56.3216 60.75 56.3711 60.7031C56.4206 60.6536 56.4805 60.6276 56.5508 60.625ZM59.0625 60.625C59.1328 60.6276 59.1927 60.6536 59.2422 60.7031C59.2917 60.75 59.3177 60.8086 59.3203 60.8789V61.2188H60.5312C60.7135 61.2214 60.8633 61.2734 60.9805 61.375C61.1003 61.474 61.1849 61.5859 61.2344 61.7109C61.2865 61.8385 61.3125 61.9701 61.3125 62.1055H61.3164V62.7852C61.3164 62.8581 61.2891 62.9193 61.2344 62.9688C61.1823 63.0156 61.1198 63.0391 61.0469 63.0391C60.8906 63.026 60.8047 62.9414 60.7891 62.7852V62.1016C60.7891 62.0521 60.7786 62 60.7578 61.9453C60.7396 61.8906 60.7122 61.8438 60.6758 61.8047C60.6393 61.763 60.5964 61.7422 60.5469 61.7422H59.3203V62.793C59.3047 62.9492 59.2188 63.0339 59.0625 63.0469C58.9896 63.0469 58.9258 63.0234 58.8711 62.9766C58.819 62.9271 58.793 62.8659 58.793 62.793V60.8789C58.7956 60.806 58.8229 60.7461 58.875 60.6992C58.9271 60.6497 58.9896 60.625 59.0625 60.625ZM62.0781 61.1797C62.1484 61.1823 62.2083 61.2083 62.2578 61.2578C62.3073 61.3047 62.3333 61.3633 62.3359 61.4336V62.7852C62.3203 62.9414 62.2344 63.026 62.0781 63.0391C62.0052 63.0391 61.9414 63.0156 61.8867 62.9688C61.8346 62.9193 61.8086 62.8581 61.8086 62.7852V61.4336C61.8112 61.3607 61.8385 61.3008 61.8906 61.2539C61.9427 61.2044 62.0052 61.1797 62.0781 61.1797ZM61.75 60.6719C61.75 60.599 61.7812 60.5365 61.8438 60.4844C61.9062 60.4323 61.9818 60.4062 62.0703 60.4062C62.1589 60.4062 62.2344 60.4323 62.2969 60.4844C62.3594 60.5365 62.3906 60.599 62.3906 60.6719C62.3906 60.7474 62.3594 60.8112 62.2969 60.8633C62.2344 60.9154 62.1589 60.9414 62.0703 60.9414C61.9818 60.9414 61.9062 60.9154 61.8438 60.8633C61.7812 60.8112 61.75 60.7474 61.75 60.6719ZM65.293 61.4453C65.293 61.5104 65.2669 61.5651 65.2148 61.6094C65.1654 61.651 65.1042 61.6719 65.0312 61.6719H63.3789C63.3451 61.6719 63.3177 61.6784 63.2969 61.6914C63.276 61.7044 63.2604 61.7188 63.25 61.7344C63.2396 61.7474 63.2344 61.7591 63.2344 61.7695C63.2344 61.7826 63.2396 61.7969 63.25 61.8125C63.2604 61.8255 63.276 61.8385 63.2969 61.8516C63.3177 61.862 63.3451 61.8685 63.3789 61.8711H64.6562C64.8203 61.8737 64.9557 61.9062 65.0625 61.9688C65.1693 62.0286 65.2448 62.1003 65.2891 62.1836C65.3359 62.2643 65.3594 62.3464 65.3594 62.4297C65.3594 62.5104 65.3359 62.5924 65.2891 62.6758C65.2422 62.7565 65.1654 62.8281 65.0586 62.8906C64.9544 62.9505 64.8203 62.9805 64.6562 62.9805C64.6276 62.9831 64.6068 62.9844 64.5938 62.9844H63.0781C63.0052 62.9844 62.9427 62.9635 62.8906 62.9219C62.8411 62.8776 62.8164 62.8242 62.8164 62.7617C62.8164 62.6966 62.8424 62.6419 62.8945 62.5977C62.944 62.556 63.0052 62.5352 63.0781 62.5352H64.6875C64.7266 62.5378 64.7578 62.5326 64.7812 62.5195C64.8073 62.5065 64.8268 62.4922 64.8398 62.4766C64.8529 62.4609 64.8594 62.4453 64.8594 62.4297C64.8594 62.4219 64.8529 62.4089 64.8398 62.3906C64.8268 62.3698 64.8073 62.3542 64.7812 62.3438C64.7578 62.3307 64.7266 62.3229 64.6875 62.3203H63.4062C63.2552 62.3177 63.1302 62.2865 63.0312 62.2266C62.9323 62.1641 62.862 62.0924 62.8203 62.0117C62.7786 61.931 62.7578 61.8503 62.7578 61.7695C62.7578 61.6888 62.7786 61.6094 62.8203 61.5312C62.8646 61.4505 62.9349 61.3815 63.0312 61.3242C63.1302 61.2643 63.2552 61.2318 63.4062 61.2266C63.4323 61.224 63.4518 61.2227 63.4648 61.2227H65.0312C65.1042 61.2227 65.1654 61.2448 65.2148 61.2891C65.2669 61.3307 65.293 61.3828 65.293 61.4453ZM68.3203 60.8789V62.3672C68.3203 62.4323 68.3542 62.4661 68.4219 62.4688H69.7891C69.8385 62.4661 69.8815 62.4453 69.918 62.4062C69.9544 62.3646 69.9805 62.3177 69.9961 62.2656C70.0143 62.2109 70.0234 62.1562 70.0234 62.1016C70.0234 62.0495 70.0143 61.9974 69.9961 61.9453C69.9805 61.8906 69.9544 61.8438 69.918 61.8047C69.8815 61.763 69.8385 61.7422 69.7891 61.7422H68.7891C68.7161 61.7422 68.6536 61.7174 68.6016 61.668C68.5521 61.6159 68.5273 61.5534 68.5273 61.4805C68.5273 61.4076 68.5534 61.3464 68.6055 61.2969C68.6549 61.2448 68.7161 61.2188 68.7891 61.2188H69.7734C69.9557 61.2214 70.1055 61.2734 70.2227 61.375C70.3424 61.474 70.4271 61.5872 70.4766 61.7148C70.5286 61.8398 70.5547 61.9701 70.5547 62.1055C70.5547 62.2357 70.5286 62.3646 70.4766 62.4922C70.4245 62.6172 70.3398 62.7305 70.2227 62.832C70.1055 62.931 69.9323 62.9844 69.7031 62.9922H68.0625C67.9896 62.9922 67.9271 62.9688 67.875 62.9219C67.8229 62.8724 67.7956 62.8112 67.793 62.7383V60.8789C67.793 60.806 67.819 60.7461 67.8711 60.6992C67.9258 60.6497 67.9896 60.625 68.0625 60.625C68.2188 60.638 68.3047 60.7227 68.3203 60.8789ZM71.2383 61.1719C71.3112 61.1719 71.3737 61.1966 71.4258 61.2461C71.4779 61.293 71.5052 61.3529 71.5078 61.4258V61.8203C71.5052 61.9271 71.5117 62.026 71.5273 62.1172C71.5456 62.2057 71.5872 62.2852 71.6523 62.3555C71.7174 62.4258 71.7995 62.4635 71.8984 62.4688H72.9414V61.4336C72.9414 61.3607 72.9674 61.3008 73.0195 61.2539C73.0742 61.2044 73.138 61.1797 73.2109 61.1797C73.3672 61.1927 73.4531 61.2773 73.4688 61.4336V62.707C73.4688 62.9154 73.4401 63.112 73.3828 63.2969C73.3307 63.4609 73.2448 63.599 73.125 63.7109C73.0078 63.8255 72.8581 63.888 72.6758 63.8984H71.3242C71.2539 63.8958 71.194 63.8698 71.1445 63.8203C71.0977 63.7734 71.0729 63.7148 71.0703 63.6445C71.0703 63.5716 71.0938 63.5091 71.1406 63.457C71.1901 63.4049 71.2513 63.3776 71.3242 63.375H72.543C72.6419 63.3698 72.724 63.332 72.7891 63.2617C72.8542 63.1914 72.8958 63.1094 72.9141 63.0156C72.9167 63.0078 72.918 63 72.918 62.9922H71.7656C71.5833 62.9818 71.4323 62.9206 71.3125 62.8086C71.1953 62.694 71.1107 62.5547 71.0586 62.3906C71.0091 62.2266 70.9831 62.0521 70.9805 61.8672V61.4258C70.9831 61.3555 71.0091 61.2969 71.0586 61.25C71.1081 61.2005 71.168 61.1745 71.2383 61.1719ZM22.0742 67.043C21.9857 67.043 21.8971 67.0273 21.8086 66.9961C21.7227 66.9648 21.6393 66.9193 21.5586 66.8594C21.4779 66.7969 21.4076 66.7148 21.3477 66.6133C21.2878 66.5117 21.2552 66.3906 21.25 66.25V65.418C21.25 65.3451 21.276 65.2852 21.3281 65.2383C21.3828 65.1888 21.4466 65.1641 21.5195 65.1641C21.6758 65.1771 21.7604 65.2617 21.7734 65.418V66.2188C21.776 66.2812 21.7891 66.3346 21.8125 66.3789C21.8359 66.4206 21.862 66.4544 21.8906 66.4805C21.9193 66.5039 21.9479 66.5221 21.9766 66.5352C22.0078 66.5456 22.0391 66.5508 22.0703 66.5508C22.1016 66.5508 22.1328 66.5456 22.1641 66.5352C22.1953 66.5221 22.2253 66.5039 22.2539 66.4805C22.2826 66.4544 22.3086 66.4206 22.332 66.3789C22.3555 66.3346 22.3672 66.2812 22.3672 66.2188V65.418C22.3672 65.3451 22.3932 65.2852 22.4453 65.2383C22.5 65.1888 22.5638 65.1641 22.6367 65.1641C22.793 65.1771 22.8789 65.2617 22.8945 65.418V66.2188C22.8971 66.2812 22.9102 66.3333 22.9336 66.375C22.957 66.4193 22.9831 66.4544 23.0117 66.4805C23.0404 66.5039 23.069 66.5221 23.0977 66.5352C23.1289 66.5456 23.1602 66.5508 23.1914 66.5508C23.2227 66.5508 23.2539 66.5456 23.2852 66.5352C23.3164 66.5221 23.3464 66.5039 23.375 66.4805C23.4036 66.4544 23.4297 66.4206 23.4531 66.3789C23.4766 66.3346 23.4883 66.2812 23.4883 66.2188V65.418C23.4883 65.3451 23.5143 65.2852 23.5664 65.2383C23.6211 65.1888 23.6849 65.1641 23.7578 65.1641C23.9141 65.1771 24 65.2617 24.0156 65.418V66.25C24.0156 66.3906 23.9844 66.5117 23.9219 66.6133C23.862 66.7148 23.7917 66.7969 23.7109 66.8594C23.6328 66.9193 23.5495 66.9648 23.4609 66.9961C23.375 67.0273 23.2865 67.043 23.1953 67.043C23.1068 67.043 23.0182 67.0273 22.9297 66.9961C22.8438 66.9648 22.7604 66.918 22.6797 66.8555C22.6641 66.8451 22.6497 66.8333 22.6367 66.8203C22.6211 66.8333 22.6068 66.8451 22.5938 66.8555C22.513 66.918 22.4284 66.9648 22.3398 66.9961C22.2539 67.0273 22.1654 67.043 22.0742 67.043ZM24.8008 65.1797C24.8711 65.1823 24.931 65.2083 24.9805 65.2578C25.0299 65.3047 25.056 65.3633 25.0586 65.4336V66.7852C25.043 66.9414 24.957 67.026 24.8008 67.0391C24.7279 67.0391 24.6641 67.0156 24.6094 66.9688C24.5573 66.9193 24.5312 66.8581 24.5312 66.7852V65.4336C24.5339 65.3607 24.5612 65.3008 24.6133 65.2539C24.6654 65.2044 24.7279 65.1797 24.8008 65.1797ZM24.4727 64.6719C24.4727 64.599 24.5039 64.5365 24.5664 64.4844C24.6289 64.4323 24.7044 64.4062 24.793 64.4062C24.8815 64.4062 24.957 64.4323 25.0195 64.4844C25.082 64.5365 25.1133 64.599 25.1133 64.6719C25.1133 64.7474 25.082 64.8112 25.0195 64.8633C24.957 64.9154 24.8815 64.9414 24.793 64.9414C24.7044 64.9414 24.6289 64.9154 24.5664 64.8633C24.5039 64.8112 24.4727 64.7474 24.4727 64.6719ZM26.7812 65.1602C26.9167 65.1602 27.0495 65.1758 27.1797 65.207C27.3125 65.2383 27.4388 65.2852 27.5586 65.3477C27.6784 65.4076 27.7839 65.4883 27.875 65.5898C27.9688 65.6914 28.0195 65.8125 28.0273 65.9531V66.1172V66.7852C28.0117 66.9414 27.9258 67.026 27.7695 67.0391C27.6966 67.0391 27.6328 67.0156 27.5781 66.9688C27.526 66.9193 27.5 66.8581 27.5 66.7852V66.6133V66.0742C27.4948 65.9935 27.4635 65.9271 27.4062 65.875C27.3516 65.8203 27.2891 65.7773 27.2188 65.7461C27.151 65.7148 27.0794 65.6914 27.0039 65.6758C26.931 65.6602 26.8568 65.6523 26.7812 65.6523C26.7057 65.6523 26.6302 65.6602 26.5547 65.6758C26.4818 65.6914 26.4102 65.7148 26.3398 65.7461C26.2721 65.7773 26.2096 65.8203 26.1523 65.875C26.0977 65.9271 26.0677 65.9935 26.0625 66.0742V66.6133V66.7852C26.0495 66.9414 25.9648 67.026 25.8086 67.0391C25.7357 67.0391 25.6719 67.0156 25.6172 66.9688C25.5651 66.9193 25.5391 66.8581 25.5391 66.7852V66.1172V65.9531C25.5469 65.8125 25.5964 65.6914 25.6875 65.5898C25.7786 65.4883 25.8841 65.4076 26.0039 65.3477C26.1237 65.2852 26.2487 65.2383 26.3789 65.207C26.5117 65.1758 26.6458 65.1602 26.7812 65.1602ZM28.793 65.1797C28.8633 65.1823 28.9232 65.2083 28.9727 65.2578C29.0221 65.3047 29.0482 65.3633 29.0508 65.4336V66.7852C29.0352 66.9414 28.9492 67.026 28.793 67.0391C28.7201 67.0391 28.6562 67.0156 28.6016 66.9688C28.5495 66.9193 28.5234 66.8581 28.5234 66.7852V65.4336C28.526 65.3607 28.5534 65.3008 28.6055 65.2539C28.6576 65.2044 28.7201 65.1797 28.793 65.1797ZM28.4648 64.6719C28.4648 64.599 28.4961 64.5365 28.5586 64.4844C28.6211 64.4323 28.6966 64.4062 28.7852 64.4062C28.8737 64.4062 28.9492 64.4323 29.0117 64.4844C29.0742 64.5365 29.1055 64.599 29.1055 64.6719C29.1055 64.7474 29.0742 64.8112 29.0117 64.8633C28.9492 64.9154 28.8737 64.9414 28.7852 64.9414C28.6966 64.9414 28.6211 64.9154 28.5586 64.8633C28.4961 64.8112 28.4648 64.7474 28.4648 64.6719ZM30.7734 65.1602C30.9089 65.1602 31.0417 65.1758 31.1719 65.207C31.3047 65.2383 31.431 65.2852 31.5508 65.3477C31.6706 65.4076 31.776 65.4883 31.8672 65.5898C31.9609 65.6914 32.0117 65.8125 32.0195 65.9531V66.1172V66.7852C32.0039 66.9414 31.918 67.026 31.7617 67.0391C31.6888 67.0391 31.625 67.0156 31.5703 66.9688C31.5182 66.9193 31.4922 66.8581 31.4922 66.7852V66.6133V66.0742C31.487 65.9935 31.4557 65.9271 31.3984 65.875C31.3438 65.8203 31.2812 65.7773 31.2109 65.7461C31.1432 65.7148 31.0716 65.6914 30.9961 65.6758C30.9232 65.6602 30.849 65.6523 30.7734 65.6523C30.6979 65.6523 30.6224 65.6602 30.5469 65.6758C30.474 65.6914 30.4023 65.7148 30.332 65.7461C30.2643 65.7773 30.2018 65.8203 30.1445 65.875C30.0898 65.9271 30.0599 65.9935 30.0547 66.0742V66.6133V66.7852C30.0417 66.9414 29.957 67.026 29.8008 67.0391C29.7279 67.0391 29.6641 67.0156 29.6094 66.9688C29.5573 66.9193 29.5312 66.8581 29.5312 66.7852V66.1172V65.9531C29.5391 65.8125 29.5885 65.6914 29.6797 65.5898C29.7708 65.4883 29.8763 65.4076 29.9961 65.3477C30.1159 65.2852 30.2409 65.2383 30.3711 65.207C30.5039 65.1758 30.638 65.1602 30.7734 65.1602ZM34.707 65.8438C34.707 65.7786 34.6732 65.7448 34.6055 65.7422H33.2383C33.1888 65.7448 33.1458 65.7669 33.1094 65.8086C33.0729 65.8477 33.0456 65.8945 33.0273 65.9492C33.0117 66.0013 33.0039 66.0547 33.0039 66.1094C33.0039 66.1615 33.0117 66.2148 33.0273 66.2695C33.0456 66.3216 33.0729 66.3685 33.1094 66.4102C33.1458 66.4492 33.1888 66.4688 33.2383 66.4688H34.2383C34.3112 66.4688 34.3724 66.4948 34.4219 66.5469C34.474 66.5964 34.5 66.6576 34.5 66.7305C34.5 66.8034 34.474 66.8646 34.4219 66.9141C34.3724 66.9661 34.3112 66.9922 34.2383 66.9922H33.2539C33.0716 66.9896 32.9206 66.9388 32.8008 66.8398C32.6836 66.7383 32.599 66.625 32.5469 66.5C32.4974 66.3724 32.4727 66.2409 32.4727 66.1055C32.4727 65.9753 32.4987 65.8477 32.5508 65.7227C32.6029 65.5951 32.6875 65.4818 32.8047 65.3828C32.9219 65.2812 33.0951 65.2266 33.3242 65.2188H34.9648C35.0378 65.2188 35.1003 65.2435 35.1523 65.293C35.2044 65.3398 35.2318 65.3997 35.2344 65.4727V66.707C35.2344 66.9154 35.2057 67.112 35.1484 67.2969C35.0964 67.4609 35.0104 67.599 34.8906 67.7109C34.7734 67.8255 34.6237 67.888 34.4414 67.8984H33.0898C33.0195 67.8958 32.9596 67.8698 32.9102 67.8203C32.8633 67.7734 32.8385 67.7148 32.8359 67.6445C32.8359 67.5716 32.8594 67.5091 32.9062 67.457C32.9557 67.4049 33.0169 67.3776 33.0898 67.375H34.3086C34.4076 67.3698 34.4896 67.332 34.5547 67.2617C34.6198 67.1914 34.6615 67.1094 34.6797 67.0156C34.6979 66.9219 34.707 66.8008 34.707 66.6523V65.8438ZM38.0312 65.1797C38.1016 65.1823 38.1615 65.2083 38.2109 65.2578C38.2604 65.3047 38.2865 65.3633 38.2891 65.4336V66.7852C38.2734 66.9414 38.1875 67.026 38.0312 67.0391C37.9583 67.0391 37.8945 67.0156 37.8398 66.9688C37.7878 66.9193 37.7617 66.8581 37.7617 66.7852V65.4336C37.7643 65.3607 37.7917 65.3008 37.8438 65.2539C37.8958 65.2044 37.9583 65.1797 38.0312 65.1797ZM37.7031 64.6719C37.7031 64.599 37.7344 64.5365 37.7969 64.4844C37.8594 64.4323 37.9349 64.4062 38.0234 64.4062C38.112 64.4062 38.1875 64.4323 38.25 64.4844C38.3125 64.5365 38.3438 64.599 38.3438 64.6719C38.3438 64.7474 38.3125 64.8112 38.25 64.8633C38.1875 64.9154 38.112 64.9414 38.0234 64.9414C37.9349 64.9414 37.8594 64.9154 37.7969 64.8633C37.7344 64.8112 37.7031 64.7474 37.7031 64.6719ZM40.0117 65.1602C40.1471 65.1602 40.2799 65.1758 40.4102 65.207C40.543 65.2383 40.6693 65.2852 40.7891 65.3477C40.9089 65.4076 41.0143 65.4883 41.1055 65.5898C41.1992 65.6914 41.25 65.8125 41.2578 65.9531V66.1172V66.7852C41.2422 66.9414 41.1562 67.026 41 67.0391C40.9271 67.0391 40.8633 67.0156 40.8086 66.9688C40.7565 66.9193 40.7305 66.8581 40.7305 66.7852V66.6133V66.0742C40.7253 65.9935 40.694 65.9271 40.6367 65.875C40.582 65.8203 40.5195 65.7773 40.4492 65.7461C40.3815 65.7148 40.3099 65.6914 40.2344 65.6758C40.1615 65.6602 40.0872 65.6523 40.0117 65.6523C39.9362 65.6523 39.8607 65.6602 39.7852 65.6758C39.7122 65.6914 39.6406 65.7148 39.5703 65.7461C39.5026 65.7773 39.4401 65.8203 39.3828 65.875C39.3281 65.9271 39.2982 65.9935 39.293 66.0742V66.6133V66.7852C39.2799 66.9414 39.1953 67.026 39.0391 67.0391C38.9661 67.0391 38.9023 67.0156 38.8477 66.9688C38.7956 66.9193 38.7695 66.8581 38.7695 66.7852V66.1172V65.9531C38.7773 65.8125 38.8268 65.6914 38.918 65.5898C39.0091 65.4883 39.1146 65.4076 39.2344 65.3477C39.3542 65.2852 39.4792 65.2383 39.6094 65.207C39.7422 65.1758 39.8763 65.1602 40.0117 65.1602ZM44.0586 65.668C44.0143 65.6107 43.9961 65.5469 44.0039 65.4766C44.0143 65.4062 44.0482 65.3477 44.1055 65.3008L44.875 64.7031C44.9323 64.651 44.9974 64.625 45.0703 64.625C45.1406 64.6276 45.2005 64.6536 45.25 64.7031C45.2995 64.75 45.3255 64.8086 45.3281 64.8789V66.793C45.3125 66.9492 45.2266 67.0339 45.0703 67.0469C44.9974 67.0469 44.9336 67.0234 44.8789 66.9766C44.8268 66.9271 44.8008 66.8659 44.8008 66.793V65.4258L44.4258 65.7148C44.3685 65.7591 44.3047 65.776 44.2344 65.7656C44.1615 65.7578 44.1029 65.7253 44.0586 65.668ZM51.0703 65.8438C51.0703 65.7786 51.0365 65.7448 50.9688 65.7422H49.6016C49.5521 65.7448 49.5091 65.7669 49.4727 65.8086C49.4362 65.8477 49.4089 65.8945 49.3906 65.9492C49.375 66.0013 49.3672 66.0547 49.3672 66.1094C49.3672 66.1615 49.375 66.2148 49.3906 66.2695C49.4089 66.3216 49.4362 66.3685 49.4727 66.4102C49.5091 66.4492 49.5521 66.4688 49.6016 66.4688H50.6016C50.6745 66.4688 50.7357 66.4948 50.7852 66.5469C50.8372 66.5964 50.8633 66.6576 50.8633 66.7305C50.8633 66.8034 50.8372 66.8646 50.7852 66.9141C50.7357 66.9661 50.6745 66.9922 50.6016 66.9922H49.6172C49.4349 66.9896 49.2839 66.9388 49.1641 66.8398C49.0469 66.7383 48.9622 66.625 48.9102 66.5C48.8607 66.3724 48.8359 66.2409 48.8359 66.1055C48.8359 65.9753 48.862 65.8477 48.9141 65.7227C48.9661 65.5951 49.0508 65.4818 49.168 65.3828C49.2852 65.2812 49.4583 65.2266 49.6875 65.2188H51.3281C51.401 65.2188 51.4635 65.2435 51.5156 65.293C51.5677 65.3398 51.5951 65.3997 51.5977 65.4727V66.707C51.5977 66.9154 51.569 67.112 51.5117 67.2969C51.4596 67.4609 51.3737 67.599 51.2539 67.7109C51.1367 67.8255 50.987 67.888 50.8047 67.8984H49.4531C49.3828 67.8958 49.3229 67.8698 49.2734 67.8203C49.2266 67.7734 49.2018 67.7148 49.1992 67.6445C49.1992 67.5716 49.2227 67.5091 49.2695 67.457C49.319 67.4049 49.3802 67.3776 49.4531 67.375H50.6719C50.7708 67.3698 50.8529 67.332 50.918 67.2617C50.9831 67.1914 51.0247 67.1094 51.043 67.0156C51.0612 66.9219 51.0703 66.8008 51.0703 66.6523V65.8438ZM54.3086 66.7852V65.8438C54.3086 65.7786 54.2747 65.7448 54.207 65.7422H52.8398C52.7904 65.7448 52.7474 65.7669 52.7109 65.8086C52.6745 65.8477 52.6471 65.8945 52.6289 65.9492C52.6133 66.0013 52.6055 66.0547 52.6055 66.1094C52.6055 66.1615 52.6133 66.2148 52.6289 66.2695C52.6471 66.3216 52.6745 66.3685 52.7109 66.4102C52.7474 66.4492 52.7904 66.4688 52.8398 66.4688H53.8398C53.9128 66.4688 53.974 66.4948 54.0234 66.5469C54.0755 66.5964 54.1016 66.6576 54.1016 66.7305C54.1016 66.8034 54.0755 66.8646 54.0234 66.9141C53.974 66.9661 53.9128 66.9922 53.8398 66.9922H52.8555C52.6732 66.9896 52.5221 66.9388 52.4023 66.8398C52.2852 66.7383 52.2005 66.625 52.1484 66.5C52.099 66.3724 52.0742 66.2409 52.0742 66.1055C52.0742 65.9753 52.1003 65.8477 52.1523 65.7227C52.2044 65.5951 52.2891 65.4818 52.4062 65.3828C52.5234 65.2812 52.6966 65.2266 52.9258 65.2188H54.5664C54.6393 65.2188 54.7018 65.2435 54.7539 65.293C54.806 65.3398 54.8333 65.3997 54.8359 65.4727V66.7852C54.8359 66.8581 54.8086 66.9193 54.7539 66.9688C54.7018 67.0156 54.6393 67.0391 54.5664 67.0391C54.4102 67.026 54.3242 66.9414 54.3086 66.7852ZM56.168 65.1602C56.2591 65.1602 56.3477 65.1758 56.4336 65.207C56.5221 65.2383 56.6068 65.2839 56.6875 65.3438C56.7005 65.3568 56.7148 65.3698 56.7305 65.3828C56.7435 65.3698 56.7578 65.3568 56.7734 65.3438C56.8542 65.2839 56.9375 65.2383 57.0234 65.207C57.112 65.1758 57.2005 65.1602 57.2891 65.1602C57.3802 65.1602 57.4688 65.1758 57.5547 65.207C57.6432 65.2383 57.7266 65.2852 57.8047 65.3477C57.8854 65.4076 57.9557 65.4883 58.0156 65.5898C58.0781 65.6914 58.1094 65.8125 58.1094 65.9531V66.7852C58.0938 66.9414 58.0078 67.026 57.8516 67.0391C57.7786 67.0391 57.7148 67.0156 57.6602 66.9688C57.6081 66.9193 57.582 66.8581 57.582 66.7852V65.9844C57.582 65.9219 57.5703 65.8698 57.5469 65.8281C57.5234 65.7839 57.4974 65.75 57.4688 65.7266C57.4401 65.7005 57.4102 65.6823 57.3789 65.6719C57.3477 65.6589 57.3164 65.6523 57.2852 65.6523C57.2539 65.6523 57.2227 65.6589 57.1914 65.6719C57.1628 65.6823 57.1341 65.7005 57.1055 65.7266C57.0768 65.75 57.0508 65.7839 57.0273 65.8281C57.0039 65.8698 56.9909 65.9219 56.9883 65.9844V66.7852C56.9727 66.9414 56.8867 67.026 56.7305 67.0391C56.6576 67.0391 56.5938 67.0156 56.5391 66.9688C56.487 66.9193 56.4609 66.8581 56.4609 66.7852V65.9844C56.4609 65.9219 56.4492 65.8698 56.4258 65.8281C56.4023 65.7839 56.3763 65.75 56.3477 65.7266C56.319 65.7005 56.2891 65.6823 56.2578 65.6719C56.2266 65.6589 56.1953 65.6523 56.1641 65.6523C56.1328 65.6523 56.1016 65.6589 56.0703 65.6719C56.0417 65.6823 56.013 65.7005 55.9844 65.7266C55.9557 65.75 55.9297 65.7839 55.9062 65.8281C55.8828 65.8698 55.8698 65.9219 55.8672 65.9844V66.7852C55.8542 66.9414 55.7695 67.026 55.6133 67.0391C55.5404 67.0391 55.4766 67.0156 55.4219 66.9688C55.3698 66.9193 55.3438 66.8581 55.3438 66.7852V65.9531C55.349 65.8125 55.3815 65.6914 55.4414 65.5898C55.5013 65.4883 55.5716 65.4076 55.6523 65.3477C55.7331 65.2852 55.8164 65.2383 55.9023 65.207C55.9909 65.1758 56.0794 65.1602 56.168 65.1602ZM59.3945 66.9922C59.1654 66.9844 58.9922 66.931 58.875 66.832C58.7578 66.7305 58.6732 66.6172 58.6211 66.4922C58.569 66.3646 58.543 66.2357 58.543 66.1055C58.543 65.9701 58.5677 65.8398 58.6172 65.7148C58.6693 65.5872 58.7539 65.474 58.8711 65.375C58.9909 65.2734 59.1419 65.2214 59.3242 65.2188H60.8086C60.8815 65.2188 60.9427 65.2435 60.9922 65.293C61.0443 65.3398 61.0703 65.3971 61.0703 65.4648C61.0703 65.5352 61.0443 65.5951 60.9922 65.6445C60.9427 65.6914 60.8815 65.7148 60.8086 65.7148H59.3477C59.2904 65.7148 59.2396 65.7344 59.1953 65.7734C59.1536 65.8125 59.1224 65.8633 59.1016 65.9258C59.0833 65.9883 59.0742 66.0495 59.0742 66.1094C59.0742 66.1745 59.0833 66.2383 59.1016 66.3008C59.1224 66.3633 59.1536 66.4141 59.1953 66.4531C59.2396 66.4896 59.2904 66.5091 59.3477 66.5117H60.8086C60.8815 66.5117 60.9427 66.5352 60.9922 66.582C61.0443 66.6289 61.0703 66.6849 61.0703 66.75C61.0703 66.8177 61.0443 66.875 60.9922 66.9219C60.9427 66.9688 60.8815 66.9922 60.8086 66.9922H59.3945ZM61.0234 66.0977C61.0234 66.1471 61.0013 66.1901 60.957 66.2266C60.918 66.2604 60.8685 66.2773 60.8086 66.2773H59.5312C59.4714 66.2773 59.4206 66.2604 59.3789 66.2266C59.3372 66.1901 59.3164 66.1471 59.3164 66.0977C59.3164 66.0508 59.3372 66.0091 59.3789 65.9727C59.4206 65.9388 59.4714 65.9219 59.5312 65.9219H60.8086C60.8685 65.9219 60.9193 65.9401 60.9609 65.9766C61.0026 66.0104 61.0234 66.0508 61.0234 66.0977ZM63.7891 65.1797C63.8594 65.1823 63.9193 65.2083 63.9688 65.2578C64.0182 65.3047 64.0443 65.3633 64.0469 65.4336V66.7852C64.0312 66.9414 63.9453 67.026 63.7891 67.0391C63.7161 67.0391 63.6523 67.0156 63.5977 66.9688C63.5456 66.9193 63.5195 66.8581 63.5195 66.7852V65.4336C63.5221 65.3607 63.5495 65.3008 63.6016 65.2539C63.6536 65.2044 63.7161 65.1797 63.7891 65.1797ZM63.4609 64.6719C63.4609 64.599 63.4922 64.5365 63.5547 64.4844C63.6172 64.4323 63.6927 64.4062 63.7812 64.4062C63.8698 64.4062 63.9453 64.4323 64.0078 64.4844C64.0703 64.5365 64.1016 64.599 64.1016 64.6719C64.1016 64.7474 64.0703 64.8112 64.0078 64.8633C63.9453 64.9154 63.8698 64.9414 63.7812 64.9414C63.6927 64.9414 63.6172 64.9154 63.5547 64.8633C63.4922 64.8112 63.4609 64.7474 63.4609 64.6719ZM65.7695 65.1602C65.9049 65.1602 66.0378 65.1758 66.168 65.207C66.3008 65.2383 66.4271 65.2852 66.5469 65.3477C66.6667 65.4076 66.7721 65.4883 66.8633 65.5898C66.957 65.6914 67.0078 65.8125 67.0156 65.9531V66.1172V66.7852C67 66.9414 66.9141 67.026 66.7578 67.0391C66.6849 67.0391 66.6211 67.0156 66.5664 66.9688C66.5143 66.9193 66.4883 66.8581 66.4883 66.7852V66.6133V66.0742C66.4831 65.9935 66.4518 65.9271 66.3945 65.875C66.3398 65.8203 66.2773 65.7773 66.207 65.7461C66.1393 65.7148 66.0677 65.6914 65.9922 65.6758C65.9193 65.6602 65.8451 65.6523 65.7695 65.6523C65.694 65.6523 65.6185 65.6602 65.543 65.6758C65.4701 65.6914 65.3984 65.7148 65.3281 65.7461C65.2604 65.7773 65.1979 65.8203 65.1406 65.875C65.0859 65.9271 65.056 65.9935 65.0508 66.0742V66.6133V66.7852C65.0378 66.9414 64.9531 67.026 64.7969 67.0391C64.724 67.0391 64.6602 67.0156 64.6055 66.9688C64.5534 66.9193 64.5273 66.8581 64.5273 66.7852V66.1172V65.9531C64.5352 65.8125 64.5846 65.6914 64.6758 65.5898C64.7669 65.4883 64.8724 65.4076 64.9922 65.3477C65.112 65.2852 65.237 65.2383 65.3672 65.207C65.5 65.1758 65.6341 65.1602 65.7695 65.1602ZM22.0938 68.625C22.1667 68.625 22.2292 68.6497 22.2812 68.6992C22.3333 68.7461 22.3607 68.806 22.3633 68.8789V69.2188H23.6914C23.7643 69.2188 23.8268 69.2435 23.8789 69.293C23.9284 69.3451 23.9531 69.4076 23.9531 69.4805C23.9531 69.5534 23.9271 69.6159 23.875 69.668C23.8255 69.7174 23.7643 69.7422 23.6914 69.7422H22.3633V69.8203C22.3607 69.9271 22.3672 70.026 22.3828 70.1172C22.401 70.2057 22.4427 70.2852 22.5078 70.3555C22.5729 70.4258 22.6549 70.4635 22.7539 70.4688H23.707C23.7799 70.4714 23.8398 70.4987 23.8867 70.5508C23.9362 70.6029 23.9609 70.6654 23.9609 70.7383C23.9583 70.8086 23.9323 70.8685 23.8828 70.918C23.8359 70.9648 23.7773 70.9896 23.707 70.9922H22.6211C22.4388 70.9818 22.2878 70.9206 22.168 70.8086C22.0508 70.694 21.9661 70.5547 21.9141 70.3906C21.8646 70.2266 21.8385 70.0521 21.8359 69.8672V69.7422H21.3867C21.3138 69.7422 21.2526 69.7161 21.2031 69.6641C21.151 69.6146 21.125 69.5534 21.125 69.4805C21.125 69.4076 21.1497 69.3464 21.1992 69.2969C21.2513 69.2448 21.3138 69.2188 21.3867 69.2188H21.8359V68.8789C21.8385 68.8086 21.8646 68.75 21.9141 68.7031C21.9635 68.6536 22.0234 68.6276 22.0938 68.625ZM24.6055 68.625C24.6758 68.6276 24.7357 68.6536 24.7852 68.7031C24.8346 68.75 24.8607 68.8086 24.8633 68.8789V69.2188H26.0742C26.2565 69.2214 26.4062 69.2734 26.5234 69.375C26.6432 69.474 26.7279 69.5859 26.7773 69.7109C26.8294 69.8385 26.8555 69.9701 26.8555 70.1055H26.8594V70.7852C26.8594 70.8581 26.832 70.9193 26.7773 70.9688C26.7253 71.0156 26.6628 71.0391 26.5898 71.0391C26.4336 71.026 26.3477 70.9414 26.332 70.7852V70.1016C26.332 70.0521 26.3216 70 26.3008 69.9453C26.2826 69.8906 26.2552 69.8438 26.2188 69.8047C26.1823 69.763 26.1393 69.7422 26.0898 69.7422H24.8633V70.793C24.8477 70.9492 24.7617 71.0339 24.6055 71.0469C24.5326 71.0469 24.4688 71.0234 24.4141 70.9766C24.362 70.9271 24.3359 70.8659 24.3359 70.793V68.8789C24.3385 68.806 24.3659 68.7461 24.418 68.6992C24.4701 68.6497 24.5326 68.625 24.6055 68.625ZM28.1523 70.9922C27.9232 70.9844 27.75 70.931 27.6328 70.832C27.5156 70.7305 27.431 70.6172 27.3789 70.4922C27.3268 70.3646 27.3008 70.2357 27.3008 70.1055C27.3008 69.9701 27.3255 69.8398 27.375 69.7148C27.4271 69.5872 27.5117 69.474 27.6289 69.375C27.7487 69.2734 27.8997 69.2214 28.082 69.2188H29.5664C29.6393 69.2188 29.7005 69.2435 29.75 69.293C29.8021 69.3398 29.8281 69.3971 29.8281 69.4648C29.8281 69.5352 29.8021 69.5951 29.75 69.6445C29.7005 69.6914 29.6393 69.7148 29.5664 69.7148H28.1055C28.0482 69.7148 27.9974 69.7344 27.9531 69.7734C27.9115 69.8125 27.8802 69.8633 27.8594 69.9258C27.8411 69.9883 27.832 70.0495 27.832 70.1094C27.832 70.1745 27.8411 70.2383 27.8594 70.3008C27.8802 70.3633 27.9115 70.4141 27.9531 70.4531C27.9974 70.4896 28.0482 70.5091 28.1055 70.5117H29.5664C29.6393 70.5117 29.7005 70.5352 29.75 70.582C29.8021 70.6289 29.8281 70.6849 29.8281 70.75C29.8281 70.8177 29.8021 70.875 29.75 70.9219C29.7005 70.9688 29.6393 70.9922 29.5664 70.9922H28.1523ZM29.7812 70.0977C29.7812 70.1471 29.7591 70.1901 29.7148 70.2266C29.6758 70.2604 29.6263 70.2773 29.5664 70.2773H28.2891C28.2292 70.2773 28.1784 70.2604 28.1367 70.2266C28.0951 70.1901 28.0742 70.1471 28.0742 70.0977C28.0742 70.0508 28.0951 70.0091 28.1367 69.9727C28.1784 69.9388 28.2292 69.9219 28.2891 69.9219H29.5664C29.6263 69.9219 29.6771 69.9401 29.7188 69.9766C29.7604 70.0104 29.7812 70.0508 29.7812 70.0977ZM32.3594 69.7109C32.4089 69.5859 32.4922 69.474 32.6094 69.375C32.7292 69.2734 32.8802 69.2214 33.0625 69.2188H34.5312C34.6042 69.2188 34.6654 69.2448 34.7148 69.2969C34.7669 69.3464 34.793 69.4076 34.793 69.4805C34.793 69.5534 34.7669 69.6159 34.7148 69.668C34.6654 69.7174 34.6042 69.7422 34.5312 69.7422H33.0469C32.9974 69.7422 32.9544 69.763 32.918 69.8047C32.8815 69.8438 32.8529 69.8906 32.832 69.9453C32.8138 70 32.8047 70.0521 32.8047 70.1016V70.7852C32.7891 70.9414 32.7031 71.026 32.5469 71.0391C32.474 71.0391 32.4102 71.0156 32.3555 70.9688C32.3034 70.9193 32.2773 70.8581 32.2773 70.7852V70.1055H32.2812C32.2812 69.9701 32.3073 69.8385 32.3594 69.7109ZM37.3633 70.7852V69.8438C37.3633 69.7786 37.3294 69.7448 37.2617 69.7422H35.8945C35.8451 69.7448 35.8021 69.7669 35.7656 69.8086C35.7292 69.8477 35.7018 69.8945 35.6836 69.9492C35.668 70.0013 35.6602 70.0547 35.6602 70.1094C35.6602 70.1615 35.668 70.2148 35.6836 70.2695C35.7018 70.3216 35.7292 70.3685 35.7656 70.4102C35.8021 70.4492 35.8451 70.4688 35.8945 70.4688H36.8945C36.9674 70.4688 37.0286 70.4948 37.0781 70.5469C37.1302 70.5964 37.1562 70.6576 37.1562 70.7305C37.1562 70.8034 37.1302 70.8646 37.0781 70.9141C37.0286 70.9661 36.9674 70.9922 36.8945 70.9922H35.9102C35.7279 70.9896 35.5768 70.9388 35.457 70.8398C35.3398 70.7383 35.2552 70.625 35.2031 70.5C35.1536 70.3724 35.1289 70.2409 35.1289 70.1055C35.1289 69.9753 35.1549 69.8477 35.207 69.7227C35.2591 69.5951 35.3438 69.4818 35.4609 69.3828C35.5781 69.2812 35.7513 69.2266 35.9805 69.2188H37.6211C37.694 69.2188 37.7565 69.2435 37.8086 69.293C37.8607 69.3398 37.888 69.3997 37.8906 69.4727V70.7852C37.8906 70.8581 37.8633 70.9193 37.8086 70.9688C37.7565 71.0156 37.694 71.0391 37.6211 71.0391C37.4648 71.026 37.3789 70.9414 37.3633 70.7852ZM39.6406 69.1602C39.776 69.1602 39.9089 69.1758 40.0391 69.207C40.1719 69.2383 40.2982 69.2852 40.418 69.3477C40.5378 69.4076 40.6432 69.4883 40.7344 69.5898C40.8281 69.6914 40.8789 69.8125 40.8867 69.9531V70.1172V70.7852C40.8711 70.9414 40.7852 71.026 40.6289 71.0391C40.556 71.0391 40.4922 71.0156 40.4375 70.9688C40.3854 70.9193 40.3594 70.8581 40.3594 70.7852V70.6133V70.0742C40.3542 69.9935 40.3229 69.9271 40.2656 69.875C40.2109 69.8203 40.1484 69.7773 40.0781 69.7461C40.0104 69.7148 39.9388 69.6914 39.8633 69.6758C39.7904 69.6602 39.7161 69.6523 39.6406 69.6523C39.5651 69.6523 39.4896 69.6602 39.4141 69.6758C39.3411 69.6914 39.2695 69.7148 39.1992 69.7461C39.1315 69.7773 39.069 69.8203 39.0117 69.875C38.957 69.9271 38.9271 69.9935 38.9219 70.0742V70.6133V70.7852C38.9089 70.9414 38.8242 71.026 38.668 71.0391C38.5951 71.0391 38.5312 71.0156 38.4766 70.9688C38.4245 70.9193 38.3984 70.8581 38.3984 70.7852V70.1172V69.9531C38.4062 69.8125 38.4557 69.6914 38.5469 69.5898C38.638 69.4883 38.7435 69.4076 38.8633 69.3477C38.9831 69.2852 39.1081 69.2383 39.2383 69.207C39.3711 69.1758 39.5052 69.1602 39.6406 69.1602ZM43.5586 68.8789C43.5742 68.7227 43.6602 68.638 43.8164 68.625C43.8893 68.625 43.9518 68.6497 44.0039 68.6992C44.0586 68.7461 44.0859 68.806 44.0859 68.8789V70.7383C44.0833 70.8112 44.056 70.8724 44.0039 70.9219C43.9518 70.9688 43.8893 70.9922 43.8164 70.9922H42.1758C41.9466 70.9844 41.7734 70.931 41.6562 70.832C41.5391 70.7305 41.4544 70.6172 41.4023 70.4922C41.3503 70.3646 41.3242 70.2357 41.3242 70.1055C41.3242 69.9701 41.349 69.8398 41.3984 69.7148C41.4505 69.5872 41.5352 69.474 41.6523 69.375C41.7721 69.2734 41.9232 69.2214 42.1055 69.2188H43.0898C43.1628 69.2188 43.224 69.2448 43.2734 69.2969C43.3255 69.3464 43.3516 69.4076 43.3516 69.4805C43.3516 69.5534 43.3255 69.6159 43.2734 69.668C43.224 69.7174 43.1628 69.7422 43.0898 69.7422H42.0898C42.0404 69.7422 41.9974 69.763 41.9609 69.8047C41.9245 69.8438 41.8971 69.8906 41.8789 69.9453C41.8633 69.9974 41.8555 70.0495 41.8555 70.1016C41.8555 70.1562 41.8633 70.2109 41.8789 70.2656C41.8971 70.3177 41.9245 70.3646 41.9609 70.4062C41.9974 70.4453 42.0404 70.4661 42.0898 70.4688H43.457C43.5247 70.4661 43.5586 70.4323 43.5586 70.3672V68.8789ZM45.4102 70.9922C45.181 70.9844 45.0078 70.931 44.8906 70.832C44.7734 70.7305 44.6888 70.6172 44.6367 70.4922C44.5846 70.3646 44.5586 70.2357 44.5586 70.1055C44.5586 69.9701 44.5833 69.8398 44.6328 69.7148C44.6849 69.5872 44.7695 69.474 44.8867 69.375C45.0065 69.2734 45.1576 69.2214 45.3398 69.2188H46.6055C46.7878 69.2214 46.9375 69.2734 47.0547 69.375C47.1745 69.474 47.2591 69.5872 47.3086 69.7148C47.3607 69.8398 47.3867 69.9701 47.3867 70.1055C47.3867 70.2357 47.3607 70.3646 47.3086 70.4922C47.2565 70.6172 47.1719 70.7305 47.0547 70.832C46.9375 70.931 46.7643 70.9844 46.5352 70.9922H45.4102ZM45.3242 69.7422C45.2747 69.7422 45.2318 69.763 45.1953 69.8047C45.1589 69.8438 45.1315 69.8906 45.1133 69.9453C45.0977 69.9974 45.0898 70.0495 45.0898 70.1016C45.0898 70.1562 45.0977 70.2109 45.1133 70.2656C45.1315 70.3177 45.1589 70.3646 45.1953 70.4062C45.2318 70.4453 45.2747 70.4661 45.3242 70.4688H46.6211C46.6706 70.4661 46.7135 70.4453 46.75 70.4062C46.7865 70.3646 46.8125 70.3177 46.8281 70.2656C46.8464 70.2109 46.8555 70.1562 46.8555 70.1016C46.8555 70.0495 46.8464 69.9974 46.8281 69.9453C46.8125 69.8906 46.7865 69.8438 46.75 69.8047C46.7135 69.763 46.6706 69.7422 46.6211 69.7422H45.3242ZM48.6641 69.1602C48.7552 69.1602 48.8438 69.1758 48.9297 69.207C49.0182 69.2383 49.1029 69.2839 49.1836 69.3438C49.1966 69.3568 49.2109 69.3698 49.2266 69.3828C49.2396 69.3698 49.2539 69.3568 49.2695 69.3438C49.3503 69.2839 49.4336 69.2383 49.5195 69.207C49.6081 69.1758 49.6966 69.1602 49.7852 69.1602C49.8763 69.1602 49.9648 69.1758 50.0508 69.207C50.1393 69.2383 50.2227 69.2852 50.3008 69.3477C50.3815 69.4076 50.4518 69.4883 50.5117 69.5898C50.5742 69.6914 50.6055 69.8125 50.6055 69.9531V70.7852C50.5898 70.9414 50.5039 71.026 50.3477 71.0391C50.2747 71.0391 50.2109 71.0156 50.1562 70.9688C50.1042 70.9193 50.0781 70.8581 50.0781 70.7852V69.9844C50.0781 69.9219 50.0664 69.8698 50.043 69.8281C50.0195 69.7839 49.9935 69.75 49.9648 69.7266C49.9362 69.7005 49.9062 69.6823 49.875 69.6719C49.8438 69.6589 49.8125 69.6523 49.7812 69.6523C49.75 69.6523 49.7188 69.6589 49.6875 69.6719C49.6589 69.6823 49.6302 69.7005 49.6016 69.7266C49.5729 69.75 49.5469 69.7839 49.5234 69.8281C49.5 69.8698 49.487 69.9219 49.4844 69.9844V70.7852C49.4688 70.9414 49.3828 71.026 49.2266 71.0391C49.1536 71.0391 49.0898 71.0156 49.0352 70.9688C48.9831 70.9193 48.957 70.8581 48.957 70.7852V69.9844C48.957 69.9219 48.9453 69.8698 48.9219 69.8281C48.8984 69.7839 48.8724 69.75 48.8438 69.7266C48.8151 69.7005 48.7852 69.6823 48.7539 69.6719C48.7227 69.6589 48.6914 69.6523 48.6602 69.6523C48.6289 69.6523 48.5977 69.6589 48.5664 69.6719C48.5378 69.6823 48.5091 69.7005 48.4805 69.7266C48.4518 69.75 48.4258 69.7839 48.4023 69.8281C48.3789 69.8698 48.3659 69.9219 48.3633 69.9844V70.7852C48.3503 70.9414 48.2656 71.026 48.1094 71.0391C48.0365 71.0391 47.9727 71.0156 47.918 70.9688C47.8659 70.9193 47.8398 70.8581 47.8398 70.7852V69.9531C47.8451 69.8125 47.8776 69.6914 47.9375 69.5898C47.9974 69.4883 48.0677 69.4076 48.1484 69.3477C48.2292 69.2852 48.3125 69.2383 48.3984 69.207C48.487 69.1758 48.5755 69.1602 48.6641 69.1602ZM53.918 69.1602C54.0091 69.1602 54.0977 69.1758 54.1836 69.207C54.2721 69.2383 54.3568 69.2839 54.4375 69.3438C54.4505 69.3568 54.4648 69.3698 54.4805 69.3828C54.4935 69.3698 54.5078 69.3568 54.5234 69.3438C54.6042 69.2839 54.6875 69.2383 54.7734 69.207C54.862 69.1758 54.9505 69.1602 55.0391 69.1602C55.1302 69.1602 55.2188 69.1758 55.3047 69.207C55.3932 69.2383 55.4766 69.2852 55.5547 69.3477C55.6354 69.4076 55.7057 69.4883 55.7656 69.5898C55.8281 69.6914 55.8594 69.8125 55.8594 69.9531V70.7852C55.8438 70.9414 55.7578 71.026 55.6016 71.0391C55.5286 71.0391 55.4648 71.0156 55.4102 70.9688C55.3581 70.9193 55.332 70.8581 55.332 70.7852V69.9844C55.332 69.9219 55.3203 69.8698 55.2969 69.8281C55.2734 69.7839 55.2474 69.75 55.2188 69.7266C55.1901 69.7005 55.1602 69.6823 55.1289 69.6719C55.0977 69.6589 55.0664 69.6523 55.0352 69.6523C55.0039 69.6523 54.9727 69.6589 54.9414 69.6719C54.9128 69.6823 54.8841 69.7005 54.8555 69.7266C54.8268 69.75 54.8008 69.7839 54.7773 69.8281C54.7539 69.8698 54.7409 69.9219 54.7383 69.9844V70.7852C54.7227 70.9414 54.6367 71.026 54.4805 71.0391C54.4076 71.0391 54.3438 71.0156 54.2891 70.9688C54.237 70.9193 54.2109 70.8581 54.2109 70.7852V69.9844C54.2109 69.9219 54.1992 69.8698 54.1758 69.8281C54.1523 69.7839 54.1263 69.75 54.0977 69.7266C54.069 69.7005 54.0391 69.6823 54.0078 69.6719C53.9766 69.6589 53.9453 69.6523 53.9141 69.6523C53.8828 69.6523 53.8516 69.6589 53.8203 69.6719C53.7917 69.6823 53.763 69.7005 53.7344 69.7266C53.7057 69.75 53.6797 69.7839 53.6562 69.8281C53.6328 69.8698 53.6198 69.9219 53.6172 69.9844V70.7852C53.6042 70.9414 53.5195 71.026 53.3633 71.0391C53.2904 71.0391 53.2266 71.0156 53.1719 70.9688C53.1198 70.9193 53.0938 70.8581 53.0938 70.7852V69.9531C53.099 69.8125 53.1315 69.6914 53.1914 69.5898C53.2513 69.4883 53.3216 69.4076 53.4023 69.3477C53.4831 69.2852 53.5664 69.2383 53.6523 69.207C53.7409 69.1758 53.8294 69.1602 53.918 69.1602ZM57.1523 70.9922C56.9232 70.9844 56.75 70.931 56.6328 70.832C56.5156 70.7305 56.431 70.6172 56.3789 70.4922C56.3268 70.3646 56.3008 70.2357 56.3008 70.1055C56.3008 69.9701 56.3255 69.8398 56.375 69.7148C56.4271 69.5872 56.5117 69.474 56.6289 69.375C56.7487 69.2734 56.8997 69.2214 57.082 69.2188H58.3477C58.5299 69.2214 58.6797 69.2734 58.7969 69.375C58.9167 69.474 59.0013 69.5872 59.0508 69.7148C59.1029 69.8398 59.1289 69.9701 59.1289 70.1055C59.1289 70.2357 59.1029 70.3646 59.0508 70.4922C58.9987 70.6172 58.9141 70.7305 58.7969 70.832C58.6797 70.931 58.5065 70.9844 58.2773 70.9922H57.1523ZM57.0664 69.7422C57.0169 69.7422 56.974 69.763 56.9375 69.8047C56.901 69.8438 56.8737 69.8906 56.8555 69.9453C56.8398 69.9974 56.832 70.0495 56.832 70.1016C56.832 70.1562 56.8398 70.2109 56.8555 70.2656C56.8737 70.3177 56.901 70.3646 56.9375 70.4062C56.974 70.4453 57.0169 70.4661 57.0664 70.4688H58.3633C58.4128 70.4661 58.4557 70.4453 58.4922 70.4062C58.5286 70.3646 58.5547 70.3177 58.5703 70.2656C58.5885 70.2109 58.5977 70.1562 58.5977 70.1016C58.5977 70.0495 58.5885 69.9974 58.5703 69.9453C58.5547 69.8906 58.5286 69.8438 58.4922 69.8047C58.4557 69.763 58.4128 69.7422 58.3633 69.7422H57.0664ZM61.7539 68.8789C61.7695 68.7227 61.8555 68.638 62.0117 68.625C62.0846 68.625 62.1471 68.6497 62.1992 68.6992C62.2539 68.7461 62.2812 68.806 62.2812 68.8789V70.7383C62.2786 70.8112 62.2513 70.8724 62.1992 70.9219C62.1471 70.9688 62.0846 70.9922 62.0117 70.9922H60.3711C60.1419 70.9844 59.9688 70.931 59.8516 70.832C59.7344 70.7305 59.6497 70.6172 59.5977 70.4922C59.5456 70.3646 59.5195 70.2357 59.5195 70.1055C59.5195 69.9701 59.5443 69.8398 59.5938 69.7148C59.6458 69.5872 59.7305 69.474 59.8477 69.375C59.9674 69.2734 60.1185 69.2214 60.3008 69.2188H61.2852C61.3581 69.2188 61.4193 69.2448 61.4688 69.2969C61.5208 69.3464 61.5469 69.4076 61.5469 69.4805C61.5469 69.5534 61.5208 69.6159 61.4688 69.668C61.4193 69.7174 61.3581 69.7422 61.2852 69.7422H60.2852C60.2357 69.7422 60.1927 69.763 60.1562 69.8047C60.1198 69.8438 60.0924 69.8906 60.0742 69.9453C60.0586 69.9974 60.0508 70.0495 60.0508 70.1016C60.0508 70.1562 60.0586 70.2109 60.0742 70.2656C60.0924 70.3177 60.1198 70.3646 60.1562 70.4062C60.1927 70.4453 60.2357 70.4661 60.2852 70.4688H61.6523C61.7201 70.4661 61.7539 70.4323 61.7539 70.3672V68.8789ZM63.5977 70.9922C63.3685 70.9844 63.1953 70.931 63.0781 70.832C62.9609 70.7305 62.8763 70.6172 62.8242 70.4922C62.7721 70.3646 62.7461 70.2357 62.7461 70.1055C62.7461 69.9701 62.7708 69.8398 62.8203 69.7148C62.8724 69.5872 62.957 69.474 63.0742 69.375C63.194 69.2734 63.3451 69.2214 63.5273 69.2188H65.0117C65.0846 69.2188 65.1458 69.2435 65.1953 69.293C65.2474 69.3398 65.2734 69.3971 65.2734 69.4648C65.2734 69.5352 65.2474 69.5951 65.1953 69.6445C65.1458 69.6914 65.0846 69.7148 65.0117 69.7148H63.5508C63.4935 69.7148 63.4427 69.7344 63.3984 69.7734C63.3568 69.8125 63.3255 69.8633 63.3047 69.9258C63.2865 69.9883 63.2773 70.0495 63.2773 70.1094C63.2773 70.1745 63.2865 70.2383 63.3047 70.3008C63.3255 70.3633 63.3568 70.4141 63.3984 70.4531C63.4427 70.4896 63.4935 70.5091 63.5508 70.5117H65.0117C65.0846 70.5117 65.1458 70.5352 65.1953 70.582C65.2474 70.6289 65.2734 70.6849 65.2734 70.75C65.2734 70.8177 65.2474 70.875 65.1953 70.9219C65.1458 70.9688 65.0846 70.9922 65.0117 70.9922H63.5977ZM65.2266 70.0977C65.2266 70.1471 65.2044 70.1901 65.1602 70.2266C65.1211 70.2604 65.0716 70.2773 65.0117 70.2773H63.7344C63.6745 70.2773 63.6237 70.2604 63.582 70.2266C63.5404 70.1901 63.5195 70.1471 63.5195 70.0977C63.5195 70.0508 63.5404 70.0091 63.582 69.9727C63.6237 69.9388 63.6745 69.9219 63.7344 69.9219H65.0117C65.0716 69.9219 65.1224 69.9401 65.1641 69.9766C65.2057 70.0104 65.2266 70.0508 65.2266 70.0977ZM66.125 71.0547C66.0208 71.0547 65.9336 71.0182 65.8633 70.9453C65.7956 70.8724 65.7617 70.7812 65.7617 70.6719C65.7617 70.5625 65.7956 70.4714 65.8633 70.3984C65.9336 70.3255 66.0208 70.2891 66.125 70.2891C66.2292 70.2891 66.3164 70.3255 66.3867 70.3984C66.457 70.4714 66.4922 70.5625 66.4922 70.6719C66.4922 70.7812 66.457 70.8724 66.3867 70.9453C66.3164 71.0182 66.2292 71.0547 66.125 71.0547Z" fill="#537790"/>
<g filter="url(#filter0_b_65_1721)">
<rect width="96" height="97" rx="22" fill="#D9D9D9" fill-opacity="0.1"/>
</g>
</g>
<defs>
<filter id="filter0_b_65_1721" x="-2" y="-2" width="100" height="101" filterUnits="userSpaceOnUse" color-interpolation-filters="sRGB">
<feFlood flood-opacity="0" result="BackgroundImageFix"/>
<feGaussianBlur in="BackgroundImageFix" stdDeviation="1"/>
<feComposite in2="SourceAlpha" operator="in" result="effect1_backgroundBlur_65_1721"/>
<feBlend mode="normal" in="SourceGraphic" in2="effect1_backgroundBlur_65_1721" result="shape"/>
</filter>
<clipPath id="clip0_65_1721">
<rect width="96" height="97" rx="22" fill="white"/>
</clipPath>
</defs>
</svg>
