<svg width="96" height="97" viewBox="0 0 96 97" fill="none" xmlns="http://www.w3.org/2000/svg">
<g clip-path="url(#clip0_69_1537)">
<rect width="96" height="97" rx="22" fill="#F4F4F4"/>
<path d="M19.5645 53.4629V51.1094C19.5645 50.9466 19.4798 50.862 19.3105 50.8555H15.8926C15.7689 50.862 15.6615 50.9173 15.5703 51.0215C15.4792 51.1191 15.4108 51.2363 15.3652 51.373C15.3262 51.5033 15.3066 51.6367 15.3066 51.7734C15.3066 51.9036 15.3262 52.0371 15.3652 52.1738C15.4108 52.304 15.4792 52.4212 15.5703 52.5254C15.6615 52.623 15.7689 52.6719 15.8926 52.6719H18.3926C18.5749 52.6719 18.7279 52.737 18.8516 52.8672C18.9818 52.9909 19.0469 53.1439 19.0469 53.3262C19.0469 53.5085 18.9818 53.6615 18.8516 53.7852C18.7279 53.9154 18.5749 53.9805 18.3926 53.9805H15.9316C15.4759 53.974 15.0983 53.847 14.7988 53.5996C14.5059 53.3457 14.2943 53.0625 14.1641 52.75C14.0404 52.431 13.9785 52.1022 13.9785 51.7637C13.9785 51.4382 14.0436 51.1191 14.1738 50.8066C14.304 50.4876 14.5156 50.2044 14.8086 49.957C15.1016 49.7031 15.5345 49.5664 16.1074 49.5469H20.209C20.3913 49.5469 20.5475 49.6087 20.6777 49.7324C20.8079 49.8496 20.8763 49.9993 20.8828 50.1816V53.4629C20.8828 53.6452 20.8145 53.7982 20.6777 53.9219C20.5475 54.0391 20.3913 54.0977 20.209 54.0977C19.8184 54.0651 19.6035 53.8535 19.5645 53.4629ZM27.582 48.6973C27.6211 48.3066 27.8359 48.0951 28.2266 48.0625C28.4089 48.0625 28.5651 48.1243 28.6953 48.248C28.832 48.3652 28.9004 48.515 28.9004 48.6973V53.3457C28.8939 53.528 28.8255 53.681 28.6953 53.8047C28.5651 53.9219 28.4089 53.9805 28.2266 53.9805H24.125C23.5521 53.9609 23.1191 53.8275 22.8262 53.5801C22.5332 53.3262 22.3216 53.043 22.1914 52.7305C22.0612 52.4115 21.9961 52.0892 21.9961 51.7637C21.9961 51.4251 22.0579 51.0996 22.1816 50.7871C22.3118 50.4681 22.5234 50.1849 22.8164 49.9375C23.1159 49.6836 23.4935 49.5534 23.9492 49.5469H26.4102C26.5924 49.5469 26.7454 49.612 26.8691 49.7422C26.9993 49.8659 27.0645 50.0189 27.0645 50.2012C27.0645 50.3835 26.9993 50.5397 26.8691 50.6699C26.7454 50.7936 26.5924 50.8555 26.4102 50.8555H23.9102C23.7865 50.8555 23.679 50.9076 23.5879 51.0117C23.4967 51.1094 23.4284 51.2266 23.3828 51.3633C23.3438 51.4935 23.3242 51.6237 23.3242 51.7539C23.3242 51.8906 23.3438 52.0273 23.3828 52.1641C23.4284 52.2943 23.4967 52.4115 23.5879 52.5156C23.679 52.6133 23.7865 52.6654 23.9102 52.6719H27.3281C27.4974 52.6654 27.582 52.5807 27.582 52.418V48.6973ZM31.7324 53.4629C31.4004 53.0137 31.0684 52.4245 30.7363 51.6953L30.1016 50.3281C30.069 50.2565 30.0495 50.1784 30.043 50.0938C30.0299 49.9115 30.0853 49.7552 30.209 49.625C30.3327 49.4948 30.4954 49.4297 30.6973 49.4297C30.9186 49.4297 31.0814 49.4753 31.1855 49.5664C31.2962 49.651 31.3841 49.7617 31.4492 49.8984L31.9082 51.0312C32.0254 51.2982 32.1393 51.5521 32.25 51.793C32.3672 52.0273 32.4974 52.2422 32.6406 52.4375C32.7904 52.6328 32.9564 52.737 33.1387 52.75C33.3145 52.737 33.4805 52.6328 33.6367 52.4375C33.7734 52.2422 33.8971 52.0273 34.0078 51.793C34.125 51.5521 34.2422 51.2982 34.3594 51.0312L34.8184 49.8984C34.8835 49.7617 34.9681 49.651 35.0723 49.5664C35.1829 49.4753 35.349 49.4297 35.5703 49.4297C35.7721 49.4297 35.9349 49.4948 36.0586 49.625C36.1823 49.7552 36.2376 49.9115 36.2246 50.0938C36.2181 50.1784 36.1986 50.2565 36.166 50.3281L35.5312 51.6953C35.1992 52.4245 34.8672 53.0137 34.5352 53.4629C34.2161 53.9056 33.7507 54.1302 33.1387 54.1367C32.5202 54.1302 32.0514 53.9056 31.7324 53.4629ZM39.3105 53.9805C38.7376 53.9609 38.3047 53.8275 38.0117 53.5801C37.7188 53.3262 37.5072 53.043 37.377 52.7305C37.2467 52.4115 37.1816 52.0892 37.1816 51.7637C37.1816 51.4251 37.2435 51.0996 37.3672 50.7871C37.4974 50.4681 37.709 50.1849 38.002 49.9375C38.3014 49.6836 38.679 49.5534 39.1348 49.5469H42.8457C43.028 49.5469 43.181 49.6087 43.3047 49.7324C43.4349 49.8496 43.5 49.9928 43.5 50.1621C43.5 50.3379 43.4349 50.4876 43.3047 50.6113C43.181 50.7285 43.028 50.7871 42.8457 50.7871H39.1934C39.0501 50.7871 38.9232 50.8359 38.8125 50.9336C38.7083 51.0312 38.6302 51.1582 38.5781 51.3145C38.5326 51.4707 38.5098 51.6237 38.5098 51.7734C38.5098 51.9362 38.5326 52.0957 38.5781 52.252C38.6302 52.4082 38.7083 52.5352 38.8125 52.6328C38.9232 52.724 39.0501 52.7728 39.1934 52.7793H42.8457C43.028 52.7793 43.181 52.8379 43.3047 52.9551C43.4349 53.0723 43.5 53.2122 43.5 53.375C43.5 53.5443 43.4349 53.6875 43.3047 53.8047C43.181 53.9219 43.028 53.9805 42.8457 53.9805H39.3105ZM43.3828 51.7441C43.3828 51.8678 43.3275 51.9753 43.2168 52.0664C43.1191 52.151 42.9954 52.1934 42.8457 52.1934H39.6523C39.5026 52.1934 39.3757 52.151 39.2715 52.0664C39.1673 51.9753 39.1152 51.8678 39.1152 51.7441C39.1152 51.627 39.1673 51.5228 39.2715 51.4316C39.3757 51.347 39.5026 51.3047 39.6523 51.3047H42.8457C42.9954 51.3047 43.1224 51.3503 43.2266 51.4414C43.3307 51.526 43.3828 51.627 43.3828 51.7441ZM47.7383 49.4004C48.0768 49.4004 48.4089 49.4395 48.7344 49.5176C49.0664 49.5957 49.3822 49.7129 49.6816 49.8691C49.9811 50.0189 50.2448 50.2207 50.4727 50.4746C50.707 50.7285 50.834 51.0312 50.8535 51.3828V51.793V53.4629C50.8145 53.8535 50.5996 54.0651 50.209 54.0977C50.0267 54.0977 49.8672 54.0391 49.7305 53.9219C49.6003 53.7982 49.5352 53.6452 49.5352 53.4629V53.0332V51.6855C49.5221 51.4837 49.444 51.3177 49.3008 51.1875C49.1641 51.0508 49.0078 50.9434 48.832 50.8652C48.6628 50.7871 48.4837 50.7285 48.2949 50.6895C48.1126 50.6504 47.9271 50.6309 47.7383 50.6309C47.5495 50.6309 47.3607 50.6504 47.1719 50.6895C46.9896 50.7285 46.8105 50.7871 46.6348 50.8652C46.4655 50.9434 46.3092 51.0508 46.166 51.1875C46.0293 51.3177 45.9544 51.4837 45.9414 51.6855V53.0332V53.4629C45.9089 53.8535 45.6973 54.0651 45.3066 54.0977C45.1243 54.0977 44.9648 54.0391 44.8281 53.9219C44.6979 53.7982 44.6328 53.6452 44.6328 53.4629V51.793V51.3828C44.6523 51.0312 44.776 50.7285 45.0039 50.4746C45.2318 50.2207 45.4954 50.0189 45.7949 49.8691C46.0944 49.7129 46.4069 49.5957 46.7324 49.5176C47.0645 49.4395 47.3997 49.4004 47.7383 49.4004ZM54.2129 48.0625C54.3952 48.0625 54.5514 48.1243 54.6816 48.248C54.8118 48.3652 54.8802 48.515 54.8867 48.6973V49.5469H58.207C58.3893 49.5469 58.5456 49.6087 58.6758 49.7324C58.7995 49.8626 58.8613 50.0189 58.8613 50.2012C58.8613 50.3835 58.7962 50.5397 58.666 50.6699C58.5423 50.7936 58.3893 50.8555 58.207 50.8555H54.8867V51.0508C54.8802 51.3177 54.8965 51.5651 54.9355 51.793C54.9811 52.0143 55.0853 52.2129 55.248 52.3887C55.4108 52.5645 55.6159 52.6589 55.8633 52.6719H58.2461C58.4284 52.6784 58.5781 52.7467 58.6953 52.877C58.819 53.0072 58.8809 53.1634 58.8809 53.3457C58.8743 53.5215 58.8092 53.6712 58.6855 53.7949C58.5684 53.9121 58.4219 53.974 58.2461 53.9805H55.5312C55.0755 53.9544 54.6979 53.8014 54.3984 53.5215C54.1055 53.235 53.8939 52.8867 53.7637 52.4766C53.64 52.0664 53.5749 51.6302 53.5684 51.168V50.8555H52.4453C52.263 50.8555 52.11 50.7904 51.9863 50.6602C51.8561 50.5365 51.791 50.3835 51.791 50.2012C51.791 50.0189 51.8529 49.8659 51.9766 49.7422C52.1068 49.612 52.263 49.5469 52.4453 49.5469H53.5684V48.6973C53.5749 48.5215 53.64 48.375 53.7637 48.2578C53.8874 48.1341 54.0371 48.069 54.2129 48.0625ZM62.9336 54.1465C62.5951 54.1465 62.2598 54.1074 61.9277 54.0293C61.6022 53.9512 61.2897 53.8372 60.9902 53.6875C60.6908 53.5312 60.4271 53.3262 60.1992 53.0723C59.9714 52.8184 59.8477 52.5156 59.8281 52.1641V51.7539V50.084C59.8281 49.9017 59.8932 49.752 60.0234 49.6348C60.1602 49.5111 60.3197 49.4492 60.502 49.4492C60.8926 49.4818 61.1042 49.6934 61.1367 50.084V50.5137V51.8613C61.1497 52.0632 61.2246 52.2324 61.3613 52.3691C61.5046 52.4993 61.6608 52.6035 61.8301 52.6816C62.0059 52.7598 62.1849 52.8184 62.3672 52.8574C62.556 52.8965 62.7448 52.916 62.9336 52.916C63.1224 52.916 63.3079 52.8965 63.4902 52.8574C63.679 52.8184 63.8581 52.7598 64.0273 52.6816C64.2031 52.6035 64.3594 52.4993 64.4961 52.3691C64.6393 52.2324 64.7174 52.0632 64.7305 51.8613V50.5137V50.084C64.7305 49.9017 64.7956 49.752 64.9258 49.6348C65.0625 49.5111 65.222 49.4492 65.4043 49.4492C65.7949 49.4818 66.0098 49.6934 66.0488 50.084V51.7539V52.1641C66.0293 52.5156 65.9023 52.8184 65.668 53.0723C65.4401 53.3262 65.1764 53.5312 64.877 53.6875C64.5775 53.8372 64.2617 53.9512 63.9297 54.0293C63.6042 54.1074 63.2721 54.1465 62.9336 54.1465ZM67.5039 50.7773C67.6276 50.4648 67.8359 50.1849 68.1289 49.9375C68.4284 49.6836 68.806 49.5534 69.2617 49.5469H72.9336C73.1159 49.5469 73.2689 49.612 73.3926 49.7422C73.5228 49.8659 73.5879 50.0189 73.5879 50.2012C73.5879 50.3835 73.5228 50.5397 73.3926 50.6699C73.2689 50.7936 73.1159 50.8555 72.9336 50.8555H69.2227C69.099 50.8555 68.9915 50.9076 68.9004 51.0117C68.8092 51.1094 68.7376 51.2266 68.6855 51.3633C68.64 51.5 68.6172 51.6302 68.6172 51.7539V53.4629C68.5781 53.8535 68.3633 54.0651 67.9727 54.0977C67.7904 54.0977 67.6309 54.0391 67.4941 53.9219C67.3639 53.7982 67.2988 53.6452 67.2988 53.4629V51.7637H67.3086C67.3086 51.4251 67.3737 51.0964 67.5039 50.7773ZM76.5566 53.9805C75.9837 53.9609 75.5508 53.8275 75.2578 53.5801C74.9648 53.3262 74.7533 53.043 74.623 52.7305C74.4928 52.4115 74.4277 52.0892 74.4277 51.7637C74.4277 51.4251 74.4896 51.0996 74.6133 50.7871C74.7435 50.4681 74.9551 50.1849 75.248 49.9375C75.5475 49.6836 75.9251 49.5534 76.3809 49.5469H80.0918C80.2741 49.5469 80.4271 49.6087 80.5508 49.7324C80.681 49.8496 80.7461 49.9928 80.7461 50.1621C80.7461 50.3379 80.681 50.4876 80.5508 50.6113C80.4271 50.7285 80.2741 50.7871 80.0918 50.7871H76.4395C76.2962 50.7871 76.1693 50.8359 76.0586 50.9336C75.9544 51.0312 75.8763 51.1582 75.8242 51.3145C75.7786 51.4707 75.7559 51.6237 75.7559 51.7734C75.7559 51.9362 75.7786 52.0957 75.8242 52.252C75.8763 52.4082 75.9544 52.5352 76.0586 52.6328C76.1693 52.724 76.2962 52.7728 76.4395 52.7793H80.0918C80.2741 52.7793 80.4271 52.8379 80.5508 52.9551C80.681 53.0723 80.7461 53.2122 80.7461 53.375C80.7461 53.5443 80.681 53.6875 80.5508 53.8047C80.4271 53.9219 80.2741 53.9805 80.0918 53.9805H76.5566ZM80.6289 51.7441C80.6289 51.8678 80.5736 51.9753 80.4629 52.0664C80.3652 52.151 80.2415 52.1934 80.0918 52.1934H76.8984C76.7487 52.1934 76.6217 52.151 76.5176 52.0664C76.4134 51.9753 76.3613 51.8678 76.3613 51.7441C76.3613 51.627 76.4134 51.5228 76.5176 51.4316C76.6217 51.347 76.7487 51.3047 76.8984 51.3047H80.0918C80.2415 51.3047 80.3685 51.3503 80.4727 51.4414C80.5768 51.526 80.6289 51.627 80.6289 51.7441ZM82.0742 50.7773C82.1979 50.4648 82.4062 50.1849 82.6992 49.9375C82.9987 49.6836 83.3763 49.5534 83.832 49.5469H87.5039C87.6862 49.5469 87.8392 49.612 87.9629 49.7422C88.0931 49.8659 88.1582 50.0189 88.1582 50.2012C88.1582 50.3835 88.0931 50.5397 87.9629 50.6699C87.8392 50.7936 87.6862 50.8555 87.5039 50.8555H83.793C83.6693 50.8555 83.5618 50.9076 83.4707 51.0117C83.3796 51.1094 83.3079 51.2266 83.2559 51.3633C83.2103 51.5 83.1875 51.6302 83.1875 51.7539V53.4629C83.1484 53.8535 82.9336 54.0651 82.543 54.0977C82.3607 54.0977 82.2012 54.0391 82.0645 53.9219C81.9342 53.7982 81.8691 53.6452 81.8691 53.4629V51.7637H81.8789C81.8789 51.4251 81.944 51.0964 82.0742 50.7773Z" fill="#72757A"/>
<path d="M21.5078 61.1719C21.5807 61.1719 21.6432 61.1966 21.6953 61.2461C21.7474 61.293 21.7747 61.3529 21.7773 61.4258V61.8203C21.7747 61.9271 21.7812 62.026 21.7969 62.1172C21.8151 62.2057 21.8568 62.2852 21.9219 62.3555C21.987 62.4258 22.069 62.4635 22.168 62.4688H23.2109V61.4336C23.2109 61.3607 23.237 61.3008 23.2891 61.2539C23.3438 61.2044 23.4076 61.1797 23.4805 61.1797C23.6367 61.1927 23.7227 61.2773 23.7383 61.4336V62.707C23.7383 62.9154 23.7096 63.112 23.6523 63.2969C23.6003 63.4609 23.5143 63.599 23.3945 63.7109C23.2773 63.8255 23.1276 63.888 22.9453 63.8984H21.5938C21.5234 63.8958 21.4635 63.8698 21.4141 63.8203C21.3672 63.7734 21.3424 63.7148 21.3398 63.6445C21.3398 63.5716 21.3633 63.5091 21.4102 63.457C21.4596 63.4049 21.5208 63.3776 21.5938 63.375H22.8125C22.9115 63.3698 22.9935 63.332 23.0586 63.2617C23.1237 63.1914 23.1654 63.1094 23.1836 63.0156C23.1862 63.0078 23.1875 63 23.1875 62.9922H22.0352C21.8529 62.9818 21.7018 62.9206 21.582 62.8086C21.4648 62.694 21.3802 62.5547 21.3281 62.3906C21.2786 62.2266 21.2526 62.0521 21.25 61.8672V61.4258C21.2526 61.3555 21.2786 61.2969 21.3281 61.25C21.3776 61.2005 21.4375 61.1745 21.5078 61.1719ZM25.0586 62.9922C24.8294 62.9844 24.6562 62.931 24.5391 62.832C24.4219 62.7305 24.3372 62.6172 24.2852 62.4922C24.2331 62.3646 24.207 62.2357 24.207 62.1055C24.207 61.9701 24.2318 61.8398 24.2812 61.7148C24.3333 61.5872 24.418 61.474 24.5352 61.375C24.6549 61.2734 24.806 61.2214 24.9883 61.2188H26.2539C26.4362 61.2214 26.5859 61.2734 26.7031 61.375C26.8229 61.474 26.9076 61.5872 26.957 61.7148C27.0091 61.8398 27.0352 61.9701 27.0352 62.1055C27.0352 62.2357 27.0091 62.3646 26.957 62.4922C26.9049 62.6172 26.8203 62.7305 26.7031 62.832C26.5859 62.931 26.4128 62.9844 26.1836 62.9922H25.0586ZM24.9727 61.7422C24.9232 61.7422 24.8802 61.763 24.8438 61.8047C24.8073 61.8438 24.7799 61.8906 24.7617 61.9453C24.7461 61.9974 24.7383 62.0495 24.7383 62.1016C24.7383 62.1562 24.7461 62.2109 24.7617 62.2656C24.7799 62.3177 24.8073 62.3646 24.8438 62.4062C24.8802 62.4453 24.9232 62.4661 24.9727 62.4688H26.2695C26.319 62.4661 26.362 62.4453 26.3984 62.4062C26.4349 62.3646 26.4609 62.3177 26.4766 62.2656C26.4948 62.2109 26.5039 62.1562 26.5039 62.1016C26.5039 62.0495 26.4948 61.9974 26.4766 61.9453C26.4609 61.8906 26.4349 61.8438 26.3984 61.8047C26.362 61.763 26.319 61.7422 26.2695 61.7422H24.9727ZM28.7305 63.0586C28.5951 63.0586 28.4609 63.043 28.3281 63.0117C28.1979 62.9805 28.0729 62.9349 27.9531 62.875C27.8333 62.8125 27.7279 62.7305 27.6367 62.6289C27.5456 62.5273 27.4961 62.4062 27.4883 62.2656V62.1016V61.4336C27.4883 61.3607 27.5143 61.3008 27.5664 61.2539C27.6211 61.2044 27.6849 61.1797 27.7578 61.1797C27.9141 61.1927 27.9987 61.2773 28.0117 61.4336V61.6055V62.1445C28.0169 62.2253 28.0469 62.293 28.1016 62.3477C28.1589 62.3997 28.2214 62.4414 28.2891 62.4727C28.3594 62.5039 28.431 62.5273 28.5039 62.543C28.5794 62.5586 28.6549 62.5664 28.7305 62.5664C28.806 62.5664 28.8802 62.5586 28.9531 62.543C29.0286 62.5273 29.1003 62.5039 29.168 62.4727C29.2383 62.4414 29.3008 62.3997 29.3555 62.3477C29.4128 62.293 29.444 62.2253 29.4492 62.1445V61.6055V61.4336C29.4492 61.3607 29.4753 61.3008 29.5273 61.2539C29.582 61.2044 29.6458 61.1797 29.7188 61.1797C29.875 61.1927 29.9609 61.2773 29.9766 61.4336V62.1016V62.2656C29.9688 62.4062 29.918 62.5273 29.8242 62.6289C29.7331 62.7305 29.6276 62.8125 29.5078 62.875C29.388 62.9349 29.2617 62.9805 29.1289 63.0117C28.9987 63.043 28.8659 63.0586 28.7305 63.0586ZM33.2695 62.9922C33.0404 62.9844 32.8672 62.931 32.75 62.832C32.6328 62.7305 32.5482 62.6172 32.4961 62.4922C32.444 62.3646 32.418 62.2357 32.418 62.1055C32.418 61.9701 32.4427 61.8398 32.4922 61.7148C32.5443 61.5872 32.6289 61.474 32.7461 61.375C32.8659 61.2734 33.0169 61.2214 33.1992 61.2188H34.6836C34.7565 61.2188 34.8177 61.2448 34.8672 61.2969C34.9193 61.3464 34.9453 61.4076 34.9453 61.4805C34.9453 61.5534 34.9193 61.6159 34.8672 61.668C34.8177 61.7174 34.7565 61.7422 34.6836 61.7422H33.1836C33.1341 61.7422 33.0911 61.763 33.0547 61.8047C33.0182 61.8438 32.9909 61.8906 32.9727 61.9453C32.957 61.9974 32.9492 62.0495 32.9492 62.1016C32.9492 62.1562 32.957 62.2109 32.9727 62.2656C32.9909 62.3177 33.0182 62.3646 33.0547 62.4062C33.0911 62.4453 33.1341 62.4661 33.1836 62.4688H34.6836C34.7565 62.4688 34.8177 62.4948 34.8672 62.5469C34.9193 62.5964 34.9453 62.6576 34.9453 62.7305C34.9453 62.8034 34.9193 62.8646 34.8672 62.9141C34.8177 62.9661 34.7565 62.9922 34.6836 62.9922H33.2695ZM37.5391 62.7852V61.8438C37.5391 61.7786 37.5052 61.7448 37.4375 61.7422H36.0703C36.0208 61.7448 35.9779 61.7669 35.9414 61.8086C35.9049 61.8477 35.8776 61.8945 35.8594 61.9492C35.8438 62.0013 35.8359 62.0547 35.8359 62.1094C35.8359 62.1615 35.8438 62.2148 35.8594 62.2695C35.8776 62.3216 35.9049 62.3685 35.9414 62.4102C35.9779 62.4492 36.0208 62.4688 36.0703 62.4688H37.0703C37.1432 62.4688 37.2044 62.4948 37.2539 62.5469C37.306 62.5964 37.332 62.6576 37.332 62.7305C37.332 62.8034 37.306 62.8646 37.2539 62.9141C37.2044 62.9661 37.1432 62.9922 37.0703 62.9922H36.0859C35.9036 62.9896 35.7526 62.9388 35.6328 62.8398C35.5156 62.7383 35.431 62.625 35.3789 62.5C35.3294 62.3724 35.3047 62.2409 35.3047 62.1055C35.3047 61.9753 35.3307 61.8477 35.3828 61.7227C35.4349 61.5951 35.5195 61.4818 35.6367 61.3828C35.7539 61.2812 35.9271 61.2266 36.1562 61.2188H37.7969C37.8698 61.2188 37.9323 61.2435 37.9844 61.293C38.0365 61.3398 38.0638 61.3997 38.0664 61.4727V62.7852C38.0664 62.8581 38.0391 62.9193 37.9844 62.9688C37.9323 63.0156 37.8698 63.0391 37.7969 63.0391C37.6406 63.026 37.5547 62.9414 37.5391 62.7852ZM39.8164 61.1602C39.9518 61.1602 40.0846 61.1758 40.2148 61.207C40.3477 61.2383 40.474 61.2852 40.5938 61.3477C40.7135 61.4076 40.819 61.4883 40.9102 61.5898C41.0039 61.6914 41.0547 61.8125 41.0625 61.9531V62.1172V62.7852C41.0469 62.9414 40.9609 63.026 40.8047 63.0391C40.7318 63.0391 40.668 63.0156 40.6133 62.9688C40.5612 62.9193 40.5352 62.8581 40.5352 62.7852V62.6133V62.0742C40.5299 61.9935 40.4987 61.9271 40.4414 61.875C40.3867 61.8203 40.3242 61.7773 40.2539 61.7461C40.1862 61.7148 40.1146 61.6914 40.0391 61.6758C39.9661 61.6602 39.8919 61.6523 39.8164 61.6523C39.7409 61.6523 39.6654 61.6602 39.5898 61.6758C39.5169 61.6914 39.4453 61.7148 39.375 61.7461C39.3073 61.7773 39.2448 61.8203 39.1875 61.875C39.1328 61.9271 39.1029 61.9935 39.0977 62.0742V62.6133V62.7852C39.0846 62.9414 39 63.026 38.8438 63.0391C38.7708 63.0391 38.707 63.0156 38.6523 62.9688C38.6003 62.9193 38.5742 62.8581 38.5742 62.7852V62.1172V61.9531C38.582 61.8125 38.6315 61.6914 38.7227 61.5898C38.8138 61.4883 38.9193 61.4076 39.0391 61.3477C39.1589 61.2852 39.2839 61.2383 39.4141 61.207C39.5469 61.1758 39.681 61.1602 39.8164 61.1602ZM43.8281 60.625C43.8984 60.6276 43.9583 60.6536 44.0078 60.7031C44.0573 60.75 44.0833 60.8086 44.0859 60.8789V62.793C44.0703 62.9492 43.9844 63.0339 43.8281 63.0469C43.7552 63.0469 43.6914 63.0234 43.6367 62.9766C43.5846 62.9271 43.5586 62.8659 43.5586 62.793V60.8789C43.5612 60.806 43.5885 60.7461 43.6406 60.6992C43.6927 60.6497 43.7552 60.625 43.8281 60.625ZM45.3906 62.9922C45.1615 62.9844 44.9883 62.931 44.8711 62.832C44.7539 62.7305 44.6693 62.6172 44.6172 62.4922C44.5651 62.3646 44.5391 62.2357 44.5391 62.1055C44.5391 61.9701 44.5638 61.8398 44.6133 61.7148C44.6654 61.5872 44.75 61.474 44.8672 61.375C44.987 61.2734 45.138 61.2214 45.3203 61.2188H46.5859C46.7682 61.2214 46.918 61.2734 47.0352 61.375C47.1549 61.474 47.2396 61.5872 47.2891 61.7148C47.3411 61.8398 47.3672 61.9701 47.3672 62.1055C47.3672 62.2357 47.3411 62.3646 47.2891 62.4922C47.237 62.6172 47.1523 62.7305 47.0352 62.832C46.918 62.931 46.7448 62.9844 46.5156 62.9922H45.3906ZM45.3047 61.7422C45.2552 61.7422 45.2122 61.763 45.1758 61.8047C45.1393 61.8438 45.112 61.8906 45.0938 61.9453C45.0781 61.9974 45.0703 62.0495 45.0703 62.1016C45.0703 62.1562 45.0781 62.2109 45.0938 62.2656C45.112 62.3177 45.1393 62.3646 45.1758 62.4062C45.2122 62.4453 45.2552 62.4661 45.3047 62.4688H46.6016C46.651 62.4661 46.694 62.4453 46.7305 62.4062C46.7669 62.3646 46.793 62.3177 46.8086 62.2656C46.8268 62.2109 46.8359 62.1562 46.8359 62.1016C46.8359 62.0495 46.8268 61.9974 46.8086 61.9453C46.793 61.8906 46.7669 61.8438 46.7305 61.8047C46.694 61.763 46.651 61.7422 46.6016 61.7422H45.3047ZM48.6094 62.9922C48.3802 62.9844 48.207 62.931 48.0898 62.832C47.9727 62.7305 47.888 62.6172 47.8359 62.4922C47.7839 62.3646 47.7578 62.2357 47.7578 62.1055C47.7578 61.9701 47.7826 61.8398 47.832 61.7148C47.8841 61.5872 47.9688 61.474 48.0859 61.375C48.2057 61.2734 48.3568 61.2214 48.5391 61.2188H50.0234C50.0964 61.2188 50.1576 61.2448 50.207 61.2969C50.2591 61.3464 50.2852 61.4076 50.2852 61.4805C50.2852 61.5534 50.2591 61.6159 50.207 61.668C50.1576 61.7174 50.0964 61.7422 50.0234 61.7422H48.5234C48.474 61.7422 48.431 61.763 48.3945 61.8047C48.3581 61.8438 48.3307 61.8906 48.3125 61.9453C48.2969 61.9974 48.2891 62.0495 48.2891 62.1016C48.2891 62.1562 48.2969 62.2109 48.3125 62.2656C48.3307 62.3177 48.3581 62.3646 48.3945 62.4062C48.431 62.4453 48.474 62.4661 48.5234 62.4688H50.0234C50.0964 62.4688 50.1576 62.4948 50.207 62.5469C50.2591 62.5964 50.2852 62.6576 50.2852 62.7305C50.2852 62.8034 50.2591 62.8646 50.207 62.9141C50.1576 62.9661 50.0964 62.9922 50.0234 62.9922H48.6094ZM50.9648 60.625C51.0352 60.6276 51.0951 60.6536 51.1445 60.7031C51.194 60.75 51.2201 60.8086 51.2227 60.8789V62.793C51.207 62.9492 51.1211 63.0339 50.9648 63.0469C50.8919 63.0469 50.8281 63.0234 50.7734 62.9766C50.7214 62.9271 50.6953 62.8659 50.6953 62.793V60.8789C50.6979 60.806 50.7253 60.7461 50.7773 60.6992C50.8294 60.6497 50.8919 60.625 50.9648 60.625ZM51.4609 61.7148C51.5365 61.5924 51.681 61.5026 51.8945 61.4453L52.8984 61.1758C52.9688 61.1549 53.0352 61.1615 53.0977 61.1953C53.1628 61.2266 53.2057 61.2773 53.2266 61.3477C53.25 61.4154 53.2448 61.4818 53.2109 61.5469C53.1797 61.6094 53.1289 61.6523 53.0586 61.6758L51.9883 61.9531C51.9128 61.9818 51.8763 62.0312 51.8789 62.1016C51.8763 62.1719 51.9128 62.2214 51.9883 62.25L53.0586 62.5273C53.1289 62.5508 53.1797 62.5951 53.2109 62.6602C53.2448 62.7227 53.25 62.7878 53.2266 62.8555C53.2057 62.9258 53.1628 62.9766 53.0977 63.0078C53.0352 63.0417 52.9688 63.0482 52.8984 63.0273L51.8945 62.7578C51.6784 62.6979 51.5326 62.6068 51.457 62.4844C51.3841 62.362 51.3477 62.2344 51.3477 62.1016C51.3477 61.9688 51.3854 61.8398 51.4609 61.7148ZM56.4961 60.625C56.569 60.625 56.6315 60.6497 56.6836 60.6992C56.7357 60.7461 56.763 60.806 56.7656 60.8789V61.2188H58.0938C58.1667 61.2188 58.2292 61.2435 58.2812 61.293C58.3307 61.3451 58.3555 61.4076 58.3555 61.4805C58.3555 61.5534 58.3294 61.6159 58.2773 61.668C58.2279 61.7174 58.1667 61.7422 58.0938 61.7422H56.7656V61.8203C56.763 61.9271 56.7695 62.026 56.7852 62.1172C56.8034 62.2057 56.8451 62.2852 56.9102 62.3555C56.9753 62.4258 57.0573 62.4635 57.1562 62.4688H58.1094C58.1823 62.4714 58.2422 62.4987 58.2891 62.5508C58.3385 62.6029 58.3633 62.6654 58.3633 62.7383C58.3607 62.8086 58.3346 62.8685 58.2852 62.918C58.2383 62.9648 58.1797 62.9896 58.1094 62.9922H57.0234C56.8411 62.9818 56.6901 62.9206 56.5703 62.8086C56.4531 62.694 56.3685 62.5547 56.3164 62.3906C56.2669 62.2266 56.2409 62.0521 56.2383 61.8672V61.7422H55.7891C55.7161 61.7422 55.6549 61.7161 55.6055 61.6641C55.5534 61.6146 55.5273 61.5534 55.5273 61.4805C55.5273 61.4076 55.5521 61.3464 55.6016 61.2969C55.6536 61.2448 55.7161 61.2188 55.7891 61.2188H56.2383V60.8789C56.2409 60.8086 56.2669 60.75 56.3164 60.7031C56.3659 60.6536 56.4258 60.6276 56.4961 60.625ZM59.0078 60.625C59.0781 60.6276 59.138 60.6536 59.1875 60.7031C59.237 60.75 59.263 60.8086 59.2656 60.8789V61.2188H60.4766C60.6589 61.2214 60.8086 61.2734 60.9258 61.375C61.0456 61.474 61.1302 61.5859 61.1797 61.7109C61.2318 61.8385 61.2578 61.9701 61.2578 62.1055H61.2617V62.7852C61.2617 62.8581 61.2344 62.9193 61.1797 62.9688C61.1276 63.0156 61.0651 63.0391 60.9922 63.0391C60.8359 63.026 60.75 62.9414 60.7344 62.7852V62.1016C60.7344 62.0521 60.724 62 60.7031 61.9453C60.6849 61.8906 60.6576 61.8438 60.6211 61.8047C60.5846 61.763 60.5417 61.7422 60.4922 61.7422H59.2656V62.793C59.25 62.9492 59.1641 63.0339 59.0078 63.0469C58.9349 63.0469 58.8711 63.0234 58.8164 62.9766C58.7643 62.9271 58.7383 62.8659 58.7383 62.793V60.8789C58.7409 60.806 58.7682 60.7461 58.8203 60.6992C58.8724 60.6497 58.9349 60.625 59.0078 60.625ZM62.0234 61.1797C62.0938 61.1823 62.1536 61.2083 62.2031 61.2578C62.2526 61.3047 62.2786 61.3633 62.2812 61.4336V62.7852C62.2656 62.9414 62.1797 63.026 62.0234 63.0391C61.9505 63.0391 61.8867 63.0156 61.832 62.9688C61.7799 62.9193 61.7539 62.8581 61.7539 62.7852V61.4336C61.7565 61.3607 61.7839 61.3008 61.8359 61.2539C61.888 61.2044 61.9505 61.1797 62.0234 61.1797ZM61.6953 60.6719C61.6953 60.599 61.7266 60.5365 61.7891 60.4844C61.8516 60.4323 61.9271 60.4062 62.0156 60.4062C62.1042 60.4062 62.1797 60.4323 62.2422 60.4844C62.3047 60.5365 62.3359 60.599 62.3359 60.6719C62.3359 60.7474 62.3047 60.8112 62.2422 60.8633C62.1797 60.9154 62.1042 60.9414 62.0156 60.9414C61.9271 60.9414 61.8516 60.9154 61.7891 60.8633C61.7266 60.8112 61.6953 60.7474 61.6953 60.6719ZM65.2383 61.4453C65.2383 61.5104 65.2122 61.5651 65.1602 61.6094C65.1107 61.651 65.0495 61.6719 64.9766 61.6719H63.3242C63.2904 61.6719 63.263 61.6784 63.2422 61.6914C63.2214 61.7044 63.2057 61.7188 63.1953 61.7344C63.1849 61.7474 63.1797 61.7591 63.1797 61.7695C63.1797 61.7826 63.1849 61.7969 63.1953 61.8125C63.2057 61.8255 63.2214 61.8385 63.2422 61.8516C63.263 61.862 63.2904 61.8685 63.3242 61.8711H64.6016C64.7656 61.8737 64.901 61.9062 65.0078 61.9688C65.1146 62.0286 65.1901 62.1003 65.2344 62.1836C65.2812 62.2643 65.3047 62.3464 65.3047 62.4297C65.3047 62.5104 65.2812 62.5924 65.2344 62.6758C65.1875 62.7565 65.1107 62.8281 65.0039 62.8906C64.8997 62.9505 64.7656 62.9805 64.6016 62.9805C64.5729 62.9831 64.5521 62.9844 64.5391 62.9844H63.0234C62.9505 62.9844 62.888 62.9635 62.8359 62.9219C62.7865 62.8776 62.7617 62.8242 62.7617 62.7617C62.7617 62.6966 62.7878 62.6419 62.8398 62.5977C62.8893 62.556 62.9505 62.5352 63.0234 62.5352H64.6328C64.6719 62.5378 64.7031 62.5326 64.7266 62.5195C64.7526 62.5065 64.7721 62.4922 64.7852 62.4766C64.7982 62.4609 64.8047 62.4453 64.8047 62.4297C64.8047 62.4219 64.7982 62.4089 64.7852 62.3906C64.7721 62.3698 64.7526 62.3542 64.7266 62.3438C64.7031 62.3307 64.6719 62.3229 64.6328 62.3203H63.3516C63.2005 62.3177 63.0755 62.2865 62.9766 62.2266C62.8776 62.1641 62.8073 62.0924 62.7656 62.0117C62.724 61.931 62.7031 61.8503 62.7031 61.7695C62.7031 61.6888 62.724 61.6094 62.7656 61.5312C62.8099 61.4505 62.8802 61.3815 62.9766 61.3242C63.0755 61.2643 63.2005 61.2318 63.3516 61.2266C63.3776 61.224 63.3971 61.2227 63.4102 61.2227H64.9766C65.0495 61.2227 65.1107 61.2448 65.1602 61.2891C65.2122 61.3307 65.2383 61.3828 65.2383 61.4453ZM68.2656 60.8789V62.3672C68.2656 62.4323 68.2995 62.4661 68.3672 62.4688H69.7344C69.7839 62.4661 69.8268 62.4453 69.8633 62.4062C69.8997 62.3646 69.9258 62.3177 69.9414 62.2656C69.9596 62.2109 69.9688 62.1562 69.9688 62.1016C69.9688 62.0495 69.9596 61.9974 69.9414 61.9453C69.9258 61.8906 69.8997 61.8438 69.8633 61.8047C69.8268 61.763 69.7839 61.7422 69.7344 61.7422H68.7344C68.6615 61.7422 68.599 61.7174 68.5469 61.668C68.4974 61.6159 68.4727 61.5534 68.4727 61.4805C68.4727 61.4076 68.4987 61.3464 68.5508 61.2969C68.6003 61.2448 68.6615 61.2188 68.7344 61.2188H69.7188C69.901 61.2214 70.0508 61.2734 70.168 61.375C70.2878 61.474 70.3724 61.5872 70.4219 61.7148C70.474 61.8398 70.5 61.9701 70.5 62.1055C70.5 62.2357 70.474 62.3646 70.4219 62.4922C70.3698 62.6172 70.2852 62.7305 70.168 62.832C70.0508 62.931 69.8776 62.9844 69.6484 62.9922H68.0078C67.9349 62.9922 67.8724 62.9688 67.8203 62.9219C67.7682 62.8724 67.7409 62.8112 67.7383 62.7383V60.8789C67.7383 60.806 67.7643 60.7461 67.8164 60.6992C67.8711 60.6497 67.9349 60.625 68.0078 60.625C68.1641 60.638 68.25 60.7227 68.2656 60.8789ZM71.1836 61.1719C71.2565 61.1719 71.319 61.1966 71.3711 61.2461C71.4232 61.293 71.4505 61.3529 71.4531 61.4258V61.8203C71.4505 61.9271 71.457 62.026 71.4727 62.1172C71.4909 62.2057 71.5326 62.2852 71.5977 62.3555C71.6628 62.4258 71.7448 62.4635 71.8438 62.4688H72.8867V61.4336C72.8867 61.3607 72.9128 61.3008 72.9648 61.2539C73.0195 61.2044 73.0833 61.1797 73.1562 61.1797C73.3125 61.1927 73.3984 61.2773 73.4141 61.4336V62.707C73.4141 62.9154 73.3854 63.112 73.3281 63.2969C73.276 63.4609 73.1901 63.599 73.0703 63.7109C72.9531 63.8255 72.8034 63.888 72.6211 63.8984H71.2695C71.1992 63.8958 71.1393 63.8698 71.0898 63.8203C71.043 63.7734 71.0182 63.7148 71.0156 63.6445C71.0156 63.5716 71.0391 63.5091 71.0859 63.457C71.1354 63.4049 71.1966 63.3776 71.2695 63.375H72.4883C72.5872 63.3698 72.6693 63.332 72.7344 63.2617C72.7995 63.1914 72.8411 63.1094 72.8594 63.0156C72.862 63.0078 72.8633 63 72.8633 62.9922H71.7109C71.5286 62.9818 71.3776 62.9206 71.2578 62.8086C71.1406 62.694 71.056 62.5547 71.0039 62.3906C70.9544 62.2266 70.9284 62.0521 70.9258 61.8672V61.4258C70.9284 61.3555 70.9544 61.2969 71.0039 61.25C71.0534 61.2005 71.1133 61.1745 71.1836 61.1719ZM22.0742 67.043C21.9857 67.043 21.8971 67.0273 21.8086 66.9961C21.7227 66.9648 21.6393 66.9193 21.5586 66.8594C21.4779 66.7969 21.4076 66.7148 21.3477 66.6133C21.2878 66.5117 21.2552 66.3906 21.25 66.25V65.418C21.25 65.3451 21.276 65.2852 21.3281 65.2383C21.3828 65.1888 21.4466 65.1641 21.5195 65.1641C21.6758 65.1771 21.7604 65.2617 21.7734 65.418V66.2188C21.776 66.2812 21.7891 66.3346 21.8125 66.3789C21.8359 66.4206 21.862 66.4544 21.8906 66.4805C21.9193 66.5039 21.9479 66.5221 21.9766 66.5352C22.0078 66.5456 22.0391 66.5508 22.0703 66.5508C22.1016 66.5508 22.1328 66.5456 22.1641 66.5352C22.1953 66.5221 22.2253 66.5039 22.2539 66.4805C22.2826 66.4544 22.3086 66.4206 22.332 66.3789C22.3555 66.3346 22.3672 66.2812 22.3672 66.2188V65.418C22.3672 65.3451 22.3932 65.2852 22.4453 65.2383C22.5 65.1888 22.5638 65.1641 22.6367 65.1641C22.793 65.1771 22.8789 65.2617 22.8945 65.418V66.2188C22.8971 66.2812 22.9102 66.3333 22.9336 66.375C22.957 66.4193 22.9831 66.4544 23.0117 66.4805C23.0404 66.5039 23.069 66.5221 23.0977 66.5352C23.1289 66.5456 23.1602 66.5508 23.1914 66.5508C23.2227 66.5508 23.2539 66.5456 23.2852 66.5352C23.3164 66.5221 23.3464 66.5039 23.375 66.4805C23.4036 66.4544 23.4297 66.4206 23.4531 66.3789C23.4766 66.3346 23.4883 66.2812 23.4883 66.2188V65.418C23.4883 65.3451 23.5143 65.2852 23.5664 65.2383C23.6211 65.1888 23.6849 65.1641 23.7578 65.1641C23.9141 65.1771 24 65.2617 24.0156 65.418V66.25C24.0156 66.3906 23.9844 66.5117 23.9219 66.6133C23.862 66.7148 23.7917 66.7969 23.7109 66.8594C23.6328 66.9193 23.5495 66.9648 23.4609 66.9961C23.375 67.0273 23.2865 67.043 23.1953 67.043C23.1068 67.043 23.0182 67.0273 22.9297 66.9961C22.8438 66.9648 22.7604 66.918 22.6797 66.8555C22.6641 66.8451 22.6497 66.8333 22.6367 66.8203C22.6211 66.8333 22.6068 66.8451 22.5938 66.8555C22.513 66.918 22.4284 66.9648 22.3398 66.9961C22.2539 67.0273 22.1654 67.043 22.0742 67.043ZM24.8008 65.1797C24.8711 65.1823 24.931 65.2083 24.9805 65.2578C25.0299 65.3047 25.056 65.3633 25.0586 65.4336V66.7852C25.043 66.9414 24.957 67.026 24.8008 67.0391C24.7279 67.0391 24.6641 67.0156 24.6094 66.9688C24.5573 66.9193 24.5312 66.8581 24.5312 66.7852V65.4336C24.5339 65.3607 24.5612 65.3008 24.6133 65.2539C24.6654 65.2044 24.7279 65.1797 24.8008 65.1797ZM24.4727 64.6719C24.4727 64.599 24.5039 64.5365 24.5664 64.4844C24.6289 64.4323 24.7044 64.4062 24.793 64.4062C24.8815 64.4062 24.957 64.4323 25.0195 64.4844C25.082 64.5365 25.1133 64.599 25.1133 64.6719C25.1133 64.7474 25.082 64.8112 25.0195 64.8633C24.957 64.9154 24.8815 64.9414 24.793 64.9414C24.7044 64.9414 24.6289 64.9154 24.5664 64.8633C24.5039 64.8112 24.4727 64.7474 24.4727 64.6719ZM26.7812 65.1602C26.9167 65.1602 27.0495 65.1758 27.1797 65.207C27.3125 65.2383 27.4388 65.2852 27.5586 65.3477C27.6784 65.4076 27.7839 65.4883 27.875 65.5898C27.9688 65.6914 28.0195 65.8125 28.0273 65.9531V66.1172V66.7852C28.0117 66.9414 27.9258 67.026 27.7695 67.0391C27.6966 67.0391 27.6328 67.0156 27.5781 66.9688C27.526 66.9193 27.5 66.8581 27.5 66.7852V66.6133V66.0742C27.4948 65.9935 27.4635 65.9271 27.4062 65.875C27.3516 65.8203 27.2891 65.7773 27.2188 65.7461C27.151 65.7148 27.0794 65.6914 27.0039 65.6758C26.931 65.6602 26.8568 65.6523 26.7812 65.6523C26.7057 65.6523 26.6302 65.6602 26.5547 65.6758C26.4818 65.6914 26.4102 65.7148 26.3398 65.7461C26.2721 65.7773 26.2096 65.8203 26.1523 65.875C26.0977 65.9271 26.0677 65.9935 26.0625 66.0742V66.6133V66.7852C26.0495 66.9414 25.9648 67.026 25.8086 67.0391C25.7357 67.0391 25.6719 67.0156 25.6172 66.9688C25.5651 66.9193 25.5391 66.8581 25.5391 66.7852V66.1172V65.9531C25.5469 65.8125 25.5964 65.6914 25.6875 65.5898C25.7786 65.4883 25.8841 65.4076 26.0039 65.3477C26.1237 65.2852 26.2487 65.2383 26.3789 65.207C26.5117 65.1758 26.6458 65.1602 26.7812 65.1602ZM28.793 65.1797C28.8633 65.1823 28.9232 65.2083 28.9727 65.2578C29.0221 65.3047 29.0482 65.3633 29.0508 65.4336V66.7852C29.0352 66.9414 28.9492 67.026 28.793 67.0391C28.7201 67.0391 28.6562 67.0156 28.6016 66.9688C28.5495 66.9193 28.5234 66.8581 28.5234 66.7852V65.4336C28.526 65.3607 28.5534 65.3008 28.6055 65.2539C28.6576 65.2044 28.7201 65.1797 28.793 65.1797ZM28.4648 64.6719C28.4648 64.599 28.4961 64.5365 28.5586 64.4844C28.6211 64.4323 28.6966 64.4062 28.7852 64.4062C28.8737 64.4062 28.9492 64.4323 29.0117 64.4844C29.0742 64.5365 29.1055 64.599 29.1055 64.6719C29.1055 64.7474 29.0742 64.8112 29.0117 64.8633C28.9492 64.9154 28.8737 64.9414 28.7852 64.9414C28.6966 64.9414 28.6211 64.9154 28.5586 64.8633C28.4961 64.8112 28.4648 64.7474 28.4648 64.6719ZM30.7734 65.1602C30.9089 65.1602 31.0417 65.1758 31.1719 65.207C31.3047 65.2383 31.431 65.2852 31.5508 65.3477C31.6706 65.4076 31.776 65.4883 31.8672 65.5898C31.9609 65.6914 32.0117 65.8125 32.0195 65.9531V66.1172V66.7852C32.0039 66.9414 31.918 67.026 31.7617 67.0391C31.6888 67.0391 31.625 67.0156 31.5703 66.9688C31.5182 66.9193 31.4922 66.8581 31.4922 66.7852V66.6133V66.0742C31.487 65.9935 31.4557 65.9271 31.3984 65.875C31.3438 65.8203 31.2812 65.7773 31.2109 65.7461C31.1432 65.7148 31.0716 65.6914 30.9961 65.6758C30.9232 65.6602 30.849 65.6523 30.7734 65.6523C30.6979 65.6523 30.6224 65.6602 30.5469 65.6758C30.474 65.6914 30.4023 65.7148 30.332 65.7461C30.2643 65.7773 30.2018 65.8203 30.1445 65.875C30.0898 65.9271 30.0599 65.9935 30.0547 66.0742V66.6133V66.7852C30.0417 66.9414 29.957 67.026 29.8008 67.0391C29.7279 67.0391 29.6641 67.0156 29.6094 66.9688C29.5573 66.9193 29.5312 66.8581 29.5312 66.7852V66.1172V65.9531C29.5391 65.8125 29.5885 65.6914 29.6797 65.5898C29.7708 65.4883 29.8763 65.4076 29.9961 65.3477C30.1159 65.2852 30.2409 65.2383 30.3711 65.207C30.5039 65.1758 30.638 65.1602 30.7734 65.1602ZM34.707 65.8438C34.707 65.7786 34.6732 65.7448 34.6055 65.7422H33.2383C33.1888 65.7448 33.1458 65.7669 33.1094 65.8086C33.0729 65.8477 33.0456 65.8945 33.0273 65.9492C33.0117 66.0013 33.0039 66.0547 33.0039 66.1094C33.0039 66.1615 33.0117 66.2148 33.0273 66.2695C33.0456 66.3216 33.0729 66.3685 33.1094 66.4102C33.1458 66.4492 33.1888 66.4688 33.2383 66.4688H34.2383C34.3112 66.4688 34.3724 66.4948 34.4219 66.5469C34.474 66.5964 34.5 66.6576 34.5 66.7305C34.5 66.8034 34.474 66.8646 34.4219 66.9141C34.3724 66.9661 34.3112 66.9922 34.2383 66.9922H33.2539C33.0716 66.9896 32.9206 66.9388 32.8008 66.8398C32.6836 66.7383 32.599 66.625 32.5469 66.5C32.4974 66.3724 32.4727 66.2409 32.4727 66.1055C32.4727 65.9753 32.4987 65.8477 32.5508 65.7227C32.6029 65.5951 32.6875 65.4818 32.8047 65.3828C32.9219 65.2812 33.0951 65.2266 33.3242 65.2188H34.9648C35.0378 65.2188 35.1003 65.2435 35.1523 65.293C35.2044 65.3398 35.2318 65.3997 35.2344 65.4727V66.707C35.2344 66.9154 35.2057 67.112 35.1484 67.2969C35.0964 67.4609 35.0104 67.599 34.8906 67.7109C34.7734 67.8255 34.6237 67.888 34.4414 67.8984H33.0898C33.0195 67.8958 32.9596 67.8698 32.9102 67.8203C32.8633 67.7734 32.8385 67.7148 32.8359 67.6445C32.8359 67.5716 32.8594 67.5091 32.9062 67.457C32.9557 67.4049 33.0169 67.3776 33.0898 67.375H34.3086C34.4076 67.3698 34.4896 67.332 34.5547 67.2617C34.6198 67.1914 34.6615 67.1094 34.6797 67.0156C34.6979 66.9219 34.707 66.8008 34.707 66.6523V65.8438ZM38.0312 65.1797C38.1016 65.1823 38.1615 65.2083 38.2109 65.2578C38.2604 65.3047 38.2865 65.3633 38.2891 65.4336V66.7852C38.2734 66.9414 38.1875 67.026 38.0312 67.0391C37.9583 67.0391 37.8945 67.0156 37.8398 66.9688C37.7878 66.9193 37.7617 66.8581 37.7617 66.7852V65.4336C37.7643 65.3607 37.7917 65.3008 37.8438 65.2539C37.8958 65.2044 37.9583 65.1797 38.0312 65.1797ZM37.7031 64.6719C37.7031 64.599 37.7344 64.5365 37.7969 64.4844C37.8594 64.4323 37.9349 64.4062 38.0234 64.4062C38.112 64.4062 38.1875 64.4323 38.25 64.4844C38.3125 64.5365 38.3438 64.599 38.3438 64.6719C38.3438 64.7474 38.3125 64.8112 38.25 64.8633C38.1875 64.9154 38.112 64.9414 38.0234 64.9414C37.9349 64.9414 37.8594 64.9154 37.7969 64.8633C37.7344 64.8112 37.7031 64.7474 37.7031 64.6719ZM40.0117 65.1602C40.1471 65.1602 40.2799 65.1758 40.4102 65.207C40.543 65.2383 40.6693 65.2852 40.7891 65.3477C40.9089 65.4076 41.0143 65.4883 41.1055 65.5898C41.1992 65.6914 41.25 65.8125 41.2578 65.9531V66.1172V66.7852C41.2422 66.9414 41.1562 67.026 41 67.0391C40.9271 67.0391 40.8633 67.0156 40.8086 66.9688C40.7565 66.9193 40.7305 66.8581 40.7305 66.7852V66.6133V66.0742C40.7253 65.9935 40.694 65.9271 40.6367 65.875C40.582 65.8203 40.5195 65.7773 40.4492 65.7461C40.3815 65.7148 40.3099 65.6914 40.2344 65.6758C40.1615 65.6602 40.0872 65.6523 40.0117 65.6523C39.9362 65.6523 39.8607 65.6602 39.7852 65.6758C39.7122 65.6914 39.6406 65.7148 39.5703 65.7461C39.5026 65.7773 39.4401 65.8203 39.3828 65.875C39.3281 65.9271 39.2982 65.9935 39.293 66.0742V66.6133V66.7852C39.2799 66.9414 39.1953 67.026 39.0391 67.0391C38.9661 67.0391 38.9023 67.0156 38.8477 66.9688C38.7956 66.9193 38.7695 66.8581 38.7695 66.7852V66.1172V65.9531C38.7773 65.8125 38.8268 65.6914 38.918 65.5898C39.0091 65.4883 39.1146 65.4076 39.2344 65.3477C39.3542 65.2852 39.4792 65.2383 39.6094 65.207C39.7422 65.1758 39.8763 65.1602 40.0117 65.1602ZM43.7812 66.7227C43.7812 66.6497 43.8073 66.5885 43.8594 66.5391C43.9089 66.487 43.9701 66.4609 44.043 66.4609H45.6445C45.694 66.4583 45.7344 66.4466 45.7656 66.4258C45.7995 66.4049 45.8242 66.3815 45.8398 66.3555C45.8555 66.3294 45.8633 66.3021 45.8633 66.2734C45.8633 66.2448 45.8555 66.2174 45.8398 66.1914C45.8242 66.1654 45.7995 66.1419 45.7656 66.1211C45.7344 66.1003 45.694 66.0885 45.6445 66.0859H44.5352C44.3529 66.0807 44.2018 66.0391 44.082 65.9609C43.9648 65.8802 43.8802 65.7891 43.8281 65.6875C43.7786 65.5833 43.7539 65.4779 43.7539 65.3711V65.1016C43.7565 64.9688 43.7956 64.8672 43.8711 64.7969C43.9492 64.724 44.0612 64.6875 44.207 64.6875H46.1211C46.194 64.6875 46.2552 64.7135 46.3047 64.7656C46.3568 64.8151 46.3828 64.8763 46.3828 64.9492C46.3828 65.0221 46.3568 65.0833 46.3047 65.1328C46.2552 65.1849 46.194 65.2109 46.1211 65.2109H44.418C44.3685 65.2083 44.3346 65.2161 44.3164 65.2344C44.3008 65.2526 44.293 65.2786 44.293 65.3125V65.3711C44.293 65.3893 44.3008 65.4154 44.3164 65.4492C44.332 65.4805 44.3555 65.5065 44.3867 65.5273C44.4206 65.5482 44.4622 65.5599 44.5117 65.5625H45.6211C45.8034 65.5651 45.9531 65.6068 46.0703 65.6875C46.1901 65.7656 46.2747 65.8568 46.3242 65.9609C46.3763 66.0625 46.4023 66.1667 46.4023 66.2734C46.4023 66.375 46.3763 66.4779 46.3242 66.582C46.2721 66.6836 46.1875 66.7747 46.0703 66.8555C45.9531 66.9336 45.8034 66.9753 45.6211 66.9805H45.5977C45.582 66.9831 45.5664 66.9844 45.5508 66.9844H44.043C43.9701 66.9844 43.9076 66.9596 43.8555 66.9102C43.806 66.8581 43.7812 66.7956 43.7812 66.7227ZM51.0703 65.8438C51.0703 65.7786 51.0365 65.7448 50.9688 65.7422H49.6016C49.5521 65.7448 49.5091 65.7669 49.4727 65.8086C49.4362 65.8477 49.4089 65.8945 49.3906 65.9492C49.375 66.0013 49.3672 66.0547 49.3672 66.1094C49.3672 66.1615 49.375 66.2148 49.3906 66.2695C49.4089 66.3216 49.4362 66.3685 49.4727 66.4102C49.5091 66.4492 49.5521 66.4688 49.6016 66.4688H50.6016C50.6745 66.4688 50.7357 66.4948 50.7852 66.5469C50.8372 66.5964 50.8633 66.6576 50.8633 66.7305C50.8633 66.8034 50.8372 66.8646 50.7852 66.9141C50.7357 66.9661 50.6745 66.9922 50.6016 66.9922H49.6172C49.4349 66.9896 49.2839 66.9388 49.1641 66.8398C49.0469 66.7383 48.9622 66.625 48.9102 66.5C48.8607 66.3724 48.8359 66.2409 48.8359 66.1055C48.8359 65.9753 48.862 65.8477 48.9141 65.7227C48.9661 65.5951 49.0508 65.4818 49.168 65.3828C49.2852 65.2812 49.4583 65.2266 49.6875 65.2188H51.3281C51.401 65.2188 51.4635 65.2435 51.5156 65.293C51.5677 65.3398 51.5951 65.3997 51.5977 65.4727V66.707C51.5977 66.9154 51.569 67.112 51.5117 67.2969C51.4596 67.4609 51.3737 67.599 51.2539 67.7109C51.1367 67.8255 50.987 67.888 50.8047 67.8984H49.4531C49.3828 67.8958 49.3229 67.8698 49.2734 67.8203C49.2266 67.7734 49.2018 67.7148 49.1992 67.6445C49.1992 67.5716 49.2227 67.5091 49.2695 67.457C49.319 67.4049 49.3802 67.3776 49.4531 67.375H50.6719C50.7708 67.3698 50.8529 67.332 50.918 67.2617C50.9831 67.1914 51.0247 67.1094 51.043 67.0156C51.0612 66.9219 51.0703 66.8008 51.0703 66.6523V65.8438ZM54.3086 66.7852V65.8438C54.3086 65.7786 54.2747 65.7448 54.207 65.7422H52.8398C52.7904 65.7448 52.7474 65.7669 52.7109 65.8086C52.6745 65.8477 52.6471 65.8945 52.6289 65.9492C52.6133 66.0013 52.6055 66.0547 52.6055 66.1094C52.6055 66.1615 52.6133 66.2148 52.6289 66.2695C52.6471 66.3216 52.6745 66.3685 52.7109 66.4102C52.7474 66.4492 52.7904 66.4688 52.8398 66.4688H53.8398C53.9128 66.4688 53.974 66.4948 54.0234 66.5469C54.0755 66.5964 54.1016 66.6576 54.1016 66.7305C54.1016 66.8034 54.0755 66.8646 54.0234 66.9141C53.974 66.9661 53.9128 66.9922 53.8398 66.9922H52.8555C52.6732 66.9896 52.5221 66.9388 52.4023 66.8398C52.2852 66.7383 52.2005 66.625 52.1484 66.5C52.099 66.3724 52.0742 66.2409 52.0742 66.1055C52.0742 65.9753 52.1003 65.8477 52.1523 65.7227C52.2044 65.5951 52.2891 65.4818 52.4062 65.3828C52.5234 65.2812 52.6966 65.2266 52.9258 65.2188H54.5664C54.6393 65.2188 54.7018 65.2435 54.7539 65.293C54.806 65.3398 54.8333 65.3997 54.8359 65.4727V66.7852C54.8359 66.8581 54.8086 66.9193 54.7539 66.9688C54.7018 67.0156 54.6393 67.0391 54.5664 67.0391C54.4102 67.026 54.3242 66.9414 54.3086 66.7852ZM56.168 65.1602C56.2591 65.1602 56.3477 65.1758 56.4336 65.207C56.5221 65.2383 56.6068 65.2839 56.6875 65.3438C56.7005 65.3568 56.7148 65.3698 56.7305 65.3828C56.7435 65.3698 56.7578 65.3568 56.7734 65.3438C56.8542 65.2839 56.9375 65.2383 57.0234 65.207C57.112 65.1758 57.2005 65.1602 57.2891 65.1602C57.3802 65.1602 57.4688 65.1758 57.5547 65.207C57.6432 65.2383 57.7266 65.2852 57.8047 65.3477C57.8854 65.4076 57.9557 65.4883 58.0156 65.5898C58.0781 65.6914 58.1094 65.8125 58.1094 65.9531V66.7852C58.0938 66.9414 58.0078 67.026 57.8516 67.0391C57.7786 67.0391 57.7148 67.0156 57.6602 66.9688C57.6081 66.9193 57.582 66.8581 57.582 66.7852V65.9844C57.582 65.9219 57.5703 65.8698 57.5469 65.8281C57.5234 65.7839 57.4974 65.75 57.4688 65.7266C57.4401 65.7005 57.4102 65.6823 57.3789 65.6719C57.3477 65.6589 57.3164 65.6523 57.2852 65.6523C57.2539 65.6523 57.2227 65.6589 57.1914 65.6719C57.1628 65.6823 57.1341 65.7005 57.1055 65.7266C57.0768 65.75 57.0508 65.7839 57.0273 65.8281C57.0039 65.8698 56.9909 65.9219 56.9883 65.9844V66.7852C56.9727 66.9414 56.8867 67.026 56.7305 67.0391C56.6576 67.0391 56.5938 67.0156 56.5391 66.9688C56.487 66.9193 56.4609 66.8581 56.4609 66.7852V65.9844C56.4609 65.9219 56.4492 65.8698 56.4258 65.8281C56.4023 65.7839 56.3763 65.75 56.3477 65.7266C56.319 65.7005 56.2891 65.6823 56.2578 65.6719C56.2266 65.6589 56.1953 65.6523 56.1641 65.6523C56.1328 65.6523 56.1016 65.6589 56.0703 65.6719C56.0417 65.6823 56.013 65.7005 55.9844 65.7266C55.9557 65.75 55.9297 65.7839 55.9062 65.8281C55.8828 65.8698 55.8698 65.9219 55.8672 65.9844V66.7852C55.8542 66.9414 55.7695 67.026 55.6133 67.0391C55.5404 67.0391 55.4766 67.0156 55.4219 66.9688C55.3698 66.9193 55.3438 66.8581 55.3438 66.7852V65.9531C55.349 65.8125 55.3815 65.6914 55.4414 65.5898C55.5013 65.4883 55.5716 65.4076 55.6523 65.3477C55.7331 65.2852 55.8164 65.2383 55.9023 65.207C55.9909 65.1758 56.0794 65.1602 56.168 65.1602ZM59.3945 66.9922C59.1654 66.9844 58.9922 66.931 58.875 66.832C58.7578 66.7305 58.6732 66.6172 58.6211 66.4922C58.569 66.3646 58.543 66.2357 58.543 66.1055C58.543 65.9701 58.5677 65.8398 58.6172 65.7148C58.6693 65.5872 58.7539 65.474 58.8711 65.375C58.9909 65.2734 59.1419 65.2214 59.3242 65.2188H60.8086C60.8815 65.2188 60.9427 65.2435 60.9922 65.293C61.0443 65.3398 61.0703 65.3971 61.0703 65.4648C61.0703 65.5352 61.0443 65.5951 60.9922 65.6445C60.9427 65.6914 60.8815 65.7148 60.8086 65.7148H59.3477C59.2904 65.7148 59.2396 65.7344 59.1953 65.7734C59.1536 65.8125 59.1224 65.8633 59.1016 65.9258C59.0833 65.9883 59.0742 66.0495 59.0742 66.1094C59.0742 66.1745 59.0833 66.2383 59.1016 66.3008C59.1224 66.3633 59.1536 66.4141 59.1953 66.4531C59.2396 66.4896 59.2904 66.5091 59.3477 66.5117H60.8086C60.8815 66.5117 60.9427 66.5352 60.9922 66.582C61.0443 66.6289 61.0703 66.6849 61.0703 66.75C61.0703 66.8177 61.0443 66.875 60.9922 66.9219C60.9427 66.9688 60.8815 66.9922 60.8086 66.9922H59.3945ZM61.0234 66.0977C61.0234 66.1471 61.0013 66.1901 60.957 66.2266C60.918 66.2604 60.8685 66.2773 60.8086 66.2773H59.5312C59.4714 66.2773 59.4206 66.2604 59.3789 66.2266C59.3372 66.1901 59.3164 66.1471 59.3164 66.0977C59.3164 66.0508 59.3372 66.0091 59.3789 65.9727C59.4206 65.9388 59.4714 65.9219 59.5312 65.9219H60.8086C60.8685 65.9219 60.9193 65.9401 60.9609 65.9766C61.0026 66.0104 61.0234 66.0508 61.0234 66.0977ZM63.7891 65.1797C63.8594 65.1823 63.9193 65.2083 63.9688 65.2578C64.0182 65.3047 64.0443 65.3633 64.0469 65.4336V66.7852C64.0312 66.9414 63.9453 67.026 63.7891 67.0391C63.7161 67.0391 63.6523 67.0156 63.5977 66.9688C63.5456 66.9193 63.5195 66.8581 63.5195 66.7852V65.4336C63.5221 65.3607 63.5495 65.3008 63.6016 65.2539C63.6536 65.2044 63.7161 65.1797 63.7891 65.1797ZM63.4609 64.6719C63.4609 64.599 63.4922 64.5365 63.5547 64.4844C63.6172 64.4323 63.6927 64.4062 63.7812 64.4062C63.8698 64.4062 63.9453 64.4323 64.0078 64.4844C64.0703 64.5365 64.1016 64.599 64.1016 64.6719C64.1016 64.7474 64.0703 64.8112 64.0078 64.8633C63.9453 64.9154 63.8698 64.9414 63.7812 64.9414C63.6927 64.9414 63.6172 64.9154 63.5547 64.8633C63.4922 64.8112 63.4609 64.7474 63.4609 64.6719ZM65.7695 65.1602C65.9049 65.1602 66.0378 65.1758 66.168 65.207C66.3008 65.2383 66.4271 65.2852 66.5469 65.3477C66.6667 65.4076 66.7721 65.4883 66.8633 65.5898C66.957 65.6914 67.0078 65.8125 67.0156 65.9531V66.1172V66.7852C67 66.9414 66.9141 67.026 66.7578 67.0391C66.6849 67.0391 66.6211 67.0156 66.5664 66.9688C66.5143 66.9193 66.4883 66.8581 66.4883 66.7852V66.6133V66.0742C66.4831 65.9935 66.4518 65.9271 66.3945 65.875C66.3398 65.8203 66.2773 65.7773 66.207 65.7461C66.1393 65.7148 66.0677 65.6914 65.9922 65.6758C65.9193 65.6602 65.8451 65.6523 65.7695 65.6523C65.694 65.6523 65.6185 65.6602 65.543 65.6758C65.4701 65.6914 65.3984 65.7148 65.3281 65.7461C65.2604 65.7773 65.1979 65.8203 65.1406 65.875C65.0859 65.9271 65.056 65.9935 65.0508 66.0742V66.6133V66.7852C65.0378 66.9414 64.9531 67.026 64.7969 67.0391C64.724 67.0391 64.6602 67.0156 64.6055 66.9688C64.5534 66.9193 64.5273 66.8581 64.5273 66.7852V66.1172V65.9531C64.5352 65.8125 64.5846 65.6914 64.6758 65.5898C64.7669 65.4883 64.8724 65.4076 64.9922 65.3477C65.112 65.2852 65.237 65.2383 65.3672 65.207C65.5 65.1758 65.6341 65.1602 65.7695 65.1602ZM22.0938 68.625C22.1667 68.625 22.2292 68.6497 22.2812 68.6992C22.3333 68.7461 22.3607 68.806 22.3633 68.8789V69.2188H23.6914C23.7643 69.2188 23.8268 69.2435 23.8789 69.293C23.9284 69.3451 23.9531 69.4076 23.9531 69.4805C23.9531 69.5534 23.9271 69.6159 23.875 69.668C23.8255 69.7174 23.7643 69.7422 23.6914 69.7422H22.3633V69.8203C22.3607 69.9271 22.3672 70.026 22.3828 70.1172C22.401 70.2057 22.4427 70.2852 22.5078 70.3555C22.5729 70.4258 22.6549 70.4635 22.7539 70.4688H23.707C23.7799 70.4714 23.8398 70.4987 23.8867 70.5508C23.9362 70.6029 23.9609 70.6654 23.9609 70.7383C23.9583 70.8086 23.9323 70.8685 23.8828 70.918C23.8359 70.9648 23.7773 70.9896 23.707 70.9922H22.6211C22.4388 70.9818 22.2878 70.9206 22.168 70.8086C22.0508 70.694 21.9661 70.5547 21.9141 70.3906C21.8646 70.2266 21.8385 70.0521 21.8359 69.8672V69.7422H21.3867C21.3138 69.7422 21.2526 69.7161 21.2031 69.6641C21.151 69.6146 21.125 69.5534 21.125 69.4805C21.125 69.4076 21.1497 69.3464 21.1992 69.2969C21.2513 69.2448 21.3138 69.2188 21.3867 69.2188H21.8359V68.8789C21.8385 68.8086 21.8646 68.75 21.9141 68.7031C21.9635 68.6536 22.0234 68.6276 22.0938 68.625ZM24.6055 68.625C24.6758 68.6276 24.7357 68.6536 24.7852 68.7031C24.8346 68.75 24.8607 68.8086 24.8633 68.8789V69.2188H26.0742C26.2565 69.2214 26.4062 69.2734 26.5234 69.375C26.6432 69.474 26.7279 69.5859 26.7773 69.7109C26.8294 69.8385 26.8555 69.9701 26.8555 70.1055H26.8594V70.7852C26.8594 70.8581 26.832 70.9193 26.7773 70.9688C26.7253 71.0156 26.6628 71.0391 26.5898 71.0391C26.4336 71.026 26.3477 70.9414 26.332 70.7852V70.1016C26.332 70.0521 26.3216 70 26.3008 69.9453C26.2826 69.8906 26.2552 69.8438 26.2188 69.8047C26.1823 69.763 26.1393 69.7422 26.0898 69.7422H24.8633V70.793C24.8477 70.9492 24.7617 71.0339 24.6055 71.0469C24.5326 71.0469 24.4688 71.0234 24.4141 70.9766C24.362 70.9271 24.3359 70.8659 24.3359 70.793V68.8789C24.3385 68.806 24.3659 68.7461 24.418 68.6992C24.4701 68.6497 24.5326 68.625 24.6055 68.625ZM28.1523 70.9922C27.9232 70.9844 27.75 70.931 27.6328 70.832C27.5156 70.7305 27.431 70.6172 27.3789 70.4922C27.3268 70.3646 27.3008 70.2357 27.3008 70.1055C27.3008 69.9701 27.3255 69.8398 27.375 69.7148C27.4271 69.5872 27.5117 69.474 27.6289 69.375C27.7487 69.2734 27.8997 69.2214 28.082 69.2188H29.5664C29.6393 69.2188 29.7005 69.2435 29.75 69.293C29.8021 69.3398 29.8281 69.3971 29.8281 69.4648C29.8281 69.5352 29.8021 69.5951 29.75 69.6445C29.7005 69.6914 29.6393 69.7148 29.5664 69.7148H28.1055C28.0482 69.7148 27.9974 69.7344 27.9531 69.7734C27.9115 69.8125 27.8802 69.8633 27.8594 69.9258C27.8411 69.9883 27.832 70.0495 27.832 70.1094C27.832 70.1745 27.8411 70.2383 27.8594 70.3008C27.8802 70.3633 27.9115 70.4141 27.9531 70.4531C27.9974 70.4896 28.0482 70.5091 28.1055 70.5117H29.5664C29.6393 70.5117 29.7005 70.5352 29.75 70.582C29.8021 70.6289 29.8281 70.6849 29.8281 70.75C29.8281 70.8177 29.8021 70.875 29.75 70.9219C29.7005 70.9688 29.6393 70.9922 29.5664 70.9922H28.1523ZM29.7812 70.0977C29.7812 70.1471 29.7591 70.1901 29.7148 70.2266C29.6758 70.2604 29.6263 70.2773 29.5664 70.2773H28.2891C28.2292 70.2773 28.1784 70.2604 28.1367 70.2266C28.0951 70.1901 28.0742 70.1471 28.0742 70.0977C28.0742 70.0508 28.0951 70.0091 28.1367 69.9727C28.1784 69.9388 28.2292 69.9219 28.2891 69.9219H29.5664C29.6263 69.9219 29.6771 69.9401 29.7188 69.9766C29.7604 70.0104 29.7812 70.0508 29.7812 70.0977ZM32.3594 69.7109C32.4089 69.5859 32.4922 69.474 32.6094 69.375C32.7292 69.2734 32.8802 69.2214 33.0625 69.2188H34.5312C34.6042 69.2188 34.6654 69.2448 34.7148 69.2969C34.7669 69.3464 34.793 69.4076 34.793 69.4805C34.793 69.5534 34.7669 69.6159 34.7148 69.668C34.6654 69.7174 34.6042 69.7422 34.5312 69.7422H33.0469C32.9974 69.7422 32.9544 69.763 32.918 69.8047C32.8815 69.8438 32.8529 69.8906 32.832 69.9453C32.8138 70 32.8047 70.0521 32.8047 70.1016V70.7852C32.7891 70.9414 32.7031 71.026 32.5469 71.0391C32.474 71.0391 32.4102 71.0156 32.3555 70.9688C32.3034 70.9193 32.2773 70.8581 32.2773 70.7852V70.1055H32.2812C32.2812 69.9701 32.3073 69.8385 32.3594 69.7109ZM37.3633 70.7852V69.8438C37.3633 69.7786 37.3294 69.7448 37.2617 69.7422H35.8945C35.8451 69.7448 35.8021 69.7669 35.7656 69.8086C35.7292 69.8477 35.7018 69.8945 35.6836 69.9492C35.668 70.0013 35.6602 70.0547 35.6602 70.1094C35.6602 70.1615 35.668 70.2148 35.6836 70.2695C35.7018 70.3216 35.7292 70.3685 35.7656 70.4102C35.8021 70.4492 35.8451 70.4688 35.8945 70.4688H36.8945C36.9674 70.4688 37.0286 70.4948 37.0781 70.5469C37.1302 70.5964 37.1562 70.6576 37.1562 70.7305C37.1562 70.8034 37.1302 70.8646 37.0781 70.9141C37.0286 70.9661 36.9674 70.9922 36.8945 70.9922H35.9102C35.7279 70.9896 35.5768 70.9388 35.457 70.8398C35.3398 70.7383 35.2552 70.625 35.2031 70.5C35.1536 70.3724 35.1289 70.2409 35.1289 70.1055C35.1289 69.9753 35.1549 69.8477 35.207 69.7227C35.2591 69.5951 35.3438 69.4818 35.4609 69.3828C35.5781 69.2812 35.7513 69.2266 35.9805 69.2188H37.6211C37.694 69.2188 37.7565 69.2435 37.8086 69.293C37.8607 69.3398 37.888 69.3997 37.8906 69.4727V70.7852C37.8906 70.8581 37.8633 70.9193 37.8086 70.9688C37.7565 71.0156 37.694 71.0391 37.6211 71.0391C37.4648 71.026 37.3789 70.9414 37.3633 70.7852ZM39.6406 69.1602C39.776 69.1602 39.9089 69.1758 40.0391 69.207C40.1719 69.2383 40.2982 69.2852 40.418 69.3477C40.5378 69.4076 40.6432 69.4883 40.7344 69.5898C40.8281 69.6914 40.8789 69.8125 40.8867 69.9531V70.1172V70.7852C40.8711 70.9414 40.7852 71.026 40.6289 71.0391C40.556 71.0391 40.4922 71.0156 40.4375 70.9688C40.3854 70.9193 40.3594 70.8581 40.3594 70.7852V70.6133V70.0742C40.3542 69.9935 40.3229 69.9271 40.2656 69.875C40.2109 69.8203 40.1484 69.7773 40.0781 69.7461C40.0104 69.7148 39.9388 69.6914 39.8633 69.6758C39.7904 69.6602 39.7161 69.6523 39.6406 69.6523C39.5651 69.6523 39.4896 69.6602 39.4141 69.6758C39.3411 69.6914 39.2695 69.7148 39.1992 69.7461C39.1315 69.7773 39.069 69.8203 39.0117 69.875C38.957 69.9271 38.9271 69.9935 38.9219 70.0742V70.6133V70.7852C38.9089 70.9414 38.8242 71.026 38.668 71.0391C38.5951 71.0391 38.5312 71.0156 38.4766 70.9688C38.4245 70.9193 38.3984 70.8581 38.3984 70.7852V70.1172V69.9531C38.4062 69.8125 38.4557 69.6914 38.5469 69.5898C38.638 69.4883 38.7435 69.4076 38.8633 69.3477C38.9831 69.2852 39.1081 69.2383 39.2383 69.207C39.3711 69.1758 39.5052 69.1602 39.6406 69.1602ZM43.5586 68.8789C43.5742 68.7227 43.6602 68.638 43.8164 68.625C43.8893 68.625 43.9518 68.6497 44.0039 68.6992C44.0586 68.7461 44.0859 68.806 44.0859 68.8789V70.7383C44.0833 70.8112 44.056 70.8724 44.0039 70.9219C43.9518 70.9688 43.8893 70.9922 43.8164 70.9922H42.1758C41.9466 70.9844 41.7734 70.931 41.6562 70.832C41.5391 70.7305 41.4544 70.6172 41.4023 70.4922C41.3503 70.3646 41.3242 70.2357 41.3242 70.1055C41.3242 69.9701 41.349 69.8398 41.3984 69.7148C41.4505 69.5872 41.5352 69.474 41.6523 69.375C41.7721 69.2734 41.9232 69.2214 42.1055 69.2188H43.0898C43.1628 69.2188 43.224 69.2448 43.2734 69.2969C43.3255 69.3464 43.3516 69.4076 43.3516 69.4805C43.3516 69.5534 43.3255 69.6159 43.2734 69.668C43.224 69.7174 43.1628 69.7422 43.0898 69.7422H42.0898C42.0404 69.7422 41.9974 69.763 41.9609 69.8047C41.9245 69.8438 41.8971 69.8906 41.8789 69.9453C41.8633 69.9974 41.8555 70.0495 41.8555 70.1016C41.8555 70.1562 41.8633 70.2109 41.8789 70.2656C41.8971 70.3177 41.9245 70.3646 41.9609 70.4062C41.9974 70.4453 42.0404 70.4661 42.0898 70.4688H43.457C43.5247 70.4661 43.5586 70.4323 43.5586 70.3672V68.8789ZM45.4102 70.9922C45.181 70.9844 45.0078 70.931 44.8906 70.832C44.7734 70.7305 44.6888 70.6172 44.6367 70.4922C44.5846 70.3646 44.5586 70.2357 44.5586 70.1055C44.5586 69.9701 44.5833 69.8398 44.6328 69.7148C44.6849 69.5872 44.7695 69.474 44.8867 69.375C45.0065 69.2734 45.1576 69.2214 45.3398 69.2188H46.6055C46.7878 69.2214 46.9375 69.2734 47.0547 69.375C47.1745 69.474 47.2591 69.5872 47.3086 69.7148C47.3607 69.8398 47.3867 69.9701 47.3867 70.1055C47.3867 70.2357 47.3607 70.3646 47.3086 70.4922C47.2565 70.6172 47.1719 70.7305 47.0547 70.832C46.9375 70.931 46.7643 70.9844 46.5352 70.9922H45.4102ZM45.3242 69.7422C45.2747 69.7422 45.2318 69.763 45.1953 69.8047C45.1589 69.8438 45.1315 69.8906 45.1133 69.9453C45.0977 69.9974 45.0898 70.0495 45.0898 70.1016C45.0898 70.1562 45.0977 70.2109 45.1133 70.2656C45.1315 70.3177 45.1589 70.3646 45.1953 70.4062C45.2318 70.4453 45.2747 70.4661 45.3242 70.4688H46.6211C46.6706 70.4661 46.7135 70.4453 46.75 70.4062C46.7865 70.3646 46.8125 70.3177 46.8281 70.2656C46.8464 70.2109 46.8555 70.1562 46.8555 70.1016C46.8555 70.0495 46.8464 69.9974 46.8281 69.9453C46.8125 69.8906 46.7865 69.8438 46.75 69.8047C46.7135 69.763 46.6706 69.7422 46.6211 69.7422H45.3242ZM48.6641 69.1602C48.7552 69.1602 48.8438 69.1758 48.9297 69.207C49.0182 69.2383 49.1029 69.2839 49.1836 69.3438C49.1966 69.3568 49.2109 69.3698 49.2266 69.3828C49.2396 69.3698 49.2539 69.3568 49.2695 69.3438C49.3503 69.2839 49.4336 69.2383 49.5195 69.207C49.6081 69.1758 49.6966 69.1602 49.7852 69.1602C49.8763 69.1602 49.9648 69.1758 50.0508 69.207C50.1393 69.2383 50.2227 69.2852 50.3008 69.3477C50.3815 69.4076 50.4518 69.4883 50.5117 69.5898C50.5742 69.6914 50.6055 69.8125 50.6055 69.9531V70.7852C50.5898 70.9414 50.5039 71.026 50.3477 71.0391C50.2747 71.0391 50.2109 71.0156 50.1562 70.9688C50.1042 70.9193 50.0781 70.8581 50.0781 70.7852V69.9844C50.0781 69.9219 50.0664 69.8698 50.043 69.8281C50.0195 69.7839 49.9935 69.75 49.9648 69.7266C49.9362 69.7005 49.9062 69.6823 49.875 69.6719C49.8438 69.6589 49.8125 69.6523 49.7812 69.6523C49.75 69.6523 49.7188 69.6589 49.6875 69.6719C49.6589 69.6823 49.6302 69.7005 49.6016 69.7266C49.5729 69.75 49.5469 69.7839 49.5234 69.8281C49.5 69.8698 49.487 69.9219 49.4844 69.9844V70.7852C49.4688 70.9414 49.3828 71.026 49.2266 71.0391C49.1536 71.0391 49.0898 71.0156 49.0352 70.9688C48.9831 70.9193 48.957 70.8581 48.957 70.7852V69.9844C48.957 69.9219 48.9453 69.8698 48.9219 69.8281C48.8984 69.7839 48.8724 69.75 48.8438 69.7266C48.8151 69.7005 48.7852 69.6823 48.7539 69.6719C48.7227 69.6589 48.6914 69.6523 48.6602 69.6523C48.6289 69.6523 48.5977 69.6589 48.5664 69.6719C48.5378 69.6823 48.5091 69.7005 48.4805 69.7266C48.4518 69.75 48.4258 69.7839 48.4023 69.8281C48.3789 69.8698 48.3659 69.9219 48.3633 69.9844V70.7852C48.3503 70.9414 48.2656 71.026 48.1094 71.0391C48.0365 71.0391 47.9727 71.0156 47.918 70.9688C47.8659 70.9193 47.8398 70.8581 47.8398 70.7852V69.9531C47.8451 69.8125 47.8776 69.6914 47.9375 69.5898C47.9974 69.4883 48.0677 69.4076 48.1484 69.3477C48.2292 69.2852 48.3125 69.2383 48.3984 69.207C48.487 69.1758 48.5755 69.1602 48.6641 69.1602ZM53.918 69.1602C54.0091 69.1602 54.0977 69.1758 54.1836 69.207C54.2721 69.2383 54.3568 69.2839 54.4375 69.3438C54.4505 69.3568 54.4648 69.3698 54.4805 69.3828C54.4935 69.3698 54.5078 69.3568 54.5234 69.3438C54.6042 69.2839 54.6875 69.2383 54.7734 69.207C54.862 69.1758 54.9505 69.1602 55.0391 69.1602C55.1302 69.1602 55.2188 69.1758 55.3047 69.207C55.3932 69.2383 55.4766 69.2852 55.5547 69.3477C55.6354 69.4076 55.7057 69.4883 55.7656 69.5898C55.8281 69.6914 55.8594 69.8125 55.8594 69.9531V70.7852C55.8438 70.9414 55.7578 71.026 55.6016 71.0391C55.5286 71.0391 55.4648 71.0156 55.4102 70.9688C55.3581 70.9193 55.332 70.8581 55.332 70.7852V69.9844C55.332 69.9219 55.3203 69.8698 55.2969 69.8281C55.2734 69.7839 55.2474 69.75 55.2188 69.7266C55.1901 69.7005 55.1602 69.6823 55.1289 69.6719C55.0977 69.6589 55.0664 69.6523 55.0352 69.6523C55.0039 69.6523 54.9727 69.6589 54.9414 69.6719C54.9128 69.6823 54.8841 69.7005 54.8555 69.7266C54.8268 69.75 54.8008 69.7839 54.7773 69.8281C54.7539 69.8698 54.7409 69.9219 54.7383 69.9844V70.7852C54.7227 70.9414 54.6367 71.026 54.4805 71.0391C54.4076 71.0391 54.3438 71.0156 54.2891 70.9688C54.237 70.9193 54.2109 70.8581 54.2109 70.7852V69.9844C54.2109 69.9219 54.1992 69.8698 54.1758 69.8281C54.1523 69.7839 54.1263 69.75 54.0977 69.7266C54.069 69.7005 54.0391 69.6823 54.0078 69.6719C53.9766 69.6589 53.9453 69.6523 53.9141 69.6523C53.8828 69.6523 53.8516 69.6589 53.8203 69.6719C53.7917 69.6823 53.763 69.7005 53.7344 69.7266C53.7057 69.75 53.6797 69.7839 53.6562 69.8281C53.6328 69.8698 53.6198 69.9219 53.6172 69.9844V70.7852C53.6042 70.9414 53.5195 71.026 53.3633 71.0391C53.2904 71.0391 53.2266 71.0156 53.1719 70.9688C53.1198 70.9193 53.0938 70.8581 53.0938 70.7852V69.9531C53.099 69.8125 53.1315 69.6914 53.1914 69.5898C53.2513 69.4883 53.3216 69.4076 53.4023 69.3477C53.4831 69.2852 53.5664 69.2383 53.6523 69.207C53.7409 69.1758 53.8294 69.1602 53.918 69.1602ZM57.1523 70.9922C56.9232 70.9844 56.75 70.931 56.6328 70.832C56.5156 70.7305 56.431 70.6172 56.3789 70.4922C56.3268 70.3646 56.3008 70.2357 56.3008 70.1055C56.3008 69.9701 56.3255 69.8398 56.375 69.7148C56.4271 69.5872 56.5117 69.474 56.6289 69.375C56.7487 69.2734 56.8997 69.2214 57.082 69.2188H58.3477C58.5299 69.2214 58.6797 69.2734 58.7969 69.375C58.9167 69.474 59.0013 69.5872 59.0508 69.7148C59.1029 69.8398 59.1289 69.9701 59.1289 70.1055C59.1289 70.2357 59.1029 70.3646 59.0508 70.4922C58.9987 70.6172 58.9141 70.7305 58.7969 70.832C58.6797 70.931 58.5065 70.9844 58.2773 70.9922H57.1523ZM57.0664 69.7422C57.0169 69.7422 56.974 69.763 56.9375 69.8047C56.901 69.8438 56.8737 69.8906 56.8555 69.9453C56.8398 69.9974 56.832 70.0495 56.832 70.1016C56.832 70.1562 56.8398 70.2109 56.8555 70.2656C56.8737 70.3177 56.901 70.3646 56.9375 70.4062C56.974 70.4453 57.0169 70.4661 57.0664 70.4688H58.3633C58.4128 70.4661 58.4557 70.4453 58.4922 70.4062C58.5286 70.3646 58.5547 70.3177 58.5703 70.2656C58.5885 70.2109 58.5977 70.1562 58.5977 70.1016C58.5977 70.0495 58.5885 69.9974 58.5703 69.9453C58.5547 69.8906 58.5286 69.8438 58.4922 69.8047C58.4557 69.763 58.4128 69.7422 58.3633 69.7422H57.0664ZM61.7539 68.8789C61.7695 68.7227 61.8555 68.638 62.0117 68.625C62.0846 68.625 62.1471 68.6497 62.1992 68.6992C62.2539 68.7461 62.2812 68.806 62.2812 68.8789V70.7383C62.2786 70.8112 62.2513 70.8724 62.1992 70.9219C62.1471 70.9688 62.0846 70.9922 62.0117 70.9922H60.3711C60.1419 70.9844 59.9688 70.931 59.8516 70.832C59.7344 70.7305 59.6497 70.6172 59.5977 70.4922C59.5456 70.3646 59.5195 70.2357 59.5195 70.1055C59.5195 69.9701 59.5443 69.8398 59.5938 69.7148C59.6458 69.5872 59.7305 69.474 59.8477 69.375C59.9674 69.2734 60.1185 69.2214 60.3008 69.2188H61.2852C61.3581 69.2188 61.4193 69.2448 61.4688 69.2969C61.5208 69.3464 61.5469 69.4076 61.5469 69.4805C61.5469 69.5534 61.5208 69.6159 61.4688 69.668C61.4193 69.7174 61.3581 69.7422 61.2852 69.7422H60.2852C60.2357 69.7422 60.1927 69.763 60.1562 69.8047C60.1198 69.8438 60.0924 69.8906 60.0742 69.9453C60.0586 69.9974 60.0508 70.0495 60.0508 70.1016C60.0508 70.1562 60.0586 70.2109 60.0742 70.2656C60.0924 70.3177 60.1198 70.3646 60.1562 70.4062C60.1927 70.4453 60.2357 70.4661 60.2852 70.4688H61.6523C61.7201 70.4661 61.7539 70.4323 61.7539 70.3672V68.8789ZM63.5977 70.9922C63.3685 70.9844 63.1953 70.931 63.0781 70.832C62.9609 70.7305 62.8763 70.6172 62.8242 70.4922C62.7721 70.3646 62.7461 70.2357 62.7461 70.1055C62.7461 69.9701 62.7708 69.8398 62.8203 69.7148C62.8724 69.5872 62.957 69.474 63.0742 69.375C63.194 69.2734 63.3451 69.2214 63.5273 69.2188H65.0117C65.0846 69.2188 65.1458 69.2435 65.1953 69.293C65.2474 69.3398 65.2734 69.3971 65.2734 69.4648C65.2734 69.5352 65.2474 69.5951 65.1953 69.6445C65.1458 69.6914 65.0846 69.7148 65.0117 69.7148H63.5508C63.4935 69.7148 63.4427 69.7344 63.3984 69.7734C63.3568 69.8125 63.3255 69.8633 63.3047 69.9258C63.2865 69.9883 63.2773 70.0495 63.2773 70.1094C63.2773 70.1745 63.2865 70.2383 63.3047 70.3008C63.3255 70.3633 63.3568 70.4141 63.3984 70.4531C63.4427 70.4896 63.4935 70.5091 63.5508 70.5117H65.0117C65.0846 70.5117 65.1458 70.5352 65.1953 70.582C65.2474 70.6289 65.2734 70.6849 65.2734 70.75C65.2734 70.8177 65.2474 70.875 65.1953 70.9219C65.1458 70.9688 65.0846 70.9922 65.0117 70.9922H63.5977ZM65.2266 70.0977C65.2266 70.1471 65.2044 70.1901 65.1602 70.2266C65.1211 70.2604 65.0716 70.2773 65.0117 70.2773H63.7344C63.6745 70.2773 63.6237 70.2604 63.582 70.2266C63.5404 70.1901 63.5195 70.1471 63.5195 70.0977C63.5195 70.0508 63.5404 70.0091 63.582 69.9727C63.6237 69.9388 63.6745 69.9219 63.7344 69.9219H65.0117C65.0716 69.9219 65.1224 69.9401 65.1641 69.9766C65.2057 70.0104 65.2266 70.0508 65.2266 70.0977ZM66.125 71.0547C66.0208 71.0547 65.9336 71.0182 65.8633 70.9453C65.7956 70.8724 65.7617 70.7812 65.7617 70.6719C65.7617 70.5625 65.7956 70.4714 65.8633 70.3984C65.9336 70.3255 66.0208 70.2891 66.125 70.2891C66.2292 70.2891 66.3164 70.3255 66.3867 70.3984C66.457 70.4714 66.4922 70.5625 66.4922 70.6719C66.4922 70.7812 66.457 70.8724 66.3867 70.9453C66.3164 71.0182 66.2292 71.0547 66.125 71.0547Z" fill="#537790"/>
<g filter="url(#filter0_b_69_1537)">
<rect width="96" height="97" rx="22" fill="#D9D9D9" fill-opacity="0.1"/>
</g>
<path d="M52 44V43C52 41.9391 51.5786 40.9217 50.8284 40.1716C50.0783 39.4214 49.0609 39 48 39C46.9391 39 45.9217 39.4214 45.1716 40.1716C44.4214 40.9217 44 41.9391 44 43V44" fill="#54555A"/>
<path d="M52 44V43C52 41.9391 51.5786 40.9217 50.8284 40.1716C50.0783 39.4214 49.0609 39 48 39C46.9391 39 45.9217 39.4214 45.1716 40.1716C44.4214 40.9217 44 41.9391 44 43V44" stroke="#54555A" stroke-width="2" stroke-linecap="round"/>
<path fill-rule="evenodd" clip-rule="evenodd" d="M39.879 43.879C39 44.757 39 46.172 39 49V50C39 53.771 39 55.657 40.172 56.828C41.343 58 43.229 58 47 58H49C52.771 58 54.657 58 55.828 56.828C57 55.657 57 53.771 57 50V49C57 46.172 57 44.757 56.121 43.879C55.243 43 53.828 43 51 43H45C42.172 43 40.757 43 39.879 43.879ZM48 51C48.2652 51 48.5196 50.8946 48.7071 50.7071C48.8946 50.5196 49 50.2652 49 50C49 49.7348 48.8946 49.4804 48.7071 49.2929C48.5196 49.1054 48.2652 49 48 49C47.7348 49 47.4804 49.1054 47.2929 49.2929C47.1054 49.4804 47 49.7348 47 50C47 50.2652 47.1054 50.5196 47.2929 50.7071C47.4804 50.8946 47.7348 51 48 51ZM51 50C51.0002 50.6206 50.8079 51.226 50.4498 51.7329C50.0916 52.2397 49.5851 52.623 49 52.83V55H47V52.83C46.4811 52.6468 46.0226 52.3245 45.6746 51.8984C45.3266 51.4722 45.1024 50.9585 45.0266 50.4135C44.9508 49.8686 45.0263 49.3132 45.2448 48.8082C45.4634 48.3033 45.8165 47.8681 46.2657 47.5503C46.7149 47.2325 47.2428 47.0443 47.7917 47.0063C48.3407 46.9683 48.8895 47.082 49.3781 47.3348C49.8668 47.5877 50.2766 47.9701 50.5626 48.4401C50.8487 48.9101 51 49.4498 51 50Z" fill="#54555A"/>
</g>
<defs>
<filter id="filter0_b_69_1537" x="-2" y="-2" width="100" height="101" filterUnits="userSpaceOnUse" color-interpolation-filters="sRGB">
<feFlood flood-opacity="0" result="BackgroundImageFix"/>
<feGaussianBlur in="BackgroundImageFix" stdDeviation="1"/>
<feComposite in2="SourceAlpha" operator="in" result="effect1_backgroundBlur_69_1537"/>
<feBlend mode="normal" in="SourceGraphic" in2="effect1_backgroundBlur_69_1537" result="shape"/>
</filter>
<clipPath id="clip0_69_1537">
<rect width="96" height="97" rx="22" fill="white"/>
</clipPath>
</defs>
</svg>
