<svg width="96" height="97" viewBox="0 0 96 97" fill="none" xmlns="http://www.w3.org/2000/svg">
<rect width="96" height="97" rx="22" fill="#F4F4F4"/>
<path d="M14.1592 52.4668C14.1592 52.2845 14.221 52.1315 14.3447 52.0078C14.4749 51.8776 14.6312 51.8125 14.8135 51.8125H16.3076L16.0537 51.0898C15.9495 50.8229 15.8454 50.5723 15.7412 50.3379C15.6436 50.097 15.5296 49.8789 15.3994 49.6836C15.2822 49.4883 15.1488 49.3841 14.999 49.3711C14.8428 49.3841 14.7028 49.4883 14.5791 49.6836C14.4554 49.8789 14.3415 50.097 14.2373 50.3379C14.1396 50.5723 14.0387 50.8229 13.9346 51.0898L13.0068 53.6289C12.9417 53.7656 12.8571 53.8796 12.7529 53.9707C12.6553 54.0553 12.5055 54.0977 12.3037 54.0977C12.1149 54.0977 11.9587 54.0326 11.835 53.9023C11.7178 53.7721 11.6657 53.6159 11.6787 53.4336C11.6852 53.349 11.7048 53.2708 11.7373 53.1992L12.8115 50.4258C13.111 49.6966 13.4105 49.1074 13.71 48.6582C14.0029 48.2155 14.4326 47.9909 14.999 47.9844C15.5589 47.9909 15.9854 48.2155 16.2783 48.6582C16.5778 49.0944 16.8773 49.6836 17.1768 50.4258L18.251 53.1992C18.2835 53.2708 18.3031 53.349 18.3096 53.4336C18.3226 53.6159 18.2673 53.7721 18.1436 53.9023C18.0264 54.0326 17.8734 54.0977 17.6846 54.0977C17.4697 54.0977 17.3102 54.0553 17.2061 53.9707C17.1084 53.8796 17.027 53.7656 16.9619 53.6289L16.7764 53.1211H14.8135C14.6312 53.1211 14.4782 53.056 14.3545 52.9258C14.2243 52.8021 14.1592 52.6491 14.1592 52.4668ZM24.7256 48.6973C24.7646 48.3066 24.9795 48.0951 25.3701 48.0625C25.5524 48.0625 25.7087 48.1243 25.8389 48.248C25.9756 48.3652 26.0439 48.515 26.0439 48.6973V53.3457C26.0374 53.528 25.9691 53.681 25.8389 53.8047C25.7087 53.9219 25.5524 53.9805 25.3701 53.9805H21.2686C20.6956 53.9609 20.2627 53.8275 19.9697 53.5801C19.6768 53.3262 19.4652 53.043 19.335 52.7305C19.2048 52.4115 19.1396 52.0892 19.1396 51.7637C19.1396 51.4251 19.2015 51.0996 19.3252 50.7871C19.4554 50.4681 19.667 50.1849 19.96 49.9375C20.2594 49.6836 20.637 49.5534 21.0928 49.5469H23.5537C23.736 49.5469 23.889 49.612 24.0127 49.7422C24.1429 49.8659 24.208 50.0189 24.208 50.2012C24.208 50.3835 24.1429 50.5397 24.0127 50.6699C23.889 50.7936 23.736 50.8555 23.5537 50.8555H21.0537C20.93 50.8555 20.8226 50.9076 20.7314 51.0117C20.6403 51.1094 20.5719 51.2266 20.5264 51.3633C20.4873 51.4935 20.4678 51.6237 20.4678 51.7539C20.4678 51.8906 20.4873 52.0273 20.5264 52.1641C20.5719 52.2943 20.6403 52.4115 20.7314 52.5156C20.8226 52.6133 20.93 52.6654 21.0537 52.6719H24.4717C24.641 52.6654 24.7256 52.5807 24.7256 52.418V48.6973ZM28.876 53.4629C28.5439 53.0137 28.2119 52.4245 27.8799 51.6953L27.2451 50.3281C27.2126 50.2565 27.193 50.1784 27.1865 50.0938C27.1735 49.9115 27.2288 49.7552 27.3525 49.625C27.4762 49.4948 27.639 49.4297 27.8408 49.4297C28.0622 49.4297 28.2249 49.4753 28.3291 49.5664C28.4398 49.651 28.5277 49.7617 28.5928 49.8984L29.0518 51.0312C29.1689 51.2982 29.2829 51.5521 29.3936 51.793C29.5107 52.0273 29.641 52.2422 29.7842 52.4375C29.9339 52.6328 30.0999 52.737 30.2822 52.75C30.458 52.737 30.624 52.6328 30.7803 52.4375C30.917 52.2422 31.0407 52.0273 31.1514 51.793C31.2686 51.5521 31.3857 51.2982 31.5029 51.0312L31.9619 49.8984C32.027 49.7617 32.1117 49.651 32.2158 49.5664C32.3265 49.4753 32.4925 49.4297 32.7139 49.4297C32.9157 49.4297 33.0785 49.4948 33.2021 49.625C33.3258 49.7552 33.3812 49.9115 33.3682 50.0938C33.3617 50.1784 33.3421 50.2565 33.3096 50.3281L32.6748 51.6953C32.3428 52.4245 32.0107 53.0137 31.6787 53.4629C31.3597 53.9056 30.8942 54.1302 30.2822 54.1367C29.6637 54.1302 29.195 53.9056 28.876 53.4629ZM36.4541 53.9805C35.8812 53.9609 35.4482 53.8275 35.1553 53.5801C34.8623 53.3262 34.6507 53.043 34.5205 52.7305C34.3903 52.4115 34.3252 52.0892 34.3252 51.7637C34.3252 51.4251 34.387 51.0996 34.5107 50.7871C34.641 50.4681 34.8525 50.1849 35.1455 49.9375C35.445 49.6836 35.8226 49.5534 36.2783 49.5469H39.9893C40.1715 49.5469 40.3245 49.6087 40.4482 49.7324C40.5785 49.8496 40.6436 49.9928 40.6436 50.1621C40.6436 50.3379 40.5785 50.4876 40.4482 50.6113C40.3245 50.7285 40.1715 50.7871 39.9893 50.7871H36.3369C36.1937 50.7871 36.0667 50.8359 35.9561 50.9336C35.8519 51.0312 35.7738 51.1582 35.7217 51.3145C35.6761 51.4707 35.6533 51.6237 35.6533 51.7734C35.6533 51.9362 35.6761 52.0957 35.7217 52.252C35.7738 52.4082 35.8519 52.5352 35.9561 52.6328C36.0667 52.724 36.1937 52.7728 36.3369 52.7793H39.9893C40.1715 52.7793 40.3245 52.8379 40.4482 52.9551C40.5785 53.0723 40.6436 53.2122 40.6436 53.375C40.6436 53.5443 40.5785 53.6875 40.4482 53.8047C40.3245 53.9219 40.1715 53.9805 39.9893 53.9805H36.4541ZM40.5264 51.7441C40.5264 51.8678 40.471 51.9753 40.3604 52.0664C40.2627 52.151 40.139 52.1934 39.9893 52.1934H36.7959C36.6462 52.1934 36.5192 52.151 36.415 52.0664C36.3109 51.9753 36.2588 51.8678 36.2588 51.7441C36.2588 51.627 36.3109 51.5228 36.415 51.4316C36.5192 51.347 36.6462 51.3047 36.7959 51.3047H39.9893C40.139 51.3047 40.266 51.3503 40.3701 51.4414C40.4743 51.526 40.5264 51.627 40.5264 51.7441ZM44.8818 49.4004C45.2204 49.4004 45.5524 49.4395 45.8779 49.5176C46.21 49.5957 46.5257 49.7129 46.8252 49.8691C47.1247 50.0189 47.3883 50.2207 47.6162 50.4746C47.8506 50.7285 47.9775 51.0312 47.9971 51.3828V51.793V53.4629C47.958 53.8535 47.7432 54.0651 47.3525 54.0977C47.1702 54.0977 47.0107 54.0391 46.874 53.9219C46.7438 53.7982 46.6787 53.6452 46.6787 53.4629V53.0332V51.6855C46.6657 51.4837 46.5876 51.3177 46.4443 51.1875C46.3076 51.0508 46.1514 50.9434 45.9756 50.8652C45.8063 50.7871 45.6273 50.7285 45.4385 50.6895C45.2562 50.6504 45.0706 50.6309 44.8818 50.6309C44.693 50.6309 44.5042 50.6504 44.3154 50.6895C44.1331 50.7285 43.9541 50.7871 43.7783 50.8652C43.609 50.9434 43.4528 51.0508 43.3096 51.1875C43.1729 51.3177 43.098 51.4837 43.085 51.6855V53.0332V53.4629C43.0524 53.8535 42.8408 54.0651 42.4502 54.0977C42.2679 54.0977 42.1084 54.0391 41.9717 53.9219C41.8415 53.7982 41.7764 53.6452 41.7764 53.4629V51.793V51.3828C41.7959 51.0312 41.9196 50.7285 42.1475 50.4746C42.3753 50.2207 42.639 50.0189 42.9385 49.8691C43.238 49.7129 43.5505 49.5957 43.876 49.5176C44.208 49.4395 44.5433 49.4004 44.8818 49.4004ZM51.3564 48.0625C51.5387 48.0625 51.695 48.1243 51.8252 48.248C51.9554 48.3652 52.0238 48.515 52.0303 48.6973V49.5469H55.3506C55.5329 49.5469 55.6891 49.6087 55.8193 49.7324C55.943 49.8626 56.0049 50.0189 56.0049 50.2012C56.0049 50.3835 55.9398 50.5397 55.8096 50.6699C55.6859 50.7936 55.5329 50.8555 55.3506 50.8555H52.0303V51.0508C52.0238 51.3177 52.04 51.5651 52.0791 51.793C52.1247 52.0143 52.2288 52.2129 52.3916 52.3887C52.5544 52.5645 52.7594 52.6589 53.0068 52.6719H55.3896C55.5719 52.6784 55.7217 52.7467 55.8389 52.877C55.9626 53.0072 56.0244 53.1634 56.0244 53.3457C56.0179 53.5215 55.9528 53.6712 55.8291 53.7949C55.7119 53.9121 55.5654 53.974 55.3896 53.9805H52.6748C52.2191 53.9544 51.8415 53.8014 51.542 53.5215C51.249 53.235 51.0374 52.8867 50.9072 52.4766C50.7835 52.0664 50.7184 51.6302 50.7119 51.168V50.8555H49.5889C49.4066 50.8555 49.2536 50.7904 49.1299 50.6602C48.9997 50.5365 48.9346 50.3835 48.9346 50.2012C48.9346 50.0189 48.9964 49.8659 49.1201 49.7422C49.2503 49.612 49.4066 49.5469 49.5889 49.5469H50.7119V48.6973C50.7184 48.5215 50.7835 48.375 50.9072 48.2578C51.0309 48.1341 51.1807 48.069 51.3564 48.0625ZM60.0771 54.1465C59.7386 54.1465 59.4033 54.1074 59.0713 54.0293C58.7458 53.9512 58.4333 53.8372 58.1338 53.6875C57.8343 53.5312 57.5706 53.3262 57.3428 53.0723C57.1149 52.8184 56.9912 52.5156 56.9717 52.1641V51.7539V50.084C56.9717 49.9017 57.0368 49.752 57.167 49.6348C57.3037 49.5111 57.4632 49.4492 57.6455 49.4492C58.0361 49.4818 58.2477 49.6934 58.2803 50.084V50.5137V51.8613C58.2933 52.0632 58.3682 52.2324 58.5049 52.3691C58.6481 52.4993 58.8044 52.6035 58.9736 52.6816C59.1494 52.7598 59.3285 52.8184 59.5107 52.8574C59.6995 52.8965 59.8883 52.916 60.0771 52.916C60.266 52.916 60.4515 52.8965 60.6338 52.8574C60.8226 52.8184 61.0016 52.7598 61.1709 52.6816C61.3467 52.6035 61.5029 52.4993 61.6396 52.3691C61.7829 52.2324 61.861 52.0632 61.874 51.8613V50.5137V50.084C61.874 49.9017 61.9391 49.752 62.0693 49.6348C62.2061 49.5111 62.3656 49.4492 62.5479 49.4492C62.9385 49.4818 63.1533 49.6934 63.1924 50.084V51.7539V52.1641C63.1729 52.5156 63.0459 52.8184 62.8115 53.0723C62.5837 53.3262 62.32 53.5312 62.0205 53.6875C61.721 53.8372 61.4053 53.9512 61.0732 54.0293C60.7477 54.1074 60.4157 54.1465 60.0771 54.1465ZM64.6475 50.7773C64.7712 50.4648 64.9795 50.1849 65.2725 49.9375C65.5719 49.6836 65.9495 49.5534 66.4053 49.5469H70.0771C70.2594 49.5469 70.4124 49.612 70.5361 49.7422C70.6663 49.8659 70.7314 50.0189 70.7314 50.2012C70.7314 50.3835 70.6663 50.5397 70.5361 50.6699C70.4124 50.7936 70.2594 50.8555 70.0771 50.8555H66.3662C66.2425 50.8555 66.1351 50.9076 66.0439 51.0117C65.9528 51.1094 65.8812 51.2266 65.8291 51.3633C65.7835 51.5 65.7607 51.6302 65.7607 51.7539V53.4629C65.7217 53.8535 65.5068 54.0651 65.1162 54.0977C64.9339 54.0977 64.7744 54.0391 64.6377 53.9219C64.5075 53.7982 64.4424 53.6452 64.4424 53.4629V51.7637H64.4521C64.4521 51.4251 64.5173 51.0964 64.6475 50.7773ZM73.7002 53.9805C73.1273 53.9609 72.6943 53.8275 72.4014 53.5801C72.1084 53.3262 71.8968 53.043 71.7666 52.7305C71.6364 52.4115 71.5713 52.0892 71.5713 51.7637C71.5713 51.4251 71.6331 51.0996 71.7568 50.7871C71.887 50.4681 72.0986 50.1849 72.3916 49.9375C72.6911 49.6836 73.0687 49.5534 73.5244 49.5469H77.2354C77.4176 49.5469 77.5706 49.6087 77.6943 49.7324C77.8245 49.8496 77.8896 49.9928 77.8896 50.1621C77.8896 50.3379 77.8245 50.4876 77.6943 50.6113C77.5706 50.7285 77.4176 50.7871 77.2354 50.7871H73.583C73.4398 50.7871 73.3128 50.8359 73.2021 50.9336C73.098 51.0312 73.0199 51.1582 72.9678 51.3145C72.9222 51.4707 72.8994 51.6237 72.8994 51.7734C72.8994 51.9362 72.9222 52.0957 72.9678 52.252C73.0199 52.4082 73.098 52.5352 73.2021 52.6328C73.3128 52.724 73.4398 52.7728 73.583 52.7793H77.2354C77.4176 52.7793 77.5706 52.8379 77.6943 52.9551C77.8245 53.0723 77.8896 53.2122 77.8896 53.375C77.8896 53.5443 77.8245 53.6875 77.6943 53.8047C77.5706 53.9219 77.4176 53.9805 77.2354 53.9805H73.7002ZM77.7725 51.7441C77.7725 51.8678 77.7171 51.9753 77.6064 52.0664C77.5088 52.151 77.3851 52.1934 77.2354 52.1934H74.042C73.8923 52.1934 73.7653 52.151 73.6611 52.0664C73.557 51.9753 73.5049 51.8678 73.5049 51.7441C73.5049 51.627 73.557 51.5228 73.6611 51.4316C73.7653 51.347 73.8923 51.3047 74.042 51.3047H77.2354C77.3851 51.3047 77.512 51.3503 77.6162 51.4414C77.7204 51.526 77.7725 51.627 77.7725 51.7441ZM79.2178 50.7773C79.3415 50.4648 79.5498 50.1849 79.8428 49.9375C80.1423 49.6836 80.5199 49.5534 80.9756 49.5469H84.6475C84.8298 49.5469 84.9827 49.612 85.1064 49.7422C85.2367 49.8659 85.3018 50.0189 85.3018 50.2012C85.3018 50.3835 85.2367 50.5397 85.1064 50.6699C84.9827 50.7936 84.8298 50.8555 84.6475 50.8555H80.9365C80.8128 50.8555 80.7054 50.9076 80.6143 51.0117C80.5231 51.1094 80.4515 51.2266 80.3994 51.3633C80.3538 51.5 80.3311 51.6302 80.3311 51.7539V53.4629C80.292 53.8535 80.0771 54.0651 79.6865 54.0977C79.5042 54.0977 79.3447 54.0391 79.208 53.9219C79.0778 53.7982 79.0127 53.6452 79.0127 53.4629V51.7637H79.0225C79.0225 51.4251 79.0876 51.0964 79.2178 50.7773Z" fill="#72757A"/>
<path d="M22.5078 61.1719C22.5807 61.1719 22.6432 61.1966 22.6953 61.2461C22.7474 61.293 22.7747 61.3529 22.7773 61.4258V61.8203C22.7747 61.9271 22.7812 62.026 22.7969 62.1172C22.8151 62.2057 22.8568 62.2852 22.9219 62.3555C22.987 62.4258 23.069 62.4635 23.168 62.4688H24.2109V61.4336C24.2109 61.3607 24.237 61.3008 24.2891 61.2539C24.3438 61.2044 24.4076 61.1797 24.4805 61.1797C24.6367 61.1927 24.7227 61.2773 24.7383 61.4336V62.707C24.7383 62.9154 24.7096 63.112 24.6523 63.2969C24.6003 63.4609 24.5143 63.599 24.3945 63.7109C24.2773 63.8255 24.1276 63.888 23.9453 63.8984H22.5938C22.5234 63.8958 22.4635 63.8698 22.4141 63.8203C22.3672 63.7734 22.3424 63.7148 22.3398 63.6445C22.3398 63.5716 22.3633 63.5091 22.4102 63.457C22.4596 63.4049 22.5208 63.3776 22.5938 63.375H23.8125C23.9115 63.3698 23.9935 63.332 24.0586 63.2617C24.1237 63.1914 24.1654 63.1094 24.1836 63.0156C24.1862 63.0078 24.1875 63 24.1875 62.9922H23.0352C22.8529 62.9818 22.7018 62.9206 22.582 62.8086C22.4648 62.694 22.3802 62.5547 22.3281 62.3906C22.2786 62.2266 22.2526 62.0521 22.25 61.8672V61.4258C22.2526 61.3555 22.2786 61.2969 22.3281 61.25C22.3776 61.2005 22.4375 61.1745 22.5078 61.1719ZM26.0586 62.9922C25.8294 62.9844 25.6562 62.931 25.5391 62.832C25.4219 62.7305 25.3372 62.6172 25.2852 62.4922C25.2331 62.3646 25.207 62.2357 25.207 62.1055C25.207 61.9701 25.2318 61.8398 25.2812 61.7148C25.3333 61.5872 25.418 61.474 25.5352 61.375C25.6549 61.2734 25.806 61.2214 25.9883 61.2188H27.2539C27.4362 61.2214 27.5859 61.2734 27.7031 61.375C27.8229 61.474 27.9076 61.5872 27.957 61.7148C28.0091 61.8398 28.0352 61.9701 28.0352 62.1055C28.0352 62.2357 28.0091 62.3646 27.957 62.4922C27.9049 62.6172 27.8203 62.7305 27.7031 62.832C27.5859 62.931 27.4128 62.9844 27.1836 62.9922H26.0586ZM25.9727 61.7422C25.9232 61.7422 25.8802 61.763 25.8438 61.8047C25.8073 61.8438 25.7799 61.8906 25.7617 61.9453C25.7461 61.9974 25.7383 62.0495 25.7383 62.1016C25.7383 62.1562 25.7461 62.2109 25.7617 62.2656C25.7799 62.3177 25.8073 62.3646 25.8438 62.4062C25.8802 62.4453 25.9232 62.4661 25.9727 62.4688H27.2695C27.319 62.4661 27.362 62.4453 27.3984 62.4062C27.4349 62.3646 27.4609 62.3177 27.4766 62.2656C27.4948 62.2109 27.5039 62.1562 27.5039 62.1016C27.5039 62.0495 27.4948 61.9974 27.4766 61.9453C27.4609 61.8906 27.4349 61.8438 27.3984 61.8047C27.362 61.763 27.319 61.7422 27.2695 61.7422H25.9727ZM29.7305 63.0586C29.5951 63.0586 29.4609 63.043 29.3281 63.0117C29.1979 62.9805 29.0729 62.9349 28.9531 62.875C28.8333 62.8125 28.7279 62.7305 28.6367 62.6289C28.5456 62.5273 28.4961 62.4062 28.4883 62.2656V62.1016V61.4336C28.4883 61.3607 28.5143 61.3008 28.5664 61.2539C28.6211 61.2044 28.6849 61.1797 28.7578 61.1797C28.9141 61.1927 28.9987 61.2773 29.0117 61.4336V61.6055V62.1445C29.0169 62.2253 29.0469 62.293 29.1016 62.3477C29.1589 62.3997 29.2214 62.4414 29.2891 62.4727C29.3594 62.5039 29.431 62.5273 29.5039 62.543C29.5794 62.5586 29.6549 62.5664 29.7305 62.5664C29.806 62.5664 29.8802 62.5586 29.9531 62.543C30.0286 62.5273 30.1003 62.5039 30.168 62.4727C30.2383 62.4414 30.3008 62.3997 30.3555 62.3477C30.4128 62.293 30.444 62.2253 30.4492 62.1445V61.6055V61.4336C30.4492 61.3607 30.4753 61.3008 30.5273 61.2539C30.582 61.2044 30.6458 61.1797 30.7188 61.1797C30.875 61.1927 30.9609 61.2773 30.9766 61.4336V62.1016V62.2656C30.9688 62.4062 30.918 62.5273 30.8242 62.6289C30.7331 62.7305 30.6276 62.8125 30.5078 62.875C30.388 62.9349 30.2617 62.9805 30.1289 63.0117C29.9987 63.043 29.8659 63.0586 29.7305 63.0586ZM34.2695 62.9922C34.0404 62.9844 33.8672 62.931 33.75 62.832C33.6328 62.7305 33.5482 62.6172 33.4961 62.4922C33.444 62.3646 33.418 62.2357 33.418 62.1055C33.418 61.9701 33.4427 61.8398 33.4922 61.7148C33.5443 61.5872 33.6289 61.474 33.7461 61.375C33.8659 61.2734 34.0169 61.2214 34.1992 61.2188H35.6836C35.7565 61.2188 35.8177 61.2448 35.8672 61.2969C35.9193 61.3464 35.9453 61.4076 35.9453 61.4805C35.9453 61.5534 35.9193 61.6159 35.8672 61.668C35.8177 61.7174 35.7565 61.7422 35.6836 61.7422H34.1836C34.1341 61.7422 34.0911 61.763 34.0547 61.8047C34.0182 61.8438 33.9909 61.8906 33.9727 61.9453C33.957 61.9974 33.9492 62.0495 33.9492 62.1016C33.9492 62.1562 33.957 62.2109 33.9727 62.2656C33.9909 62.3177 34.0182 62.3646 34.0547 62.4062C34.0911 62.4453 34.1341 62.4661 34.1836 62.4688H35.6836C35.7565 62.4688 35.8177 62.4948 35.8672 62.5469C35.9193 62.5964 35.9453 62.6576 35.9453 62.7305C35.9453 62.8034 35.9193 62.8646 35.8672 62.9141C35.8177 62.9661 35.7565 62.9922 35.6836 62.9922H34.2695ZM38.5391 62.7852V61.8438C38.5391 61.7786 38.5052 61.7448 38.4375 61.7422H37.0703C37.0208 61.7448 36.9779 61.7669 36.9414 61.8086C36.9049 61.8477 36.8776 61.8945 36.8594 61.9492C36.8438 62.0013 36.8359 62.0547 36.8359 62.1094C36.8359 62.1615 36.8438 62.2148 36.8594 62.2695C36.8776 62.3216 36.9049 62.3685 36.9414 62.4102C36.9779 62.4492 37.0208 62.4688 37.0703 62.4688H38.0703C38.1432 62.4688 38.2044 62.4948 38.2539 62.5469C38.306 62.5964 38.332 62.6576 38.332 62.7305C38.332 62.8034 38.306 62.8646 38.2539 62.9141C38.2044 62.9661 38.1432 62.9922 38.0703 62.9922H37.0859C36.9036 62.9896 36.7526 62.9388 36.6328 62.8398C36.5156 62.7383 36.431 62.625 36.3789 62.5C36.3294 62.3724 36.3047 62.2409 36.3047 62.1055C36.3047 61.9753 36.3307 61.8477 36.3828 61.7227C36.4349 61.5951 36.5195 61.4818 36.6367 61.3828C36.7539 61.2812 36.9271 61.2266 37.1562 61.2188H38.7969C38.8698 61.2188 38.9323 61.2435 38.9844 61.293C39.0365 61.3398 39.0638 61.3997 39.0664 61.4727V62.7852C39.0664 62.8581 39.0391 62.9193 38.9844 62.9688C38.9323 63.0156 38.8698 63.0391 38.7969 63.0391C38.6406 63.026 38.5547 62.9414 38.5391 62.7852ZM40.8164 61.1602C40.9518 61.1602 41.0846 61.1758 41.2148 61.207C41.3477 61.2383 41.474 61.2852 41.5938 61.3477C41.7135 61.4076 41.819 61.4883 41.9102 61.5898C42.0039 61.6914 42.0547 61.8125 42.0625 61.9531V62.1172V62.7852C42.0469 62.9414 41.9609 63.026 41.8047 63.0391C41.7318 63.0391 41.668 63.0156 41.6133 62.9688C41.5612 62.9193 41.5352 62.8581 41.5352 62.7852V62.6133V62.0742C41.5299 61.9935 41.4987 61.9271 41.4414 61.875C41.3867 61.8203 41.3242 61.7773 41.2539 61.7461C41.1862 61.7148 41.1146 61.6914 41.0391 61.6758C40.9661 61.6602 40.8919 61.6523 40.8164 61.6523C40.7409 61.6523 40.6654 61.6602 40.5898 61.6758C40.5169 61.6914 40.4453 61.7148 40.375 61.7461C40.3073 61.7773 40.2448 61.8203 40.1875 61.875C40.1328 61.9271 40.1029 61.9935 40.0977 62.0742V62.6133V62.7852C40.0846 62.9414 40 63.026 39.8438 63.0391C39.7708 63.0391 39.707 63.0156 39.6523 62.9688C39.6003 62.9193 39.5742 62.8581 39.5742 62.7852V62.1172V61.9531C39.582 61.8125 39.6315 61.6914 39.7227 61.5898C39.8138 61.4883 39.9193 61.4076 40.0391 61.3477C40.1589 61.2852 40.2839 61.2383 40.4141 61.207C40.5469 61.1758 40.681 61.1602 40.8164 61.1602ZM44.8281 60.625C44.8984 60.6276 44.9583 60.6536 45.0078 60.7031C45.0573 60.75 45.0833 60.8086 45.0859 60.8789V62.793C45.0703 62.9492 44.9844 63.0339 44.8281 63.0469C44.7552 63.0469 44.6914 63.0234 44.6367 62.9766C44.5846 62.9271 44.5586 62.8659 44.5586 62.793V60.8789C44.5612 60.806 44.5885 60.7461 44.6406 60.6992C44.6927 60.6497 44.7552 60.625 44.8281 60.625ZM46.3906 62.9922C46.1615 62.9844 45.9883 62.931 45.8711 62.832C45.7539 62.7305 45.6693 62.6172 45.6172 62.4922C45.5651 62.3646 45.5391 62.2357 45.5391 62.1055C45.5391 61.9701 45.5638 61.8398 45.6133 61.7148C45.6654 61.5872 45.75 61.474 45.8672 61.375C45.987 61.2734 46.138 61.2214 46.3203 61.2188H47.5859C47.7682 61.2214 47.918 61.2734 48.0352 61.375C48.1549 61.474 48.2396 61.5872 48.2891 61.7148C48.3411 61.8398 48.3672 61.9701 48.3672 62.1055C48.3672 62.2357 48.3411 62.3646 48.2891 62.4922C48.237 62.6172 48.1523 62.7305 48.0352 62.832C47.918 62.931 47.7448 62.9844 47.5156 62.9922H46.3906ZM46.3047 61.7422C46.2552 61.7422 46.2122 61.763 46.1758 61.8047C46.1393 61.8438 46.112 61.8906 46.0938 61.9453C46.0781 61.9974 46.0703 62.0495 46.0703 62.1016C46.0703 62.1562 46.0781 62.2109 46.0938 62.2656C46.112 62.3177 46.1393 62.3646 46.1758 62.4062C46.2122 62.4453 46.2552 62.4661 46.3047 62.4688H47.6016C47.651 62.4661 47.694 62.4453 47.7305 62.4062C47.7669 62.3646 47.793 62.3177 47.8086 62.2656C47.8268 62.2109 47.8359 62.1562 47.8359 62.1016C47.8359 62.0495 47.8268 61.9974 47.8086 61.9453C47.793 61.8906 47.7669 61.8438 47.7305 61.8047C47.694 61.763 47.651 61.7422 47.6016 61.7422H46.3047ZM49.6094 62.9922C49.3802 62.9844 49.207 62.931 49.0898 62.832C48.9727 62.7305 48.888 62.6172 48.8359 62.4922C48.7839 62.3646 48.7578 62.2357 48.7578 62.1055C48.7578 61.9701 48.7826 61.8398 48.832 61.7148C48.8841 61.5872 48.9688 61.474 49.0859 61.375C49.2057 61.2734 49.3568 61.2214 49.5391 61.2188H51.0234C51.0964 61.2188 51.1576 61.2448 51.207 61.2969C51.2591 61.3464 51.2852 61.4076 51.2852 61.4805C51.2852 61.5534 51.2591 61.6159 51.207 61.668C51.1576 61.7174 51.0964 61.7422 51.0234 61.7422H49.5234C49.474 61.7422 49.431 61.763 49.3945 61.8047C49.3581 61.8438 49.3307 61.8906 49.3125 61.9453C49.2969 61.9974 49.2891 62.0495 49.2891 62.1016C49.2891 62.1562 49.2969 62.2109 49.3125 62.2656C49.3307 62.3177 49.3581 62.3646 49.3945 62.4062C49.431 62.4453 49.474 62.4661 49.5234 62.4688H51.0234C51.0964 62.4688 51.1576 62.4948 51.207 62.5469C51.2591 62.5964 51.2852 62.6576 51.2852 62.7305C51.2852 62.8034 51.2591 62.8646 51.207 62.9141C51.1576 62.9661 51.0964 62.9922 51.0234 62.9922H49.6094ZM51.9648 60.625C52.0352 60.6276 52.0951 60.6536 52.1445 60.7031C52.194 60.75 52.2201 60.8086 52.2227 60.8789V62.793C52.207 62.9492 52.1211 63.0339 51.9648 63.0469C51.8919 63.0469 51.8281 63.0234 51.7734 62.9766C51.7214 62.9271 51.6953 62.8659 51.6953 62.793V60.8789C51.6979 60.806 51.7253 60.7461 51.7773 60.6992C51.8294 60.6497 51.8919 60.625 51.9648 60.625ZM52.4609 61.7148C52.5365 61.5924 52.681 61.5026 52.8945 61.4453L53.8984 61.1758C53.9688 61.1549 54.0352 61.1615 54.0977 61.1953C54.1628 61.2266 54.2057 61.2773 54.2266 61.3477C54.25 61.4154 54.2448 61.4818 54.2109 61.5469C54.1797 61.6094 54.1289 61.6523 54.0586 61.6758L52.9883 61.9531C52.9128 61.9818 52.8763 62.0312 52.8789 62.1016C52.8763 62.1719 52.9128 62.2214 52.9883 62.25L54.0586 62.5273C54.1289 62.5508 54.1797 62.5951 54.2109 62.6602C54.2448 62.7227 54.25 62.7878 54.2266 62.8555C54.2057 62.9258 54.1628 62.9766 54.0977 63.0078C54.0352 63.0417 53.9688 63.0482 53.8984 63.0273L52.8945 62.7578C52.6784 62.6979 52.5326 62.6068 52.457 62.4844C52.3841 62.362 52.3477 62.2344 52.3477 62.1016C52.3477 61.9688 52.3854 61.8398 52.4609 61.7148ZM57.4961 60.625C57.569 60.625 57.6315 60.6497 57.6836 60.6992C57.7357 60.7461 57.763 60.806 57.7656 60.8789V61.2188H59.0938C59.1667 61.2188 59.2292 61.2435 59.2812 61.293C59.3307 61.3451 59.3555 61.4076 59.3555 61.4805C59.3555 61.5534 59.3294 61.6159 59.2773 61.668C59.2279 61.7174 59.1667 61.7422 59.0938 61.7422H57.7656V61.8203C57.763 61.9271 57.7695 62.026 57.7852 62.1172C57.8034 62.2057 57.8451 62.2852 57.9102 62.3555C57.9753 62.4258 58.0573 62.4635 58.1562 62.4688H59.1094C59.1823 62.4714 59.2422 62.4987 59.2891 62.5508C59.3385 62.6029 59.3633 62.6654 59.3633 62.7383C59.3607 62.8086 59.3346 62.8685 59.2852 62.918C59.2383 62.9648 59.1797 62.9896 59.1094 62.9922H58.0234C57.8411 62.9818 57.6901 62.9206 57.5703 62.8086C57.4531 62.694 57.3685 62.5547 57.3164 62.3906C57.2669 62.2266 57.2409 62.0521 57.2383 61.8672V61.7422H56.7891C56.7161 61.7422 56.6549 61.7161 56.6055 61.6641C56.5534 61.6146 56.5273 61.5534 56.5273 61.4805C56.5273 61.4076 56.5521 61.3464 56.6016 61.2969C56.6536 61.2448 56.7161 61.2188 56.7891 61.2188H57.2383V60.8789C57.2409 60.8086 57.2669 60.75 57.3164 60.7031C57.3659 60.6536 57.4258 60.6276 57.4961 60.625ZM60.0078 60.625C60.0781 60.6276 60.138 60.6536 60.1875 60.7031C60.237 60.75 60.263 60.8086 60.2656 60.8789V61.2188H61.4766C61.6589 61.2214 61.8086 61.2734 61.9258 61.375C62.0456 61.474 62.1302 61.5859 62.1797 61.7109C62.2318 61.8385 62.2578 61.9701 62.2578 62.1055H62.2617V62.7852C62.2617 62.8581 62.2344 62.9193 62.1797 62.9688C62.1276 63.0156 62.0651 63.0391 61.9922 63.0391C61.8359 63.026 61.75 62.9414 61.7344 62.7852V62.1016C61.7344 62.0521 61.724 62 61.7031 61.9453C61.6849 61.8906 61.6576 61.8438 61.6211 61.8047C61.5846 61.763 61.5417 61.7422 61.4922 61.7422H60.2656V62.793C60.25 62.9492 60.1641 63.0339 60.0078 63.0469C59.9349 63.0469 59.8711 63.0234 59.8164 62.9766C59.7643 62.9271 59.7383 62.8659 59.7383 62.793V60.8789C59.7409 60.806 59.7682 60.7461 59.8203 60.6992C59.8724 60.6497 59.9349 60.625 60.0078 60.625ZM63.0234 61.1797C63.0938 61.1823 63.1536 61.2083 63.2031 61.2578C63.2526 61.3047 63.2786 61.3633 63.2812 61.4336V62.7852C63.2656 62.9414 63.1797 63.026 63.0234 63.0391C62.9505 63.0391 62.8867 63.0156 62.832 62.9688C62.7799 62.9193 62.7539 62.8581 62.7539 62.7852V61.4336C62.7565 61.3607 62.7839 61.3008 62.8359 61.2539C62.888 61.2044 62.9505 61.1797 63.0234 61.1797ZM62.6953 60.6719C62.6953 60.599 62.7266 60.5365 62.7891 60.4844C62.8516 60.4323 62.9271 60.4062 63.0156 60.4062C63.1042 60.4062 63.1797 60.4323 63.2422 60.4844C63.3047 60.5365 63.3359 60.599 63.3359 60.6719C63.3359 60.7474 63.3047 60.8112 63.2422 60.8633C63.1797 60.9154 63.1042 60.9414 63.0156 60.9414C62.9271 60.9414 62.8516 60.9154 62.7891 60.8633C62.7266 60.8112 62.6953 60.7474 62.6953 60.6719ZM66.2383 61.4453C66.2383 61.5104 66.2122 61.5651 66.1602 61.6094C66.1107 61.651 66.0495 61.6719 65.9766 61.6719H64.3242C64.2904 61.6719 64.263 61.6784 64.2422 61.6914C64.2214 61.7044 64.2057 61.7188 64.1953 61.7344C64.1849 61.7474 64.1797 61.7591 64.1797 61.7695C64.1797 61.7826 64.1849 61.7969 64.1953 61.8125C64.2057 61.8255 64.2214 61.8385 64.2422 61.8516C64.263 61.862 64.2904 61.8685 64.3242 61.8711H65.6016C65.7656 61.8737 65.901 61.9062 66.0078 61.9688C66.1146 62.0286 66.1901 62.1003 66.2344 62.1836C66.2812 62.2643 66.3047 62.3464 66.3047 62.4297C66.3047 62.5104 66.2812 62.5924 66.2344 62.6758C66.1875 62.7565 66.1107 62.8281 66.0039 62.8906C65.8997 62.9505 65.7656 62.9805 65.6016 62.9805C65.5729 62.9831 65.5521 62.9844 65.5391 62.9844H64.0234C63.9505 62.9844 63.888 62.9635 63.8359 62.9219C63.7865 62.8776 63.7617 62.8242 63.7617 62.7617C63.7617 62.6966 63.7878 62.6419 63.8398 62.5977C63.8893 62.556 63.9505 62.5352 64.0234 62.5352H65.6328C65.6719 62.5378 65.7031 62.5326 65.7266 62.5195C65.7526 62.5065 65.7721 62.4922 65.7852 62.4766C65.7982 62.4609 65.8047 62.4453 65.8047 62.4297C65.8047 62.4219 65.7982 62.4089 65.7852 62.3906C65.7721 62.3698 65.7526 62.3542 65.7266 62.3438C65.7031 62.3307 65.6719 62.3229 65.6328 62.3203H64.3516C64.2005 62.3177 64.0755 62.2865 63.9766 62.2266C63.8776 62.1641 63.8073 62.0924 63.7656 62.0117C63.724 61.931 63.7031 61.8503 63.7031 61.7695C63.7031 61.6888 63.724 61.6094 63.7656 61.5312C63.8099 61.4505 63.8802 61.3815 63.9766 61.3242C64.0755 61.2643 64.2005 61.2318 64.3516 61.2266C64.3776 61.224 64.3971 61.2227 64.4102 61.2227H65.9766C66.0495 61.2227 66.1107 61.2448 66.1602 61.2891C66.2122 61.3307 66.2383 61.3828 66.2383 61.4453ZM69.2656 60.8789V62.3672C69.2656 62.4323 69.2995 62.4661 69.3672 62.4688H70.7344C70.7839 62.4661 70.8268 62.4453 70.8633 62.4062C70.8997 62.3646 70.9258 62.3177 70.9414 62.2656C70.9596 62.2109 70.9688 62.1562 70.9688 62.1016C70.9688 62.0495 70.9596 61.9974 70.9414 61.9453C70.9258 61.8906 70.8997 61.8438 70.8633 61.8047C70.8268 61.763 70.7839 61.7422 70.7344 61.7422H69.7344C69.6615 61.7422 69.599 61.7174 69.5469 61.668C69.4974 61.6159 69.4727 61.5534 69.4727 61.4805C69.4727 61.4076 69.4987 61.3464 69.5508 61.2969C69.6003 61.2448 69.6615 61.2188 69.7344 61.2188H70.7188C70.901 61.2214 71.0508 61.2734 71.168 61.375C71.2878 61.474 71.3724 61.5872 71.4219 61.7148C71.474 61.8398 71.5 61.9701 71.5 62.1055C71.5 62.2357 71.474 62.3646 71.4219 62.4922C71.3698 62.6172 71.2852 62.7305 71.168 62.832C71.0508 62.931 70.8776 62.9844 70.6484 62.9922H69.0078C68.9349 62.9922 68.8724 62.9688 68.8203 62.9219C68.7682 62.8724 68.7409 62.8112 68.7383 62.7383V60.8789C68.7383 60.806 68.7643 60.7461 68.8164 60.6992C68.8711 60.6497 68.9349 60.625 69.0078 60.625C69.1641 60.638 69.25 60.7227 69.2656 60.8789ZM72.1836 61.1719C72.2565 61.1719 72.319 61.1966 72.3711 61.2461C72.4232 61.293 72.4505 61.3529 72.4531 61.4258V61.8203C72.4505 61.9271 72.457 62.026 72.4727 62.1172C72.4909 62.2057 72.5326 62.2852 72.5977 62.3555C72.6628 62.4258 72.7448 62.4635 72.8438 62.4688H73.8867V61.4336C73.8867 61.3607 73.9128 61.3008 73.9648 61.2539C74.0195 61.2044 74.0833 61.1797 74.1562 61.1797C74.3125 61.1927 74.3984 61.2773 74.4141 61.4336V62.707C74.4141 62.9154 74.3854 63.112 74.3281 63.2969C74.276 63.4609 74.1901 63.599 74.0703 63.7109C73.9531 63.8255 73.8034 63.888 73.6211 63.8984H72.2695C72.1992 63.8958 72.1393 63.8698 72.0898 63.8203C72.043 63.7734 72.0182 63.7148 72.0156 63.6445C72.0156 63.5716 72.0391 63.5091 72.0859 63.457C72.1354 63.4049 72.1966 63.3776 72.2695 63.375H73.4883C73.5872 63.3698 73.6693 63.332 73.7344 63.2617C73.7995 63.1914 73.8411 63.1094 73.8594 63.0156C73.862 63.0078 73.8633 63 73.8633 62.9922H72.7109C72.5286 62.9818 72.3776 62.9206 72.2578 62.8086C72.1406 62.694 72.056 62.5547 72.0039 62.3906C71.9544 62.2266 71.9284 62.0521 71.9258 61.8672V61.4258C71.9284 61.3555 71.9544 61.2969 72.0039 61.25C72.0534 61.2005 72.1133 61.1745 72.1836 61.1719ZM23.0742 67.043C22.9857 67.043 22.8971 67.0273 22.8086 66.9961C22.7227 66.9648 22.6393 66.9193 22.5586 66.8594C22.4779 66.7969 22.4076 66.7148 22.3477 66.6133C22.2878 66.5117 22.2552 66.3906 22.25 66.25V65.418C22.25 65.3451 22.276 65.2852 22.3281 65.2383C22.3828 65.1888 22.4466 65.1641 22.5195 65.1641C22.6758 65.1771 22.7604 65.2617 22.7734 65.418V66.2188C22.776 66.2812 22.7891 66.3346 22.8125 66.3789C22.8359 66.4206 22.862 66.4544 22.8906 66.4805C22.9193 66.5039 22.9479 66.5221 22.9766 66.5352C23.0078 66.5456 23.0391 66.5508 23.0703 66.5508C23.1016 66.5508 23.1328 66.5456 23.1641 66.5352C23.1953 66.5221 23.2253 66.5039 23.2539 66.4805C23.2826 66.4544 23.3086 66.4206 23.332 66.3789C23.3555 66.3346 23.3672 66.2812 23.3672 66.2188V65.418C23.3672 65.3451 23.3932 65.2852 23.4453 65.2383C23.5 65.1888 23.5638 65.1641 23.6367 65.1641C23.793 65.1771 23.8789 65.2617 23.8945 65.418V66.2188C23.8971 66.2812 23.9102 66.3333 23.9336 66.375C23.957 66.4193 23.9831 66.4544 24.0117 66.4805C24.0404 66.5039 24.069 66.5221 24.0977 66.5352C24.1289 66.5456 24.1602 66.5508 24.1914 66.5508C24.2227 66.5508 24.2539 66.5456 24.2852 66.5352C24.3164 66.5221 24.3464 66.5039 24.375 66.4805C24.4036 66.4544 24.4297 66.4206 24.4531 66.3789C24.4766 66.3346 24.4883 66.2812 24.4883 66.2188V65.418C24.4883 65.3451 24.5143 65.2852 24.5664 65.2383C24.6211 65.1888 24.6849 65.1641 24.7578 65.1641C24.9141 65.1771 25 65.2617 25.0156 65.418V66.25C25.0156 66.3906 24.9844 66.5117 24.9219 66.6133C24.862 66.7148 24.7917 66.7969 24.7109 66.8594C24.6328 66.9193 24.5495 66.9648 24.4609 66.9961C24.375 67.0273 24.2865 67.043 24.1953 67.043C24.1068 67.043 24.0182 67.0273 23.9297 66.9961C23.8438 66.9648 23.7604 66.918 23.6797 66.8555C23.6641 66.8451 23.6497 66.8333 23.6367 66.8203C23.6211 66.8333 23.6068 66.8451 23.5938 66.8555C23.513 66.918 23.4284 66.9648 23.3398 66.9961C23.2539 67.0273 23.1654 67.043 23.0742 67.043ZM25.8008 65.1797C25.8711 65.1823 25.931 65.2083 25.9805 65.2578C26.0299 65.3047 26.056 65.3633 26.0586 65.4336V66.7852C26.043 66.9414 25.957 67.026 25.8008 67.0391C25.7279 67.0391 25.6641 67.0156 25.6094 66.9688C25.5573 66.9193 25.5312 66.8581 25.5312 66.7852V65.4336C25.5339 65.3607 25.5612 65.3008 25.6133 65.2539C25.6654 65.2044 25.7279 65.1797 25.8008 65.1797ZM25.4727 64.6719C25.4727 64.599 25.5039 64.5365 25.5664 64.4844C25.6289 64.4323 25.7044 64.4062 25.793 64.4062C25.8815 64.4062 25.957 64.4323 26.0195 64.4844C26.082 64.5365 26.1133 64.599 26.1133 64.6719C26.1133 64.7474 26.082 64.8112 26.0195 64.8633C25.957 64.9154 25.8815 64.9414 25.793 64.9414C25.7044 64.9414 25.6289 64.9154 25.5664 64.8633C25.5039 64.8112 25.4727 64.7474 25.4727 64.6719ZM27.7812 65.1602C27.9167 65.1602 28.0495 65.1758 28.1797 65.207C28.3125 65.2383 28.4388 65.2852 28.5586 65.3477C28.6784 65.4076 28.7839 65.4883 28.875 65.5898C28.9688 65.6914 29.0195 65.8125 29.0273 65.9531V66.1172V66.7852C29.0117 66.9414 28.9258 67.026 28.7695 67.0391C28.6966 67.0391 28.6328 67.0156 28.5781 66.9688C28.526 66.9193 28.5 66.8581 28.5 66.7852V66.6133V66.0742C28.4948 65.9935 28.4635 65.9271 28.4062 65.875C28.3516 65.8203 28.2891 65.7773 28.2188 65.7461C28.151 65.7148 28.0794 65.6914 28.0039 65.6758C27.931 65.6602 27.8568 65.6523 27.7812 65.6523C27.7057 65.6523 27.6302 65.6602 27.5547 65.6758C27.4818 65.6914 27.4102 65.7148 27.3398 65.7461C27.2721 65.7773 27.2096 65.8203 27.1523 65.875C27.0977 65.9271 27.0677 65.9935 27.0625 66.0742V66.6133V66.7852C27.0495 66.9414 26.9648 67.026 26.8086 67.0391C26.7357 67.0391 26.6719 67.0156 26.6172 66.9688C26.5651 66.9193 26.5391 66.8581 26.5391 66.7852V66.1172V65.9531C26.5469 65.8125 26.5964 65.6914 26.6875 65.5898C26.7786 65.4883 26.8841 65.4076 27.0039 65.3477C27.1237 65.2852 27.2487 65.2383 27.3789 65.207C27.5117 65.1758 27.6458 65.1602 27.7812 65.1602ZM29.793 65.1797C29.8633 65.1823 29.9232 65.2083 29.9727 65.2578C30.0221 65.3047 30.0482 65.3633 30.0508 65.4336V66.7852C30.0352 66.9414 29.9492 67.026 29.793 67.0391C29.7201 67.0391 29.6562 67.0156 29.6016 66.9688C29.5495 66.9193 29.5234 66.8581 29.5234 66.7852V65.4336C29.526 65.3607 29.5534 65.3008 29.6055 65.2539C29.6576 65.2044 29.7201 65.1797 29.793 65.1797ZM29.4648 64.6719C29.4648 64.599 29.4961 64.5365 29.5586 64.4844C29.6211 64.4323 29.6966 64.4062 29.7852 64.4062C29.8737 64.4062 29.9492 64.4323 30.0117 64.4844C30.0742 64.5365 30.1055 64.599 30.1055 64.6719C30.1055 64.7474 30.0742 64.8112 30.0117 64.8633C29.9492 64.9154 29.8737 64.9414 29.7852 64.9414C29.6966 64.9414 29.6211 64.9154 29.5586 64.8633C29.4961 64.8112 29.4648 64.7474 29.4648 64.6719ZM31.7734 65.1602C31.9089 65.1602 32.0417 65.1758 32.1719 65.207C32.3047 65.2383 32.431 65.2852 32.5508 65.3477C32.6706 65.4076 32.776 65.4883 32.8672 65.5898C32.9609 65.6914 33.0117 65.8125 33.0195 65.9531V66.1172V66.7852C33.0039 66.9414 32.918 67.026 32.7617 67.0391C32.6888 67.0391 32.625 67.0156 32.5703 66.9688C32.5182 66.9193 32.4922 66.8581 32.4922 66.7852V66.6133V66.0742C32.487 65.9935 32.4557 65.9271 32.3984 65.875C32.3438 65.8203 32.2812 65.7773 32.2109 65.7461C32.1432 65.7148 32.0716 65.6914 31.9961 65.6758C31.9232 65.6602 31.849 65.6523 31.7734 65.6523C31.6979 65.6523 31.6224 65.6602 31.5469 65.6758C31.474 65.6914 31.4023 65.7148 31.332 65.7461C31.2643 65.7773 31.2018 65.8203 31.1445 65.875C31.0898 65.9271 31.0599 65.9935 31.0547 66.0742V66.6133V66.7852C31.0417 66.9414 30.957 67.026 30.8008 67.0391C30.7279 67.0391 30.6641 67.0156 30.6094 66.9688C30.5573 66.9193 30.5312 66.8581 30.5312 66.7852V66.1172V65.9531C30.5391 65.8125 30.5885 65.6914 30.6797 65.5898C30.7708 65.4883 30.8763 65.4076 30.9961 65.3477C31.1159 65.2852 31.2409 65.2383 31.3711 65.207C31.5039 65.1758 31.638 65.1602 31.7734 65.1602ZM35.707 65.8438C35.707 65.7786 35.6732 65.7448 35.6055 65.7422H34.2383C34.1888 65.7448 34.1458 65.7669 34.1094 65.8086C34.0729 65.8477 34.0456 65.8945 34.0273 65.9492C34.0117 66.0013 34.0039 66.0547 34.0039 66.1094C34.0039 66.1615 34.0117 66.2148 34.0273 66.2695C34.0456 66.3216 34.0729 66.3685 34.1094 66.4102C34.1458 66.4492 34.1888 66.4688 34.2383 66.4688H35.2383C35.3112 66.4688 35.3724 66.4948 35.4219 66.5469C35.474 66.5964 35.5 66.6576 35.5 66.7305C35.5 66.8034 35.474 66.8646 35.4219 66.9141C35.3724 66.9661 35.3112 66.9922 35.2383 66.9922H34.2539C34.0716 66.9896 33.9206 66.9388 33.8008 66.8398C33.6836 66.7383 33.599 66.625 33.5469 66.5C33.4974 66.3724 33.4727 66.2409 33.4727 66.1055C33.4727 65.9753 33.4987 65.8477 33.5508 65.7227C33.6029 65.5951 33.6875 65.4818 33.8047 65.3828C33.9219 65.2812 34.0951 65.2266 34.3242 65.2188H35.9648C36.0378 65.2188 36.1003 65.2435 36.1523 65.293C36.2044 65.3398 36.2318 65.3997 36.2344 65.4727V66.707C36.2344 66.9154 36.2057 67.112 36.1484 67.2969C36.0964 67.4609 36.0104 67.599 35.8906 67.7109C35.7734 67.8255 35.6237 67.888 35.4414 67.8984H34.0898C34.0195 67.8958 33.9596 67.8698 33.9102 67.8203C33.8633 67.7734 33.8385 67.7148 33.8359 67.6445C33.8359 67.5716 33.8594 67.5091 33.9062 67.457C33.9557 67.4049 34.0169 67.3776 34.0898 67.375H35.3086C35.4076 67.3698 35.4896 67.332 35.5547 67.2617C35.6198 67.1914 35.6615 67.1094 35.6797 67.0156C35.6979 66.9219 35.707 66.8008 35.707 66.6523V65.8438ZM39.0312 65.1797C39.1016 65.1823 39.1615 65.2083 39.2109 65.2578C39.2604 65.3047 39.2865 65.3633 39.2891 65.4336V66.7852C39.2734 66.9414 39.1875 67.026 39.0312 67.0391C38.9583 67.0391 38.8945 67.0156 38.8398 66.9688C38.7878 66.9193 38.7617 66.8581 38.7617 66.7852V65.4336C38.7643 65.3607 38.7917 65.3008 38.8438 65.2539C38.8958 65.2044 38.9583 65.1797 39.0312 65.1797ZM38.7031 64.6719C38.7031 64.599 38.7344 64.5365 38.7969 64.4844C38.8594 64.4323 38.9349 64.4062 39.0234 64.4062C39.112 64.4062 39.1875 64.4323 39.25 64.4844C39.3125 64.5365 39.3438 64.599 39.3438 64.6719C39.3438 64.7474 39.3125 64.8112 39.25 64.8633C39.1875 64.9154 39.112 64.9414 39.0234 64.9414C38.9349 64.9414 38.8594 64.9154 38.7969 64.8633C38.7344 64.8112 38.7031 64.7474 38.7031 64.6719ZM41.0117 65.1602C41.1471 65.1602 41.2799 65.1758 41.4102 65.207C41.543 65.2383 41.6693 65.2852 41.7891 65.3477C41.9089 65.4076 42.0143 65.4883 42.1055 65.5898C42.1992 65.6914 42.25 65.8125 42.2578 65.9531V66.1172V66.7852C42.2422 66.9414 42.1562 67.026 42 67.0391C41.9271 67.0391 41.8633 67.0156 41.8086 66.9688C41.7565 66.9193 41.7305 66.8581 41.7305 66.7852V66.6133V66.0742C41.7253 65.9935 41.694 65.9271 41.6367 65.875C41.582 65.8203 41.5195 65.7773 41.4492 65.7461C41.3815 65.7148 41.3099 65.6914 41.2344 65.6758C41.1615 65.6602 41.0872 65.6523 41.0117 65.6523C40.9362 65.6523 40.8607 65.6602 40.7852 65.6758C40.7122 65.6914 40.6406 65.7148 40.5703 65.7461C40.5026 65.7773 40.4401 65.8203 40.3828 65.875C40.3281 65.9271 40.2982 65.9935 40.293 66.0742V66.6133V66.7852C40.2799 66.9414 40.1953 67.026 40.0391 67.0391C39.9661 67.0391 39.9023 67.0156 39.8477 66.9688C39.7956 66.9193 39.7695 66.8581 39.7695 66.7852V66.1172V65.9531C39.7773 65.8125 39.8268 65.6914 39.918 65.5898C40.0091 65.4883 40.1146 65.4076 40.2344 65.3477C40.3542 65.2852 40.4792 65.2383 40.6094 65.207C40.7422 65.1758 40.8763 65.1602 41.0117 65.1602ZM44.7812 66.7227C44.7812 66.6497 44.8073 66.5885 44.8594 66.5391C44.9089 66.487 44.9701 66.4609 45.043 66.4609H46.6445C46.694 66.4583 46.7344 66.4466 46.7656 66.4258C46.7995 66.4049 46.8242 66.3815 46.8398 66.3555C46.8555 66.3294 46.8633 66.3021 46.8633 66.2734C46.8633 66.2448 46.8555 66.2174 46.8398 66.1914C46.8242 66.1654 46.7995 66.1419 46.7656 66.1211C46.7344 66.1003 46.694 66.0885 46.6445 66.0859H45.5352C45.3529 66.0807 45.2018 66.0391 45.082 65.9609C44.9648 65.8802 44.8802 65.7891 44.8281 65.6875C44.7786 65.5833 44.7539 65.4779 44.7539 65.3711V65.1016C44.7565 64.9688 44.7956 64.8672 44.8711 64.7969C44.9492 64.724 45.0612 64.6875 45.207 64.6875H47.1211C47.194 64.6875 47.2552 64.7135 47.3047 64.7656C47.3568 64.8151 47.3828 64.8763 47.3828 64.9492C47.3828 65.0221 47.3568 65.0833 47.3047 65.1328C47.2552 65.1849 47.194 65.2109 47.1211 65.2109H45.418C45.3685 65.2083 45.3346 65.2161 45.3164 65.2344C45.3008 65.2526 45.293 65.2786 45.293 65.3125V65.3711C45.293 65.3893 45.3008 65.4154 45.3164 65.4492C45.332 65.4805 45.3555 65.5065 45.3867 65.5273C45.4206 65.5482 45.4622 65.5599 45.5117 65.5625H46.6211C46.8034 65.5651 46.9531 65.6068 47.0703 65.6875C47.1901 65.7656 47.2747 65.8568 47.3242 65.9609C47.3763 66.0625 47.4023 66.1667 47.4023 66.2734C47.4023 66.375 47.3763 66.4779 47.3242 66.582C47.2721 66.6836 47.1875 66.7747 47.0703 66.8555C46.9531 66.9336 46.8034 66.9753 46.6211 66.9805H46.5977C46.582 66.9831 46.5664 66.9844 46.5508 66.9844H45.043C44.9701 66.9844 44.9076 66.9596 44.8555 66.9102C44.806 66.8581 44.7812 66.7956 44.7812 66.7227ZM52.0703 65.8438C52.0703 65.7786 52.0365 65.7448 51.9688 65.7422H50.6016C50.5521 65.7448 50.5091 65.7669 50.4727 65.8086C50.4362 65.8477 50.4089 65.8945 50.3906 65.9492C50.375 66.0013 50.3672 66.0547 50.3672 66.1094C50.3672 66.1615 50.375 66.2148 50.3906 66.2695C50.4089 66.3216 50.4362 66.3685 50.4727 66.4102C50.5091 66.4492 50.5521 66.4688 50.6016 66.4688H51.6016C51.6745 66.4688 51.7357 66.4948 51.7852 66.5469C51.8372 66.5964 51.8633 66.6576 51.8633 66.7305C51.8633 66.8034 51.8372 66.8646 51.7852 66.9141C51.7357 66.9661 51.6745 66.9922 51.6016 66.9922H50.6172C50.4349 66.9896 50.2839 66.9388 50.1641 66.8398C50.0469 66.7383 49.9622 66.625 49.9102 66.5C49.8607 66.3724 49.8359 66.2409 49.8359 66.1055C49.8359 65.9753 49.862 65.8477 49.9141 65.7227C49.9661 65.5951 50.0508 65.4818 50.168 65.3828C50.2852 65.2812 50.4583 65.2266 50.6875 65.2188H52.3281C52.401 65.2188 52.4635 65.2435 52.5156 65.293C52.5677 65.3398 52.5951 65.3997 52.5977 65.4727V66.707C52.5977 66.9154 52.569 67.112 52.5117 67.2969C52.4596 67.4609 52.3737 67.599 52.2539 67.7109C52.1367 67.8255 51.987 67.888 51.8047 67.8984H50.4531C50.3828 67.8958 50.3229 67.8698 50.2734 67.8203C50.2266 67.7734 50.2018 67.7148 50.1992 67.6445C50.1992 67.5716 50.2227 67.5091 50.2695 67.457C50.319 67.4049 50.3802 67.3776 50.4531 67.375H51.6719C51.7708 67.3698 51.8529 67.332 51.918 67.2617C51.9831 67.1914 52.0247 67.1094 52.043 67.0156C52.0612 66.9219 52.0703 66.8008 52.0703 66.6523V65.8438ZM55.3086 66.7852V65.8438C55.3086 65.7786 55.2747 65.7448 55.207 65.7422H53.8398C53.7904 65.7448 53.7474 65.7669 53.7109 65.8086C53.6745 65.8477 53.6471 65.8945 53.6289 65.9492C53.6133 66.0013 53.6055 66.0547 53.6055 66.1094C53.6055 66.1615 53.6133 66.2148 53.6289 66.2695C53.6471 66.3216 53.6745 66.3685 53.7109 66.4102C53.7474 66.4492 53.7904 66.4688 53.8398 66.4688H54.8398C54.9128 66.4688 54.974 66.4948 55.0234 66.5469C55.0755 66.5964 55.1016 66.6576 55.1016 66.7305C55.1016 66.8034 55.0755 66.8646 55.0234 66.9141C54.974 66.9661 54.9128 66.9922 54.8398 66.9922H53.8555C53.6732 66.9896 53.5221 66.9388 53.4023 66.8398C53.2852 66.7383 53.2005 66.625 53.1484 66.5C53.099 66.3724 53.0742 66.2409 53.0742 66.1055C53.0742 65.9753 53.1003 65.8477 53.1523 65.7227C53.2044 65.5951 53.2891 65.4818 53.4062 65.3828C53.5234 65.2812 53.6966 65.2266 53.9258 65.2188H55.5664C55.6393 65.2188 55.7018 65.2435 55.7539 65.293C55.806 65.3398 55.8333 65.3997 55.8359 65.4727V66.7852C55.8359 66.8581 55.8086 66.9193 55.7539 66.9688C55.7018 67.0156 55.6393 67.0391 55.5664 67.0391C55.4102 67.026 55.3242 66.9414 55.3086 66.7852ZM57.168 65.1602C57.2591 65.1602 57.3477 65.1758 57.4336 65.207C57.5221 65.2383 57.6068 65.2839 57.6875 65.3438C57.7005 65.3568 57.7148 65.3698 57.7305 65.3828C57.7435 65.3698 57.7578 65.3568 57.7734 65.3438C57.8542 65.2839 57.9375 65.2383 58.0234 65.207C58.112 65.1758 58.2005 65.1602 58.2891 65.1602C58.3802 65.1602 58.4688 65.1758 58.5547 65.207C58.6432 65.2383 58.7266 65.2852 58.8047 65.3477C58.8854 65.4076 58.9557 65.4883 59.0156 65.5898C59.0781 65.6914 59.1094 65.8125 59.1094 65.9531V66.7852C59.0938 66.9414 59.0078 67.026 58.8516 67.0391C58.7786 67.0391 58.7148 67.0156 58.6602 66.9688C58.6081 66.9193 58.582 66.8581 58.582 66.7852V65.9844C58.582 65.9219 58.5703 65.8698 58.5469 65.8281C58.5234 65.7839 58.4974 65.75 58.4688 65.7266C58.4401 65.7005 58.4102 65.6823 58.3789 65.6719C58.3477 65.6589 58.3164 65.6523 58.2852 65.6523C58.2539 65.6523 58.2227 65.6589 58.1914 65.6719C58.1628 65.6823 58.1341 65.7005 58.1055 65.7266C58.0768 65.75 58.0508 65.7839 58.0273 65.8281C58.0039 65.8698 57.9909 65.9219 57.9883 65.9844V66.7852C57.9727 66.9414 57.8867 67.026 57.7305 67.0391C57.6576 67.0391 57.5938 67.0156 57.5391 66.9688C57.487 66.9193 57.4609 66.8581 57.4609 66.7852V65.9844C57.4609 65.9219 57.4492 65.8698 57.4258 65.8281C57.4023 65.7839 57.3763 65.75 57.3477 65.7266C57.319 65.7005 57.2891 65.6823 57.2578 65.6719C57.2266 65.6589 57.1953 65.6523 57.1641 65.6523C57.1328 65.6523 57.1016 65.6589 57.0703 65.6719C57.0417 65.6823 57.013 65.7005 56.9844 65.7266C56.9557 65.75 56.9297 65.7839 56.9062 65.8281C56.8828 65.8698 56.8698 65.9219 56.8672 65.9844V66.7852C56.8542 66.9414 56.7695 67.026 56.6133 67.0391C56.5404 67.0391 56.4766 67.0156 56.4219 66.9688C56.3698 66.9193 56.3438 66.8581 56.3438 66.7852V65.9531C56.349 65.8125 56.3815 65.6914 56.4414 65.5898C56.5013 65.4883 56.5716 65.4076 56.6523 65.3477C56.7331 65.2852 56.8164 65.2383 56.9023 65.207C56.9909 65.1758 57.0794 65.1602 57.168 65.1602ZM60.3945 66.9922C60.1654 66.9844 59.9922 66.931 59.875 66.832C59.7578 66.7305 59.6732 66.6172 59.6211 66.4922C59.569 66.3646 59.543 66.2357 59.543 66.1055C59.543 65.9701 59.5677 65.8398 59.6172 65.7148C59.6693 65.5872 59.7539 65.474 59.8711 65.375C59.9909 65.2734 60.1419 65.2214 60.3242 65.2188H61.8086C61.8815 65.2188 61.9427 65.2435 61.9922 65.293C62.0443 65.3398 62.0703 65.3971 62.0703 65.4648C62.0703 65.5352 62.0443 65.5951 61.9922 65.6445C61.9427 65.6914 61.8815 65.7148 61.8086 65.7148H60.3477C60.2904 65.7148 60.2396 65.7344 60.1953 65.7734C60.1536 65.8125 60.1224 65.8633 60.1016 65.9258C60.0833 65.9883 60.0742 66.0495 60.0742 66.1094C60.0742 66.1745 60.0833 66.2383 60.1016 66.3008C60.1224 66.3633 60.1536 66.4141 60.1953 66.4531C60.2396 66.4896 60.2904 66.5091 60.3477 66.5117H61.8086C61.8815 66.5117 61.9427 66.5352 61.9922 66.582C62.0443 66.6289 62.0703 66.6849 62.0703 66.75C62.0703 66.8177 62.0443 66.875 61.9922 66.9219C61.9427 66.9688 61.8815 66.9922 61.8086 66.9922H60.3945ZM62.0234 66.0977C62.0234 66.1471 62.0013 66.1901 61.957 66.2266C61.918 66.2604 61.8685 66.2773 61.8086 66.2773H60.5312C60.4714 66.2773 60.4206 66.2604 60.3789 66.2266C60.3372 66.1901 60.3164 66.1471 60.3164 66.0977C60.3164 66.0508 60.3372 66.0091 60.3789 65.9727C60.4206 65.9388 60.4714 65.9219 60.5312 65.9219H61.8086C61.8685 65.9219 61.9193 65.9401 61.9609 65.9766C62.0026 66.0104 62.0234 66.0508 62.0234 66.0977ZM64.7891 65.1797C64.8594 65.1823 64.9193 65.2083 64.9688 65.2578C65.0182 65.3047 65.0443 65.3633 65.0469 65.4336V66.7852C65.0312 66.9414 64.9453 67.026 64.7891 67.0391C64.7161 67.0391 64.6523 67.0156 64.5977 66.9688C64.5456 66.9193 64.5195 66.8581 64.5195 66.7852V65.4336C64.5221 65.3607 64.5495 65.3008 64.6016 65.2539C64.6536 65.2044 64.7161 65.1797 64.7891 65.1797ZM64.4609 64.6719C64.4609 64.599 64.4922 64.5365 64.5547 64.4844C64.6172 64.4323 64.6927 64.4062 64.7812 64.4062C64.8698 64.4062 64.9453 64.4323 65.0078 64.4844C65.0703 64.5365 65.1016 64.599 65.1016 64.6719C65.1016 64.7474 65.0703 64.8112 65.0078 64.8633C64.9453 64.9154 64.8698 64.9414 64.7812 64.9414C64.6927 64.9414 64.6172 64.9154 64.5547 64.8633C64.4922 64.8112 64.4609 64.7474 64.4609 64.6719ZM66.7695 65.1602C66.9049 65.1602 67.0378 65.1758 67.168 65.207C67.3008 65.2383 67.4271 65.2852 67.5469 65.3477C67.6667 65.4076 67.7721 65.4883 67.8633 65.5898C67.957 65.6914 68.0078 65.8125 68.0156 65.9531V66.1172V66.7852C68 66.9414 67.9141 67.026 67.7578 67.0391C67.6849 67.0391 67.6211 67.0156 67.5664 66.9688C67.5143 66.9193 67.4883 66.8581 67.4883 66.7852V66.6133V66.0742C67.4831 65.9935 67.4518 65.9271 67.3945 65.875C67.3398 65.8203 67.2773 65.7773 67.207 65.7461C67.1393 65.7148 67.0677 65.6914 66.9922 65.6758C66.9193 65.6602 66.8451 65.6523 66.7695 65.6523C66.694 65.6523 66.6185 65.6602 66.543 65.6758C66.4701 65.6914 66.3984 65.7148 66.3281 65.7461C66.2604 65.7773 66.1979 65.8203 66.1406 65.875C66.0859 65.9271 66.056 65.9935 66.0508 66.0742V66.6133V66.7852C66.0378 66.9414 65.9531 67.026 65.7969 67.0391C65.724 67.0391 65.6602 67.0156 65.6055 66.9688C65.5534 66.9193 65.5273 66.8581 65.5273 66.7852V66.1172V65.9531C65.5352 65.8125 65.5846 65.6914 65.6758 65.5898C65.7669 65.4883 65.8724 65.4076 65.9922 65.3477C66.112 65.2852 66.237 65.2383 66.3672 65.207C66.5 65.1758 66.6341 65.1602 66.7695 65.1602ZM23.0938 68.625C23.1667 68.625 23.2292 68.6497 23.2812 68.6992C23.3333 68.7461 23.3607 68.806 23.3633 68.8789V69.2188H24.6914C24.7643 69.2188 24.8268 69.2435 24.8789 69.293C24.9284 69.3451 24.9531 69.4076 24.9531 69.4805C24.9531 69.5534 24.9271 69.6159 24.875 69.668C24.8255 69.7174 24.7643 69.7422 24.6914 69.7422H23.3633V69.8203C23.3607 69.9271 23.3672 70.026 23.3828 70.1172C23.401 70.2057 23.4427 70.2852 23.5078 70.3555C23.5729 70.4258 23.6549 70.4635 23.7539 70.4688H24.707C24.7799 70.4714 24.8398 70.4987 24.8867 70.5508C24.9362 70.6029 24.9609 70.6654 24.9609 70.7383C24.9583 70.8086 24.9323 70.8685 24.8828 70.918C24.8359 70.9648 24.7773 70.9896 24.707 70.9922H23.6211C23.4388 70.9818 23.2878 70.9206 23.168 70.8086C23.0508 70.694 22.9661 70.5547 22.9141 70.3906C22.8646 70.2266 22.8385 70.0521 22.8359 69.8672V69.7422H22.3867C22.3138 69.7422 22.2526 69.7161 22.2031 69.6641C22.151 69.6146 22.125 69.5534 22.125 69.4805C22.125 69.4076 22.1497 69.3464 22.1992 69.2969C22.2513 69.2448 22.3138 69.2188 22.3867 69.2188H22.8359V68.8789C22.8385 68.8086 22.8646 68.75 22.9141 68.7031C22.9635 68.6536 23.0234 68.6276 23.0938 68.625ZM25.6055 68.625C25.6758 68.6276 25.7357 68.6536 25.7852 68.7031C25.8346 68.75 25.8607 68.8086 25.8633 68.8789V69.2188H27.0742C27.2565 69.2214 27.4062 69.2734 27.5234 69.375C27.6432 69.474 27.7279 69.5859 27.7773 69.7109C27.8294 69.8385 27.8555 69.9701 27.8555 70.1055H27.8594V70.7852C27.8594 70.8581 27.832 70.9193 27.7773 70.9688C27.7253 71.0156 27.6628 71.0391 27.5898 71.0391C27.4336 71.026 27.3477 70.9414 27.332 70.7852V70.1016C27.332 70.0521 27.3216 70 27.3008 69.9453C27.2826 69.8906 27.2552 69.8438 27.2188 69.8047C27.1823 69.763 27.1393 69.7422 27.0898 69.7422H25.8633V70.793C25.8477 70.9492 25.7617 71.0339 25.6055 71.0469C25.5326 71.0469 25.4688 71.0234 25.4141 70.9766C25.362 70.9271 25.3359 70.8659 25.3359 70.793V68.8789C25.3385 68.806 25.3659 68.7461 25.418 68.6992C25.4701 68.6497 25.5326 68.625 25.6055 68.625ZM29.1523 70.9922C28.9232 70.9844 28.75 70.931 28.6328 70.832C28.5156 70.7305 28.431 70.6172 28.3789 70.4922C28.3268 70.3646 28.3008 70.2357 28.3008 70.1055C28.3008 69.9701 28.3255 69.8398 28.375 69.7148C28.4271 69.5872 28.5117 69.474 28.6289 69.375C28.7487 69.2734 28.8997 69.2214 29.082 69.2188H30.5664C30.6393 69.2188 30.7005 69.2435 30.75 69.293C30.8021 69.3398 30.8281 69.3971 30.8281 69.4648C30.8281 69.5352 30.8021 69.5951 30.75 69.6445C30.7005 69.6914 30.6393 69.7148 30.5664 69.7148H29.1055C29.0482 69.7148 28.9974 69.7344 28.9531 69.7734C28.9115 69.8125 28.8802 69.8633 28.8594 69.9258C28.8411 69.9883 28.832 70.0495 28.832 70.1094C28.832 70.1745 28.8411 70.2383 28.8594 70.3008C28.8802 70.3633 28.9115 70.4141 28.9531 70.4531C28.9974 70.4896 29.0482 70.5091 29.1055 70.5117H30.5664C30.6393 70.5117 30.7005 70.5352 30.75 70.582C30.8021 70.6289 30.8281 70.6849 30.8281 70.75C30.8281 70.8177 30.8021 70.875 30.75 70.9219C30.7005 70.9688 30.6393 70.9922 30.5664 70.9922H29.1523ZM30.7812 70.0977C30.7812 70.1471 30.7591 70.1901 30.7148 70.2266C30.6758 70.2604 30.6263 70.2773 30.5664 70.2773H29.2891C29.2292 70.2773 29.1784 70.2604 29.1367 70.2266C29.0951 70.1901 29.0742 70.1471 29.0742 70.0977C29.0742 70.0508 29.0951 70.0091 29.1367 69.9727C29.1784 69.9388 29.2292 69.9219 29.2891 69.9219H30.5664C30.6263 69.9219 30.6771 69.9401 30.7188 69.9766C30.7604 70.0104 30.7812 70.0508 30.7812 70.0977ZM33.3594 69.7109C33.4089 69.5859 33.4922 69.474 33.6094 69.375C33.7292 69.2734 33.8802 69.2214 34.0625 69.2188H35.5312C35.6042 69.2188 35.6654 69.2448 35.7148 69.2969C35.7669 69.3464 35.793 69.4076 35.793 69.4805C35.793 69.5534 35.7669 69.6159 35.7148 69.668C35.6654 69.7174 35.6042 69.7422 35.5312 69.7422H34.0469C33.9974 69.7422 33.9544 69.763 33.918 69.8047C33.8815 69.8438 33.8529 69.8906 33.832 69.9453C33.8138 70 33.8047 70.0521 33.8047 70.1016V70.7852C33.7891 70.9414 33.7031 71.026 33.5469 71.0391C33.474 71.0391 33.4102 71.0156 33.3555 70.9688C33.3034 70.9193 33.2773 70.8581 33.2773 70.7852V70.1055H33.2812C33.2812 69.9701 33.3073 69.8385 33.3594 69.7109ZM38.3633 70.7852V69.8438C38.3633 69.7786 38.3294 69.7448 38.2617 69.7422H36.8945C36.8451 69.7448 36.8021 69.7669 36.7656 69.8086C36.7292 69.8477 36.7018 69.8945 36.6836 69.9492C36.668 70.0013 36.6602 70.0547 36.6602 70.1094C36.6602 70.1615 36.668 70.2148 36.6836 70.2695C36.7018 70.3216 36.7292 70.3685 36.7656 70.4102C36.8021 70.4492 36.8451 70.4688 36.8945 70.4688H37.8945C37.9674 70.4688 38.0286 70.4948 38.0781 70.5469C38.1302 70.5964 38.1562 70.6576 38.1562 70.7305C38.1562 70.8034 38.1302 70.8646 38.0781 70.9141C38.0286 70.9661 37.9674 70.9922 37.8945 70.9922H36.9102C36.7279 70.9896 36.5768 70.9388 36.457 70.8398C36.3398 70.7383 36.2552 70.625 36.2031 70.5C36.1536 70.3724 36.1289 70.2409 36.1289 70.1055C36.1289 69.9753 36.1549 69.8477 36.207 69.7227C36.2591 69.5951 36.3438 69.4818 36.4609 69.3828C36.5781 69.2812 36.7513 69.2266 36.9805 69.2188H38.6211C38.694 69.2188 38.7565 69.2435 38.8086 69.293C38.8607 69.3398 38.888 69.3997 38.8906 69.4727V70.7852C38.8906 70.8581 38.8633 70.9193 38.8086 70.9688C38.7565 71.0156 38.694 71.0391 38.6211 71.0391C38.4648 71.026 38.3789 70.9414 38.3633 70.7852ZM40.6406 69.1602C40.776 69.1602 40.9089 69.1758 41.0391 69.207C41.1719 69.2383 41.2982 69.2852 41.418 69.3477C41.5378 69.4076 41.6432 69.4883 41.7344 69.5898C41.8281 69.6914 41.8789 69.8125 41.8867 69.9531V70.1172V70.7852C41.8711 70.9414 41.7852 71.026 41.6289 71.0391C41.556 71.0391 41.4922 71.0156 41.4375 70.9688C41.3854 70.9193 41.3594 70.8581 41.3594 70.7852V70.6133V70.0742C41.3542 69.9935 41.3229 69.9271 41.2656 69.875C41.2109 69.8203 41.1484 69.7773 41.0781 69.7461C41.0104 69.7148 40.9388 69.6914 40.8633 69.6758C40.7904 69.6602 40.7161 69.6523 40.6406 69.6523C40.5651 69.6523 40.4896 69.6602 40.4141 69.6758C40.3411 69.6914 40.2695 69.7148 40.1992 69.7461C40.1315 69.7773 40.069 69.8203 40.0117 69.875C39.957 69.9271 39.9271 69.9935 39.9219 70.0742V70.6133V70.7852C39.9089 70.9414 39.8242 71.026 39.668 71.0391C39.5951 71.0391 39.5312 71.0156 39.4766 70.9688C39.4245 70.9193 39.3984 70.8581 39.3984 70.7852V70.1172V69.9531C39.4062 69.8125 39.4557 69.6914 39.5469 69.5898C39.638 69.4883 39.7435 69.4076 39.8633 69.3477C39.9831 69.2852 40.1081 69.2383 40.2383 69.207C40.3711 69.1758 40.5052 69.1602 40.6406 69.1602ZM44.5586 68.8789C44.5742 68.7227 44.6602 68.638 44.8164 68.625C44.8893 68.625 44.9518 68.6497 45.0039 68.6992C45.0586 68.7461 45.0859 68.806 45.0859 68.8789V70.7383C45.0833 70.8112 45.056 70.8724 45.0039 70.9219C44.9518 70.9688 44.8893 70.9922 44.8164 70.9922H43.1758C42.9466 70.9844 42.7734 70.931 42.6562 70.832C42.5391 70.7305 42.4544 70.6172 42.4023 70.4922C42.3503 70.3646 42.3242 70.2357 42.3242 70.1055C42.3242 69.9701 42.349 69.8398 42.3984 69.7148C42.4505 69.5872 42.5352 69.474 42.6523 69.375C42.7721 69.2734 42.9232 69.2214 43.1055 69.2188H44.0898C44.1628 69.2188 44.224 69.2448 44.2734 69.2969C44.3255 69.3464 44.3516 69.4076 44.3516 69.4805C44.3516 69.5534 44.3255 69.6159 44.2734 69.668C44.224 69.7174 44.1628 69.7422 44.0898 69.7422H43.0898C43.0404 69.7422 42.9974 69.763 42.9609 69.8047C42.9245 69.8438 42.8971 69.8906 42.8789 69.9453C42.8633 69.9974 42.8555 70.0495 42.8555 70.1016C42.8555 70.1562 42.8633 70.2109 42.8789 70.2656C42.8971 70.3177 42.9245 70.3646 42.9609 70.4062C42.9974 70.4453 43.0404 70.4661 43.0898 70.4688H44.457C44.5247 70.4661 44.5586 70.4323 44.5586 70.3672V68.8789ZM46.4102 70.9922C46.181 70.9844 46.0078 70.931 45.8906 70.832C45.7734 70.7305 45.6888 70.6172 45.6367 70.4922C45.5846 70.3646 45.5586 70.2357 45.5586 70.1055C45.5586 69.9701 45.5833 69.8398 45.6328 69.7148C45.6849 69.5872 45.7695 69.474 45.8867 69.375C46.0065 69.2734 46.1576 69.2214 46.3398 69.2188H47.6055C47.7878 69.2214 47.9375 69.2734 48.0547 69.375C48.1745 69.474 48.2591 69.5872 48.3086 69.7148C48.3607 69.8398 48.3867 69.9701 48.3867 70.1055C48.3867 70.2357 48.3607 70.3646 48.3086 70.4922C48.2565 70.6172 48.1719 70.7305 48.0547 70.832C47.9375 70.931 47.7643 70.9844 47.5352 70.9922H46.4102ZM46.3242 69.7422C46.2747 69.7422 46.2318 69.763 46.1953 69.8047C46.1589 69.8438 46.1315 69.8906 46.1133 69.9453C46.0977 69.9974 46.0898 70.0495 46.0898 70.1016C46.0898 70.1562 46.0977 70.2109 46.1133 70.2656C46.1315 70.3177 46.1589 70.3646 46.1953 70.4062C46.2318 70.4453 46.2747 70.4661 46.3242 70.4688H47.6211C47.6706 70.4661 47.7135 70.4453 47.75 70.4062C47.7865 70.3646 47.8125 70.3177 47.8281 70.2656C47.8464 70.2109 47.8555 70.1562 47.8555 70.1016C47.8555 70.0495 47.8464 69.9974 47.8281 69.9453C47.8125 69.8906 47.7865 69.8438 47.75 69.8047C47.7135 69.763 47.6706 69.7422 47.6211 69.7422H46.3242ZM49.6641 69.1602C49.7552 69.1602 49.8438 69.1758 49.9297 69.207C50.0182 69.2383 50.1029 69.2839 50.1836 69.3438C50.1966 69.3568 50.2109 69.3698 50.2266 69.3828C50.2396 69.3698 50.2539 69.3568 50.2695 69.3438C50.3503 69.2839 50.4336 69.2383 50.5195 69.207C50.6081 69.1758 50.6966 69.1602 50.7852 69.1602C50.8763 69.1602 50.9648 69.1758 51.0508 69.207C51.1393 69.2383 51.2227 69.2852 51.3008 69.3477C51.3815 69.4076 51.4518 69.4883 51.5117 69.5898C51.5742 69.6914 51.6055 69.8125 51.6055 69.9531V70.7852C51.5898 70.9414 51.5039 71.026 51.3477 71.0391C51.2747 71.0391 51.2109 71.0156 51.1562 70.9688C51.1042 70.9193 51.0781 70.8581 51.0781 70.7852V69.9844C51.0781 69.9219 51.0664 69.8698 51.043 69.8281C51.0195 69.7839 50.9935 69.75 50.9648 69.7266C50.9362 69.7005 50.9062 69.6823 50.875 69.6719C50.8438 69.6589 50.8125 69.6523 50.7812 69.6523C50.75 69.6523 50.7188 69.6589 50.6875 69.6719C50.6589 69.6823 50.6302 69.7005 50.6016 69.7266C50.5729 69.75 50.5469 69.7839 50.5234 69.8281C50.5 69.8698 50.487 69.9219 50.4844 69.9844V70.7852C50.4688 70.9414 50.3828 71.026 50.2266 71.0391C50.1536 71.0391 50.0898 71.0156 50.0352 70.9688C49.9831 70.9193 49.957 70.8581 49.957 70.7852V69.9844C49.957 69.9219 49.9453 69.8698 49.9219 69.8281C49.8984 69.7839 49.8724 69.75 49.8438 69.7266C49.8151 69.7005 49.7852 69.6823 49.7539 69.6719C49.7227 69.6589 49.6914 69.6523 49.6602 69.6523C49.6289 69.6523 49.5977 69.6589 49.5664 69.6719C49.5378 69.6823 49.5091 69.7005 49.4805 69.7266C49.4518 69.75 49.4258 69.7839 49.4023 69.8281C49.3789 69.8698 49.3659 69.9219 49.3633 69.9844V70.7852C49.3503 70.9414 49.2656 71.026 49.1094 71.0391C49.0365 71.0391 48.9727 71.0156 48.918 70.9688C48.8659 70.9193 48.8398 70.8581 48.8398 70.7852V69.9531C48.8451 69.8125 48.8776 69.6914 48.9375 69.5898C48.9974 69.4883 49.0677 69.4076 49.1484 69.3477C49.2292 69.2852 49.3125 69.2383 49.3984 69.207C49.487 69.1758 49.5755 69.1602 49.6641 69.1602ZM54.918 69.1602C55.0091 69.1602 55.0977 69.1758 55.1836 69.207C55.2721 69.2383 55.3568 69.2839 55.4375 69.3438C55.4505 69.3568 55.4648 69.3698 55.4805 69.3828C55.4935 69.3698 55.5078 69.3568 55.5234 69.3438C55.6042 69.2839 55.6875 69.2383 55.7734 69.207C55.862 69.1758 55.9505 69.1602 56.0391 69.1602C56.1302 69.1602 56.2188 69.1758 56.3047 69.207C56.3932 69.2383 56.4766 69.2852 56.5547 69.3477C56.6354 69.4076 56.7057 69.4883 56.7656 69.5898C56.8281 69.6914 56.8594 69.8125 56.8594 69.9531V70.7852C56.8438 70.9414 56.7578 71.026 56.6016 71.0391C56.5286 71.0391 56.4648 71.0156 56.4102 70.9688C56.3581 70.9193 56.332 70.8581 56.332 70.7852V69.9844C56.332 69.9219 56.3203 69.8698 56.2969 69.8281C56.2734 69.7839 56.2474 69.75 56.2188 69.7266C56.1901 69.7005 56.1602 69.6823 56.1289 69.6719C56.0977 69.6589 56.0664 69.6523 56.0352 69.6523C56.0039 69.6523 55.9727 69.6589 55.9414 69.6719C55.9128 69.6823 55.8841 69.7005 55.8555 69.7266C55.8268 69.75 55.8008 69.7839 55.7773 69.8281C55.7539 69.8698 55.7409 69.9219 55.7383 69.9844V70.7852C55.7227 70.9414 55.6367 71.026 55.4805 71.0391C55.4076 71.0391 55.3438 71.0156 55.2891 70.9688C55.237 70.9193 55.2109 70.8581 55.2109 70.7852V69.9844C55.2109 69.9219 55.1992 69.8698 55.1758 69.8281C55.1523 69.7839 55.1263 69.75 55.0977 69.7266C55.069 69.7005 55.0391 69.6823 55.0078 69.6719C54.9766 69.6589 54.9453 69.6523 54.9141 69.6523C54.8828 69.6523 54.8516 69.6589 54.8203 69.6719C54.7917 69.6823 54.763 69.7005 54.7344 69.7266C54.7057 69.75 54.6797 69.7839 54.6562 69.8281C54.6328 69.8698 54.6198 69.9219 54.6172 69.9844V70.7852C54.6042 70.9414 54.5195 71.026 54.3633 71.0391C54.2904 71.0391 54.2266 71.0156 54.1719 70.9688C54.1198 70.9193 54.0938 70.8581 54.0938 70.7852V69.9531C54.099 69.8125 54.1315 69.6914 54.1914 69.5898C54.2513 69.4883 54.3216 69.4076 54.4023 69.3477C54.4831 69.2852 54.5664 69.2383 54.6523 69.207C54.7409 69.1758 54.8294 69.1602 54.918 69.1602ZM58.1523 70.9922C57.9232 70.9844 57.75 70.931 57.6328 70.832C57.5156 70.7305 57.431 70.6172 57.3789 70.4922C57.3268 70.3646 57.3008 70.2357 57.3008 70.1055C57.3008 69.9701 57.3255 69.8398 57.375 69.7148C57.4271 69.5872 57.5117 69.474 57.6289 69.375C57.7487 69.2734 57.8997 69.2214 58.082 69.2188H59.3477C59.5299 69.2214 59.6797 69.2734 59.7969 69.375C59.9167 69.474 60.0013 69.5872 60.0508 69.7148C60.1029 69.8398 60.1289 69.9701 60.1289 70.1055C60.1289 70.2357 60.1029 70.3646 60.0508 70.4922C59.9987 70.6172 59.9141 70.7305 59.7969 70.832C59.6797 70.931 59.5065 70.9844 59.2773 70.9922H58.1523ZM58.0664 69.7422C58.0169 69.7422 57.974 69.763 57.9375 69.8047C57.901 69.8438 57.8737 69.8906 57.8555 69.9453C57.8398 69.9974 57.832 70.0495 57.832 70.1016C57.832 70.1562 57.8398 70.2109 57.8555 70.2656C57.8737 70.3177 57.901 70.3646 57.9375 70.4062C57.974 70.4453 58.0169 70.4661 58.0664 70.4688H59.3633C59.4128 70.4661 59.4557 70.4453 59.4922 70.4062C59.5286 70.3646 59.5547 70.3177 59.5703 70.2656C59.5885 70.2109 59.5977 70.1562 59.5977 70.1016C59.5977 70.0495 59.5885 69.9974 59.5703 69.9453C59.5547 69.8906 59.5286 69.8438 59.4922 69.8047C59.4557 69.763 59.4128 69.7422 59.3633 69.7422H58.0664ZM62.7539 68.8789C62.7695 68.7227 62.8555 68.638 63.0117 68.625C63.0846 68.625 63.1471 68.6497 63.1992 68.6992C63.2539 68.7461 63.2812 68.806 63.2812 68.8789V70.7383C63.2786 70.8112 63.2513 70.8724 63.1992 70.9219C63.1471 70.9688 63.0846 70.9922 63.0117 70.9922H61.3711C61.1419 70.9844 60.9688 70.931 60.8516 70.832C60.7344 70.7305 60.6497 70.6172 60.5977 70.4922C60.5456 70.3646 60.5195 70.2357 60.5195 70.1055C60.5195 69.9701 60.5443 69.8398 60.5938 69.7148C60.6458 69.5872 60.7305 69.474 60.8477 69.375C60.9674 69.2734 61.1185 69.2214 61.3008 69.2188H62.2852C62.3581 69.2188 62.4193 69.2448 62.4688 69.2969C62.5208 69.3464 62.5469 69.4076 62.5469 69.4805C62.5469 69.5534 62.5208 69.6159 62.4688 69.668C62.4193 69.7174 62.3581 69.7422 62.2852 69.7422H61.2852C61.2357 69.7422 61.1927 69.763 61.1562 69.8047C61.1198 69.8438 61.0924 69.8906 61.0742 69.9453C61.0586 69.9974 61.0508 70.0495 61.0508 70.1016C61.0508 70.1562 61.0586 70.2109 61.0742 70.2656C61.0924 70.3177 61.1198 70.3646 61.1562 70.4062C61.1927 70.4453 61.2357 70.4661 61.2852 70.4688H62.6523C62.7201 70.4661 62.7539 70.4323 62.7539 70.3672V68.8789ZM64.5977 70.9922C64.3685 70.9844 64.1953 70.931 64.0781 70.832C63.9609 70.7305 63.8763 70.6172 63.8242 70.4922C63.7721 70.3646 63.7461 70.2357 63.7461 70.1055C63.7461 69.9701 63.7708 69.8398 63.8203 69.7148C63.8724 69.5872 63.957 69.474 64.0742 69.375C64.194 69.2734 64.3451 69.2214 64.5273 69.2188H66.0117C66.0846 69.2188 66.1458 69.2435 66.1953 69.293C66.2474 69.3398 66.2734 69.3971 66.2734 69.4648C66.2734 69.5352 66.2474 69.5951 66.1953 69.6445C66.1458 69.6914 66.0846 69.7148 66.0117 69.7148H64.5508C64.4935 69.7148 64.4427 69.7344 64.3984 69.7734C64.3568 69.8125 64.3255 69.8633 64.3047 69.9258C64.2865 69.9883 64.2773 70.0495 64.2773 70.1094C64.2773 70.1745 64.2865 70.2383 64.3047 70.3008C64.3255 70.3633 64.3568 70.4141 64.3984 70.4531C64.4427 70.4896 64.4935 70.5091 64.5508 70.5117H66.0117C66.0846 70.5117 66.1458 70.5352 66.1953 70.582C66.2474 70.6289 66.2734 70.6849 66.2734 70.75C66.2734 70.8177 66.2474 70.875 66.1953 70.9219C66.1458 70.9688 66.0846 70.9922 66.0117 70.9922H64.5977ZM66.2266 70.0977C66.2266 70.1471 66.2044 70.1901 66.1602 70.2266C66.1211 70.2604 66.0716 70.2773 66.0117 70.2773H64.7344C64.6745 70.2773 64.6237 70.2604 64.582 70.2266C64.5404 70.1901 64.5195 70.1471 64.5195 70.0977C64.5195 70.0508 64.5404 70.0091 64.582 69.9727C64.6237 69.9388 64.6745 69.9219 64.7344 69.9219H66.0117C66.0716 69.9219 66.1224 69.9401 66.1641 69.9766C66.2057 70.0104 66.2266 70.0508 66.2266 70.0977ZM67.125 71.0547C67.0208 71.0547 66.9336 71.0182 66.8633 70.9453C66.7956 70.8724 66.7617 70.7812 66.7617 70.6719C66.7617 70.5625 66.7956 70.4714 66.8633 70.3984C66.9336 70.3255 67.0208 70.2891 67.125 70.2891C67.2292 70.2891 67.3164 70.3255 67.3867 70.3984C67.457 70.4714 67.4922 70.5625 67.4922 70.6719C67.4922 70.7812 67.457 70.8724 67.3867 70.9453C67.3164 71.0182 67.2292 71.0547 67.125 71.0547Z" fill="#537790"/>
</svg>
