<svg width="96" height="97" viewBox="0 0 96 97" fill="none" xmlns="http://www.w3.org/2000/svg">
<rect width="96" height="97" rx="22" fill="#F4F4F4"/>
<path d="M17.4775 51.4023C17.6012 51.6628 17.6631 51.9264 17.6631 52.1934C17.6631 52.4538 17.598 52.7142 17.4678 52.9746C17.3376 53.2285 17.126 53.4564 16.833 53.6582C16.54 53.8535 16.1657 53.9512 15.71 53.9512H15.6514C15.6123 53.9577 15.5732 53.9609 15.5342 53.9609H11.6084C11.4326 53.9544 11.2829 53.8926 11.1592 53.7754C11.042 53.6517 10.9801 53.502 10.9736 53.3262V48.8535C10.9801 48.6777 11.042 48.5312 11.1592 48.4141C11.2829 48.2904 11.4326 48.2253 11.6084 48.2188H14.9678C15.0068 48.2188 15.0459 48.222 15.085 48.2285H15.1436C15.5993 48.2415 15.9736 48.3457 16.2666 48.541C16.5596 48.7363 16.7712 48.9609 16.9014 49.2148C17.0316 49.4622 17.0967 49.7129 17.0967 49.9668C17.0967 50.2272 17.0348 50.4811 16.9111 50.7285C16.9046 50.7415 16.8981 50.7513 16.8916 50.7578C17.1585 50.9466 17.3538 51.1615 17.4775 51.4023ZM15.7686 52.6523C15.8923 52.6589 15.9932 52.6361 16.0713 52.584C16.1559 52.5319 16.2178 52.4733 16.2568 52.4082C16.2959 52.3366 16.3154 52.265 16.3154 52.1934C16.3154 52.1478 16.2959 52.0859 16.2568 52.0078C16.2178 51.9232 16.1559 51.8548 16.0713 51.8027C15.9932 51.7507 15.8923 51.7214 15.7686 51.7148H15.1436H12.292V52.3887C12.292 52.5645 12.3831 52.6523 12.5654 52.6523H12.6436H15.7686ZM15.5146 50.3184C15.5928 50.2728 15.6514 50.2207 15.6904 50.1621C15.7295 50.097 15.749 50.0319 15.749 49.9668C15.749 49.9017 15.7295 49.8398 15.6904 49.7812C15.6514 49.7161 15.5895 49.6608 15.5049 49.6152C15.4268 49.5632 15.3258 49.5339 15.2021 49.5273H12.5654C12.3831 49.5273 12.292 49.6152 12.292 49.791V50.4062H15.2021C15.3258 50.3997 15.43 50.3704 15.5146 50.3184ZM18.874 50.7773C18.9977 50.4648 19.2061 50.1849 19.499 49.9375C19.7985 49.6836 20.1761 49.5534 20.6318 49.5469H24.3037C24.486 49.5469 24.639 49.612 24.7627 49.7422C24.8929 49.8659 24.958 50.0189 24.958 50.2012C24.958 50.3835 24.8929 50.5397 24.7627 50.6699C24.639 50.7936 24.486 50.8555 24.3037 50.8555H20.5928C20.4691 50.8555 20.3617 50.9076 20.2705 51.0117C20.1794 51.1094 20.1077 51.2266 20.0557 51.3633C20.0101 51.5 19.9873 51.6302 19.9873 51.7539V53.4629C19.9482 53.8535 19.7334 54.0651 19.3428 54.0977C19.1605 54.0977 19.001 54.0391 18.8643 53.9219C18.734 53.7982 18.6689 53.6452 18.6689 53.4629V51.7637H18.6787C18.6787 51.4251 18.7438 51.0964 18.874 50.7773ZM31.3838 53.4629V51.1094C31.3838 50.9466 31.2992 50.862 31.1299 50.8555H27.7119C27.5882 50.862 27.4808 50.9173 27.3896 51.0215C27.2985 51.1191 27.2301 51.2363 27.1846 51.373C27.1455 51.5033 27.126 51.6367 27.126 51.7734C27.126 51.9036 27.1455 52.0371 27.1846 52.1738C27.2301 52.304 27.2985 52.4212 27.3896 52.5254C27.4808 52.623 27.5882 52.6719 27.7119 52.6719H30.2119C30.3942 52.6719 30.5472 52.737 30.6709 52.8672C30.8011 52.9909 30.8662 53.1439 30.8662 53.3262C30.8662 53.5085 30.8011 53.6615 30.6709 53.7852C30.5472 53.9154 30.3942 53.9805 30.2119 53.9805H27.751C27.2952 53.974 26.9176 53.847 26.6182 53.5996C26.3252 53.3457 26.1136 53.0625 25.9834 52.75C25.8597 52.431 25.7979 52.1022 25.7979 51.7637C25.7979 51.4382 25.863 51.1191 25.9932 50.8066C26.1234 50.4876 26.335 50.2044 26.6279 49.957C26.9209 49.7031 27.3538 49.5664 27.9268 49.5469H32.0283C32.2106 49.5469 32.3669 49.6087 32.4971 49.7324C32.6273 49.8496 32.6956 49.9993 32.7021 50.1816V53.4629C32.7021 53.6452 32.6338 53.7982 32.4971 53.9219C32.3669 54.0391 32.2106 54.0977 32.0283 54.0977C31.6377 54.0651 31.4229 53.8535 31.3838 53.4629ZM35.5049 53.4629C35.1729 53.0137 34.8408 52.4245 34.5088 51.6953L33.874 50.3281C33.8415 50.2565 33.8219 50.1784 33.8154 50.0938C33.8024 49.9115 33.8577 49.7552 33.9814 49.625C34.1051 49.4948 34.2679 49.4297 34.4697 49.4297C34.6911 49.4297 34.8538 49.4753 34.958 49.5664C35.0687 49.651 35.1566 49.7617 35.2217 49.8984L35.6807 51.0312C35.7979 51.2982 35.9118 51.5521 36.0225 51.793C36.1396 52.0273 36.2699 52.2422 36.4131 52.4375C36.5628 52.6328 36.7288 52.737 36.9111 52.75C37.0869 52.737 37.2529 52.6328 37.4092 52.4375C37.5459 52.2422 37.6696 52.0273 37.7803 51.793C37.8975 51.5521 38.0146 51.2982 38.1318 51.0312L38.5908 49.8984C38.6559 49.7617 38.7406 49.651 38.8447 49.5664C38.9554 49.4753 39.1214 49.4297 39.3428 49.4297C39.5446 49.4297 39.7074 49.4948 39.8311 49.625C39.9548 49.7552 40.0101 49.9115 39.9971 50.0938C39.9906 50.1784 39.971 50.2565 39.9385 50.3281L39.3037 51.6953C38.9717 52.4245 38.6396 53.0137 38.3076 53.4629C37.9886 53.9056 37.5231 54.1302 36.9111 54.1367C36.2926 54.1302 35.8239 53.9056 35.5049 53.4629ZM43.083 53.9805C42.5101 53.9609 42.0771 53.8275 41.7842 53.5801C41.4912 53.3262 41.2796 53.043 41.1494 52.7305C41.0192 52.4115 40.9541 52.0892 40.9541 51.7637C40.9541 51.4251 41.016 51.0996 41.1396 50.7871C41.2699 50.4681 41.4814 50.1849 41.7744 49.9375C42.0739 49.6836 42.4515 49.5534 42.9072 49.5469H46.6182C46.8005 49.5469 46.9535 49.6087 47.0771 49.7324C47.2074 49.8496 47.2725 49.9928 47.2725 50.1621C47.2725 50.3379 47.2074 50.4876 47.0771 50.6113C46.9535 50.7285 46.8005 50.7871 46.6182 50.7871H42.9658C42.8226 50.7871 42.6956 50.8359 42.585 50.9336C42.4808 51.0312 42.4027 51.1582 42.3506 51.3145C42.305 51.4707 42.2822 51.6237 42.2822 51.7734C42.2822 51.9362 42.305 52.0957 42.3506 52.252C42.4027 52.4082 42.4808 52.5352 42.585 52.6328C42.6956 52.724 42.8226 52.7728 42.9658 52.7793H46.6182C46.8005 52.7793 46.9535 52.8379 47.0771 52.9551C47.2074 53.0723 47.2725 53.2122 47.2725 53.375C47.2725 53.5443 47.2074 53.6875 47.0771 53.8047C46.9535 53.9219 46.8005 53.9805 46.6182 53.9805H43.083ZM47.1553 51.7441C47.1553 51.8678 47.0999 51.9753 46.9893 52.0664C46.8916 52.151 46.7679 52.1934 46.6182 52.1934H43.4248C43.2751 52.1934 43.1481 52.151 43.0439 52.0664C42.9398 51.9753 42.8877 51.8678 42.8877 51.7441C42.8877 51.627 42.9398 51.5228 43.0439 51.4316C43.1481 51.347 43.2751 51.3047 43.4248 51.3047H46.6182C46.7679 51.3047 46.8949 51.3503 46.999 51.4414C47.1032 51.526 47.1553 51.627 47.1553 51.7441ZM49.0693 48.0625C49.2451 48.069 49.3949 48.1341 49.5186 48.2578C49.6423 48.375 49.7074 48.5215 49.7139 48.6973V49.5469H52.7412C53.1969 49.5534 53.5713 49.6836 53.8643 49.9375C54.1637 50.1849 54.3753 50.4648 54.499 50.7773C54.6292 51.0964 54.6943 51.4251 54.6943 51.7637H54.7041V53.4629C54.7041 53.6452 54.6357 53.7982 54.499 53.9219C54.3688 54.0391 54.2126 54.0977 54.0303 54.0977C53.6396 54.0651 53.4248 53.8535 53.3857 53.4629V51.7539C53.3857 51.6302 53.3597 51.5 53.3076 51.3633C53.262 51.2266 53.1937 51.1094 53.1025 51.0117C53.0114 50.9076 52.904 50.8555 52.7803 50.8555H49.7139V53.4824C49.6748 53.873 49.46 54.0846 49.0693 54.1172C48.887 54.1172 48.7275 54.0586 48.5908 53.9414C48.4606 53.8177 48.3955 53.6647 48.3955 53.4824V48.6973C48.402 48.515 48.4704 48.3652 48.6006 48.248C48.7308 48.1243 48.887 48.0625 49.0693 48.0625ZM57.9365 53.9805C57.3636 53.9609 56.9307 53.8275 56.6377 53.5801C56.3447 53.3262 56.1331 53.043 56.0029 52.7305C55.8727 52.4115 55.8076 52.0892 55.8076 51.7637C55.8076 51.4251 55.8695 51.0996 55.9932 50.7871C56.1234 50.4681 56.335 50.1849 56.6279 49.9375C56.9274 49.6836 57.305 49.5534 57.7607 49.5469H61.4717C61.654 49.5469 61.807 49.6087 61.9307 49.7324C62.0609 49.8496 62.126 49.9928 62.126 50.1621C62.126 50.3379 62.0609 50.4876 61.9307 50.6113C61.807 50.7285 61.654 50.7871 61.4717 50.7871H57.8193C57.6761 50.7871 57.5492 50.8359 57.4385 50.9336C57.3343 51.0312 57.2562 51.1582 57.2041 51.3145C57.1585 51.4707 57.1357 51.6237 57.1357 51.7734C57.1357 51.9362 57.1585 52.0957 57.2041 52.252C57.2562 52.4082 57.3343 52.5352 57.4385 52.6328C57.5492 52.724 57.6761 52.7728 57.8193 52.7793H61.4717C61.654 52.7793 61.807 52.8379 61.9307 52.9551C62.0609 53.0723 62.126 53.2122 62.126 53.375C62.126 53.5443 62.0609 53.6875 61.9307 53.8047C61.807 53.9219 61.654 53.9805 61.4717 53.9805H57.9365ZM62.0088 51.7441C62.0088 51.8678 61.9535 51.9753 61.8428 52.0664C61.7451 52.151 61.6214 52.1934 61.4717 52.1934H58.2783C58.1286 52.1934 58.0016 52.151 57.8975 52.0664C57.7933 51.9753 57.7412 51.8678 57.7412 51.7441C57.7412 51.627 57.7933 51.5228 57.8975 51.4316C58.0016 51.347 58.1286 51.3047 58.2783 51.3047H61.4717C61.6214 51.3047 61.7484 51.3503 61.8525 51.4414C61.9567 51.526 62.0088 51.627 62.0088 51.7441ZM68.708 53.4629V51.1094C68.708 50.9466 68.6234 50.862 68.4541 50.8555H65.0361C64.9124 50.862 64.805 50.9173 64.7139 51.0215C64.6227 51.1191 64.5544 51.2363 64.5088 51.373C64.4697 51.5033 64.4502 51.6367 64.4502 51.7734C64.4502 51.9036 64.4697 52.0371 64.5088 52.1738C64.5544 52.304 64.6227 52.4212 64.7139 52.5254C64.805 52.623 64.9124 52.6719 65.0361 52.6719H67.5361C67.7184 52.6719 67.8714 52.737 67.9951 52.8672C68.1253 52.9909 68.1904 53.1439 68.1904 53.3262C68.1904 53.5085 68.1253 53.6615 67.9951 53.7852C67.8714 53.9154 67.7184 53.9805 67.5361 53.9805H65.0752C64.6195 53.974 64.2419 53.847 63.9424 53.5996C63.6494 53.3457 63.4378 53.0625 63.3076 52.75C63.1839 52.431 63.1221 52.1022 63.1221 51.7637C63.1221 51.4382 63.1872 51.1191 63.3174 50.8066C63.4476 50.4876 63.6592 50.2044 63.9521 49.957C64.2451 49.7031 64.6781 49.5664 65.251 49.5469H69.3525C69.5348 49.5469 69.6911 49.6087 69.8213 49.7324C69.9515 49.8496 70.0199 49.9993 70.0264 50.1816V53.4629C70.0264 53.6452 69.958 53.7982 69.8213 53.9219C69.6911 54.0391 69.5348 54.0977 69.3525 54.0977C68.9619 54.0651 68.7471 53.8535 68.708 53.4629ZM71.4912 50.7773C71.6149 50.4648 71.8232 50.1849 72.1162 49.9375C72.4157 49.6836 72.7933 49.5534 73.249 49.5469H76.9209C77.1032 49.5469 77.2562 49.612 77.3799 49.7422C77.5101 49.8659 77.5752 50.0189 77.5752 50.2012C77.5752 50.3835 77.5101 50.5397 77.3799 50.6699C77.2562 50.7936 77.1032 50.8555 76.9209 50.8555H73.21C73.0863 50.8555 72.9788 50.9076 72.8877 51.0117C72.7965 51.1094 72.7249 51.2266 72.6729 51.3633C72.6273 51.5 72.6045 51.6302 72.6045 51.7539V53.4629C72.5654 53.8535 72.3506 54.0651 71.96 54.0977C71.7777 54.0977 71.6182 54.0391 71.4814 53.9219C71.3512 53.7982 71.2861 53.6452 71.2861 53.4629V51.7637H71.2959C71.2959 51.4251 71.361 51.0964 71.4912 50.7773ZM80.6611 48.0625C80.8434 48.0625 80.9997 48.1243 81.1299 48.248C81.2601 48.3652 81.3285 48.515 81.335 48.6973V49.5469H84.6553C84.8376 49.5469 84.9938 49.6087 85.124 49.7324C85.2477 49.8626 85.3096 50.0189 85.3096 50.2012C85.3096 50.3835 85.2445 50.5397 85.1143 50.6699C84.9906 50.7936 84.8376 50.8555 84.6553 50.8555H81.335V51.0508C81.3285 51.3177 81.3447 51.5651 81.3838 51.793C81.4294 52.0143 81.5335 52.2129 81.6963 52.3887C81.859 52.5645 82.0641 52.6589 82.3115 52.6719H84.6943C84.8766 52.6784 85.0264 52.7467 85.1436 52.877C85.2673 53.0072 85.3291 53.1634 85.3291 53.3457C85.3226 53.5215 85.2575 53.6712 85.1338 53.7949C85.0166 53.9121 84.8701 53.974 84.6943 53.9805H81.9795C81.5238 53.9544 81.1462 53.8014 80.8467 53.5215C80.5537 53.235 80.3421 52.8867 80.2119 52.4766C80.0882 52.0664 80.0231 51.6302 80.0166 51.168V50.8555H78.8936C78.7113 50.8555 78.5583 50.7904 78.4346 50.6602C78.3044 50.5365 78.2393 50.3835 78.2393 50.2012C78.2393 50.0189 78.3011 49.8659 78.4248 49.7422C78.555 49.612 78.7113 49.5469 78.8936 49.5469H80.0166V48.6973C80.0231 48.5215 80.0882 48.375 80.2119 48.2578C80.3356 48.1341 80.4854 48.069 80.6611 48.0625Z" fill="#72757A"/>
<path d="M21.5078 61.1719C21.5807 61.1719 21.6432 61.1966 21.6953 61.2461C21.7474 61.293 21.7747 61.3529 21.7773 61.4258V61.8203C21.7747 61.9271 21.7812 62.026 21.7969 62.1172C21.8151 62.2057 21.8568 62.2852 21.9219 62.3555C21.987 62.4258 22.069 62.4635 22.168 62.4688H23.2109V61.4336C23.2109 61.3607 23.237 61.3008 23.2891 61.2539C23.3438 61.2044 23.4076 61.1797 23.4805 61.1797C23.6367 61.1927 23.7227 61.2773 23.7383 61.4336V62.707C23.7383 62.9154 23.7096 63.112 23.6523 63.2969C23.6003 63.4609 23.5143 63.599 23.3945 63.7109C23.2773 63.8255 23.1276 63.888 22.9453 63.8984H21.5938C21.5234 63.8958 21.4635 63.8698 21.4141 63.8203C21.3672 63.7734 21.3424 63.7148 21.3398 63.6445C21.3398 63.5716 21.3633 63.5091 21.4102 63.457C21.4596 63.4049 21.5208 63.3776 21.5938 63.375H22.8125C22.9115 63.3698 22.9935 63.332 23.0586 63.2617C23.1237 63.1914 23.1654 63.1094 23.1836 63.0156C23.1862 63.0078 23.1875 63 23.1875 62.9922H22.0352C21.8529 62.9818 21.7018 62.9206 21.582 62.8086C21.4648 62.694 21.3802 62.5547 21.3281 62.3906C21.2786 62.2266 21.2526 62.0521 21.25 61.8672V61.4258C21.2526 61.3555 21.2786 61.2969 21.3281 61.25C21.3776 61.2005 21.4375 61.1745 21.5078 61.1719ZM25.0586 62.9922C24.8294 62.9844 24.6562 62.931 24.5391 62.832C24.4219 62.7305 24.3372 62.6172 24.2852 62.4922C24.2331 62.3646 24.207 62.2357 24.207 62.1055C24.207 61.9701 24.2318 61.8398 24.2812 61.7148C24.3333 61.5872 24.418 61.474 24.5352 61.375C24.6549 61.2734 24.806 61.2214 24.9883 61.2188H26.2539C26.4362 61.2214 26.5859 61.2734 26.7031 61.375C26.8229 61.474 26.9076 61.5872 26.957 61.7148C27.0091 61.8398 27.0352 61.9701 27.0352 62.1055C27.0352 62.2357 27.0091 62.3646 26.957 62.4922C26.9049 62.6172 26.8203 62.7305 26.7031 62.832C26.5859 62.931 26.4128 62.9844 26.1836 62.9922H25.0586ZM24.9727 61.7422C24.9232 61.7422 24.8802 61.763 24.8438 61.8047C24.8073 61.8438 24.7799 61.8906 24.7617 61.9453C24.7461 61.9974 24.7383 62.0495 24.7383 62.1016C24.7383 62.1562 24.7461 62.2109 24.7617 62.2656C24.7799 62.3177 24.8073 62.3646 24.8438 62.4062C24.8802 62.4453 24.9232 62.4661 24.9727 62.4688H26.2695C26.319 62.4661 26.362 62.4453 26.3984 62.4062C26.4349 62.3646 26.4609 62.3177 26.4766 62.2656C26.4948 62.2109 26.5039 62.1562 26.5039 62.1016C26.5039 62.0495 26.4948 61.9974 26.4766 61.9453C26.4609 61.8906 26.4349 61.8438 26.3984 61.8047C26.362 61.763 26.319 61.7422 26.2695 61.7422H24.9727ZM28.7305 63.0586C28.5951 63.0586 28.4609 63.043 28.3281 63.0117C28.1979 62.9805 28.0729 62.9349 27.9531 62.875C27.8333 62.8125 27.7279 62.7305 27.6367 62.6289C27.5456 62.5273 27.4961 62.4062 27.4883 62.2656V62.1016V61.4336C27.4883 61.3607 27.5143 61.3008 27.5664 61.2539C27.6211 61.2044 27.6849 61.1797 27.7578 61.1797C27.9141 61.1927 27.9987 61.2773 28.0117 61.4336V61.6055V62.1445C28.0169 62.2253 28.0469 62.293 28.1016 62.3477C28.1589 62.3997 28.2214 62.4414 28.2891 62.4727C28.3594 62.5039 28.431 62.5273 28.5039 62.543C28.5794 62.5586 28.6549 62.5664 28.7305 62.5664C28.806 62.5664 28.8802 62.5586 28.9531 62.543C29.0286 62.5273 29.1003 62.5039 29.168 62.4727C29.2383 62.4414 29.3008 62.3997 29.3555 62.3477C29.4128 62.293 29.444 62.2253 29.4492 62.1445V61.6055V61.4336C29.4492 61.3607 29.4753 61.3008 29.5273 61.2539C29.582 61.2044 29.6458 61.1797 29.7188 61.1797C29.875 61.1927 29.9609 61.2773 29.9766 61.4336V62.1016V62.2656C29.9688 62.4062 29.918 62.5273 29.8242 62.6289C29.7331 62.7305 29.6276 62.8125 29.5078 62.875C29.388 62.9349 29.2617 62.9805 29.1289 63.0117C28.9987 63.043 28.8659 63.0586 28.7305 63.0586ZM33.2695 62.9922C33.0404 62.9844 32.8672 62.931 32.75 62.832C32.6328 62.7305 32.5482 62.6172 32.4961 62.4922C32.444 62.3646 32.418 62.2357 32.418 62.1055C32.418 61.9701 32.4427 61.8398 32.4922 61.7148C32.5443 61.5872 32.6289 61.474 32.7461 61.375C32.8659 61.2734 33.0169 61.2214 33.1992 61.2188H34.6836C34.7565 61.2188 34.8177 61.2448 34.8672 61.2969C34.9193 61.3464 34.9453 61.4076 34.9453 61.4805C34.9453 61.5534 34.9193 61.6159 34.8672 61.668C34.8177 61.7174 34.7565 61.7422 34.6836 61.7422H33.1836C33.1341 61.7422 33.0911 61.763 33.0547 61.8047C33.0182 61.8438 32.9909 61.8906 32.9727 61.9453C32.957 61.9974 32.9492 62.0495 32.9492 62.1016C32.9492 62.1562 32.957 62.2109 32.9727 62.2656C32.9909 62.3177 33.0182 62.3646 33.0547 62.4062C33.0911 62.4453 33.1341 62.4661 33.1836 62.4688H34.6836C34.7565 62.4688 34.8177 62.4948 34.8672 62.5469C34.9193 62.5964 34.9453 62.6576 34.9453 62.7305C34.9453 62.8034 34.9193 62.8646 34.8672 62.9141C34.8177 62.9661 34.7565 62.9922 34.6836 62.9922H33.2695ZM37.5391 62.7852V61.8438C37.5391 61.7786 37.5052 61.7448 37.4375 61.7422H36.0703C36.0208 61.7448 35.9779 61.7669 35.9414 61.8086C35.9049 61.8477 35.8776 61.8945 35.8594 61.9492C35.8438 62.0013 35.8359 62.0547 35.8359 62.1094C35.8359 62.1615 35.8438 62.2148 35.8594 62.2695C35.8776 62.3216 35.9049 62.3685 35.9414 62.4102C35.9779 62.4492 36.0208 62.4688 36.0703 62.4688H37.0703C37.1432 62.4688 37.2044 62.4948 37.2539 62.5469C37.306 62.5964 37.332 62.6576 37.332 62.7305C37.332 62.8034 37.306 62.8646 37.2539 62.9141C37.2044 62.9661 37.1432 62.9922 37.0703 62.9922H36.0859C35.9036 62.9896 35.7526 62.9388 35.6328 62.8398C35.5156 62.7383 35.431 62.625 35.3789 62.5C35.3294 62.3724 35.3047 62.2409 35.3047 62.1055C35.3047 61.9753 35.3307 61.8477 35.3828 61.7227C35.4349 61.5951 35.5195 61.4818 35.6367 61.3828C35.7539 61.2812 35.9271 61.2266 36.1562 61.2188H37.7969C37.8698 61.2188 37.9323 61.2435 37.9844 61.293C38.0365 61.3398 38.0638 61.3997 38.0664 61.4727V62.7852C38.0664 62.8581 38.0391 62.9193 37.9844 62.9688C37.9323 63.0156 37.8698 63.0391 37.7969 63.0391C37.6406 63.026 37.5547 62.9414 37.5391 62.7852ZM39.8164 61.1602C39.9518 61.1602 40.0846 61.1758 40.2148 61.207C40.3477 61.2383 40.474 61.2852 40.5938 61.3477C40.7135 61.4076 40.819 61.4883 40.9102 61.5898C41.0039 61.6914 41.0547 61.8125 41.0625 61.9531V62.1172V62.7852C41.0469 62.9414 40.9609 63.026 40.8047 63.0391C40.7318 63.0391 40.668 63.0156 40.6133 62.9688C40.5612 62.9193 40.5352 62.8581 40.5352 62.7852V62.6133V62.0742C40.5299 61.9935 40.4987 61.9271 40.4414 61.875C40.3867 61.8203 40.3242 61.7773 40.2539 61.7461C40.1862 61.7148 40.1146 61.6914 40.0391 61.6758C39.9661 61.6602 39.8919 61.6523 39.8164 61.6523C39.7409 61.6523 39.6654 61.6602 39.5898 61.6758C39.5169 61.6914 39.4453 61.7148 39.375 61.7461C39.3073 61.7773 39.2448 61.8203 39.1875 61.875C39.1328 61.9271 39.1029 61.9935 39.0977 62.0742V62.6133V62.7852C39.0846 62.9414 39 63.026 38.8438 63.0391C38.7708 63.0391 38.707 63.0156 38.6523 62.9688C38.6003 62.9193 38.5742 62.8581 38.5742 62.7852V62.1172V61.9531C38.582 61.8125 38.6315 61.6914 38.7227 61.5898C38.8138 61.4883 38.9193 61.4076 39.0391 61.3477C39.1589 61.2852 39.2839 61.2383 39.4141 61.207C39.5469 61.1758 39.681 61.1602 39.8164 61.1602ZM43.8281 60.625C43.8984 60.6276 43.9583 60.6536 44.0078 60.7031C44.0573 60.75 44.0833 60.8086 44.0859 60.8789V62.793C44.0703 62.9492 43.9844 63.0339 43.8281 63.0469C43.7552 63.0469 43.6914 63.0234 43.6367 62.9766C43.5846 62.9271 43.5586 62.8659 43.5586 62.793V60.8789C43.5612 60.806 43.5885 60.7461 43.6406 60.6992C43.6927 60.6497 43.7552 60.625 43.8281 60.625ZM45.3906 62.9922C45.1615 62.9844 44.9883 62.931 44.8711 62.832C44.7539 62.7305 44.6693 62.6172 44.6172 62.4922C44.5651 62.3646 44.5391 62.2357 44.5391 62.1055C44.5391 61.9701 44.5638 61.8398 44.6133 61.7148C44.6654 61.5872 44.75 61.474 44.8672 61.375C44.987 61.2734 45.138 61.2214 45.3203 61.2188H46.5859C46.7682 61.2214 46.918 61.2734 47.0352 61.375C47.1549 61.474 47.2396 61.5872 47.2891 61.7148C47.3411 61.8398 47.3672 61.9701 47.3672 62.1055C47.3672 62.2357 47.3411 62.3646 47.2891 62.4922C47.237 62.6172 47.1523 62.7305 47.0352 62.832C46.918 62.931 46.7448 62.9844 46.5156 62.9922H45.3906ZM45.3047 61.7422C45.2552 61.7422 45.2122 61.763 45.1758 61.8047C45.1393 61.8438 45.112 61.8906 45.0938 61.9453C45.0781 61.9974 45.0703 62.0495 45.0703 62.1016C45.0703 62.1562 45.0781 62.2109 45.0938 62.2656C45.112 62.3177 45.1393 62.3646 45.1758 62.4062C45.2122 62.4453 45.2552 62.4661 45.3047 62.4688H46.6016C46.651 62.4661 46.694 62.4453 46.7305 62.4062C46.7669 62.3646 46.793 62.3177 46.8086 62.2656C46.8268 62.2109 46.8359 62.1562 46.8359 62.1016C46.8359 62.0495 46.8268 61.9974 46.8086 61.9453C46.793 61.8906 46.7669 61.8438 46.7305 61.8047C46.694 61.763 46.651 61.7422 46.6016 61.7422H45.3047ZM48.6094 62.9922C48.3802 62.9844 48.207 62.931 48.0898 62.832C47.9727 62.7305 47.888 62.6172 47.8359 62.4922C47.7839 62.3646 47.7578 62.2357 47.7578 62.1055C47.7578 61.9701 47.7826 61.8398 47.832 61.7148C47.8841 61.5872 47.9688 61.474 48.0859 61.375C48.2057 61.2734 48.3568 61.2214 48.5391 61.2188H50.0234C50.0964 61.2188 50.1576 61.2448 50.207 61.2969C50.2591 61.3464 50.2852 61.4076 50.2852 61.4805C50.2852 61.5534 50.2591 61.6159 50.207 61.668C50.1576 61.7174 50.0964 61.7422 50.0234 61.7422H48.5234C48.474 61.7422 48.431 61.763 48.3945 61.8047C48.3581 61.8438 48.3307 61.8906 48.3125 61.9453C48.2969 61.9974 48.2891 62.0495 48.2891 62.1016C48.2891 62.1562 48.2969 62.2109 48.3125 62.2656C48.3307 62.3177 48.3581 62.3646 48.3945 62.4062C48.431 62.4453 48.474 62.4661 48.5234 62.4688H50.0234C50.0964 62.4688 50.1576 62.4948 50.207 62.5469C50.2591 62.5964 50.2852 62.6576 50.2852 62.7305C50.2852 62.8034 50.2591 62.8646 50.207 62.9141C50.1576 62.9661 50.0964 62.9922 50.0234 62.9922H48.6094ZM50.9648 60.625C51.0352 60.6276 51.0951 60.6536 51.1445 60.7031C51.194 60.75 51.2201 60.8086 51.2227 60.8789V62.793C51.207 62.9492 51.1211 63.0339 50.9648 63.0469C50.8919 63.0469 50.8281 63.0234 50.7734 62.9766C50.7214 62.9271 50.6953 62.8659 50.6953 62.793V60.8789C50.6979 60.806 50.7253 60.7461 50.7773 60.6992C50.8294 60.6497 50.8919 60.625 50.9648 60.625ZM51.4609 61.7148C51.5365 61.5924 51.681 61.5026 51.8945 61.4453L52.8984 61.1758C52.9688 61.1549 53.0352 61.1615 53.0977 61.1953C53.1628 61.2266 53.2057 61.2773 53.2266 61.3477C53.25 61.4154 53.2448 61.4818 53.2109 61.5469C53.1797 61.6094 53.1289 61.6523 53.0586 61.6758L51.9883 61.9531C51.9128 61.9818 51.8763 62.0312 51.8789 62.1016C51.8763 62.1719 51.9128 62.2214 51.9883 62.25L53.0586 62.5273C53.1289 62.5508 53.1797 62.5951 53.2109 62.6602C53.2448 62.7227 53.25 62.7878 53.2266 62.8555C53.2057 62.9258 53.1628 62.9766 53.0977 63.0078C53.0352 63.0417 52.9688 63.0482 52.8984 63.0273L51.8945 62.7578C51.6784 62.6979 51.5326 62.6068 51.457 62.4844C51.3841 62.362 51.3477 62.2344 51.3477 62.1016C51.3477 61.9688 51.3854 61.8398 51.4609 61.7148ZM56.4961 60.625C56.569 60.625 56.6315 60.6497 56.6836 60.6992C56.7357 60.7461 56.763 60.806 56.7656 60.8789V61.2188H58.0938C58.1667 61.2188 58.2292 61.2435 58.2812 61.293C58.3307 61.3451 58.3555 61.4076 58.3555 61.4805C58.3555 61.5534 58.3294 61.6159 58.2773 61.668C58.2279 61.7174 58.1667 61.7422 58.0938 61.7422H56.7656V61.8203C56.763 61.9271 56.7695 62.026 56.7852 62.1172C56.8034 62.2057 56.8451 62.2852 56.9102 62.3555C56.9753 62.4258 57.0573 62.4635 57.1562 62.4688H58.1094C58.1823 62.4714 58.2422 62.4987 58.2891 62.5508C58.3385 62.6029 58.3633 62.6654 58.3633 62.7383C58.3607 62.8086 58.3346 62.8685 58.2852 62.918C58.2383 62.9648 58.1797 62.9896 58.1094 62.9922H57.0234C56.8411 62.9818 56.6901 62.9206 56.5703 62.8086C56.4531 62.694 56.3685 62.5547 56.3164 62.3906C56.2669 62.2266 56.2409 62.0521 56.2383 61.8672V61.7422H55.7891C55.7161 61.7422 55.6549 61.7161 55.6055 61.6641C55.5534 61.6146 55.5273 61.5534 55.5273 61.4805C55.5273 61.4076 55.5521 61.3464 55.6016 61.2969C55.6536 61.2448 55.7161 61.2188 55.7891 61.2188H56.2383V60.8789C56.2409 60.8086 56.2669 60.75 56.3164 60.7031C56.3659 60.6536 56.4258 60.6276 56.4961 60.625ZM59.0078 60.625C59.0781 60.6276 59.138 60.6536 59.1875 60.7031C59.237 60.75 59.263 60.8086 59.2656 60.8789V61.2188H60.4766C60.6589 61.2214 60.8086 61.2734 60.9258 61.375C61.0456 61.474 61.1302 61.5859 61.1797 61.7109C61.2318 61.8385 61.2578 61.9701 61.2578 62.1055H61.2617V62.7852C61.2617 62.8581 61.2344 62.9193 61.1797 62.9688C61.1276 63.0156 61.0651 63.0391 60.9922 63.0391C60.8359 63.026 60.75 62.9414 60.7344 62.7852V62.1016C60.7344 62.0521 60.724 62 60.7031 61.9453C60.6849 61.8906 60.6576 61.8438 60.6211 61.8047C60.5846 61.763 60.5417 61.7422 60.4922 61.7422H59.2656V62.793C59.25 62.9492 59.1641 63.0339 59.0078 63.0469C58.9349 63.0469 58.8711 63.0234 58.8164 62.9766C58.7643 62.9271 58.7383 62.8659 58.7383 62.793V60.8789C58.7409 60.806 58.7682 60.7461 58.8203 60.6992C58.8724 60.6497 58.9349 60.625 59.0078 60.625ZM62.0234 61.1797C62.0938 61.1823 62.1536 61.2083 62.2031 61.2578C62.2526 61.3047 62.2786 61.3633 62.2812 61.4336V62.7852C62.2656 62.9414 62.1797 63.026 62.0234 63.0391C61.9505 63.0391 61.8867 63.0156 61.832 62.9688C61.7799 62.9193 61.7539 62.8581 61.7539 62.7852V61.4336C61.7565 61.3607 61.7839 61.3008 61.8359 61.2539C61.888 61.2044 61.9505 61.1797 62.0234 61.1797ZM61.6953 60.6719C61.6953 60.599 61.7266 60.5365 61.7891 60.4844C61.8516 60.4323 61.9271 60.4062 62.0156 60.4062C62.1042 60.4062 62.1797 60.4323 62.2422 60.4844C62.3047 60.5365 62.3359 60.599 62.3359 60.6719C62.3359 60.7474 62.3047 60.8112 62.2422 60.8633C62.1797 60.9154 62.1042 60.9414 62.0156 60.9414C61.9271 60.9414 61.8516 60.9154 61.7891 60.8633C61.7266 60.8112 61.6953 60.7474 61.6953 60.6719ZM65.2383 61.4453C65.2383 61.5104 65.2122 61.5651 65.1602 61.6094C65.1107 61.651 65.0495 61.6719 64.9766 61.6719H63.3242C63.2904 61.6719 63.263 61.6784 63.2422 61.6914C63.2214 61.7044 63.2057 61.7188 63.1953 61.7344C63.1849 61.7474 63.1797 61.7591 63.1797 61.7695C63.1797 61.7826 63.1849 61.7969 63.1953 61.8125C63.2057 61.8255 63.2214 61.8385 63.2422 61.8516C63.263 61.862 63.2904 61.8685 63.3242 61.8711H64.6016C64.7656 61.8737 64.901 61.9062 65.0078 61.9688C65.1146 62.0286 65.1901 62.1003 65.2344 62.1836C65.2812 62.2643 65.3047 62.3464 65.3047 62.4297C65.3047 62.5104 65.2812 62.5924 65.2344 62.6758C65.1875 62.7565 65.1107 62.8281 65.0039 62.8906C64.8997 62.9505 64.7656 62.9805 64.6016 62.9805C64.5729 62.9831 64.5521 62.9844 64.5391 62.9844H63.0234C62.9505 62.9844 62.888 62.9635 62.8359 62.9219C62.7865 62.8776 62.7617 62.8242 62.7617 62.7617C62.7617 62.6966 62.7878 62.6419 62.8398 62.5977C62.8893 62.556 62.9505 62.5352 63.0234 62.5352H64.6328C64.6719 62.5378 64.7031 62.5326 64.7266 62.5195C64.7526 62.5065 64.7721 62.4922 64.7852 62.4766C64.7982 62.4609 64.8047 62.4453 64.8047 62.4297C64.8047 62.4219 64.7982 62.4089 64.7852 62.3906C64.7721 62.3698 64.7526 62.3542 64.7266 62.3438C64.7031 62.3307 64.6719 62.3229 64.6328 62.3203H63.3516C63.2005 62.3177 63.0755 62.2865 62.9766 62.2266C62.8776 62.1641 62.8073 62.0924 62.7656 62.0117C62.724 61.931 62.7031 61.8503 62.7031 61.7695C62.7031 61.6888 62.724 61.6094 62.7656 61.5312C62.8099 61.4505 62.8802 61.3815 62.9766 61.3242C63.0755 61.2643 63.2005 61.2318 63.3516 61.2266C63.3776 61.224 63.3971 61.2227 63.4102 61.2227H64.9766C65.0495 61.2227 65.1107 61.2448 65.1602 61.2891C65.2122 61.3307 65.2383 61.3828 65.2383 61.4453ZM68.2656 60.8789V62.3672C68.2656 62.4323 68.2995 62.4661 68.3672 62.4688H69.7344C69.7839 62.4661 69.8268 62.4453 69.8633 62.4062C69.8997 62.3646 69.9258 62.3177 69.9414 62.2656C69.9596 62.2109 69.9688 62.1562 69.9688 62.1016C69.9688 62.0495 69.9596 61.9974 69.9414 61.9453C69.9258 61.8906 69.8997 61.8438 69.8633 61.8047C69.8268 61.763 69.7839 61.7422 69.7344 61.7422H68.7344C68.6615 61.7422 68.599 61.7174 68.5469 61.668C68.4974 61.6159 68.4727 61.5534 68.4727 61.4805C68.4727 61.4076 68.4987 61.3464 68.5508 61.2969C68.6003 61.2448 68.6615 61.2188 68.7344 61.2188H69.7188C69.901 61.2214 70.0508 61.2734 70.168 61.375C70.2878 61.474 70.3724 61.5872 70.4219 61.7148C70.474 61.8398 70.5 61.9701 70.5 62.1055C70.5 62.2357 70.474 62.3646 70.4219 62.4922C70.3698 62.6172 70.2852 62.7305 70.168 62.832C70.0508 62.931 69.8776 62.9844 69.6484 62.9922H68.0078C67.9349 62.9922 67.8724 62.9688 67.8203 62.9219C67.7682 62.8724 67.7409 62.8112 67.7383 62.7383V60.8789C67.7383 60.806 67.7643 60.7461 67.8164 60.6992C67.8711 60.6497 67.9349 60.625 68.0078 60.625C68.1641 60.638 68.25 60.7227 68.2656 60.8789ZM71.1836 61.1719C71.2565 61.1719 71.319 61.1966 71.3711 61.2461C71.4232 61.293 71.4505 61.3529 71.4531 61.4258V61.8203C71.4505 61.9271 71.457 62.026 71.4727 62.1172C71.4909 62.2057 71.5326 62.2852 71.5977 62.3555C71.6628 62.4258 71.7448 62.4635 71.8438 62.4688H72.8867V61.4336C72.8867 61.3607 72.9128 61.3008 72.9648 61.2539C73.0195 61.2044 73.0833 61.1797 73.1562 61.1797C73.3125 61.1927 73.3984 61.2773 73.4141 61.4336V62.707C73.4141 62.9154 73.3854 63.112 73.3281 63.2969C73.276 63.4609 73.1901 63.599 73.0703 63.7109C72.9531 63.8255 72.8034 63.888 72.6211 63.8984H71.2695C71.1992 63.8958 71.1393 63.8698 71.0898 63.8203C71.043 63.7734 71.0182 63.7148 71.0156 63.6445C71.0156 63.5716 71.0391 63.5091 71.0859 63.457C71.1354 63.4049 71.1966 63.3776 71.2695 63.375H72.4883C72.5872 63.3698 72.6693 63.332 72.7344 63.2617C72.7995 63.1914 72.8411 63.1094 72.8594 63.0156C72.862 63.0078 72.8633 63 72.8633 62.9922H71.7109C71.5286 62.9818 71.3776 62.9206 71.2578 62.8086C71.1406 62.694 71.056 62.5547 71.0039 62.3906C70.9544 62.2266 70.9284 62.0521 70.9258 61.8672V61.4258C70.9284 61.3555 70.9544 61.2969 71.0039 61.25C71.0534 61.2005 71.1133 61.1745 71.1836 61.1719ZM22.0742 67.043C21.9857 67.043 21.8971 67.0273 21.8086 66.9961C21.7227 66.9648 21.6393 66.9193 21.5586 66.8594C21.4779 66.7969 21.4076 66.7148 21.3477 66.6133C21.2878 66.5117 21.2552 66.3906 21.25 66.25V65.418C21.25 65.3451 21.276 65.2852 21.3281 65.2383C21.3828 65.1888 21.4466 65.1641 21.5195 65.1641C21.6758 65.1771 21.7604 65.2617 21.7734 65.418V66.2188C21.776 66.2812 21.7891 66.3346 21.8125 66.3789C21.8359 66.4206 21.862 66.4544 21.8906 66.4805C21.9193 66.5039 21.9479 66.5221 21.9766 66.5352C22.0078 66.5456 22.0391 66.5508 22.0703 66.5508C22.1016 66.5508 22.1328 66.5456 22.1641 66.5352C22.1953 66.5221 22.2253 66.5039 22.2539 66.4805C22.2826 66.4544 22.3086 66.4206 22.332 66.3789C22.3555 66.3346 22.3672 66.2812 22.3672 66.2188V65.418C22.3672 65.3451 22.3932 65.2852 22.4453 65.2383C22.5 65.1888 22.5638 65.1641 22.6367 65.1641C22.793 65.1771 22.8789 65.2617 22.8945 65.418V66.2188C22.8971 66.2812 22.9102 66.3333 22.9336 66.375C22.957 66.4193 22.9831 66.4544 23.0117 66.4805C23.0404 66.5039 23.069 66.5221 23.0977 66.5352C23.1289 66.5456 23.1602 66.5508 23.1914 66.5508C23.2227 66.5508 23.2539 66.5456 23.2852 66.5352C23.3164 66.5221 23.3464 66.5039 23.375 66.4805C23.4036 66.4544 23.4297 66.4206 23.4531 66.3789C23.4766 66.3346 23.4883 66.2812 23.4883 66.2188V65.418C23.4883 65.3451 23.5143 65.2852 23.5664 65.2383C23.6211 65.1888 23.6849 65.1641 23.7578 65.1641C23.9141 65.1771 24 65.2617 24.0156 65.418V66.25C24.0156 66.3906 23.9844 66.5117 23.9219 66.6133C23.862 66.7148 23.7917 66.7969 23.7109 66.8594C23.6328 66.9193 23.5495 66.9648 23.4609 66.9961C23.375 67.0273 23.2865 67.043 23.1953 67.043C23.1068 67.043 23.0182 67.0273 22.9297 66.9961C22.8438 66.9648 22.7604 66.918 22.6797 66.8555C22.6641 66.8451 22.6497 66.8333 22.6367 66.8203C22.6211 66.8333 22.6068 66.8451 22.5938 66.8555C22.513 66.918 22.4284 66.9648 22.3398 66.9961C22.2539 67.0273 22.1654 67.043 22.0742 67.043ZM24.8008 65.1797C24.8711 65.1823 24.931 65.2083 24.9805 65.2578C25.0299 65.3047 25.056 65.3633 25.0586 65.4336V66.7852C25.043 66.9414 24.957 67.026 24.8008 67.0391C24.7279 67.0391 24.6641 67.0156 24.6094 66.9688C24.5573 66.9193 24.5312 66.8581 24.5312 66.7852V65.4336C24.5339 65.3607 24.5612 65.3008 24.6133 65.2539C24.6654 65.2044 24.7279 65.1797 24.8008 65.1797ZM24.4727 64.6719C24.4727 64.599 24.5039 64.5365 24.5664 64.4844C24.6289 64.4323 24.7044 64.4062 24.793 64.4062C24.8815 64.4062 24.957 64.4323 25.0195 64.4844C25.082 64.5365 25.1133 64.599 25.1133 64.6719C25.1133 64.7474 25.082 64.8112 25.0195 64.8633C24.957 64.9154 24.8815 64.9414 24.793 64.9414C24.7044 64.9414 24.6289 64.9154 24.5664 64.8633C24.5039 64.8112 24.4727 64.7474 24.4727 64.6719ZM26.7812 65.1602C26.9167 65.1602 27.0495 65.1758 27.1797 65.207C27.3125 65.2383 27.4388 65.2852 27.5586 65.3477C27.6784 65.4076 27.7839 65.4883 27.875 65.5898C27.9688 65.6914 28.0195 65.8125 28.0273 65.9531V66.1172V66.7852C28.0117 66.9414 27.9258 67.026 27.7695 67.0391C27.6966 67.0391 27.6328 67.0156 27.5781 66.9688C27.526 66.9193 27.5 66.8581 27.5 66.7852V66.6133V66.0742C27.4948 65.9935 27.4635 65.9271 27.4062 65.875C27.3516 65.8203 27.2891 65.7773 27.2188 65.7461C27.151 65.7148 27.0794 65.6914 27.0039 65.6758C26.931 65.6602 26.8568 65.6523 26.7812 65.6523C26.7057 65.6523 26.6302 65.6602 26.5547 65.6758C26.4818 65.6914 26.4102 65.7148 26.3398 65.7461C26.2721 65.7773 26.2096 65.8203 26.1523 65.875C26.0977 65.9271 26.0677 65.9935 26.0625 66.0742V66.6133V66.7852C26.0495 66.9414 25.9648 67.026 25.8086 67.0391C25.7357 67.0391 25.6719 67.0156 25.6172 66.9688C25.5651 66.9193 25.5391 66.8581 25.5391 66.7852V66.1172V65.9531C25.5469 65.8125 25.5964 65.6914 25.6875 65.5898C25.7786 65.4883 25.8841 65.4076 26.0039 65.3477C26.1237 65.2852 26.2487 65.2383 26.3789 65.207C26.5117 65.1758 26.6458 65.1602 26.7812 65.1602ZM28.793 65.1797C28.8633 65.1823 28.9232 65.2083 28.9727 65.2578C29.0221 65.3047 29.0482 65.3633 29.0508 65.4336V66.7852C29.0352 66.9414 28.9492 67.026 28.793 67.0391C28.7201 67.0391 28.6562 67.0156 28.6016 66.9688C28.5495 66.9193 28.5234 66.8581 28.5234 66.7852V65.4336C28.526 65.3607 28.5534 65.3008 28.6055 65.2539C28.6576 65.2044 28.7201 65.1797 28.793 65.1797ZM28.4648 64.6719C28.4648 64.599 28.4961 64.5365 28.5586 64.4844C28.6211 64.4323 28.6966 64.4062 28.7852 64.4062C28.8737 64.4062 28.9492 64.4323 29.0117 64.4844C29.0742 64.5365 29.1055 64.599 29.1055 64.6719C29.1055 64.7474 29.0742 64.8112 29.0117 64.8633C28.9492 64.9154 28.8737 64.9414 28.7852 64.9414C28.6966 64.9414 28.6211 64.9154 28.5586 64.8633C28.4961 64.8112 28.4648 64.7474 28.4648 64.6719ZM30.7734 65.1602C30.9089 65.1602 31.0417 65.1758 31.1719 65.207C31.3047 65.2383 31.431 65.2852 31.5508 65.3477C31.6706 65.4076 31.776 65.4883 31.8672 65.5898C31.9609 65.6914 32.0117 65.8125 32.0195 65.9531V66.1172V66.7852C32.0039 66.9414 31.918 67.026 31.7617 67.0391C31.6888 67.0391 31.625 67.0156 31.5703 66.9688C31.5182 66.9193 31.4922 66.8581 31.4922 66.7852V66.6133V66.0742C31.487 65.9935 31.4557 65.9271 31.3984 65.875C31.3438 65.8203 31.2812 65.7773 31.2109 65.7461C31.1432 65.7148 31.0716 65.6914 30.9961 65.6758C30.9232 65.6602 30.849 65.6523 30.7734 65.6523C30.6979 65.6523 30.6224 65.6602 30.5469 65.6758C30.474 65.6914 30.4023 65.7148 30.332 65.7461C30.2643 65.7773 30.2018 65.8203 30.1445 65.875C30.0898 65.9271 30.0599 65.9935 30.0547 66.0742V66.6133V66.7852C30.0417 66.9414 29.957 67.026 29.8008 67.0391C29.7279 67.0391 29.6641 67.0156 29.6094 66.9688C29.5573 66.9193 29.5312 66.8581 29.5312 66.7852V66.1172V65.9531C29.5391 65.8125 29.5885 65.6914 29.6797 65.5898C29.7708 65.4883 29.8763 65.4076 29.9961 65.3477C30.1159 65.2852 30.2409 65.2383 30.3711 65.207C30.5039 65.1758 30.638 65.1602 30.7734 65.1602ZM34.707 65.8438C34.707 65.7786 34.6732 65.7448 34.6055 65.7422H33.2383C33.1888 65.7448 33.1458 65.7669 33.1094 65.8086C33.0729 65.8477 33.0456 65.8945 33.0273 65.9492C33.0117 66.0013 33.0039 66.0547 33.0039 66.1094C33.0039 66.1615 33.0117 66.2148 33.0273 66.2695C33.0456 66.3216 33.0729 66.3685 33.1094 66.4102C33.1458 66.4492 33.1888 66.4688 33.2383 66.4688H34.2383C34.3112 66.4688 34.3724 66.4948 34.4219 66.5469C34.474 66.5964 34.5 66.6576 34.5 66.7305C34.5 66.8034 34.474 66.8646 34.4219 66.9141C34.3724 66.9661 34.3112 66.9922 34.2383 66.9922H33.2539C33.0716 66.9896 32.9206 66.9388 32.8008 66.8398C32.6836 66.7383 32.599 66.625 32.5469 66.5C32.4974 66.3724 32.4727 66.2409 32.4727 66.1055C32.4727 65.9753 32.4987 65.8477 32.5508 65.7227C32.6029 65.5951 32.6875 65.4818 32.8047 65.3828C32.9219 65.2812 33.0951 65.2266 33.3242 65.2188H34.9648C35.0378 65.2188 35.1003 65.2435 35.1523 65.293C35.2044 65.3398 35.2318 65.3997 35.2344 65.4727V66.707C35.2344 66.9154 35.2057 67.112 35.1484 67.2969C35.0964 67.4609 35.0104 67.599 34.8906 67.7109C34.7734 67.8255 34.6237 67.888 34.4414 67.8984H33.0898C33.0195 67.8958 32.9596 67.8698 32.9102 67.8203C32.8633 67.7734 32.8385 67.7148 32.8359 67.6445C32.8359 67.5716 32.8594 67.5091 32.9062 67.457C32.9557 67.4049 33.0169 67.3776 33.0898 67.375H34.3086C34.4076 67.3698 34.4896 67.332 34.5547 67.2617C34.6198 67.1914 34.6615 67.1094 34.6797 67.0156C34.6979 66.9219 34.707 66.8008 34.707 66.6523V65.8438ZM38.0312 65.1797C38.1016 65.1823 38.1615 65.2083 38.2109 65.2578C38.2604 65.3047 38.2865 65.3633 38.2891 65.4336V66.7852C38.2734 66.9414 38.1875 67.026 38.0312 67.0391C37.9583 67.0391 37.8945 67.0156 37.8398 66.9688C37.7878 66.9193 37.7617 66.8581 37.7617 66.7852V65.4336C37.7643 65.3607 37.7917 65.3008 37.8438 65.2539C37.8958 65.2044 37.9583 65.1797 38.0312 65.1797ZM37.7031 64.6719C37.7031 64.599 37.7344 64.5365 37.7969 64.4844C37.8594 64.4323 37.9349 64.4062 38.0234 64.4062C38.112 64.4062 38.1875 64.4323 38.25 64.4844C38.3125 64.5365 38.3438 64.599 38.3438 64.6719C38.3438 64.7474 38.3125 64.8112 38.25 64.8633C38.1875 64.9154 38.112 64.9414 38.0234 64.9414C37.9349 64.9414 37.8594 64.9154 37.7969 64.8633C37.7344 64.8112 37.7031 64.7474 37.7031 64.6719ZM40.0117 65.1602C40.1471 65.1602 40.2799 65.1758 40.4102 65.207C40.543 65.2383 40.6693 65.2852 40.7891 65.3477C40.9089 65.4076 41.0143 65.4883 41.1055 65.5898C41.1992 65.6914 41.25 65.8125 41.2578 65.9531V66.1172V66.7852C41.2422 66.9414 41.1562 67.026 41 67.0391C40.9271 67.0391 40.8633 67.0156 40.8086 66.9688C40.7565 66.9193 40.7305 66.8581 40.7305 66.7852V66.6133V66.0742C40.7253 65.9935 40.694 65.9271 40.6367 65.875C40.582 65.8203 40.5195 65.7773 40.4492 65.7461C40.3815 65.7148 40.3099 65.6914 40.2344 65.6758C40.1615 65.6602 40.0872 65.6523 40.0117 65.6523C39.9362 65.6523 39.8607 65.6602 39.7852 65.6758C39.7122 65.6914 39.6406 65.7148 39.5703 65.7461C39.5026 65.7773 39.4401 65.8203 39.3828 65.875C39.3281 65.9271 39.2982 65.9935 39.293 66.0742V66.6133V66.7852C39.2799 66.9414 39.1953 67.026 39.0391 67.0391C38.9661 67.0391 38.9023 67.0156 38.8477 66.9688C38.7956 66.9193 38.7695 66.8581 38.7695 66.7852V66.1172V65.9531C38.7773 65.8125 38.8268 65.6914 38.918 65.5898C39.0091 65.4883 39.1146 65.4076 39.2344 65.3477C39.3542 65.2852 39.4792 65.2383 39.6094 65.207C39.7422 65.1758 39.8763 65.1602 40.0117 65.1602ZM43.7812 66.7227C43.7812 66.6497 43.8073 66.5885 43.8594 66.5391C43.9089 66.487 43.9701 66.4609 44.043 66.4609H45.6445C45.694 66.4583 45.7344 66.4466 45.7656 66.4258C45.7995 66.4049 45.8242 66.3815 45.8398 66.3555C45.8555 66.3294 45.8633 66.3021 45.8633 66.2734C45.8633 66.2448 45.8555 66.2174 45.8398 66.1914C45.8242 66.1654 45.7995 66.1419 45.7656 66.1211C45.7344 66.1003 45.694 66.0885 45.6445 66.0859H44.5352C44.3529 66.0807 44.2018 66.0391 44.082 65.9609C43.9648 65.8802 43.8802 65.7891 43.8281 65.6875C43.7786 65.5833 43.7539 65.4779 43.7539 65.3711V65.1016C43.7565 64.9688 43.7956 64.8672 43.8711 64.7969C43.9492 64.724 44.0612 64.6875 44.207 64.6875H46.1211C46.194 64.6875 46.2552 64.7135 46.3047 64.7656C46.3568 64.8151 46.3828 64.8763 46.3828 64.9492C46.3828 65.0221 46.3568 65.0833 46.3047 65.1328C46.2552 65.1849 46.194 65.2109 46.1211 65.2109H44.418C44.3685 65.2083 44.3346 65.2161 44.3164 65.2344C44.3008 65.2526 44.293 65.2786 44.293 65.3125V65.3711C44.293 65.3893 44.3008 65.4154 44.3164 65.4492C44.332 65.4805 44.3555 65.5065 44.3867 65.5273C44.4206 65.5482 44.4622 65.5599 44.5117 65.5625H45.6211C45.8034 65.5651 45.9531 65.6068 46.0703 65.6875C46.1901 65.7656 46.2747 65.8568 46.3242 65.9609C46.3763 66.0625 46.4023 66.1667 46.4023 66.2734C46.4023 66.375 46.3763 66.4779 46.3242 66.582C46.2721 66.6836 46.1875 66.7747 46.0703 66.8555C45.9531 66.9336 45.8034 66.9753 45.6211 66.9805H45.5977C45.582 66.9831 45.5664 66.9844 45.5508 66.9844H44.043C43.9701 66.9844 43.9076 66.9596 43.8555 66.9102C43.806 66.8581 43.7812 66.7956 43.7812 66.7227ZM51.0703 65.8438C51.0703 65.7786 51.0365 65.7448 50.9688 65.7422H49.6016C49.5521 65.7448 49.5091 65.7669 49.4727 65.8086C49.4362 65.8477 49.4089 65.8945 49.3906 65.9492C49.375 66.0013 49.3672 66.0547 49.3672 66.1094C49.3672 66.1615 49.375 66.2148 49.3906 66.2695C49.4089 66.3216 49.4362 66.3685 49.4727 66.4102C49.5091 66.4492 49.5521 66.4688 49.6016 66.4688H50.6016C50.6745 66.4688 50.7357 66.4948 50.7852 66.5469C50.8372 66.5964 50.8633 66.6576 50.8633 66.7305C50.8633 66.8034 50.8372 66.8646 50.7852 66.9141C50.7357 66.9661 50.6745 66.9922 50.6016 66.9922H49.6172C49.4349 66.9896 49.2839 66.9388 49.1641 66.8398C49.0469 66.7383 48.9622 66.625 48.9102 66.5C48.8607 66.3724 48.8359 66.2409 48.8359 66.1055C48.8359 65.9753 48.862 65.8477 48.9141 65.7227C48.9661 65.5951 49.0508 65.4818 49.168 65.3828C49.2852 65.2812 49.4583 65.2266 49.6875 65.2188H51.3281C51.401 65.2188 51.4635 65.2435 51.5156 65.293C51.5677 65.3398 51.5951 65.3997 51.5977 65.4727V66.707C51.5977 66.9154 51.569 67.112 51.5117 67.2969C51.4596 67.4609 51.3737 67.599 51.2539 67.7109C51.1367 67.8255 50.987 67.888 50.8047 67.8984H49.4531C49.3828 67.8958 49.3229 67.8698 49.2734 67.8203C49.2266 67.7734 49.2018 67.7148 49.1992 67.6445C49.1992 67.5716 49.2227 67.5091 49.2695 67.457C49.319 67.4049 49.3802 67.3776 49.4531 67.375H50.6719C50.7708 67.3698 50.8529 67.332 50.918 67.2617C50.9831 67.1914 51.0247 67.1094 51.043 67.0156C51.0612 66.9219 51.0703 66.8008 51.0703 66.6523V65.8438ZM54.3086 66.7852V65.8438C54.3086 65.7786 54.2747 65.7448 54.207 65.7422H52.8398C52.7904 65.7448 52.7474 65.7669 52.7109 65.8086C52.6745 65.8477 52.6471 65.8945 52.6289 65.9492C52.6133 66.0013 52.6055 66.0547 52.6055 66.1094C52.6055 66.1615 52.6133 66.2148 52.6289 66.2695C52.6471 66.3216 52.6745 66.3685 52.7109 66.4102C52.7474 66.4492 52.7904 66.4688 52.8398 66.4688H53.8398C53.9128 66.4688 53.974 66.4948 54.0234 66.5469C54.0755 66.5964 54.1016 66.6576 54.1016 66.7305C54.1016 66.8034 54.0755 66.8646 54.0234 66.9141C53.974 66.9661 53.9128 66.9922 53.8398 66.9922H52.8555C52.6732 66.9896 52.5221 66.9388 52.4023 66.8398C52.2852 66.7383 52.2005 66.625 52.1484 66.5C52.099 66.3724 52.0742 66.2409 52.0742 66.1055C52.0742 65.9753 52.1003 65.8477 52.1523 65.7227C52.2044 65.5951 52.2891 65.4818 52.4062 65.3828C52.5234 65.2812 52.6966 65.2266 52.9258 65.2188H54.5664C54.6393 65.2188 54.7018 65.2435 54.7539 65.293C54.806 65.3398 54.8333 65.3997 54.8359 65.4727V66.7852C54.8359 66.8581 54.8086 66.9193 54.7539 66.9688C54.7018 67.0156 54.6393 67.0391 54.5664 67.0391C54.4102 67.026 54.3242 66.9414 54.3086 66.7852ZM56.168 65.1602C56.2591 65.1602 56.3477 65.1758 56.4336 65.207C56.5221 65.2383 56.6068 65.2839 56.6875 65.3438C56.7005 65.3568 56.7148 65.3698 56.7305 65.3828C56.7435 65.3698 56.7578 65.3568 56.7734 65.3438C56.8542 65.2839 56.9375 65.2383 57.0234 65.207C57.112 65.1758 57.2005 65.1602 57.2891 65.1602C57.3802 65.1602 57.4688 65.1758 57.5547 65.207C57.6432 65.2383 57.7266 65.2852 57.8047 65.3477C57.8854 65.4076 57.9557 65.4883 58.0156 65.5898C58.0781 65.6914 58.1094 65.8125 58.1094 65.9531V66.7852C58.0938 66.9414 58.0078 67.026 57.8516 67.0391C57.7786 67.0391 57.7148 67.0156 57.6602 66.9688C57.6081 66.9193 57.582 66.8581 57.582 66.7852V65.9844C57.582 65.9219 57.5703 65.8698 57.5469 65.8281C57.5234 65.7839 57.4974 65.75 57.4688 65.7266C57.4401 65.7005 57.4102 65.6823 57.3789 65.6719C57.3477 65.6589 57.3164 65.6523 57.2852 65.6523C57.2539 65.6523 57.2227 65.6589 57.1914 65.6719C57.1628 65.6823 57.1341 65.7005 57.1055 65.7266C57.0768 65.75 57.0508 65.7839 57.0273 65.8281C57.0039 65.8698 56.9909 65.9219 56.9883 65.9844V66.7852C56.9727 66.9414 56.8867 67.026 56.7305 67.0391C56.6576 67.0391 56.5938 67.0156 56.5391 66.9688C56.487 66.9193 56.4609 66.8581 56.4609 66.7852V65.9844C56.4609 65.9219 56.4492 65.8698 56.4258 65.8281C56.4023 65.7839 56.3763 65.75 56.3477 65.7266C56.319 65.7005 56.2891 65.6823 56.2578 65.6719C56.2266 65.6589 56.1953 65.6523 56.1641 65.6523C56.1328 65.6523 56.1016 65.6589 56.0703 65.6719C56.0417 65.6823 56.013 65.7005 55.9844 65.7266C55.9557 65.75 55.9297 65.7839 55.9062 65.8281C55.8828 65.8698 55.8698 65.9219 55.8672 65.9844V66.7852C55.8542 66.9414 55.7695 67.026 55.6133 67.0391C55.5404 67.0391 55.4766 67.0156 55.4219 66.9688C55.3698 66.9193 55.3438 66.8581 55.3438 66.7852V65.9531C55.349 65.8125 55.3815 65.6914 55.4414 65.5898C55.5013 65.4883 55.5716 65.4076 55.6523 65.3477C55.7331 65.2852 55.8164 65.2383 55.9023 65.207C55.9909 65.1758 56.0794 65.1602 56.168 65.1602ZM59.3945 66.9922C59.1654 66.9844 58.9922 66.931 58.875 66.832C58.7578 66.7305 58.6732 66.6172 58.6211 66.4922C58.569 66.3646 58.543 66.2357 58.543 66.1055C58.543 65.9701 58.5677 65.8398 58.6172 65.7148C58.6693 65.5872 58.7539 65.474 58.8711 65.375C58.9909 65.2734 59.1419 65.2214 59.3242 65.2188H60.8086C60.8815 65.2188 60.9427 65.2435 60.9922 65.293C61.0443 65.3398 61.0703 65.3971 61.0703 65.4648C61.0703 65.5352 61.0443 65.5951 60.9922 65.6445C60.9427 65.6914 60.8815 65.7148 60.8086 65.7148H59.3477C59.2904 65.7148 59.2396 65.7344 59.1953 65.7734C59.1536 65.8125 59.1224 65.8633 59.1016 65.9258C59.0833 65.9883 59.0742 66.0495 59.0742 66.1094C59.0742 66.1745 59.0833 66.2383 59.1016 66.3008C59.1224 66.3633 59.1536 66.4141 59.1953 66.4531C59.2396 66.4896 59.2904 66.5091 59.3477 66.5117H60.8086C60.8815 66.5117 60.9427 66.5352 60.9922 66.582C61.0443 66.6289 61.0703 66.6849 61.0703 66.75C61.0703 66.8177 61.0443 66.875 60.9922 66.9219C60.9427 66.9688 60.8815 66.9922 60.8086 66.9922H59.3945ZM61.0234 66.0977C61.0234 66.1471 61.0013 66.1901 60.957 66.2266C60.918 66.2604 60.8685 66.2773 60.8086 66.2773H59.5312C59.4714 66.2773 59.4206 66.2604 59.3789 66.2266C59.3372 66.1901 59.3164 66.1471 59.3164 66.0977C59.3164 66.0508 59.3372 66.0091 59.3789 65.9727C59.4206 65.9388 59.4714 65.9219 59.5312 65.9219H60.8086C60.8685 65.9219 60.9193 65.9401 60.9609 65.9766C61.0026 66.0104 61.0234 66.0508 61.0234 66.0977ZM63.7891 65.1797C63.8594 65.1823 63.9193 65.2083 63.9688 65.2578C64.0182 65.3047 64.0443 65.3633 64.0469 65.4336V66.7852C64.0312 66.9414 63.9453 67.026 63.7891 67.0391C63.7161 67.0391 63.6523 67.0156 63.5977 66.9688C63.5456 66.9193 63.5195 66.8581 63.5195 66.7852V65.4336C63.5221 65.3607 63.5495 65.3008 63.6016 65.2539C63.6536 65.2044 63.7161 65.1797 63.7891 65.1797ZM63.4609 64.6719C63.4609 64.599 63.4922 64.5365 63.5547 64.4844C63.6172 64.4323 63.6927 64.4062 63.7812 64.4062C63.8698 64.4062 63.9453 64.4323 64.0078 64.4844C64.0703 64.5365 64.1016 64.599 64.1016 64.6719C64.1016 64.7474 64.0703 64.8112 64.0078 64.8633C63.9453 64.9154 63.8698 64.9414 63.7812 64.9414C63.6927 64.9414 63.6172 64.9154 63.5547 64.8633C63.4922 64.8112 63.4609 64.7474 63.4609 64.6719ZM65.7695 65.1602C65.9049 65.1602 66.0378 65.1758 66.168 65.207C66.3008 65.2383 66.4271 65.2852 66.5469 65.3477C66.6667 65.4076 66.7721 65.4883 66.8633 65.5898C66.957 65.6914 67.0078 65.8125 67.0156 65.9531V66.1172V66.7852C67 66.9414 66.9141 67.026 66.7578 67.0391C66.6849 67.0391 66.6211 67.0156 66.5664 66.9688C66.5143 66.9193 66.4883 66.8581 66.4883 66.7852V66.6133V66.0742C66.4831 65.9935 66.4518 65.9271 66.3945 65.875C66.3398 65.8203 66.2773 65.7773 66.207 65.7461C66.1393 65.7148 66.0677 65.6914 65.9922 65.6758C65.9193 65.6602 65.8451 65.6523 65.7695 65.6523C65.694 65.6523 65.6185 65.6602 65.543 65.6758C65.4701 65.6914 65.3984 65.7148 65.3281 65.7461C65.2604 65.7773 65.1979 65.8203 65.1406 65.875C65.0859 65.9271 65.056 65.9935 65.0508 66.0742V66.6133V66.7852C65.0378 66.9414 64.9531 67.026 64.7969 67.0391C64.724 67.0391 64.6602 67.0156 64.6055 66.9688C64.5534 66.9193 64.5273 66.8581 64.5273 66.7852V66.1172V65.9531C64.5352 65.8125 64.5846 65.6914 64.6758 65.5898C64.7669 65.4883 64.8724 65.4076 64.9922 65.3477C65.112 65.2852 65.237 65.2383 65.3672 65.207C65.5 65.1758 65.6341 65.1602 65.7695 65.1602ZM22.0938 68.625C22.1667 68.625 22.2292 68.6497 22.2812 68.6992C22.3333 68.7461 22.3607 68.806 22.3633 68.8789V69.2188H23.6914C23.7643 69.2188 23.8268 69.2435 23.8789 69.293C23.9284 69.3451 23.9531 69.4076 23.9531 69.4805C23.9531 69.5534 23.9271 69.6159 23.875 69.668C23.8255 69.7174 23.7643 69.7422 23.6914 69.7422H22.3633V69.8203C22.3607 69.9271 22.3672 70.026 22.3828 70.1172C22.401 70.2057 22.4427 70.2852 22.5078 70.3555C22.5729 70.4258 22.6549 70.4635 22.7539 70.4688H23.707C23.7799 70.4714 23.8398 70.4987 23.8867 70.5508C23.9362 70.6029 23.9609 70.6654 23.9609 70.7383C23.9583 70.8086 23.9323 70.8685 23.8828 70.918C23.8359 70.9648 23.7773 70.9896 23.707 70.9922H22.6211C22.4388 70.9818 22.2878 70.9206 22.168 70.8086C22.0508 70.694 21.9661 70.5547 21.9141 70.3906C21.8646 70.2266 21.8385 70.0521 21.8359 69.8672V69.7422H21.3867C21.3138 69.7422 21.2526 69.7161 21.2031 69.6641C21.151 69.6146 21.125 69.5534 21.125 69.4805C21.125 69.4076 21.1497 69.3464 21.1992 69.2969C21.2513 69.2448 21.3138 69.2188 21.3867 69.2188H21.8359V68.8789C21.8385 68.8086 21.8646 68.75 21.9141 68.7031C21.9635 68.6536 22.0234 68.6276 22.0938 68.625ZM24.6055 68.625C24.6758 68.6276 24.7357 68.6536 24.7852 68.7031C24.8346 68.75 24.8607 68.8086 24.8633 68.8789V69.2188H26.0742C26.2565 69.2214 26.4062 69.2734 26.5234 69.375C26.6432 69.474 26.7279 69.5859 26.7773 69.7109C26.8294 69.8385 26.8555 69.9701 26.8555 70.1055H26.8594V70.7852C26.8594 70.8581 26.832 70.9193 26.7773 70.9688C26.7253 71.0156 26.6628 71.0391 26.5898 71.0391C26.4336 71.026 26.3477 70.9414 26.332 70.7852V70.1016C26.332 70.0521 26.3216 70 26.3008 69.9453C26.2826 69.8906 26.2552 69.8438 26.2188 69.8047C26.1823 69.763 26.1393 69.7422 26.0898 69.7422H24.8633V70.793C24.8477 70.9492 24.7617 71.0339 24.6055 71.0469C24.5326 71.0469 24.4688 71.0234 24.4141 70.9766C24.362 70.9271 24.3359 70.8659 24.3359 70.793V68.8789C24.3385 68.806 24.3659 68.7461 24.418 68.6992C24.4701 68.6497 24.5326 68.625 24.6055 68.625ZM28.1523 70.9922C27.9232 70.9844 27.75 70.931 27.6328 70.832C27.5156 70.7305 27.431 70.6172 27.3789 70.4922C27.3268 70.3646 27.3008 70.2357 27.3008 70.1055C27.3008 69.9701 27.3255 69.8398 27.375 69.7148C27.4271 69.5872 27.5117 69.474 27.6289 69.375C27.7487 69.2734 27.8997 69.2214 28.082 69.2188H29.5664C29.6393 69.2188 29.7005 69.2435 29.75 69.293C29.8021 69.3398 29.8281 69.3971 29.8281 69.4648C29.8281 69.5352 29.8021 69.5951 29.75 69.6445C29.7005 69.6914 29.6393 69.7148 29.5664 69.7148H28.1055C28.0482 69.7148 27.9974 69.7344 27.9531 69.7734C27.9115 69.8125 27.8802 69.8633 27.8594 69.9258C27.8411 69.9883 27.832 70.0495 27.832 70.1094C27.832 70.1745 27.8411 70.2383 27.8594 70.3008C27.8802 70.3633 27.9115 70.4141 27.9531 70.4531C27.9974 70.4896 28.0482 70.5091 28.1055 70.5117H29.5664C29.6393 70.5117 29.7005 70.5352 29.75 70.582C29.8021 70.6289 29.8281 70.6849 29.8281 70.75C29.8281 70.8177 29.8021 70.875 29.75 70.9219C29.7005 70.9688 29.6393 70.9922 29.5664 70.9922H28.1523ZM29.7812 70.0977C29.7812 70.1471 29.7591 70.1901 29.7148 70.2266C29.6758 70.2604 29.6263 70.2773 29.5664 70.2773H28.2891C28.2292 70.2773 28.1784 70.2604 28.1367 70.2266C28.0951 70.1901 28.0742 70.1471 28.0742 70.0977C28.0742 70.0508 28.0951 70.0091 28.1367 69.9727C28.1784 69.9388 28.2292 69.9219 28.2891 69.9219H29.5664C29.6263 69.9219 29.6771 69.9401 29.7188 69.9766C29.7604 70.0104 29.7812 70.0508 29.7812 70.0977ZM33.1719 71.0391C33.1016 71.0365 33.0417 71.0117 32.9922 70.9648C32.9427 70.9154 32.9167 70.8555 32.9141 70.7852V70.2578H32.4648C32.3919 70.2578 32.3294 70.2331 32.2773 70.1836C32.2279 70.1315 32.2031 70.069 32.2031 69.9961C32.2031 69.9232 32.2292 69.862 32.2812 69.8125C32.3307 69.7604 32.3919 69.7344 32.4648 69.7344H32.9141C32.9219 69.5807 32.9479 69.4323 32.9922 69.2891C33.0443 69.125 33.1289 68.987 33.2461 68.875C33.3659 68.7604 33.5169 68.6979 33.6992 68.6875H34.7852C34.8555 68.6901 34.9141 68.7161 34.9609 68.7656C35.0104 68.8125 35.0365 68.8711 35.0391 68.9414C35.0391 69.0143 35.0143 69.0768 34.9648 69.1289C34.918 69.181 34.8581 69.2083 34.7852 69.2109H33.832C33.7331 69.2161 33.651 69.2539 33.5859 69.3242C33.5208 69.3945 33.4805 69.474 33.4648 69.5625C33.4518 69.6198 33.444 69.6771 33.4414 69.7344H34.7695C34.8424 69.7344 34.9036 69.7604 34.9531 69.8125C35.0052 69.862 35.0312 69.9232 35.0312 69.9961C35.0312 70.069 35.0065 70.1315 34.957 70.1836C34.9049 70.2331 34.8424 70.2578 34.7695 70.2578H33.4414V70.7852C33.4388 70.8581 33.4115 70.9193 33.3594 70.9688C33.3073 71.0156 33.2448 71.0391 33.1719 71.0391ZM35.5273 69.7109C35.5768 69.5859 35.6602 69.474 35.7773 69.375C35.8971 69.2734 36.0482 69.2214 36.2305 69.2188H37.6992C37.7721 69.2188 37.8333 69.2448 37.8828 69.2969C37.9349 69.3464 37.9609 69.4076 37.9609 69.4805C37.9609 69.5534 37.9349 69.6159 37.8828 69.668C37.8333 69.7174 37.7721 69.7422 37.6992 69.7422H36.2148C36.1654 69.7422 36.1224 69.763 36.0859 69.8047C36.0495 69.8438 36.0208 69.8906 36 69.9453C35.9818 70 35.9727 70.0521 35.9727 70.1016V70.7852C35.957 70.9414 35.8711 71.026 35.7148 71.0391C35.6419 71.0391 35.5781 71.0156 35.5234 70.9688C35.4714 70.9193 35.4453 70.8581 35.4453 70.7852V70.1055H35.4492C35.4492 69.9701 35.4753 69.8385 35.5273 69.7109ZM38.6172 69.1797C38.6875 69.1823 38.7474 69.2083 38.7969 69.2578C38.8464 69.3047 38.8724 69.3633 38.875 69.4336V70.7852C38.8594 70.9414 38.7734 71.026 38.6172 71.0391C38.5443 71.0391 38.4805 71.0156 38.4258 70.9688C38.3737 70.9193 38.3477 70.8581 38.3477 70.7852V69.4336C38.3503 69.3607 38.3776 69.3008 38.4297 69.2539C38.4818 69.2044 38.5443 69.1797 38.6172 69.1797ZM38.2891 68.6719C38.2891 68.599 38.3203 68.5365 38.3828 68.4844C38.4453 68.4323 38.5208 68.4062 38.6094 68.4062C38.6979 68.4062 38.7734 68.4323 38.8359 68.4844C38.8984 68.5365 38.9297 68.599 38.9297 68.6719C38.9297 68.7474 38.8984 68.8112 38.8359 68.8633C38.7734 68.9154 38.6979 68.9414 38.6094 68.9414C38.5208 68.9414 38.4453 68.9154 38.3828 68.8633C38.3203 68.8112 38.2891 68.7474 38.2891 68.6719ZM40.1523 70.9922C39.9232 70.9844 39.75 70.931 39.6328 70.832C39.5156 70.7305 39.431 70.6172 39.3789 70.4922C39.3268 70.3646 39.3008 70.2357 39.3008 70.1055C39.3008 69.9701 39.3255 69.8398 39.375 69.7148C39.4271 69.5872 39.5117 69.474 39.6289 69.375C39.7487 69.2734 39.8997 69.2214 40.082 69.2188H41.5664C41.6393 69.2188 41.7005 69.2435 41.75 69.293C41.8021 69.3398 41.8281 69.3971 41.8281 69.4648C41.8281 69.5352 41.8021 69.5951 41.75 69.6445C41.7005 69.6914 41.6393 69.7148 41.5664 69.7148H40.1055C40.0482 69.7148 39.9974 69.7344 39.9531 69.7734C39.9115 69.8125 39.8802 69.8633 39.8594 69.9258C39.8411 69.9883 39.832 70.0495 39.832 70.1094C39.832 70.1745 39.8411 70.2383 39.8594 70.3008C39.8802 70.3633 39.9115 70.4141 39.9531 70.4531C39.9974 70.4896 40.0482 70.5091 40.1055 70.5117H41.5664C41.6393 70.5117 41.7005 70.5352 41.75 70.582C41.8021 70.6289 41.8281 70.6849 41.8281 70.75C41.8281 70.8177 41.8021 70.875 41.75 70.9219C41.7005 70.9688 41.6393 70.9922 41.5664 70.9922H40.1523ZM41.7812 70.0977C41.7812 70.1471 41.7591 70.1901 41.7148 70.2266C41.6758 70.2604 41.6263 70.2773 41.5664 70.2773H40.2891C40.2292 70.2773 40.1784 70.2604 40.1367 70.2266C40.0951 70.1901 40.0742 70.1471 40.0742 70.0977C40.0742 70.0508 40.0951 70.0091 40.1367 69.9727C40.1784 69.9388 40.2292 69.9219 40.2891 69.9219H41.5664C41.6263 69.9219 41.6771 69.9401 41.7188 69.9766C41.7604 70.0104 41.7812 70.0508 41.7812 70.0977ZM43.5234 69.1602C43.6589 69.1602 43.7917 69.1758 43.9219 69.207C44.0547 69.2383 44.181 69.2852 44.3008 69.3477C44.4206 69.4076 44.526 69.4883 44.6172 69.5898C44.7109 69.6914 44.7617 69.8125 44.7695 69.9531V70.1172V70.7852C44.7539 70.9414 44.668 71.026 44.5117 71.0391C44.4388 71.0391 44.375 71.0156 44.3203 70.9688C44.2682 70.9193 44.2422 70.8581 44.2422 70.7852V70.6133V70.0742C44.237 69.9935 44.2057 69.9271 44.1484 69.875C44.0938 69.8203 44.0312 69.7773 43.9609 69.7461C43.8932 69.7148 43.8216 69.6914 43.7461 69.6758C43.6732 69.6602 43.599 69.6523 43.5234 69.6523C43.4479 69.6523 43.3724 69.6602 43.2969 69.6758C43.224 69.6914 43.1523 69.7148 43.082 69.7461C43.0143 69.7773 42.9518 69.8203 42.8945 69.875C42.8398 69.9271 42.8099 69.9935 42.8047 70.0742V70.6133V70.7852C42.7917 70.9414 42.707 71.026 42.5508 71.0391C42.4779 71.0391 42.4141 71.0156 42.3594 70.9688C42.3073 70.9193 42.2812 70.8581 42.2812 70.7852V70.1172V69.9531C42.2891 69.8125 42.3385 69.6914 42.4297 69.5898C42.5208 69.4883 42.6263 69.4076 42.7461 69.3477C42.8659 69.2852 42.9909 69.2383 43.1211 69.207C43.2539 69.1758 43.388 69.1602 43.5234 69.1602ZM47.4414 68.8789C47.457 68.7227 47.543 68.638 47.6992 68.625C47.7721 68.625 47.8346 68.6497 47.8867 68.6992C47.9414 68.7461 47.9688 68.806 47.9688 68.8789V70.7383C47.9661 70.8112 47.9388 70.8724 47.8867 70.9219C47.8346 70.9688 47.7721 70.9922 47.6992 70.9922H46.0586C45.8294 70.9844 45.6562 70.931 45.5391 70.832C45.4219 70.7305 45.3372 70.6172 45.2852 70.4922C45.2331 70.3646 45.207 70.2357 45.207 70.1055C45.207 69.9701 45.2318 69.8398 45.2812 69.7148C45.3333 69.5872 45.418 69.474 45.5352 69.375C45.6549 69.2734 45.806 69.2214 45.9883 69.2188H46.9727C47.0456 69.2188 47.1068 69.2448 47.1562 69.2969C47.2083 69.3464 47.2344 69.4076 47.2344 69.4805C47.2344 69.5534 47.2083 69.6159 47.1562 69.668C47.1068 69.7174 47.0456 69.7422 46.9727 69.7422H45.9727C45.9232 69.7422 45.8802 69.763 45.8438 69.8047C45.8073 69.8438 45.7799 69.8906 45.7617 69.9453C45.7461 69.9974 45.7383 70.0495 45.7383 70.1016C45.7383 70.1562 45.7461 70.2109 45.7617 70.2656C45.7799 70.3177 45.8073 70.3646 45.8438 70.4062C45.8802 70.4453 45.9232 70.4661 45.9727 70.4688H47.3398C47.4076 70.4661 47.4414 70.4323 47.4414 70.3672V68.8789ZM50.9648 69.4453C50.9648 69.5104 50.9388 69.5651 50.8867 69.6094C50.8372 69.651 50.776 69.6719 50.7031 69.6719H49.0508C49.0169 69.6719 48.9896 69.6784 48.9688 69.6914C48.9479 69.7044 48.9323 69.7188 48.9219 69.7344C48.9115 69.7474 48.9062 69.7591 48.9062 69.7695C48.9062 69.7826 48.9115 69.7969 48.9219 69.8125C48.9323 69.8255 48.9479 69.8385 48.9688 69.8516C48.9896 69.862 49.0169 69.8685 49.0508 69.8711H50.3281C50.4922 69.8737 50.6276 69.9062 50.7344 69.9688C50.8411 70.0286 50.9167 70.1003 50.9609 70.1836C51.0078 70.2643 51.0312 70.3464 51.0312 70.4297C51.0312 70.5104 51.0078 70.5924 50.9609 70.6758C50.9141 70.7565 50.8372 70.8281 50.7305 70.8906C50.6263 70.9505 50.4922 70.9805 50.3281 70.9805C50.2995 70.9831 50.2786 70.9844 50.2656 70.9844H48.75C48.6771 70.9844 48.6146 70.9635 48.5625 70.9219C48.513 70.8776 48.4883 70.8242 48.4883 70.7617C48.4883 70.6966 48.5143 70.6419 48.5664 70.5977C48.6159 70.556 48.6771 70.5352 48.75 70.5352H50.3594C50.3984 70.5378 50.4297 70.5326 50.4531 70.5195C50.4792 70.5065 50.4987 70.4922 50.5117 70.4766C50.5247 70.4609 50.5312 70.4453 50.5312 70.4297C50.5312 70.4219 50.5247 70.4089 50.5117 70.3906C50.4987 70.3698 50.4792 70.3542 50.4531 70.3438C50.4297 70.3307 50.3984 70.3229 50.3594 70.3203H49.0781C48.9271 70.3177 48.8021 70.2865 48.7031 70.2266C48.6042 70.1641 48.5339 70.0924 48.4922 70.0117C48.4505 69.931 48.4297 69.8503 48.4297 69.7695C48.4297 69.6888 48.4505 69.6094 48.4922 69.5312C48.5365 69.4505 48.6068 69.3815 48.7031 69.3242C48.8021 69.2643 48.9271 69.2318 49.0781 69.2266C49.1042 69.224 49.1237 69.2227 49.1367 69.2227H50.7031C50.776 69.2227 50.8372 69.2448 50.8867 69.2891C50.9388 69.3307 50.9648 69.3828 50.9648 69.4453ZM54.293 69.1602C54.3841 69.1602 54.4727 69.1758 54.5586 69.207C54.6471 69.2383 54.7318 69.2839 54.8125 69.3438C54.8255 69.3568 54.8398 69.3698 54.8555 69.3828C54.8685 69.3698 54.8828 69.3568 54.8984 69.3438C54.9792 69.2839 55.0625 69.2383 55.1484 69.207C55.237 69.1758 55.3255 69.1602 55.4141 69.1602C55.5052 69.1602 55.5938 69.1758 55.6797 69.207C55.7682 69.2383 55.8516 69.2852 55.9297 69.3477C56.0104 69.4076 56.0807 69.4883 56.1406 69.5898C56.2031 69.6914 56.2344 69.8125 56.2344 69.9531V70.7852C56.2188 70.9414 56.1328 71.026 55.9766 71.0391C55.9036 71.0391 55.8398 71.0156 55.7852 70.9688C55.7331 70.9193 55.707 70.8581 55.707 70.7852V69.9844C55.707 69.9219 55.6953 69.8698 55.6719 69.8281C55.6484 69.7839 55.6224 69.75 55.5938 69.7266C55.5651 69.7005 55.5352 69.6823 55.5039 69.6719C55.4727 69.6589 55.4414 69.6523 55.4102 69.6523C55.3789 69.6523 55.3477 69.6589 55.3164 69.6719C55.2878 69.6823 55.2591 69.7005 55.2305 69.7266C55.2018 69.75 55.1758 69.7839 55.1523 69.8281C55.1289 69.8698 55.1159 69.9219 55.1133 69.9844V70.7852C55.0977 70.9414 55.0117 71.026 54.8555 71.0391C54.7826 71.0391 54.7188 71.0156 54.6641 70.9688C54.612 70.9193 54.5859 70.8581 54.5859 70.7852V69.9844C54.5859 69.9219 54.5742 69.8698 54.5508 69.8281C54.5273 69.7839 54.5013 69.75 54.4727 69.7266C54.444 69.7005 54.4141 69.6823 54.3828 69.6719C54.3516 69.6589 54.3203 69.6523 54.2891 69.6523C54.2578 69.6523 54.2266 69.6589 54.1953 69.6719C54.1667 69.6823 54.138 69.7005 54.1094 69.7266C54.0807 69.75 54.0547 69.7839 54.0312 69.8281C54.0078 69.8698 53.9948 69.9219 53.9922 69.9844V70.7852C53.9792 70.9414 53.8945 71.026 53.7383 71.0391C53.6654 71.0391 53.6016 71.0156 53.5469 70.9688C53.4948 70.9193 53.4688 70.8581 53.4688 70.7852V69.9531C53.474 69.8125 53.5065 69.6914 53.5664 69.5898C53.6263 69.4883 53.6966 69.4076 53.7773 69.3477C53.8581 69.2852 53.9414 69.2383 54.0273 69.207C54.1159 69.1758 54.2044 69.1602 54.293 69.1602ZM57.5273 70.9922C57.2982 70.9844 57.125 70.931 57.0078 70.832C56.8906 70.7305 56.806 70.6172 56.7539 70.4922C56.7018 70.3646 56.6758 70.2357 56.6758 70.1055C56.6758 69.9701 56.7005 69.8398 56.75 69.7148C56.8021 69.5872 56.8867 69.474 57.0039 69.375C57.1237 69.2734 57.2747 69.2214 57.457 69.2188H58.7227C58.9049 69.2214 59.0547 69.2734 59.1719 69.375C59.2917 69.474 59.3763 69.5872 59.4258 69.7148C59.4779 69.8398 59.5039 69.9701 59.5039 70.1055C59.5039 70.2357 59.4779 70.3646 59.4258 70.4922C59.3737 70.6172 59.2891 70.7305 59.1719 70.832C59.0547 70.931 58.8815 70.9844 58.6523 70.9922H57.5273ZM57.4414 69.7422C57.3919 69.7422 57.349 69.763 57.3125 69.8047C57.276 69.8438 57.2487 69.8906 57.2305 69.9453C57.2148 69.9974 57.207 70.0495 57.207 70.1016C57.207 70.1562 57.2148 70.2109 57.2305 70.2656C57.2487 70.3177 57.276 70.3646 57.3125 70.4062C57.349 70.4453 57.3919 70.4661 57.4414 70.4688H58.7383C58.7878 70.4661 58.8307 70.4453 58.8672 70.4062C58.9036 70.3646 58.9297 70.3177 58.9453 70.2656C58.9635 70.2109 58.9727 70.1562 58.9727 70.1016C58.9727 70.0495 58.9635 69.9974 58.9453 69.9453C58.9297 69.8906 58.9036 69.8438 58.8672 69.8047C58.8307 69.763 58.7878 69.7422 58.7383 69.7422H57.4414ZM62.1289 68.8789C62.1445 68.7227 62.2305 68.638 62.3867 68.625C62.4596 68.625 62.5221 68.6497 62.5742 68.6992C62.6289 68.7461 62.6562 68.806 62.6562 68.8789V70.7383C62.6536 70.8112 62.6263 70.8724 62.5742 70.9219C62.5221 70.9688 62.4596 70.9922 62.3867 70.9922H60.7461C60.5169 70.9844 60.3438 70.931 60.2266 70.832C60.1094 70.7305 60.0247 70.6172 59.9727 70.4922C59.9206 70.3646 59.8945 70.2357 59.8945 70.1055C59.8945 69.9701 59.9193 69.8398 59.9688 69.7148C60.0208 69.5872 60.1055 69.474 60.2227 69.375C60.3424 69.2734 60.4935 69.2214 60.6758 69.2188H61.6602C61.7331 69.2188 61.7943 69.2448 61.8438 69.2969C61.8958 69.3464 61.9219 69.4076 61.9219 69.4805C61.9219 69.5534 61.8958 69.6159 61.8438 69.668C61.7943 69.7174 61.7331 69.7422 61.6602 69.7422H60.6602C60.6107 69.7422 60.5677 69.763 60.5312 69.8047C60.4948 69.8438 60.4674 69.8906 60.4492 69.9453C60.4336 69.9974 60.4258 70.0495 60.4258 70.1016C60.4258 70.1562 60.4336 70.2109 60.4492 70.2656C60.4674 70.3177 60.4948 70.3646 60.5312 70.4062C60.5677 70.4453 60.6107 70.4661 60.6602 70.4688H62.0273C62.0951 70.4661 62.1289 70.4323 62.1289 70.3672V68.8789ZM63.9727 70.9922C63.7435 70.9844 63.5703 70.931 63.4531 70.832C63.3359 70.7305 63.2513 70.6172 63.1992 70.4922C63.1471 70.3646 63.1211 70.2357 63.1211 70.1055C63.1211 69.9701 63.1458 69.8398 63.1953 69.7148C63.2474 69.5872 63.332 69.474 63.4492 69.375C63.569 69.2734 63.7201 69.2214 63.9023 69.2188H65.3867C65.4596 69.2188 65.5208 69.2435 65.5703 69.293C65.6224 69.3398 65.6484 69.3971 65.6484 69.4648C65.6484 69.5352 65.6224 69.5951 65.5703 69.6445C65.5208 69.6914 65.4596 69.7148 65.3867 69.7148H63.9258C63.8685 69.7148 63.8177 69.7344 63.7734 69.7734C63.7318 69.8125 63.7005 69.8633 63.6797 69.9258C63.6615 69.9883 63.6523 70.0495 63.6523 70.1094C63.6523 70.1745 63.6615 70.2383 63.6797 70.3008C63.7005 70.3633 63.7318 70.4141 63.7734 70.4531C63.8177 70.4896 63.8685 70.5091 63.9258 70.5117H65.3867C65.4596 70.5117 65.5208 70.5352 65.5703 70.582C65.6224 70.6289 65.6484 70.6849 65.6484 70.75C65.6484 70.8177 65.6224 70.875 65.5703 70.9219C65.5208 70.9688 65.4596 70.9922 65.3867 70.9922H63.9727ZM65.6016 70.0977C65.6016 70.1471 65.5794 70.1901 65.5352 70.2266C65.4961 70.2604 65.4466 70.2773 65.3867 70.2773H64.1094C64.0495 70.2773 63.9987 70.2604 63.957 70.2266C63.9154 70.1901 63.8945 70.1471 63.8945 70.0977C63.8945 70.0508 63.9154 70.0091 63.957 69.9727C63.9987 69.9388 64.0495 69.9219 64.1094 69.9219H65.3867C65.4466 69.9219 65.4974 69.9401 65.5391 69.9766C65.5807 70.0104 65.6016 70.0508 65.6016 70.0977Z" fill="#537790"/>
</svg>
