<svg width="96" height="97" viewBox="0 0 96 97" fill="none" xmlns="http://www.w3.org/2000/svg">
<g clip-path="url(#clip0_64_1668)">
<rect width="96" height="97" rx="22" fill="#F4F4F4"/>
<path d="M9.40332 53.4824C9.36426 53.873 9.14941 54.0846 8.75879 54.1172C8.5765 54.1172 8.41699 54.0586 8.28027 53.9414C8.15007 53.8177 8.08496 53.6647 8.08496 53.4824V48.8535C8.09147 48.6712 8.15983 48.5215 8.29004 48.4043C8.42025 48.2806 8.5765 48.2188 8.75879 48.2188H9.2373H10.4385H12.8506C12.8896 48.2188 12.9287 48.222 12.9678 48.2285H13.0264C13.4821 48.2415 13.8564 48.3457 14.1494 48.541C14.4424 48.7363 14.654 48.9609 14.7842 49.2148C14.9144 49.4622 14.9795 49.7129 14.9795 49.9668C14.9795 50.2272 14.9144 50.4844 14.7842 50.7383C14.6605 50.9857 14.4489 51.207 14.1494 51.4023C13.8564 51.5977 13.4821 51.7018 13.0264 51.7148H11.3076C11.3597 52.0404 11.4671 52.2812 11.6299 52.4375C11.7861 52.5938 11.9847 52.6719 12.2256 52.6719H14.335C14.5173 52.6784 14.667 52.7467 14.7842 52.877C14.9079 53.0072 14.9697 53.1634 14.9697 53.3457C14.9632 53.5215 14.8981 53.6712 14.7744 53.7949C14.6572 53.9121 14.5107 53.974 14.335 53.9805H12.0498C11.568 53.987 11.1318 53.7982 10.7412 53.4141C10.3506 53.0299 10.113 52.5742 10.0283 52.0469C9.91113 51.4609 9.85254 51.1322 9.85254 51.0605C9.85254 50.8783 9.91439 50.7253 10.0381 50.6016C10.1683 50.4714 10.3245 50.4062 10.5068 50.4062H13.085C13.2087 50.3997 13.3096 50.3737 13.3877 50.3281C13.4723 50.276 13.5342 50.2207 13.5732 50.1621C13.6123 50.097 13.6318 50.0319 13.6318 49.9668C13.6318 49.9017 13.6123 49.8398 13.5732 49.7812C13.5342 49.7161 13.4723 49.6608 13.3877 49.6152C13.3096 49.5632 13.2087 49.5339 13.085 49.5273H10.4385H9.65723C9.48796 49.5339 9.40332 49.6185 9.40332 49.7812V53.4824ZM18.0557 53.9805C17.4827 53.9609 17.0498 53.8275 16.7568 53.5801C16.4639 53.3262 16.2523 53.043 16.1221 52.7305C15.9919 52.4115 15.9268 52.0892 15.9268 51.7637C15.9268 51.4251 15.9886 51.0996 16.1123 50.7871C16.2425 50.4681 16.4541 50.1849 16.7471 49.9375C17.0465 49.6836 17.4242 49.5534 17.8799 49.5469H21.0439C21.4997 49.5534 21.874 49.6836 22.167 49.9375C22.4665 50.1849 22.6781 50.4681 22.8018 50.7871C22.932 51.0996 22.9971 51.4251 22.9971 51.7637C22.9971 52.0892 22.932 52.4115 22.8018 52.7305C22.6715 53.043 22.46 53.3262 22.167 53.5801C21.874 53.8275 21.4411 53.9609 20.8682 53.9805H18.0557ZM17.8408 50.8555C17.7171 50.8555 17.6097 50.9076 17.5186 51.0117C17.4274 51.1094 17.359 51.2266 17.3135 51.3633C17.2744 51.4935 17.2549 51.6237 17.2549 51.7539C17.2549 51.8906 17.2744 52.0273 17.3135 52.1641C17.359 52.2943 17.4274 52.4115 17.5186 52.5156C17.6097 52.6133 17.7171 52.6654 17.8408 52.6719H21.083C21.2067 52.6654 21.3141 52.6133 21.4053 52.5156C21.4964 52.4115 21.5615 52.2943 21.6006 52.1641C21.6462 52.0273 21.6689 51.8906 21.6689 51.7539C21.6689 51.6237 21.6462 51.4935 21.6006 51.3633C21.5615 51.2266 21.4964 51.1094 21.4053 51.0117C21.3141 50.9076 21.2067 50.8555 21.083 50.8555H17.8408ZM29.5791 53.4629V51.1094C29.5791 50.9466 29.4945 50.862 29.3252 50.8555H25.9072C25.7835 50.862 25.6761 50.9173 25.585 51.0215C25.4938 51.1191 25.4255 51.2363 25.3799 51.373C25.3408 51.5033 25.3213 51.6367 25.3213 51.7734C25.3213 51.9036 25.3408 52.0371 25.3799 52.1738C25.4255 52.304 25.4938 52.4212 25.585 52.5254C25.6761 52.623 25.7835 52.6719 25.9072 52.6719H28.4072C28.5895 52.6719 28.7425 52.737 28.8662 52.8672C28.9964 52.9909 29.0615 53.1439 29.0615 53.3262C29.0615 53.5085 28.9964 53.6615 28.8662 53.7852C28.7425 53.9154 28.5895 53.9805 28.4072 53.9805H25.9463C25.4906 53.974 25.113 53.847 24.8135 53.5996C24.5205 53.3457 24.3089 53.0625 24.1787 52.75C24.055 52.431 23.9932 52.1022 23.9932 51.7637C23.9932 51.4382 24.0583 51.1191 24.1885 50.8066C24.3187 50.4876 24.5303 50.2044 24.8232 49.957C25.1162 49.7031 25.5492 49.5664 26.1221 49.5469H30.2236C30.4059 49.5469 30.5622 49.6087 30.6924 49.7324C30.8226 49.8496 30.891 49.9993 30.8975 50.1816V53.4629C30.8975 53.6452 30.8291 53.7982 30.6924 53.9219C30.5622 54.0391 30.4059 54.0977 30.2236 54.0977C29.833 54.0651 29.6182 53.8535 29.5791 53.4629ZM37.5967 48.6973C37.6357 48.3066 37.8506 48.0951 38.2412 48.0625C38.4235 48.0625 38.5798 48.1243 38.71 48.248C38.8467 48.3652 38.915 48.515 38.915 48.6973V53.3457C38.9085 53.528 38.8402 53.681 38.71 53.8047C38.5798 53.9219 38.4235 53.9805 38.2412 53.9805H34.1396C33.5667 53.9609 33.1338 53.8275 32.8408 53.5801C32.5479 53.3262 32.3363 53.043 32.2061 52.7305C32.0758 52.4115 32.0107 52.0892 32.0107 51.7637C32.0107 51.4251 32.0726 51.0996 32.1963 50.7871C32.3265 50.4681 32.5381 50.1849 32.8311 49.9375C33.1305 49.6836 33.5081 49.5534 33.9639 49.5469H36.4248C36.6071 49.5469 36.7601 49.612 36.8838 49.7422C37.014 49.8659 37.0791 50.0189 37.0791 50.2012C37.0791 50.3835 37.014 50.5397 36.8838 50.6699C36.7601 50.7936 36.6071 50.8555 36.4248 50.8555H33.9248C33.8011 50.8555 33.6937 50.9076 33.6025 51.0117C33.5114 51.1094 33.443 51.2266 33.3975 51.3633C33.3584 51.4935 33.3389 51.6237 33.3389 51.7539C33.3389 51.8906 33.3584 52.0273 33.3975 52.1641C33.443 52.2943 33.5114 52.4115 33.6025 52.5156C33.6937 52.6133 33.8011 52.6654 33.9248 52.6719H37.3428C37.512 52.6654 37.5967 52.5807 37.5967 52.418V48.6973ZM46.5225 53.4824C46.4834 53.873 46.2686 54.0846 45.8779 54.1172C45.6956 54.1172 45.5361 54.0586 45.3994 53.9414C45.2692 53.8177 45.2041 53.6647 45.2041 53.4824V48.8535C45.2106 48.6712 45.279 48.5215 45.4092 48.4043C45.5394 48.2806 45.6956 48.2188 45.8779 48.2188H46.3564H47.5576H49.9697C50.0088 48.2188 50.0479 48.222 50.0869 48.2285H50.1455C50.6012 48.2415 50.9756 48.3457 51.2686 48.541C51.5615 48.7363 51.7731 48.9609 51.9033 49.2148C52.0335 49.4622 52.0986 49.7129 52.0986 49.9668C52.0986 50.2272 52.0335 50.4844 51.9033 50.7383C51.7796 50.9857 51.568 51.207 51.2686 51.4023C50.9756 51.5977 50.6012 51.7018 50.1455 51.7148H48.4268C48.4788 52.0404 48.5863 52.2812 48.749 52.4375C48.9053 52.5938 49.1038 52.6719 49.3447 52.6719H51.4541C51.6364 52.6784 51.7861 52.7467 51.9033 52.877C52.027 53.0072 52.0889 53.1634 52.0889 53.3457C52.0824 53.5215 52.0173 53.6712 51.8936 53.7949C51.7764 53.9121 51.6299 53.974 51.4541 53.9805H49.1689C48.6872 53.987 48.251 53.7982 47.8604 53.4141C47.4697 53.0299 47.2321 52.5742 47.1475 52.0469C47.0303 51.4609 46.9717 51.1322 46.9717 51.0605C46.9717 50.8783 47.0335 50.7253 47.1572 50.6016C47.2874 50.4714 47.4437 50.4062 47.626 50.4062H50.2041C50.3278 50.3997 50.4287 50.3737 50.5068 50.3281C50.5915 50.276 50.6533 50.2207 50.6924 50.1621C50.7314 50.097 50.751 50.0319 50.751 49.9668C50.751 49.9017 50.7314 49.8398 50.6924 49.7812C50.6533 49.7161 50.5915 49.6608 50.5068 49.6152C50.4287 49.5632 50.3278 49.5339 50.2041 49.5273H47.5576H46.7764C46.6071 49.5339 46.5225 49.6185 46.5225 49.7812V53.4824ZM56.2686 54.1465C55.93 54.1465 55.5947 54.1074 55.2627 54.0293C54.9372 53.9512 54.6247 53.8372 54.3252 53.6875C54.0257 53.5312 53.762 53.3262 53.5342 53.0723C53.3063 52.8184 53.1826 52.5156 53.1631 52.1641V51.7539V50.084C53.1631 49.9017 53.2282 49.752 53.3584 49.6348C53.4951 49.5111 53.6546 49.4492 53.8369 49.4492C54.2275 49.4818 54.4391 49.6934 54.4717 50.084V50.5137V51.8613C54.4847 52.0632 54.5596 52.2324 54.6963 52.3691C54.8395 52.4993 54.9958 52.6035 55.165 52.6816C55.3408 52.7598 55.5199 52.8184 55.7021 52.8574C55.891 52.8965 56.0798 52.916 56.2686 52.916C56.4574 52.916 56.6429 52.8965 56.8252 52.8574C57.014 52.8184 57.193 52.7598 57.3623 52.6816C57.5381 52.6035 57.6943 52.4993 57.8311 52.3691C57.9743 52.2324 58.0524 52.0632 58.0654 51.8613V50.5137V50.084C58.0654 49.9017 58.1305 49.752 58.2607 49.6348C58.3975 49.5111 58.557 49.4492 58.7393 49.4492C59.1299 49.4818 59.3447 49.6934 59.3838 50.084V51.7539V52.1641C59.3643 52.5156 59.2373 52.8184 59.0029 53.0723C58.7751 53.3262 58.5114 53.5312 58.2119 53.6875C57.9124 53.8372 57.5967 53.9512 57.2646 54.0293C56.9391 54.1074 56.6071 54.1465 56.2686 54.1465ZM63.749 49.4004C64.0876 49.4004 64.4196 49.4395 64.7451 49.5176C65.0771 49.5957 65.3929 49.7129 65.6924 49.8691C65.9919 50.0189 66.2555 50.2207 66.4834 50.4746C66.7178 50.7285 66.8447 51.0312 66.8643 51.3828V51.793V53.4629C66.8252 53.8535 66.6104 54.0651 66.2197 54.0977C66.0374 54.0977 65.8779 54.0391 65.7412 53.9219C65.611 53.7982 65.5459 53.6452 65.5459 53.4629V53.0332V51.6855C65.5329 51.4837 65.4548 51.3177 65.3115 51.1875C65.1748 51.0508 65.0186 50.9434 64.8428 50.8652C64.6735 50.7871 64.4945 50.7285 64.3057 50.6895C64.1234 50.6504 63.9378 50.6309 63.749 50.6309C63.5602 50.6309 63.3714 50.6504 63.1826 50.6895C63.0003 50.7285 62.8213 50.7871 62.6455 50.8652C62.4762 50.9434 62.32 51.0508 62.1768 51.1875C62.04 51.3177 61.9652 51.4837 61.9521 51.6855V53.0332V53.4629C61.9196 53.8535 61.708 54.0651 61.3174 54.0977C61.1351 54.0977 60.9756 54.0391 60.8389 53.9219C60.7087 53.7982 60.6436 53.6452 60.6436 53.4629V51.793V51.3828C60.6631 51.0312 60.7868 50.7285 61.0146 50.4746C61.2425 50.2207 61.5062 50.0189 61.8057 49.8691C62.1051 49.7129 62.4176 49.5957 62.7432 49.5176C63.0752 49.4395 63.4105 49.4004 63.749 49.4004ZM71.2197 49.4004C71.5583 49.4004 71.8903 49.4395 72.2158 49.5176C72.5479 49.5957 72.8636 49.7129 73.1631 49.8691C73.4626 50.0189 73.7262 50.2207 73.9541 50.4746C74.1885 50.7285 74.3154 51.0312 74.335 51.3828V51.793V53.4629C74.2959 53.8535 74.0811 54.0651 73.6904 54.0977C73.5081 54.0977 73.3486 54.0391 73.2119 53.9219C73.0817 53.7982 73.0166 53.6452 73.0166 53.4629V53.0332V51.6855C73.0036 51.4837 72.9255 51.3177 72.7822 51.1875C72.6455 51.0508 72.4893 50.9434 72.3135 50.8652C72.1442 50.7871 71.9652 50.7285 71.7764 50.6895C71.5941 50.6504 71.4085 50.6309 71.2197 50.6309C71.0309 50.6309 70.8421 50.6504 70.6533 50.6895C70.471 50.7285 70.292 50.7871 70.1162 50.8652C69.9469 50.9434 69.7907 51.0508 69.6475 51.1875C69.5107 51.3177 69.4359 51.4837 69.4229 51.6855V53.0332V53.4629C69.3903 53.8535 69.1787 54.0651 68.7881 54.0977C68.6058 54.0977 68.4463 54.0391 68.3096 53.9219C68.1794 53.7982 68.1143 53.6452 68.1143 53.4629V51.793V51.3828C68.1338 51.0312 68.2575 50.7285 68.4854 50.4746C68.7132 50.2207 68.9769 50.0189 69.2764 49.8691C69.5758 49.7129 69.8883 49.5957 70.2139 49.5176C70.5459 49.4395 70.8812 49.4004 71.2197 49.4004ZM77.5771 53.9805C77.0042 53.9609 76.5713 53.8275 76.2783 53.5801C75.9854 53.3262 75.7738 53.043 75.6436 52.7305C75.5133 52.4115 75.4482 52.0892 75.4482 51.7637C75.4482 51.4251 75.5101 51.0996 75.6338 50.7871C75.764 50.4681 75.9756 50.1849 76.2686 49.9375C76.568 49.6836 76.9456 49.5534 77.4014 49.5469H81.1123C81.2946 49.5469 81.4476 49.6087 81.5713 49.7324C81.7015 49.8496 81.7666 49.9928 81.7666 50.1621C81.7666 50.3379 81.7015 50.4876 81.5713 50.6113C81.4476 50.7285 81.2946 50.7871 81.1123 50.7871H77.46C77.3167 50.7871 77.1898 50.8359 77.0791 50.9336C76.9749 51.0312 76.8968 51.1582 76.8447 51.3145C76.7992 51.4707 76.7764 51.6237 76.7764 51.7734C76.7764 51.9362 76.7992 52.0957 76.8447 52.252C76.8968 52.4082 76.9749 52.5352 77.0791 52.6328C77.1898 52.724 77.3167 52.7728 77.46 52.7793H81.1123C81.2946 52.7793 81.4476 52.8379 81.5713 52.9551C81.7015 53.0723 81.7666 53.2122 81.7666 53.375C81.7666 53.5443 81.7015 53.6875 81.5713 53.8047C81.4476 53.9219 81.2946 53.9805 81.1123 53.9805H77.5771ZM81.6494 51.7441C81.6494 51.8678 81.5941 51.9753 81.4834 52.0664C81.3857 52.151 81.262 52.1934 81.1123 52.1934H77.9189C77.7692 52.1934 77.6423 52.151 77.5381 52.0664C77.4339 51.9753 77.3818 51.8678 77.3818 51.7441C77.3818 51.627 77.4339 51.5228 77.5381 51.4316C77.6423 51.347 77.7692 51.3047 77.9189 51.3047H81.1123C81.262 51.3047 81.389 51.3503 81.4932 51.4414C81.5973 51.526 81.6494 51.627 81.6494 51.7441ZM83.0947 50.7773C83.2184 50.4648 83.4268 50.1849 83.7197 49.9375C84.0192 49.6836 84.3968 49.5534 84.8525 49.5469H88.5244C88.7067 49.5469 88.8597 49.612 88.9834 49.7422C89.1136 49.8659 89.1787 50.0189 89.1787 50.2012C89.1787 50.3835 89.1136 50.5397 88.9834 50.6699C88.8597 50.7936 88.7067 50.8555 88.5244 50.8555H84.8135C84.6898 50.8555 84.5824 50.9076 84.4912 51.0117C84.4001 51.1094 84.3285 51.2266 84.2764 51.3633C84.2308 51.5 84.208 51.6302 84.208 51.7539V53.4629C84.1689 53.8535 83.9541 54.0651 83.5635 54.0977C83.3812 54.0977 83.2217 54.0391 83.085 53.9219C82.9548 53.7982 82.8896 53.6452 82.8896 53.4629V51.7637H82.8994C82.8994 51.4251 82.9645 51.0964 83.0947 50.7773Z" fill="#72757A"/>
<path d="M21.5078 60.625C21.5807 60.625 21.6432 60.6497 21.6953 60.6992C21.7474 60.7461 21.7747 60.806 21.7773 60.8789V60.9531C21.7747 61.0599 21.7812 61.1589 21.7969 61.25C21.8151 61.3385 21.8568 61.418 21.9219 61.4883C21.987 61.5586 22.069 61.5964 22.168 61.6016H23.2656V60.8867C23.2656 60.8138 23.2917 60.7539 23.3438 60.707C23.3984 60.6576 23.4622 60.6328 23.5352 60.6328C23.6914 60.6458 23.7773 60.7305 23.793 60.8867V61.793C23.793 62.0013 23.7643 62.1979 23.707 62.3828C23.6549 62.5469 23.569 62.6862 23.4492 62.8008C23.332 62.9128 23.1823 62.974 23 62.9844H21.5938C21.5234 62.9818 21.4635 62.957 21.4141 62.9102C21.3672 62.8607 21.3424 62.8008 21.3398 62.7305C21.3398 62.6576 21.3633 62.5951 21.4102 62.543C21.4596 62.4909 21.5208 62.4635 21.5938 62.4609H22.8672C22.9661 62.4557 23.0482 62.418 23.1133 62.3477C23.1732 62.2826 23.2135 62.2083 23.2344 62.125H22.0352C21.8529 62.1146 21.7018 62.0534 21.582 61.9414C21.4648 61.8268 21.3802 61.6875 21.3281 61.5234C21.2786 61.3594 21.2526 61.1849 21.25 61V60.8789C21.2526 60.8086 21.2786 60.75 21.3281 60.7031C21.3776 60.6536 21.4375 60.6276 21.5078 60.625ZM25.1133 62.9922C24.8841 62.9844 24.7109 62.931 24.5938 62.832C24.4766 62.7305 24.3919 62.6172 24.3398 62.4922C24.2878 62.3646 24.2617 62.2357 24.2617 62.1055C24.2617 61.9701 24.2865 61.8398 24.3359 61.7148C24.388 61.5872 24.4727 61.474 24.5898 61.375C24.7096 61.2734 24.8607 61.2214 25.043 61.2188H26.3086C26.4909 61.2214 26.6406 61.2734 26.7578 61.375C26.8776 61.474 26.9622 61.5872 27.0117 61.7148C27.0638 61.8398 27.0898 61.9701 27.0898 62.1055C27.0898 62.2357 27.0638 62.3646 27.0117 62.4922C26.9596 62.6172 26.875 62.7305 26.7578 62.832C26.6406 62.931 26.4674 62.9844 26.2383 62.9922H25.1133ZM25.0273 61.7422C24.9779 61.7422 24.9349 61.763 24.8984 61.8047C24.862 61.8438 24.8346 61.8906 24.8164 61.9453C24.8008 61.9974 24.793 62.0495 24.793 62.1016C24.793 62.1562 24.8008 62.2109 24.8164 62.2656C24.8346 62.3177 24.862 62.3646 24.8984 62.4062C24.9349 62.4453 24.9779 62.4661 25.0273 62.4688H26.3242C26.3737 62.4661 26.4167 62.4453 26.4531 62.4062C26.4896 62.3646 26.5156 62.3177 26.5312 62.2656C26.5495 62.2109 26.5586 62.1562 26.5586 62.1016C26.5586 62.0495 26.5495 61.9974 26.5312 61.9453C26.5156 61.8906 26.4896 61.8438 26.4531 61.8047C26.4167 61.763 26.3737 61.7422 26.3242 61.7422H25.0273ZM28.7852 63.0586C28.6497 63.0586 28.5156 63.043 28.3828 63.0117C28.2526 62.9805 28.1276 62.9349 28.0078 62.875C27.888 62.8125 27.7826 62.7305 27.6914 62.6289C27.6003 62.5273 27.5508 62.4062 27.543 62.2656V62.1016V61.4336C27.543 61.3607 27.569 61.3008 27.6211 61.2539C27.6758 61.2044 27.7396 61.1797 27.8125 61.1797C27.9688 61.1927 28.0534 61.2773 28.0664 61.4336V61.6055V62.1445C28.0716 62.2253 28.1016 62.293 28.1562 62.3477C28.2135 62.3997 28.276 62.4414 28.3438 62.4727C28.4141 62.5039 28.4857 62.5273 28.5586 62.543C28.6341 62.5586 28.7096 62.5664 28.7852 62.5664C28.8607 62.5664 28.9349 62.5586 29.0078 62.543C29.0833 62.5273 29.1549 62.5039 29.2227 62.4727C29.293 62.4414 29.3555 62.3997 29.4102 62.3477C29.4674 62.293 29.4987 62.2253 29.5039 62.1445V61.6055V61.4336C29.5039 61.3607 29.5299 61.3008 29.582 61.2539C29.6367 61.2044 29.7005 61.1797 29.7734 61.1797C29.9297 61.1927 30.0156 61.2773 30.0312 61.4336V62.1016V62.2656C30.0234 62.4062 29.9727 62.5273 29.8789 62.6289C29.7878 62.7305 29.6823 62.8125 29.5625 62.875C29.4427 62.9349 29.3164 62.9805 29.1836 63.0117C29.0534 63.043 28.9206 63.0586 28.7852 63.0586ZM33.3242 62.9922C33.0951 62.9844 32.9219 62.931 32.8047 62.832C32.6875 62.7305 32.6029 62.6172 32.5508 62.4922C32.4987 62.3646 32.4727 62.2357 32.4727 62.1055C32.4727 61.9701 32.4974 61.8398 32.5469 61.7148C32.599 61.5872 32.6836 61.474 32.8008 61.375C32.9206 61.2734 33.0716 61.2214 33.2539 61.2188H34.7383C34.8112 61.2188 34.8724 61.2448 34.9219 61.2969C34.974 61.3464 35 61.4076 35 61.4805C35 61.5534 34.974 61.6159 34.9219 61.668C34.8724 61.7174 34.8112 61.7422 34.7383 61.7422H33.2383C33.1888 61.7422 33.1458 61.763 33.1094 61.8047C33.0729 61.8438 33.0456 61.8906 33.0273 61.9453C33.0117 61.9974 33.0039 62.0495 33.0039 62.1016C33.0039 62.1562 33.0117 62.2109 33.0273 62.2656C33.0456 62.3177 33.0729 62.3646 33.1094 62.4062C33.1458 62.4453 33.1888 62.4661 33.2383 62.4688H34.7383C34.8112 62.4688 34.8724 62.4948 34.9219 62.5469C34.974 62.5964 35 62.6576 35 62.7305C35 62.8034 34.974 62.8646 34.9219 62.9141C34.8724 62.9661 34.8112 62.9922 34.7383 62.9922H33.3242ZM37.5938 62.7852V61.8438C37.5938 61.7786 37.5599 61.7448 37.4922 61.7422H36.125C36.0755 61.7448 36.0326 61.7669 35.9961 61.8086C35.9596 61.8477 35.9323 61.8945 35.9141 61.9492C35.8984 62.0013 35.8906 62.0547 35.8906 62.1094C35.8906 62.1615 35.8984 62.2148 35.9141 62.2695C35.9323 62.3216 35.9596 62.3685 35.9961 62.4102C36.0326 62.4492 36.0755 62.4688 36.125 62.4688H37.125C37.1979 62.4688 37.2591 62.4948 37.3086 62.5469C37.3607 62.5964 37.3867 62.6576 37.3867 62.7305C37.3867 62.8034 37.3607 62.8646 37.3086 62.9141C37.2591 62.9661 37.1979 62.9922 37.125 62.9922H36.1406C35.9583 62.9896 35.8073 62.9388 35.6875 62.8398C35.5703 62.7383 35.4857 62.625 35.4336 62.5C35.3841 62.3724 35.3594 62.2409 35.3594 62.1055C35.3594 61.9753 35.3854 61.8477 35.4375 61.7227C35.4896 61.5951 35.5742 61.4818 35.6914 61.3828C35.8086 61.2812 35.9818 61.2266 36.2109 61.2188H37.8516C37.9245 61.2188 37.987 61.2435 38.0391 61.293C38.0911 61.3398 38.1185 61.3997 38.1211 61.4727V62.7852C38.1211 62.8581 38.0938 62.9193 38.0391 62.9688C37.987 63.0156 37.9245 63.0391 37.8516 63.0391C37.6953 63.026 37.6094 62.9414 37.5938 62.7852ZM39.8711 61.1602C40.0065 61.1602 40.1393 61.1758 40.2695 61.207C40.4023 61.2383 40.5286 61.2852 40.6484 61.3477C40.7682 61.4076 40.8737 61.4883 40.9648 61.5898C41.0586 61.6914 41.1094 61.8125 41.1172 61.9531V62.1172V62.7852C41.1016 62.9414 41.0156 63.026 40.8594 63.0391C40.7865 63.0391 40.7227 63.0156 40.668 62.9688C40.6159 62.9193 40.5898 62.8581 40.5898 62.7852V62.6133V62.0742C40.5846 61.9935 40.5534 61.9271 40.4961 61.875C40.4414 61.8203 40.3789 61.7773 40.3086 61.7461C40.2409 61.7148 40.1693 61.6914 40.0938 61.6758C40.0208 61.6602 39.9466 61.6523 39.8711 61.6523C39.7956 61.6523 39.7201 61.6602 39.6445 61.6758C39.5716 61.6914 39.5 61.7148 39.4297 61.7461C39.362 61.7773 39.2995 61.8203 39.2422 61.875C39.1875 61.9271 39.1576 61.9935 39.1523 62.0742V62.6133V62.7852C39.1393 62.9414 39.0547 63.026 38.8984 63.0391C38.8255 63.0391 38.7617 63.0156 38.707 62.9688C38.6549 62.9193 38.6289 62.8581 38.6289 62.7852V62.1172V61.9531C38.6367 61.8125 38.6862 61.6914 38.7773 61.5898C38.8685 61.4883 38.974 61.4076 39.0938 61.3477C39.2135 61.2852 39.3385 61.2383 39.4688 61.207C39.6016 61.1758 39.7357 61.1602 39.8711 61.1602ZM43.8828 60.625C43.9531 60.6276 44.013 60.6536 44.0625 60.7031C44.112 60.75 44.138 60.8086 44.1406 60.8789V62.793C44.125 62.9492 44.0391 63.0339 43.8828 63.0469C43.8099 63.0469 43.7461 63.0234 43.6914 62.9766C43.6393 62.9271 43.6133 62.8659 43.6133 62.793V60.8789C43.6159 60.806 43.6432 60.7461 43.6953 60.6992C43.7474 60.6497 43.8099 60.625 43.8828 60.625ZM45.4453 62.9922C45.2161 62.9844 45.043 62.931 44.9258 62.832C44.8086 62.7305 44.724 62.6172 44.6719 62.4922C44.6198 62.3646 44.5938 62.2357 44.5938 62.1055C44.5938 61.9701 44.6185 61.8398 44.668 61.7148C44.7201 61.5872 44.8047 61.474 44.9219 61.375C45.0417 61.2734 45.1927 61.2214 45.375 61.2188H46.6406C46.8229 61.2214 46.9727 61.2734 47.0898 61.375C47.2096 61.474 47.2943 61.5872 47.3438 61.7148C47.3958 61.8398 47.4219 61.9701 47.4219 62.1055C47.4219 62.2357 47.3958 62.3646 47.3438 62.4922C47.2917 62.6172 47.207 62.7305 47.0898 62.832C46.9727 62.931 46.7995 62.9844 46.5703 62.9922H45.4453ZM45.3594 61.7422C45.3099 61.7422 45.2669 61.763 45.2305 61.8047C45.194 61.8438 45.1667 61.8906 45.1484 61.9453C45.1328 61.9974 45.125 62.0495 45.125 62.1016C45.125 62.1562 45.1328 62.2109 45.1484 62.2656C45.1667 62.3177 45.194 62.3646 45.2305 62.4062C45.2669 62.4453 45.3099 62.4661 45.3594 62.4688H46.6562C46.7057 62.4661 46.7487 62.4453 46.7852 62.4062C46.8216 62.3646 46.8477 62.3177 46.8633 62.2656C46.8815 62.2109 46.8906 62.1562 46.8906 62.1016C46.8906 62.0495 46.8815 61.9974 46.8633 61.9453C46.8477 61.8906 46.8216 61.8438 46.7852 61.8047C46.7487 61.763 46.7057 61.7422 46.6562 61.7422H45.3594ZM48.6641 62.9922C48.4349 62.9844 48.2617 62.931 48.1445 62.832C48.0273 62.7305 47.9427 62.6172 47.8906 62.4922C47.8385 62.3646 47.8125 62.2357 47.8125 62.1055C47.8125 61.9701 47.8372 61.8398 47.8867 61.7148C47.9388 61.5872 48.0234 61.474 48.1406 61.375C48.2604 61.2734 48.4115 61.2214 48.5938 61.2188H50.0781C50.151 61.2188 50.2122 61.2448 50.2617 61.2969C50.3138 61.3464 50.3398 61.4076 50.3398 61.4805C50.3398 61.5534 50.3138 61.6159 50.2617 61.668C50.2122 61.7174 50.151 61.7422 50.0781 61.7422H48.5781C48.5286 61.7422 48.4857 61.763 48.4492 61.8047C48.4128 61.8438 48.3854 61.8906 48.3672 61.9453C48.3516 61.9974 48.3438 62.0495 48.3438 62.1016C48.3438 62.1562 48.3516 62.2109 48.3672 62.2656C48.3854 62.3177 48.4128 62.3646 48.4492 62.4062C48.4857 62.4453 48.5286 62.4661 48.5781 62.4688H50.0781C50.151 62.4688 50.2122 62.4948 50.2617 62.5469C50.3138 62.5964 50.3398 62.6576 50.3398 62.7305C50.3398 62.8034 50.3138 62.8646 50.2617 62.9141C50.2122 62.9661 50.151 62.9922 50.0781 62.9922H48.6641ZM51.0195 60.625C51.0898 60.6276 51.1497 60.6536 51.1992 60.7031C51.2487 60.75 51.2747 60.8086 51.2773 60.8789V62.793C51.2617 62.9492 51.1758 63.0339 51.0195 63.0469C50.9466 63.0469 50.8828 63.0234 50.8281 62.9766C50.776 62.9271 50.75 62.8659 50.75 62.793V60.8789C50.7526 60.806 50.7799 60.7461 50.832 60.6992C50.8841 60.6497 50.9466 60.625 51.0195 60.625ZM51.5156 61.7148C51.5911 61.5924 51.7357 61.5026 51.9492 61.4453L52.9531 61.1758C53.0234 61.1549 53.0898 61.1615 53.1523 61.1953C53.2174 61.2266 53.2604 61.2773 53.2812 61.3477C53.3047 61.4154 53.2995 61.4818 53.2656 61.5469C53.2344 61.6094 53.1836 61.6523 53.1133 61.6758L52.043 61.9531C51.9674 61.9818 51.931 62.0312 51.9336 62.1016C51.931 62.1719 51.9674 62.2214 52.043 62.25L53.1133 62.5273C53.1836 62.5508 53.2344 62.5951 53.2656 62.6602C53.2995 62.7227 53.3047 62.7878 53.2812 62.8555C53.2604 62.9258 53.2174 62.9766 53.1523 63.0078C53.0898 63.0417 53.0234 63.0482 52.9531 63.0273L51.9492 62.7578C51.7331 62.6979 51.5872 62.6068 51.5117 62.4844C51.4388 62.362 51.4023 62.2344 51.4023 62.1016C51.4023 61.9688 51.4401 61.8398 51.5156 61.7148ZM56.5508 60.625C56.6237 60.625 56.6862 60.6497 56.7383 60.6992C56.7904 60.7461 56.8177 60.806 56.8203 60.8789V61.2188H58.1484C58.2214 61.2188 58.2839 61.2435 58.3359 61.293C58.3854 61.3451 58.4102 61.4076 58.4102 61.4805C58.4102 61.5534 58.3841 61.6159 58.332 61.668C58.2826 61.7174 58.2214 61.7422 58.1484 61.7422H56.8203V61.8203C56.8177 61.9271 56.8242 62.026 56.8398 62.1172C56.8581 62.2057 56.8997 62.2852 56.9648 62.3555C57.0299 62.4258 57.112 62.4635 57.2109 62.4688H58.1641C58.237 62.4714 58.2969 62.4987 58.3438 62.5508C58.3932 62.6029 58.418 62.6654 58.418 62.7383C58.4154 62.8086 58.3893 62.8685 58.3398 62.918C58.293 62.9648 58.2344 62.9896 58.1641 62.9922H57.0781C56.8958 62.9818 56.7448 62.9206 56.625 62.8086C56.5078 62.694 56.4232 62.5547 56.3711 62.3906C56.3216 62.2266 56.2956 62.0521 56.293 61.8672V61.7422H55.8438C55.7708 61.7422 55.7096 61.7161 55.6602 61.6641C55.6081 61.6146 55.582 61.5534 55.582 61.4805C55.582 61.4076 55.6068 61.3464 55.6562 61.2969C55.7083 61.2448 55.7708 61.2188 55.8438 61.2188H56.293V60.8789C56.2956 60.8086 56.3216 60.75 56.3711 60.7031C56.4206 60.6536 56.4805 60.6276 56.5508 60.625ZM59.0625 60.625C59.1328 60.6276 59.1927 60.6536 59.2422 60.7031C59.2917 60.75 59.3177 60.8086 59.3203 60.8789V61.2188H60.5312C60.7135 61.2214 60.8633 61.2734 60.9805 61.375C61.1003 61.474 61.1849 61.5859 61.2344 61.7109C61.2865 61.8385 61.3125 61.9701 61.3125 62.1055H61.3164V62.7852C61.3164 62.8581 61.2891 62.9193 61.2344 62.9688C61.1823 63.0156 61.1198 63.0391 61.0469 63.0391C60.8906 63.026 60.8047 62.9414 60.7891 62.7852V62.1016C60.7891 62.0521 60.7786 62 60.7578 61.9453C60.7396 61.8906 60.7122 61.8438 60.6758 61.8047C60.6393 61.763 60.5964 61.7422 60.5469 61.7422H59.3203V62.793C59.3047 62.9492 59.2188 63.0339 59.0625 63.0469C58.9896 63.0469 58.9258 63.0234 58.8711 62.9766C58.819 62.9271 58.793 62.8659 58.793 62.793V60.8789C58.7956 60.806 58.8229 60.7461 58.875 60.6992C58.9271 60.6497 58.9896 60.625 59.0625 60.625ZM62.0781 61.1797C62.1484 61.1823 62.2083 61.2083 62.2578 61.2578C62.3073 61.3047 62.3333 61.3633 62.3359 61.4336V62.7852C62.3203 62.9414 62.2344 63.026 62.0781 63.0391C62.0052 63.0391 61.9414 63.0156 61.8867 62.9688C61.8346 62.9193 61.8086 62.8581 61.8086 62.7852V61.4336C61.8112 61.3607 61.8385 61.3008 61.8906 61.2539C61.9427 61.2044 62.0052 61.1797 62.0781 61.1797ZM61.75 60.6719C61.75 60.599 61.7812 60.5365 61.8438 60.4844C61.9062 60.4323 61.9818 60.4062 62.0703 60.4062C62.1589 60.4062 62.2344 60.4323 62.2969 60.4844C62.3594 60.5365 62.3906 60.599 62.3906 60.6719C62.3906 60.7474 62.3594 60.8112 62.2969 60.8633C62.2344 60.9154 62.1589 60.9414 62.0703 60.9414C61.9818 60.9414 61.9062 60.9154 61.8438 60.8633C61.7812 60.8112 61.75 60.7474 61.75 60.6719ZM65.293 61.4453C65.293 61.5104 65.2669 61.5651 65.2148 61.6094C65.1654 61.651 65.1042 61.6719 65.0312 61.6719H63.3789C63.3451 61.6719 63.3177 61.6784 63.2969 61.6914C63.276 61.7044 63.2604 61.7188 63.25 61.7344C63.2396 61.7474 63.2344 61.7591 63.2344 61.7695C63.2344 61.7826 63.2396 61.7969 63.25 61.8125C63.2604 61.8255 63.276 61.8385 63.2969 61.8516C63.3177 61.862 63.3451 61.8685 63.3789 61.8711H64.6562C64.8203 61.8737 64.9557 61.9062 65.0625 61.9688C65.1693 62.0286 65.2448 62.1003 65.2891 62.1836C65.3359 62.2643 65.3594 62.3464 65.3594 62.4297C65.3594 62.5104 65.3359 62.5924 65.2891 62.6758C65.2422 62.7565 65.1654 62.8281 65.0586 62.8906C64.9544 62.9505 64.8203 62.9805 64.6562 62.9805C64.6276 62.9831 64.6068 62.9844 64.5938 62.9844H63.0781C63.0052 62.9844 62.9427 62.9635 62.8906 62.9219C62.8411 62.8776 62.8164 62.8242 62.8164 62.7617C62.8164 62.6966 62.8424 62.6419 62.8945 62.5977C62.944 62.556 63.0052 62.5352 63.0781 62.5352H64.6875C64.7266 62.5378 64.7578 62.5326 64.7812 62.5195C64.8073 62.5065 64.8268 62.4922 64.8398 62.4766C64.8529 62.4609 64.8594 62.4453 64.8594 62.4297C64.8594 62.4219 64.8529 62.4089 64.8398 62.3906C64.8268 62.3698 64.8073 62.3542 64.7812 62.3438C64.7578 62.3307 64.7266 62.3229 64.6875 62.3203H63.4062C63.2552 62.3177 63.1302 62.2865 63.0312 62.2266C62.9323 62.1641 62.862 62.0924 62.8203 62.0117C62.7786 61.931 62.7578 61.8503 62.7578 61.7695C62.7578 61.6888 62.7786 61.6094 62.8203 61.5312C62.8646 61.4505 62.9349 61.3815 63.0312 61.3242C63.1302 61.2643 63.2552 61.2318 63.4062 61.2266C63.4323 61.224 63.4518 61.2227 63.4648 61.2227H65.0312C65.1042 61.2227 65.1654 61.2448 65.2148 61.2891C65.2669 61.3307 65.293 61.3828 65.293 61.4453ZM68.3203 60.8789V62.3672C68.3203 62.4323 68.3542 62.4661 68.4219 62.4688H69.7891C69.8385 62.4661 69.8815 62.4453 69.918 62.4062C69.9544 62.3646 69.9805 62.3177 69.9961 62.2656C70.0143 62.2109 70.0234 62.1562 70.0234 62.1016C70.0234 62.0495 70.0143 61.9974 69.9961 61.9453C69.9805 61.8906 69.9544 61.8438 69.918 61.8047C69.8815 61.763 69.8385 61.7422 69.7891 61.7422H68.7891C68.7161 61.7422 68.6536 61.7174 68.6016 61.668C68.5521 61.6159 68.5273 61.5534 68.5273 61.4805C68.5273 61.4076 68.5534 61.3464 68.6055 61.2969C68.6549 61.2448 68.7161 61.2188 68.7891 61.2188H69.7734C69.9557 61.2214 70.1055 61.2734 70.2227 61.375C70.3424 61.474 70.4271 61.5872 70.4766 61.7148C70.5286 61.8398 70.5547 61.9701 70.5547 62.1055C70.5547 62.2357 70.5286 62.3646 70.4766 62.4922C70.4245 62.6172 70.3398 62.7305 70.2227 62.832C70.1055 62.931 69.9323 62.9844 69.7031 62.9922H68.0625C67.9896 62.9922 67.9271 62.9688 67.875 62.9219C67.8229 62.8724 67.7956 62.8112 67.793 62.7383V60.8789C67.793 60.806 67.819 60.7461 67.8711 60.6992C67.9258 60.6497 67.9896 60.625 68.0625 60.625C68.2188 60.638 68.3047 60.7227 68.3203 60.8789ZM71.2383 61.1719C71.3112 61.1719 71.3737 61.1966 71.4258 61.2461C71.4779 61.293 71.5052 61.3529 71.5078 61.4258V61.8203C71.5052 61.9271 71.5117 62.026 71.5273 62.1172C71.5456 62.2057 71.5872 62.2852 71.6523 62.3555C71.7174 62.4258 71.7995 62.4635 71.8984 62.4688H72.9414V61.4336C72.9414 61.3607 72.9674 61.3008 73.0195 61.2539C73.0742 61.2044 73.138 61.1797 73.2109 61.1797C73.3672 61.1927 73.4531 61.2773 73.4688 61.4336V62.707C73.4688 62.9154 73.4401 63.112 73.3828 63.2969C73.3307 63.4609 73.2448 63.599 73.125 63.7109C73.0078 63.8255 72.8581 63.888 72.6758 63.8984H71.3242C71.2539 63.8958 71.194 63.8698 71.1445 63.8203C71.0977 63.7734 71.0729 63.7148 71.0703 63.6445C71.0703 63.5716 71.0938 63.5091 71.1406 63.457C71.1901 63.4049 71.2513 63.3776 71.3242 63.375H72.543C72.6419 63.3698 72.724 63.332 72.7891 63.2617C72.8542 63.1914 72.8958 63.1094 72.9141 63.0156C72.9167 63.0078 72.918 63 72.918 62.9922H71.7656C71.5833 62.9818 71.4323 62.9206 71.3125 62.8086C71.1953 62.694 71.1107 62.5547 71.0586 62.3906C71.0091 62.2266 70.9831 62.0521 70.9805 61.8672V61.4258C70.9831 61.3555 71.0091 61.2969 71.0586 61.25C71.1081 61.2005 71.168 61.1745 71.2383 61.1719ZM22.0742 67.043C21.9857 67.043 21.8971 67.0273 21.8086 66.9961C21.7227 66.9648 21.6393 66.9193 21.5586 66.8594C21.4779 66.7969 21.4076 66.7148 21.3477 66.6133C21.2878 66.5117 21.2552 66.3906 21.25 66.25V65.418C21.25 65.3451 21.276 65.2852 21.3281 65.2383C21.3828 65.1888 21.4466 65.1641 21.5195 65.1641C21.6758 65.1771 21.7604 65.2617 21.7734 65.418V66.2188C21.776 66.2812 21.7891 66.3346 21.8125 66.3789C21.8359 66.4206 21.862 66.4544 21.8906 66.4805C21.9193 66.5039 21.9479 66.5221 21.9766 66.5352C22.0078 66.5456 22.0391 66.5508 22.0703 66.5508C22.1016 66.5508 22.1328 66.5456 22.1641 66.5352C22.1953 66.5221 22.2253 66.5039 22.2539 66.4805C22.2826 66.4544 22.3086 66.4206 22.332 66.3789C22.3555 66.3346 22.3672 66.2812 22.3672 66.2188V65.418C22.3672 65.3451 22.3932 65.2852 22.4453 65.2383C22.5 65.1888 22.5638 65.1641 22.6367 65.1641C22.793 65.1771 22.8789 65.2617 22.8945 65.418V66.2188C22.8971 66.2812 22.9102 66.3333 22.9336 66.375C22.957 66.4193 22.9831 66.4544 23.0117 66.4805C23.0404 66.5039 23.069 66.5221 23.0977 66.5352C23.1289 66.5456 23.1602 66.5508 23.1914 66.5508C23.2227 66.5508 23.2539 66.5456 23.2852 66.5352C23.3164 66.5221 23.3464 66.5039 23.375 66.4805C23.4036 66.4544 23.4297 66.4206 23.4531 66.3789C23.4766 66.3346 23.4883 66.2812 23.4883 66.2188V65.418C23.4883 65.3451 23.5143 65.2852 23.5664 65.2383C23.6211 65.1888 23.6849 65.1641 23.7578 65.1641C23.9141 65.1771 24 65.2617 24.0156 65.418V66.25C24.0156 66.3906 23.9844 66.5117 23.9219 66.6133C23.862 66.7148 23.7917 66.7969 23.7109 66.8594C23.6328 66.9193 23.5495 66.9648 23.4609 66.9961C23.375 67.0273 23.2865 67.043 23.1953 67.043C23.1068 67.043 23.0182 67.0273 22.9297 66.9961C22.8438 66.9648 22.7604 66.918 22.6797 66.8555C22.6641 66.8451 22.6497 66.8333 22.6367 66.8203C22.6211 66.8333 22.6068 66.8451 22.5938 66.8555C22.513 66.918 22.4284 66.9648 22.3398 66.9961C22.2539 67.0273 22.1654 67.043 22.0742 67.043ZM24.8008 65.1797C24.8711 65.1823 24.931 65.2083 24.9805 65.2578C25.0299 65.3047 25.056 65.3633 25.0586 65.4336V66.7852C25.043 66.9414 24.957 67.026 24.8008 67.0391C24.7279 67.0391 24.6641 67.0156 24.6094 66.9688C24.5573 66.9193 24.5312 66.8581 24.5312 66.7852V65.4336C24.5339 65.3607 24.5612 65.3008 24.6133 65.2539C24.6654 65.2044 24.7279 65.1797 24.8008 65.1797ZM24.4727 64.6719C24.4727 64.599 24.5039 64.5365 24.5664 64.4844C24.6289 64.4323 24.7044 64.4062 24.793 64.4062C24.8815 64.4062 24.957 64.4323 25.0195 64.4844C25.082 64.5365 25.1133 64.599 25.1133 64.6719C25.1133 64.7474 25.082 64.8112 25.0195 64.8633C24.957 64.9154 24.8815 64.9414 24.793 64.9414C24.7044 64.9414 24.6289 64.9154 24.5664 64.8633C24.5039 64.8112 24.4727 64.7474 24.4727 64.6719ZM26.7812 65.1602C26.9167 65.1602 27.0495 65.1758 27.1797 65.207C27.3125 65.2383 27.4388 65.2852 27.5586 65.3477C27.6784 65.4076 27.7839 65.4883 27.875 65.5898C27.9688 65.6914 28.0195 65.8125 28.0273 65.9531V66.1172V66.7852C28.0117 66.9414 27.9258 67.026 27.7695 67.0391C27.6966 67.0391 27.6328 67.0156 27.5781 66.9688C27.526 66.9193 27.5 66.8581 27.5 66.7852V66.6133V66.0742C27.4948 65.9935 27.4635 65.9271 27.4062 65.875C27.3516 65.8203 27.2891 65.7773 27.2188 65.7461C27.151 65.7148 27.0794 65.6914 27.0039 65.6758C26.931 65.6602 26.8568 65.6523 26.7812 65.6523C26.7057 65.6523 26.6302 65.6602 26.5547 65.6758C26.4818 65.6914 26.4102 65.7148 26.3398 65.7461C26.2721 65.7773 26.2096 65.8203 26.1523 65.875C26.0977 65.9271 26.0677 65.9935 26.0625 66.0742V66.6133V66.7852C26.0495 66.9414 25.9648 67.026 25.8086 67.0391C25.7357 67.0391 25.6719 67.0156 25.6172 66.9688C25.5651 66.9193 25.5391 66.8581 25.5391 66.7852V66.1172V65.9531C25.5469 65.8125 25.5964 65.6914 25.6875 65.5898C25.7786 65.4883 25.8841 65.4076 26.0039 65.3477C26.1237 65.2852 26.2487 65.2383 26.3789 65.207C26.5117 65.1758 26.6458 65.1602 26.7812 65.1602ZM28.793 65.1797C28.8633 65.1823 28.9232 65.2083 28.9727 65.2578C29.0221 65.3047 29.0482 65.3633 29.0508 65.4336V66.7852C29.0352 66.9414 28.9492 67.026 28.793 67.0391C28.7201 67.0391 28.6562 67.0156 28.6016 66.9688C28.5495 66.9193 28.5234 66.8581 28.5234 66.7852V65.4336C28.526 65.3607 28.5534 65.3008 28.6055 65.2539C28.6576 65.2044 28.7201 65.1797 28.793 65.1797ZM28.4648 64.6719C28.4648 64.599 28.4961 64.5365 28.5586 64.4844C28.6211 64.4323 28.6966 64.4062 28.7852 64.4062C28.8737 64.4062 28.9492 64.4323 29.0117 64.4844C29.0742 64.5365 29.1055 64.599 29.1055 64.6719C29.1055 64.7474 29.0742 64.8112 29.0117 64.8633C28.9492 64.9154 28.8737 64.9414 28.7852 64.9414C28.6966 64.9414 28.6211 64.9154 28.5586 64.8633C28.4961 64.8112 28.4648 64.7474 28.4648 64.6719ZM30.7734 65.1602C30.9089 65.1602 31.0417 65.1758 31.1719 65.207C31.3047 65.2383 31.431 65.2852 31.5508 65.3477C31.6706 65.4076 31.776 65.4883 31.8672 65.5898C31.9609 65.6914 32.0117 65.8125 32.0195 65.9531V66.1172V66.7852C32.0039 66.9414 31.918 67.026 31.7617 67.0391C31.6888 67.0391 31.625 67.0156 31.5703 66.9688C31.5182 66.9193 31.4922 66.8581 31.4922 66.7852V66.6133V66.0742C31.487 65.9935 31.4557 65.9271 31.3984 65.875C31.3438 65.8203 31.2812 65.7773 31.2109 65.7461C31.1432 65.7148 31.0716 65.6914 30.9961 65.6758C30.9232 65.6602 30.849 65.6523 30.7734 65.6523C30.6979 65.6523 30.6224 65.6602 30.5469 65.6758C30.474 65.6914 30.4023 65.7148 30.332 65.7461C30.2643 65.7773 30.2018 65.8203 30.1445 65.875C30.0898 65.9271 30.0599 65.9935 30.0547 66.0742V66.6133V66.7852C30.0417 66.9414 29.957 67.026 29.8008 67.0391C29.7279 67.0391 29.6641 67.0156 29.6094 66.9688C29.5573 66.9193 29.5312 66.8581 29.5312 66.7852V66.1172V65.9531C29.5391 65.8125 29.5885 65.6914 29.6797 65.5898C29.7708 65.4883 29.8763 65.4076 29.9961 65.3477C30.1159 65.2852 30.2409 65.2383 30.3711 65.207C30.5039 65.1758 30.638 65.1602 30.7734 65.1602ZM34.707 65.8438C34.707 65.7786 34.6732 65.7448 34.6055 65.7422H33.2383C33.1888 65.7448 33.1458 65.7669 33.1094 65.8086C33.0729 65.8477 33.0456 65.8945 33.0273 65.9492C33.0117 66.0013 33.0039 66.0547 33.0039 66.1094C33.0039 66.1615 33.0117 66.2148 33.0273 66.2695C33.0456 66.3216 33.0729 66.3685 33.1094 66.4102C33.1458 66.4492 33.1888 66.4688 33.2383 66.4688H34.2383C34.3112 66.4688 34.3724 66.4948 34.4219 66.5469C34.474 66.5964 34.5 66.6576 34.5 66.7305C34.5 66.8034 34.474 66.8646 34.4219 66.9141C34.3724 66.9661 34.3112 66.9922 34.2383 66.9922H33.2539C33.0716 66.9896 32.9206 66.9388 32.8008 66.8398C32.6836 66.7383 32.599 66.625 32.5469 66.5C32.4974 66.3724 32.4727 66.2409 32.4727 66.1055C32.4727 65.9753 32.4987 65.8477 32.5508 65.7227C32.6029 65.5951 32.6875 65.4818 32.8047 65.3828C32.9219 65.2812 33.0951 65.2266 33.3242 65.2188H34.9648C35.0378 65.2188 35.1003 65.2435 35.1523 65.293C35.2044 65.3398 35.2318 65.3997 35.2344 65.4727V66.707C35.2344 66.9154 35.2057 67.112 35.1484 67.2969C35.0964 67.4609 35.0104 67.599 34.8906 67.7109C34.7734 67.8255 34.6237 67.888 34.4414 67.8984H33.0898C33.0195 67.8958 32.9596 67.8698 32.9102 67.8203C32.8633 67.7734 32.8385 67.7148 32.8359 67.6445C32.8359 67.5716 32.8594 67.5091 32.9062 67.457C32.9557 67.4049 33.0169 67.3776 33.0898 67.375H34.3086C34.4076 67.3698 34.4896 67.332 34.5547 67.2617C34.6198 67.1914 34.6615 67.1094 34.6797 67.0156C34.6979 66.9219 34.707 66.8008 34.707 66.6523V65.8438ZM38.0312 65.1797C38.1016 65.1823 38.1615 65.2083 38.2109 65.2578C38.2604 65.3047 38.2865 65.3633 38.2891 65.4336V66.7852C38.2734 66.9414 38.1875 67.026 38.0312 67.0391C37.9583 67.0391 37.8945 67.0156 37.8398 66.9688C37.7878 66.9193 37.7617 66.8581 37.7617 66.7852V65.4336C37.7643 65.3607 37.7917 65.3008 37.8438 65.2539C37.8958 65.2044 37.9583 65.1797 38.0312 65.1797ZM37.7031 64.6719C37.7031 64.599 37.7344 64.5365 37.7969 64.4844C37.8594 64.4323 37.9349 64.4062 38.0234 64.4062C38.112 64.4062 38.1875 64.4323 38.25 64.4844C38.3125 64.5365 38.3438 64.599 38.3438 64.6719C38.3438 64.7474 38.3125 64.8112 38.25 64.8633C38.1875 64.9154 38.112 64.9414 38.0234 64.9414C37.9349 64.9414 37.8594 64.9154 37.7969 64.8633C37.7344 64.8112 37.7031 64.7474 37.7031 64.6719ZM40.0117 65.1602C40.1471 65.1602 40.2799 65.1758 40.4102 65.207C40.543 65.2383 40.6693 65.2852 40.7891 65.3477C40.9089 65.4076 41.0143 65.4883 41.1055 65.5898C41.1992 65.6914 41.25 65.8125 41.2578 65.9531V66.1172V66.7852C41.2422 66.9414 41.1562 67.026 41 67.0391C40.9271 67.0391 40.8633 67.0156 40.8086 66.9688C40.7565 66.9193 40.7305 66.8581 40.7305 66.7852V66.6133V66.0742C40.7253 65.9935 40.694 65.9271 40.6367 65.875C40.582 65.8203 40.5195 65.7773 40.4492 65.7461C40.3815 65.7148 40.3099 65.6914 40.2344 65.6758C40.1615 65.6602 40.0872 65.6523 40.0117 65.6523C39.9362 65.6523 39.8607 65.6602 39.7852 65.6758C39.7122 65.6914 39.6406 65.7148 39.5703 65.7461C39.5026 65.7773 39.4401 65.8203 39.3828 65.875C39.3281 65.9271 39.2982 65.9935 39.293 66.0742V66.6133V66.7852C39.2799 66.9414 39.1953 67.026 39.0391 67.0391C38.9661 67.0391 38.9023 67.0156 38.8477 66.9688C38.7956 66.9193 38.7695 66.8581 38.7695 66.7852V66.1172V65.9531C38.7773 65.8125 38.8268 65.6914 38.918 65.5898C39.0091 65.4883 39.1146 65.4076 39.2344 65.3477C39.3542 65.2852 39.4792 65.2383 39.6094 65.207C39.7422 65.1758 39.8763 65.1602 40.0117 65.1602ZM43.7812 64.9492C43.7812 64.8763 43.806 64.8151 43.8555 64.7656C43.9076 64.7135 43.9701 64.6875 44.043 64.6875H45.5508C45.5664 64.6875 45.582 64.6888 45.5977 64.6914H45.6211C45.8034 64.6966 45.9531 64.7383 46.0703 64.8164C46.1875 64.8945 46.2721 64.9844 46.3242 65.0859C46.3763 65.1849 46.4023 65.2852 46.4023 65.3867C46.4023 65.4909 46.3763 65.5938 46.3242 65.6953C46.2747 65.7943 46.1901 65.8828 46.0703 65.9609C45.9531 66.0391 45.8034 66.0807 45.6211 66.0859H44.5117C44.4622 66.0885 44.4206 66.1003 44.3867 66.1211C44.3555 66.1419 44.332 66.1693 44.3164 66.2031C44.3008 66.2344 44.293 66.2591 44.293 66.2773V66.3594C44.293 66.3932 44.3008 66.4193 44.3164 66.4375C44.3346 66.4557 44.3685 66.4635 44.418 66.4609H46.1211C46.194 66.4609 46.2552 66.487 46.3047 66.5391C46.3568 66.5885 46.3828 66.6497 46.3828 66.7227C46.3828 66.7956 46.3568 66.8581 46.3047 66.9102C46.2552 66.9596 46.194 66.9844 46.1211 66.9844H44.207C44.0612 66.9844 43.9492 66.9492 43.8711 66.8789C43.7956 66.806 43.7565 66.7031 43.7539 66.5703V66.2773C43.7539 66.1706 43.7786 66.0664 43.8281 65.9648C43.8802 65.8607 43.9648 65.7695 44.082 65.6914C44.2018 65.6107 44.3529 65.5677 44.5352 65.5625H45.6445C45.694 65.5599 45.7344 65.5495 45.7656 65.5312C45.7995 65.5104 45.8242 65.4883 45.8398 65.4648C45.8555 65.4388 45.8633 65.4128 45.8633 65.3867C45.8633 65.3607 45.8555 65.3359 45.8398 65.3125C45.8242 65.2865 45.7995 65.2643 45.7656 65.2461C45.7344 65.2253 45.694 65.2135 45.6445 65.2109H44.043C43.9701 65.2109 43.9089 65.1849 43.8594 65.1328C43.8073 65.0833 43.7812 65.0221 43.7812 64.9492ZM48.8125 64.6875C48.9453 64.6901 49.0638 64.7318 49.168 64.8125C49.2721 64.8932 49.3555 64.9896 49.418 65.1016C49.4831 65.2135 49.5312 65.332 49.5625 65.457C49.5938 65.582 49.6094 65.7096 49.6094 65.8398C49.6094 66.0117 49.582 66.181 49.5273 66.3477C49.4753 66.5117 49.388 66.6576 49.2656 66.7852C49.1458 66.9128 48.9948 66.9818 48.8125 66.9922H47.5742C47.3919 66.9844 47.2396 66.9167 47.1172 66.7891C46.9948 66.6615 46.9076 66.5143 46.8555 66.3477C46.806 66.181 46.7812 66.0117 46.7812 65.8398C46.7812 65.668 46.8073 65.5 46.8594 65.3359C46.9115 65.1693 46.9974 65.0221 47.1172 64.8945C47.2396 64.7643 47.3919 64.6953 47.5742 64.6875H47.6484H48.7383H48.8125ZM48.6797 66.4688C48.7786 66.4635 48.8607 66.4271 48.9258 66.3594C48.9935 66.2891 49.0417 66.2083 49.0703 66.1172C49.099 66.026 49.1133 65.9336 49.1133 65.8398C49.1133 65.7461 49.0977 65.6549 49.0664 65.5664C49.0378 65.4753 48.9909 65.3945 48.9258 65.3242C48.8607 65.2539 48.7786 65.2161 48.6797 65.2109H47.6953C47.5964 65.2161 47.5143 65.2539 47.4492 65.3242C47.3841 65.3945 47.3359 65.4753 47.3047 65.5664C47.276 65.6549 47.2617 65.7461 47.2617 65.8398C47.2617 65.9336 47.276 66.026 47.3047 66.1172C47.3333 66.2083 47.3802 66.2891 47.4453 66.3594C47.513 66.4271 47.5964 66.4635 47.6953 66.4688H48.6797ZM54.1953 65.8438C54.1953 65.7786 54.1615 65.7448 54.0938 65.7422H52.7266C52.6771 65.7448 52.6341 65.7669 52.5977 65.8086C52.5612 65.8477 52.5339 65.8945 52.5156 65.9492C52.5 66.0013 52.4922 66.0547 52.4922 66.1094C52.4922 66.1615 52.5 66.2148 52.5156 66.2695C52.5339 66.3216 52.5612 66.3685 52.5977 66.4102C52.6341 66.4492 52.6771 66.4688 52.7266 66.4688H53.7266C53.7995 66.4688 53.8607 66.4948 53.9102 66.5469C53.9622 66.5964 53.9883 66.6576 53.9883 66.7305C53.9883 66.8034 53.9622 66.8646 53.9102 66.9141C53.8607 66.9661 53.7995 66.9922 53.7266 66.9922H52.7422C52.5599 66.9896 52.4089 66.9388 52.2891 66.8398C52.1719 66.7383 52.0872 66.625 52.0352 66.5C51.9857 66.3724 51.9609 66.2409 51.9609 66.1055C51.9609 65.9753 51.987 65.8477 52.0391 65.7227C52.0911 65.5951 52.1758 65.4818 52.293 65.3828C52.4102 65.2812 52.5833 65.2266 52.8125 65.2188H54.4531C54.526 65.2188 54.5885 65.2435 54.6406 65.293C54.6927 65.3398 54.7201 65.3997 54.7227 65.4727V66.707C54.7227 66.9154 54.694 67.112 54.6367 67.2969C54.5846 67.4609 54.4987 67.599 54.3789 67.7109C54.2617 67.8255 54.112 67.888 53.9297 67.8984H52.5781C52.5078 67.8958 52.4479 67.8698 52.3984 67.8203C52.3516 67.7734 52.3268 67.7148 52.3242 67.6445C52.3242 67.5716 52.3477 67.5091 52.3945 67.457C52.444 67.4049 52.5052 67.3776 52.5781 67.375H53.7969C53.8958 67.3698 53.9779 67.332 54.043 67.2617C54.1081 67.1914 54.1497 67.1094 54.168 67.0156C54.1862 66.9219 54.1953 66.8008 54.1953 66.6523V65.8438ZM57.4336 66.7852V65.8438C57.4336 65.7786 57.3997 65.7448 57.332 65.7422H55.9648C55.9154 65.7448 55.8724 65.7669 55.8359 65.8086C55.7995 65.8477 55.7721 65.8945 55.7539 65.9492C55.7383 66.0013 55.7305 66.0547 55.7305 66.1094C55.7305 66.1615 55.7383 66.2148 55.7539 66.2695C55.7721 66.3216 55.7995 66.3685 55.8359 66.4102C55.8724 66.4492 55.9154 66.4688 55.9648 66.4688H56.9648C57.0378 66.4688 57.099 66.4948 57.1484 66.5469C57.2005 66.5964 57.2266 66.6576 57.2266 66.7305C57.2266 66.8034 57.2005 66.8646 57.1484 66.9141C57.099 66.9661 57.0378 66.9922 56.9648 66.9922H55.9805C55.7982 66.9896 55.6471 66.9388 55.5273 66.8398C55.4102 66.7383 55.3255 66.625 55.2734 66.5C55.224 66.3724 55.1992 66.2409 55.1992 66.1055C55.1992 65.9753 55.2253 65.8477 55.2773 65.7227C55.3294 65.5951 55.4141 65.4818 55.5312 65.3828C55.6484 65.2812 55.8216 65.2266 56.0508 65.2188H57.6914C57.7643 65.2188 57.8268 65.2435 57.8789 65.293C57.931 65.3398 57.9583 65.3997 57.9609 65.4727V66.7852C57.9609 66.8581 57.9336 66.9193 57.8789 66.9688C57.8268 67.0156 57.7643 67.0391 57.6914 67.0391C57.5352 67.026 57.4492 66.9414 57.4336 66.7852ZM59.293 65.1602C59.3841 65.1602 59.4727 65.1758 59.5586 65.207C59.6471 65.2383 59.7318 65.2839 59.8125 65.3438C59.8255 65.3568 59.8398 65.3698 59.8555 65.3828C59.8685 65.3698 59.8828 65.3568 59.8984 65.3438C59.9792 65.2839 60.0625 65.2383 60.1484 65.207C60.237 65.1758 60.3255 65.1602 60.4141 65.1602C60.5052 65.1602 60.5938 65.1758 60.6797 65.207C60.7682 65.2383 60.8516 65.2852 60.9297 65.3477C61.0104 65.4076 61.0807 65.4883 61.1406 65.5898C61.2031 65.6914 61.2344 65.8125 61.2344 65.9531V66.7852C61.2188 66.9414 61.1328 67.026 60.9766 67.0391C60.9036 67.0391 60.8398 67.0156 60.7852 66.9688C60.7331 66.9193 60.707 66.8581 60.707 66.7852V65.9844C60.707 65.9219 60.6953 65.8698 60.6719 65.8281C60.6484 65.7839 60.6224 65.75 60.5938 65.7266C60.5651 65.7005 60.5352 65.6823 60.5039 65.6719C60.4727 65.6589 60.4414 65.6523 60.4102 65.6523C60.3789 65.6523 60.3477 65.6589 60.3164 65.6719C60.2878 65.6823 60.2591 65.7005 60.2305 65.7266C60.2018 65.75 60.1758 65.7839 60.1523 65.8281C60.1289 65.8698 60.1159 65.9219 60.1133 65.9844V66.7852C60.0977 66.9414 60.0117 67.026 59.8555 67.0391C59.7826 67.0391 59.7188 67.0156 59.6641 66.9688C59.612 66.9193 59.5859 66.8581 59.5859 66.7852V65.9844C59.5859 65.9219 59.5742 65.8698 59.5508 65.8281C59.5273 65.7839 59.5013 65.75 59.4727 65.7266C59.444 65.7005 59.4141 65.6823 59.3828 65.6719C59.3516 65.6589 59.3203 65.6523 59.2891 65.6523C59.2578 65.6523 59.2266 65.6589 59.1953 65.6719C59.1667 65.6823 59.138 65.7005 59.1094 65.7266C59.0807 65.75 59.0547 65.7839 59.0312 65.8281C59.0078 65.8698 58.9948 65.9219 58.9922 65.9844V66.7852C58.9792 66.9414 58.8945 67.026 58.7383 67.0391C58.6654 67.0391 58.6016 67.0156 58.5469 66.9688C58.4948 66.9193 58.4688 66.8581 58.4688 66.7852V65.9531C58.474 65.8125 58.5065 65.6914 58.5664 65.5898C58.6263 65.4883 58.6966 65.4076 58.7773 65.3477C58.8581 65.2852 58.9414 65.2383 59.0273 65.207C59.1159 65.1758 59.2044 65.1602 59.293 65.1602ZM62.5195 66.9922C62.2904 66.9844 62.1172 66.931 62 66.832C61.8828 66.7305 61.7982 66.6172 61.7461 66.4922C61.694 66.3646 61.668 66.2357 61.668 66.1055C61.668 65.9701 61.6927 65.8398 61.7422 65.7148C61.7943 65.5872 61.8789 65.474 61.9961 65.375C62.1159 65.2734 62.2669 65.2214 62.4492 65.2188H63.9336C64.0065 65.2188 64.0677 65.2435 64.1172 65.293C64.1693 65.3398 64.1953 65.3971 64.1953 65.4648C64.1953 65.5352 64.1693 65.5951 64.1172 65.6445C64.0677 65.6914 64.0065 65.7148 63.9336 65.7148H62.4727C62.4154 65.7148 62.3646 65.7344 62.3203 65.7734C62.2786 65.8125 62.2474 65.8633 62.2266 65.9258C62.2083 65.9883 62.1992 66.0495 62.1992 66.1094C62.1992 66.1745 62.2083 66.2383 62.2266 66.3008C62.2474 66.3633 62.2786 66.4141 62.3203 66.4531C62.3646 66.4896 62.4154 66.5091 62.4727 66.5117H63.9336C64.0065 66.5117 64.0677 66.5352 64.1172 66.582C64.1693 66.6289 64.1953 66.6849 64.1953 66.75C64.1953 66.8177 64.1693 66.875 64.1172 66.9219C64.0677 66.9688 64.0065 66.9922 63.9336 66.9922H62.5195ZM64.1484 66.0977C64.1484 66.1471 64.1263 66.1901 64.082 66.2266C64.043 66.2604 63.9935 66.2773 63.9336 66.2773H62.6562C62.5964 66.2773 62.5456 66.2604 62.5039 66.2266C62.4622 66.1901 62.4414 66.1471 62.4414 66.0977C62.4414 66.0508 62.4622 66.0091 62.5039 65.9727C62.5456 65.9388 62.5964 65.9219 62.6562 65.9219H63.9336C63.9935 65.9219 64.0443 65.9401 64.0859 65.9766C64.1276 66.0104 64.1484 66.0508 64.1484 66.0977ZM66.9141 65.1797C66.9844 65.1823 67.0443 65.2083 67.0938 65.2578C67.1432 65.3047 67.1693 65.3633 67.1719 65.4336V66.7852C67.1562 66.9414 67.0703 67.026 66.9141 67.0391C66.8411 67.0391 66.7773 67.0156 66.7227 66.9688C66.6706 66.9193 66.6445 66.8581 66.6445 66.7852V65.4336C66.6471 65.3607 66.6745 65.3008 66.7266 65.2539C66.7786 65.2044 66.8411 65.1797 66.9141 65.1797ZM66.5859 64.6719C66.5859 64.599 66.6172 64.5365 66.6797 64.4844C66.7422 64.4323 66.8177 64.4062 66.9062 64.4062C66.9948 64.4062 67.0703 64.4323 67.1328 64.4844C67.1953 64.5365 67.2266 64.599 67.2266 64.6719C67.2266 64.7474 67.1953 64.8112 67.1328 64.8633C67.0703 64.9154 66.9948 64.9414 66.9062 64.9414C66.8177 64.9414 66.7422 64.9154 66.6797 64.8633C66.6172 64.8112 66.5859 64.7474 66.5859 64.6719ZM68.8945 65.1602C69.0299 65.1602 69.1628 65.1758 69.293 65.207C69.4258 65.2383 69.5521 65.2852 69.6719 65.3477C69.7917 65.4076 69.8971 65.4883 69.9883 65.5898C70.082 65.6914 70.1328 65.8125 70.1406 65.9531V66.1172V66.7852C70.125 66.9414 70.0391 67.026 69.8828 67.0391C69.8099 67.0391 69.7461 67.0156 69.6914 66.9688C69.6393 66.9193 69.6133 66.8581 69.6133 66.7852V66.6133V66.0742C69.6081 65.9935 69.5768 65.9271 69.5195 65.875C69.4648 65.8203 69.4023 65.7773 69.332 65.7461C69.2643 65.7148 69.1927 65.6914 69.1172 65.6758C69.0443 65.6602 68.9701 65.6523 68.8945 65.6523C68.819 65.6523 68.7435 65.6602 68.668 65.6758C68.5951 65.6914 68.5234 65.7148 68.4531 65.7461C68.3854 65.7773 68.3229 65.8203 68.2656 65.875C68.2109 65.9271 68.181 65.9935 68.1758 66.0742V66.6133V66.7852C68.1628 66.9414 68.0781 67.026 67.9219 67.0391C67.849 67.0391 67.7852 67.0156 67.7305 66.9688C67.6784 66.9193 67.6523 66.8581 67.6523 66.7852V66.1172V65.9531C67.6602 65.8125 67.7096 65.6914 67.8008 65.5898C67.8919 65.4883 67.9974 65.4076 68.1172 65.3477C68.237 65.2852 68.362 65.2383 68.4922 65.207C68.625 65.1758 68.7591 65.1602 68.8945 65.1602ZM22.0938 68.625C22.1667 68.625 22.2292 68.6497 22.2812 68.6992C22.3333 68.7461 22.3607 68.806 22.3633 68.8789V69.2188H23.6914C23.7643 69.2188 23.8268 69.2435 23.8789 69.293C23.9284 69.3451 23.9531 69.4076 23.9531 69.4805C23.9531 69.5534 23.9271 69.6159 23.875 69.668C23.8255 69.7174 23.7643 69.7422 23.6914 69.7422H22.3633V69.8203C22.3607 69.9271 22.3672 70.026 22.3828 70.1172C22.401 70.2057 22.4427 70.2852 22.5078 70.3555C22.5729 70.4258 22.6549 70.4635 22.7539 70.4688H23.707C23.7799 70.4714 23.8398 70.4987 23.8867 70.5508C23.9362 70.6029 23.9609 70.6654 23.9609 70.7383C23.9583 70.8086 23.9323 70.8685 23.8828 70.918C23.8359 70.9648 23.7773 70.9896 23.707 70.9922H22.6211C22.4388 70.9818 22.2878 70.9206 22.168 70.8086C22.0508 70.694 21.9661 70.5547 21.9141 70.3906C21.8646 70.2266 21.8385 70.0521 21.8359 69.8672V69.7422H21.3867C21.3138 69.7422 21.2526 69.7161 21.2031 69.6641C21.151 69.6146 21.125 69.5534 21.125 69.4805C21.125 69.4076 21.1497 69.3464 21.1992 69.2969C21.2513 69.2448 21.3138 69.2188 21.3867 69.2188H21.8359V68.8789C21.8385 68.8086 21.8646 68.75 21.9141 68.7031C21.9635 68.6536 22.0234 68.6276 22.0938 68.625ZM24.6055 68.625C24.6758 68.6276 24.7357 68.6536 24.7852 68.7031C24.8346 68.75 24.8607 68.8086 24.8633 68.8789V69.2188H26.0742C26.2565 69.2214 26.4062 69.2734 26.5234 69.375C26.6432 69.474 26.7279 69.5859 26.7773 69.7109C26.8294 69.8385 26.8555 69.9701 26.8555 70.1055H26.8594V70.7852C26.8594 70.8581 26.832 70.9193 26.7773 70.9688C26.7253 71.0156 26.6628 71.0391 26.5898 71.0391C26.4336 71.026 26.3477 70.9414 26.332 70.7852V70.1016C26.332 70.0521 26.3216 70 26.3008 69.9453C26.2826 69.8906 26.2552 69.8438 26.2188 69.8047C26.1823 69.763 26.1393 69.7422 26.0898 69.7422H24.8633V70.793C24.8477 70.9492 24.7617 71.0339 24.6055 71.0469C24.5326 71.0469 24.4688 71.0234 24.4141 70.9766C24.362 70.9271 24.3359 70.8659 24.3359 70.793V68.8789C24.3385 68.806 24.3659 68.7461 24.418 68.6992C24.4701 68.6497 24.5326 68.625 24.6055 68.625ZM28.1523 70.9922C27.9232 70.9844 27.75 70.931 27.6328 70.832C27.5156 70.7305 27.431 70.6172 27.3789 70.4922C27.3268 70.3646 27.3008 70.2357 27.3008 70.1055C27.3008 69.9701 27.3255 69.8398 27.375 69.7148C27.4271 69.5872 27.5117 69.474 27.6289 69.375C27.7487 69.2734 27.8997 69.2214 28.082 69.2188H29.5664C29.6393 69.2188 29.7005 69.2435 29.75 69.293C29.8021 69.3398 29.8281 69.3971 29.8281 69.4648C29.8281 69.5352 29.8021 69.5951 29.75 69.6445C29.7005 69.6914 29.6393 69.7148 29.5664 69.7148H28.1055C28.0482 69.7148 27.9974 69.7344 27.9531 69.7734C27.9115 69.8125 27.8802 69.8633 27.8594 69.9258C27.8411 69.9883 27.832 70.0495 27.832 70.1094C27.832 70.1745 27.8411 70.2383 27.8594 70.3008C27.8802 70.3633 27.9115 70.4141 27.9531 70.4531C27.9974 70.4896 28.0482 70.5091 28.1055 70.5117H29.5664C29.6393 70.5117 29.7005 70.5352 29.75 70.582C29.8021 70.6289 29.8281 70.6849 29.8281 70.75C29.8281 70.8177 29.8021 70.875 29.75 70.9219C29.7005 70.9688 29.6393 70.9922 29.5664 70.9922H28.1523ZM29.7812 70.0977C29.7812 70.1471 29.7591 70.1901 29.7148 70.2266C29.6758 70.2604 29.6263 70.2773 29.5664 70.2773H28.2891C28.2292 70.2773 28.1784 70.2604 28.1367 70.2266C28.0951 70.1901 28.0742 70.1471 28.0742 70.0977C28.0742 70.0508 28.0951 70.0091 28.1367 69.9727C28.1784 69.9388 28.2292 69.9219 28.2891 69.9219H29.5664C29.6263 69.9219 29.6771 69.9401 29.7188 69.9766C29.7604 70.0104 29.7812 70.0508 29.7812 70.0977ZM33.1719 71.0391C33.1016 71.0365 33.0417 71.0117 32.9922 70.9648C32.9427 70.9154 32.9167 70.8555 32.9141 70.7852V70.2578H32.4648C32.3919 70.2578 32.3294 70.2331 32.2773 70.1836C32.2279 70.1315 32.2031 70.069 32.2031 69.9961C32.2031 69.9232 32.2292 69.862 32.2812 69.8125C32.3307 69.7604 32.3919 69.7344 32.4648 69.7344H32.9141C32.9219 69.5807 32.9479 69.4323 32.9922 69.2891C33.0443 69.125 33.1289 68.987 33.2461 68.875C33.3659 68.7604 33.5169 68.6979 33.6992 68.6875H34.7852C34.8555 68.6901 34.9141 68.7161 34.9609 68.7656C35.0104 68.8125 35.0365 68.8711 35.0391 68.9414C35.0391 69.0143 35.0143 69.0768 34.9648 69.1289C34.918 69.181 34.8581 69.2083 34.7852 69.2109H33.832C33.7331 69.2161 33.651 69.2539 33.5859 69.3242C33.5208 69.3945 33.4805 69.474 33.4648 69.5625C33.4518 69.6198 33.444 69.6771 33.4414 69.7344H34.7695C34.8424 69.7344 34.9036 69.7604 34.9531 69.8125C35.0052 69.862 35.0312 69.9232 35.0312 69.9961C35.0312 70.069 35.0065 70.1315 34.957 70.1836C34.9049 70.2331 34.8424 70.2578 34.7695 70.2578H33.4414V70.7852C33.4388 70.8581 33.4115 70.9193 33.3594 70.9688C33.3073 71.0156 33.2448 71.0391 33.1719 71.0391ZM35.5273 69.7109C35.5768 69.5859 35.6602 69.474 35.7773 69.375C35.8971 69.2734 36.0482 69.2214 36.2305 69.2188H37.6992C37.7721 69.2188 37.8333 69.2448 37.8828 69.2969C37.9349 69.3464 37.9609 69.4076 37.9609 69.4805C37.9609 69.5534 37.9349 69.6159 37.8828 69.668C37.8333 69.7174 37.7721 69.7422 37.6992 69.7422H36.2148C36.1654 69.7422 36.1224 69.763 36.0859 69.8047C36.0495 69.8438 36.0208 69.8906 36 69.9453C35.9818 70 35.9727 70.0521 35.9727 70.1016V70.7852C35.957 70.9414 35.8711 71.026 35.7148 71.0391C35.6419 71.0391 35.5781 71.0156 35.5234 70.9688C35.4714 70.9193 35.4453 70.8581 35.4453 70.7852V70.1055H35.4492C35.4492 69.9701 35.4753 69.8385 35.5273 69.7109ZM38.6172 69.1797C38.6875 69.1823 38.7474 69.2083 38.7969 69.2578C38.8464 69.3047 38.8724 69.3633 38.875 69.4336V70.7852C38.8594 70.9414 38.7734 71.026 38.6172 71.0391C38.5443 71.0391 38.4805 71.0156 38.4258 70.9688C38.3737 70.9193 38.3477 70.8581 38.3477 70.7852V69.4336C38.3503 69.3607 38.3776 69.3008 38.4297 69.2539C38.4818 69.2044 38.5443 69.1797 38.6172 69.1797ZM38.2891 68.6719C38.2891 68.599 38.3203 68.5365 38.3828 68.4844C38.4453 68.4323 38.5208 68.4062 38.6094 68.4062C38.6979 68.4062 38.7734 68.4323 38.8359 68.4844C38.8984 68.5365 38.9297 68.599 38.9297 68.6719C38.9297 68.7474 38.8984 68.8112 38.8359 68.8633C38.7734 68.9154 38.6979 68.9414 38.6094 68.9414C38.5208 68.9414 38.4453 68.9154 38.3828 68.8633C38.3203 68.8112 38.2891 68.7474 38.2891 68.6719ZM40.1523 70.9922C39.9232 70.9844 39.75 70.931 39.6328 70.832C39.5156 70.7305 39.431 70.6172 39.3789 70.4922C39.3268 70.3646 39.3008 70.2357 39.3008 70.1055C39.3008 69.9701 39.3255 69.8398 39.375 69.7148C39.4271 69.5872 39.5117 69.474 39.6289 69.375C39.7487 69.2734 39.8997 69.2214 40.082 69.2188H41.5664C41.6393 69.2188 41.7005 69.2435 41.75 69.293C41.8021 69.3398 41.8281 69.3971 41.8281 69.4648C41.8281 69.5352 41.8021 69.5951 41.75 69.6445C41.7005 69.6914 41.6393 69.7148 41.5664 69.7148H40.1055C40.0482 69.7148 39.9974 69.7344 39.9531 69.7734C39.9115 69.8125 39.8802 69.8633 39.8594 69.9258C39.8411 69.9883 39.832 70.0495 39.832 70.1094C39.832 70.1745 39.8411 70.2383 39.8594 70.3008C39.8802 70.3633 39.9115 70.4141 39.9531 70.4531C39.9974 70.4896 40.0482 70.5091 40.1055 70.5117H41.5664C41.6393 70.5117 41.7005 70.5352 41.75 70.582C41.8021 70.6289 41.8281 70.6849 41.8281 70.75C41.8281 70.8177 41.8021 70.875 41.75 70.9219C41.7005 70.9688 41.6393 70.9922 41.5664 70.9922H40.1523ZM41.7812 70.0977C41.7812 70.1471 41.7591 70.1901 41.7148 70.2266C41.6758 70.2604 41.6263 70.2773 41.5664 70.2773H40.2891C40.2292 70.2773 40.1784 70.2604 40.1367 70.2266C40.0951 70.1901 40.0742 70.1471 40.0742 70.0977C40.0742 70.0508 40.0951 70.0091 40.1367 69.9727C40.1784 69.9388 40.2292 69.9219 40.2891 69.9219H41.5664C41.6263 69.9219 41.6771 69.9401 41.7188 69.9766C41.7604 70.0104 41.7812 70.0508 41.7812 70.0977ZM43.5234 69.1602C43.6589 69.1602 43.7917 69.1758 43.9219 69.207C44.0547 69.2383 44.181 69.2852 44.3008 69.3477C44.4206 69.4076 44.526 69.4883 44.6172 69.5898C44.7109 69.6914 44.7617 69.8125 44.7695 69.9531V70.1172V70.7852C44.7539 70.9414 44.668 71.026 44.5117 71.0391C44.4388 71.0391 44.375 71.0156 44.3203 70.9688C44.2682 70.9193 44.2422 70.8581 44.2422 70.7852V70.6133V70.0742C44.237 69.9935 44.2057 69.9271 44.1484 69.875C44.0938 69.8203 44.0312 69.7773 43.9609 69.7461C43.8932 69.7148 43.8216 69.6914 43.7461 69.6758C43.6732 69.6602 43.599 69.6523 43.5234 69.6523C43.4479 69.6523 43.3724 69.6602 43.2969 69.6758C43.224 69.6914 43.1523 69.7148 43.082 69.7461C43.0143 69.7773 42.9518 69.8203 42.8945 69.875C42.8398 69.9271 42.8099 69.9935 42.8047 70.0742V70.6133V70.7852C42.7917 70.9414 42.707 71.026 42.5508 71.0391C42.4779 71.0391 42.4141 71.0156 42.3594 70.9688C42.3073 70.9193 42.2812 70.8581 42.2812 70.7852V70.1172V69.9531C42.2891 69.8125 42.3385 69.6914 42.4297 69.5898C42.5208 69.4883 42.6263 69.4076 42.7461 69.3477C42.8659 69.2852 42.9909 69.2383 43.1211 69.207C43.2539 69.1758 43.388 69.1602 43.5234 69.1602ZM47.4414 68.8789C47.457 68.7227 47.543 68.638 47.6992 68.625C47.7721 68.625 47.8346 68.6497 47.8867 68.6992C47.9414 68.7461 47.9688 68.806 47.9688 68.8789V70.7383C47.9661 70.8112 47.9388 70.8724 47.8867 70.9219C47.8346 70.9688 47.7721 70.9922 47.6992 70.9922H46.0586C45.8294 70.9844 45.6562 70.931 45.5391 70.832C45.4219 70.7305 45.3372 70.6172 45.2852 70.4922C45.2331 70.3646 45.207 70.2357 45.207 70.1055C45.207 69.9701 45.2318 69.8398 45.2812 69.7148C45.3333 69.5872 45.418 69.474 45.5352 69.375C45.6549 69.2734 45.806 69.2214 45.9883 69.2188H46.9727C47.0456 69.2188 47.1068 69.2448 47.1562 69.2969C47.2083 69.3464 47.2344 69.4076 47.2344 69.4805C47.2344 69.5534 47.2083 69.6159 47.1562 69.668C47.1068 69.7174 47.0456 69.7422 46.9727 69.7422H45.9727C45.9232 69.7422 45.8802 69.763 45.8438 69.8047C45.8073 69.8438 45.7799 69.8906 45.7617 69.9453C45.7461 69.9974 45.7383 70.0495 45.7383 70.1016C45.7383 70.1562 45.7461 70.2109 45.7617 70.2656C45.7799 70.3177 45.8073 70.3646 45.8438 70.4062C45.8802 70.4453 45.9232 70.4661 45.9727 70.4688H47.3398C47.4076 70.4661 47.4414 70.4323 47.4414 70.3672V68.8789ZM50.9648 69.4453C50.9648 69.5104 50.9388 69.5651 50.8867 69.6094C50.8372 69.651 50.776 69.6719 50.7031 69.6719H49.0508C49.0169 69.6719 48.9896 69.6784 48.9688 69.6914C48.9479 69.7044 48.9323 69.7188 48.9219 69.7344C48.9115 69.7474 48.9062 69.7591 48.9062 69.7695C48.9062 69.7826 48.9115 69.7969 48.9219 69.8125C48.9323 69.8255 48.9479 69.8385 48.9688 69.8516C48.9896 69.862 49.0169 69.8685 49.0508 69.8711H50.3281C50.4922 69.8737 50.6276 69.9062 50.7344 69.9688C50.8411 70.0286 50.9167 70.1003 50.9609 70.1836C51.0078 70.2643 51.0312 70.3464 51.0312 70.4297C51.0312 70.5104 51.0078 70.5924 50.9609 70.6758C50.9141 70.7565 50.8372 70.8281 50.7305 70.8906C50.6263 70.9505 50.4922 70.9805 50.3281 70.9805C50.2995 70.9831 50.2786 70.9844 50.2656 70.9844H48.75C48.6771 70.9844 48.6146 70.9635 48.5625 70.9219C48.513 70.8776 48.4883 70.8242 48.4883 70.7617C48.4883 70.6966 48.5143 70.6419 48.5664 70.5977C48.6159 70.556 48.6771 70.5352 48.75 70.5352H50.3594C50.3984 70.5378 50.4297 70.5326 50.4531 70.5195C50.4792 70.5065 50.4987 70.4922 50.5117 70.4766C50.5247 70.4609 50.5312 70.4453 50.5312 70.4297C50.5312 70.4219 50.5247 70.4089 50.5117 70.3906C50.4987 70.3698 50.4792 70.3542 50.4531 70.3438C50.4297 70.3307 50.3984 70.3229 50.3594 70.3203H49.0781C48.9271 70.3177 48.8021 70.2865 48.7031 70.2266C48.6042 70.1641 48.5339 70.0924 48.4922 70.0117C48.4505 69.931 48.4297 69.8503 48.4297 69.7695C48.4297 69.6888 48.4505 69.6094 48.4922 69.5312C48.5365 69.4505 48.6068 69.3815 48.7031 69.3242C48.8021 69.2643 48.9271 69.2318 49.0781 69.2266C49.1042 69.224 49.1237 69.2227 49.1367 69.2227H50.7031C50.776 69.2227 50.8372 69.2448 50.8867 69.2891C50.9388 69.3307 50.9648 69.3828 50.9648 69.4453ZM54.293 69.1602C54.3841 69.1602 54.4727 69.1758 54.5586 69.207C54.6471 69.2383 54.7318 69.2839 54.8125 69.3438C54.8255 69.3568 54.8398 69.3698 54.8555 69.3828C54.8685 69.3698 54.8828 69.3568 54.8984 69.3438C54.9792 69.2839 55.0625 69.2383 55.1484 69.207C55.237 69.1758 55.3255 69.1602 55.4141 69.1602C55.5052 69.1602 55.5938 69.1758 55.6797 69.207C55.7682 69.2383 55.8516 69.2852 55.9297 69.3477C56.0104 69.4076 56.0807 69.4883 56.1406 69.5898C56.2031 69.6914 56.2344 69.8125 56.2344 69.9531V70.7852C56.2188 70.9414 56.1328 71.026 55.9766 71.0391C55.9036 71.0391 55.8398 71.0156 55.7852 70.9688C55.7331 70.9193 55.707 70.8581 55.707 70.7852V69.9844C55.707 69.9219 55.6953 69.8698 55.6719 69.8281C55.6484 69.7839 55.6224 69.75 55.5938 69.7266C55.5651 69.7005 55.5352 69.6823 55.5039 69.6719C55.4727 69.6589 55.4414 69.6523 55.4102 69.6523C55.3789 69.6523 55.3477 69.6589 55.3164 69.6719C55.2878 69.6823 55.2591 69.7005 55.2305 69.7266C55.2018 69.75 55.1758 69.7839 55.1523 69.8281C55.1289 69.8698 55.1159 69.9219 55.1133 69.9844V70.7852C55.0977 70.9414 55.0117 71.026 54.8555 71.0391C54.7826 71.0391 54.7188 71.0156 54.6641 70.9688C54.612 70.9193 54.5859 70.8581 54.5859 70.7852V69.9844C54.5859 69.9219 54.5742 69.8698 54.5508 69.8281C54.5273 69.7839 54.5013 69.75 54.4727 69.7266C54.444 69.7005 54.4141 69.6823 54.3828 69.6719C54.3516 69.6589 54.3203 69.6523 54.2891 69.6523C54.2578 69.6523 54.2266 69.6589 54.1953 69.6719C54.1667 69.6823 54.138 69.7005 54.1094 69.7266C54.0807 69.75 54.0547 69.7839 54.0312 69.8281C54.0078 69.8698 53.9948 69.9219 53.9922 69.9844V70.7852C53.9792 70.9414 53.8945 71.026 53.7383 71.0391C53.6654 71.0391 53.6016 71.0156 53.5469 70.9688C53.4948 70.9193 53.4688 70.8581 53.4688 70.7852V69.9531C53.474 69.8125 53.5065 69.6914 53.5664 69.5898C53.6263 69.4883 53.6966 69.4076 53.7773 69.3477C53.8581 69.2852 53.9414 69.2383 54.0273 69.207C54.1159 69.1758 54.2044 69.1602 54.293 69.1602ZM57.5273 70.9922C57.2982 70.9844 57.125 70.931 57.0078 70.832C56.8906 70.7305 56.806 70.6172 56.7539 70.4922C56.7018 70.3646 56.6758 70.2357 56.6758 70.1055C56.6758 69.9701 56.7005 69.8398 56.75 69.7148C56.8021 69.5872 56.8867 69.474 57.0039 69.375C57.1237 69.2734 57.2747 69.2214 57.457 69.2188H58.7227C58.9049 69.2214 59.0547 69.2734 59.1719 69.375C59.2917 69.474 59.3763 69.5872 59.4258 69.7148C59.4779 69.8398 59.5039 69.9701 59.5039 70.1055C59.5039 70.2357 59.4779 70.3646 59.4258 70.4922C59.3737 70.6172 59.2891 70.7305 59.1719 70.832C59.0547 70.931 58.8815 70.9844 58.6523 70.9922H57.5273ZM57.4414 69.7422C57.3919 69.7422 57.349 69.763 57.3125 69.8047C57.276 69.8438 57.2487 69.8906 57.2305 69.9453C57.2148 69.9974 57.207 70.0495 57.207 70.1016C57.207 70.1562 57.2148 70.2109 57.2305 70.2656C57.2487 70.3177 57.276 70.3646 57.3125 70.4062C57.349 70.4453 57.3919 70.4661 57.4414 70.4688H58.7383C58.7878 70.4661 58.8307 70.4453 58.8672 70.4062C58.9036 70.3646 58.9297 70.3177 58.9453 70.2656C58.9635 70.2109 58.9727 70.1562 58.9727 70.1016C58.9727 70.0495 58.9635 69.9974 58.9453 69.9453C58.9297 69.8906 58.9036 69.8438 58.8672 69.8047C58.8307 69.763 58.7878 69.7422 58.7383 69.7422H57.4414ZM62.1289 68.8789C62.1445 68.7227 62.2305 68.638 62.3867 68.625C62.4596 68.625 62.5221 68.6497 62.5742 68.6992C62.6289 68.7461 62.6562 68.806 62.6562 68.8789V70.7383C62.6536 70.8112 62.6263 70.8724 62.5742 70.9219C62.5221 70.9688 62.4596 70.9922 62.3867 70.9922H60.7461C60.5169 70.9844 60.3438 70.931 60.2266 70.832C60.1094 70.7305 60.0247 70.6172 59.9727 70.4922C59.9206 70.3646 59.8945 70.2357 59.8945 70.1055C59.8945 69.9701 59.9193 69.8398 59.9688 69.7148C60.0208 69.5872 60.1055 69.474 60.2227 69.375C60.3424 69.2734 60.4935 69.2214 60.6758 69.2188H61.6602C61.7331 69.2188 61.7943 69.2448 61.8438 69.2969C61.8958 69.3464 61.9219 69.4076 61.9219 69.4805C61.9219 69.5534 61.8958 69.6159 61.8438 69.668C61.7943 69.7174 61.7331 69.7422 61.6602 69.7422H60.6602C60.6107 69.7422 60.5677 69.763 60.5312 69.8047C60.4948 69.8438 60.4674 69.8906 60.4492 69.9453C60.4336 69.9974 60.4258 70.0495 60.4258 70.1016C60.4258 70.1562 60.4336 70.2109 60.4492 70.2656C60.4674 70.3177 60.4948 70.3646 60.5312 70.4062C60.5677 70.4453 60.6107 70.4661 60.6602 70.4688H62.0273C62.0951 70.4661 62.1289 70.4323 62.1289 70.3672V68.8789ZM63.9727 70.9922C63.7435 70.9844 63.5703 70.931 63.4531 70.832C63.3359 70.7305 63.2513 70.6172 63.1992 70.4922C63.1471 70.3646 63.1211 70.2357 63.1211 70.1055C63.1211 69.9701 63.1458 69.8398 63.1953 69.7148C63.2474 69.5872 63.332 69.474 63.4492 69.375C63.569 69.2734 63.7201 69.2214 63.9023 69.2188H65.3867C65.4596 69.2188 65.5208 69.2435 65.5703 69.293C65.6224 69.3398 65.6484 69.3971 65.6484 69.4648C65.6484 69.5352 65.6224 69.5951 65.5703 69.6445C65.5208 69.6914 65.4596 69.7148 65.3867 69.7148H63.9258C63.8685 69.7148 63.8177 69.7344 63.7734 69.7734C63.7318 69.8125 63.7005 69.8633 63.6797 69.9258C63.6615 69.9883 63.6523 70.0495 63.6523 70.1094C63.6523 70.1745 63.6615 70.2383 63.6797 70.3008C63.7005 70.3633 63.7318 70.4141 63.7734 70.4531C63.8177 70.4896 63.8685 70.5091 63.9258 70.5117H65.3867C65.4596 70.5117 65.5208 70.5352 65.5703 70.582C65.6224 70.6289 65.6484 70.6849 65.6484 70.75C65.6484 70.8177 65.6224 70.875 65.5703 70.9219C65.5208 70.9688 65.4596 70.9922 65.3867 70.9922H63.9727ZM65.6016 70.0977C65.6016 70.1471 65.5794 70.1901 65.5352 70.2266C65.4961 70.2604 65.4466 70.2773 65.3867 70.2773H64.1094C64.0495 70.2773 63.9987 70.2604 63.957 70.2266C63.9154 70.1901 63.8945 70.1471 63.8945 70.0977C63.8945 70.0508 63.9154 70.0091 63.957 69.9727C63.9987 69.9388 64.0495 69.9219 64.1094 69.9219H65.3867C65.4466 69.9219 65.4974 69.9401 65.5391 69.9766C65.5807 70.0104 65.6016 70.0508 65.6016 70.0977ZM66.5 71.0547C66.3958 71.0547 66.3086 71.0182 66.2383 70.9453C66.1706 70.8724 66.1367 70.7812 66.1367 70.6719C66.1367 70.5625 66.1706 70.4714 66.2383 70.3984C66.3086 70.3255 66.3958 70.2891 66.5 70.2891C66.6042 70.2891 66.6914 70.3255 66.7617 70.3984C66.832 70.4714 66.8672 70.5625 66.8672 70.6719C66.8672 70.7812 66.832 70.8724 66.7617 70.9453C66.6914 71.0182 66.6042 71.0547 66.5 71.0547Z" fill="#537790"/>
<g filter="url(#filter0_b_64_1668)">
<rect x="-2" width="98" height="97" rx="22" fill="#D9D9D9" fill-opacity="0.1"/>
</g>
<path d="M51 46V45C51 43.9391 50.5786 42.9217 49.8284 42.1716C49.0783 41.4214 48.0609 41 47 41C45.9391 41 44.9217 41.4214 44.1716 42.1716C43.4214 42.9217 43 43.9391 43 45V46" fill="#54555A"/>
<path d="M51 46V45C51 43.9391 50.5786 42.9217 49.8284 42.1716C49.0783 41.4214 48.0609 41 47 41C45.9391 41 44.9217 41.4214 44.1716 42.1716C43.4214 42.9217 43 43.9391 43 45V46" stroke="#54555A" stroke-width="2" stroke-linecap="round"/>
<path fill-rule="evenodd" clip-rule="evenodd" d="M38.879 45.879C38 46.757 38 48.172 38 51V52C38 55.771 38 57.657 39.172 58.828C40.343 60 42.229 60 46 60H48C51.771 60 53.657 60 54.828 58.828C56 57.657 56 55.771 56 52V51C56 48.172 56 46.757 55.121 45.879C54.243 45 52.828 45 50 45H44C41.172 45 39.757 45 38.879 45.879ZM47 53C47.2652 53 47.5196 52.8946 47.7071 52.7071C47.8946 52.5196 48 52.2652 48 52C48 51.7348 47.8946 51.4804 47.7071 51.2929C47.5196 51.1054 47.2652 51 47 51C46.7348 51 46.4804 51.1054 46.2929 51.2929C46.1054 51.4804 46 51.7348 46 52C46 52.2652 46.1054 52.5196 46.2929 52.7071C46.4804 52.8946 46.7348 53 47 53ZM50 52C50.0002 52.6206 49.8079 53.226 49.4498 53.7329C49.0916 54.2397 48.5851 54.623 48 54.83V57H46V54.83C45.4811 54.6468 45.0226 54.3245 44.6746 53.8984C44.3266 53.4722 44.1024 52.9585 44.0266 52.4135C43.9508 51.8686 44.0263 51.3132 44.2448 50.8082C44.4634 50.3033 44.8165 49.8681 45.2657 49.5503C45.7149 49.2325 46.2428 49.0443 46.7917 49.0063C47.3407 48.9683 47.8895 49.082 48.3781 49.3348C48.8668 49.5877 49.2766 49.9701 49.5626 50.4401C49.8487 50.9101 50 51.4498 50 52Z" fill="#54555A"/>
</g>
<defs>
<filter id="filter0_b_64_1668" x="-4" y="-2" width="102" height="101" filterUnits="userSpaceOnUse" color-interpolation-filters="sRGB">
<feFlood flood-opacity="0" result="BackgroundImageFix"/>
<feGaussianBlur in="BackgroundImageFix" stdDeviation="1"/>
<feComposite in2="SourceAlpha" operator="in" result="effect1_backgroundBlur_64_1668"/>
<feBlend mode="normal" in="SourceGraphic" in2="effect1_backgroundBlur_64_1668" result="shape"/>
</filter>
<clipPath id="clip0_64_1668">
<rect width="96" height="97" rx="22" fill="white"/>
</clipPath>
</defs>
</svg>
