<svg width="96" height="97" viewBox="0 0 96 97" fill="none" xmlns="http://www.w3.org/2000/svg">
<rect width="96" height="97" rx="22" fill="#F4F4F4"/>
<path d="M12.0693 52.2051C11.7308 52.2051 11.3955 52.166 11.0635 52.0879C10.738 52.0098 10.4255 51.8958 10.126 51.7461C9.8265 51.5898 9.56283 51.3848 9.33496 51.1309C9.1071 50.877 8.9834 50.5742 8.96387 50.2227V49.8125V46.6973C8.96387 46.515 9.02897 46.3652 9.15918 46.248C9.2959 46.1243 9.4554 46.0625 9.6377 46.0625C10.0283 46.0951 10.2399 46.3066 10.2725 46.6973V49.9199C10.2855 50.1217 10.3604 50.291 10.4971 50.4277C10.6403 50.5579 10.7965 50.6621 10.9658 50.7402C11.1416 50.8184 11.3206 50.877 11.5029 50.916C11.6917 50.9551 11.8805 50.9746 12.0693 50.9746C12.2581 50.9746 12.4437 50.9551 12.626 50.916C12.8148 50.877 12.9938 50.8184 13.1631 50.7402C13.3389 50.6621 13.4951 50.5579 13.6318 50.4277C13.7751 50.291 13.8532 50.1217 13.8662 49.9199V46.6973C13.8662 46.515 13.9313 46.3652 14.0615 46.248C14.1982 46.1243 14.3577 46.0625 14.54 46.0625C14.9307 46.0951 15.1455 46.3066 15.1846 46.6973V49.8125V50.2227C15.165 50.5742 15.0381 50.877 14.8037 51.1309C14.5758 51.3848 14.3122 51.5898 14.0127 51.7461C13.7132 51.8958 13.3975 52.0098 13.0654 52.0879C12.7399 52.166 12.4079 52.2051 12.0693 52.2051ZM19.5986 47.4004C19.9372 47.4004 20.2692 47.4395 20.5947 47.5176C20.9268 47.5957 21.2425 47.7129 21.542 47.8691C21.8415 48.0189 22.1051 48.2207 22.333 48.4746C22.5674 48.7285 22.6943 49.0312 22.7139 49.3828V49.793V51.4629C22.6748 51.8535 22.46 52.0651 22.0693 52.0977C21.887 52.0977 21.7275 52.0391 21.5908 51.9219C21.4606 51.7982 21.3955 51.6452 21.3955 51.4629V51.0332V49.6855C21.3825 49.4837 21.3044 49.3177 21.1611 49.1875C21.0244 49.0508 20.8682 48.9434 20.6924 48.8652C20.5231 48.7871 20.3441 48.7285 20.1553 48.6895C19.973 48.6504 19.7874 48.6309 19.5986 48.6309C19.4098 48.6309 19.221 48.6504 19.0322 48.6895C18.8499 48.7285 18.6709 48.7871 18.4951 48.8652C18.3258 48.9434 18.1696 49.0508 18.0264 49.1875C17.8896 49.3177 17.8148 49.4837 17.8018 49.6855V51.0332V51.4629C17.7692 51.8535 17.5576 52.0651 17.167 52.0977C16.9847 52.0977 16.8252 52.0391 16.6885 51.9219C16.5583 51.7982 16.4932 51.6452 16.4932 51.4629V49.793V49.3828C16.5127 49.0312 16.6364 48.7285 16.8643 48.4746C17.0921 48.2207 17.3558 48.0189 17.6553 47.8691C17.9548 47.7129 18.2673 47.5957 18.5928 47.5176C18.9248 47.4395 19.2601 47.4004 19.5986 47.4004ZM30.1553 48.1133C30.1553 48.276 30.0902 48.4128 29.96 48.5234C29.8363 48.6276 29.6833 48.6797 29.501 48.6797H25.3701C25.2855 48.6797 25.2171 48.696 25.165 48.7285C25.113 48.7611 25.0739 48.7969 25.0479 48.8359C25.0218 48.8685 25.0088 48.8978 25.0088 48.9238C25.0088 48.9564 25.0218 48.9922 25.0479 49.0312C25.0739 49.0638 25.113 49.0964 25.165 49.1289C25.2171 49.1549 25.2855 49.1712 25.3701 49.1777H28.5635C28.9736 49.1842 29.3122 49.2656 29.5791 49.4219C29.846 49.5716 30.0348 49.7507 30.1455 49.959C30.2627 50.1608 30.3213 50.3659 30.3213 50.5742C30.3213 50.776 30.2627 50.9811 30.1455 51.1895C30.0283 51.3913 29.8363 51.5703 29.5693 51.7266C29.3089 51.8763 28.9736 51.9512 28.5635 51.9512C28.4919 51.9577 28.4398 51.9609 28.4072 51.9609H24.6182C24.4359 51.9609 24.2796 51.9089 24.1494 51.8047C24.0257 51.694 23.9639 51.5605 23.9639 51.4043C23.9639 51.2415 24.029 51.1048 24.1592 50.9941C24.2829 50.89 24.4359 50.8379 24.6182 50.8379H28.6416C28.7393 50.8444 28.8174 50.8314 28.876 50.7988C28.9411 50.7663 28.9899 50.7305 29.0225 50.6914C29.055 50.6523 29.0713 50.6133 29.0713 50.5742C29.0713 50.5547 29.055 50.5221 29.0225 50.4766C28.9899 50.4245 28.9411 50.3854 28.876 50.3594C28.8174 50.3268 28.7393 50.3073 28.6416 50.3008H25.4385C25.0609 50.2943 24.7484 50.2161 24.501 50.0664C24.2536 49.9102 24.0778 49.7311 23.9736 49.5293C23.8695 49.3275 23.8174 49.1257 23.8174 48.9238C23.8174 48.722 23.8695 48.5234 23.9736 48.3281C24.0843 48.1263 24.2601 47.9538 24.501 47.8105C24.7484 47.6608 25.0609 47.5794 25.4385 47.5664C25.5036 47.5599 25.5524 47.5566 25.585 47.5566H29.501C29.6833 47.5566 29.8363 47.612 29.96 47.7227C30.0902 47.8268 30.1553 47.957 30.1553 48.1133ZM33.5244 46.0625C33.7067 46.0625 33.863 46.1243 33.9932 46.248C34.1234 46.3652 34.1917 46.515 34.1982 46.6973V47.5469H37.5186C37.7008 47.5469 37.8571 47.6087 37.9873 47.7324C38.111 47.8626 38.1729 48.0189 38.1729 48.2012C38.1729 48.3835 38.1077 48.5397 37.9775 48.6699C37.8538 48.7936 37.7008 48.8555 37.5186 48.8555H34.1982V49.0508C34.1917 49.3177 34.208 49.5651 34.2471 49.793C34.2926 50.0143 34.3968 50.2129 34.5596 50.3887C34.7223 50.5645 34.9274 50.6589 35.1748 50.6719H37.5576C37.7399 50.6784 37.8896 50.7467 38.0068 50.877C38.1305 51.0072 38.1924 51.1634 38.1924 51.3457C38.1859 51.5215 38.1208 51.6712 37.9971 51.7949C37.8799 51.9121 37.7334 51.974 37.5576 51.9805H34.8428C34.387 51.9544 34.0094 51.8014 33.71 51.5215C33.417 51.235 33.2054 50.8867 33.0752 50.4766C32.9515 50.0664 32.8864 49.6302 32.8799 49.168V48.8555H31.7568C31.5745 48.8555 31.4215 48.7904 31.2979 48.6602C31.1676 48.5365 31.1025 48.3835 31.1025 48.2012C31.1025 48.0189 31.1644 47.8659 31.2881 47.7422C31.4183 47.612 31.5745 47.5469 31.7568 47.5469H32.8799V46.6973C32.8864 46.5215 32.9515 46.375 33.0752 46.2578C33.1989 46.1341 33.3486 46.069 33.5244 46.0625ZM41.1514 51.9805C40.5785 51.9609 40.1455 51.8275 39.8525 51.5801C39.5596 51.3262 39.348 51.043 39.2178 50.7305C39.0876 50.4115 39.0225 50.0892 39.0225 49.7637C39.0225 49.4251 39.0843 49.0996 39.208 48.7871C39.3382 48.4681 39.5498 48.1849 39.8428 47.9375C40.1423 47.6836 40.5199 47.5534 40.9756 47.5469H44.1396C44.5954 47.5534 44.9697 47.6836 45.2627 47.9375C45.5622 48.1849 45.7738 48.4681 45.8975 48.7871C46.0277 49.0996 46.0928 49.4251 46.0928 49.7637C46.0928 50.0892 46.0277 50.4115 45.8975 50.7305C45.7673 51.043 45.5557 51.3262 45.2627 51.5801C44.9697 51.8275 44.5368 51.9609 43.9639 51.9805H41.1514ZM40.9365 48.8555C40.8128 48.8555 40.7054 48.9076 40.6143 49.0117C40.5231 49.1094 40.4548 49.2266 40.4092 49.3633C40.3701 49.4935 40.3506 49.6237 40.3506 49.7539C40.3506 49.8906 40.3701 50.0273 40.4092 50.1641C40.4548 50.2943 40.5231 50.4115 40.6143 50.5156C40.7054 50.6133 40.8128 50.6654 40.9365 50.6719H44.1787C44.3024 50.6654 44.4098 50.6133 44.501 50.5156C44.5921 50.4115 44.6572 50.2943 44.6963 50.1641C44.7419 50.0273 44.7646 49.8906 44.7646 49.7539C44.7646 49.6237 44.7419 49.4935 44.6963 49.3633C44.6572 49.2266 44.5921 49.1094 44.501 49.0117C44.4098 48.9076 44.3024 48.8555 44.1787 48.8555H40.9365ZM48.5342 52.8301C48.4951 53.2207 48.2803 53.4323 47.8896 53.4648C47.7074 53.4648 47.5479 53.403 47.4111 53.2793C47.2809 53.1621 47.2158 53.0124 47.2158 52.8301V48.1816C47.2223 47.9993 47.2907 47.8496 47.4209 47.7324C47.5511 47.6087 47.7074 47.5469 47.8896 47.5469H51.9912C52.5641 47.5664 52.9971 47.7031 53.29 47.957C53.583 48.2044 53.7946 48.4876 53.9248 48.8066C54.055 49.1191 54.1201 49.4382 54.1201 49.7637C54.1201 50.1022 54.055 50.431 53.9248 50.75C53.8011 51.0625 53.5895 51.3457 53.29 51.5996C52.9971 51.847 52.6227 51.974 52.167 51.9805H49.7061C49.5238 51.9805 49.3708 51.9154 49.2471 51.7852C49.1169 51.6615 49.0518 51.5085 49.0518 51.3262C49.0518 51.1439 49.1136 50.9909 49.2373 50.8672C49.3675 50.737 49.5238 50.6719 49.7061 50.6719H52.2061C52.3298 50.6719 52.4372 50.623 52.5283 50.5254C52.6195 50.4212 52.6846 50.304 52.7236 50.1738C52.7692 50.0371 52.792 49.9036 52.792 49.7734C52.792 49.6367 52.7692 49.5033 52.7236 49.373C52.6846 49.2363 52.6195 49.1191 52.5283 49.0215C52.4372 48.9173 52.3298 48.862 52.2061 48.8555H48.7881C48.6188 48.862 48.5342 48.9466 48.5342 49.1094V52.8301ZM56.6299 52.8301C56.5908 53.2207 56.376 53.4323 55.9854 53.4648C55.8031 53.4648 55.6436 53.403 55.5068 53.2793C55.3766 53.1621 55.3115 53.0124 55.3115 52.8301V48.1816C55.318 47.9993 55.3864 47.8496 55.5166 47.7324C55.6468 47.6087 55.8031 47.5469 55.9854 47.5469H60.0869C60.6598 47.5664 61.0928 47.7031 61.3857 47.957C61.6787 48.2044 61.8903 48.4876 62.0205 48.8066C62.1507 49.1191 62.2158 49.4382 62.2158 49.7637C62.2158 50.1022 62.1507 50.431 62.0205 50.75C61.8968 51.0625 61.6852 51.3457 61.3857 51.5996C61.0928 51.847 60.7184 51.974 60.2627 51.9805H57.8018C57.6195 51.9805 57.4665 51.9154 57.3428 51.7852C57.2126 51.6615 57.1475 51.5085 57.1475 51.3262C57.1475 51.1439 57.2093 50.9909 57.333 50.8672C57.4632 50.737 57.6195 50.6719 57.8018 50.6719H60.3018C60.4255 50.6719 60.5329 50.623 60.624 50.5254C60.7152 50.4212 60.7803 50.304 60.8193 50.1738C60.8649 50.0371 60.8877 49.9036 60.8877 49.7734C60.8877 49.6367 60.8649 49.5033 60.8193 49.373C60.7803 49.2363 60.7152 49.1191 60.624 49.0215C60.5329 48.9173 60.4255 48.862 60.3018 48.8555H56.8838C56.7145 48.862 56.6299 48.9466 56.6299 49.1094V52.8301ZM68.8662 51.4629V49.1094C68.8662 48.9466 68.7816 48.862 68.6123 48.8555H65.1943C65.0706 48.862 64.9632 48.9173 64.8721 49.0215C64.7809 49.1191 64.7126 49.2363 64.667 49.373C64.6279 49.5033 64.6084 49.6367 64.6084 49.7734C64.6084 49.9036 64.6279 50.0371 64.667 50.1738C64.7126 50.304 64.7809 50.4212 64.8721 50.5254C64.9632 50.623 65.0706 50.6719 65.1943 50.6719H67.6943C67.8766 50.6719 68.0296 50.737 68.1533 50.8672C68.2835 50.9909 68.3486 51.1439 68.3486 51.3262C68.3486 51.5085 68.2835 51.6615 68.1533 51.7852C68.0296 51.9154 67.8766 51.9805 67.6943 51.9805H65.2334C64.7777 51.974 64.4001 51.847 64.1006 51.5996C63.8076 51.3457 63.596 51.0625 63.4658 50.75C63.3421 50.431 63.2803 50.1022 63.2803 49.7637C63.2803 49.4382 63.3454 49.1191 63.4756 48.8066C63.6058 48.4876 63.8174 48.2044 64.1104 47.957C64.4033 47.7031 64.8363 47.5664 65.4092 47.5469H69.5107C69.693 47.5469 69.8493 47.6087 69.9795 47.7324C70.1097 47.8496 70.1781 47.9993 70.1846 48.1816V51.4629C70.1846 51.6452 70.1162 51.7982 69.9795 51.9219C69.8493 52.0391 69.693 52.0977 69.5107 52.0977C69.1201 52.0651 68.9053 51.8535 68.8662 51.4629ZM72.7627 46.6973V50.418C72.7627 50.5807 72.8473 50.6654 73.0166 50.6719H76.4346C76.5583 50.6654 76.6657 50.6133 76.7568 50.5156C76.848 50.4115 76.9131 50.2943 76.9521 50.1641C76.9977 50.0273 77.0205 49.8906 77.0205 49.7539C77.0205 49.6237 76.9977 49.4935 76.9521 49.3633C76.9131 49.2266 76.848 49.1094 76.7568 49.0117C76.6657 48.9076 76.5583 48.8555 76.4346 48.8555H73.9346C73.7523 48.8555 73.596 48.7936 73.4658 48.6699C73.3421 48.5397 73.2803 48.3835 73.2803 48.2012C73.2803 48.0189 73.3454 47.8659 73.4756 47.7422C73.5993 47.612 73.7523 47.5469 73.9346 47.5469H76.3955C76.8512 47.5534 77.2256 47.6836 77.5186 47.9375C77.818 48.1849 78.0296 48.4681 78.1533 48.7871C78.2835 49.0996 78.3486 49.4251 78.3486 49.7637C78.3486 50.0892 78.2835 50.4115 78.1533 50.7305C78.0231 51.043 77.8115 51.3262 77.5186 51.5801C77.2256 51.8275 76.7926 51.9609 76.2197 51.9805H72.1182C71.9359 51.9805 71.7796 51.9219 71.6494 51.8047C71.5192 51.681 71.4508 51.528 71.4443 51.3457V46.6973C71.4443 46.515 71.5094 46.3652 71.6396 46.248C71.7764 46.1243 71.9359 46.0625 72.1182 46.0625C72.5088 46.0951 72.7236 46.3066 72.7627 46.6973ZM80.0771 46.0625C80.2529 46.069 80.4027 46.1341 80.5264 46.2578C80.6501 46.375 80.7152 46.5215 80.7217 46.6973V51.4824C80.6826 51.873 80.4678 52.0846 80.0771 52.1172C79.8949 52.1172 79.7354 52.0586 79.5986 51.9414C79.4684 51.8177 79.4033 51.6647 79.4033 51.4824V46.6973C79.4098 46.515 79.4782 46.3652 79.6084 46.248C79.7386 46.1243 79.8949 46.0625 80.0771 46.0625ZM83.9639 51.9805C83.391 51.9609 82.958 51.8275 82.665 51.5801C82.3721 51.3262 82.1605 51.043 82.0303 50.7305C81.9001 50.4115 81.835 50.0892 81.835 49.7637C81.835 49.4251 81.8968 49.0996 82.0205 48.7871C82.1507 48.4681 82.3623 48.1849 82.6553 47.9375C82.9548 47.6836 83.3324 47.5534 83.7881 47.5469H87.499C87.6813 47.5469 87.8343 47.6087 87.958 47.7324C88.0882 47.8496 88.1533 47.9928 88.1533 48.1621C88.1533 48.3379 88.0882 48.4876 87.958 48.6113C87.8343 48.7285 87.6813 48.7871 87.499 48.7871H83.8467C83.7035 48.7871 83.5765 48.8359 83.4658 48.9336C83.3617 49.0312 83.2835 49.1582 83.2314 49.3145C83.1859 49.4707 83.1631 49.6237 83.1631 49.7734C83.1631 49.9362 83.1859 50.0957 83.2314 50.252C83.2835 50.4082 83.3617 50.5352 83.4658 50.6328C83.5765 50.724 83.7035 50.7728 83.8467 50.7793H87.499C87.6813 50.7793 87.8343 50.8379 87.958 50.9551C88.0882 51.0723 88.1533 51.2122 88.1533 51.375C88.1533 51.5443 88.0882 51.6875 87.958 51.8047C87.8343 51.9219 87.6813 51.9805 87.499 51.9805H83.9639ZM88.0361 49.7441C88.0361 49.8678 87.9808 49.9753 87.8701 50.0664C87.7725 50.151 87.6488 50.1934 87.499 50.1934H84.3057C84.1559 50.1934 84.029 50.151 83.9248 50.0664C83.8206 49.9753 83.7686 49.8678 83.7686 49.7441C83.7686 49.627 83.8206 49.5228 83.9248 49.4316C84.029 49.347 84.1559 49.3047 84.3057 49.3047H87.499C87.6488 49.3047 87.7757 49.3503 87.8799 49.4414C87.984 49.526 88.0361 49.627 88.0361 49.7441Z" fill="#72757A"/>
<path d="M22.5078 56.625C22.5807 56.625 22.6432 56.6497 22.6953 56.6992C22.7474 56.7461 22.7747 56.806 22.7773 56.8789V56.9531C22.7747 57.0599 22.7812 57.1589 22.7969 57.25C22.8151 57.3385 22.8568 57.418 22.9219 57.4883C22.987 57.5586 23.069 57.5964 23.168 57.6016H24.2656V56.8867C24.2656 56.8138 24.2917 56.7539 24.3438 56.707C24.3984 56.6576 24.4622 56.6328 24.5352 56.6328C24.6914 56.6458 24.7773 56.7305 24.793 56.8867V57.793C24.793 58.0013 24.7643 58.1979 24.707 58.3828C24.6549 58.5469 24.569 58.6862 24.4492 58.8008C24.332 58.9128 24.1823 58.974 24 58.9844H22.5938C22.5234 58.9818 22.4635 58.957 22.4141 58.9102C22.3672 58.8607 22.3424 58.8008 22.3398 58.7305C22.3398 58.6576 22.3633 58.5951 22.4102 58.543C22.4596 58.4909 22.5208 58.4635 22.5938 58.4609H23.8672C23.9661 58.4557 24.0482 58.418 24.1133 58.3477C24.1732 58.2826 24.2135 58.2083 24.2344 58.125H23.0352C22.8529 58.1146 22.7018 58.0534 22.582 57.9414C22.4648 57.8268 22.3802 57.6875 22.3281 57.5234C22.2786 57.3594 22.2526 57.1849 22.25 57V56.8789C22.2526 56.8086 22.2786 56.75 22.3281 56.7031C22.3776 56.6536 22.4375 56.6276 22.5078 56.625ZM26.1133 58.9922C25.8841 58.9844 25.7109 58.931 25.5938 58.832C25.4766 58.7305 25.3919 58.6172 25.3398 58.4922C25.2878 58.3646 25.2617 58.2357 25.2617 58.1055C25.2617 57.9701 25.2865 57.8398 25.3359 57.7148C25.388 57.5872 25.4727 57.474 25.5898 57.375C25.7096 57.2734 25.8607 57.2214 26.043 57.2188H27.3086C27.4909 57.2214 27.6406 57.2734 27.7578 57.375C27.8776 57.474 27.9622 57.5872 28.0117 57.7148C28.0638 57.8398 28.0898 57.9701 28.0898 58.1055C28.0898 58.2357 28.0638 58.3646 28.0117 58.4922C27.9596 58.6172 27.875 58.7305 27.7578 58.832C27.6406 58.931 27.4674 58.9844 27.2383 58.9922H26.1133ZM26.0273 57.7422C25.9779 57.7422 25.9349 57.763 25.8984 57.8047C25.862 57.8438 25.8346 57.8906 25.8164 57.9453C25.8008 57.9974 25.793 58.0495 25.793 58.1016C25.793 58.1562 25.8008 58.2109 25.8164 58.2656C25.8346 58.3177 25.862 58.3646 25.8984 58.4062C25.9349 58.4453 25.9779 58.4661 26.0273 58.4688H27.3242C27.3737 58.4661 27.4167 58.4453 27.4531 58.4062C27.4896 58.3646 27.5156 58.3177 27.5312 58.2656C27.5495 58.2109 27.5586 58.1562 27.5586 58.1016C27.5586 58.0495 27.5495 57.9974 27.5312 57.9453C27.5156 57.8906 27.4896 57.8438 27.4531 57.8047C27.4167 57.763 27.3737 57.7422 27.3242 57.7422H26.0273ZM29.7852 59.0586C29.6497 59.0586 29.5156 59.043 29.3828 59.0117C29.2526 58.9805 29.1276 58.9349 29.0078 58.875C28.888 58.8125 28.7826 58.7305 28.6914 58.6289C28.6003 58.5273 28.5508 58.4062 28.543 58.2656V58.1016V57.4336C28.543 57.3607 28.569 57.3008 28.6211 57.2539C28.6758 57.2044 28.7396 57.1797 28.8125 57.1797C28.9688 57.1927 29.0534 57.2773 29.0664 57.4336V57.6055V58.1445C29.0716 58.2253 29.1016 58.293 29.1562 58.3477C29.2135 58.3997 29.276 58.4414 29.3438 58.4727C29.4141 58.5039 29.4857 58.5273 29.5586 58.543C29.6341 58.5586 29.7096 58.5664 29.7852 58.5664C29.8607 58.5664 29.9349 58.5586 30.0078 58.543C30.0833 58.5273 30.1549 58.5039 30.2227 58.4727C30.293 58.4414 30.3555 58.3997 30.4102 58.3477C30.4674 58.293 30.4987 58.2253 30.5039 58.1445V57.6055V57.4336C30.5039 57.3607 30.5299 57.3008 30.582 57.2539C30.6367 57.2044 30.7005 57.1797 30.7734 57.1797C30.9297 57.1927 31.0156 57.2773 31.0312 57.4336V58.1016V58.2656C31.0234 58.4062 30.9727 58.5273 30.8789 58.6289C30.7878 58.7305 30.6823 58.8125 30.5625 58.875C30.4427 58.9349 30.3164 58.9805 30.1836 59.0117C30.0534 59.043 29.9206 59.0586 29.7852 59.0586ZM34.3242 58.9922C34.0951 58.9844 33.9219 58.931 33.8047 58.832C33.6875 58.7305 33.6029 58.6172 33.5508 58.4922C33.4987 58.3646 33.4727 58.2357 33.4727 58.1055C33.4727 57.9701 33.4974 57.8398 33.5469 57.7148C33.599 57.5872 33.6836 57.474 33.8008 57.375C33.9206 57.2734 34.0716 57.2214 34.2539 57.2188H35.7383C35.8112 57.2188 35.8724 57.2448 35.9219 57.2969C35.974 57.3464 36 57.4076 36 57.4805C36 57.5534 35.974 57.6159 35.9219 57.668C35.8724 57.7174 35.8112 57.7422 35.7383 57.7422H34.2383C34.1888 57.7422 34.1458 57.763 34.1094 57.8047C34.0729 57.8438 34.0456 57.8906 34.0273 57.9453C34.0117 57.9974 34.0039 58.0495 34.0039 58.1016C34.0039 58.1562 34.0117 58.2109 34.0273 58.2656C34.0456 58.3177 34.0729 58.3646 34.1094 58.4062C34.1458 58.4453 34.1888 58.4661 34.2383 58.4688H35.7383C35.8112 58.4688 35.8724 58.4948 35.9219 58.5469C35.974 58.5964 36 58.6576 36 58.7305C36 58.8034 35.974 58.8646 35.9219 58.9141C35.8724 58.9661 35.8112 58.9922 35.7383 58.9922H34.3242ZM38.5938 58.7852V57.8438C38.5938 57.7786 38.5599 57.7448 38.4922 57.7422H37.125C37.0755 57.7448 37.0326 57.7669 36.9961 57.8086C36.9596 57.8477 36.9323 57.8945 36.9141 57.9492C36.8984 58.0013 36.8906 58.0547 36.8906 58.1094C36.8906 58.1615 36.8984 58.2148 36.9141 58.2695C36.9323 58.3216 36.9596 58.3685 36.9961 58.4102C37.0326 58.4492 37.0755 58.4688 37.125 58.4688H38.125C38.1979 58.4688 38.2591 58.4948 38.3086 58.5469C38.3607 58.5964 38.3867 58.6576 38.3867 58.7305C38.3867 58.8034 38.3607 58.8646 38.3086 58.9141C38.2591 58.9661 38.1979 58.9922 38.125 58.9922H37.1406C36.9583 58.9896 36.8073 58.9388 36.6875 58.8398C36.5703 58.7383 36.4857 58.625 36.4336 58.5C36.3841 58.3724 36.3594 58.2409 36.3594 58.1055C36.3594 57.9753 36.3854 57.8477 36.4375 57.7227C36.4896 57.5951 36.5742 57.4818 36.6914 57.3828C36.8086 57.2812 36.9818 57.2266 37.2109 57.2188H38.8516C38.9245 57.2188 38.987 57.2435 39.0391 57.293C39.0911 57.3398 39.1185 57.3997 39.1211 57.4727V58.7852C39.1211 58.8581 39.0938 58.9193 39.0391 58.9688C38.987 59.0156 38.9245 59.0391 38.8516 59.0391C38.6953 59.026 38.6094 58.9414 38.5938 58.7852ZM40.8711 57.1602C41.0065 57.1602 41.1393 57.1758 41.2695 57.207C41.4023 57.2383 41.5286 57.2852 41.6484 57.3477C41.7682 57.4076 41.8737 57.4883 41.9648 57.5898C42.0586 57.6914 42.1094 57.8125 42.1172 57.9531V58.1172V58.7852C42.1016 58.9414 42.0156 59.026 41.8594 59.0391C41.7865 59.0391 41.7227 59.0156 41.668 58.9688C41.6159 58.9193 41.5898 58.8581 41.5898 58.7852V58.6133V58.0742C41.5846 57.9935 41.5534 57.9271 41.4961 57.875C41.4414 57.8203 41.3789 57.7773 41.3086 57.7461C41.2409 57.7148 41.1693 57.6914 41.0938 57.6758C41.0208 57.6602 40.9466 57.6523 40.8711 57.6523C40.7956 57.6523 40.7201 57.6602 40.6445 57.6758C40.5716 57.6914 40.5 57.7148 40.4297 57.7461C40.362 57.7773 40.2995 57.8203 40.2422 57.875C40.1875 57.9271 40.1576 57.9935 40.1523 58.0742V58.6133V58.7852C40.1393 58.9414 40.0547 59.026 39.8984 59.0391C39.8255 59.0391 39.7617 59.0156 39.707 58.9688C39.6549 58.9193 39.6289 58.8581 39.6289 58.7852V58.1172V57.9531C39.6367 57.8125 39.6862 57.6914 39.7773 57.5898C39.8685 57.4883 39.974 57.4076 40.0938 57.3477C40.2135 57.2852 40.3385 57.2383 40.4688 57.207C40.6016 57.1758 40.7357 57.1602 40.8711 57.1602ZM44.8828 56.625C44.9531 56.6276 45.013 56.6536 45.0625 56.7031C45.112 56.75 45.138 56.8086 45.1406 56.8789V58.793C45.125 58.9492 45.0391 59.0339 44.8828 59.0469C44.8099 59.0469 44.7461 59.0234 44.6914 58.9766C44.6393 58.9271 44.6133 58.8659 44.6133 58.793V56.8789C44.6159 56.806 44.6432 56.7461 44.6953 56.6992C44.7474 56.6497 44.8099 56.625 44.8828 56.625ZM46.4453 58.9922C46.2161 58.9844 46.043 58.931 45.9258 58.832C45.8086 58.7305 45.724 58.6172 45.6719 58.4922C45.6198 58.3646 45.5938 58.2357 45.5938 58.1055C45.5938 57.9701 45.6185 57.8398 45.668 57.7148C45.7201 57.5872 45.8047 57.474 45.9219 57.375C46.0417 57.2734 46.1927 57.2214 46.375 57.2188H47.6406C47.8229 57.2214 47.9727 57.2734 48.0898 57.375C48.2096 57.474 48.2943 57.5872 48.3438 57.7148C48.3958 57.8398 48.4219 57.9701 48.4219 58.1055C48.4219 58.2357 48.3958 58.3646 48.3438 58.4922C48.2917 58.6172 48.207 58.7305 48.0898 58.832C47.9727 58.931 47.7995 58.9844 47.5703 58.9922H46.4453ZM46.3594 57.7422C46.3099 57.7422 46.2669 57.763 46.2305 57.8047C46.194 57.8438 46.1667 57.8906 46.1484 57.9453C46.1328 57.9974 46.125 58.0495 46.125 58.1016C46.125 58.1562 46.1328 58.2109 46.1484 58.2656C46.1667 58.3177 46.194 58.3646 46.2305 58.4062C46.2669 58.4453 46.3099 58.4661 46.3594 58.4688H47.6562C47.7057 58.4661 47.7487 58.4453 47.7852 58.4062C47.8216 58.3646 47.8477 58.3177 47.8633 58.2656C47.8815 58.2109 47.8906 58.1562 47.8906 58.1016C47.8906 58.0495 47.8815 57.9974 47.8633 57.9453C47.8477 57.8906 47.8216 57.8438 47.7852 57.8047C47.7487 57.763 47.7057 57.7422 47.6562 57.7422H46.3594ZM49.6641 58.9922C49.4349 58.9844 49.2617 58.931 49.1445 58.832C49.0273 58.7305 48.9427 58.6172 48.8906 58.4922C48.8385 58.3646 48.8125 58.2357 48.8125 58.1055C48.8125 57.9701 48.8372 57.8398 48.8867 57.7148C48.9388 57.5872 49.0234 57.474 49.1406 57.375C49.2604 57.2734 49.4115 57.2214 49.5938 57.2188H51.0781C51.151 57.2188 51.2122 57.2448 51.2617 57.2969C51.3138 57.3464 51.3398 57.4076 51.3398 57.4805C51.3398 57.5534 51.3138 57.6159 51.2617 57.668C51.2122 57.7174 51.151 57.7422 51.0781 57.7422H49.5781C49.5286 57.7422 49.4857 57.763 49.4492 57.8047C49.4128 57.8438 49.3854 57.8906 49.3672 57.9453C49.3516 57.9974 49.3438 58.0495 49.3438 58.1016C49.3438 58.1562 49.3516 58.2109 49.3672 58.2656C49.3854 58.3177 49.4128 58.3646 49.4492 58.4062C49.4857 58.4453 49.5286 58.4661 49.5781 58.4688H51.0781C51.151 58.4688 51.2122 58.4948 51.2617 58.5469C51.3138 58.5964 51.3398 58.6576 51.3398 58.7305C51.3398 58.8034 51.3138 58.8646 51.2617 58.9141C51.2122 58.9661 51.151 58.9922 51.0781 58.9922H49.6641ZM52.0195 56.625C52.0898 56.6276 52.1497 56.6536 52.1992 56.7031C52.2487 56.75 52.2747 56.8086 52.2773 56.8789V58.793C52.2617 58.9492 52.1758 59.0339 52.0195 59.0469C51.9466 59.0469 51.8828 59.0234 51.8281 58.9766C51.776 58.9271 51.75 58.8659 51.75 58.793V56.8789C51.7526 56.806 51.7799 56.7461 51.832 56.6992C51.8841 56.6497 51.9466 56.625 52.0195 56.625ZM52.5156 57.7148C52.5911 57.5924 52.7357 57.5026 52.9492 57.4453L53.9531 57.1758C54.0234 57.1549 54.0898 57.1615 54.1523 57.1953C54.2174 57.2266 54.2604 57.2773 54.2812 57.3477C54.3047 57.4154 54.2995 57.4818 54.2656 57.5469C54.2344 57.6094 54.1836 57.6523 54.1133 57.6758L53.043 57.9531C52.9674 57.9818 52.931 58.0312 52.9336 58.1016C52.931 58.1719 52.9674 58.2214 53.043 58.25L54.1133 58.5273C54.1836 58.5508 54.2344 58.5951 54.2656 58.6602C54.2995 58.7227 54.3047 58.7878 54.2812 58.8555C54.2604 58.9258 54.2174 58.9766 54.1523 59.0078C54.0898 59.0417 54.0234 59.0482 53.9531 59.0273L52.9492 58.7578C52.7331 58.6979 52.5872 58.6068 52.5117 58.4844C52.4388 58.362 52.4023 58.2344 52.4023 58.1016C52.4023 57.9688 52.4401 57.8398 52.5156 57.7148ZM57.5508 56.625C57.6237 56.625 57.6862 56.6497 57.7383 56.6992C57.7904 56.7461 57.8177 56.806 57.8203 56.8789V57.2188H59.1484C59.2214 57.2188 59.2839 57.2435 59.3359 57.293C59.3854 57.3451 59.4102 57.4076 59.4102 57.4805C59.4102 57.5534 59.3841 57.6159 59.332 57.668C59.2826 57.7174 59.2214 57.7422 59.1484 57.7422H57.8203V57.8203C57.8177 57.9271 57.8242 58.026 57.8398 58.1172C57.8581 58.2057 57.8997 58.2852 57.9648 58.3555C58.0299 58.4258 58.112 58.4635 58.2109 58.4688H59.1641C59.237 58.4714 59.2969 58.4987 59.3438 58.5508C59.3932 58.6029 59.418 58.6654 59.418 58.7383C59.4154 58.8086 59.3893 58.8685 59.3398 58.918C59.293 58.9648 59.2344 58.9896 59.1641 58.9922H58.0781C57.8958 58.9818 57.7448 58.9206 57.625 58.8086C57.5078 58.694 57.4232 58.5547 57.3711 58.3906C57.3216 58.2266 57.2956 58.0521 57.293 57.8672V57.7422H56.8438C56.7708 57.7422 56.7096 57.7161 56.6602 57.6641C56.6081 57.6146 56.582 57.5534 56.582 57.4805C56.582 57.4076 56.6068 57.3464 56.6562 57.2969C56.7083 57.2448 56.7708 57.2188 56.8438 57.2188H57.293V56.8789C57.2956 56.8086 57.3216 56.75 57.3711 56.7031C57.4206 56.6536 57.4805 56.6276 57.5508 56.625ZM60.0625 56.625C60.1328 56.6276 60.1927 56.6536 60.2422 56.7031C60.2917 56.75 60.3177 56.8086 60.3203 56.8789V57.2188H61.5312C61.7135 57.2214 61.8633 57.2734 61.9805 57.375C62.1003 57.474 62.1849 57.5859 62.2344 57.7109C62.2865 57.8385 62.3125 57.9701 62.3125 58.1055H62.3164V58.7852C62.3164 58.8581 62.2891 58.9193 62.2344 58.9688C62.1823 59.0156 62.1198 59.0391 62.0469 59.0391C61.8906 59.026 61.8047 58.9414 61.7891 58.7852V58.1016C61.7891 58.0521 61.7786 58 61.7578 57.9453C61.7396 57.8906 61.7122 57.8438 61.6758 57.8047C61.6393 57.763 61.5964 57.7422 61.5469 57.7422H60.3203V58.793C60.3047 58.9492 60.2188 59.0339 60.0625 59.0469C59.9896 59.0469 59.9258 59.0234 59.8711 58.9766C59.819 58.9271 59.793 58.8659 59.793 58.793V56.8789C59.7956 56.806 59.8229 56.7461 59.875 56.6992C59.9271 56.6497 59.9896 56.625 60.0625 56.625ZM63.0781 57.1797C63.1484 57.1823 63.2083 57.2083 63.2578 57.2578C63.3073 57.3047 63.3333 57.3633 63.3359 57.4336V58.7852C63.3203 58.9414 63.2344 59.026 63.0781 59.0391C63.0052 59.0391 62.9414 59.0156 62.8867 58.9688C62.8346 58.9193 62.8086 58.8581 62.8086 58.7852V57.4336C62.8112 57.3607 62.8385 57.3008 62.8906 57.2539C62.9427 57.2044 63.0052 57.1797 63.0781 57.1797ZM62.75 56.6719C62.75 56.599 62.7812 56.5365 62.8438 56.4844C62.9062 56.4323 62.9818 56.4062 63.0703 56.4062C63.1589 56.4062 63.2344 56.4323 63.2969 56.4844C63.3594 56.5365 63.3906 56.599 63.3906 56.6719C63.3906 56.7474 63.3594 56.8112 63.2969 56.8633C63.2344 56.9154 63.1589 56.9414 63.0703 56.9414C62.9818 56.9414 62.9062 56.9154 62.8438 56.8633C62.7812 56.8112 62.75 56.7474 62.75 56.6719ZM66.293 57.4453C66.293 57.5104 66.2669 57.5651 66.2148 57.6094C66.1654 57.651 66.1042 57.6719 66.0312 57.6719H64.3789C64.3451 57.6719 64.3177 57.6784 64.2969 57.6914C64.276 57.7044 64.2604 57.7188 64.25 57.7344C64.2396 57.7474 64.2344 57.7591 64.2344 57.7695C64.2344 57.7826 64.2396 57.7969 64.25 57.8125C64.2604 57.8255 64.276 57.8385 64.2969 57.8516C64.3177 57.862 64.3451 57.8685 64.3789 57.8711H65.6562C65.8203 57.8737 65.9557 57.9062 66.0625 57.9688C66.1693 58.0286 66.2448 58.1003 66.2891 58.1836C66.3359 58.2643 66.3594 58.3464 66.3594 58.4297C66.3594 58.5104 66.3359 58.5924 66.2891 58.6758C66.2422 58.7565 66.1654 58.8281 66.0586 58.8906C65.9544 58.9505 65.8203 58.9805 65.6562 58.9805C65.6276 58.9831 65.6068 58.9844 65.5938 58.9844H64.0781C64.0052 58.9844 63.9427 58.9635 63.8906 58.9219C63.8411 58.8776 63.8164 58.8242 63.8164 58.7617C63.8164 58.6966 63.8424 58.6419 63.8945 58.5977C63.944 58.556 64.0052 58.5352 64.0781 58.5352H65.6875C65.7266 58.5378 65.7578 58.5326 65.7812 58.5195C65.8073 58.5065 65.8268 58.4922 65.8398 58.4766C65.8529 58.4609 65.8594 58.4453 65.8594 58.4297C65.8594 58.4219 65.8529 58.4089 65.8398 58.3906C65.8268 58.3698 65.8073 58.3542 65.7812 58.3438C65.7578 58.3307 65.7266 58.3229 65.6875 58.3203H64.4062C64.2552 58.3177 64.1302 58.2865 64.0312 58.2266C63.9323 58.1641 63.862 58.0924 63.8203 58.0117C63.7786 57.931 63.7578 57.8503 63.7578 57.7695C63.7578 57.6888 63.7786 57.6094 63.8203 57.5312C63.8646 57.4505 63.9349 57.3815 64.0312 57.3242C64.1302 57.2643 64.2552 57.2318 64.4062 57.2266C64.4323 57.224 64.4518 57.2227 64.4648 57.2227H66.0312C66.1042 57.2227 66.1654 57.2448 66.2148 57.2891C66.2669 57.3307 66.293 57.3828 66.293 57.4453ZM69.3203 56.8789V58.3672C69.3203 58.4323 69.3542 58.4661 69.4219 58.4688H70.7891C70.8385 58.4661 70.8815 58.4453 70.918 58.4062C70.9544 58.3646 70.9805 58.3177 70.9961 58.2656C71.0143 58.2109 71.0234 58.1562 71.0234 58.1016C71.0234 58.0495 71.0143 57.9974 70.9961 57.9453C70.9805 57.8906 70.9544 57.8438 70.918 57.8047C70.8815 57.763 70.8385 57.7422 70.7891 57.7422H69.7891C69.7161 57.7422 69.6536 57.7174 69.6016 57.668C69.5521 57.6159 69.5273 57.5534 69.5273 57.4805C69.5273 57.4076 69.5534 57.3464 69.6055 57.2969C69.6549 57.2448 69.7161 57.2188 69.7891 57.2188H70.7734C70.9557 57.2214 71.1055 57.2734 71.2227 57.375C71.3424 57.474 71.4271 57.5872 71.4766 57.7148C71.5286 57.8398 71.5547 57.9701 71.5547 58.1055C71.5547 58.2357 71.5286 58.3646 71.4766 58.4922C71.4245 58.6172 71.3398 58.7305 71.2227 58.832C71.1055 58.931 70.9323 58.9844 70.7031 58.9922H69.0625C68.9896 58.9922 68.9271 58.9688 68.875 58.9219C68.8229 58.8724 68.7956 58.8112 68.793 58.7383V56.8789C68.793 56.806 68.819 56.7461 68.8711 56.6992C68.9258 56.6497 68.9896 56.625 69.0625 56.625C69.2188 56.638 69.3047 56.7227 69.3203 56.8789ZM72.2383 57.1719C72.3112 57.1719 72.3737 57.1966 72.4258 57.2461C72.4779 57.293 72.5052 57.3529 72.5078 57.4258V57.8203C72.5052 57.9271 72.5117 58.026 72.5273 58.1172C72.5456 58.2057 72.5872 58.2852 72.6523 58.3555C72.7174 58.4258 72.7995 58.4635 72.8984 58.4688H73.9414V57.4336C73.9414 57.3607 73.9674 57.3008 74.0195 57.2539C74.0742 57.2044 74.138 57.1797 74.2109 57.1797C74.3672 57.1927 74.4531 57.2773 74.4688 57.4336V58.707C74.4688 58.9154 74.4401 59.112 74.3828 59.2969C74.3307 59.4609 74.2448 59.599 74.125 59.7109C74.0078 59.8255 73.8581 59.888 73.6758 59.8984H72.3242C72.2539 59.8958 72.194 59.8698 72.1445 59.8203C72.0977 59.7734 72.0729 59.7148 72.0703 59.6445C72.0703 59.5716 72.0938 59.5091 72.1406 59.457C72.1901 59.4049 72.2513 59.3776 72.3242 59.375H73.543C73.6419 59.3698 73.724 59.332 73.7891 59.2617C73.8542 59.1914 73.8958 59.1094 73.9141 59.0156C73.9167 59.0078 73.918 59 73.918 58.9922H72.7656C72.5833 58.9818 72.4323 58.9206 72.3125 58.8086C72.1953 58.694 72.1107 58.5547 72.0586 58.3906C72.0091 58.2266 71.9831 58.0521 71.9805 57.8672V57.4258C71.9831 57.3555 72.0091 57.2969 72.0586 57.25C72.1081 57.2005 72.168 57.1745 72.2383 57.1719ZM23.0742 63.043C22.9857 63.043 22.8971 63.0273 22.8086 62.9961C22.7227 62.9648 22.6393 62.9193 22.5586 62.8594C22.4779 62.7969 22.4076 62.7148 22.3477 62.6133C22.2878 62.5117 22.2552 62.3906 22.25 62.25V61.418C22.25 61.3451 22.276 61.2852 22.3281 61.2383C22.3828 61.1888 22.4466 61.1641 22.5195 61.1641C22.6758 61.1771 22.7604 61.2617 22.7734 61.418V62.2188C22.776 62.2812 22.7891 62.3346 22.8125 62.3789C22.8359 62.4206 22.862 62.4544 22.8906 62.4805C22.9193 62.5039 22.9479 62.5221 22.9766 62.5352C23.0078 62.5456 23.0391 62.5508 23.0703 62.5508C23.1016 62.5508 23.1328 62.5456 23.1641 62.5352C23.1953 62.5221 23.2253 62.5039 23.2539 62.4805C23.2826 62.4544 23.3086 62.4206 23.332 62.3789C23.3555 62.3346 23.3672 62.2812 23.3672 62.2188V61.418C23.3672 61.3451 23.3932 61.2852 23.4453 61.2383C23.5 61.1888 23.5638 61.1641 23.6367 61.1641C23.793 61.1771 23.8789 61.2617 23.8945 61.418V62.2188C23.8971 62.2812 23.9102 62.3333 23.9336 62.375C23.957 62.4193 23.9831 62.4544 24.0117 62.4805C24.0404 62.5039 24.069 62.5221 24.0977 62.5352C24.1289 62.5456 24.1602 62.5508 24.1914 62.5508C24.2227 62.5508 24.2539 62.5456 24.2852 62.5352C24.3164 62.5221 24.3464 62.5039 24.375 62.4805C24.4036 62.4544 24.4297 62.4206 24.4531 62.3789C24.4766 62.3346 24.4883 62.2812 24.4883 62.2188V61.418C24.4883 61.3451 24.5143 61.2852 24.5664 61.2383C24.6211 61.1888 24.6849 61.1641 24.7578 61.1641C24.9141 61.1771 25 61.2617 25.0156 61.418V62.25C25.0156 62.3906 24.9844 62.5117 24.9219 62.6133C24.862 62.7148 24.7917 62.7969 24.7109 62.8594C24.6328 62.9193 24.5495 62.9648 24.4609 62.9961C24.375 63.0273 24.2865 63.043 24.1953 63.043C24.1068 63.043 24.0182 63.0273 23.9297 62.9961C23.8438 62.9648 23.7604 62.918 23.6797 62.8555C23.6641 62.8451 23.6497 62.8333 23.6367 62.8203C23.6211 62.8333 23.6068 62.8451 23.5938 62.8555C23.513 62.918 23.4284 62.9648 23.3398 62.9961C23.2539 63.0273 23.1654 63.043 23.0742 63.043ZM25.8008 61.1797C25.8711 61.1823 25.931 61.2083 25.9805 61.2578C26.0299 61.3047 26.056 61.3633 26.0586 61.4336V62.7852C26.043 62.9414 25.957 63.026 25.8008 63.0391C25.7279 63.0391 25.6641 63.0156 25.6094 62.9688C25.5573 62.9193 25.5312 62.8581 25.5312 62.7852V61.4336C25.5339 61.3607 25.5612 61.3008 25.6133 61.2539C25.6654 61.2044 25.7279 61.1797 25.8008 61.1797ZM25.4727 60.6719C25.4727 60.599 25.5039 60.5365 25.5664 60.4844C25.6289 60.4323 25.7044 60.4062 25.793 60.4062C25.8815 60.4062 25.957 60.4323 26.0195 60.4844C26.082 60.5365 26.1133 60.599 26.1133 60.6719C26.1133 60.7474 26.082 60.8112 26.0195 60.8633C25.957 60.9154 25.8815 60.9414 25.793 60.9414C25.7044 60.9414 25.6289 60.9154 25.5664 60.8633C25.5039 60.8112 25.4727 60.7474 25.4727 60.6719ZM27.7812 61.1602C27.9167 61.1602 28.0495 61.1758 28.1797 61.207C28.3125 61.2383 28.4388 61.2852 28.5586 61.3477C28.6784 61.4076 28.7839 61.4883 28.875 61.5898C28.9688 61.6914 29.0195 61.8125 29.0273 61.9531V62.1172V62.7852C29.0117 62.9414 28.9258 63.026 28.7695 63.0391C28.6966 63.0391 28.6328 63.0156 28.5781 62.9688C28.526 62.9193 28.5 62.8581 28.5 62.7852V62.6133V62.0742C28.4948 61.9935 28.4635 61.9271 28.4062 61.875C28.3516 61.8203 28.2891 61.7773 28.2188 61.7461C28.151 61.7148 28.0794 61.6914 28.0039 61.6758C27.931 61.6602 27.8568 61.6523 27.7812 61.6523C27.7057 61.6523 27.6302 61.6602 27.5547 61.6758C27.4818 61.6914 27.4102 61.7148 27.3398 61.7461C27.2721 61.7773 27.2096 61.8203 27.1523 61.875C27.0977 61.9271 27.0677 61.9935 27.0625 62.0742V62.6133V62.7852C27.0495 62.9414 26.9648 63.026 26.8086 63.0391C26.7357 63.0391 26.6719 63.0156 26.6172 62.9688C26.5651 62.9193 26.5391 62.8581 26.5391 62.7852V62.1172V61.9531C26.5469 61.8125 26.5964 61.6914 26.6875 61.5898C26.7786 61.4883 26.8841 61.4076 27.0039 61.3477C27.1237 61.2852 27.2487 61.2383 27.3789 61.207C27.5117 61.1758 27.6458 61.1602 27.7812 61.1602ZM29.793 61.1797C29.8633 61.1823 29.9232 61.2083 29.9727 61.2578C30.0221 61.3047 30.0482 61.3633 30.0508 61.4336V62.7852C30.0352 62.9414 29.9492 63.026 29.793 63.0391C29.7201 63.0391 29.6562 63.0156 29.6016 62.9688C29.5495 62.9193 29.5234 62.8581 29.5234 62.7852V61.4336C29.526 61.3607 29.5534 61.3008 29.6055 61.2539C29.6576 61.2044 29.7201 61.1797 29.793 61.1797ZM29.4648 60.6719C29.4648 60.599 29.4961 60.5365 29.5586 60.4844C29.6211 60.4323 29.6966 60.4062 29.7852 60.4062C29.8737 60.4062 29.9492 60.4323 30.0117 60.4844C30.0742 60.5365 30.1055 60.599 30.1055 60.6719C30.1055 60.7474 30.0742 60.8112 30.0117 60.8633C29.9492 60.9154 29.8737 60.9414 29.7852 60.9414C29.6966 60.9414 29.6211 60.9154 29.5586 60.8633C29.4961 60.8112 29.4648 60.7474 29.4648 60.6719ZM31.7734 61.1602C31.9089 61.1602 32.0417 61.1758 32.1719 61.207C32.3047 61.2383 32.431 61.2852 32.5508 61.3477C32.6706 61.4076 32.776 61.4883 32.8672 61.5898C32.9609 61.6914 33.0117 61.8125 33.0195 61.9531V62.1172V62.7852C33.0039 62.9414 32.918 63.026 32.7617 63.0391C32.6888 63.0391 32.625 63.0156 32.5703 62.9688C32.5182 62.9193 32.4922 62.8581 32.4922 62.7852V62.6133V62.0742C32.487 61.9935 32.4557 61.9271 32.3984 61.875C32.3438 61.8203 32.2812 61.7773 32.2109 61.7461C32.1432 61.7148 32.0716 61.6914 31.9961 61.6758C31.9232 61.6602 31.849 61.6523 31.7734 61.6523C31.6979 61.6523 31.6224 61.6602 31.5469 61.6758C31.474 61.6914 31.4023 61.7148 31.332 61.7461C31.2643 61.7773 31.2018 61.8203 31.1445 61.875C31.0898 61.9271 31.0599 61.9935 31.0547 62.0742V62.6133V62.7852C31.0417 62.9414 30.957 63.026 30.8008 63.0391C30.7279 63.0391 30.6641 63.0156 30.6094 62.9688C30.5573 62.9193 30.5312 62.8581 30.5312 62.7852V62.1172V61.9531C30.5391 61.8125 30.5885 61.6914 30.6797 61.5898C30.7708 61.4883 30.8763 61.4076 30.9961 61.3477C31.1159 61.2852 31.2409 61.2383 31.3711 61.207C31.5039 61.1758 31.638 61.1602 31.7734 61.1602ZM35.707 61.8438C35.707 61.7786 35.6732 61.7448 35.6055 61.7422H34.2383C34.1888 61.7448 34.1458 61.7669 34.1094 61.8086C34.0729 61.8477 34.0456 61.8945 34.0273 61.9492C34.0117 62.0013 34.0039 62.0547 34.0039 62.1094C34.0039 62.1615 34.0117 62.2148 34.0273 62.2695C34.0456 62.3216 34.0729 62.3685 34.1094 62.4102C34.1458 62.4492 34.1888 62.4688 34.2383 62.4688H35.2383C35.3112 62.4688 35.3724 62.4948 35.4219 62.5469C35.474 62.5964 35.5 62.6576 35.5 62.7305C35.5 62.8034 35.474 62.8646 35.4219 62.9141C35.3724 62.9661 35.3112 62.9922 35.2383 62.9922H34.2539C34.0716 62.9896 33.9206 62.9388 33.8008 62.8398C33.6836 62.7383 33.599 62.625 33.5469 62.5C33.4974 62.3724 33.4727 62.2409 33.4727 62.1055C33.4727 61.9753 33.4987 61.8477 33.5508 61.7227C33.6029 61.5951 33.6875 61.4818 33.8047 61.3828C33.9219 61.2812 34.0951 61.2266 34.3242 61.2188H35.9648C36.0378 61.2188 36.1003 61.2435 36.1523 61.293C36.2044 61.3398 36.2318 61.3997 36.2344 61.4727V62.707C36.2344 62.9154 36.2057 63.112 36.1484 63.2969C36.0964 63.4609 36.0104 63.599 35.8906 63.7109C35.7734 63.8255 35.6237 63.888 35.4414 63.8984H34.0898C34.0195 63.8958 33.9596 63.8698 33.9102 63.8203C33.8633 63.7734 33.8385 63.7148 33.8359 63.6445C33.8359 63.5716 33.8594 63.5091 33.9062 63.457C33.9557 63.4049 34.0169 63.3776 34.0898 63.375H35.3086C35.4076 63.3698 35.4896 63.332 35.5547 63.2617C35.6198 63.1914 35.6615 63.1094 35.6797 63.0156C35.6979 62.9219 35.707 62.8008 35.707 62.6523V61.8438ZM39.0312 61.1797C39.1016 61.1823 39.1615 61.2083 39.2109 61.2578C39.2604 61.3047 39.2865 61.3633 39.2891 61.4336V62.7852C39.2734 62.9414 39.1875 63.026 39.0312 63.0391C38.9583 63.0391 38.8945 63.0156 38.8398 62.9688C38.7878 62.9193 38.7617 62.8581 38.7617 62.7852V61.4336C38.7643 61.3607 38.7917 61.3008 38.8438 61.2539C38.8958 61.2044 38.9583 61.1797 39.0312 61.1797ZM38.7031 60.6719C38.7031 60.599 38.7344 60.5365 38.7969 60.4844C38.8594 60.4323 38.9349 60.4062 39.0234 60.4062C39.112 60.4062 39.1875 60.4323 39.25 60.4844C39.3125 60.5365 39.3438 60.599 39.3438 60.6719C39.3438 60.7474 39.3125 60.8112 39.25 60.8633C39.1875 60.9154 39.112 60.9414 39.0234 60.9414C38.9349 60.9414 38.8594 60.9154 38.7969 60.8633C38.7344 60.8112 38.7031 60.7474 38.7031 60.6719ZM41.0117 61.1602C41.1471 61.1602 41.2799 61.1758 41.4102 61.207C41.543 61.2383 41.6693 61.2852 41.7891 61.3477C41.9089 61.4076 42.0143 61.4883 42.1055 61.5898C42.1992 61.6914 42.25 61.8125 42.2578 61.9531V62.1172V62.7852C42.2422 62.9414 42.1562 63.026 42 63.0391C41.9271 63.0391 41.8633 63.0156 41.8086 62.9688C41.7565 62.9193 41.7305 62.8581 41.7305 62.7852V62.6133V62.0742C41.7253 61.9935 41.694 61.9271 41.6367 61.875C41.582 61.8203 41.5195 61.7773 41.4492 61.7461C41.3815 61.7148 41.3099 61.6914 41.2344 61.6758C41.1615 61.6602 41.0872 61.6523 41.0117 61.6523C40.9362 61.6523 40.8607 61.6602 40.7852 61.6758C40.7122 61.6914 40.6406 61.7148 40.5703 61.7461C40.5026 61.7773 40.4401 61.8203 40.3828 61.875C40.3281 61.9271 40.2982 61.9935 40.293 62.0742V62.6133V62.7852C40.2799 62.9414 40.1953 63.026 40.0391 63.0391C39.9661 63.0391 39.9023 63.0156 39.8477 62.9688C39.7956 62.9193 39.7695 62.8581 39.7695 62.7852V62.1172V61.9531C39.7773 61.8125 39.8268 61.6914 39.918 61.5898C40.0091 61.4883 40.1146 61.4076 40.2344 61.3477C40.3542 61.2852 40.4792 61.2383 40.6094 61.207C40.7422 61.1758 40.8763 61.1602 41.0117 61.1602ZM44.7812 60.9492C44.7812 60.8763 44.806 60.8151 44.8555 60.7656C44.9076 60.7135 44.9701 60.6875 45.043 60.6875H46.5508C46.5664 60.6875 46.582 60.6888 46.5977 60.6914H46.6211C46.8034 60.6966 46.9531 60.7383 47.0703 60.8164C47.1875 60.8945 47.2721 60.9844 47.3242 61.0859C47.3763 61.1849 47.4023 61.2852 47.4023 61.3867C47.4023 61.4909 47.3763 61.5938 47.3242 61.6953C47.2747 61.7943 47.1901 61.8828 47.0703 61.9609C46.9531 62.0391 46.8034 62.0807 46.6211 62.0859H45.5117C45.4622 62.0885 45.4206 62.1003 45.3867 62.1211C45.3555 62.1419 45.332 62.1693 45.3164 62.2031C45.3008 62.2344 45.293 62.2591 45.293 62.2773V62.3594C45.293 62.3932 45.3008 62.4193 45.3164 62.4375C45.3346 62.4557 45.3685 62.4635 45.418 62.4609H47.1211C47.194 62.4609 47.2552 62.487 47.3047 62.5391C47.3568 62.5885 47.3828 62.6497 47.3828 62.7227C47.3828 62.7956 47.3568 62.8581 47.3047 62.9102C47.2552 62.9596 47.194 62.9844 47.1211 62.9844H45.207C45.0612 62.9844 44.9492 62.9492 44.8711 62.8789C44.7956 62.806 44.7565 62.7031 44.7539 62.5703V62.2773C44.7539 62.1706 44.7786 62.0664 44.8281 61.9648C44.8802 61.8607 44.9648 61.7695 45.082 61.6914C45.2018 61.6107 45.3529 61.5677 45.5352 61.5625H46.6445C46.694 61.5599 46.7344 61.5495 46.7656 61.5312C46.7995 61.5104 46.8242 61.4883 46.8398 61.4648C46.8555 61.4388 46.8633 61.4128 46.8633 61.3867C46.8633 61.3607 46.8555 61.3359 46.8398 61.3125C46.8242 61.2865 46.7995 61.2643 46.7656 61.2461C46.7344 61.2253 46.694 61.2135 46.6445 61.2109H45.043C44.9701 61.2109 44.9089 61.1849 44.8594 61.1328C44.8073 61.0833 44.7812 61.0221 44.7812 60.9492ZM49.8125 60.6875C49.9453 60.6901 50.0638 60.7318 50.168 60.8125C50.2721 60.8932 50.3555 60.9896 50.418 61.1016C50.4831 61.2135 50.5312 61.332 50.5625 61.457C50.5938 61.582 50.6094 61.7096 50.6094 61.8398C50.6094 62.0117 50.582 62.181 50.5273 62.3477C50.4753 62.5117 50.388 62.6576 50.2656 62.7852C50.1458 62.9128 49.9948 62.9818 49.8125 62.9922H48.5742C48.3919 62.9844 48.2396 62.9167 48.1172 62.7891C47.9948 62.6615 47.9076 62.5143 47.8555 62.3477C47.806 62.181 47.7812 62.0117 47.7812 61.8398C47.7812 61.668 47.8073 61.5 47.8594 61.3359C47.9115 61.1693 47.9974 61.0221 48.1172 60.8945C48.2396 60.7643 48.3919 60.6953 48.5742 60.6875H48.6484H49.7383H49.8125ZM49.6797 62.4688C49.7786 62.4635 49.8607 62.4271 49.9258 62.3594C49.9935 62.2891 50.0417 62.2083 50.0703 62.1172C50.099 62.026 50.1133 61.9336 50.1133 61.8398C50.1133 61.7461 50.0977 61.6549 50.0664 61.5664C50.0378 61.4753 49.9909 61.3945 49.9258 61.3242C49.8607 61.2539 49.7786 61.2161 49.6797 61.2109H48.6953C48.5964 61.2161 48.5143 61.2539 48.4492 61.3242C48.3841 61.3945 48.3359 61.4753 48.3047 61.5664C48.276 61.6549 48.2617 61.7461 48.2617 61.8398C48.2617 61.9336 48.276 62.026 48.3047 62.1172C48.3333 62.2083 48.3802 62.2891 48.4453 62.3594C48.513 62.4271 48.5964 62.4635 48.6953 62.4688H49.6797ZM55.1953 61.8438C55.1953 61.7786 55.1615 61.7448 55.0938 61.7422H53.7266C53.6771 61.7448 53.6341 61.7669 53.5977 61.8086C53.5612 61.8477 53.5339 61.8945 53.5156 61.9492C53.5 62.0013 53.4922 62.0547 53.4922 62.1094C53.4922 62.1615 53.5 62.2148 53.5156 62.2695C53.5339 62.3216 53.5612 62.3685 53.5977 62.4102C53.6341 62.4492 53.6771 62.4688 53.7266 62.4688H54.7266C54.7995 62.4688 54.8607 62.4948 54.9102 62.5469C54.9622 62.5964 54.9883 62.6576 54.9883 62.7305C54.9883 62.8034 54.9622 62.8646 54.9102 62.9141C54.8607 62.9661 54.7995 62.9922 54.7266 62.9922H53.7422C53.5599 62.9896 53.4089 62.9388 53.2891 62.8398C53.1719 62.7383 53.0872 62.625 53.0352 62.5C52.9857 62.3724 52.9609 62.2409 52.9609 62.1055C52.9609 61.9753 52.987 61.8477 53.0391 61.7227C53.0911 61.5951 53.1758 61.4818 53.293 61.3828C53.4102 61.2812 53.5833 61.2266 53.8125 61.2188H55.4531C55.526 61.2188 55.5885 61.2435 55.6406 61.293C55.6927 61.3398 55.7201 61.3997 55.7227 61.4727V62.707C55.7227 62.9154 55.694 63.112 55.6367 63.2969C55.5846 63.4609 55.4987 63.599 55.3789 63.7109C55.2617 63.8255 55.112 63.888 54.9297 63.8984H53.5781C53.5078 63.8958 53.4479 63.8698 53.3984 63.8203C53.3516 63.7734 53.3268 63.7148 53.3242 63.6445C53.3242 63.5716 53.3477 63.5091 53.3945 63.457C53.444 63.4049 53.5052 63.3776 53.5781 63.375H54.7969C54.8958 63.3698 54.9779 63.332 55.043 63.2617C55.1081 63.1914 55.1497 63.1094 55.168 63.0156C55.1862 62.9219 55.1953 62.8008 55.1953 62.6523V61.8438ZM58.4336 62.7852V61.8438C58.4336 61.7786 58.3997 61.7448 58.332 61.7422H56.9648C56.9154 61.7448 56.8724 61.7669 56.8359 61.8086C56.7995 61.8477 56.7721 61.8945 56.7539 61.9492C56.7383 62.0013 56.7305 62.0547 56.7305 62.1094C56.7305 62.1615 56.7383 62.2148 56.7539 62.2695C56.7721 62.3216 56.7995 62.3685 56.8359 62.4102C56.8724 62.4492 56.9154 62.4688 56.9648 62.4688H57.9648C58.0378 62.4688 58.099 62.4948 58.1484 62.5469C58.2005 62.5964 58.2266 62.6576 58.2266 62.7305C58.2266 62.8034 58.2005 62.8646 58.1484 62.9141C58.099 62.9661 58.0378 62.9922 57.9648 62.9922H56.9805C56.7982 62.9896 56.6471 62.9388 56.5273 62.8398C56.4102 62.7383 56.3255 62.625 56.2734 62.5C56.224 62.3724 56.1992 62.2409 56.1992 62.1055C56.1992 61.9753 56.2253 61.8477 56.2773 61.7227C56.3294 61.5951 56.4141 61.4818 56.5312 61.3828C56.6484 61.2812 56.8216 61.2266 57.0508 61.2188H58.6914C58.7643 61.2188 58.8268 61.2435 58.8789 61.293C58.931 61.3398 58.9583 61.3997 58.9609 61.4727V62.7852C58.9609 62.8581 58.9336 62.9193 58.8789 62.9688C58.8268 63.0156 58.7643 63.0391 58.6914 63.0391C58.5352 63.026 58.4492 62.9414 58.4336 62.7852ZM60.293 61.1602C60.3841 61.1602 60.4727 61.1758 60.5586 61.207C60.6471 61.2383 60.7318 61.2839 60.8125 61.3438C60.8255 61.3568 60.8398 61.3698 60.8555 61.3828C60.8685 61.3698 60.8828 61.3568 60.8984 61.3438C60.9792 61.2839 61.0625 61.2383 61.1484 61.207C61.237 61.1758 61.3255 61.1602 61.4141 61.1602C61.5052 61.1602 61.5938 61.1758 61.6797 61.207C61.7682 61.2383 61.8516 61.2852 61.9297 61.3477C62.0104 61.4076 62.0807 61.4883 62.1406 61.5898C62.2031 61.6914 62.2344 61.8125 62.2344 61.9531V62.7852C62.2188 62.9414 62.1328 63.026 61.9766 63.0391C61.9036 63.0391 61.8398 63.0156 61.7852 62.9688C61.7331 62.9193 61.707 62.8581 61.707 62.7852V61.9844C61.707 61.9219 61.6953 61.8698 61.6719 61.8281C61.6484 61.7839 61.6224 61.75 61.5938 61.7266C61.5651 61.7005 61.5352 61.6823 61.5039 61.6719C61.4727 61.6589 61.4414 61.6523 61.4102 61.6523C61.3789 61.6523 61.3477 61.6589 61.3164 61.6719C61.2878 61.6823 61.2591 61.7005 61.2305 61.7266C61.2018 61.75 61.1758 61.7839 61.1523 61.8281C61.1289 61.8698 61.1159 61.9219 61.1133 61.9844V62.7852C61.0977 62.9414 61.0117 63.026 60.8555 63.0391C60.7826 63.0391 60.7188 63.0156 60.6641 62.9688C60.612 62.9193 60.5859 62.8581 60.5859 62.7852V61.9844C60.5859 61.9219 60.5742 61.8698 60.5508 61.8281C60.5273 61.7839 60.5013 61.75 60.4727 61.7266C60.444 61.7005 60.4141 61.6823 60.3828 61.6719C60.3516 61.6589 60.3203 61.6523 60.2891 61.6523C60.2578 61.6523 60.2266 61.6589 60.1953 61.6719C60.1667 61.6823 60.138 61.7005 60.1094 61.7266C60.0807 61.75 60.0547 61.7839 60.0312 61.8281C60.0078 61.8698 59.9948 61.9219 59.9922 61.9844V62.7852C59.9792 62.9414 59.8945 63.026 59.7383 63.0391C59.6654 63.0391 59.6016 63.0156 59.5469 62.9688C59.4948 62.9193 59.4688 62.8581 59.4688 62.7852V61.9531C59.474 61.8125 59.5065 61.6914 59.5664 61.5898C59.6263 61.4883 59.6966 61.4076 59.7773 61.3477C59.8581 61.2852 59.9414 61.2383 60.0273 61.207C60.1159 61.1758 60.2044 61.1602 60.293 61.1602ZM63.5195 62.9922C63.2904 62.9844 63.1172 62.931 63 62.832C62.8828 62.7305 62.7982 62.6172 62.7461 62.4922C62.694 62.3646 62.668 62.2357 62.668 62.1055C62.668 61.9701 62.6927 61.8398 62.7422 61.7148C62.7943 61.5872 62.8789 61.474 62.9961 61.375C63.1159 61.2734 63.2669 61.2214 63.4492 61.2188H64.9336C65.0065 61.2188 65.0677 61.2435 65.1172 61.293C65.1693 61.3398 65.1953 61.3971 65.1953 61.4648C65.1953 61.5352 65.1693 61.5951 65.1172 61.6445C65.0677 61.6914 65.0065 61.7148 64.9336 61.7148H63.4727C63.4154 61.7148 63.3646 61.7344 63.3203 61.7734C63.2786 61.8125 63.2474 61.8633 63.2266 61.9258C63.2083 61.9883 63.1992 62.0495 63.1992 62.1094C63.1992 62.1745 63.2083 62.2383 63.2266 62.3008C63.2474 62.3633 63.2786 62.4141 63.3203 62.4531C63.3646 62.4896 63.4154 62.5091 63.4727 62.5117H64.9336C65.0065 62.5117 65.0677 62.5352 65.1172 62.582C65.1693 62.6289 65.1953 62.6849 65.1953 62.75C65.1953 62.8177 65.1693 62.875 65.1172 62.9219C65.0677 62.9688 65.0065 62.9922 64.9336 62.9922H63.5195ZM65.1484 62.0977C65.1484 62.1471 65.1263 62.1901 65.082 62.2266C65.043 62.2604 64.9935 62.2773 64.9336 62.2773H63.6562C63.5964 62.2773 63.5456 62.2604 63.5039 62.2266C63.4622 62.1901 63.4414 62.1471 63.4414 62.0977C63.4414 62.0508 63.4622 62.0091 63.5039 61.9727C63.5456 61.9388 63.5964 61.9219 63.6562 61.9219H64.9336C64.9935 61.9219 65.0443 61.9401 65.0859 61.9766C65.1276 62.0104 65.1484 62.0508 65.1484 62.0977ZM67.9141 61.1797C67.9844 61.1823 68.0443 61.2083 68.0938 61.2578C68.1432 61.3047 68.1693 61.3633 68.1719 61.4336V62.7852C68.1562 62.9414 68.0703 63.026 67.9141 63.0391C67.8411 63.0391 67.7773 63.0156 67.7227 62.9688C67.6706 62.9193 67.6445 62.8581 67.6445 62.7852V61.4336C67.6471 61.3607 67.6745 61.3008 67.7266 61.2539C67.7786 61.2044 67.8411 61.1797 67.9141 61.1797ZM67.5859 60.6719C67.5859 60.599 67.6172 60.5365 67.6797 60.4844C67.7422 60.4323 67.8177 60.4062 67.9062 60.4062C67.9948 60.4062 68.0703 60.4323 68.1328 60.4844C68.1953 60.5365 68.2266 60.599 68.2266 60.6719C68.2266 60.7474 68.1953 60.8112 68.1328 60.8633C68.0703 60.9154 67.9948 60.9414 67.9062 60.9414C67.8177 60.9414 67.7422 60.9154 67.6797 60.8633C67.6172 60.8112 67.5859 60.7474 67.5859 60.6719ZM69.8945 61.1602C70.0299 61.1602 70.1628 61.1758 70.293 61.207C70.4258 61.2383 70.5521 61.2852 70.6719 61.3477C70.7917 61.4076 70.8971 61.4883 70.9883 61.5898C71.082 61.6914 71.1328 61.8125 71.1406 61.9531V62.1172V62.7852C71.125 62.9414 71.0391 63.026 70.8828 63.0391C70.8099 63.0391 70.7461 63.0156 70.6914 62.9688C70.6393 62.9193 70.6133 62.8581 70.6133 62.7852V62.6133V62.0742C70.6081 61.9935 70.5768 61.9271 70.5195 61.875C70.4648 61.8203 70.4023 61.7773 70.332 61.7461C70.2643 61.7148 70.1927 61.6914 70.1172 61.6758C70.0443 61.6602 69.9701 61.6523 69.8945 61.6523C69.819 61.6523 69.7435 61.6602 69.668 61.6758C69.5951 61.6914 69.5234 61.7148 69.4531 61.7461C69.3854 61.7773 69.3229 61.8203 69.2656 61.875C69.2109 61.9271 69.181 61.9935 69.1758 62.0742V62.6133V62.7852C69.1628 62.9414 69.0781 63.026 68.9219 63.0391C68.849 63.0391 68.7852 63.0156 68.7305 62.9688C68.6784 62.9193 68.6523 62.8581 68.6523 62.7852V62.1172V61.9531C68.6602 61.8125 68.7096 61.6914 68.8008 61.5898C68.8919 61.4883 68.9974 61.4076 69.1172 61.3477C69.237 61.2852 69.362 61.2383 69.4922 61.207C69.625 61.1758 69.7591 61.1602 69.8945 61.1602ZM23.0938 64.625C23.1667 64.625 23.2292 64.6497 23.2812 64.6992C23.3333 64.7461 23.3607 64.806 23.3633 64.8789V65.2188H24.6914C24.7643 65.2188 24.8268 65.2435 24.8789 65.293C24.9284 65.3451 24.9531 65.4076 24.9531 65.4805C24.9531 65.5534 24.9271 65.6159 24.875 65.668C24.8255 65.7174 24.7643 65.7422 24.6914 65.7422H23.3633V65.8203C23.3607 65.9271 23.3672 66.026 23.3828 66.1172C23.401 66.2057 23.4427 66.2852 23.5078 66.3555C23.5729 66.4258 23.6549 66.4635 23.7539 66.4688H24.707C24.7799 66.4714 24.8398 66.4987 24.8867 66.5508C24.9362 66.6029 24.9609 66.6654 24.9609 66.7383C24.9583 66.8086 24.9323 66.8685 24.8828 66.918C24.8359 66.9648 24.7773 66.9896 24.707 66.9922H23.6211C23.4388 66.9818 23.2878 66.9206 23.168 66.8086C23.0508 66.694 22.9661 66.5547 22.9141 66.3906C22.8646 66.2266 22.8385 66.0521 22.8359 65.8672V65.7422H22.3867C22.3138 65.7422 22.2526 65.7161 22.2031 65.6641C22.151 65.6146 22.125 65.5534 22.125 65.4805C22.125 65.4076 22.1497 65.3464 22.1992 65.2969C22.2513 65.2448 22.3138 65.2188 22.3867 65.2188H22.8359V64.8789C22.8385 64.8086 22.8646 64.75 22.9141 64.7031C22.9635 64.6536 23.0234 64.6276 23.0938 64.625ZM25.6055 64.625C25.6758 64.6276 25.7357 64.6536 25.7852 64.7031C25.8346 64.75 25.8607 64.8086 25.8633 64.8789V65.2188H27.0742C27.2565 65.2214 27.4062 65.2734 27.5234 65.375C27.6432 65.474 27.7279 65.5859 27.7773 65.7109C27.8294 65.8385 27.8555 65.9701 27.8555 66.1055H27.8594V66.7852C27.8594 66.8581 27.832 66.9193 27.7773 66.9688C27.7253 67.0156 27.6628 67.0391 27.5898 67.0391C27.4336 67.026 27.3477 66.9414 27.332 66.7852V66.1016C27.332 66.0521 27.3216 66 27.3008 65.9453C27.2826 65.8906 27.2552 65.8438 27.2188 65.8047C27.1823 65.763 27.1393 65.7422 27.0898 65.7422H25.8633V66.793C25.8477 66.9492 25.7617 67.0339 25.6055 67.0469C25.5326 67.0469 25.4688 67.0234 25.4141 66.9766C25.362 66.9271 25.3359 66.8659 25.3359 66.793V64.8789C25.3385 64.806 25.3659 64.7461 25.418 64.6992C25.4701 64.6497 25.5326 64.625 25.6055 64.625ZM29.1523 66.9922C28.9232 66.9844 28.75 66.931 28.6328 66.832C28.5156 66.7305 28.431 66.6172 28.3789 66.4922C28.3268 66.3646 28.3008 66.2357 28.3008 66.1055C28.3008 65.9701 28.3255 65.8398 28.375 65.7148C28.4271 65.5872 28.5117 65.474 28.6289 65.375C28.7487 65.2734 28.8997 65.2214 29.082 65.2188H30.5664C30.6393 65.2188 30.7005 65.2435 30.75 65.293C30.8021 65.3398 30.8281 65.3971 30.8281 65.4648C30.8281 65.5352 30.8021 65.5951 30.75 65.6445C30.7005 65.6914 30.6393 65.7148 30.5664 65.7148H29.1055C29.0482 65.7148 28.9974 65.7344 28.9531 65.7734C28.9115 65.8125 28.8802 65.8633 28.8594 65.9258C28.8411 65.9883 28.832 66.0495 28.832 66.1094C28.832 66.1745 28.8411 66.2383 28.8594 66.3008C28.8802 66.3633 28.9115 66.4141 28.9531 66.4531C28.9974 66.4896 29.0482 66.5091 29.1055 66.5117H30.5664C30.6393 66.5117 30.7005 66.5352 30.75 66.582C30.8021 66.6289 30.8281 66.6849 30.8281 66.75C30.8281 66.8177 30.8021 66.875 30.75 66.9219C30.7005 66.9688 30.6393 66.9922 30.5664 66.9922H29.1523ZM30.7812 66.0977C30.7812 66.1471 30.7591 66.1901 30.7148 66.2266C30.6758 66.2604 30.6263 66.2773 30.5664 66.2773H29.2891C29.2292 66.2773 29.1784 66.2604 29.1367 66.2266C29.0951 66.1901 29.0742 66.1471 29.0742 66.0977C29.0742 66.0508 29.0951 66.0091 29.1367 65.9727C29.1784 65.9388 29.2292 65.9219 29.2891 65.9219H30.5664C30.6263 65.9219 30.6771 65.9401 30.7188 65.9766C30.7604 66.0104 30.7812 66.0508 30.7812 66.0977ZM33.3594 65.7109C33.4089 65.5859 33.4922 65.474 33.6094 65.375C33.7292 65.2734 33.8802 65.2214 34.0625 65.2188H35.5312C35.6042 65.2188 35.6654 65.2448 35.7148 65.2969C35.7669 65.3464 35.793 65.4076 35.793 65.4805C35.793 65.5534 35.7669 65.6159 35.7148 65.668C35.6654 65.7174 35.6042 65.7422 35.5312 65.7422H34.0469C33.9974 65.7422 33.9544 65.763 33.918 65.8047C33.8815 65.8438 33.8529 65.8906 33.832 65.9453C33.8138 66 33.8047 66.0521 33.8047 66.1016V66.7852C33.7891 66.9414 33.7031 67.026 33.5469 67.0391C33.474 67.0391 33.4102 67.0156 33.3555 66.9688C33.3034 66.9193 33.2773 66.8581 33.2773 66.7852V66.1055H33.2812C33.2812 65.9701 33.3073 65.8385 33.3594 65.7109ZM38.3633 66.7852V65.8438C38.3633 65.7786 38.3294 65.7448 38.2617 65.7422H36.8945C36.8451 65.7448 36.8021 65.7669 36.7656 65.8086C36.7292 65.8477 36.7018 65.8945 36.6836 65.9492C36.668 66.0013 36.6602 66.0547 36.6602 66.1094C36.6602 66.1615 36.668 66.2148 36.6836 66.2695C36.7018 66.3216 36.7292 66.3685 36.7656 66.4102C36.8021 66.4492 36.8451 66.4688 36.8945 66.4688H37.8945C37.9674 66.4688 38.0286 66.4948 38.0781 66.5469C38.1302 66.5964 38.1562 66.6576 38.1562 66.7305C38.1562 66.8034 38.1302 66.8646 38.0781 66.9141C38.0286 66.9661 37.9674 66.9922 37.8945 66.9922H36.9102C36.7279 66.9896 36.5768 66.9388 36.457 66.8398C36.3398 66.7383 36.2552 66.625 36.2031 66.5C36.1536 66.3724 36.1289 66.2409 36.1289 66.1055C36.1289 65.9753 36.1549 65.8477 36.207 65.7227C36.2591 65.5951 36.3438 65.4818 36.4609 65.3828C36.5781 65.2812 36.7513 65.2266 36.9805 65.2188H38.6211C38.694 65.2188 38.7565 65.2435 38.8086 65.293C38.8607 65.3398 38.888 65.3997 38.8906 65.4727V66.7852C38.8906 66.8581 38.8633 66.9193 38.8086 66.9688C38.7565 67.0156 38.694 67.0391 38.6211 67.0391C38.4648 67.026 38.3789 66.9414 38.3633 66.7852ZM40.6406 65.1602C40.776 65.1602 40.9089 65.1758 41.0391 65.207C41.1719 65.2383 41.2982 65.2852 41.418 65.3477C41.5378 65.4076 41.6432 65.4883 41.7344 65.5898C41.8281 65.6914 41.8789 65.8125 41.8867 65.9531V66.1172V66.7852C41.8711 66.9414 41.7852 67.026 41.6289 67.0391C41.556 67.0391 41.4922 67.0156 41.4375 66.9688C41.3854 66.9193 41.3594 66.8581 41.3594 66.7852V66.6133V66.0742C41.3542 65.9935 41.3229 65.9271 41.2656 65.875C41.2109 65.8203 41.1484 65.7773 41.0781 65.7461C41.0104 65.7148 40.9388 65.6914 40.8633 65.6758C40.7904 65.6602 40.7161 65.6523 40.6406 65.6523C40.5651 65.6523 40.4896 65.6602 40.4141 65.6758C40.3411 65.6914 40.2695 65.7148 40.1992 65.7461C40.1315 65.7773 40.069 65.8203 40.0117 65.875C39.957 65.9271 39.9271 65.9935 39.9219 66.0742V66.6133V66.7852C39.9089 66.9414 39.8242 67.026 39.668 67.0391C39.5951 67.0391 39.5312 67.0156 39.4766 66.9688C39.4245 66.9193 39.3984 66.8581 39.3984 66.7852V66.1172V65.9531C39.4062 65.8125 39.4557 65.6914 39.5469 65.5898C39.638 65.4883 39.7435 65.4076 39.8633 65.3477C39.9831 65.2852 40.1081 65.2383 40.2383 65.207C40.3711 65.1758 40.5052 65.1602 40.6406 65.1602ZM44.5586 64.8789C44.5742 64.7227 44.6602 64.638 44.8164 64.625C44.8893 64.625 44.9518 64.6497 45.0039 64.6992C45.0586 64.7461 45.0859 64.806 45.0859 64.8789V66.7383C45.0833 66.8112 45.056 66.8724 45.0039 66.9219C44.9518 66.9688 44.8893 66.9922 44.8164 66.9922H43.1758C42.9466 66.9844 42.7734 66.931 42.6562 66.832C42.5391 66.7305 42.4544 66.6172 42.4023 66.4922C42.3503 66.3646 42.3242 66.2357 42.3242 66.1055C42.3242 65.9701 42.349 65.8398 42.3984 65.7148C42.4505 65.5872 42.5352 65.474 42.6523 65.375C42.7721 65.2734 42.9232 65.2214 43.1055 65.2188H44.0898C44.1628 65.2188 44.224 65.2448 44.2734 65.2969C44.3255 65.3464 44.3516 65.4076 44.3516 65.4805C44.3516 65.5534 44.3255 65.6159 44.2734 65.668C44.224 65.7174 44.1628 65.7422 44.0898 65.7422H43.0898C43.0404 65.7422 42.9974 65.763 42.9609 65.8047C42.9245 65.8438 42.8971 65.8906 42.8789 65.9453C42.8633 65.9974 42.8555 66.0495 42.8555 66.1016C42.8555 66.1562 42.8633 66.2109 42.8789 66.2656C42.8971 66.3177 42.9245 66.3646 42.9609 66.4062C42.9974 66.4453 43.0404 66.4661 43.0898 66.4688H44.457C44.5247 66.4661 44.5586 66.4323 44.5586 66.3672V64.8789ZM46.4102 66.9922C46.181 66.9844 46.0078 66.931 45.8906 66.832C45.7734 66.7305 45.6888 66.6172 45.6367 66.4922C45.5846 66.3646 45.5586 66.2357 45.5586 66.1055C45.5586 65.9701 45.5833 65.8398 45.6328 65.7148C45.6849 65.5872 45.7695 65.474 45.8867 65.375C46.0065 65.2734 46.1576 65.2214 46.3398 65.2188H47.6055C47.7878 65.2214 47.9375 65.2734 48.0547 65.375C48.1745 65.474 48.2591 65.5872 48.3086 65.7148C48.3607 65.8398 48.3867 65.9701 48.3867 66.1055C48.3867 66.2357 48.3607 66.3646 48.3086 66.4922C48.2565 66.6172 48.1719 66.7305 48.0547 66.832C47.9375 66.931 47.7643 66.9844 47.5352 66.9922H46.4102ZM46.3242 65.7422C46.2747 65.7422 46.2318 65.763 46.1953 65.8047C46.1589 65.8438 46.1315 65.8906 46.1133 65.9453C46.0977 65.9974 46.0898 66.0495 46.0898 66.1016C46.0898 66.1562 46.0977 66.2109 46.1133 66.2656C46.1315 66.3177 46.1589 66.3646 46.1953 66.4062C46.2318 66.4453 46.2747 66.4661 46.3242 66.4688H47.6211C47.6706 66.4661 47.7135 66.4453 47.75 66.4062C47.7865 66.3646 47.8125 66.3177 47.8281 66.2656C47.8464 66.2109 47.8555 66.1562 47.8555 66.1016C47.8555 66.0495 47.8464 65.9974 47.8281 65.9453C47.8125 65.8906 47.7865 65.8438 47.75 65.8047C47.7135 65.763 47.6706 65.7422 47.6211 65.7422H46.3242ZM49.6641 65.1602C49.7552 65.1602 49.8438 65.1758 49.9297 65.207C50.0182 65.2383 50.1029 65.2839 50.1836 65.3438C50.1966 65.3568 50.2109 65.3698 50.2266 65.3828C50.2396 65.3698 50.2539 65.3568 50.2695 65.3438C50.3503 65.2839 50.4336 65.2383 50.5195 65.207C50.6081 65.1758 50.6966 65.1602 50.7852 65.1602C50.8763 65.1602 50.9648 65.1758 51.0508 65.207C51.1393 65.2383 51.2227 65.2852 51.3008 65.3477C51.3815 65.4076 51.4518 65.4883 51.5117 65.5898C51.5742 65.6914 51.6055 65.8125 51.6055 65.9531V66.7852C51.5898 66.9414 51.5039 67.026 51.3477 67.0391C51.2747 67.0391 51.2109 67.0156 51.1562 66.9688C51.1042 66.9193 51.0781 66.8581 51.0781 66.7852V65.9844C51.0781 65.9219 51.0664 65.8698 51.043 65.8281C51.0195 65.7839 50.9935 65.75 50.9648 65.7266C50.9362 65.7005 50.9062 65.6823 50.875 65.6719C50.8438 65.6589 50.8125 65.6523 50.7812 65.6523C50.75 65.6523 50.7188 65.6589 50.6875 65.6719C50.6589 65.6823 50.6302 65.7005 50.6016 65.7266C50.5729 65.75 50.5469 65.7839 50.5234 65.8281C50.5 65.8698 50.487 65.9219 50.4844 65.9844V66.7852C50.4688 66.9414 50.3828 67.026 50.2266 67.0391C50.1536 67.0391 50.0898 67.0156 50.0352 66.9688C49.9831 66.9193 49.957 66.8581 49.957 66.7852V65.9844C49.957 65.9219 49.9453 65.8698 49.9219 65.8281C49.8984 65.7839 49.8724 65.75 49.8438 65.7266C49.8151 65.7005 49.7852 65.6823 49.7539 65.6719C49.7227 65.6589 49.6914 65.6523 49.6602 65.6523C49.6289 65.6523 49.5977 65.6589 49.5664 65.6719C49.5378 65.6823 49.5091 65.7005 49.4805 65.7266C49.4518 65.75 49.4258 65.7839 49.4023 65.8281C49.3789 65.8698 49.3659 65.9219 49.3633 65.9844V66.7852C49.3503 66.9414 49.2656 67.026 49.1094 67.0391C49.0365 67.0391 48.9727 67.0156 48.918 66.9688C48.8659 66.9193 48.8398 66.8581 48.8398 66.7852V65.9531C48.8451 65.8125 48.8776 65.6914 48.9375 65.5898C48.9974 65.4883 49.0677 65.4076 49.1484 65.3477C49.2292 65.2852 49.3125 65.2383 49.3984 65.207C49.487 65.1758 49.5755 65.1602 49.6641 65.1602ZM54.918 65.1602C55.0091 65.1602 55.0977 65.1758 55.1836 65.207C55.2721 65.2383 55.3568 65.2839 55.4375 65.3438C55.4505 65.3568 55.4648 65.3698 55.4805 65.3828C55.4935 65.3698 55.5078 65.3568 55.5234 65.3438C55.6042 65.2839 55.6875 65.2383 55.7734 65.207C55.862 65.1758 55.9505 65.1602 56.0391 65.1602C56.1302 65.1602 56.2188 65.1758 56.3047 65.207C56.3932 65.2383 56.4766 65.2852 56.5547 65.3477C56.6354 65.4076 56.7057 65.4883 56.7656 65.5898C56.8281 65.6914 56.8594 65.8125 56.8594 65.9531V66.7852C56.8438 66.9414 56.7578 67.026 56.6016 67.0391C56.5286 67.0391 56.4648 67.0156 56.4102 66.9688C56.3581 66.9193 56.332 66.8581 56.332 66.7852V65.9844C56.332 65.9219 56.3203 65.8698 56.2969 65.8281C56.2734 65.7839 56.2474 65.75 56.2188 65.7266C56.1901 65.7005 56.1602 65.6823 56.1289 65.6719C56.0977 65.6589 56.0664 65.6523 56.0352 65.6523C56.0039 65.6523 55.9727 65.6589 55.9414 65.6719C55.9128 65.6823 55.8841 65.7005 55.8555 65.7266C55.8268 65.75 55.8008 65.7839 55.7773 65.8281C55.7539 65.8698 55.7409 65.9219 55.7383 65.9844V66.7852C55.7227 66.9414 55.6367 67.026 55.4805 67.0391C55.4076 67.0391 55.3438 67.0156 55.2891 66.9688C55.237 66.9193 55.2109 66.8581 55.2109 66.7852V65.9844C55.2109 65.9219 55.1992 65.8698 55.1758 65.8281C55.1523 65.7839 55.1263 65.75 55.0977 65.7266C55.069 65.7005 55.0391 65.6823 55.0078 65.6719C54.9766 65.6589 54.9453 65.6523 54.9141 65.6523C54.8828 65.6523 54.8516 65.6589 54.8203 65.6719C54.7917 65.6823 54.763 65.7005 54.7344 65.7266C54.7057 65.75 54.6797 65.7839 54.6562 65.8281C54.6328 65.8698 54.6198 65.9219 54.6172 65.9844V66.7852C54.6042 66.9414 54.5195 67.026 54.3633 67.0391C54.2904 67.0391 54.2266 67.0156 54.1719 66.9688C54.1198 66.9193 54.0938 66.8581 54.0938 66.7852V65.9531C54.099 65.8125 54.1315 65.6914 54.1914 65.5898C54.2513 65.4883 54.3216 65.4076 54.4023 65.3477C54.4831 65.2852 54.5664 65.2383 54.6523 65.207C54.7409 65.1758 54.8294 65.1602 54.918 65.1602ZM58.1523 66.9922C57.9232 66.9844 57.75 66.931 57.6328 66.832C57.5156 66.7305 57.431 66.6172 57.3789 66.4922C57.3268 66.3646 57.3008 66.2357 57.3008 66.1055C57.3008 65.9701 57.3255 65.8398 57.375 65.7148C57.4271 65.5872 57.5117 65.474 57.6289 65.375C57.7487 65.2734 57.8997 65.2214 58.082 65.2188H59.3477C59.5299 65.2214 59.6797 65.2734 59.7969 65.375C59.9167 65.474 60.0013 65.5872 60.0508 65.7148C60.1029 65.8398 60.1289 65.9701 60.1289 66.1055C60.1289 66.2357 60.1029 66.3646 60.0508 66.4922C59.9987 66.6172 59.9141 66.7305 59.7969 66.832C59.6797 66.931 59.5065 66.9844 59.2773 66.9922H58.1523ZM58.0664 65.7422C58.0169 65.7422 57.974 65.763 57.9375 65.8047C57.901 65.8438 57.8737 65.8906 57.8555 65.9453C57.8398 65.9974 57.832 66.0495 57.832 66.1016C57.832 66.1562 57.8398 66.2109 57.8555 66.2656C57.8737 66.3177 57.901 66.3646 57.9375 66.4062C57.974 66.4453 58.0169 66.4661 58.0664 66.4688H59.3633C59.4128 66.4661 59.4557 66.4453 59.4922 66.4062C59.5286 66.3646 59.5547 66.3177 59.5703 66.2656C59.5885 66.2109 59.5977 66.1562 59.5977 66.1016C59.5977 66.0495 59.5885 65.9974 59.5703 65.9453C59.5547 65.8906 59.5286 65.8438 59.4922 65.8047C59.4557 65.763 59.4128 65.7422 59.3633 65.7422H58.0664ZM62.7539 64.8789C62.7695 64.7227 62.8555 64.638 63.0117 64.625C63.0846 64.625 63.1471 64.6497 63.1992 64.6992C63.2539 64.7461 63.2812 64.806 63.2812 64.8789V66.7383C63.2786 66.8112 63.2513 66.8724 63.1992 66.9219C63.1471 66.9688 63.0846 66.9922 63.0117 66.9922H61.3711C61.1419 66.9844 60.9688 66.931 60.8516 66.832C60.7344 66.7305 60.6497 66.6172 60.5977 66.4922C60.5456 66.3646 60.5195 66.2357 60.5195 66.1055C60.5195 65.9701 60.5443 65.8398 60.5938 65.7148C60.6458 65.5872 60.7305 65.474 60.8477 65.375C60.9674 65.2734 61.1185 65.2214 61.3008 65.2188H62.2852C62.3581 65.2188 62.4193 65.2448 62.4688 65.2969C62.5208 65.3464 62.5469 65.4076 62.5469 65.4805C62.5469 65.5534 62.5208 65.6159 62.4688 65.668C62.4193 65.7174 62.3581 65.7422 62.2852 65.7422H61.2852C61.2357 65.7422 61.1927 65.763 61.1562 65.8047C61.1198 65.8438 61.0924 65.8906 61.0742 65.9453C61.0586 65.9974 61.0508 66.0495 61.0508 66.1016C61.0508 66.1562 61.0586 66.2109 61.0742 66.2656C61.0924 66.3177 61.1198 66.3646 61.1562 66.4062C61.1927 66.4453 61.2357 66.4661 61.2852 66.4688H62.6523C62.7201 66.4661 62.7539 66.4323 62.7539 66.3672V64.8789ZM64.5977 66.9922C64.3685 66.9844 64.1953 66.931 64.0781 66.832C63.9609 66.7305 63.8763 66.6172 63.8242 66.4922C63.7721 66.3646 63.7461 66.2357 63.7461 66.1055C63.7461 65.9701 63.7708 65.8398 63.8203 65.7148C63.8724 65.5872 63.957 65.474 64.0742 65.375C64.194 65.2734 64.3451 65.2214 64.5273 65.2188H66.0117C66.0846 65.2188 66.1458 65.2435 66.1953 65.293C66.2474 65.3398 66.2734 65.3971 66.2734 65.4648C66.2734 65.5352 66.2474 65.5951 66.1953 65.6445C66.1458 65.6914 66.0846 65.7148 66.0117 65.7148H64.5508C64.4935 65.7148 64.4427 65.7344 64.3984 65.7734C64.3568 65.8125 64.3255 65.8633 64.3047 65.9258C64.2865 65.9883 64.2773 66.0495 64.2773 66.1094C64.2773 66.1745 64.2865 66.2383 64.3047 66.3008C64.3255 66.3633 64.3568 66.4141 64.3984 66.4531C64.4427 66.4896 64.4935 66.5091 64.5508 66.5117H66.0117C66.0846 66.5117 66.1458 66.5352 66.1953 66.582C66.2474 66.6289 66.2734 66.6849 66.2734 66.75C66.2734 66.8177 66.2474 66.875 66.1953 66.9219C66.1458 66.9688 66.0846 66.9922 66.0117 66.9922H64.5977ZM66.2266 66.0977C66.2266 66.1471 66.2044 66.1901 66.1602 66.2266C66.1211 66.2604 66.0716 66.2773 66.0117 66.2773H64.7344C64.6745 66.2773 64.6237 66.2604 64.582 66.2266C64.5404 66.1901 64.5195 66.1471 64.5195 66.0977C64.5195 66.0508 64.5404 66.0091 64.582 65.9727C64.6237 65.9388 64.6745 65.9219 64.7344 65.9219H66.0117C66.0716 65.9219 66.1224 65.9401 66.1641 65.9766C66.2057 66.0104 66.2266 66.0508 66.2266 66.0977ZM67.125 67.0547C67.0208 67.0547 66.9336 67.0182 66.8633 66.9453C66.7956 66.8724 66.7617 66.7812 66.7617 66.6719C66.7617 66.5625 66.7956 66.4714 66.8633 66.3984C66.9336 66.3255 67.0208 66.2891 67.125 66.2891C67.2292 66.2891 67.3164 66.3255 67.3867 66.3984C67.457 66.4714 67.4922 66.5625 67.4922 66.6719C67.4922 66.7812 67.457 66.8724 67.3867 66.9453C67.3164 67.0182 67.2292 67.0547 67.125 67.0547Z" fill="#537790"/>
</svg>
