<svg width="96" height="97" viewBox="0 0 96 97" fill="none" xmlns="http://www.w3.org/2000/svg">
<g clip-path="url(#clip0_62_1623)">
<rect width="96" height="97" rx="22" fill="#F4F4F4"/>
<path d="M19.5889 53.3262C19.5889 53.1439 19.6507 52.9909 19.7744 52.8672C19.9046 52.737 20.0609 52.6719 20.2432 52.6719H22.1182V49.5273H20.2432C20.0609 49.5273 19.9079 49.4622 19.7842 49.332C19.654 49.2083 19.5889 49.0553 19.5889 48.873C19.5889 48.6908 19.6507 48.5378 19.7744 48.4141C19.9046 48.2839 20.0609 48.2188 20.2432 48.2188H25.3018C25.484 48.2188 25.6403 48.2806 25.7705 48.4043C25.8942 48.5345 25.9561 48.6908 25.9561 48.873C25.9561 49.0553 25.891 49.2116 25.7607 49.3418C25.637 49.4655 25.484 49.5273 25.3018 49.5273H23.4365V52.6719H25.3018C25.484 52.6719 25.6403 52.7337 25.7705 52.8574C25.8942 52.9876 25.9561 53.1439 25.9561 53.3262C25.9561 53.5085 25.891 53.6647 25.7607 53.7949C25.637 53.9186 25.484 53.9805 25.3018 53.9805H20.2432C20.0609 53.9805 19.9079 53.9154 19.7842 53.7852C19.654 53.6615 19.5889 53.5085 19.5889 53.3262ZM27.167 50.7773C27.2907 50.4648 27.499 50.1849 27.792 49.9375C28.0915 49.6836 28.4691 49.5534 28.9248 49.5469H32.5967C32.779 49.5469 32.932 49.612 33.0557 49.7422C33.1859 49.8659 33.251 50.0189 33.251 50.2012C33.251 50.3835 33.1859 50.5397 33.0557 50.6699C32.932 50.7936 32.779 50.8555 32.5967 50.8555H28.8857C28.762 50.8555 28.6546 50.9076 28.5635 51.0117C28.4723 51.1094 28.4007 51.2266 28.3486 51.3633C28.3031 51.5 28.2803 51.6302 28.2803 51.7539V53.4629C28.2412 53.8535 28.0264 54.0651 27.6357 54.0977C27.4535 54.0977 27.2939 54.0391 27.1572 53.9219C27.027 53.7982 26.9619 53.6452 26.9619 53.4629V51.7637H26.9717C26.9717 51.4251 27.0368 51.0964 27.167 50.7773ZM36.2393 53.9805C35.6663 53.9609 35.2334 53.8275 34.9404 53.5801C34.6475 53.3262 34.4359 53.043 34.3057 52.7305C34.1755 52.4115 34.1104 52.0892 34.1104 51.7637C34.1104 51.4251 34.1722 51.0996 34.2959 50.7871C34.4261 50.4681 34.6377 50.1849 34.9307 49.9375C35.2301 49.6836 35.6077 49.5534 36.0635 49.5469H39.2275C39.6833 49.5534 40.0576 49.6836 40.3506 49.9375C40.6501 50.1849 40.8617 50.4681 40.9854 50.7871C41.1156 51.0996 41.1807 51.4251 41.1807 51.7637C41.1807 52.0892 41.1156 52.4115 40.9854 52.7305C40.8551 53.043 40.6436 53.3262 40.3506 53.5801C40.0576 53.8275 39.6247 53.9609 39.0518 53.9805H36.2393ZM36.0244 50.8555C35.9007 50.8555 35.7933 50.9076 35.7021 51.0117C35.611 51.1094 35.5426 51.2266 35.4971 51.3633C35.458 51.4935 35.4385 51.6237 35.4385 51.7539C35.4385 51.8906 35.458 52.0273 35.4971 52.1641C35.5426 52.2943 35.611 52.4115 35.7021 52.5156C35.7933 52.6133 35.9007 52.6654 36.0244 52.6719H39.2666C39.3903 52.6654 39.4977 52.6133 39.5889 52.5156C39.68 52.4115 39.7451 52.2943 39.7842 52.1641C39.8298 52.0273 39.8525 51.8906 39.8525 51.7539C39.8525 51.6237 39.8298 51.4935 39.7842 51.3633C39.7451 51.2266 39.68 51.1094 39.5889 51.0117C39.4977 50.9076 39.3903 50.8555 39.2666 50.8555H36.0244ZM45.4189 49.4004C45.7575 49.4004 46.0895 49.4395 46.415 49.5176C46.7471 49.5957 47.0628 49.7129 47.3623 49.8691C47.6618 50.0189 47.9255 50.2207 48.1533 50.4746C48.3877 50.7285 48.5146 51.0312 48.5342 51.3828V51.793V53.4629C48.4951 53.8535 48.2803 54.0651 47.8896 54.0977C47.7074 54.0977 47.5479 54.0391 47.4111 53.9219C47.2809 53.7982 47.2158 53.6452 47.2158 53.4629V53.0332V51.6855C47.2028 51.4837 47.1247 51.3177 46.9814 51.1875C46.8447 51.0508 46.6885 50.9434 46.5127 50.8652C46.3434 50.7871 46.1644 50.7285 45.9756 50.6895C45.7933 50.6504 45.6077 50.6309 45.4189 50.6309C45.2301 50.6309 45.0413 50.6504 44.8525 50.6895C44.6702 50.7285 44.4912 50.7871 44.3154 50.8652C44.1462 50.9434 43.9899 51.0508 43.8467 51.1875C43.71 51.3177 43.6351 51.4837 43.6221 51.6855V53.0332V53.4629C43.5895 53.8535 43.3779 54.0651 42.9873 54.0977C42.805 54.0977 42.6455 54.0391 42.5088 53.9219C42.3786 53.7982 42.3135 53.6452 42.3135 53.4629V51.793V51.3828C42.333 51.0312 42.4567 50.7285 42.6846 50.4746C42.9124 50.2207 43.1761 50.0189 43.4756 49.8691C43.7751 49.7129 44.0876 49.5957 44.4131 49.5176C44.7451 49.4395 45.0804 49.4004 45.4189 49.4004ZM56.8447 47.9551C57.0726 47.9551 57.2939 47.9941 57.5088 48.0723C57.7301 48.1504 57.9417 48.2643 58.1436 48.4141C58.1761 48.4466 58.2119 48.4792 58.251 48.5117C58.2835 48.4792 58.3193 48.4466 58.3584 48.4141C58.5602 48.2643 58.7686 48.1504 58.9834 48.0723C59.2048 47.9941 59.4261 47.9551 59.6475 47.9551C59.8753 47.9551 60.0967 47.9941 60.3115 48.0723C60.5329 48.1504 60.7412 48.2676 60.9365 48.4238C61.1383 48.5736 61.3141 48.7754 61.4639 49.0293C61.6201 49.2832 61.6982 49.5859 61.6982 49.9375V53.4629C61.6592 53.8535 61.4443 54.0651 61.0537 54.0977C60.8714 54.0977 60.7119 54.0391 60.5752 53.9219C60.445 53.7982 60.3799 53.6452 60.3799 53.4629V50.0156C60.3799 49.8594 60.3506 49.7292 60.292 49.625C60.2334 49.5143 60.1683 49.4297 60.0967 49.3711C60.0251 49.306 59.9502 49.2604 59.8721 49.2344C59.7939 49.2018 59.7158 49.1855 59.6377 49.1855C59.5596 49.1855 59.4814 49.2018 59.4033 49.2344C59.3317 49.2604 59.2601 49.306 59.1885 49.3711C59.1169 49.4297 59.0518 49.5143 58.9932 49.625C58.9346 49.7292 58.902 49.8594 58.8955 50.0156V53.4629C58.8564 53.8535 58.6416 54.0651 58.251 54.0977C58.0687 54.0977 57.9092 54.0391 57.7725 53.9219C57.6423 53.7982 57.5771 53.6452 57.5771 53.4629V50.0156C57.5771 49.8594 57.5479 49.7292 57.4893 49.625C57.4307 49.5143 57.3656 49.4297 57.2939 49.3711C57.2223 49.306 57.1475 49.2604 57.0693 49.2344C56.9912 49.2018 56.9131 49.1855 56.835 49.1855C56.7568 49.1855 56.6787 49.2018 56.6006 49.2344C56.529 49.2604 56.4574 49.306 56.3857 49.3711C56.3141 49.4297 56.249 49.5143 56.1904 49.625C56.1318 49.7292 56.0993 49.8594 56.0928 50.0156V53.4629C56.0602 53.8535 55.8486 54.0651 55.458 54.0977C55.2757 54.0977 55.1162 54.0391 54.9795 53.9219C54.8493 53.7982 54.7842 53.6452 54.7842 53.4629V49.9375C54.7972 49.5859 54.8786 49.2832 55.0283 49.0293C55.1781 48.7754 55.3538 48.5736 55.5557 48.4238C55.7575 48.2676 55.9658 48.1504 56.1807 48.0723C56.402 47.9941 56.6234 47.9551 56.8447 47.9551ZM68.3877 53.4629V51.1094C68.3877 50.9466 68.3031 50.862 68.1338 50.8555H64.7158C64.5921 50.862 64.4847 50.9173 64.3936 51.0215C64.3024 51.1191 64.234 51.2363 64.1885 51.373C64.1494 51.5033 64.1299 51.6367 64.1299 51.7734C64.1299 51.9036 64.1494 52.0371 64.1885 52.1738C64.234 52.304 64.3024 52.4212 64.3936 52.5254C64.4847 52.623 64.5921 52.6719 64.7158 52.6719H67.2158C67.3981 52.6719 67.5511 52.737 67.6748 52.8672C67.805 52.9909 67.8701 53.1439 67.8701 53.3262C67.8701 53.5085 67.805 53.6615 67.6748 53.7852C67.5511 53.9154 67.3981 53.9805 67.2158 53.9805H64.7549C64.2992 53.974 63.9215 53.847 63.6221 53.5996C63.3291 53.3457 63.1175 53.0625 62.9873 52.75C62.8636 52.431 62.8018 52.1022 62.8018 51.7637C62.8018 51.4382 62.8669 51.1191 62.9971 50.8066C63.1273 50.4876 63.3389 50.2044 63.6318 49.957C63.9248 49.7031 64.3577 49.5664 64.9307 49.5469H69.0322C69.2145 49.5469 69.3708 49.6087 69.501 49.7324C69.6312 49.8496 69.6995 49.9993 69.7061 50.1816V53.4629C69.7061 53.6452 69.6377 53.7982 69.501 53.9219C69.3708 54.0391 69.2145 54.0977 69.0322 54.0977C68.6416 54.0651 68.4268 53.8535 68.3877 53.4629ZM74.0811 49.4004C74.4196 49.4004 74.7516 49.4395 75.0771 49.5176C75.4092 49.5957 75.7249 49.7129 76.0244 49.8691C76.3239 50.0189 76.5876 50.2207 76.8154 50.4746C77.0498 50.7285 77.1768 51.0312 77.1963 51.3828V51.793V53.4629C77.1572 53.8535 76.9424 54.0651 76.5518 54.0977C76.3695 54.0977 76.21 54.0391 76.0732 53.9219C75.943 53.7982 75.8779 53.6452 75.8779 53.4629V53.0332V51.6855C75.8649 51.4837 75.7868 51.3177 75.6436 51.1875C75.5068 51.0508 75.3506 50.9434 75.1748 50.8652C75.0055 50.7871 74.8265 50.7285 74.6377 50.6895C74.4554 50.6504 74.2699 50.6309 74.0811 50.6309C73.8923 50.6309 73.7035 50.6504 73.5146 50.6895C73.3324 50.7285 73.1533 50.7871 72.9775 50.8652C72.8083 50.9434 72.652 51.0508 72.5088 51.1875C72.3721 51.3177 72.2972 51.4837 72.2842 51.6855V53.0332V53.4629C72.2516 53.8535 72.04 54.0651 71.6494 54.0977C71.4671 54.0977 71.3076 54.0391 71.1709 53.9219C71.0407 53.7982 70.9756 53.6452 70.9756 53.4629V51.793V51.3828C70.9951 51.0312 71.1188 50.7285 71.3467 50.4746C71.5745 50.2207 71.8382 50.0189 72.1377 49.8691C72.4372 49.7129 72.7497 49.5957 73.0752 49.5176C73.4072 49.4395 73.7425 49.4004 74.0811 49.4004Z" fill="#72757A"/>
<path d="M21.5078 61.1719C21.5807 61.1719 21.6432 61.1966 21.6953 61.2461C21.7474 61.293 21.7747 61.3529 21.7773 61.4258V61.8203C21.7747 61.9271 21.7812 62.026 21.7969 62.1172C21.8151 62.2057 21.8568 62.2852 21.9219 62.3555C21.987 62.4258 22.069 62.4635 22.168 62.4688H23.2109V61.4336C23.2109 61.3607 23.237 61.3008 23.2891 61.2539C23.3438 61.2044 23.4076 61.1797 23.4805 61.1797C23.6367 61.1927 23.7227 61.2773 23.7383 61.4336V62.707C23.7383 62.9154 23.7096 63.112 23.6523 63.2969C23.6003 63.4609 23.5143 63.599 23.3945 63.7109C23.2773 63.8255 23.1276 63.888 22.9453 63.8984H21.5938C21.5234 63.8958 21.4635 63.8698 21.4141 63.8203C21.3672 63.7734 21.3424 63.7148 21.3398 63.6445C21.3398 63.5716 21.3633 63.5091 21.4102 63.457C21.4596 63.4049 21.5208 63.3776 21.5938 63.375H22.8125C22.9115 63.3698 22.9935 63.332 23.0586 63.2617C23.1237 63.1914 23.1654 63.1094 23.1836 63.0156C23.1862 63.0078 23.1875 63 23.1875 62.9922H22.0352C21.8529 62.9818 21.7018 62.9206 21.582 62.8086C21.4648 62.694 21.3802 62.5547 21.3281 62.3906C21.2786 62.2266 21.2526 62.0521 21.25 61.8672V61.4258C21.2526 61.3555 21.2786 61.2969 21.3281 61.25C21.3776 61.2005 21.4375 61.1745 21.5078 61.1719ZM25.0586 62.9922C24.8294 62.9844 24.6562 62.931 24.5391 62.832C24.4219 62.7305 24.3372 62.6172 24.2852 62.4922C24.2331 62.3646 24.207 62.2357 24.207 62.1055C24.207 61.9701 24.2318 61.8398 24.2812 61.7148C24.3333 61.5872 24.418 61.474 24.5352 61.375C24.6549 61.2734 24.806 61.2214 24.9883 61.2188H26.2539C26.4362 61.2214 26.5859 61.2734 26.7031 61.375C26.8229 61.474 26.9076 61.5872 26.957 61.7148C27.0091 61.8398 27.0352 61.9701 27.0352 62.1055C27.0352 62.2357 27.0091 62.3646 26.957 62.4922C26.9049 62.6172 26.8203 62.7305 26.7031 62.832C26.5859 62.931 26.4128 62.9844 26.1836 62.9922H25.0586ZM24.9727 61.7422C24.9232 61.7422 24.8802 61.763 24.8438 61.8047C24.8073 61.8438 24.7799 61.8906 24.7617 61.9453C24.7461 61.9974 24.7383 62.0495 24.7383 62.1016C24.7383 62.1562 24.7461 62.2109 24.7617 62.2656C24.7799 62.3177 24.8073 62.3646 24.8438 62.4062C24.8802 62.4453 24.9232 62.4661 24.9727 62.4688H26.2695C26.319 62.4661 26.362 62.4453 26.3984 62.4062C26.4349 62.3646 26.4609 62.3177 26.4766 62.2656C26.4948 62.2109 26.5039 62.1562 26.5039 62.1016C26.5039 62.0495 26.4948 61.9974 26.4766 61.9453C26.4609 61.8906 26.4349 61.8438 26.3984 61.8047C26.362 61.763 26.319 61.7422 26.2695 61.7422H24.9727ZM28.7305 63.0586C28.5951 63.0586 28.4609 63.043 28.3281 63.0117C28.1979 62.9805 28.0729 62.9349 27.9531 62.875C27.8333 62.8125 27.7279 62.7305 27.6367 62.6289C27.5456 62.5273 27.4961 62.4062 27.4883 62.2656V62.1016V61.4336C27.4883 61.3607 27.5143 61.3008 27.5664 61.2539C27.6211 61.2044 27.6849 61.1797 27.7578 61.1797C27.9141 61.1927 27.9987 61.2773 28.0117 61.4336V61.6055V62.1445C28.0169 62.2253 28.0469 62.293 28.1016 62.3477C28.1589 62.3997 28.2214 62.4414 28.2891 62.4727C28.3594 62.5039 28.431 62.5273 28.5039 62.543C28.5794 62.5586 28.6549 62.5664 28.7305 62.5664C28.806 62.5664 28.8802 62.5586 28.9531 62.543C29.0286 62.5273 29.1003 62.5039 29.168 62.4727C29.2383 62.4414 29.3008 62.3997 29.3555 62.3477C29.4128 62.293 29.444 62.2253 29.4492 62.1445V61.6055V61.4336C29.4492 61.3607 29.4753 61.3008 29.5273 61.2539C29.582 61.2044 29.6458 61.1797 29.7188 61.1797C29.875 61.1927 29.9609 61.2773 29.9766 61.4336V62.1016V62.2656C29.9688 62.4062 29.918 62.5273 29.8242 62.6289C29.7331 62.7305 29.6276 62.8125 29.5078 62.875C29.388 62.9349 29.2617 62.9805 29.1289 63.0117C28.9987 63.043 28.8659 63.0586 28.7305 63.0586ZM33.2695 62.9922C33.0404 62.9844 32.8672 62.931 32.75 62.832C32.6328 62.7305 32.5482 62.6172 32.4961 62.4922C32.444 62.3646 32.418 62.2357 32.418 62.1055C32.418 61.9701 32.4427 61.8398 32.4922 61.7148C32.5443 61.5872 32.6289 61.474 32.7461 61.375C32.8659 61.2734 33.0169 61.2214 33.1992 61.2188H34.6836C34.7565 61.2188 34.8177 61.2448 34.8672 61.2969C34.9193 61.3464 34.9453 61.4076 34.9453 61.4805C34.9453 61.5534 34.9193 61.6159 34.8672 61.668C34.8177 61.7174 34.7565 61.7422 34.6836 61.7422H33.1836C33.1341 61.7422 33.0911 61.763 33.0547 61.8047C33.0182 61.8438 32.9909 61.8906 32.9727 61.9453C32.957 61.9974 32.9492 62.0495 32.9492 62.1016C32.9492 62.1562 32.957 62.2109 32.9727 62.2656C32.9909 62.3177 33.0182 62.3646 33.0547 62.4062C33.0911 62.4453 33.1341 62.4661 33.1836 62.4688H34.6836C34.7565 62.4688 34.8177 62.4948 34.8672 62.5469C34.9193 62.5964 34.9453 62.6576 34.9453 62.7305C34.9453 62.8034 34.9193 62.8646 34.8672 62.9141C34.8177 62.9661 34.7565 62.9922 34.6836 62.9922H33.2695ZM37.5391 62.7852V61.8438C37.5391 61.7786 37.5052 61.7448 37.4375 61.7422H36.0703C36.0208 61.7448 35.9779 61.7669 35.9414 61.8086C35.9049 61.8477 35.8776 61.8945 35.8594 61.9492C35.8438 62.0013 35.8359 62.0547 35.8359 62.1094C35.8359 62.1615 35.8438 62.2148 35.8594 62.2695C35.8776 62.3216 35.9049 62.3685 35.9414 62.4102C35.9779 62.4492 36.0208 62.4688 36.0703 62.4688H37.0703C37.1432 62.4688 37.2044 62.4948 37.2539 62.5469C37.306 62.5964 37.332 62.6576 37.332 62.7305C37.332 62.8034 37.306 62.8646 37.2539 62.9141C37.2044 62.9661 37.1432 62.9922 37.0703 62.9922H36.0859C35.9036 62.9896 35.7526 62.9388 35.6328 62.8398C35.5156 62.7383 35.431 62.625 35.3789 62.5C35.3294 62.3724 35.3047 62.2409 35.3047 62.1055C35.3047 61.9753 35.3307 61.8477 35.3828 61.7227C35.4349 61.5951 35.5195 61.4818 35.6367 61.3828C35.7539 61.2812 35.9271 61.2266 36.1562 61.2188H37.7969C37.8698 61.2188 37.9323 61.2435 37.9844 61.293C38.0365 61.3398 38.0638 61.3997 38.0664 61.4727V62.7852C38.0664 62.8581 38.0391 62.9193 37.9844 62.9688C37.9323 63.0156 37.8698 63.0391 37.7969 63.0391C37.6406 63.026 37.5547 62.9414 37.5391 62.7852ZM39.8164 61.1602C39.9518 61.1602 40.0846 61.1758 40.2148 61.207C40.3477 61.2383 40.474 61.2852 40.5938 61.3477C40.7135 61.4076 40.819 61.4883 40.9102 61.5898C41.0039 61.6914 41.0547 61.8125 41.0625 61.9531V62.1172V62.7852C41.0469 62.9414 40.9609 63.026 40.8047 63.0391C40.7318 63.0391 40.668 63.0156 40.6133 62.9688C40.5612 62.9193 40.5352 62.8581 40.5352 62.7852V62.6133V62.0742C40.5299 61.9935 40.4987 61.9271 40.4414 61.875C40.3867 61.8203 40.3242 61.7773 40.2539 61.7461C40.1862 61.7148 40.1146 61.6914 40.0391 61.6758C39.9661 61.6602 39.8919 61.6523 39.8164 61.6523C39.7409 61.6523 39.6654 61.6602 39.5898 61.6758C39.5169 61.6914 39.4453 61.7148 39.375 61.7461C39.3073 61.7773 39.2448 61.8203 39.1875 61.875C39.1328 61.9271 39.1029 61.9935 39.0977 62.0742V62.6133V62.7852C39.0846 62.9414 39 63.026 38.8438 63.0391C38.7708 63.0391 38.707 63.0156 38.6523 62.9688C38.6003 62.9193 38.5742 62.8581 38.5742 62.7852V62.1172V61.9531C38.582 61.8125 38.6315 61.6914 38.7227 61.5898C38.8138 61.4883 38.9193 61.4076 39.0391 61.3477C39.1589 61.2852 39.2839 61.2383 39.4141 61.207C39.5469 61.1758 39.681 61.1602 39.8164 61.1602ZM43.8281 60.625C43.8984 60.6276 43.9583 60.6536 44.0078 60.7031C44.0573 60.75 44.0833 60.8086 44.0859 60.8789V62.793C44.0703 62.9492 43.9844 63.0339 43.8281 63.0469C43.7552 63.0469 43.6914 63.0234 43.6367 62.9766C43.5846 62.9271 43.5586 62.8659 43.5586 62.793V60.8789C43.5612 60.806 43.5885 60.7461 43.6406 60.6992C43.6927 60.6497 43.7552 60.625 43.8281 60.625ZM45.3906 62.9922C45.1615 62.9844 44.9883 62.931 44.8711 62.832C44.7539 62.7305 44.6693 62.6172 44.6172 62.4922C44.5651 62.3646 44.5391 62.2357 44.5391 62.1055C44.5391 61.9701 44.5638 61.8398 44.6133 61.7148C44.6654 61.5872 44.75 61.474 44.8672 61.375C44.987 61.2734 45.138 61.2214 45.3203 61.2188H46.5859C46.7682 61.2214 46.918 61.2734 47.0352 61.375C47.1549 61.474 47.2396 61.5872 47.2891 61.7148C47.3411 61.8398 47.3672 61.9701 47.3672 62.1055C47.3672 62.2357 47.3411 62.3646 47.2891 62.4922C47.237 62.6172 47.1523 62.7305 47.0352 62.832C46.918 62.931 46.7448 62.9844 46.5156 62.9922H45.3906ZM45.3047 61.7422C45.2552 61.7422 45.2122 61.763 45.1758 61.8047C45.1393 61.8438 45.112 61.8906 45.0938 61.9453C45.0781 61.9974 45.0703 62.0495 45.0703 62.1016C45.0703 62.1562 45.0781 62.2109 45.0938 62.2656C45.112 62.3177 45.1393 62.3646 45.1758 62.4062C45.2122 62.4453 45.2552 62.4661 45.3047 62.4688H46.6016C46.651 62.4661 46.694 62.4453 46.7305 62.4062C46.7669 62.3646 46.793 62.3177 46.8086 62.2656C46.8268 62.2109 46.8359 62.1562 46.8359 62.1016C46.8359 62.0495 46.8268 61.9974 46.8086 61.9453C46.793 61.8906 46.7669 61.8438 46.7305 61.8047C46.694 61.763 46.651 61.7422 46.6016 61.7422H45.3047ZM48.6094 62.9922C48.3802 62.9844 48.207 62.931 48.0898 62.832C47.9727 62.7305 47.888 62.6172 47.8359 62.4922C47.7839 62.3646 47.7578 62.2357 47.7578 62.1055C47.7578 61.9701 47.7826 61.8398 47.832 61.7148C47.8841 61.5872 47.9688 61.474 48.0859 61.375C48.2057 61.2734 48.3568 61.2214 48.5391 61.2188H50.0234C50.0964 61.2188 50.1576 61.2448 50.207 61.2969C50.2591 61.3464 50.2852 61.4076 50.2852 61.4805C50.2852 61.5534 50.2591 61.6159 50.207 61.668C50.1576 61.7174 50.0964 61.7422 50.0234 61.7422H48.5234C48.474 61.7422 48.431 61.763 48.3945 61.8047C48.3581 61.8438 48.3307 61.8906 48.3125 61.9453C48.2969 61.9974 48.2891 62.0495 48.2891 62.1016C48.2891 62.1562 48.2969 62.2109 48.3125 62.2656C48.3307 62.3177 48.3581 62.3646 48.3945 62.4062C48.431 62.4453 48.474 62.4661 48.5234 62.4688H50.0234C50.0964 62.4688 50.1576 62.4948 50.207 62.5469C50.2591 62.5964 50.2852 62.6576 50.2852 62.7305C50.2852 62.8034 50.2591 62.8646 50.207 62.9141C50.1576 62.9661 50.0964 62.9922 50.0234 62.9922H48.6094ZM50.9648 60.625C51.0352 60.6276 51.0951 60.6536 51.1445 60.7031C51.194 60.75 51.2201 60.8086 51.2227 60.8789V62.793C51.207 62.9492 51.1211 63.0339 50.9648 63.0469C50.8919 63.0469 50.8281 63.0234 50.7734 62.9766C50.7214 62.9271 50.6953 62.8659 50.6953 62.793V60.8789C50.6979 60.806 50.7253 60.7461 50.7773 60.6992C50.8294 60.6497 50.8919 60.625 50.9648 60.625ZM51.4609 61.7148C51.5365 61.5924 51.681 61.5026 51.8945 61.4453L52.8984 61.1758C52.9688 61.1549 53.0352 61.1615 53.0977 61.1953C53.1628 61.2266 53.2057 61.2773 53.2266 61.3477C53.25 61.4154 53.2448 61.4818 53.2109 61.5469C53.1797 61.6094 53.1289 61.6523 53.0586 61.6758L51.9883 61.9531C51.9128 61.9818 51.8763 62.0312 51.8789 62.1016C51.8763 62.1719 51.9128 62.2214 51.9883 62.25L53.0586 62.5273C53.1289 62.5508 53.1797 62.5951 53.2109 62.6602C53.2448 62.7227 53.25 62.7878 53.2266 62.8555C53.2057 62.9258 53.1628 62.9766 53.0977 63.0078C53.0352 63.0417 52.9688 63.0482 52.8984 63.0273L51.8945 62.7578C51.6784 62.6979 51.5326 62.6068 51.457 62.4844C51.3841 62.362 51.3477 62.2344 51.3477 62.1016C51.3477 61.9688 51.3854 61.8398 51.4609 61.7148ZM56.4961 60.625C56.569 60.625 56.6315 60.6497 56.6836 60.6992C56.7357 60.7461 56.763 60.806 56.7656 60.8789V61.2188H58.0938C58.1667 61.2188 58.2292 61.2435 58.2812 61.293C58.3307 61.3451 58.3555 61.4076 58.3555 61.4805C58.3555 61.5534 58.3294 61.6159 58.2773 61.668C58.2279 61.7174 58.1667 61.7422 58.0938 61.7422H56.7656V61.8203C56.763 61.9271 56.7695 62.026 56.7852 62.1172C56.8034 62.2057 56.8451 62.2852 56.9102 62.3555C56.9753 62.4258 57.0573 62.4635 57.1562 62.4688H58.1094C58.1823 62.4714 58.2422 62.4987 58.2891 62.5508C58.3385 62.6029 58.3633 62.6654 58.3633 62.7383C58.3607 62.8086 58.3346 62.8685 58.2852 62.918C58.2383 62.9648 58.1797 62.9896 58.1094 62.9922H57.0234C56.8411 62.9818 56.6901 62.9206 56.5703 62.8086C56.4531 62.694 56.3685 62.5547 56.3164 62.3906C56.2669 62.2266 56.2409 62.0521 56.2383 61.8672V61.7422H55.7891C55.7161 61.7422 55.6549 61.7161 55.6055 61.6641C55.5534 61.6146 55.5273 61.5534 55.5273 61.4805C55.5273 61.4076 55.5521 61.3464 55.6016 61.2969C55.6536 61.2448 55.7161 61.2188 55.7891 61.2188H56.2383V60.8789C56.2409 60.8086 56.2669 60.75 56.3164 60.7031C56.3659 60.6536 56.4258 60.6276 56.4961 60.625ZM59.0078 60.625C59.0781 60.6276 59.138 60.6536 59.1875 60.7031C59.237 60.75 59.263 60.8086 59.2656 60.8789V61.2188H60.4766C60.6589 61.2214 60.8086 61.2734 60.9258 61.375C61.0456 61.474 61.1302 61.5859 61.1797 61.7109C61.2318 61.8385 61.2578 61.9701 61.2578 62.1055H61.2617V62.7852C61.2617 62.8581 61.2344 62.9193 61.1797 62.9688C61.1276 63.0156 61.0651 63.0391 60.9922 63.0391C60.8359 63.026 60.75 62.9414 60.7344 62.7852V62.1016C60.7344 62.0521 60.724 62 60.7031 61.9453C60.6849 61.8906 60.6576 61.8438 60.6211 61.8047C60.5846 61.763 60.5417 61.7422 60.4922 61.7422H59.2656V62.793C59.25 62.9492 59.1641 63.0339 59.0078 63.0469C58.9349 63.0469 58.8711 63.0234 58.8164 62.9766C58.7643 62.9271 58.7383 62.8659 58.7383 62.793V60.8789C58.7409 60.806 58.7682 60.7461 58.8203 60.6992C58.8724 60.6497 58.9349 60.625 59.0078 60.625ZM62.0234 61.1797C62.0938 61.1823 62.1536 61.2083 62.2031 61.2578C62.2526 61.3047 62.2786 61.3633 62.2812 61.4336V62.7852C62.2656 62.9414 62.1797 63.026 62.0234 63.0391C61.9505 63.0391 61.8867 63.0156 61.832 62.9688C61.7799 62.9193 61.7539 62.8581 61.7539 62.7852V61.4336C61.7565 61.3607 61.7839 61.3008 61.8359 61.2539C61.888 61.2044 61.9505 61.1797 62.0234 61.1797ZM61.6953 60.6719C61.6953 60.599 61.7266 60.5365 61.7891 60.4844C61.8516 60.4323 61.9271 60.4062 62.0156 60.4062C62.1042 60.4062 62.1797 60.4323 62.2422 60.4844C62.3047 60.5365 62.3359 60.599 62.3359 60.6719C62.3359 60.7474 62.3047 60.8112 62.2422 60.8633C62.1797 60.9154 62.1042 60.9414 62.0156 60.9414C61.9271 60.9414 61.8516 60.9154 61.7891 60.8633C61.7266 60.8112 61.6953 60.7474 61.6953 60.6719ZM65.2383 61.4453C65.2383 61.5104 65.2122 61.5651 65.1602 61.6094C65.1107 61.651 65.0495 61.6719 64.9766 61.6719H63.3242C63.2904 61.6719 63.263 61.6784 63.2422 61.6914C63.2214 61.7044 63.2057 61.7188 63.1953 61.7344C63.1849 61.7474 63.1797 61.7591 63.1797 61.7695C63.1797 61.7826 63.1849 61.7969 63.1953 61.8125C63.2057 61.8255 63.2214 61.8385 63.2422 61.8516C63.263 61.862 63.2904 61.8685 63.3242 61.8711H64.6016C64.7656 61.8737 64.901 61.9062 65.0078 61.9688C65.1146 62.0286 65.1901 62.1003 65.2344 62.1836C65.2812 62.2643 65.3047 62.3464 65.3047 62.4297C65.3047 62.5104 65.2812 62.5924 65.2344 62.6758C65.1875 62.7565 65.1107 62.8281 65.0039 62.8906C64.8997 62.9505 64.7656 62.9805 64.6016 62.9805C64.5729 62.9831 64.5521 62.9844 64.5391 62.9844H63.0234C62.9505 62.9844 62.888 62.9635 62.8359 62.9219C62.7865 62.8776 62.7617 62.8242 62.7617 62.7617C62.7617 62.6966 62.7878 62.6419 62.8398 62.5977C62.8893 62.556 62.9505 62.5352 63.0234 62.5352H64.6328C64.6719 62.5378 64.7031 62.5326 64.7266 62.5195C64.7526 62.5065 64.7721 62.4922 64.7852 62.4766C64.7982 62.4609 64.8047 62.4453 64.8047 62.4297C64.8047 62.4219 64.7982 62.4089 64.7852 62.3906C64.7721 62.3698 64.7526 62.3542 64.7266 62.3438C64.7031 62.3307 64.6719 62.3229 64.6328 62.3203H63.3516C63.2005 62.3177 63.0755 62.2865 62.9766 62.2266C62.8776 62.1641 62.8073 62.0924 62.7656 62.0117C62.724 61.931 62.7031 61.8503 62.7031 61.7695C62.7031 61.6888 62.724 61.6094 62.7656 61.5312C62.8099 61.4505 62.8802 61.3815 62.9766 61.3242C63.0755 61.2643 63.2005 61.2318 63.3516 61.2266C63.3776 61.224 63.3971 61.2227 63.4102 61.2227H64.9766C65.0495 61.2227 65.1107 61.2448 65.1602 61.2891C65.2122 61.3307 65.2383 61.3828 65.2383 61.4453ZM68.2656 60.8789V62.3672C68.2656 62.4323 68.2995 62.4661 68.3672 62.4688H69.7344C69.7839 62.4661 69.8268 62.4453 69.8633 62.4062C69.8997 62.3646 69.9258 62.3177 69.9414 62.2656C69.9596 62.2109 69.9688 62.1562 69.9688 62.1016C69.9688 62.0495 69.9596 61.9974 69.9414 61.9453C69.9258 61.8906 69.8997 61.8438 69.8633 61.8047C69.8268 61.763 69.7839 61.7422 69.7344 61.7422H68.7344C68.6615 61.7422 68.599 61.7174 68.5469 61.668C68.4974 61.6159 68.4727 61.5534 68.4727 61.4805C68.4727 61.4076 68.4987 61.3464 68.5508 61.2969C68.6003 61.2448 68.6615 61.2188 68.7344 61.2188H69.7188C69.901 61.2214 70.0508 61.2734 70.168 61.375C70.2878 61.474 70.3724 61.5872 70.4219 61.7148C70.474 61.8398 70.5 61.9701 70.5 62.1055C70.5 62.2357 70.474 62.3646 70.4219 62.4922C70.3698 62.6172 70.2852 62.7305 70.168 62.832C70.0508 62.931 69.8776 62.9844 69.6484 62.9922H68.0078C67.9349 62.9922 67.8724 62.9688 67.8203 62.9219C67.7682 62.8724 67.7409 62.8112 67.7383 62.7383V60.8789C67.7383 60.806 67.7643 60.7461 67.8164 60.6992C67.8711 60.6497 67.9349 60.625 68.0078 60.625C68.1641 60.638 68.25 60.7227 68.2656 60.8789ZM71.1836 61.1719C71.2565 61.1719 71.319 61.1966 71.3711 61.2461C71.4232 61.293 71.4505 61.3529 71.4531 61.4258V61.8203C71.4505 61.9271 71.457 62.026 71.4727 62.1172C71.4909 62.2057 71.5326 62.2852 71.5977 62.3555C71.6628 62.4258 71.7448 62.4635 71.8438 62.4688H72.8867V61.4336C72.8867 61.3607 72.9128 61.3008 72.9648 61.2539C73.0195 61.2044 73.0833 61.1797 73.1562 61.1797C73.3125 61.1927 73.3984 61.2773 73.4141 61.4336V62.707C73.4141 62.9154 73.3854 63.112 73.3281 63.2969C73.276 63.4609 73.1901 63.599 73.0703 63.7109C72.9531 63.8255 72.8034 63.888 72.6211 63.8984H71.2695C71.1992 63.8958 71.1393 63.8698 71.0898 63.8203C71.043 63.7734 71.0182 63.7148 71.0156 63.6445C71.0156 63.5716 71.0391 63.5091 71.0859 63.457C71.1354 63.4049 71.1966 63.3776 71.2695 63.375H72.4883C72.5872 63.3698 72.6693 63.332 72.7344 63.2617C72.7995 63.1914 72.8411 63.1094 72.8594 63.0156C72.862 63.0078 72.8633 63 72.8633 62.9922H71.7109C71.5286 62.9818 71.3776 62.9206 71.2578 62.8086C71.1406 62.694 71.056 62.5547 71.0039 62.3906C70.9544 62.2266 70.9284 62.0521 70.9258 61.8672V61.4258C70.9284 61.3555 70.9544 61.2969 71.0039 61.25C71.0534 61.2005 71.1133 61.1745 71.1836 61.1719ZM22.0742 67.043C21.9857 67.043 21.8971 67.0273 21.8086 66.9961C21.7227 66.9648 21.6393 66.9193 21.5586 66.8594C21.4779 66.7969 21.4076 66.7148 21.3477 66.6133C21.2878 66.5117 21.2552 66.3906 21.25 66.25V65.418C21.25 65.3451 21.276 65.2852 21.3281 65.2383C21.3828 65.1888 21.4466 65.1641 21.5195 65.1641C21.6758 65.1771 21.7604 65.2617 21.7734 65.418V66.2188C21.776 66.2812 21.7891 66.3346 21.8125 66.3789C21.8359 66.4206 21.862 66.4544 21.8906 66.4805C21.9193 66.5039 21.9479 66.5221 21.9766 66.5352C22.0078 66.5456 22.0391 66.5508 22.0703 66.5508C22.1016 66.5508 22.1328 66.5456 22.1641 66.5352C22.1953 66.5221 22.2253 66.5039 22.2539 66.4805C22.2826 66.4544 22.3086 66.4206 22.332 66.3789C22.3555 66.3346 22.3672 66.2812 22.3672 66.2188V65.418C22.3672 65.3451 22.3932 65.2852 22.4453 65.2383C22.5 65.1888 22.5638 65.1641 22.6367 65.1641C22.793 65.1771 22.8789 65.2617 22.8945 65.418V66.2188C22.8971 66.2812 22.9102 66.3333 22.9336 66.375C22.957 66.4193 22.9831 66.4544 23.0117 66.4805C23.0404 66.5039 23.069 66.5221 23.0977 66.5352C23.1289 66.5456 23.1602 66.5508 23.1914 66.5508C23.2227 66.5508 23.2539 66.5456 23.2852 66.5352C23.3164 66.5221 23.3464 66.5039 23.375 66.4805C23.4036 66.4544 23.4297 66.4206 23.4531 66.3789C23.4766 66.3346 23.4883 66.2812 23.4883 66.2188V65.418C23.4883 65.3451 23.5143 65.2852 23.5664 65.2383C23.6211 65.1888 23.6849 65.1641 23.7578 65.1641C23.9141 65.1771 24 65.2617 24.0156 65.418V66.25C24.0156 66.3906 23.9844 66.5117 23.9219 66.6133C23.862 66.7148 23.7917 66.7969 23.7109 66.8594C23.6328 66.9193 23.5495 66.9648 23.4609 66.9961C23.375 67.0273 23.2865 67.043 23.1953 67.043C23.1068 67.043 23.0182 67.0273 22.9297 66.9961C22.8438 66.9648 22.7604 66.918 22.6797 66.8555C22.6641 66.8451 22.6497 66.8333 22.6367 66.8203C22.6211 66.8333 22.6068 66.8451 22.5938 66.8555C22.513 66.918 22.4284 66.9648 22.3398 66.9961C22.2539 67.0273 22.1654 67.043 22.0742 67.043ZM24.8008 65.1797C24.8711 65.1823 24.931 65.2083 24.9805 65.2578C25.0299 65.3047 25.056 65.3633 25.0586 65.4336V66.7852C25.043 66.9414 24.957 67.026 24.8008 67.0391C24.7279 67.0391 24.6641 67.0156 24.6094 66.9688C24.5573 66.9193 24.5312 66.8581 24.5312 66.7852V65.4336C24.5339 65.3607 24.5612 65.3008 24.6133 65.2539C24.6654 65.2044 24.7279 65.1797 24.8008 65.1797ZM24.4727 64.6719C24.4727 64.599 24.5039 64.5365 24.5664 64.4844C24.6289 64.4323 24.7044 64.4062 24.793 64.4062C24.8815 64.4062 24.957 64.4323 25.0195 64.4844C25.082 64.5365 25.1133 64.599 25.1133 64.6719C25.1133 64.7474 25.082 64.8112 25.0195 64.8633C24.957 64.9154 24.8815 64.9414 24.793 64.9414C24.7044 64.9414 24.6289 64.9154 24.5664 64.8633C24.5039 64.8112 24.4727 64.7474 24.4727 64.6719ZM26.7812 65.1602C26.9167 65.1602 27.0495 65.1758 27.1797 65.207C27.3125 65.2383 27.4388 65.2852 27.5586 65.3477C27.6784 65.4076 27.7839 65.4883 27.875 65.5898C27.9688 65.6914 28.0195 65.8125 28.0273 65.9531V66.1172V66.7852C28.0117 66.9414 27.9258 67.026 27.7695 67.0391C27.6966 67.0391 27.6328 67.0156 27.5781 66.9688C27.526 66.9193 27.5 66.8581 27.5 66.7852V66.6133V66.0742C27.4948 65.9935 27.4635 65.9271 27.4062 65.875C27.3516 65.8203 27.2891 65.7773 27.2188 65.7461C27.151 65.7148 27.0794 65.6914 27.0039 65.6758C26.931 65.6602 26.8568 65.6523 26.7812 65.6523C26.7057 65.6523 26.6302 65.6602 26.5547 65.6758C26.4818 65.6914 26.4102 65.7148 26.3398 65.7461C26.2721 65.7773 26.2096 65.8203 26.1523 65.875C26.0977 65.9271 26.0677 65.9935 26.0625 66.0742V66.6133V66.7852C26.0495 66.9414 25.9648 67.026 25.8086 67.0391C25.7357 67.0391 25.6719 67.0156 25.6172 66.9688C25.5651 66.9193 25.5391 66.8581 25.5391 66.7852V66.1172V65.9531C25.5469 65.8125 25.5964 65.6914 25.6875 65.5898C25.7786 65.4883 25.8841 65.4076 26.0039 65.3477C26.1237 65.2852 26.2487 65.2383 26.3789 65.207C26.5117 65.1758 26.6458 65.1602 26.7812 65.1602ZM28.793 65.1797C28.8633 65.1823 28.9232 65.2083 28.9727 65.2578C29.0221 65.3047 29.0482 65.3633 29.0508 65.4336V66.7852C29.0352 66.9414 28.9492 67.026 28.793 67.0391C28.7201 67.0391 28.6562 67.0156 28.6016 66.9688C28.5495 66.9193 28.5234 66.8581 28.5234 66.7852V65.4336C28.526 65.3607 28.5534 65.3008 28.6055 65.2539C28.6576 65.2044 28.7201 65.1797 28.793 65.1797ZM28.4648 64.6719C28.4648 64.599 28.4961 64.5365 28.5586 64.4844C28.6211 64.4323 28.6966 64.4062 28.7852 64.4062C28.8737 64.4062 28.9492 64.4323 29.0117 64.4844C29.0742 64.5365 29.1055 64.599 29.1055 64.6719C29.1055 64.7474 29.0742 64.8112 29.0117 64.8633C28.9492 64.9154 28.8737 64.9414 28.7852 64.9414C28.6966 64.9414 28.6211 64.9154 28.5586 64.8633C28.4961 64.8112 28.4648 64.7474 28.4648 64.6719ZM30.7734 65.1602C30.9089 65.1602 31.0417 65.1758 31.1719 65.207C31.3047 65.2383 31.431 65.2852 31.5508 65.3477C31.6706 65.4076 31.776 65.4883 31.8672 65.5898C31.9609 65.6914 32.0117 65.8125 32.0195 65.9531V66.1172V66.7852C32.0039 66.9414 31.918 67.026 31.7617 67.0391C31.6888 67.0391 31.625 67.0156 31.5703 66.9688C31.5182 66.9193 31.4922 66.8581 31.4922 66.7852V66.6133V66.0742C31.487 65.9935 31.4557 65.9271 31.3984 65.875C31.3438 65.8203 31.2812 65.7773 31.2109 65.7461C31.1432 65.7148 31.0716 65.6914 30.9961 65.6758C30.9232 65.6602 30.849 65.6523 30.7734 65.6523C30.6979 65.6523 30.6224 65.6602 30.5469 65.6758C30.474 65.6914 30.4023 65.7148 30.332 65.7461C30.2643 65.7773 30.2018 65.8203 30.1445 65.875C30.0898 65.9271 30.0599 65.9935 30.0547 66.0742V66.6133V66.7852C30.0417 66.9414 29.957 67.026 29.8008 67.0391C29.7279 67.0391 29.6641 67.0156 29.6094 66.9688C29.5573 66.9193 29.5312 66.8581 29.5312 66.7852V66.1172V65.9531C29.5391 65.8125 29.5885 65.6914 29.6797 65.5898C29.7708 65.4883 29.8763 65.4076 29.9961 65.3477C30.1159 65.2852 30.2409 65.2383 30.3711 65.207C30.5039 65.1758 30.638 65.1602 30.7734 65.1602ZM34.707 65.8438C34.707 65.7786 34.6732 65.7448 34.6055 65.7422H33.2383C33.1888 65.7448 33.1458 65.7669 33.1094 65.8086C33.0729 65.8477 33.0456 65.8945 33.0273 65.9492C33.0117 66.0013 33.0039 66.0547 33.0039 66.1094C33.0039 66.1615 33.0117 66.2148 33.0273 66.2695C33.0456 66.3216 33.0729 66.3685 33.1094 66.4102C33.1458 66.4492 33.1888 66.4688 33.2383 66.4688H34.2383C34.3112 66.4688 34.3724 66.4948 34.4219 66.5469C34.474 66.5964 34.5 66.6576 34.5 66.7305C34.5 66.8034 34.474 66.8646 34.4219 66.9141C34.3724 66.9661 34.3112 66.9922 34.2383 66.9922H33.2539C33.0716 66.9896 32.9206 66.9388 32.8008 66.8398C32.6836 66.7383 32.599 66.625 32.5469 66.5C32.4974 66.3724 32.4727 66.2409 32.4727 66.1055C32.4727 65.9753 32.4987 65.8477 32.5508 65.7227C32.6029 65.5951 32.6875 65.4818 32.8047 65.3828C32.9219 65.2812 33.0951 65.2266 33.3242 65.2188H34.9648C35.0378 65.2188 35.1003 65.2435 35.1523 65.293C35.2044 65.3398 35.2318 65.3997 35.2344 65.4727V66.707C35.2344 66.9154 35.2057 67.112 35.1484 67.2969C35.0964 67.4609 35.0104 67.599 34.8906 67.7109C34.7734 67.8255 34.6237 67.888 34.4414 67.8984H33.0898C33.0195 67.8958 32.9596 67.8698 32.9102 67.8203C32.8633 67.7734 32.8385 67.7148 32.8359 67.6445C32.8359 67.5716 32.8594 67.5091 32.9062 67.457C32.9557 67.4049 33.0169 67.3776 33.0898 67.375H34.3086C34.4076 67.3698 34.4896 67.332 34.5547 67.2617C34.6198 67.1914 34.6615 67.1094 34.6797 67.0156C34.6979 66.9219 34.707 66.8008 34.707 66.6523V65.8438ZM38.0312 65.1797C38.1016 65.1823 38.1615 65.2083 38.2109 65.2578C38.2604 65.3047 38.2865 65.3633 38.2891 65.4336V66.7852C38.2734 66.9414 38.1875 67.026 38.0312 67.0391C37.9583 67.0391 37.8945 67.0156 37.8398 66.9688C37.7878 66.9193 37.7617 66.8581 37.7617 66.7852V65.4336C37.7643 65.3607 37.7917 65.3008 37.8438 65.2539C37.8958 65.2044 37.9583 65.1797 38.0312 65.1797ZM37.7031 64.6719C37.7031 64.599 37.7344 64.5365 37.7969 64.4844C37.8594 64.4323 37.9349 64.4062 38.0234 64.4062C38.112 64.4062 38.1875 64.4323 38.25 64.4844C38.3125 64.5365 38.3438 64.599 38.3438 64.6719C38.3438 64.7474 38.3125 64.8112 38.25 64.8633C38.1875 64.9154 38.112 64.9414 38.0234 64.9414C37.9349 64.9414 37.8594 64.9154 37.7969 64.8633C37.7344 64.8112 37.7031 64.7474 37.7031 64.6719ZM40.0117 65.1602C40.1471 65.1602 40.2799 65.1758 40.4102 65.207C40.543 65.2383 40.6693 65.2852 40.7891 65.3477C40.9089 65.4076 41.0143 65.4883 41.1055 65.5898C41.1992 65.6914 41.25 65.8125 41.2578 65.9531V66.1172V66.7852C41.2422 66.9414 41.1562 67.026 41 67.0391C40.9271 67.0391 40.8633 67.0156 40.8086 66.9688C40.7565 66.9193 40.7305 66.8581 40.7305 66.7852V66.6133V66.0742C40.7253 65.9935 40.694 65.9271 40.6367 65.875C40.582 65.8203 40.5195 65.7773 40.4492 65.7461C40.3815 65.7148 40.3099 65.6914 40.2344 65.6758C40.1615 65.6602 40.0872 65.6523 40.0117 65.6523C39.9362 65.6523 39.8607 65.6602 39.7852 65.6758C39.7122 65.6914 39.6406 65.7148 39.5703 65.7461C39.5026 65.7773 39.4401 65.8203 39.3828 65.875C39.3281 65.9271 39.2982 65.9935 39.293 66.0742V66.6133V66.7852C39.2799 66.9414 39.1953 67.026 39.0391 67.0391C38.9661 67.0391 38.9023 67.0156 38.8477 66.9688C38.7956 66.9193 38.7695 66.8581 38.7695 66.7852V66.1172V65.9531C38.7773 65.8125 38.8268 65.6914 38.918 65.5898C39.0091 65.4883 39.1146 65.4076 39.2344 65.3477C39.3542 65.2852 39.4792 65.2383 39.6094 65.207C39.7422 65.1758 39.8763 65.1602 40.0117 65.1602ZM43.7812 66.7227C43.7812 66.6497 43.8073 66.5885 43.8594 66.5391C43.9089 66.487 43.9701 66.4609 44.043 66.4609H45.6445C45.694 66.4583 45.7344 66.4466 45.7656 66.4258C45.7995 66.4049 45.8242 66.3815 45.8398 66.3555C45.8555 66.3294 45.8633 66.3021 45.8633 66.2734C45.8633 66.2448 45.8555 66.2174 45.8398 66.1914C45.8242 66.1654 45.7995 66.1419 45.7656 66.1211C45.7344 66.1003 45.694 66.0885 45.6445 66.0859H44.5352C44.3529 66.0807 44.2018 66.0391 44.082 65.9609C43.9648 65.8802 43.8802 65.7891 43.8281 65.6875C43.7786 65.5833 43.7539 65.4779 43.7539 65.3711V65.1016C43.7565 64.9688 43.7956 64.8672 43.8711 64.7969C43.9492 64.724 44.0612 64.6875 44.207 64.6875H46.1211C46.194 64.6875 46.2552 64.7135 46.3047 64.7656C46.3568 64.8151 46.3828 64.8763 46.3828 64.9492C46.3828 65.0221 46.3568 65.0833 46.3047 65.1328C46.2552 65.1849 46.194 65.2109 46.1211 65.2109H44.418C44.3685 65.2083 44.3346 65.2161 44.3164 65.2344C44.3008 65.2526 44.293 65.2786 44.293 65.3125V65.3711C44.293 65.3893 44.3008 65.4154 44.3164 65.4492C44.332 65.4805 44.3555 65.5065 44.3867 65.5273C44.4206 65.5482 44.4622 65.5599 44.5117 65.5625H45.6211C45.8034 65.5651 45.9531 65.6068 46.0703 65.6875C46.1901 65.7656 46.2747 65.8568 46.3242 65.9609C46.3763 66.0625 46.4023 66.1667 46.4023 66.2734C46.4023 66.375 46.3763 66.4779 46.3242 66.582C46.2721 66.6836 46.1875 66.7747 46.0703 66.8555C45.9531 66.9336 45.8034 66.9753 45.6211 66.9805H45.5977C45.582 66.9831 45.5664 66.9844 45.5508 66.9844H44.043C43.9701 66.9844 43.9076 66.9596 43.8555 66.9102C43.806 66.8581 43.7812 66.7956 43.7812 66.7227ZM48.8125 64.6875C48.9453 64.6901 49.0638 64.7318 49.168 64.8125C49.2721 64.8932 49.3555 64.9896 49.418 65.1016C49.4831 65.2135 49.5312 65.332 49.5625 65.457C49.5938 65.582 49.6094 65.7096 49.6094 65.8398C49.6094 66.0117 49.582 66.181 49.5273 66.3477C49.4753 66.5117 49.388 66.6576 49.2656 66.7852C49.1458 66.9128 48.9948 66.9818 48.8125 66.9922H47.5742C47.3919 66.9844 47.2396 66.9167 47.1172 66.7891C46.9948 66.6615 46.9076 66.5143 46.8555 66.3477C46.806 66.181 46.7812 66.0117 46.7812 65.8398C46.7812 65.668 46.8073 65.5 46.8594 65.3359C46.9115 65.1693 46.9974 65.0221 47.1172 64.8945C47.2396 64.7643 47.3919 64.6953 47.5742 64.6875H47.6484H48.7383H48.8125ZM48.6797 66.4688C48.7786 66.4635 48.8607 66.4271 48.9258 66.3594C48.9935 66.2891 49.0417 66.2083 49.0703 66.1172C49.099 66.026 49.1133 65.9336 49.1133 65.8398C49.1133 65.7461 49.0977 65.6549 49.0664 65.5664C49.0378 65.4753 48.9909 65.3945 48.9258 65.3242C48.8607 65.2539 48.7786 65.2161 48.6797 65.2109H47.6953C47.5964 65.2161 47.5143 65.2539 47.4492 65.3242C47.3841 65.3945 47.3359 65.4753 47.3047 65.5664C47.276 65.6549 47.2617 65.7461 47.2617 65.8398C47.2617 65.9336 47.276 66.026 47.3047 66.1172C47.3333 66.2083 47.3802 66.2891 47.4453 66.3594C47.513 66.4271 47.5964 66.4635 47.6953 66.4688H48.6797ZM54.1953 65.8438C54.1953 65.7786 54.1615 65.7448 54.0938 65.7422H52.7266C52.6771 65.7448 52.6341 65.7669 52.5977 65.8086C52.5612 65.8477 52.5339 65.8945 52.5156 65.9492C52.5 66.0013 52.4922 66.0547 52.4922 66.1094C52.4922 66.1615 52.5 66.2148 52.5156 66.2695C52.5339 66.3216 52.5612 66.3685 52.5977 66.4102C52.6341 66.4492 52.6771 66.4688 52.7266 66.4688H53.7266C53.7995 66.4688 53.8607 66.4948 53.9102 66.5469C53.9622 66.5964 53.9883 66.6576 53.9883 66.7305C53.9883 66.8034 53.9622 66.8646 53.9102 66.9141C53.8607 66.9661 53.7995 66.9922 53.7266 66.9922H52.7422C52.5599 66.9896 52.4089 66.9388 52.2891 66.8398C52.1719 66.7383 52.0872 66.625 52.0352 66.5C51.9857 66.3724 51.9609 66.2409 51.9609 66.1055C51.9609 65.9753 51.987 65.8477 52.0391 65.7227C52.0911 65.5951 52.1758 65.4818 52.293 65.3828C52.4102 65.2812 52.5833 65.2266 52.8125 65.2188H54.4531C54.526 65.2188 54.5885 65.2435 54.6406 65.293C54.6927 65.3398 54.7201 65.3997 54.7227 65.4727V66.707C54.7227 66.9154 54.694 67.112 54.6367 67.2969C54.5846 67.4609 54.4987 67.599 54.3789 67.7109C54.2617 67.8255 54.112 67.888 53.9297 67.8984H52.5781C52.5078 67.8958 52.4479 67.8698 52.3984 67.8203C52.3516 67.7734 52.3268 67.7148 52.3242 67.6445C52.3242 67.5716 52.3477 67.5091 52.3945 67.457C52.444 67.4049 52.5052 67.3776 52.5781 67.375H53.7969C53.8958 67.3698 53.9779 67.332 54.043 67.2617C54.1081 67.1914 54.1497 67.1094 54.168 67.0156C54.1862 66.9219 54.1953 66.8008 54.1953 66.6523V65.8438ZM57.4336 66.7852V65.8438C57.4336 65.7786 57.3997 65.7448 57.332 65.7422H55.9648C55.9154 65.7448 55.8724 65.7669 55.8359 65.8086C55.7995 65.8477 55.7721 65.8945 55.7539 65.9492C55.7383 66.0013 55.7305 66.0547 55.7305 66.1094C55.7305 66.1615 55.7383 66.2148 55.7539 66.2695C55.7721 66.3216 55.7995 66.3685 55.8359 66.4102C55.8724 66.4492 55.9154 66.4688 55.9648 66.4688H56.9648C57.0378 66.4688 57.099 66.4948 57.1484 66.5469C57.2005 66.5964 57.2266 66.6576 57.2266 66.7305C57.2266 66.8034 57.2005 66.8646 57.1484 66.9141C57.099 66.9661 57.0378 66.9922 56.9648 66.9922H55.9805C55.7982 66.9896 55.6471 66.9388 55.5273 66.8398C55.4102 66.7383 55.3255 66.625 55.2734 66.5C55.224 66.3724 55.1992 66.2409 55.1992 66.1055C55.1992 65.9753 55.2253 65.8477 55.2773 65.7227C55.3294 65.5951 55.4141 65.4818 55.5312 65.3828C55.6484 65.2812 55.8216 65.2266 56.0508 65.2188H57.6914C57.7643 65.2188 57.8268 65.2435 57.8789 65.293C57.931 65.3398 57.9583 65.3997 57.9609 65.4727V66.7852C57.9609 66.8581 57.9336 66.9193 57.8789 66.9688C57.8268 67.0156 57.7643 67.0391 57.6914 67.0391C57.5352 67.026 57.4492 66.9414 57.4336 66.7852ZM59.293 65.1602C59.3841 65.1602 59.4727 65.1758 59.5586 65.207C59.6471 65.2383 59.7318 65.2839 59.8125 65.3438C59.8255 65.3568 59.8398 65.3698 59.8555 65.3828C59.8685 65.3698 59.8828 65.3568 59.8984 65.3438C59.9792 65.2839 60.0625 65.2383 60.1484 65.207C60.237 65.1758 60.3255 65.1602 60.4141 65.1602C60.5052 65.1602 60.5938 65.1758 60.6797 65.207C60.7682 65.2383 60.8516 65.2852 60.9297 65.3477C61.0104 65.4076 61.0807 65.4883 61.1406 65.5898C61.2031 65.6914 61.2344 65.8125 61.2344 65.9531V66.7852C61.2188 66.9414 61.1328 67.026 60.9766 67.0391C60.9036 67.0391 60.8398 67.0156 60.7852 66.9688C60.7331 66.9193 60.707 66.8581 60.707 66.7852V65.9844C60.707 65.9219 60.6953 65.8698 60.6719 65.8281C60.6484 65.7839 60.6224 65.75 60.5938 65.7266C60.5651 65.7005 60.5352 65.6823 60.5039 65.6719C60.4727 65.6589 60.4414 65.6523 60.4102 65.6523C60.3789 65.6523 60.3477 65.6589 60.3164 65.6719C60.2878 65.6823 60.2591 65.7005 60.2305 65.7266C60.2018 65.75 60.1758 65.7839 60.1523 65.8281C60.1289 65.8698 60.1159 65.9219 60.1133 65.9844V66.7852C60.0977 66.9414 60.0117 67.026 59.8555 67.0391C59.7826 67.0391 59.7188 67.0156 59.6641 66.9688C59.612 66.9193 59.5859 66.8581 59.5859 66.7852V65.9844C59.5859 65.9219 59.5742 65.8698 59.5508 65.8281C59.5273 65.7839 59.5013 65.75 59.4727 65.7266C59.444 65.7005 59.4141 65.6823 59.3828 65.6719C59.3516 65.6589 59.3203 65.6523 59.2891 65.6523C59.2578 65.6523 59.2266 65.6589 59.1953 65.6719C59.1667 65.6823 59.138 65.7005 59.1094 65.7266C59.0807 65.75 59.0547 65.7839 59.0312 65.8281C59.0078 65.8698 58.9948 65.9219 58.9922 65.9844V66.7852C58.9792 66.9414 58.8945 67.026 58.7383 67.0391C58.6654 67.0391 58.6016 67.0156 58.5469 66.9688C58.4948 66.9193 58.4688 66.8581 58.4688 66.7852V65.9531C58.474 65.8125 58.5065 65.6914 58.5664 65.5898C58.6263 65.4883 58.6966 65.4076 58.7773 65.3477C58.8581 65.2852 58.9414 65.2383 59.0273 65.207C59.1159 65.1758 59.2044 65.1602 59.293 65.1602ZM62.5195 66.9922C62.2904 66.9844 62.1172 66.931 62 66.832C61.8828 66.7305 61.7982 66.6172 61.7461 66.4922C61.694 66.3646 61.668 66.2357 61.668 66.1055C61.668 65.9701 61.6927 65.8398 61.7422 65.7148C61.7943 65.5872 61.8789 65.474 61.9961 65.375C62.1159 65.2734 62.2669 65.2214 62.4492 65.2188H63.9336C64.0065 65.2188 64.0677 65.2435 64.1172 65.293C64.1693 65.3398 64.1953 65.3971 64.1953 65.4648C64.1953 65.5352 64.1693 65.5951 64.1172 65.6445C64.0677 65.6914 64.0065 65.7148 63.9336 65.7148H62.4727C62.4154 65.7148 62.3646 65.7344 62.3203 65.7734C62.2786 65.8125 62.2474 65.8633 62.2266 65.9258C62.2083 65.9883 62.1992 66.0495 62.1992 66.1094C62.1992 66.1745 62.2083 66.2383 62.2266 66.3008C62.2474 66.3633 62.2786 66.4141 62.3203 66.4531C62.3646 66.4896 62.4154 66.5091 62.4727 66.5117H63.9336C64.0065 66.5117 64.0677 66.5352 64.1172 66.582C64.1693 66.6289 64.1953 66.6849 64.1953 66.75C64.1953 66.8177 64.1693 66.875 64.1172 66.9219C64.0677 66.9688 64.0065 66.9922 63.9336 66.9922H62.5195ZM64.1484 66.0977C64.1484 66.1471 64.1263 66.1901 64.082 66.2266C64.043 66.2604 63.9935 66.2773 63.9336 66.2773H62.6562C62.5964 66.2773 62.5456 66.2604 62.5039 66.2266C62.4622 66.1901 62.4414 66.1471 62.4414 66.0977C62.4414 66.0508 62.4622 66.0091 62.5039 65.9727C62.5456 65.9388 62.5964 65.9219 62.6562 65.9219H63.9336C63.9935 65.9219 64.0443 65.9401 64.0859 65.9766C64.1276 66.0104 64.1484 66.0508 64.1484 66.0977ZM66.9141 65.1797C66.9844 65.1823 67.0443 65.2083 67.0938 65.2578C67.1432 65.3047 67.1693 65.3633 67.1719 65.4336V66.7852C67.1562 66.9414 67.0703 67.026 66.9141 67.0391C66.8411 67.0391 66.7773 67.0156 66.7227 66.9688C66.6706 66.9193 66.6445 66.8581 66.6445 66.7852V65.4336C66.6471 65.3607 66.6745 65.3008 66.7266 65.2539C66.7786 65.2044 66.8411 65.1797 66.9141 65.1797ZM66.5859 64.6719C66.5859 64.599 66.6172 64.5365 66.6797 64.4844C66.7422 64.4323 66.8177 64.4062 66.9062 64.4062C66.9948 64.4062 67.0703 64.4323 67.1328 64.4844C67.1953 64.5365 67.2266 64.599 67.2266 64.6719C67.2266 64.7474 67.1953 64.8112 67.1328 64.8633C67.0703 64.9154 66.9948 64.9414 66.9062 64.9414C66.8177 64.9414 66.7422 64.9154 66.6797 64.8633C66.6172 64.8112 66.5859 64.7474 66.5859 64.6719ZM68.8945 65.1602C69.0299 65.1602 69.1628 65.1758 69.293 65.207C69.4258 65.2383 69.5521 65.2852 69.6719 65.3477C69.7917 65.4076 69.8971 65.4883 69.9883 65.5898C70.082 65.6914 70.1328 65.8125 70.1406 65.9531V66.1172V66.7852C70.125 66.9414 70.0391 67.026 69.8828 67.0391C69.8099 67.0391 69.7461 67.0156 69.6914 66.9688C69.6393 66.9193 69.6133 66.8581 69.6133 66.7852V66.6133V66.0742C69.6081 65.9935 69.5768 65.9271 69.5195 65.875C69.4648 65.8203 69.4023 65.7773 69.332 65.7461C69.2643 65.7148 69.1927 65.6914 69.1172 65.6758C69.0443 65.6602 68.9701 65.6523 68.8945 65.6523C68.819 65.6523 68.7435 65.6602 68.668 65.6758C68.5951 65.6914 68.5234 65.7148 68.4531 65.7461C68.3854 65.7773 68.3229 65.8203 68.2656 65.875C68.2109 65.9271 68.181 65.9935 68.1758 66.0742V66.6133V66.7852C68.1628 66.9414 68.0781 67.026 67.9219 67.0391C67.849 67.0391 67.7852 67.0156 67.7305 66.9688C67.6784 66.9193 67.6523 66.8581 67.6523 66.7852V66.1172V65.9531C67.6602 65.8125 67.7096 65.6914 67.8008 65.5898C67.8919 65.4883 67.9974 65.4076 68.1172 65.3477C68.237 65.2852 68.362 65.2383 68.4922 65.207C68.625 65.1758 68.7591 65.1602 68.8945 65.1602ZM22.0938 68.625C22.1667 68.625 22.2292 68.6497 22.2812 68.6992C22.3333 68.7461 22.3607 68.806 22.3633 68.8789V69.2188H23.6914C23.7643 69.2188 23.8268 69.2435 23.8789 69.293C23.9284 69.3451 23.9531 69.4076 23.9531 69.4805C23.9531 69.5534 23.9271 69.6159 23.875 69.668C23.8255 69.7174 23.7643 69.7422 23.6914 69.7422H22.3633V69.8203C22.3607 69.9271 22.3672 70.026 22.3828 70.1172C22.401 70.2057 22.4427 70.2852 22.5078 70.3555C22.5729 70.4258 22.6549 70.4635 22.7539 70.4688H23.707C23.7799 70.4714 23.8398 70.4987 23.8867 70.5508C23.9362 70.6029 23.9609 70.6654 23.9609 70.7383C23.9583 70.8086 23.9323 70.8685 23.8828 70.918C23.8359 70.9648 23.7773 70.9896 23.707 70.9922H22.6211C22.4388 70.9818 22.2878 70.9206 22.168 70.8086C22.0508 70.694 21.9661 70.5547 21.9141 70.3906C21.8646 70.2266 21.8385 70.0521 21.8359 69.8672V69.7422H21.3867C21.3138 69.7422 21.2526 69.7161 21.2031 69.6641C21.151 69.6146 21.125 69.5534 21.125 69.4805C21.125 69.4076 21.1497 69.3464 21.1992 69.2969C21.2513 69.2448 21.3138 69.2188 21.3867 69.2188H21.8359V68.8789C21.8385 68.8086 21.8646 68.75 21.9141 68.7031C21.9635 68.6536 22.0234 68.6276 22.0938 68.625ZM24.6055 68.625C24.6758 68.6276 24.7357 68.6536 24.7852 68.7031C24.8346 68.75 24.8607 68.8086 24.8633 68.8789V69.2188H26.0742C26.2565 69.2214 26.4062 69.2734 26.5234 69.375C26.6432 69.474 26.7279 69.5859 26.7773 69.7109C26.8294 69.8385 26.8555 69.9701 26.8555 70.1055H26.8594V70.7852C26.8594 70.8581 26.832 70.9193 26.7773 70.9688C26.7253 71.0156 26.6628 71.0391 26.5898 71.0391C26.4336 71.026 26.3477 70.9414 26.332 70.7852V70.1016C26.332 70.0521 26.3216 70 26.3008 69.9453C26.2826 69.8906 26.2552 69.8438 26.2188 69.8047C26.1823 69.763 26.1393 69.7422 26.0898 69.7422H24.8633V70.793C24.8477 70.9492 24.7617 71.0339 24.6055 71.0469C24.5326 71.0469 24.4688 71.0234 24.4141 70.9766C24.362 70.9271 24.3359 70.8659 24.3359 70.793V68.8789C24.3385 68.806 24.3659 68.7461 24.418 68.6992C24.4701 68.6497 24.5326 68.625 24.6055 68.625ZM28.1523 70.9922C27.9232 70.9844 27.75 70.931 27.6328 70.832C27.5156 70.7305 27.431 70.6172 27.3789 70.4922C27.3268 70.3646 27.3008 70.2357 27.3008 70.1055C27.3008 69.9701 27.3255 69.8398 27.375 69.7148C27.4271 69.5872 27.5117 69.474 27.6289 69.375C27.7487 69.2734 27.8997 69.2214 28.082 69.2188H29.5664C29.6393 69.2188 29.7005 69.2435 29.75 69.293C29.8021 69.3398 29.8281 69.3971 29.8281 69.4648C29.8281 69.5352 29.8021 69.5951 29.75 69.6445C29.7005 69.6914 29.6393 69.7148 29.5664 69.7148H28.1055C28.0482 69.7148 27.9974 69.7344 27.9531 69.7734C27.9115 69.8125 27.8802 69.8633 27.8594 69.9258C27.8411 69.9883 27.832 70.0495 27.832 70.1094C27.832 70.1745 27.8411 70.2383 27.8594 70.3008C27.8802 70.3633 27.9115 70.4141 27.9531 70.4531C27.9974 70.4896 28.0482 70.5091 28.1055 70.5117H29.5664C29.6393 70.5117 29.7005 70.5352 29.75 70.582C29.8021 70.6289 29.8281 70.6849 29.8281 70.75C29.8281 70.8177 29.8021 70.875 29.75 70.9219C29.7005 70.9688 29.6393 70.9922 29.5664 70.9922H28.1523ZM29.7812 70.0977C29.7812 70.1471 29.7591 70.1901 29.7148 70.2266C29.6758 70.2604 29.6263 70.2773 29.5664 70.2773H28.2891C28.2292 70.2773 28.1784 70.2604 28.1367 70.2266C28.0951 70.1901 28.0742 70.1471 28.0742 70.0977C28.0742 70.0508 28.0951 70.0091 28.1367 69.9727C28.1784 69.9388 28.2292 69.9219 28.2891 69.9219H29.5664C29.6263 69.9219 29.6771 69.9401 29.7188 69.9766C29.7604 70.0104 29.7812 70.0508 29.7812 70.0977ZM32.3594 69.7109C32.4089 69.5859 32.4922 69.474 32.6094 69.375C32.7292 69.2734 32.8802 69.2214 33.0625 69.2188H34.5312C34.6042 69.2188 34.6654 69.2448 34.7148 69.2969C34.7669 69.3464 34.793 69.4076 34.793 69.4805C34.793 69.5534 34.7669 69.6159 34.7148 69.668C34.6654 69.7174 34.6042 69.7422 34.5312 69.7422H33.0469C32.9974 69.7422 32.9544 69.763 32.918 69.8047C32.8815 69.8438 32.8529 69.8906 32.832 69.9453C32.8138 70 32.8047 70.0521 32.8047 70.1016V70.7852C32.7891 70.9414 32.7031 71.026 32.5469 71.0391C32.474 71.0391 32.4102 71.0156 32.3555 70.9688C32.3034 70.9193 32.2773 70.8581 32.2773 70.7852V70.1055H32.2812C32.2812 69.9701 32.3073 69.8385 32.3594 69.7109ZM37.3633 70.7852V69.8438C37.3633 69.7786 37.3294 69.7448 37.2617 69.7422H35.8945C35.8451 69.7448 35.8021 69.7669 35.7656 69.8086C35.7292 69.8477 35.7018 69.8945 35.6836 69.9492C35.668 70.0013 35.6602 70.0547 35.6602 70.1094C35.6602 70.1615 35.668 70.2148 35.6836 70.2695C35.7018 70.3216 35.7292 70.3685 35.7656 70.4102C35.8021 70.4492 35.8451 70.4688 35.8945 70.4688H36.8945C36.9674 70.4688 37.0286 70.4948 37.0781 70.5469C37.1302 70.5964 37.1562 70.6576 37.1562 70.7305C37.1562 70.8034 37.1302 70.8646 37.0781 70.9141C37.0286 70.9661 36.9674 70.9922 36.8945 70.9922H35.9102C35.7279 70.9896 35.5768 70.9388 35.457 70.8398C35.3398 70.7383 35.2552 70.625 35.2031 70.5C35.1536 70.3724 35.1289 70.2409 35.1289 70.1055C35.1289 69.9753 35.1549 69.8477 35.207 69.7227C35.2591 69.5951 35.3438 69.4818 35.4609 69.3828C35.5781 69.2812 35.7513 69.2266 35.9805 69.2188H37.6211C37.694 69.2188 37.7565 69.2435 37.8086 69.293C37.8607 69.3398 37.888 69.3997 37.8906 69.4727V70.7852C37.8906 70.8581 37.8633 70.9193 37.8086 70.9688C37.7565 71.0156 37.694 71.0391 37.6211 71.0391C37.4648 71.026 37.3789 70.9414 37.3633 70.7852ZM39.6406 69.1602C39.776 69.1602 39.9089 69.1758 40.0391 69.207C40.1719 69.2383 40.2982 69.2852 40.418 69.3477C40.5378 69.4076 40.6432 69.4883 40.7344 69.5898C40.8281 69.6914 40.8789 69.8125 40.8867 69.9531V70.1172V70.7852C40.8711 70.9414 40.7852 71.026 40.6289 71.0391C40.556 71.0391 40.4922 71.0156 40.4375 70.9688C40.3854 70.9193 40.3594 70.8581 40.3594 70.7852V70.6133V70.0742C40.3542 69.9935 40.3229 69.9271 40.2656 69.875C40.2109 69.8203 40.1484 69.7773 40.0781 69.7461C40.0104 69.7148 39.9388 69.6914 39.8633 69.6758C39.7904 69.6602 39.7161 69.6523 39.6406 69.6523C39.5651 69.6523 39.4896 69.6602 39.4141 69.6758C39.3411 69.6914 39.2695 69.7148 39.1992 69.7461C39.1315 69.7773 39.069 69.8203 39.0117 69.875C38.957 69.9271 38.9271 69.9935 38.9219 70.0742V70.6133V70.7852C38.9089 70.9414 38.8242 71.026 38.668 71.0391C38.5951 71.0391 38.5312 71.0156 38.4766 70.9688C38.4245 70.9193 38.3984 70.8581 38.3984 70.7852V70.1172V69.9531C38.4062 69.8125 38.4557 69.6914 38.5469 69.5898C38.638 69.4883 38.7435 69.4076 38.8633 69.3477C38.9831 69.2852 39.1081 69.2383 39.2383 69.207C39.3711 69.1758 39.5052 69.1602 39.6406 69.1602ZM43.5586 68.8789C43.5742 68.7227 43.6602 68.638 43.8164 68.625C43.8893 68.625 43.9518 68.6497 44.0039 68.6992C44.0586 68.7461 44.0859 68.806 44.0859 68.8789V70.7383C44.0833 70.8112 44.056 70.8724 44.0039 70.9219C43.9518 70.9688 43.8893 70.9922 43.8164 70.9922H42.1758C41.9466 70.9844 41.7734 70.931 41.6562 70.832C41.5391 70.7305 41.4544 70.6172 41.4023 70.4922C41.3503 70.3646 41.3242 70.2357 41.3242 70.1055C41.3242 69.9701 41.349 69.8398 41.3984 69.7148C41.4505 69.5872 41.5352 69.474 41.6523 69.375C41.7721 69.2734 41.9232 69.2214 42.1055 69.2188H43.0898C43.1628 69.2188 43.224 69.2448 43.2734 69.2969C43.3255 69.3464 43.3516 69.4076 43.3516 69.4805C43.3516 69.5534 43.3255 69.6159 43.2734 69.668C43.224 69.7174 43.1628 69.7422 43.0898 69.7422H42.0898C42.0404 69.7422 41.9974 69.763 41.9609 69.8047C41.9245 69.8438 41.8971 69.8906 41.8789 69.9453C41.8633 69.9974 41.8555 70.0495 41.8555 70.1016C41.8555 70.1562 41.8633 70.2109 41.8789 70.2656C41.8971 70.3177 41.9245 70.3646 41.9609 70.4062C41.9974 70.4453 42.0404 70.4661 42.0898 70.4688H43.457C43.5247 70.4661 43.5586 70.4323 43.5586 70.3672V68.8789ZM45.4102 70.9922C45.181 70.9844 45.0078 70.931 44.8906 70.832C44.7734 70.7305 44.6888 70.6172 44.6367 70.4922C44.5846 70.3646 44.5586 70.2357 44.5586 70.1055C44.5586 69.9701 44.5833 69.8398 44.6328 69.7148C44.6849 69.5872 44.7695 69.474 44.8867 69.375C45.0065 69.2734 45.1576 69.2214 45.3398 69.2188H46.6055C46.7878 69.2214 46.9375 69.2734 47.0547 69.375C47.1745 69.474 47.2591 69.5872 47.3086 69.7148C47.3607 69.8398 47.3867 69.9701 47.3867 70.1055C47.3867 70.2357 47.3607 70.3646 47.3086 70.4922C47.2565 70.6172 47.1719 70.7305 47.0547 70.832C46.9375 70.931 46.7643 70.9844 46.5352 70.9922H45.4102ZM45.3242 69.7422C45.2747 69.7422 45.2318 69.763 45.1953 69.8047C45.1589 69.8438 45.1315 69.8906 45.1133 69.9453C45.0977 69.9974 45.0898 70.0495 45.0898 70.1016C45.0898 70.1562 45.0977 70.2109 45.1133 70.2656C45.1315 70.3177 45.1589 70.3646 45.1953 70.4062C45.2318 70.4453 45.2747 70.4661 45.3242 70.4688H46.6211C46.6706 70.4661 46.7135 70.4453 46.75 70.4062C46.7865 70.3646 46.8125 70.3177 46.8281 70.2656C46.8464 70.2109 46.8555 70.1562 46.8555 70.1016C46.8555 70.0495 46.8464 69.9974 46.8281 69.9453C46.8125 69.8906 46.7865 69.8438 46.75 69.8047C46.7135 69.763 46.6706 69.7422 46.6211 69.7422H45.3242ZM48.6641 69.1602C48.7552 69.1602 48.8438 69.1758 48.9297 69.207C49.0182 69.2383 49.1029 69.2839 49.1836 69.3438C49.1966 69.3568 49.2109 69.3698 49.2266 69.3828C49.2396 69.3698 49.2539 69.3568 49.2695 69.3438C49.3503 69.2839 49.4336 69.2383 49.5195 69.207C49.6081 69.1758 49.6966 69.1602 49.7852 69.1602C49.8763 69.1602 49.9648 69.1758 50.0508 69.207C50.1393 69.2383 50.2227 69.2852 50.3008 69.3477C50.3815 69.4076 50.4518 69.4883 50.5117 69.5898C50.5742 69.6914 50.6055 69.8125 50.6055 69.9531V70.7852C50.5898 70.9414 50.5039 71.026 50.3477 71.0391C50.2747 71.0391 50.2109 71.0156 50.1562 70.9688C50.1042 70.9193 50.0781 70.8581 50.0781 70.7852V69.9844C50.0781 69.9219 50.0664 69.8698 50.043 69.8281C50.0195 69.7839 49.9935 69.75 49.9648 69.7266C49.9362 69.7005 49.9062 69.6823 49.875 69.6719C49.8438 69.6589 49.8125 69.6523 49.7812 69.6523C49.75 69.6523 49.7188 69.6589 49.6875 69.6719C49.6589 69.6823 49.6302 69.7005 49.6016 69.7266C49.5729 69.75 49.5469 69.7839 49.5234 69.8281C49.5 69.8698 49.487 69.9219 49.4844 69.9844V70.7852C49.4688 70.9414 49.3828 71.026 49.2266 71.0391C49.1536 71.0391 49.0898 71.0156 49.0352 70.9688C48.9831 70.9193 48.957 70.8581 48.957 70.7852V69.9844C48.957 69.9219 48.9453 69.8698 48.9219 69.8281C48.8984 69.7839 48.8724 69.75 48.8438 69.7266C48.8151 69.7005 48.7852 69.6823 48.7539 69.6719C48.7227 69.6589 48.6914 69.6523 48.6602 69.6523C48.6289 69.6523 48.5977 69.6589 48.5664 69.6719C48.5378 69.6823 48.5091 69.7005 48.4805 69.7266C48.4518 69.75 48.4258 69.7839 48.4023 69.8281C48.3789 69.8698 48.3659 69.9219 48.3633 69.9844V70.7852C48.3503 70.9414 48.2656 71.026 48.1094 71.0391C48.0365 71.0391 47.9727 71.0156 47.918 70.9688C47.8659 70.9193 47.8398 70.8581 47.8398 70.7852V69.9531C47.8451 69.8125 47.8776 69.6914 47.9375 69.5898C47.9974 69.4883 48.0677 69.4076 48.1484 69.3477C48.2292 69.2852 48.3125 69.2383 48.3984 69.207C48.487 69.1758 48.5755 69.1602 48.6641 69.1602ZM53.918 69.1602C54.0091 69.1602 54.0977 69.1758 54.1836 69.207C54.2721 69.2383 54.3568 69.2839 54.4375 69.3438C54.4505 69.3568 54.4648 69.3698 54.4805 69.3828C54.4935 69.3698 54.5078 69.3568 54.5234 69.3438C54.6042 69.2839 54.6875 69.2383 54.7734 69.207C54.862 69.1758 54.9505 69.1602 55.0391 69.1602C55.1302 69.1602 55.2188 69.1758 55.3047 69.207C55.3932 69.2383 55.4766 69.2852 55.5547 69.3477C55.6354 69.4076 55.7057 69.4883 55.7656 69.5898C55.8281 69.6914 55.8594 69.8125 55.8594 69.9531V70.7852C55.8438 70.9414 55.7578 71.026 55.6016 71.0391C55.5286 71.0391 55.4648 71.0156 55.4102 70.9688C55.3581 70.9193 55.332 70.8581 55.332 70.7852V69.9844C55.332 69.9219 55.3203 69.8698 55.2969 69.8281C55.2734 69.7839 55.2474 69.75 55.2188 69.7266C55.1901 69.7005 55.1602 69.6823 55.1289 69.6719C55.0977 69.6589 55.0664 69.6523 55.0352 69.6523C55.0039 69.6523 54.9727 69.6589 54.9414 69.6719C54.9128 69.6823 54.8841 69.7005 54.8555 69.7266C54.8268 69.75 54.8008 69.7839 54.7773 69.8281C54.7539 69.8698 54.7409 69.9219 54.7383 69.9844V70.7852C54.7227 70.9414 54.6367 71.026 54.4805 71.0391C54.4076 71.0391 54.3438 71.0156 54.2891 70.9688C54.237 70.9193 54.2109 70.8581 54.2109 70.7852V69.9844C54.2109 69.9219 54.1992 69.8698 54.1758 69.8281C54.1523 69.7839 54.1263 69.75 54.0977 69.7266C54.069 69.7005 54.0391 69.6823 54.0078 69.6719C53.9766 69.6589 53.9453 69.6523 53.9141 69.6523C53.8828 69.6523 53.8516 69.6589 53.8203 69.6719C53.7917 69.6823 53.763 69.7005 53.7344 69.7266C53.7057 69.75 53.6797 69.7839 53.6562 69.8281C53.6328 69.8698 53.6198 69.9219 53.6172 69.9844V70.7852C53.6042 70.9414 53.5195 71.026 53.3633 71.0391C53.2904 71.0391 53.2266 71.0156 53.1719 70.9688C53.1198 70.9193 53.0938 70.8581 53.0938 70.7852V69.9531C53.099 69.8125 53.1315 69.6914 53.1914 69.5898C53.2513 69.4883 53.3216 69.4076 53.4023 69.3477C53.4831 69.2852 53.5664 69.2383 53.6523 69.207C53.7409 69.1758 53.8294 69.1602 53.918 69.1602ZM57.1523 70.9922C56.9232 70.9844 56.75 70.931 56.6328 70.832C56.5156 70.7305 56.431 70.6172 56.3789 70.4922C56.3268 70.3646 56.3008 70.2357 56.3008 70.1055C56.3008 69.9701 56.3255 69.8398 56.375 69.7148C56.4271 69.5872 56.5117 69.474 56.6289 69.375C56.7487 69.2734 56.8997 69.2214 57.082 69.2188H58.3477C58.5299 69.2214 58.6797 69.2734 58.7969 69.375C58.9167 69.474 59.0013 69.5872 59.0508 69.7148C59.1029 69.8398 59.1289 69.9701 59.1289 70.1055C59.1289 70.2357 59.1029 70.3646 59.0508 70.4922C58.9987 70.6172 58.9141 70.7305 58.7969 70.832C58.6797 70.931 58.5065 70.9844 58.2773 70.9922H57.1523ZM57.0664 69.7422C57.0169 69.7422 56.974 69.763 56.9375 69.8047C56.901 69.8438 56.8737 69.8906 56.8555 69.9453C56.8398 69.9974 56.832 70.0495 56.832 70.1016C56.832 70.1562 56.8398 70.2109 56.8555 70.2656C56.8737 70.3177 56.901 70.3646 56.9375 70.4062C56.974 70.4453 57.0169 70.4661 57.0664 70.4688H58.3633C58.4128 70.4661 58.4557 70.4453 58.4922 70.4062C58.5286 70.3646 58.5547 70.3177 58.5703 70.2656C58.5885 70.2109 58.5977 70.1562 58.5977 70.1016C58.5977 70.0495 58.5885 69.9974 58.5703 69.9453C58.5547 69.8906 58.5286 69.8438 58.4922 69.8047C58.4557 69.763 58.4128 69.7422 58.3633 69.7422H57.0664ZM61.7539 68.8789C61.7695 68.7227 61.8555 68.638 62.0117 68.625C62.0846 68.625 62.1471 68.6497 62.1992 68.6992C62.2539 68.7461 62.2812 68.806 62.2812 68.8789V70.7383C62.2786 70.8112 62.2513 70.8724 62.1992 70.9219C62.1471 70.9688 62.0846 70.9922 62.0117 70.9922H60.3711C60.1419 70.9844 59.9688 70.931 59.8516 70.832C59.7344 70.7305 59.6497 70.6172 59.5977 70.4922C59.5456 70.3646 59.5195 70.2357 59.5195 70.1055C59.5195 69.9701 59.5443 69.8398 59.5938 69.7148C59.6458 69.5872 59.7305 69.474 59.8477 69.375C59.9674 69.2734 60.1185 69.2214 60.3008 69.2188H61.2852C61.3581 69.2188 61.4193 69.2448 61.4688 69.2969C61.5208 69.3464 61.5469 69.4076 61.5469 69.4805C61.5469 69.5534 61.5208 69.6159 61.4688 69.668C61.4193 69.7174 61.3581 69.7422 61.2852 69.7422H60.2852C60.2357 69.7422 60.1927 69.763 60.1562 69.8047C60.1198 69.8438 60.0924 69.8906 60.0742 69.9453C60.0586 69.9974 60.0508 70.0495 60.0508 70.1016C60.0508 70.1562 60.0586 70.2109 60.0742 70.2656C60.0924 70.3177 60.1198 70.3646 60.1562 70.4062C60.1927 70.4453 60.2357 70.4661 60.2852 70.4688H61.6523C61.7201 70.4661 61.7539 70.4323 61.7539 70.3672V68.8789ZM63.5977 70.9922C63.3685 70.9844 63.1953 70.931 63.0781 70.832C62.9609 70.7305 62.8763 70.6172 62.8242 70.4922C62.7721 70.3646 62.7461 70.2357 62.7461 70.1055C62.7461 69.9701 62.7708 69.8398 62.8203 69.7148C62.8724 69.5872 62.957 69.474 63.0742 69.375C63.194 69.2734 63.3451 69.2214 63.5273 69.2188H65.0117C65.0846 69.2188 65.1458 69.2435 65.1953 69.293C65.2474 69.3398 65.2734 69.3971 65.2734 69.4648C65.2734 69.5352 65.2474 69.5951 65.1953 69.6445C65.1458 69.6914 65.0846 69.7148 65.0117 69.7148H63.5508C63.4935 69.7148 63.4427 69.7344 63.3984 69.7734C63.3568 69.8125 63.3255 69.8633 63.3047 69.9258C63.2865 69.9883 63.2773 70.0495 63.2773 70.1094C63.2773 70.1745 63.2865 70.2383 63.3047 70.3008C63.3255 70.3633 63.3568 70.4141 63.3984 70.4531C63.4427 70.4896 63.4935 70.5091 63.5508 70.5117H65.0117C65.0846 70.5117 65.1458 70.5352 65.1953 70.582C65.2474 70.6289 65.2734 70.6849 65.2734 70.75C65.2734 70.8177 65.2474 70.875 65.1953 70.9219C65.1458 70.9688 65.0846 70.9922 65.0117 70.9922H63.5977ZM65.2266 70.0977C65.2266 70.1471 65.2044 70.1901 65.1602 70.2266C65.1211 70.2604 65.0716 70.2773 65.0117 70.2773H63.7344C63.6745 70.2773 63.6237 70.2604 63.582 70.2266C63.5404 70.1901 63.5195 70.1471 63.5195 70.0977C63.5195 70.0508 63.5404 70.0091 63.582 69.9727C63.6237 69.9388 63.6745 69.9219 63.7344 69.9219H65.0117C65.0716 69.9219 65.1224 69.9401 65.1641 69.9766C65.2057 70.0104 65.2266 70.0508 65.2266 70.0977ZM68.5312 70.9922C68.3021 70.9844 68.1289 70.931 68.0117 70.832C67.8945 70.7305 67.8099 70.6172 67.7578 70.4922C67.7057 70.3646 67.6797 70.2357 67.6797 70.1055C67.6797 69.9701 67.7044 69.8398 67.7539 69.7148C67.806 69.5872 67.8906 69.474 68.0078 69.375C68.1276 69.2734 68.2786 69.2214 68.4609 69.2188H69.7266C69.9089 69.2214 70.0586 69.2734 70.1758 69.375C70.2956 69.474 70.3802 69.5872 70.4297 69.7148C70.4818 69.8398 70.5078 69.9701 70.5078 70.1055C70.5078 70.2357 70.4818 70.3646 70.4297 70.4922C70.3776 70.6172 70.293 70.7305 70.1758 70.832C70.0586 70.931 69.8854 70.9844 69.6562 70.9922H68.5312ZM68.4453 69.7422C68.3958 69.7422 68.3529 69.763 68.3164 69.8047C68.2799 69.8438 68.2526 69.8906 68.2344 69.9453C68.2188 69.9974 68.2109 70.0495 68.2109 70.1016C68.2109 70.1562 68.2188 70.2109 68.2344 70.2656C68.2526 70.3177 68.2799 70.3646 68.3164 70.4062C68.3529 70.4453 68.3958 70.4661 68.4453 70.4688H69.7422C69.7917 70.4661 69.8346 70.4453 69.8711 70.4062C69.9076 70.3646 69.9336 70.3177 69.9492 70.2656C69.9674 70.2109 69.9766 70.1562 69.9766 70.1016C69.9766 70.0495 69.9674 69.9974 69.9492 69.9453C69.9336 69.8906 69.9076 69.8438 69.8711 69.8047C69.8346 69.763 69.7917 69.7422 69.7422 69.7422H68.4453ZM71.0391 69.7109C71.0885 69.5859 71.1719 69.474 71.2891 69.375C71.4089 69.2734 71.5599 69.2214 71.7422 69.2188H73.2109C73.2839 69.2188 73.3451 69.2448 73.3945 69.2969C73.4466 69.3464 73.4727 69.4076 73.4727 69.4805C73.4727 69.5534 73.4466 69.6159 73.3945 69.668C73.3451 69.7174 73.2839 69.7422 73.2109 69.7422H71.7266C71.6771 69.7422 71.6341 69.763 71.5977 69.8047C71.5612 69.8438 71.5326 69.8906 71.5117 69.9453C71.4935 70 71.4844 70.0521 71.4844 70.1016V70.7852C71.4688 70.9414 71.3828 71.026 71.2266 71.0391C71.1536 71.0391 71.0898 71.0156 71.0352 70.9688C70.9831 70.9193 70.957 70.8581 70.957 70.7852V70.1055H70.9609C70.9609 69.9701 70.987 69.8385 71.0391 69.7109ZM22.1406 75.0391C22.0703 75.0365 22.0104 75.0117 21.9609 74.9648C21.9115 74.9154 21.8854 74.8555 21.8828 74.7852V74.2578H21.4336C21.3607 74.2578 21.2982 74.2331 21.2461 74.1836C21.1966 74.1315 21.1719 74.069 21.1719 73.9961C21.1719 73.9232 21.1979 73.862 21.25 73.8125C21.2995 73.7604 21.3607 73.7344 21.4336 73.7344H21.8828C21.8906 73.5807 21.9167 73.4323 21.9609 73.2891C22.013 73.125 22.0977 72.987 22.2148 72.875C22.3346 72.7604 22.4857 72.6979 22.668 72.6875H23.7539C23.8242 72.6901 23.8828 72.7161 23.9297 72.7656C23.9792 72.8125 24.0052 72.8711 24.0078 72.9414C24.0078 73.0143 23.9831 73.0768 23.9336 73.1289C23.8867 73.181 23.8268 73.2083 23.7539 73.2109H22.8008C22.7018 73.2161 22.6198 73.2539 22.5547 73.3242C22.4896 73.3945 22.4492 73.474 22.4336 73.5625C22.4206 73.6198 22.4128 73.6771 22.4102 73.7344H23.7383C23.8112 73.7344 23.8724 73.7604 23.9219 73.8125C23.974 73.862 24 73.9232 24 73.9961C24 74.069 23.9753 74.1315 23.9258 74.1836C23.8737 74.2331 23.8112 74.2578 23.7383 74.2578H22.4102V74.7852C22.4076 74.8581 22.3802 74.9193 22.3281 74.9688C22.276 75.0156 22.2135 75.0391 22.1406 75.0391ZM24.4961 73.7109C24.5456 73.5859 24.6289 73.474 24.7461 73.375C24.8659 73.2734 25.0169 73.2214 25.1992 73.2188H26.668C26.7409 73.2188 26.8021 73.2448 26.8516 73.2969C26.9036 73.3464 26.9297 73.4076 26.9297 73.4805C26.9297 73.5534 26.9036 73.6159 26.8516 73.668C26.8021 73.7174 26.7409 73.7422 26.668 73.7422H25.1836C25.1341 73.7422 25.0911 73.763 25.0547 73.8047C25.0182 73.8438 24.9896 73.8906 24.9688 73.9453C24.9505 74 24.9414 74.0521 24.9414 74.1016V74.7852C24.9258 74.9414 24.8398 75.026 24.6836 75.0391C24.6107 75.0391 24.5469 75.0156 24.4922 74.9688C24.4401 74.9193 24.4141 74.8581 24.4141 74.7852V74.1055H24.418C24.418 73.9701 24.444 73.8385 24.4961 73.7109ZM27.5859 73.1797C27.6562 73.1823 27.7161 73.2083 27.7656 73.2578C27.8151 73.3047 27.8411 73.3633 27.8438 73.4336V74.7852C27.8281 74.9414 27.7422 75.026 27.5859 75.0391C27.513 75.0391 27.4492 75.0156 27.3945 74.9688C27.3424 74.9193 27.3164 74.8581 27.3164 74.7852V73.4336C27.319 73.3607 27.3464 73.3008 27.3984 73.2539C27.4505 73.2044 27.513 73.1797 27.5859 73.1797ZM27.2578 72.6719C27.2578 72.599 27.2891 72.5365 27.3516 72.4844C27.4141 72.4323 27.4896 72.4062 27.5781 72.4062C27.6667 72.4062 27.7422 72.4323 27.8047 72.4844C27.8672 72.5365 27.8984 72.599 27.8984 72.6719C27.8984 72.7474 27.8672 72.8112 27.8047 72.8633C27.7422 72.9154 27.6667 72.9414 27.5781 72.9414C27.4896 72.9414 27.4141 72.9154 27.3516 72.8633C27.2891 72.8112 27.2578 72.7474 27.2578 72.6719ZM29.1211 74.9922C28.8919 74.9844 28.7188 74.931 28.6016 74.832C28.4844 74.7305 28.3997 74.6172 28.3477 74.4922C28.2956 74.3646 28.2695 74.2357 28.2695 74.1055C28.2695 73.9701 28.2943 73.8398 28.3438 73.7148C28.3958 73.5872 28.4805 73.474 28.5977 73.375C28.7174 73.2734 28.8685 73.2214 29.0508 73.2188H30.5352C30.6081 73.2188 30.6693 73.2435 30.7188 73.293C30.7708 73.3398 30.7969 73.3971 30.7969 73.4648C30.7969 73.5352 30.7708 73.5951 30.7188 73.6445C30.6693 73.6914 30.6081 73.7148 30.5352 73.7148H29.0742C29.0169 73.7148 28.9661 73.7344 28.9219 73.7734C28.8802 73.8125 28.849 73.8633 28.8281 73.9258C28.8099 73.9883 28.8008 74.0495 28.8008 74.1094C28.8008 74.1745 28.8099 74.2383 28.8281 74.3008C28.849 74.3633 28.8802 74.4141 28.9219 74.4531C28.9661 74.4896 29.0169 74.5091 29.0742 74.5117H30.5352C30.6081 74.5117 30.6693 74.5352 30.7188 74.582C30.7708 74.6289 30.7969 74.6849 30.7969 74.75C30.7969 74.8177 30.7708 74.875 30.7188 74.9219C30.6693 74.9688 30.6081 74.9922 30.5352 74.9922H29.1211ZM30.75 74.0977C30.75 74.1471 30.7279 74.1901 30.6836 74.2266C30.6445 74.2604 30.5951 74.2773 30.5352 74.2773H29.2578C29.1979 74.2773 29.1471 74.2604 29.1055 74.2266C29.0638 74.1901 29.043 74.1471 29.043 74.0977C29.043 74.0508 29.0638 74.0091 29.1055 73.9727C29.1471 73.9388 29.1979 73.9219 29.2578 73.9219H30.5352C30.5951 73.9219 30.6458 73.9401 30.6875 73.9766C30.7292 74.0104 30.75 74.0508 30.75 74.0977ZM32.4922 73.1602C32.6276 73.1602 32.7604 73.1758 32.8906 73.207C33.0234 73.2383 33.1497 73.2852 33.2695 73.3477C33.3893 73.4076 33.4948 73.4883 33.5859 73.5898C33.6797 73.6914 33.7305 73.8125 33.7383 73.9531V74.1172V74.7852C33.7227 74.9414 33.6367 75.026 33.4805 75.0391C33.4076 75.0391 33.3438 75.0156 33.2891 74.9688C33.237 74.9193 33.2109 74.8581 33.2109 74.7852V74.6133V74.0742C33.2057 73.9935 33.1745 73.9271 33.1172 73.875C33.0625 73.8203 33 73.7773 32.9297 73.7461C32.862 73.7148 32.7904 73.6914 32.7148 73.6758C32.6419 73.6602 32.5677 73.6523 32.4922 73.6523C32.4167 73.6523 32.3411 73.6602 32.2656 73.6758C32.1927 73.6914 32.1211 73.7148 32.0508 73.7461C31.9831 73.7773 31.9206 73.8203 31.8633 73.875C31.8086 73.9271 31.7786 73.9935 31.7734 74.0742V74.6133V74.7852C31.7604 74.9414 31.6758 75.026 31.5195 75.0391C31.4466 75.0391 31.3828 75.0156 31.3281 74.9688C31.276 74.9193 31.25 74.8581 31.25 74.7852V74.1172V73.9531C31.2578 73.8125 31.3073 73.6914 31.3984 73.5898C31.4896 73.4883 31.5951 73.4076 31.7148 73.3477C31.8346 73.2852 31.9596 73.2383 32.0898 73.207C32.2227 73.1758 32.3568 73.1602 32.4922 73.1602ZM36.4102 72.8789C36.4258 72.7227 36.5117 72.638 36.668 72.625C36.7409 72.625 36.8034 72.6497 36.8555 72.6992C36.9102 72.7461 36.9375 72.806 36.9375 72.8789V74.7383C36.9349 74.8112 36.9076 74.8724 36.8555 74.9219C36.8034 74.9688 36.7409 74.9922 36.668 74.9922H35.0273C34.7982 74.9844 34.625 74.931 34.5078 74.832C34.3906 74.7305 34.306 74.6172 34.2539 74.4922C34.2018 74.3646 34.1758 74.2357 34.1758 74.1055C34.1758 73.9701 34.2005 73.8398 34.25 73.7148C34.3021 73.5872 34.3867 73.474 34.5039 73.375C34.6237 73.2734 34.7747 73.2214 34.957 73.2188H35.9414C36.0143 73.2188 36.0755 73.2448 36.125 73.2969C36.1771 73.3464 36.2031 73.4076 36.2031 73.4805C36.2031 73.5534 36.1771 73.6159 36.125 73.668C36.0755 73.7174 36.0143 73.7422 35.9414 73.7422H34.9414C34.8919 73.7422 34.849 73.763 34.8125 73.8047C34.776 73.8438 34.7487 73.8906 34.7305 73.9453C34.7148 73.9974 34.707 74.0495 34.707 74.1016C34.707 74.1562 34.7148 74.2109 34.7305 74.2656C34.7487 74.3177 34.776 74.3646 34.8125 74.4062C34.849 74.4453 34.8919 74.4661 34.9414 74.4688H36.3086C36.3763 74.4661 36.4102 74.4323 36.4102 74.3672V72.8789ZM39.9336 73.4453C39.9336 73.5104 39.9076 73.5651 39.8555 73.6094C39.806 73.651 39.7448 73.6719 39.6719 73.6719H38.0195C37.9857 73.6719 37.9583 73.6784 37.9375 73.6914C37.9167 73.7044 37.901 73.7188 37.8906 73.7344C37.8802 73.7474 37.875 73.7591 37.875 73.7695C37.875 73.7826 37.8802 73.7969 37.8906 73.8125C37.901 73.8255 37.9167 73.8385 37.9375 73.8516C37.9583 73.862 37.9857 73.8685 38.0195 73.8711H39.2969C39.4609 73.8737 39.5964 73.9062 39.7031 73.9688C39.8099 74.0286 39.8854 74.1003 39.9297 74.1836C39.9766 74.2643 40 74.3464 40 74.4297C40 74.5104 39.9766 74.5924 39.9297 74.6758C39.8828 74.7565 39.806 74.8281 39.6992 74.8906C39.5951 74.9505 39.4609 74.9805 39.2969 74.9805C39.2682 74.9831 39.2474 74.9844 39.2344 74.9844H37.7188C37.6458 74.9844 37.5833 74.9635 37.5312 74.9219C37.4818 74.8776 37.457 74.8242 37.457 74.7617C37.457 74.6966 37.4831 74.6419 37.5352 74.5977C37.5846 74.556 37.6458 74.5352 37.7188 74.5352H39.3281C39.3672 74.5378 39.3984 74.5326 39.4219 74.5195C39.4479 74.5065 39.4674 74.4922 39.4805 74.4766C39.4935 74.4609 39.5 74.4453 39.5 74.4297C39.5 74.4219 39.4935 74.4089 39.4805 74.3906C39.4674 74.3698 39.4479 74.3542 39.4219 74.3438C39.3984 74.3307 39.3672 74.3229 39.3281 74.3203H38.0469C37.8958 74.3177 37.7708 74.2865 37.6719 74.2266C37.5729 74.1641 37.5026 74.0924 37.4609 74.0117C37.4193 73.931 37.3984 73.8503 37.3984 73.7695C37.3984 73.6888 37.4193 73.6094 37.4609 73.5312C37.5052 73.4505 37.5755 73.3815 37.6719 73.3242C37.7708 73.2643 37.8958 73.2318 38.0469 73.2266C38.0729 73.224 38.0924 73.2227 38.1055 73.2227H39.6719C39.7448 73.2227 39.806 73.2448 39.8555 73.2891C39.9076 73.3307 39.9336 73.3828 39.9336 73.4453ZM43.2617 73.1602C43.3529 73.1602 43.4414 73.1758 43.5273 73.207C43.6159 73.2383 43.7005 73.2839 43.7812 73.3438C43.7943 73.3568 43.8086 73.3698 43.8242 73.3828C43.8372 73.3698 43.8516 73.3568 43.8672 73.3438C43.9479 73.2839 44.0312 73.2383 44.1172 73.207C44.2057 73.1758 44.2943 73.1602 44.3828 73.1602C44.474 73.1602 44.5625 73.1758 44.6484 73.207C44.737 73.2383 44.8203 73.2852 44.8984 73.3477C44.9792 73.4076 45.0495 73.4883 45.1094 73.5898C45.1719 73.6914 45.2031 73.8125 45.2031 73.9531V74.7852C45.1875 74.9414 45.1016 75.026 44.9453 75.0391C44.8724 75.0391 44.8086 75.0156 44.7539 74.9688C44.7018 74.9193 44.6758 74.8581 44.6758 74.7852V73.9844C44.6758 73.9219 44.6641 73.8698 44.6406 73.8281C44.6172 73.7839 44.5911 73.75 44.5625 73.7266C44.5339 73.7005 44.5039 73.6823 44.4727 73.6719C44.4414 73.6589 44.4102 73.6523 44.3789 73.6523C44.3477 73.6523 44.3164 73.6589 44.2852 73.6719C44.2565 73.6823 44.2279 73.7005 44.1992 73.7266C44.1706 73.75 44.1445 73.7839 44.1211 73.8281C44.0977 73.8698 44.0846 73.9219 44.082 73.9844V74.7852C44.0664 74.9414 43.9805 75.026 43.8242 75.0391C43.7513 75.0391 43.6875 75.0156 43.6328 74.9688C43.5807 74.9193 43.5547 74.8581 43.5547 74.7852V73.9844C43.5547 73.9219 43.543 73.8698 43.5195 73.8281C43.4961 73.7839 43.4701 73.75 43.4414 73.7266C43.4128 73.7005 43.3828 73.6823 43.3516 73.6719C43.3203 73.6589 43.2891 73.6523 43.2578 73.6523C43.2266 73.6523 43.1953 73.6589 43.1641 73.6719C43.1354 73.6823 43.1068 73.7005 43.0781 73.7266C43.0495 73.75 43.0234 73.7839 43 73.8281C42.9766 73.8698 42.9635 73.9219 42.9609 73.9844V74.7852C42.9479 74.9414 42.8633 75.026 42.707 75.0391C42.6341 75.0391 42.5703 75.0156 42.5156 74.9688C42.4635 74.9193 42.4375 74.8581 42.4375 74.7852V73.9531C42.4427 73.8125 42.4753 73.6914 42.5352 73.5898C42.5951 73.4883 42.6654 73.4076 42.7461 73.3477C42.8268 73.2852 42.9102 73.2383 42.9961 73.207C43.0846 73.1758 43.1732 73.1602 43.2617 73.1602ZM46.4961 74.9922C46.2669 74.9844 46.0938 74.931 45.9766 74.832C45.8594 74.7305 45.7747 74.6172 45.7227 74.4922C45.6706 74.3646 45.6445 74.2357 45.6445 74.1055C45.6445 73.9701 45.6693 73.8398 45.7188 73.7148C45.7708 73.5872 45.8555 73.474 45.9727 73.375C46.0924 73.2734 46.2435 73.2214 46.4258 73.2188H47.6914C47.8737 73.2214 48.0234 73.2734 48.1406 73.375C48.2604 73.474 48.3451 73.5872 48.3945 73.7148C48.4466 73.8398 48.4727 73.9701 48.4727 74.1055C48.4727 74.2357 48.4466 74.3646 48.3945 74.4922C48.3424 74.6172 48.2578 74.7305 48.1406 74.832C48.0234 74.931 47.8503 74.9844 47.6211 74.9922H46.4961ZM46.4102 73.7422C46.3607 73.7422 46.3177 73.763 46.2812 73.8047C46.2448 73.8438 46.2174 73.8906 46.1992 73.9453C46.1836 73.9974 46.1758 74.0495 46.1758 74.1016C46.1758 74.1562 46.1836 74.2109 46.1992 74.2656C46.2174 74.3177 46.2448 74.3646 46.2812 74.4062C46.3177 74.4453 46.3607 74.4661 46.4102 74.4688H47.707C47.7565 74.4661 47.7995 74.4453 47.8359 74.4062C47.8724 74.3646 47.8984 74.3177 47.9141 74.2656C47.9323 74.2109 47.9414 74.1562 47.9414 74.1016C47.9414 74.0495 47.9323 73.9974 47.9141 73.9453C47.8984 73.8906 47.8724 73.8438 47.8359 73.8047C47.7995 73.763 47.7565 73.7422 47.707 73.7422H46.4102ZM51.0977 72.8789C51.1133 72.7227 51.1992 72.638 51.3555 72.625C51.4284 72.625 51.4909 72.6497 51.543 72.6992C51.5977 72.7461 51.625 72.806 51.625 72.8789V74.7383C51.6224 74.8112 51.5951 74.8724 51.543 74.9219C51.4909 74.9688 51.4284 74.9922 51.3555 74.9922H49.7148C49.4857 74.9844 49.3125 74.931 49.1953 74.832C49.0781 74.7305 48.9935 74.6172 48.9414 74.4922C48.8893 74.3646 48.8633 74.2357 48.8633 74.1055C48.8633 73.9701 48.888 73.8398 48.9375 73.7148C48.9896 73.5872 49.0742 73.474 49.1914 73.375C49.3112 73.2734 49.4622 73.2214 49.6445 73.2188H50.6289C50.7018 73.2188 50.763 73.2448 50.8125 73.2969C50.8646 73.3464 50.8906 73.4076 50.8906 73.4805C50.8906 73.5534 50.8646 73.6159 50.8125 73.668C50.763 73.7174 50.7018 73.7422 50.6289 73.7422H49.6289C49.5794 73.7422 49.5365 73.763 49.5 73.8047C49.4635 73.8438 49.4362 73.8906 49.418 73.9453C49.4023 73.9974 49.3945 74.0495 49.3945 74.1016C49.3945 74.1562 49.4023 74.2109 49.418 74.2656C49.4362 74.3177 49.4635 74.3646 49.5 74.4062C49.5365 74.4453 49.5794 74.4661 49.6289 74.4688H50.9961C51.0638 74.4661 51.0977 74.4323 51.0977 74.3672V72.8789ZM52.9414 74.9922C52.7122 74.9844 52.5391 74.931 52.4219 74.832C52.3047 74.7305 52.2201 74.6172 52.168 74.4922C52.1159 74.3646 52.0898 74.2357 52.0898 74.1055C52.0898 73.9701 52.1146 73.8398 52.1641 73.7148C52.2161 73.5872 52.3008 73.474 52.418 73.375C52.5378 73.2734 52.6888 73.2214 52.8711 73.2188H54.3555C54.4284 73.2188 54.4896 73.2435 54.5391 73.293C54.5911 73.3398 54.6172 73.3971 54.6172 73.4648C54.6172 73.5352 54.5911 73.5951 54.5391 73.6445C54.4896 73.6914 54.4284 73.7148 54.3555 73.7148H52.8945C52.8372 73.7148 52.7865 73.7344 52.7422 73.7734C52.7005 73.8125 52.6693 73.8633 52.6484 73.9258C52.6302 73.9883 52.6211 74.0495 52.6211 74.1094C52.6211 74.1745 52.6302 74.2383 52.6484 74.3008C52.6693 74.3633 52.7005 74.4141 52.7422 74.4531C52.7865 74.4896 52.8372 74.5091 52.8945 74.5117H54.3555C54.4284 74.5117 54.4896 74.5352 54.5391 74.582C54.5911 74.6289 54.6172 74.6849 54.6172 74.75C54.6172 74.8177 54.5911 74.875 54.5391 74.9219C54.4896 74.9688 54.4284 74.9922 54.3555 74.9922H52.9414ZM54.5703 74.0977C54.5703 74.1471 54.5482 74.1901 54.5039 74.2266C54.4648 74.2604 54.4154 74.2773 54.3555 74.2773H53.0781C53.0182 74.2773 52.9674 74.2604 52.9258 74.2266C52.8841 74.1901 52.8633 74.1471 52.8633 74.0977C52.8633 74.0508 52.8841 74.0091 52.9258 73.9727C52.9674 73.9388 53.0182 73.9219 53.0781 73.9219H54.3555C54.4154 73.9219 54.4661 73.9401 54.5078 73.9766C54.5495 74.0104 54.5703 74.0508 54.5703 74.0977ZM55.4688 75.0547C55.3646 75.0547 55.2773 75.0182 55.207 74.9453C55.1393 74.8724 55.1055 74.7812 55.1055 74.6719C55.1055 74.5625 55.1393 74.4714 55.207 74.3984C55.2773 74.3255 55.3646 74.2891 55.4688 74.2891C55.5729 74.2891 55.6602 74.3255 55.7305 74.3984C55.8008 74.4714 55.8359 74.5625 55.8359 74.6719C55.8359 74.7812 55.8008 74.8724 55.7305 74.9453C55.6602 75.0182 55.5729 75.0547 55.4688 75.0547Z" fill="#537790"/>
<g filter="url(#filter0_b_62_1623)">
<rect width="96" height="97" fill="#D9D9D9" fill-opacity="0.1"/>
</g>
</g>
<defs>
<filter id="filter0_b_62_1623" x="-2" y="-2" width="100" height="101" filterUnits="userSpaceOnUse" color-interpolation-filters="sRGB">
<feFlood flood-opacity="0" result="BackgroundImageFix"/>
<feGaussianBlur in="BackgroundImageFix" stdDeviation="1"/>
<feComposite in2="SourceAlpha" operator="in" result="effect1_backgroundBlur_62_1623"/>
<feBlend mode="normal" in="SourceGraphic" in2="effect1_backgroundBlur_62_1623" result="shape"/>
</filter>
<clipPath id="clip0_62_1623">
<rect width="96" height="97" rx="22" fill="white"/>
</clipPath>
</defs>
</svg>
