<svg width="96" height="97" viewBox="0 0 96 97" fill="none" xmlns="http://www.w3.org/2000/svg">
<rect width="96" height="97" rx="22" fill="#F4F4F4"/>
<path d="M19.5889 53.3262C19.5889 53.1439 19.6507 52.9909 19.7744 52.8672C19.9046 52.737 20.0609 52.6719 20.2432 52.6719H22.1182V49.5273H20.2432C20.0609 49.5273 19.9079 49.4622 19.7842 49.332C19.654 49.2083 19.5889 49.0553 19.5889 48.873C19.5889 48.6908 19.6507 48.5378 19.7744 48.4141C19.9046 48.2839 20.0609 48.2188 20.2432 48.2188H25.3018C25.484 48.2188 25.6403 48.2806 25.7705 48.4043C25.8942 48.5345 25.9561 48.6908 25.9561 48.873C25.9561 49.0553 25.891 49.2116 25.7607 49.3418C25.637 49.4655 25.484 49.5273 25.3018 49.5273H23.4365V52.6719H25.3018C25.484 52.6719 25.6403 52.7337 25.7705 52.8574C25.8942 52.9876 25.9561 53.1439 25.9561 53.3262C25.9561 53.5085 25.891 53.6647 25.7607 53.7949C25.637 53.9186 25.484 53.9805 25.3018 53.9805H20.2432C20.0609 53.9805 19.9079 53.9154 19.7842 53.7852C19.654 53.6615 19.5889 53.5085 19.5889 53.3262ZM27.167 50.7773C27.2907 50.4648 27.499 50.1849 27.792 49.9375C28.0915 49.6836 28.4691 49.5534 28.9248 49.5469H32.5967C32.779 49.5469 32.932 49.612 33.0557 49.7422C33.1859 49.8659 33.251 50.0189 33.251 50.2012C33.251 50.3835 33.1859 50.5397 33.0557 50.6699C32.932 50.7936 32.779 50.8555 32.5967 50.8555H28.8857C28.762 50.8555 28.6546 50.9076 28.5635 51.0117C28.4723 51.1094 28.4007 51.2266 28.3486 51.3633C28.3031 51.5 28.2803 51.6302 28.2803 51.7539V53.4629C28.2412 53.8535 28.0264 54.0651 27.6357 54.0977C27.4535 54.0977 27.2939 54.0391 27.1572 53.9219C27.027 53.7982 26.9619 53.6452 26.9619 53.4629V51.7637H26.9717C26.9717 51.4251 27.0368 51.0964 27.167 50.7773ZM36.2393 53.9805C35.6663 53.9609 35.2334 53.8275 34.9404 53.5801C34.6475 53.3262 34.4359 53.043 34.3057 52.7305C34.1755 52.4115 34.1104 52.0892 34.1104 51.7637C34.1104 51.4251 34.1722 51.0996 34.2959 50.7871C34.4261 50.4681 34.6377 50.1849 34.9307 49.9375C35.2301 49.6836 35.6077 49.5534 36.0635 49.5469H39.2275C39.6833 49.5534 40.0576 49.6836 40.3506 49.9375C40.6501 50.1849 40.8617 50.4681 40.9854 50.7871C41.1156 51.0996 41.1807 51.4251 41.1807 51.7637C41.1807 52.0892 41.1156 52.4115 40.9854 52.7305C40.8551 53.043 40.6436 53.3262 40.3506 53.5801C40.0576 53.8275 39.6247 53.9609 39.0518 53.9805H36.2393ZM36.0244 50.8555C35.9007 50.8555 35.7933 50.9076 35.7021 51.0117C35.611 51.1094 35.5426 51.2266 35.4971 51.3633C35.458 51.4935 35.4385 51.6237 35.4385 51.7539C35.4385 51.8906 35.458 52.0273 35.4971 52.1641C35.5426 52.2943 35.611 52.4115 35.7021 52.5156C35.7933 52.6133 35.9007 52.6654 36.0244 52.6719H39.2666C39.3903 52.6654 39.4977 52.6133 39.5889 52.5156C39.68 52.4115 39.7451 52.2943 39.7842 52.1641C39.8298 52.0273 39.8525 51.8906 39.8525 51.7539C39.8525 51.6237 39.8298 51.4935 39.7842 51.3633C39.7451 51.2266 39.68 51.1094 39.5889 51.0117C39.4977 50.9076 39.3903 50.8555 39.2666 50.8555H36.0244ZM45.4189 49.4004C45.7575 49.4004 46.0895 49.4395 46.415 49.5176C46.7471 49.5957 47.0628 49.7129 47.3623 49.8691C47.6618 50.0189 47.9255 50.2207 48.1533 50.4746C48.3877 50.7285 48.5146 51.0312 48.5342 51.3828V51.793V53.4629C48.4951 53.8535 48.2803 54.0651 47.8896 54.0977C47.7074 54.0977 47.5479 54.0391 47.4111 53.9219C47.2809 53.7982 47.2158 53.6452 47.2158 53.4629V53.0332V51.6855C47.2028 51.4837 47.1247 51.3177 46.9814 51.1875C46.8447 51.0508 46.6885 50.9434 46.5127 50.8652C46.3434 50.7871 46.1644 50.7285 45.9756 50.6895C45.7933 50.6504 45.6077 50.6309 45.4189 50.6309C45.2301 50.6309 45.0413 50.6504 44.8525 50.6895C44.6702 50.7285 44.4912 50.7871 44.3154 50.8652C44.1462 50.9434 43.9899 51.0508 43.8467 51.1875C43.71 51.3177 43.6351 51.4837 43.6221 51.6855V53.0332V53.4629C43.5895 53.8535 43.3779 54.0651 42.9873 54.0977C42.805 54.0977 42.6455 54.0391 42.5088 53.9219C42.3786 53.7982 42.3135 53.6452 42.3135 53.4629V51.793V51.3828C42.333 51.0312 42.4567 50.7285 42.6846 50.4746C42.9124 50.2207 43.1761 50.0189 43.4756 49.8691C43.7751 49.7129 44.0876 49.5957 44.4131 49.5176C44.7451 49.4395 45.0804 49.4004 45.4189 49.4004ZM56.8447 47.9551C57.0726 47.9551 57.2939 47.9941 57.5088 48.0723C57.7301 48.1504 57.9417 48.2643 58.1436 48.4141C58.1761 48.4466 58.2119 48.4792 58.251 48.5117C58.2835 48.4792 58.3193 48.4466 58.3584 48.4141C58.5602 48.2643 58.7686 48.1504 58.9834 48.0723C59.2048 47.9941 59.4261 47.9551 59.6475 47.9551C59.8753 47.9551 60.0967 47.9941 60.3115 48.0723C60.5329 48.1504 60.7412 48.2676 60.9365 48.4238C61.1383 48.5736 61.3141 48.7754 61.4639 49.0293C61.6201 49.2832 61.6982 49.5859 61.6982 49.9375V53.4629C61.6592 53.8535 61.4443 54.0651 61.0537 54.0977C60.8714 54.0977 60.7119 54.0391 60.5752 53.9219C60.445 53.7982 60.3799 53.6452 60.3799 53.4629V50.0156C60.3799 49.8594 60.3506 49.7292 60.292 49.625C60.2334 49.5143 60.1683 49.4297 60.0967 49.3711C60.0251 49.306 59.9502 49.2604 59.8721 49.2344C59.7939 49.2018 59.7158 49.1855 59.6377 49.1855C59.5596 49.1855 59.4814 49.2018 59.4033 49.2344C59.3317 49.2604 59.2601 49.306 59.1885 49.3711C59.1169 49.4297 59.0518 49.5143 58.9932 49.625C58.9346 49.7292 58.902 49.8594 58.8955 50.0156V53.4629C58.8564 53.8535 58.6416 54.0651 58.251 54.0977C58.0687 54.0977 57.9092 54.0391 57.7725 53.9219C57.6423 53.7982 57.5771 53.6452 57.5771 53.4629V50.0156C57.5771 49.8594 57.5479 49.7292 57.4893 49.625C57.4307 49.5143 57.3656 49.4297 57.2939 49.3711C57.2223 49.306 57.1475 49.2604 57.0693 49.2344C56.9912 49.2018 56.9131 49.1855 56.835 49.1855C56.7568 49.1855 56.6787 49.2018 56.6006 49.2344C56.529 49.2604 56.4574 49.306 56.3857 49.3711C56.3141 49.4297 56.249 49.5143 56.1904 49.625C56.1318 49.7292 56.0993 49.8594 56.0928 50.0156V53.4629C56.0602 53.8535 55.8486 54.0651 55.458 54.0977C55.2757 54.0977 55.1162 54.0391 54.9795 53.9219C54.8493 53.7982 54.7842 53.6452 54.7842 53.4629V49.9375C54.7972 49.5859 54.8786 49.2832 55.0283 49.0293C55.1781 48.7754 55.3538 48.5736 55.5557 48.4238C55.7575 48.2676 55.9658 48.1504 56.1807 48.0723C56.402 47.9941 56.6234 47.9551 56.8447 47.9551ZM68.3877 53.4629V51.1094C68.3877 50.9466 68.3031 50.862 68.1338 50.8555H64.7158C64.5921 50.862 64.4847 50.9173 64.3936 51.0215C64.3024 51.1191 64.234 51.2363 64.1885 51.373C64.1494 51.5033 64.1299 51.6367 64.1299 51.7734C64.1299 51.9036 64.1494 52.0371 64.1885 52.1738C64.234 52.304 64.3024 52.4212 64.3936 52.5254C64.4847 52.623 64.5921 52.6719 64.7158 52.6719H67.2158C67.3981 52.6719 67.5511 52.737 67.6748 52.8672C67.805 52.9909 67.8701 53.1439 67.8701 53.3262C67.8701 53.5085 67.805 53.6615 67.6748 53.7852C67.5511 53.9154 67.3981 53.9805 67.2158 53.9805H64.7549C64.2992 53.974 63.9215 53.847 63.6221 53.5996C63.3291 53.3457 63.1175 53.0625 62.9873 52.75C62.8636 52.431 62.8018 52.1022 62.8018 51.7637C62.8018 51.4382 62.8669 51.1191 62.9971 50.8066C63.1273 50.4876 63.3389 50.2044 63.6318 49.957C63.9248 49.7031 64.3577 49.5664 64.9307 49.5469H69.0322C69.2145 49.5469 69.3708 49.6087 69.501 49.7324C69.6312 49.8496 69.6995 49.9993 69.7061 50.1816V53.4629C69.7061 53.6452 69.6377 53.7982 69.501 53.9219C69.3708 54.0391 69.2145 54.0977 69.0322 54.0977C68.6416 54.0651 68.4268 53.8535 68.3877 53.4629ZM74.0811 49.4004C74.4196 49.4004 74.7516 49.4395 75.0771 49.5176C75.4092 49.5957 75.7249 49.7129 76.0244 49.8691C76.3239 50.0189 76.5876 50.2207 76.8154 50.4746C77.0498 50.7285 77.1768 51.0312 77.1963 51.3828V51.793V53.4629C77.1572 53.8535 76.9424 54.0651 76.5518 54.0977C76.3695 54.0977 76.21 54.0391 76.0732 53.9219C75.943 53.7982 75.8779 53.6452 75.8779 53.4629V53.0332V51.6855C75.8649 51.4837 75.7868 51.3177 75.6436 51.1875C75.5068 51.0508 75.3506 50.9434 75.1748 50.8652C75.0055 50.7871 74.8265 50.7285 74.6377 50.6895C74.4554 50.6504 74.2699 50.6309 74.0811 50.6309C73.8923 50.6309 73.7035 50.6504 73.5146 50.6895C73.3324 50.7285 73.1533 50.7871 72.9775 50.8652C72.8083 50.9434 72.652 51.0508 72.5088 51.1875C72.3721 51.3177 72.2972 51.4837 72.2842 51.6855V53.0332V53.4629C72.2516 53.8535 72.04 54.0651 71.6494 54.0977C71.4671 54.0977 71.3076 54.0391 71.1709 53.9219C71.0407 53.7982 70.9756 53.6452 70.9756 53.4629V51.793V51.3828C70.9951 51.0312 71.1188 50.7285 71.3467 50.4746C71.5745 50.2207 71.8382 50.0189 72.1377 49.8691C72.4372 49.7129 72.7497 49.5957 73.0752 49.5176C73.4072 49.4395 73.7425 49.4004 74.0811 49.4004Z" fill="#72757A"/>
<path d="M22.5078 61.1719C22.5807 61.1719 22.6432 61.1966 22.6953 61.2461C22.7474 61.293 22.7747 61.3529 22.7773 61.4258V61.8203C22.7747 61.9271 22.7812 62.026 22.7969 62.1172C22.8151 62.2057 22.8568 62.2852 22.9219 62.3555C22.987 62.4258 23.069 62.4635 23.168 62.4688H24.2109V61.4336C24.2109 61.3607 24.237 61.3008 24.2891 61.2539C24.3438 61.2044 24.4076 61.1797 24.4805 61.1797C24.6367 61.1927 24.7227 61.2773 24.7383 61.4336V62.707C24.7383 62.9154 24.7096 63.112 24.6523 63.2969C24.6003 63.4609 24.5143 63.599 24.3945 63.7109C24.2773 63.8255 24.1276 63.888 23.9453 63.8984H22.5938C22.5234 63.8958 22.4635 63.8698 22.4141 63.8203C22.3672 63.7734 22.3424 63.7148 22.3398 63.6445C22.3398 63.5716 22.3633 63.5091 22.4102 63.457C22.4596 63.4049 22.5208 63.3776 22.5938 63.375H23.8125C23.9115 63.3698 23.9935 63.332 24.0586 63.2617C24.1237 63.1914 24.1654 63.1094 24.1836 63.0156C24.1862 63.0078 24.1875 63 24.1875 62.9922H23.0352C22.8529 62.9818 22.7018 62.9206 22.582 62.8086C22.4648 62.694 22.3802 62.5547 22.3281 62.3906C22.2786 62.2266 22.2526 62.0521 22.25 61.8672V61.4258C22.2526 61.3555 22.2786 61.2969 22.3281 61.25C22.3776 61.2005 22.4375 61.1745 22.5078 61.1719ZM26.0586 62.9922C25.8294 62.9844 25.6562 62.931 25.5391 62.832C25.4219 62.7305 25.3372 62.6172 25.2852 62.4922C25.2331 62.3646 25.207 62.2357 25.207 62.1055C25.207 61.9701 25.2318 61.8398 25.2812 61.7148C25.3333 61.5872 25.418 61.474 25.5352 61.375C25.6549 61.2734 25.806 61.2214 25.9883 61.2188H27.2539C27.4362 61.2214 27.5859 61.2734 27.7031 61.375C27.8229 61.474 27.9076 61.5872 27.957 61.7148C28.0091 61.8398 28.0352 61.9701 28.0352 62.1055C28.0352 62.2357 28.0091 62.3646 27.957 62.4922C27.9049 62.6172 27.8203 62.7305 27.7031 62.832C27.5859 62.931 27.4128 62.9844 27.1836 62.9922H26.0586ZM25.9727 61.7422C25.9232 61.7422 25.8802 61.763 25.8438 61.8047C25.8073 61.8438 25.7799 61.8906 25.7617 61.9453C25.7461 61.9974 25.7383 62.0495 25.7383 62.1016C25.7383 62.1562 25.7461 62.2109 25.7617 62.2656C25.7799 62.3177 25.8073 62.3646 25.8438 62.4062C25.8802 62.4453 25.9232 62.4661 25.9727 62.4688H27.2695C27.319 62.4661 27.362 62.4453 27.3984 62.4062C27.4349 62.3646 27.4609 62.3177 27.4766 62.2656C27.4948 62.2109 27.5039 62.1562 27.5039 62.1016C27.5039 62.0495 27.4948 61.9974 27.4766 61.9453C27.4609 61.8906 27.4349 61.8438 27.3984 61.8047C27.362 61.763 27.319 61.7422 27.2695 61.7422H25.9727ZM29.7305 63.0586C29.5951 63.0586 29.4609 63.043 29.3281 63.0117C29.1979 62.9805 29.0729 62.9349 28.9531 62.875C28.8333 62.8125 28.7279 62.7305 28.6367 62.6289C28.5456 62.5273 28.4961 62.4062 28.4883 62.2656V62.1016V61.4336C28.4883 61.3607 28.5143 61.3008 28.5664 61.2539C28.6211 61.2044 28.6849 61.1797 28.7578 61.1797C28.9141 61.1927 28.9987 61.2773 29.0117 61.4336V61.6055V62.1445C29.0169 62.2253 29.0469 62.293 29.1016 62.3477C29.1589 62.3997 29.2214 62.4414 29.2891 62.4727C29.3594 62.5039 29.431 62.5273 29.5039 62.543C29.5794 62.5586 29.6549 62.5664 29.7305 62.5664C29.806 62.5664 29.8802 62.5586 29.9531 62.543C30.0286 62.5273 30.1003 62.5039 30.168 62.4727C30.2383 62.4414 30.3008 62.3997 30.3555 62.3477C30.4128 62.293 30.444 62.2253 30.4492 62.1445V61.6055V61.4336C30.4492 61.3607 30.4753 61.3008 30.5273 61.2539C30.582 61.2044 30.6458 61.1797 30.7188 61.1797C30.875 61.1927 30.9609 61.2773 30.9766 61.4336V62.1016V62.2656C30.9688 62.4062 30.918 62.5273 30.8242 62.6289C30.7331 62.7305 30.6276 62.8125 30.5078 62.875C30.388 62.9349 30.2617 62.9805 30.1289 63.0117C29.9987 63.043 29.8659 63.0586 29.7305 63.0586ZM34.2695 62.9922C34.0404 62.9844 33.8672 62.931 33.75 62.832C33.6328 62.7305 33.5482 62.6172 33.4961 62.4922C33.444 62.3646 33.418 62.2357 33.418 62.1055C33.418 61.9701 33.4427 61.8398 33.4922 61.7148C33.5443 61.5872 33.6289 61.474 33.7461 61.375C33.8659 61.2734 34.0169 61.2214 34.1992 61.2188H35.6836C35.7565 61.2188 35.8177 61.2448 35.8672 61.2969C35.9193 61.3464 35.9453 61.4076 35.9453 61.4805C35.9453 61.5534 35.9193 61.6159 35.8672 61.668C35.8177 61.7174 35.7565 61.7422 35.6836 61.7422H34.1836C34.1341 61.7422 34.0911 61.763 34.0547 61.8047C34.0182 61.8438 33.9909 61.8906 33.9727 61.9453C33.957 61.9974 33.9492 62.0495 33.9492 62.1016C33.9492 62.1562 33.957 62.2109 33.9727 62.2656C33.9909 62.3177 34.0182 62.3646 34.0547 62.4062C34.0911 62.4453 34.1341 62.4661 34.1836 62.4688H35.6836C35.7565 62.4688 35.8177 62.4948 35.8672 62.5469C35.9193 62.5964 35.9453 62.6576 35.9453 62.7305C35.9453 62.8034 35.9193 62.8646 35.8672 62.9141C35.8177 62.9661 35.7565 62.9922 35.6836 62.9922H34.2695ZM38.5391 62.7852V61.8438C38.5391 61.7786 38.5052 61.7448 38.4375 61.7422H37.0703C37.0208 61.7448 36.9779 61.7669 36.9414 61.8086C36.9049 61.8477 36.8776 61.8945 36.8594 61.9492C36.8438 62.0013 36.8359 62.0547 36.8359 62.1094C36.8359 62.1615 36.8438 62.2148 36.8594 62.2695C36.8776 62.3216 36.9049 62.3685 36.9414 62.4102C36.9779 62.4492 37.0208 62.4688 37.0703 62.4688H38.0703C38.1432 62.4688 38.2044 62.4948 38.2539 62.5469C38.306 62.5964 38.332 62.6576 38.332 62.7305C38.332 62.8034 38.306 62.8646 38.2539 62.9141C38.2044 62.9661 38.1432 62.9922 38.0703 62.9922H37.0859C36.9036 62.9896 36.7526 62.9388 36.6328 62.8398C36.5156 62.7383 36.431 62.625 36.3789 62.5C36.3294 62.3724 36.3047 62.2409 36.3047 62.1055C36.3047 61.9753 36.3307 61.8477 36.3828 61.7227C36.4349 61.5951 36.5195 61.4818 36.6367 61.3828C36.7539 61.2812 36.9271 61.2266 37.1562 61.2188H38.7969C38.8698 61.2188 38.9323 61.2435 38.9844 61.293C39.0365 61.3398 39.0638 61.3997 39.0664 61.4727V62.7852C39.0664 62.8581 39.0391 62.9193 38.9844 62.9688C38.9323 63.0156 38.8698 63.0391 38.7969 63.0391C38.6406 63.026 38.5547 62.9414 38.5391 62.7852ZM40.8164 61.1602C40.9518 61.1602 41.0846 61.1758 41.2148 61.207C41.3477 61.2383 41.474 61.2852 41.5938 61.3477C41.7135 61.4076 41.819 61.4883 41.9102 61.5898C42.0039 61.6914 42.0547 61.8125 42.0625 61.9531V62.1172V62.7852C42.0469 62.9414 41.9609 63.026 41.8047 63.0391C41.7318 63.0391 41.668 63.0156 41.6133 62.9688C41.5612 62.9193 41.5352 62.8581 41.5352 62.7852V62.6133V62.0742C41.5299 61.9935 41.4987 61.9271 41.4414 61.875C41.3867 61.8203 41.3242 61.7773 41.2539 61.7461C41.1862 61.7148 41.1146 61.6914 41.0391 61.6758C40.9661 61.6602 40.8919 61.6523 40.8164 61.6523C40.7409 61.6523 40.6654 61.6602 40.5898 61.6758C40.5169 61.6914 40.4453 61.7148 40.375 61.7461C40.3073 61.7773 40.2448 61.8203 40.1875 61.875C40.1328 61.9271 40.1029 61.9935 40.0977 62.0742V62.6133V62.7852C40.0846 62.9414 40 63.026 39.8438 63.0391C39.7708 63.0391 39.707 63.0156 39.6523 62.9688C39.6003 62.9193 39.5742 62.8581 39.5742 62.7852V62.1172V61.9531C39.582 61.8125 39.6315 61.6914 39.7227 61.5898C39.8138 61.4883 39.9193 61.4076 40.0391 61.3477C40.1589 61.2852 40.2839 61.2383 40.4141 61.207C40.5469 61.1758 40.681 61.1602 40.8164 61.1602ZM44.8281 60.625C44.8984 60.6276 44.9583 60.6536 45.0078 60.7031C45.0573 60.75 45.0833 60.8086 45.0859 60.8789V62.793C45.0703 62.9492 44.9844 63.0339 44.8281 63.0469C44.7552 63.0469 44.6914 63.0234 44.6367 62.9766C44.5846 62.9271 44.5586 62.8659 44.5586 62.793V60.8789C44.5612 60.806 44.5885 60.7461 44.6406 60.6992C44.6927 60.6497 44.7552 60.625 44.8281 60.625ZM46.3906 62.9922C46.1615 62.9844 45.9883 62.931 45.8711 62.832C45.7539 62.7305 45.6693 62.6172 45.6172 62.4922C45.5651 62.3646 45.5391 62.2357 45.5391 62.1055C45.5391 61.9701 45.5638 61.8398 45.6133 61.7148C45.6654 61.5872 45.75 61.474 45.8672 61.375C45.987 61.2734 46.138 61.2214 46.3203 61.2188H47.5859C47.7682 61.2214 47.918 61.2734 48.0352 61.375C48.1549 61.474 48.2396 61.5872 48.2891 61.7148C48.3411 61.8398 48.3672 61.9701 48.3672 62.1055C48.3672 62.2357 48.3411 62.3646 48.2891 62.4922C48.237 62.6172 48.1523 62.7305 48.0352 62.832C47.918 62.931 47.7448 62.9844 47.5156 62.9922H46.3906ZM46.3047 61.7422C46.2552 61.7422 46.2122 61.763 46.1758 61.8047C46.1393 61.8438 46.112 61.8906 46.0938 61.9453C46.0781 61.9974 46.0703 62.0495 46.0703 62.1016C46.0703 62.1562 46.0781 62.2109 46.0938 62.2656C46.112 62.3177 46.1393 62.3646 46.1758 62.4062C46.2122 62.4453 46.2552 62.4661 46.3047 62.4688H47.6016C47.651 62.4661 47.694 62.4453 47.7305 62.4062C47.7669 62.3646 47.793 62.3177 47.8086 62.2656C47.8268 62.2109 47.8359 62.1562 47.8359 62.1016C47.8359 62.0495 47.8268 61.9974 47.8086 61.9453C47.793 61.8906 47.7669 61.8438 47.7305 61.8047C47.694 61.763 47.651 61.7422 47.6016 61.7422H46.3047ZM49.6094 62.9922C49.3802 62.9844 49.207 62.931 49.0898 62.832C48.9727 62.7305 48.888 62.6172 48.8359 62.4922C48.7839 62.3646 48.7578 62.2357 48.7578 62.1055C48.7578 61.9701 48.7826 61.8398 48.832 61.7148C48.8841 61.5872 48.9688 61.474 49.0859 61.375C49.2057 61.2734 49.3568 61.2214 49.5391 61.2188H51.0234C51.0964 61.2188 51.1576 61.2448 51.207 61.2969C51.2591 61.3464 51.2852 61.4076 51.2852 61.4805C51.2852 61.5534 51.2591 61.6159 51.207 61.668C51.1576 61.7174 51.0964 61.7422 51.0234 61.7422H49.5234C49.474 61.7422 49.431 61.763 49.3945 61.8047C49.3581 61.8438 49.3307 61.8906 49.3125 61.9453C49.2969 61.9974 49.2891 62.0495 49.2891 62.1016C49.2891 62.1562 49.2969 62.2109 49.3125 62.2656C49.3307 62.3177 49.3581 62.3646 49.3945 62.4062C49.431 62.4453 49.474 62.4661 49.5234 62.4688H51.0234C51.0964 62.4688 51.1576 62.4948 51.207 62.5469C51.2591 62.5964 51.2852 62.6576 51.2852 62.7305C51.2852 62.8034 51.2591 62.8646 51.207 62.9141C51.1576 62.9661 51.0964 62.9922 51.0234 62.9922H49.6094ZM51.9648 60.625C52.0352 60.6276 52.0951 60.6536 52.1445 60.7031C52.194 60.75 52.2201 60.8086 52.2227 60.8789V62.793C52.207 62.9492 52.1211 63.0339 51.9648 63.0469C51.8919 63.0469 51.8281 63.0234 51.7734 62.9766C51.7214 62.9271 51.6953 62.8659 51.6953 62.793V60.8789C51.6979 60.806 51.7253 60.7461 51.7773 60.6992C51.8294 60.6497 51.8919 60.625 51.9648 60.625ZM52.4609 61.7148C52.5365 61.5924 52.681 61.5026 52.8945 61.4453L53.8984 61.1758C53.9688 61.1549 54.0352 61.1615 54.0977 61.1953C54.1628 61.2266 54.2057 61.2773 54.2266 61.3477C54.25 61.4154 54.2448 61.4818 54.2109 61.5469C54.1797 61.6094 54.1289 61.6523 54.0586 61.6758L52.9883 61.9531C52.9128 61.9818 52.8763 62.0312 52.8789 62.1016C52.8763 62.1719 52.9128 62.2214 52.9883 62.25L54.0586 62.5273C54.1289 62.5508 54.1797 62.5951 54.2109 62.6602C54.2448 62.7227 54.25 62.7878 54.2266 62.8555C54.2057 62.9258 54.1628 62.9766 54.0977 63.0078C54.0352 63.0417 53.9688 63.0482 53.8984 63.0273L52.8945 62.7578C52.6784 62.6979 52.5326 62.6068 52.457 62.4844C52.3841 62.362 52.3477 62.2344 52.3477 62.1016C52.3477 61.9688 52.3854 61.8398 52.4609 61.7148ZM57.4961 60.625C57.569 60.625 57.6315 60.6497 57.6836 60.6992C57.7357 60.7461 57.763 60.806 57.7656 60.8789V61.2188H59.0938C59.1667 61.2188 59.2292 61.2435 59.2812 61.293C59.3307 61.3451 59.3555 61.4076 59.3555 61.4805C59.3555 61.5534 59.3294 61.6159 59.2773 61.668C59.2279 61.7174 59.1667 61.7422 59.0938 61.7422H57.7656V61.8203C57.763 61.9271 57.7695 62.026 57.7852 62.1172C57.8034 62.2057 57.8451 62.2852 57.9102 62.3555C57.9753 62.4258 58.0573 62.4635 58.1562 62.4688H59.1094C59.1823 62.4714 59.2422 62.4987 59.2891 62.5508C59.3385 62.6029 59.3633 62.6654 59.3633 62.7383C59.3607 62.8086 59.3346 62.8685 59.2852 62.918C59.2383 62.9648 59.1797 62.9896 59.1094 62.9922H58.0234C57.8411 62.9818 57.6901 62.9206 57.5703 62.8086C57.4531 62.694 57.3685 62.5547 57.3164 62.3906C57.2669 62.2266 57.2409 62.0521 57.2383 61.8672V61.7422H56.7891C56.7161 61.7422 56.6549 61.7161 56.6055 61.6641C56.5534 61.6146 56.5273 61.5534 56.5273 61.4805C56.5273 61.4076 56.5521 61.3464 56.6016 61.2969C56.6536 61.2448 56.7161 61.2188 56.7891 61.2188H57.2383V60.8789C57.2409 60.8086 57.2669 60.75 57.3164 60.7031C57.3659 60.6536 57.4258 60.6276 57.4961 60.625ZM60.0078 60.625C60.0781 60.6276 60.138 60.6536 60.1875 60.7031C60.237 60.75 60.263 60.8086 60.2656 60.8789V61.2188H61.4766C61.6589 61.2214 61.8086 61.2734 61.9258 61.375C62.0456 61.474 62.1302 61.5859 62.1797 61.7109C62.2318 61.8385 62.2578 61.9701 62.2578 62.1055H62.2617V62.7852C62.2617 62.8581 62.2344 62.9193 62.1797 62.9688C62.1276 63.0156 62.0651 63.0391 61.9922 63.0391C61.8359 63.026 61.75 62.9414 61.7344 62.7852V62.1016C61.7344 62.0521 61.724 62 61.7031 61.9453C61.6849 61.8906 61.6576 61.8438 61.6211 61.8047C61.5846 61.763 61.5417 61.7422 61.4922 61.7422H60.2656V62.793C60.25 62.9492 60.1641 63.0339 60.0078 63.0469C59.9349 63.0469 59.8711 63.0234 59.8164 62.9766C59.7643 62.9271 59.7383 62.8659 59.7383 62.793V60.8789C59.7409 60.806 59.7682 60.7461 59.8203 60.6992C59.8724 60.6497 59.9349 60.625 60.0078 60.625ZM63.0234 61.1797C63.0938 61.1823 63.1536 61.2083 63.2031 61.2578C63.2526 61.3047 63.2786 61.3633 63.2812 61.4336V62.7852C63.2656 62.9414 63.1797 63.026 63.0234 63.0391C62.9505 63.0391 62.8867 63.0156 62.832 62.9688C62.7799 62.9193 62.7539 62.8581 62.7539 62.7852V61.4336C62.7565 61.3607 62.7839 61.3008 62.8359 61.2539C62.888 61.2044 62.9505 61.1797 63.0234 61.1797ZM62.6953 60.6719C62.6953 60.599 62.7266 60.5365 62.7891 60.4844C62.8516 60.4323 62.9271 60.4062 63.0156 60.4062C63.1042 60.4062 63.1797 60.4323 63.2422 60.4844C63.3047 60.5365 63.3359 60.599 63.3359 60.6719C63.3359 60.7474 63.3047 60.8112 63.2422 60.8633C63.1797 60.9154 63.1042 60.9414 63.0156 60.9414C62.9271 60.9414 62.8516 60.9154 62.7891 60.8633C62.7266 60.8112 62.6953 60.7474 62.6953 60.6719ZM66.2383 61.4453C66.2383 61.5104 66.2122 61.5651 66.1602 61.6094C66.1107 61.651 66.0495 61.6719 65.9766 61.6719H64.3242C64.2904 61.6719 64.263 61.6784 64.2422 61.6914C64.2214 61.7044 64.2057 61.7188 64.1953 61.7344C64.1849 61.7474 64.1797 61.7591 64.1797 61.7695C64.1797 61.7826 64.1849 61.7969 64.1953 61.8125C64.2057 61.8255 64.2214 61.8385 64.2422 61.8516C64.263 61.862 64.2904 61.8685 64.3242 61.8711H65.6016C65.7656 61.8737 65.901 61.9062 66.0078 61.9688C66.1146 62.0286 66.1901 62.1003 66.2344 62.1836C66.2812 62.2643 66.3047 62.3464 66.3047 62.4297C66.3047 62.5104 66.2812 62.5924 66.2344 62.6758C66.1875 62.7565 66.1107 62.8281 66.0039 62.8906C65.8997 62.9505 65.7656 62.9805 65.6016 62.9805C65.5729 62.9831 65.5521 62.9844 65.5391 62.9844H64.0234C63.9505 62.9844 63.888 62.9635 63.8359 62.9219C63.7865 62.8776 63.7617 62.8242 63.7617 62.7617C63.7617 62.6966 63.7878 62.6419 63.8398 62.5977C63.8893 62.556 63.9505 62.5352 64.0234 62.5352H65.6328C65.6719 62.5378 65.7031 62.5326 65.7266 62.5195C65.7526 62.5065 65.7721 62.4922 65.7852 62.4766C65.7982 62.4609 65.8047 62.4453 65.8047 62.4297C65.8047 62.4219 65.7982 62.4089 65.7852 62.3906C65.7721 62.3698 65.7526 62.3542 65.7266 62.3438C65.7031 62.3307 65.6719 62.3229 65.6328 62.3203H64.3516C64.2005 62.3177 64.0755 62.2865 63.9766 62.2266C63.8776 62.1641 63.8073 62.0924 63.7656 62.0117C63.724 61.931 63.7031 61.8503 63.7031 61.7695C63.7031 61.6888 63.724 61.6094 63.7656 61.5312C63.8099 61.4505 63.8802 61.3815 63.9766 61.3242C64.0755 61.2643 64.2005 61.2318 64.3516 61.2266C64.3776 61.224 64.3971 61.2227 64.4102 61.2227H65.9766C66.0495 61.2227 66.1107 61.2448 66.1602 61.2891C66.2122 61.3307 66.2383 61.3828 66.2383 61.4453ZM69.2656 60.8789V62.3672C69.2656 62.4323 69.2995 62.4661 69.3672 62.4688H70.7344C70.7839 62.4661 70.8268 62.4453 70.8633 62.4062C70.8997 62.3646 70.9258 62.3177 70.9414 62.2656C70.9596 62.2109 70.9688 62.1562 70.9688 62.1016C70.9688 62.0495 70.9596 61.9974 70.9414 61.9453C70.9258 61.8906 70.8997 61.8438 70.8633 61.8047C70.8268 61.763 70.7839 61.7422 70.7344 61.7422H69.7344C69.6615 61.7422 69.599 61.7174 69.5469 61.668C69.4974 61.6159 69.4727 61.5534 69.4727 61.4805C69.4727 61.4076 69.4987 61.3464 69.5508 61.2969C69.6003 61.2448 69.6615 61.2188 69.7344 61.2188H70.7188C70.901 61.2214 71.0508 61.2734 71.168 61.375C71.2878 61.474 71.3724 61.5872 71.4219 61.7148C71.474 61.8398 71.5 61.9701 71.5 62.1055C71.5 62.2357 71.474 62.3646 71.4219 62.4922C71.3698 62.6172 71.2852 62.7305 71.168 62.832C71.0508 62.931 70.8776 62.9844 70.6484 62.9922H69.0078C68.9349 62.9922 68.8724 62.9688 68.8203 62.9219C68.7682 62.8724 68.7409 62.8112 68.7383 62.7383V60.8789C68.7383 60.806 68.7643 60.7461 68.8164 60.6992C68.8711 60.6497 68.9349 60.625 69.0078 60.625C69.1641 60.638 69.25 60.7227 69.2656 60.8789ZM72.1836 61.1719C72.2565 61.1719 72.319 61.1966 72.3711 61.2461C72.4232 61.293 72.4505 61.3529 72.4531 61.4258V61.8203C72.4505 61.9271 72.457 62.026 72.4727 62.1172C72.4909 62.2057 72.5326 62.2852 72.5977 62.3555C72.6628 62.4258 72.7448 62.4635 72.8438 62.4688H73.8867V61.4336C73.8867 61.3607 73.9128 61.3008 73.9648 61.2539C74.0195 61.2044 74.0833 61.1797 74.1562 61.1797C74.3125 61.1927 74.3984 61.2773 74.4141 61.4336V62.707C74.4141 62.9154 74.3854 63.112 74.3281 63.2969C74.276 63.4609 74.1901 63.599 74.0703 63.7109C73.9531 63.8255 73.8034 63.888 73.6211 63.8984H72.2695C72.1992 63.8958 72.1393 63.8698 72.0898 63.8203C72.043 63.7734 72.0182 63.7148 72.0156 63.6445C72.0156 63.5716 72.0391 63.5091 72.0859 63.457C72.1354 63.4049 72.1966 63.3776 72.2695 63.375H73.4883C73.5872 63.3698 73.6693 63.332 73.7344 63.2617C73.7995 63.1914 73.8411 63.1094 73.8594 63.0156C73.862 63.0078 73.8633 63 73.8633 62.9922H72.7109C72.5286 62.9818 72.3776 62.9206 72.2578 62.8086C72.1406 62.694 72.056 62.5547 72.0039 62.3906C71.9544 62.2266 71.9284 62.0521 71.9258 61.8672V61.4258C71.9284 61.3555 71.9544 61.2969 72.0039 61.25C72.0534 61.2005 72.1133 61.1745 72.1836 61.1719ZM23.0742 67.043C22.9857 67.043 22.8971 67.0273 22.8086 66.9961C22.7227 66.9648 22.6393 66.9193 22.5586 66.8594C22.4779 66.7969 22.4076 66.7148 22.3477 66.6133C22.2878 66.5117 22.2552 66.3906 22.25 66.25V65.418C22.25 65.3451 22.276 65.2852 22.3281 65.2383C22.3828 65.1888 22.4466 65.1641 22.5195 65.1641C22.6758 65.1771 22.7604 65.2617 22.7734 65.418V66.2188C22.776 66.2812 22.7891 66.3346 22.8125 66.3789C22.8359 66.4206 22.862 66.4544 22.8906 66.4805C22.9193 66.5039 22.9479 66.5221 22.9766 66.5352C23.0078 66.5456 23.0391 66.5508 23.0703 66.5508C23.1016 66.5508 23.1328 66.5456 23.1641 66.5352C23.1953 66.5221 23.2253 66.5039 23.2539 66.4805C23.2826 66.4544 23.3086 66.4206 23.332 66.3789C23.3555 66.3346 23.3672 66.2812 23.3672 66.2188V65.418C23.3672 65.3451 23.3932 65.2852 23.4453 65.2383C23.5 65.1888 23.5638 65.1641 23.6367 65.1641C23.793 65.1771 23.8789 65.2617 23.8945 65.418V66.2188C23.8971 66.2812 23.9102 66.3333 23.9336 66.375C23.957 66.4193 23.9831 66.4544 24.0117 66.4805C24.0404 66.5039 24.069 66.5221 24.0977 66.5352C24.1289 66.5456 24.1602 66.5508 24.1914 66.5508C24.2227 66.5508 24.2539 66.5456 24.2852 66.5352C24.3164 66.5221 24.3464 66.5039 24.375 66.4805C24.4036 66.4544 24.4297 66.4206 24.4531 66.3789C24.4766 66.3346 24.4883 66.2812 24.4883 66.2188V65.418C24.4883 65.3451 24.5143 65.2852 24.5664 65.2383C24.6211 65.1888 24.6849 65.1641 24.7578 65.1641C24.9141 65.1771 25 65.2617 25.0156 65.418V66.25C25.0156 66.3906 24.9844 66.5117 24.9219 66.6133C24.862 66.7148 24.7917 66.7969 24.7109 66.8594C24.6328 66.9193 24.5495 66.9648 24.4609 66.9961C24.375 67.0273 24.2865 67.043 24.1953 67.043C24.1068 67.043 24.0182 67.0273 23.9297 66.9961C23.8438 66.9648 23.7604 66.918 23.6797 66.8555C23.6641 66.8451 23.6497 66.8333 23.6367 66.8203C23.6211 66.8333 23.6068 66.8451 23.5938 66.8555C23.513 66.918 23.4284 66.9648 23.3398 66.9961C23.2539 67.0273 23.1654 67.043 23.0742 67.043ZM25.8008 65.1797C25.8711 65.1823 25.931 65.2083 25.9805 65.2578C26.0299 65.3047 26.056 65.3633 26.0586 65.4336V66.7852C26.043 66.9414 25.957 67.026 25.8008 67.0391C25.7279 67.0391 25.6641 67.0156 25.6094 66.9688C25.5573 66.9193 25.5312 66.8581 25.5312 66.7852V65.4336C25.5339 65.3607 25.5612 65.3008 25.6133 65.2539C25.6654 65.2044 25.7279 65.1797 25.8008 65.1797ZM25.4727 64.6719C25.4727 64.599 25.5039 64.5365 25.5664 64.4844C25.6289 64.4323 25.7044 64.4062 25.793 64.4062C25.8815 64.4062 25.957 64.4323 26.0195 64.4844C26.082 64.5365 26.1133 64.599 26.1133 64.6719C26.1133 64.7474 26.082 64.8112 26.0195 64.8633C25.957 64.9154 25.8815 64.9414 25.793 64.9414C25.7044 64.9414 25.6289 64.9154 25.5664 64.8633C25.5039 64.8112 25.4727 64.7474 25.4727 64.6719ZM27.7812 65.1602C27.9167 65.1602 28.0495 65.1758 28.1797 65.207C28.3125 65.2383 28.4388 65.2852 28.5586 65.3477C28.6784 65.4076 28.7839 65.4883 28.875 65.5898C28.9688 65.6914 29.0195 65.8125 29.0273 65.9531V66.1172V66.7852C29.0117 66.9414 28.9258 67.026 28.7695 67.0391C28.6966 67.0391 28.6328 67.0156 28.5781 66.9688C28.526 66.9193 28.5 66.8581 28.5 66.7852V66.6133V66.0742C28.4948 65.9935 28.4635 65.9271 28.4062 65.875C28.3516 65.8203 28.2891 65.7773 28.2188 65.7461C28.151 65.7148 28.0794 65.6914 28.0039 65.6758C27.931 65.6602 27.8568 65.6523 27.7812 65.6523C27.7057 65.6523 27.6302 65.6602 27.5547 65.6758C27.4818 65.6914 27.4102 65.7148 27.3398 65.7461C27.2721 65.7773 27.2096 65.8203 27.1523 65.875C27.0977 65.9271 27.0677 65.9935 27.0625 66.0742V66.6133V66.7852C27.0495 66.9414 26.9648 67.026 26.8086 67.0391C26.7357 67.0391 26.6719 67.0156 26.6172 66.9688C26.5651 66.9193 26.5391 66.8581 26.5391 66.7852V66.1172V65.9531C26.5469 65.8125 26.5964 65.6914 26.6875 65.5898C26.7786 65.4883 26.8841 65.4076 27.0039 65.3477C27.1237 65.2852 27.2487 65.2383 27.3789 65.207C27.5117 65.1758 27.6458 65.1602 27.7812 65.1602ZM29.793 65.1797C29.8633 65.1823 29.9232 65.2083 29.9727 65.2578C30.0221 65.3047 30.0482 65.3633 30.0508 65.4336V66.7852C30.0352 66.9414 29.9492 67.026 29.793 67.0391C29.7201 67.0391 29.6562 67.0156 29.6016 66.9688C29.5495 66.9193 29.5234 66.8581 29.5234 66.7852V65.4336C29.526 65.3607 29.5534 65.3008 29.6055 65.2539C29.6576 65.2044 29.7201 65.1797 29.793 65.1797ZM29.4648 64.6719C29.4648 64.599 29.4961 64.5365 29.5586 64.4844C29.6211 64.4323 29.6966 64.4062 29.7852 64.4062C29.8737 64.4062 29.9492 64.4323 30.0117 64.4844C30.0742 64.5365 30.1055 64.599 30.1055 64.6719C30.1055 64.7474 30.0742 64.8112 30.0117 64.8633C29.9492 64.9154 29.8737 64.9414 29.7852 64.9414C29.6966 64.9414 29.6211 64.9154 29.5586 64.8633C29.4961 64.8112 29.4648 64.7474 29.4648 64.6719ZM31.7734 65.1602C31.9089 65.1602 32.0417 65.1758 32.1719 65.207C32.3047 65.2383 32.431 65.2852 32.5508 65.3477C32.6706 65.4076 32.776 65.4883 32.8672 65.5898C32.9609 65.6914 33.0117 65.8125 33.0195 65.9531V66.1172V66.7852C33.0039 66.9414 32.918 67.026 32.7617 67.0391C32.6888 67.0391 32.625 67.0156 32.5703 66.9688C32.5182 66.9193 32.4922 66.8581 32.4922 66.7852V66.6133V66.0742C32.487 65.9935 32.4557 65.9271 32.3984 65.875C32.3438 65.8203 32.2812 65.7773 32.2109 65.7461C32.1432 65.7148 32.0716 65.6914 31.9961 65.6758C31.9232 65.6602 31.849 65.6523 31.7734 65.6523C31.6979 65.6523 31.6224 65.6602 31.5469 65.6758C31.474 65.6914 31.4023 65.7148 31.332 65.7461C31.2643 65.7773 31.2018 65.8203 31.1445 65.875C31.0898 65.9271 31.0599 65.9935 31.0547 66.0742V66.6133V66.7852C31.0417 66.9414 30.957 67.026 30.8008 67.0391C30.7279 67.0391 30.6641 67.0156 30.6094 66.9688C30.5573 66.9193 30.5312 66.8581 30.5312 66.7852V66.1172V65.9531C30.5391 65.8125 30.5885 65.6914 30.6797 65.5898C30.7708 65.4883 30.8763 65.4076 30.9961 65.3477C31.1159 65.2852 31.2409 65.2383 31.3711 65.207C31.5039 65.1758 31.638 65.1602 31.7734 65.1602ZM35.707 65.8438C35.707 65.7786 35.6732 65.7448 35.6055 65.7422H34.2383C34.1888 65.7448 34.1458 65.7669 34.1094 65.8086C34.0729 65.8477 34.0456 65.8945 34.0273 65.9492C34.0117 66.0013 34.0039 66.0547 34.0039 66.1094C34.0039 66.1615 34.0117 66.2148 34.0273 66.2695C34.0456 66.3216 34.0729 66.3685 34.1094 66.4102C34.1458 66.4492 34.1888 66.4688 34.2383 66.4688H35.2383C35.3112 66.4688 35.3724 66.4948 35.4219 66.5469C35.474 66.5964 35.5 66.6576 35.5 66.7305C35.5 66.8034 35.474 66.8646 35.4219 66.9141C35.3724 66.9661 35.3112 66.9922 35.2383 66.9922H34.2539C34.0716 66.9896 33.9206 66.9388 33.8008 66.8398C33.6836 66.7383 33.599 66.625 33.5469 66.5C33.4974 66.3724 33.4727 66.2409 33.4727 66.1055C33.4727 65.9753 33.4987 65.8477 33.5508 65.7227C33.6029 65.5951 33.6875 65.4818 33.8047 65.3828C33.9219 65.2812 34.0951 65.2266 34.3242 65.2188H35.9648C36.0378 65.2188 36.1003 65.2435 36.1523 65.293C36.2044 65.3398 36.2318 65.3997 36.2344 65.4727V66.707C36.2344 66.9154 36.2057 67.112 36.1484 67.2969C36.0964 67.4609 36.0104 67.599 35.8906 67.7109C35.7734 67.8255 35.6237 67.888 35.4414 67.8984H34.0898C34.0195 67.8958 33.9596 67.8698 33.9102 67.8203C33.8633 67.7734 33.8385 67.7148 33.8359 67.6445C33.8359 67.5716 33.8594 67.5091 33.9062 67.457C33.9557 67.4049 34.0169 67.3776 34.0898 67.375H35.3086C35.4076 67.3698 35.4896 67.332 35.5547 67.2617C35.6198 67.1914 35.6615 67.1094 35.6797 67.0156C35.6979 66.9219 35.707 66.8008 35.707 66.6523V65.8438ZM39.0312 65.1797C39.1016 65.1823 39.1615 65.2083 39.2109 65.2578C39.2604 65.3047 39.2865 65.3633 39.2891 65.4336V66.7852C39.2734 66.9414 39.1875 67.026 39.0312 67.0391C38.9583 67.0391 38.8945 67.0156 38.8398 66.9688C38.7878 66.9193 38.7617 66.8581 38.7617 66.7852V65.4336C38.7643 65.3607 38.7917 65.3008 38.8438 65.2539C38.8958 65.2044 38.9583 65.1797 39.0312 65.1797ZM38.7031 64.6719C38.7031 64.599 38.7344 64.5365 38.7969 64.4844C38.8594 64.4323 38.9349 64.4062 39.0234 64.4062C39.112 64.4062 39.1875 64.4323 39.25 64.4844C39.3125 64.5365 39.3438 64.599 39.3438 64.6719C39.3438 64.7474 39.3125 64.8112 39.25 64.8633C39.1875 64.9154 39.112 64.9414 39.0234 64.9414C38.9349 64.9414 38.8594 64.9154 38.7969 64.8633C38.7344 64.8112 38.7031 64.7474 38.7031 64.6719ZM41.0117 65.1602C41.1471 65.1602 41.2799 65.1758 41.4102 65.207C41.543 65.2383 41.6693 65.2852 41.7891 65.3477C41.9089 65.4076 42.0143 65.4883 42.1055 65.5898C42.1992 65.6914 42.25 65.8125 42.2578 65.9531V66.1172V66.7852C42.2422 66.9414 42.1562 67.026 42 67.0391C41.9271 67.0391 41.8633 67.0156 41.8086 66.9688C41.7565 66.9193 41.7305 66.8581 41.7305 66.7852V66.6133V66.0742C41.7253 65.9935 41.694 65.9271 41.6367 65.875C41.582 65.8203 41.5195 65.7773 41.4492 65.7461C41.3815 65.7148 41.3099 65.6914 41.2344 65.6758C41.1615 65.6602 41.0872 65.6523 41.0117 65.6523C40.9362 65.6523 40.8607 65.6602 40.7852 65.6758C40.7122 65.6914 40.6406 65.7148 40.5703 65.7461C40.5026 65.7773 40.4401 65.8203 40.3828 65.875C40.3281 65.9271 40.2982 65.9935 40.293 66.0742V66.6133V66.7852C40.2799 66.9414 40.1953 67.026 40.0391 67.0391C39.9661 67.0391 39.9023 67.0156 39.8477 66.9688C39.7956 66.9193 39.7695 66.8581 39.7695 66.7852V66.1172V65.9531C39.7773 65.8125 39.8268 65.6914 39.918 65.5898C40.0091 65.4883 40.1146 65.4076 40.2344 65.3477C40.3542 65.2852 40.4792 65.2383 40.6094 65.207C40.7422 65.1758 40.8763 65.1602 41.0117 65.1602ZM44.7812 66.7227C44.7812 66.6497 44.8073 66.5885 44.8594 66.5391C44.9089 66.487 44.9701 66.4609 45.043 66.4609H46.6445C46.694 66.4583 46.7344 66.4466 46.7656 66.4258C46.7995 66.4049 46.8242 66.3815 46.8398 66.3555C46.8555 66.3294 46.8633 66.3021 46.8633 66.2734C46.8633 66.2448 46.8555 66.2174 46.8398 66.1914C46.8242 66.1654 46.7995 66.1419 46.7656 66.1211C46.7344 66.1003 46.694 66.0885 46.6445 66.0859H45.5352C45.3529 66.0807 45.2018 66.0391 45.082 65.9609C44.9648 65.8802 44.8802 65.7891 44.8281 65.6875C44.7786 65.5833 44.7539 65.4779 44.7539 65.3711V65.1016C44.7565 64.9688 44.7956 64.8672 44.8711 64.7969C44.9492 64.724 45.0612 64.6875 45.207 64.6875H47.1211C47.194 64.6875 47.2552 64.7135 47.3047 64.7656C47.3568 64.8151 47.3828 64.8763 47.3828 64.9492C47.3828 65.0221 47.3568 65.0833 47.3047 65.1328C47.2552 65.1849 47.194 65.2109 47.1211 65.2109H45.418C45.3685 65.2083 45.3346 65.2161 45.3164 65.2344C45.3008 65.2526 45.293 65.2786 45.293 65.3125V65.3711C45.293 65.3893 45.3008 65.4154 45.3164 65.4492C45.332 65.4805 45.3555 65.5065 45.3867 65.5273C45.4206 65.5482 45.4622 65.5599 45.5117 65.5625H46.6211C46.8034 65.5651 46.9531 65.6068 47.0703 65.6875C47.1901 65.7656 47.2747 65.8568 47.3242 65.9609C47.3763 66.0625 47.4023 66.1667 47.4023 66.2734C47.4023 66.375 47.3763 66.4779 47.3242 66.582C47.2721 66.6836 47.1875 66.7747 47.0703 66.8555C46.9531 66.9336 46.8034 66.9753 46.6211 66.9805H46.5977C46.582 66.9831 46.5664 66.9844 46.5508 66.9844H45.043C44.9701 66.9844 44.9076 66.9596 44.8555 66.9102C44.806 66.8581 44.7812 66.7956 44.7812 66.7227ZM49.8125 64.6875C49.9453 64.6901 50.0638 64.7318 50.168 64.8125C50.2721 64.8932 50.3555 64.9896 50.418 65.1016C50.4831 65.2135 50.5312 65.332 50.5625 65.457C50.5938 65.582 50.6094 65.7096 50.6094 65.8398C50.6094 66.0117 50.582 66.181 50.5273 66.3477C50.4753 66.5117 50.388 66.6576 50.2656 66.7852C50.1458 66.9128 49.9948 66.9818 49.8125 66.9922H48.5742C48.3919 66.9844 48.2396 66.9167 48.1172 66.7891C47.9948 66.6615 47.9076 66.5143 47.8555 66.3477C47.806 66.181 47.7812 66.0117 47.7812 65.8398C47.7812 65.668 47.8073 65.5 47.8594 65.3359C47.9115 65.1693 47.9974 65.0221 48.1172 64.8945C48.2396 64.7643 48.3919 64.6953 48.5742 64.6875H48.6484H49.7383H49.8125ZM49.6797 66.4688C49.7786 66.4635 49.8607 66.4271 49.9258 66.3594C49.9935 66.2891 50.0417 66.2083 50.0703 66.1172C50.099 66.026 50.1133 65.9336 50.1133 65.8398C50.1133 65.7461 50.0977 65.6549 50.0664 65.5664C50.0378 65.4753 49.9909 65.3945 49.9258 65.3242C49.8607 65.2539 49.7786 65.2161 49.6797 65.2109H48.6953C48.5964 65.2161 48.5143 65.2539 48.4492 65.3242C48.3841 65.3945 48.3359 65.4753 48.3047 65.5664C48.276 65.6549 48.2617 65.7461 48.2617 65.8398C48.2617 65.9336 48.276 66.026 48.3047 66.1172C48.3333 66.2083 48.3802 66.2891 48.4453 66.3594C48.513 66.4271 48.5964 66.4635 48.6953 66.4688H49.6797ZM55.1953 65.8438C55.1953 65.7786 55.1615 65.7448 55.0938 65.7422H53.7266C53.6771 65.7448 53.6341 65.7669 53.5977 65.8086C53.5612 65.8477 53.5339 65.8945 53.5156 65.9492C53.5 66.0013 53.4922 66.0547 53.4922 66.1094C53.4922 66.1615 53.5 66.2148 53.5156 66.2695C53.5339 66.3216 53.5612 66.3685 53.5977 66.4102C53.6341 66.4492 53.6771 66.4688 53.7266 66.4688H54.7266C54.7995 66.4688 54.8607 66.4948 54.9102 66.5469C54.9622 66.5964 54.9883 66.6576 54.9883 66.7305C54.9883 66.8034 54.9622 66.8646 54.9102 66.9141C54.8607 66.9661 54.7995 66.9922 54.7266 66.9922H53.7422C53.5599 66.9896 53.4089 66.9388 53.2891 66.8398C53.1719 66.7383 53.0872 66.625 53.0352 66.5C52.9857 66.3724 52.9609 66.2409 52.9609 66.1055C52.9609 65.9753 52.987 65.8477 53.0391 65.7227C53.0911 65.5951 53.1758 65.4818 53.293 65.3828C53.4102 65.2812 53.5833 65.2266 53.8125 65.2188H55.4531C55.526 65.2188 55.5885 65.2435 55.6406 65.293C55.6927 65.3398 55.7201 65.3997 55.7227 65.4727V66.707C55.7227 66.9154 55.694 67.112 55.6367 67.2969C55.5846 67.4609 55.4987 67.599 55.3789 67.7109C55.2617 67.8255 55.112 67.888 54.9297 67.8984H53.5781C53.5078 67.8958 53.4479 67.8698 53.3984 67.8203C53.3516 67.7734 53.3268 67.7148 53.3242 67.6445C53.3242 67.5716 53.3477 67.5091 53.3945 67.457C53.444 67.4049 53.5052 67.3776 53.5781 67.375H54.7969C54.8958 67.3698 54.9779 67.332 55.043 67.2617C55.1081 67.1914 55.1497 67.1094 55.168 67.0156C55.1862 66.9219 55.1953 66.8008 55.1953 66.6523V65.8438ZM58.4336 66.7852V65.8438C58.4336 65.7786 58.3997 65.7448 58.332 65.7422H56.9648C56.9154 65.7448 56.8724 65.7669 56.8359 65.8086C56.7995 65.8477 56.7721 65.8945 56.7539 65.9492C56.7383 66.0013 56.7305 66.0547 56.7305 66.1094C56.7305 66.1615 56.7383 66.2148 56.7539 66.2695C56.7721 66.3216 56.7995 66.3685 56.8359 66.4102C56.8724 66.4492 56.9154 66.4688 56.9648 66.4688H57.9648C58.0378 66.4688 58.099 66.4948 58.1484 66.5469C58.2005 66.5964 58.2266 66.6576 58.2266 66.7305C58.2266 66.8034 58.2005 66.8646 58.1484 66.9141C58.099 66.9661 58.0378 66.9922 57.9648 66.9922H56.9805C56.7982 66.9896 56.6471 66.9388 56.5273 66.8398C56.4102 66.7383 56.3255 66.625 56.2734 66.5C56.224 66.3724 56.1992 66.2409 56.1992 66.1055C56.1992 65.9753 56.2253 65.8477 56.2773 65.7227C56.3294 65.5951 56.4141 65.4818 56.5312 65.3828C56.6484 65.2812 56.8216 65.2266 57.0508 65.2188H58.6914C58.7643 65.2188 58.8268 65.2435 58.8789 65.293C58.931 65.3398 58.9583 65.3997 58.9609 65.4727V66.7852C58.9609 66.8581 58.9336 66.9193 58.8789 66.9688C58.8268 67.0156 58.7643 67.0391 58.6914 67.0391C58.5352 67.026 58.4492 66.9414 58.4336 66.7852ZM60.293 65.1602C60.3841 65.1602 60.4727 65.1758 60.5586 65.207C60.6471 65.2383 60.7318 65.2839 60.8125 65.3438C60.8255 65.3568 60.8398 65.3698 60.8555 65.3828C60.8685 65.3698 60.8828 65.3568 60.8984 65.3438C60.9792 65.2839 61.0625 65.2383 61.1484 65.207C61.237 65.1758 61.3255 65.1602 61.4141 65.1602C61.5052 65.1602 61.5938 65.1758 61.6797 65.207C61.7682 65.2383 61.8516 65.2852 61.9297 65.3477C62.0104 65.4076 62.0807 65.4883 62.1406 65.5898C62.2031 65.6914 62.2344 65.8125 62.2344 65.9531V66.7852C62.2188 66.9414 62.1328 67.026 61.9766 67.0391C61.9036 67.0391 61.8398 67.0156 61.7852 66.9688C61.7331 66.9193 61.707 66.8581 61.707 66.7852V65.9844C61.707 65.9219 61.6953 65.8698 61.6719 65.8281C61.6484 65.7839 61.6224 65.75 61.5938 65.7266C61.5651 65.7005 61.5352 65.6823 61.5039 65.6719C61.4727 65.6589 61.4414 65.6523 61.4102 65.6523C61.3789 65.6523 61.3477 65.6589 61.3164 65.6719C61.2878 65.6823 61.2591 65.7005 61.2305 65.7266C61.2018 65.75 61.1758 65.7839 61.1523 65.8281C61.1289 65.8698 61.1159 65.9219 61.1133 65.9844V66.7852C61.0977 66.9414 61.0117 67.026 60.8555 67.0391C60.7826 67.0391 60.7188 67.0156 60.6641 66.9688C60.612 66.9193 60.5859 66.8581 60.5859 66.7852V65.9844C60.5859 65.9219 60.5742 65.8698 60.5508 65.8281C60.5273 65.7839 60.5013 65.75 60.4727 65.7266C60.444 65.7005 60.4141 65.6823 60.3828 65.6719C60.3516 65.6589 60.3203 65.6523 60.2891 65.6523C60.2578 65.6523 60.2266 65.6589 60.1953 65.6719C60.1667 65.6823 60.138 65.7005 60.1094 65.7266C60.0807 65.75 60.0547 65.7839 60.0312 65.8281C60.0078 65.8698 59.9948 65.9219 59.9922 65.9844V66.7852C59.9792 66.9414 59.8945 67.026 59.7383 67.0391C59.6654 67.0391 59.6016 67.0156 59.5469 66.9688C59.4948 66.9193 59.4688 66.8581 59.4688 66.7852V65.9531C59.474 65.8125 59.5065 65.6914 59.5664 65.5898C59.6263 65.4883 59.6966 65.4076 59.7773 65.3477C59.8581 65.2852 59.9414 65.2383 60.0273 65.207C60.1159 65.1758 60.2044 65.1602 60.293 65.1602ZM63.5195 66.9922C63.2904 66.9844 63.1172 66.931 63 66.832C62.8828 66.7305 62.7982 66.6172 62.7461 66.4922C62.694 66.3646 62.668 66.2357 62.668 66.1055C62.668 65.9701 62.6927 65.8398 62.7422 65.7148C62.7943 65.5872 62.8789 65.474 62.9961 65.375C63.1159 65.2734 63.2669 65.2214 63.4492 65.2188H64.9336C65.0065 65.2188 65.0677 65.2435 65.1172 65.293C65.1693 65.3398 65.1953 65.3971 65.1953 65.4648C65.1953 65.5352 65.1693 65.5951 65.1172 65.6445C65.0677 65.6914 65.0065 65.7148 64.9336 65.7148H63.4727C63.4154 65.7148 63.3646 65.7344 63.3203 65.7734C63.2786 65.8125 63.2474 65.8633 63.2266 65.9258C63.2083 65.9883 63.1992 66.0495 63.1992 66.1094C63.1992 66.1745 63.2083 66.2383 63.2266 66.3008C63.2474 66.3633 63.2786 66.4141 63.3203 66.4531C63.3646 66.4896 63.4154 66.5091 63.4727 66.5117H64.9336C65.0065 66.5117 65.0677 66.5352 65.1172 66.582C65.1693 66.6289 65.1953 66.6849 65.1953 66.75C65.1953 66.8177 65.1693 66.875 65.1172 66.9219C65.0677 66.9688 65.0065 66.9922 64.9336 66.9922H63.5195ZM65.1484 66.0977C65.1484 66.1471 65.1263 66.1901 65.082 66.2266C65.043 66.2604 64.9935 66.2773 64.9336 66.2773H63.6562C63.5964 66.2773 63.5456 66.2604 63.5039 66.2266C63.4622 66.1901 63.4414 66.1471 63.4414 66.0977C63.4414 66.0508 63.4622 66.0091 63.5039 65.9727C63.5456 65.9388 63.5964 65.9219 63.6562 65.9219H64.9336C64.9935 65.9219 65.0443 65.9401 65.0859 65.9766C65.1276 66.0104 65.1484 66.0508 65.1484 66.0977ZM67.9141 65.1797C67.9844 65.1823 68.0443 65.2083 68.0938 65.2578C68.1432 65.3047 68.1693 65.3633 68.1719 65.4336V66.7852C68.1562 66.9414 68.0703 67.026 67.9141 67.0391C67.8411 67.0391 67.7773 67.0156 67.7227 66.9688C67.6706 66.9193 67.6445 66.8581 67.6445 66.7852V65.4336C67.6471 65.3607 67.6745 65.3008 67.7266 65.2539C67.7786 65.2044 67.8411 65.1797 67.9141 65.1797ZM67.5859 64.6719C67.5859 64.599 67.6172 64.5365 67.6797 64.4844C67.7422 64.4323 67.8177 64.4062 67.9062 64.4062C67.9948 64.4062 68.0703 64.4323 68.1328 64.4844C68.1953 64.5365 68.2266 64.599 68.2266 64.6719C68.2266 64.7474 68.1953 64.8112 68.1328 64.8633C68.0703 64.9154 67.9948 64.9414 67.9062 64.9414C67.8177 64.9414 67.7422 64.9154 67.6797 64.8633C67.6172 64.8112 67.5859 64.7474 67.5859 64.6719ZM69.8945 65.1602C70.0299 65.1602 70.1628 65.1758 70.293 65.207C70.4258 65.2383 70.5521 65.2852 70.6719 65.3477C70.7917 65.4076 70.8971 65.4883 70.9883 65.5898C71.082 65.6914 71.1328 65.8125 71.1406 65.9531V66.1172V66.7852C71.125 66.9414 71.0391 67.026 70.8828 67.0391C70.8099 67.0391 70.7461 67.0156 70.6914 66.9688C70.6393 66.9193 70.6133 66.8581 70.6133 66.7852V66.6133V66.0742C70.6081 65.9935 70.5768 65.9271 70.5195 65.875C70.4648 65.8203 70.4023 65.7773 70.332 65.7461C70.2643 65.7148 70.1927 65.6914 70.1172 65.6758C70.0443 65.6602 69.9701 65.6523 69.8945 65.6523C69.819 65.6523 69.7435 65.6602 69.668 65.6758C69.5951 65.6914 69.5234 65.7148 69.4531 65.7461C69.3854 65.7773 69.3229 65.8203 69.2656 65.875C69.2109 65.9271 69.181 65.9935 69.1758 66.0742V66.6133V66.7852C69.1628 66.9414 69.0781 67.026 68.9219 67.0391C68.849 67.0391 68.7852 67.0156 68.7305 66.9688C68.6784 66.9193 68.6523 66.8581 68.6523 66.7852V66.1172V65.9531C68.6602 65.8125 68.7096 65.6914 68.8008 65.5898C68.8919 65.4883 68.9974 65.4076 69.1172 65.3477C69.237 65.2852 69.362 65.2383 69.4922 65.207C69.625 65.1758 69.7591 65.1602 69.8945 65.1602ZM23.0938 68.625C23.1667 68.625 23.2292 68.6497 23.2812 68.6992C23.3333 68.7461 23.3607 68.806 23.3633 68.8789V69.2188H24.6914C24.7643 69.2188 24.8268 69.2435 24.8789 69.293C24.9284 69.3451 24.9531 69.4076 24.9531 69.4805C24.9531 69.5534 24.9271 69.6159 24.875 69.668C24.8255 69.7174 24.7643 69.7422 24.6914 69.7422H23.3633V69.8203C23.3607 69.9271 23.3672 70.026 23.3828 70.1172C23.401 70.2057 23.4427 70.2852 23.5078 70.3555C23.5729 70.4258 23.6549 70.4635 23.7539 70.4688H24.707C24.7799 70.4714 24.8398 70.4987 24.8867 70.5508C24.9362 70.6029 24.9609 70.6654 24.9609 70.7383C24.9583 70.8086 24.9323 70.8685 24.8828 70.918C24.8359 70.9648 24.7773 70.9896 24.707 70.9922H23.6211C23.4388 70.9818 23.2878 70.9206 23.168 70.8086C23.0508 70.694 22.9661 70.5547 22.9141 70.3906C22.8646 70.2266 22.8385 70.0521 22.8359 69.8672V69.7422H22.3867C22.3138 69.7422 22.2526 69.7161 22.2031 69.6641C22.151 69.6146 22.125 69.5534 22.125 69.4805C22.125 69.4076 22.1497 69.3464 22.1992 69.2969C22.2513 69.2448 22.3138 69.2188 22.3867 69.2188H22.8359V68.8789C22.8385 68.8086 22.8646 68.75 22.9141 68.7031C22.9635 68.6536 23.0234 68.6276 23.0938 68.625ZM25.6055 68.625C25.6758 68.6276 25.7357 68.6536 25.7852 68.7031C25.8346 68.75 25.8607 68.8086 25.8633 68.8789V69.2188H27.0742C27.2565 69.2214 27.4062 69.2734 27.5234 69.375C27.6432 69.474 27.7279 69.5859 27.7773 69.7109C27.8294 69.8385 27.8555 69.9701 27.8555 70.1055H27.8594V70.7852C27.8594 70.8581 27.832 70.9193 27.7773 70.9688C27.7253 71.0156 27.6628 71.0391 27.5898 71.0391C27.4336 71.026 27.3477 70.9414 27.332 70.7852V70.1016C27.332 70.0521 27.3216 70 27.3008 69.9453C27.2826 69.8906 27.2552 69.8438 27.2188 69.8047C27.1823 69.763 27.1393 69.7422 27.0898 69.7422H25.8633V70.793C25.8477 70.9492 25.7617 71.0339 25.6055 71.0469C25.5326 71.0469 25.4688 71.0234 25.4141 70.9766C25.362 70.9271 25.3359 70.8659 25.3359 70.793V68.8789C25.3385 68.806 25.3659 68.7461 25.418 68.6992C25.4701 68.6497 25.5326 68.625 25.6055 68.625ZM29.1523 70.9922C28.9232 70.9844 28.75 70.931 28.6328 70.832C28.5156 70.7305 28.431 70.6172 28.3789 70.4922C28.3268 70.3646 28.3008 70.2357 28.3008 70.1055C28.3008 69.9701 28.3255 69.8398 28.375 69.7148C28.4271 69.5872 28.5117 69.474 28.6289 69.375C28.7487 69.2734 28.8997 69.2214 29.082 69.2188H30.5664C30.6393 69.2188 30.7005 69.2435 30.75 69.293C30.8021 69.3398 30.8281 69.3971 30.8281 69.4648C30.8281 69.5352 30.8021 69.5951 30.75 69.6445C30.7005 69.6914 30.6393 69.7148 30.5664 69.7148H29.1055C29.0482 69.7148 28.9974 69.7344 28.9531 69.7734C28.9115 69.8125 28.8802 69.8633 28.8594 69.9258C28.8411 69.9883 28.832 70.0495 28.832 70.1094C28.832 70.1745 28.8411 70.2383 28.8594 70.3008C28.8802 70.3633 28.9115 70.4141 28.9531 70.4531C28.9974 70.4896 29.0482 70.5091 29.1055 70.5117H30.5664C30.6393 70.5117 30.7005 70.5352 30.75 70.582C30.8021 70.6289 30.8281 70.6849 30.8281 70.75C30.8281 70.8177 30.8021 70.875 30.75 70.9219C30.7005 70.9688 30.6393 70.9922 30.5664 70.9922H29.1523ZM30.7812 70.0977C30.7812 70.1471 30.7591 70.1901 30.7148 70.2266C30.6758 70.2604 30.6263 70.2773 30.5664 70.2773H29.2891C29.2292 70.2773 29.1784 70.2604 29.1367 70.2266C29.0951 70.1901 29.0742 70.1471 29.0742 70.0977C29.0742 70.0508 29.0951 70.0091 29.1367 69.9727C29.1784 69.9388 29.2292 69.9219 29.2891 69.9219H30.5664C30.6263 69.9219 30.6771 69.9401 30.7188 69.9766C30.7604 70.0104 30.7812 70.0508 30.7812 70.0977ZM33.3594 69.7109C33.4089 69.5859 33.4922 69.474 33.6094 69.375C33.7292 69.2734 33.8802 69.2214 34.0625 69.2188H35.5312C35.6042 69.2188 35.6654 69.2448 35.7148 69.2969C35.7669 69.3464 35.793 69.4076 35.793 69.4805C35.793 69.5534 35.7669 69.6159 35.7148 69.668C35.6654 69.7174 35.6042 69.7422 35.5312 69.7422H34.0469C33.9974 69.7422 33.9544 69.763 33.918 69.8047C33.8815 69.8438 33.8529 69.8906 33.832 69.9453C33.8138 70 33.8047 70.0521 33.8047 70.1016V70.7852C33.7891 70.9414 33.7031 71.026 33.5469 71.0391C33.474 71.0391 33.4102 71.0156 33.3555 70.9688C33.3034 70.9193 33.2773 70.8581 33.2773 70.7852V70.1055H33.2812C33.2812 69.9701 33.3073 69.8385 33.3594 69.7109ZM38.3633 70.7852V69.8438C38.3633 69.7786 38.3294 69.7448 38.2617 69.7422H36.8945C36.8451 69.7448 36.8021 69.7669 36.7656 69.8086C36.7292 69.8477 36.7018 69.8945 36.6836 69.9492C36.668 70.0013 36.6602 70.0547 36.6602 70.1094C36.6602 70.1615 36.668 70.2148 36.6836 70.2695C36.7018 70.3216 36.7292 70.3685 36.7656 70.4102C36.8021 70.4492 36.8451 70.4688 36.8945 70.4688H37.8945C37.9674 70.4688 38.0286 70.4948 38.0781 70.5469C38.1302 70.5964 38.1562 70.6576 38.1562 70.7305C38.1562 70.8034 38.1302 70.8646 38.0781 70.9141C38.0286 70.9661 37.9674 70.9922 37.8945 70.9922H36.9102C36.7279 70.9896 36.5768 70.9388 36.457 70.8398C36.3398 70.7383 36.2552 70.625 36.2031 70.5C36.1536 70.3724 36.1289 70.2409 36.1289 70.1055C36.1289 69.9753 36.1549 69.8477 36.207 69.7227C36.2591 69.5951 36.3438 69.4818 36.4609 69.3828C36.5781 69.2812 36.7513 69.2266 36.9805 69.2188H38.6211C38.694 69.2188 38.7565 69.2435 38.8086 69.293C38.8607 69.3398 38.888 69.3997 38.8906 69.4727V70.7852C38.8906 70.8581 38.8633 70.9193 38.8086 70.9688C38.7565 71.0156 38.694 71.0391 38.6211 71.0391C38.4648 71.026 38.3789 70.9414 38.3633 70.7852ZM40.6406 69.1602C40.776 69.1602 40.9089 69.1758 41.0391 69.207C41.1719 69.2383 41.2982 69.2852 41.418 69.3477C41.5378 69.4076 41.6432 69.4883 41.7344 69.5898C41.8281 69.6914 41.8789 69.8125 41.8867 69.9531V70.1172V70.7852C41.8711 70.9414 41.7852 71.026 41.6289 71.0391C41.556 71.0391 41.4922 71.0156 41.4375 70.9688C41.3854 70.9193 41.3594 70.8581 41.3594 70.7852V70.6133V70.0742C41.3542 69.9935 41.3229 69.9271 41.2656 69.875C41.2109 69.8203 41.1484 69.7773 41.0781 69.7461C41.0104 69.7148 40.9388 69.6914 40.8633 69.6758C40.7904 69.6602 40.7161 69.6523 40.6406 69.6523C40.5651 69.6523 40.4896 69.6602 40.4141 69.6758C40.3411 69.6914 40.2695 69.7148 40.1992 69.7461C40.1315 69.7773 40.069 69.8203 40.0117 69.875C39.957 69.9271 39.9271 69.9935 39.9219 70.0742V70.6133V70.7852C39.9089 70.9414 39.8242 71.026 39.668 71.0391C39.5951 71.0391 39.5312 71.0156 39.4766 70.9688C39.4245 70.9193 39.3984 70.8581 39.3984 70.7852V70.1172V69.9531C39.4062 69.8125 39.4557 69.6914 39.5469 69.5898C39.638 69.4883 39.7435 69.4076 39.8633 69.3477C39.9831 69.2852 40.1081 69.2383 40.2383 69.207C40.3711 69.1758 40.5052 69.1602 40.6406 69.1602ZM44.5586 68.8789C44.5742 68.7227 44.6602 68.638 44.8164 68.625C44.8893 68.625 44.9518 68.6497 45.0039 68.6992C45.0586 68.7461 45.0859 68.806 45.0859 68.8789V70.7383C45.0833 70.8112 45.056 70.8724 45.0039 70.9219C44.9518 70.9688 44.8893 70.9922 44.8164 70.9922H43.1758C42.9466 70.9844 42.7734 70.931 42.6562 70.832C42.5391 70.7305 42.4544 70.6172 42.4023 70.4922C42.3503 70.3646 42.3242 70.2357 42.3242 70.1055C42.3242 69.9701 42.349 69.8398 42.3984 69.7148C42.4505 69.5872 42.5352 69.474 42.6523 69.375C42.7721 69.2734 42.9232 69.2214 43.1055 69.2188H44.0898C44.1628 69.2188 44.224 69.2448 44.2734 69.2969C44.3255 69.3464 44.3516 69.4076 44.3516 69.4805C44.3516 69.5534 44.3255 69.6159 44.2734 69.668C44.224 69.7174 44.1628 69.7422 44.0898 69.7422H43.0898C43.0404 69.7422 42.9974 69.763 42.9609 69.8047C42.9245 69.8438 42.8971 69.8906 42.8789 69.9453C42.8633 69.9974 42.8555 70.0495 42.8555 70.1016C42.8555 70.1562 42.8633 70.2109 42.8789 70.2656C42.8971 70.3177 42.9245 70.3646 42.9609 70.4062C42.9974 70.4453 43.0404 70.4661 43.0898 70.4688H44.457C44.5247 70.4661 44.5586 70.4323 44.5586 70.3672V68.8789ZM46.4102 70.9922C46.181 70.9844 46.0078 70.931 45.8906 70.832C45.7734 70.7305 45.6888 70.6172 45.6367 70.4922C45.5846 70.3646 45.5586 70.2357 45.5586 70.1055C45.5586 69.9701 45.5833 69.8398 45.6328 69.7148C45.6849 69.5872 45.7695 69.474 45.8867 69.375C46.0065 69.2734 46.1576 69.2214 46.3398 69.2188H47.6055C47.7878 69.2214 47.9375 69.2734 48.0547 69.375C48.1745 69.474 48.2591 69.5872 48.3086 69.7148C48.3607 69.8398 48.3867 69.9701 48.3867 70.1055C48.3867 70.2357 48.3607 70.3646 48.3086 70.4922C48.2565 70.6172 48.1719 70.7305 48.0547 70.832C47.9375 70.931 47.7643 70.9844 47.5352 70.9922H46.4102ZM46.3242 69.7422C46.2747 69.7422 46.2318 69.763 46.1953 69.8047C46.1589 69.8438 46.1315 69.8906 46.1133 69.9453C46.0977 69.9974 46.0898 70.0495 46.0898 70.1016C46.0898 70.1562 46.0977 70.2109 46.1133 70.2656C46.1315 70.3177 46.1589 70.3646 46.1953 70.4062C46.2318 70.4453 46.2747 70.4661 46.3242 70.4688H47.6211C47.6706 70.4661 47.7135 70.4453 47.75 70.4062C47.7865 70.3646 47.8125 70.3177 47.8281 70.2656C47.8464 70.2109 47.8555 70.1562 47.8555 70.1016C47.8555 70.0495 47.8464 69.9974 47.8281 69.9453C47.8125 69.8906 47.7865 69.8438 47.75 69.8047C47.7135 69.763 47.6706 69.7422 47.6211 69.7422H46.3242ZM49.6641 69.1602C49.7552 69.1602 49.8438 69.1758 49.9297 69.207C50.0182 69.2383 50.1029 69.2839 50.1836 69.3438C50.1966 69.3568 50.2109 69.3698 50.2266 69.3828C50.2396 69.3698 50.2539 69.3568 50.2695 69.3438C50.3503 69.2839 50.4336 69.2383 50.5195 69.207C50.6081 69.1758 50.6966 69.1602 50.7852 69.1602C50.8763 69.1602 50.9648 69.1758 51.0508 69.207C51.1393 69.2383 51.2227 69.2852 51.3008 69.3477C51.3815 69.4076 51.4518 69.4883 51.5117 69.5898C51.5742 69.6914 51.6055 69.8125 51.6055 69.9531V70.7852C51.5898 70.9414 51.5039 71.026 51.3477 71.0391C51.2747 71.0391 51.2109 71.0156 51.1562 70.9688C51.1042 70.9193 51.0781 70.8581 51.0781 70.7852V69.9844C51.0781 69.9219 51.0664 69.8698 51.043 69.8281C51.0195 69.7839 50.9935 69.75 50.9648 69.7266C50.9362 69.7005 50.9062 69.6823 50.875 69.6719C50.8438 69.6589 50.8125 69.6523 50.7812 69.6523C50.75 69.6523 50.7188 69.6589 50.6875 69.6719C50.6589 69.6823 50.6302 69.7005 50.6016 69.7266C50.5729 69.75 50.5469 69.7839 50.5234 69.8281C50.5 69.8698 50.487 69.9219 50.4844 69.9844V70.7852C50.4688 70.9414 50.3828 71.026 50.2266 71.0391C50.1536 71.0391 50.0898 71.0156 50.0352 70.9688C49.9831 70.9193 49.957 70.8581 49.957 70.7852V69.9844C49.957 69.9219 49.9453 69.8698 49.9219 69.8281C49.8984 69.7839 49.8724 69.75 49.8438 69.7266C49.8151 69.7005 49.7852 69.6823 49.7539 69.6719C49.7227 69.6589 49.6914 69.6523 49.6602 69.6523C49.6289 69.6523 49.5977 69.6589 49.5664 69.6719C49.5378 69.6823 49.5091 69.7005 49.4805 69.7266C49.4518 69.75 49.4258 69.7839 49.4023 69.8281C49.3789 69.8698 49.3659 69.9219 49.3633 69.9844V70.7852C49.3503 70.9414 49.2656 71.026 49.1094 71.0391C49.0365 71.0391 48.9727 71.0156 48.918 70.9688C48.8659 70.9193 48.8398 70.8581 48.8398 70.7852V69.9531C48.8451 69.8125 48.8776 69.6914 48.9375 69.5898C48.9974 69.4883 49.0677 69.4076 49.1484 69.3477C49.2292 69.2852 49.3125 69.2383 49.3984 69.207C49.487 69.1758 49.5755 69.1602 49.6641 69.1602ZM54.918 69.1602C55.0091 69.1602 55.0977 69.1758 55.1836 69.207C55.2721 69.2383 55.3568 69.2839 55.4375 69.3438C55.4505 69.3568 55.4648 69.3698 55.4805 69.3828C55.4935 69.3698 55.5078 69.3568 55.5234 69.3438C55.6042 69.2839 55.6875 69.2383 55.7734 69.207C55.862 69.1758 55.9505 69.1602 56.0391 69.1602C56.1302 69.1602 56.2188 69.1758 56.3047 69.207C56.3932 69.2383 56.4766 69.2852 56.5547 69.3477C56.6354 69.4076 56.7057 69.4883 56.7656 69.5898C56.8281 69.6914 56.8594 69.8125 56.8594 69.9531V70.7852C56.8438 70.9414 56.7578 71.026 56.6016 71.0391C56.5286 71.0391 56.4648 71.0156 56.4102 70.9688C56.3581 70.9193 56.332 70.8581 56.332 70.7852V69.9844C56.332 69.9219 56.3203 69.8698 56.2969 69.8281C56.2734 69.7839 56.2474 69.75 56.2188 69.7266C56.1901 69.7005 56.1602 69.6823 56.1289 69.6719C56.0977 69.6589 56.0664 69.6523 56.0352 69.6523C56.0039 69.6523 55.9727 69.6589 55.9414 69.6719C55.9128 69.6823 55.8841 69.7005 55.8555 69.7266C55.8268 69.75 55.8008 69.7839 55.7773 69.8281C55.7539 69.8698 55.7409 69.9219 55.7383 69.9844V70.7852C55.7227 70.9414 55.6367 71.026 55.4805 71.0391C55.4076 71.0391 55.3438 71.0156 55.2891 70.9688C55.237 70.9193 55.2109 70.8581 55.2109 70.7852V69.9844C55.2109 69.9219 55.1992 69.8698 55.1758 69.8281C55.1523 69.7839 55.1263 69.75 55.0977 69.7266C55.069 69.7005 55.0391 69.6823 55.0078 69.6719C54.9766 69.6589 54.9453 69.6523 54.9141 69.6523C54.8828 69.6523 54.8516 69.6589 54.8203 69.6719C54.7917 69.6823 54.763 69.7005 54.7344 69.7266C54.7057 69.75 54.6797 69.7839 54.6562 69.8281C54.6328 69.8698 54.6198 69.9219 54.6172 69.9844V70.7852C54.6042 70.9414 54.5195 71.026 54.3633 71.0391C54.2904 71.0391 54.2266 71.0156 54.1719 70.9688C54.1198 70.9193 54.0938 70.8581 54.0938 70.7852V69.9531C54.099 69.8125 54.1315 69.6914 54.1914 69.5898C54.2513 69.4883 54.3216 69.4076 54.4023 69.3477C54.4831 69.2852 54.5664 69.2383 54.6523 69.207C54.7409 69.1758 54.8294 69.1602 54.918 69.1602ZM58.1523 70.9922C57.9232 70.9844 57.75 70.931 57.6328 70.832C57.5156 70.7305 57.431 70.6172 57.3789 70.4922C57.3268 70.3646 57.3008 70.2357 57.3008 70.1055C57.3008 69.9701 57.3255 69.8398 57.375 69.7148C57.4271 69.5872 57.5117 69.474 57.6289 69.375C57.7487 69.2734 57.8997 69.2214 58.082 69.2188H59.3477C59.5299 69.2214 59.6797 69.2734 59.7969 69.375C59.9167 69.474 60.0013 69.5872 60.0508 69.7148C60.1029 69.8398 60.1289 69.9701 60.1289 70.1055C60.1289 70.2357 60.1029 70.3646 60.0508 70.4922C59.9987 70.6172 59.9141 70.7305 59.7969 70.832C59.6797 70.931 59.5065 70.9844 59.2773 70.9922H58.1523ZM58.0664 69.7422C58.0169 69.7422 57.974 69.763 57.9375 69.8047C57.901 69.8438 57.8737 69.8906 57.8555 69.9453C57.8398 69.9974 57.832 70.0495 57.832 70.1016C57.832 70.1562 57.8398 70.2109 57.8555 70.2656C57.8737 70.3177 57.901 70.3646 57.9375 70.4062C57.974 70.4453 58.0169 70.4661 58.0664 70.4688H59.3633C59.4128 70.4661 59.4557 70.4453 59.4922 70.4062C59.5286 70.3646 59.5547 70.3177 59.5703 70.2656C59.5885 70.2109 59.5977 70.1562 59.5977 70.1016C59.5977 70.0495 59.5885 69.9974 59.5703 69.9453C59.5547 69.8906 59.5286 69.8438 59.4922 69.8047C59.4557 69.763 59.4128 69.7422 59.3633 69.7422H58.0664ZM62.7539 68.8789C62.7695 68.7227 62.8555 68.638 63.0117 68.625C63.0846 68.625 63.1471 68.6497 63.1992 68.6992C63.2539 68.7461 63.2812 68.806 63.2812 68.8789V70.7383C63.2786 70.8112 63.2513 70.8724 63.1992 70.9219C63.1471 70.9688 63.0846 70.9922 63.0117 70.9922H61.3711C61.1419 70.9844 60.9688 70.931 60.8516 70.832C60.7344 70.7305 60.6497 70.6172 60.5977 70.4922C60.5456 70.3646 60.5195 70.2357 60.5195 70.1055C60.5195 69.9701 60.5443 69.8398 60.5938 69.7148C60.6458 69.5872 60.7305 69.474 60.8477 69.375C60.9674 69.2734 61.1185 69.2214 61.3008 69.2188H62.2852C62.3581 69.2188 62.4193 69.2448 62.4688 69.2969C62.5208 69.3464 62.5469 69.4076 62.5469 69.4805C62.5469 69.5534 62.5208 69.6159 62.4688 69.668C62.4193 69.7174 62.3581 69.7422 62.2852 69.7422H61.2852C61.2357 69.7422 61.1927 69.763 61.1562 69.8047C61.1198 69.8438 61.0924 69.8906 61.0742 69.9453C61.0586 69.9974 61.0508 70.0495 61.0508 70.1016C61.0508 70.1562 61.0586 70.2109 61.0742 70.2656C61.0924 70.3177 61.1198 70.3646 61.1562 70.4062C61.1927 70.4453 61.2357 70.4661 61.2852 70.4688H62.6523C62.7201 70.4661 62.7539 70.4323 62.7539 70.3672V68.8789ZM64.5977 70.9922C64.3685 70.9844 64.1953 70.931 64.0781 70.832C63.9609 70.7305 63.8763 70.6172 63.8242 70.4922C63.7721 70.3646 63.7461 70.2357 63.7461 70.1055C63.7461 69.9701 63.7708 69.8398 63.8203 69.7148C63.8724 69.5872 63.957 69.474 64.0742 69.375C64.194 69.2734 64.3451 69.2214 64.5273 69.2188H66.0117C66.0846 69.2188 66.1458 69.2435 66.1953 69.293C66.2474 69.3398 66.2734 69.3971 66.2734 69.4648C66.2734 69.5352 66.2474 69.5951 66.1953 69.6445C66.1458 69.6914 66.0846 69.7148 66.0117 69.7148H64.5508C64.4935 69.7148 64.4427 69.7344 64.3984 69.7734C64.3568 69.8125 64.3255 69.8633 64.3047 69.9258C64.2865 69.9883 64.2773 70.0495 64.2773 70.1094C64.2773 70.1745 64.2865 70.2383 64.3047 70.3008C64.3255 70.3633 64.3568 70.4141 64.3984 70.4531C64.4427 70.4896 64.4935 70.5091 64.5508 70.5117H66.0117C66.0846 70.5117 66.1458 70.5352 66.1953 70.582C66.2474 70.6289 66.2734 70.6849 66.2734 70.75C66.2734 70.8177 66.2474 70.875 66.1953 70.9219C66.1458 70.9688 66.0846 70.9922 66.0117 70.9922H64.5977ZM66.2266 70.0977C66.2266 70.1471 66.2044 70.1901 66.1602 70.2266C66.1211 70.2604 66.0716 70.2773 66.0117 70.2773H64.7344C64.6745 70.2773 64.6237 70.2604 64.582 70.2266C64.5404 70.1901 64.5195 70.1471 64.5195 70.0977C64.5195 70.0508 64.5404 70.0091 64.582 69.9727C64.6237 69.9388 64.6745 69.9219 64.7344 69.9219H66.0117C66.0716 69.9219 66.1224 69.9401 66.1641 69.9766C66.2057 70.0104 66.2266 70.0508 66.2266 70.0977ZM69.5312 70.9922C69.3021 70.9844 69.1289 70.931 69.0117 70.832C68.8945 70.7305 68.8099 70.6172 68.7578 70.4922C68.7057 70.3646 68.6797 70.2357 68.6797 70.1055C68.6797 69.9701 68.7044 69.8398 68.7539 69.7148C68.806 69.5872 68.8906 69.474 69.0078 69.375C69.1276 69.2734 69.2786 69.2214 69.4609 69.2188H70.7266C70.9089 69.2214 71.0586 69.2734 71.1758 69.375C71.2956 69.474 71.3802 69.5872 71.4297 69.7148C71.4818 69.8398 71.5078 69.9701 71.5078 70.1055C71.5078 70.2357 71.4818 70.3646 71.4297 70.4922C71.3776 70.6172 71.293 70.7305 71.1758 70.832C71.0586 70.931 70.8854 70.9844 70.6562 70.9922H69.5312ZM69.4453 69.7422C69.3958 69.7422 69.3529 69.763 69.3164 69.8047C69.2799 69.8438 69.2526 69.8906 69.2344 69.9453C69.2188 69.9974 69.2109 70.0495 69.2109 70.1016C69.2109 70.1562 69.2188 70.2109 69.2344 70.2656C69.2526 70.3177 69.2799 70.3646 69.3164 70.4062C69.3529 70.4453 69.3958 70.4661 69.4453 70.4688H70.7422C70.7917 70.4661 70.8346 70.4453 70.8711 70.4062C70.9076 70.3646 70.9336 70.3177 70.9492 70.2656C70.9674 70.2109 70.9766 70.1562 70.9766 70.1016C70.9766 70.0495 70.9674 69.9974 70.9492 69.9453C70.9336 69.8906 70.9076 69.8438 70.8711 69.8047C70.8346 69.763 70.7917 69.7422 70.7422 69.7422H69.4453ZM72.0391 69.7109C72.0885 69.5859 72.1719 69.474 72.2891 69.375C72.4089 69.2734 72.5599 69.2214 72.7422 69.2188H74.2109C74.2839 69.2188 74.3451 69.2448 74.3945 69.2969C74.4466 69.3464 74.4727 69.4076 74.4727 69.4805C74.4727 69.5534 74.4466 69.6159 74.3945 69.668C74.3451 69.7174 74.2839 69.7422 74.2109 69.7422H72.7266C72.6771 69.7422 72.6341 69.763 72.5977 69.8047C72.5612 69.8438 72.5326 69.8906 72.5117 69.9453C72.4935 70 72.4844 70.0521 72.4844 70.1016V70.7852C72.4688 70.9414 72.3828 71.026 72.2266 71.0391C72.1536 71.0391 72.0898 71.0156 72.0352 70.9688C71.9831 70.9193 71.957 70.8581 71.957 70.7852V70.1055H71.9609C71.9609 69.9701 71.987 69.8385 72.0391 69.7109ZM23.1406 75.0391C23.0703 75.0365 23.0104 75.0117 22.9609 74.9648C22.9115 74.9154 22.8854 74.8555 22.8828 74.7852V74.2578H22.4336C22.3607 74.2578 22.2982 74.2331 22.2461 74.1836C22.1966 74.1315 22.1719 74.069 22.1719 73.9961C22.1719 73.9232 22.1979 73.862 22.25 73.8125C22.2995 73.7604 22.3607 73.7344 22.4336 73.7344H22.8828C22.8906 73.5807 22.9167 73.4323 22.9609 73.2891C23.013 73.125 23.0977 72.987 23.2148 72.875C23.3346 72.7604 23.4857 72.6979 23.668 72.6875H24.7539C24.8242 72.6901 24.8828 72.7161 24.9297 72.7656C24.9792 72.8125 25.0052 72.8711 25.0078 72.9414C25.0078 73.0143 24.9831 73.0768 24.9336 73.1289C24.8867 73.181 24.8268 73.2083 24.7539 73.2109H23.8008C23.7018 73.2161 23.6198 73.2539 23.5547 73.3242C23.4896 73.3945 23.4492 73.474 23.4336 73.5625C23.4206 73.6198 23.4128 73.6771 23.4102 73.7344H24.7383C24.8112 73.7344 24.8724 73.7604 24.9219 73.8125C24.974 73.862 25 73.9232 25 73.9961C25 74.069 24.9753 74.1315 24.9258 74.1836C24.8737 74.2331 24.8112 74.2578 24.7383 74.2578H23.4102V74.7852C23.4076 74.8581 23.3802 74.9193 23.3281 74.9688C23.276 75.0156 23.2135 75.0391 23.1406 75.0391ZM25.4961 73.7109C25.5456 73.5859 25.6289 73.474 25.7461 73.375C25.8659 73.2734 26.0169 73.2214 26.1992 73.2188H27.668C27.7409 73.2188 27.8021 73.2448 27.8516 73.2969C27.9036 73.3464 27.9297 73.4076 27.9297 73.4805C27.9297 73.5534 27.9036 73.6159 27.8516 73.668C27.8021 73.7174 27.7409 73.7422 27.668 73.7422H26.1836C26.1341 73.7422 26.0911 73.763 26.0547 73.8047C26.0182 73.8438 25.9896 73.8906 25.9688 73.9453C25.9505 74 25.9414 74.0521 25.9414 74.1016V74.7852C25.9258 74.9414 25.8398 75.026 25.6836 75.0391C25.6107 75.0391 25.5469 75.0156 25.4922 74.9688C25.4401 74.9193 25.4141 74.8581 25.4141 74.7852V74.1055H25.418C25.418 73.9701 25.444 73.8385 25.4961 73.7109ZM28.5859 73.1797C28.6562 73.1823 28.7161 73.2083 28.7656 73.2578C28.8151 73.3047 28.8411 73.3633 28.8438 73.4336V74.7852C28.8281 74.9414 28.7422 75.026 28.5859 75.0391C28.513 75.0391 28.4492 75.0156 28.3945 74.9688C28.3424 74.9193 28.3164 74.8581 28.3164 74.7852V73.4336C28.319 73.3607 28.3464 73.3008 28.3984 73.2539C28.4505 73.2044 28.513 73.1797 28.5859 73.1797ZM28.2578 72.6719C28.2578 72.599 28.2891 72.5365 28.3516 72.4844C28.4141 72.4323 28.4896 72.4062 28.5781 72.4062C28.6667 72.4062 28.7422 72.4323 28.8047 72.4844C28.8672 72.5365 28.8984 72.599 28.8984 72.6719C28.8984 72.7474 28.8672 72.8112 28.8047 72.8633C28.7422 72.9154 28.6667 72.9414 28.5781 72.9414C28.4896 72.9414 28.4141 72.9154 28.3516 72.8633C28.2891 72.8112 28.2578 72.7474 28.2578 72.6719ZM30.1211 74.9922C29.8919 74.9844 29.7188 74.931 29.6016 74.832C29.4844 74.7305 29.3997 74.6172 29.3477 74.4922C29.2956 74.3646 29.2695 74.2357 29.2695 74.1055C29.2695 73.9701 29.2943 73.8398 29.3438 73.7148C29.3958 73.5872 29.4805 73.474 29.5977 73.375C29.7174 73.2734 29.8685 73.2214 30.0508 73.2188H31.5352C31.6081 73.2188 31.6693 73.2435 31.7188 73.293C31.7708 73.3398 31.7969 73.3971 31.7969 73.4648C31.7969 73.5352 31.7708 73.5951 31.7188 73.6445C31.6693 73.6914 31.6081 73.7148 31.5352 73.7148H30.0742C30.0169 73.7148 29.9661 73.7344 29.9219 73.7734C29.8802 73.8125 29.849 73.8633 29.8281 73.9258C29.8099 73.9883 29.8008 74.0495 29.8008 74.1094C29.8008 74.1745 29.8099 74.2383 29.8281 74.3008C29.849 74.3633 29.8802 74.4141 29.9219 74.4531C29.9661 74.4896 30.0169 74.5091 30.0742 74.5117H31.5352C31.6081 74.5117 31.6693 74.5352 31.7188 74.582C31.7708 74.6289 31.7969 74.6849 31.7969 74.75C31.7969 74.8177 31.7708 74.875 31.7188 74.9219C31.6693 74.9688 31.6081 74.9922 31.5352 74.9922H30.1211ZM31.75 74.0977C31.75 74.1471 31.7279 74.1901 31.6836 74.2266C31.6445 74.2604 31.5951 74.2773 31.5352 74.2773H30.2578C30.1979 74.2773 30.1471 74.2604 30.1055 74.2266C30.0638 74.1901 30.043 74.1471 30.043 74.0977C30.043 74.0508 30.0638 74.0091 30.1055 73.9727C30.1471 73.9388 30.1979 73.9219 30.2578 73.9219H31.5352C31.5951 73.9219 31.6458 73.9401 31.6875 73.9766C31.7292 74.0104 31.75 74.0508 31.75 74.0977ZM33.4922 73.1602C33.6276 73.1602 33.7604 73.1758 33.8906 73.207C34.0234 73.2383 34.1497 73.2852 34.2695 73.3477C34.3893 73.4076 34.4948 73.4883 34.5859 73.5898C34.6797 73.6914 34.7305 73.8125 34.7383 73.9531V74.1172V74.7852C34.7227 74.9414 34.6367 75.026 34.4805 75.0391C34.4076 75.0391 34.3438 75.0156 34.2891 74.9688C34.237 74.9193 34.2109 74.8581 34.2109 74.7852V74.6133V74.0742C34.2057 73.9935 34.1745 73.9271 34.1172 73.875C34.0625 73.8203 34 73.7773 33.9297 73.7461C33.862 73.7148 33.7904 73.6914 33.7148 73.6758C33.6419 73.6602 33.5677 73.6523 33.4922 73.6523C33.4167 73.6523 33.3411 73.6602 33.2656 73.6758C33.1927 73.6914 33.1211 73.7148 33.0508 73.7461C32.9831 73.7773 32.9206 73.8203 32.8633 73.875C32.8086 73.9271 32.7786 73.9935 32.7734 74.0742V74.6133V74.7852C32.7604 74.9414 32.6758 75.026 32.5195 75.0391C32.4466 75.0391 32.3828 75.0156 32.3281 74.9688C32.276 74.9193 32.25 74.8581 32.25 74.7852V74.1172V73.9531C32.2578 73.8125 32.3073 73.6914 32.3984 73.5898C32.4896 73.4883 32.5951 73.4076 32.7148 73.3477C32.8346 73.2852 32.9596 73.2383 33.0898 73.207C33.2227 73.1758 33.3568 73.1602 33.4922 73.1602ZM37.4102 72.8789C37.4258 72.7227 37.5117 72.638 37.668 72.625C37.7409 72.625 37.8034 72.6497 37.8555 72.6992C37.9102 72.7461 37.9375 72.806 37.9375 72.8789V74.7383C37.9349 74.8112 37.9076 74.8724 37.8555 74.9219C37.8034 74.9688 37.7409 74.9922 37.668 74.9922H36.0273C35.7982 74.9844 35.625 74.931 35.5078 74.832C35.3906 74.7305 35.306 74.6172 35.2539 74.4922C35.2018 74.3646 35.1758 74.2357 35.1758 74.1055C35.1758 73.9701 35.2005 73.8398 35.25 73.7148C35.3021 73.5872 35.3867 73.474 35.5039 73.375C35.6237 73.2734 35.7747 73.2214 35.957 73.2188H36.9414C37.0143 73.2188 37.0755 73.2448 37.125 73.2969C37.1771 73.3464 37.2031 73.4076 37.2031 73.4805C37.2031 73.5534 37.1771 73.6159 37.125 73.668C37.0755 73.7174 37.0143 73.7422 36.9414 73.7422H35.9414C35.8919 73.7422 35.849 73.763 35.8125 73.8047C35.776 73.8438 35.7487 73.8906 35.7305 73.9453C35.7148 73.9974 35.707 74.0495 35.707 74.1016C35.707 74.1562 35.7148 74.2109 35.7305 74.2656C35.7487 74.3177 35.776 74.3646 35.8125 74.4062C35.849 74.4453 35.8919 74.4661 35.9414 74.4688H37.3086C37.3763 74.4661 37.4102 74.4323 37.4102 74.3672V72.8789ZM40.9336 73.4453C40.9336 73.5104 40.9076 73.5651 40.8555 73.6094C40.806 73.651 40.7448 73.6719 40.6719 73.6719H39.0195C38.9857 73.6719 38.9583 73.6784 38.9375 73.6914C38.9167 73.7044 38.901 73.7188 38.8906 73.7344C38.8802 73.7474 38.875 73.7591 38.875 73.7695C38.875 73.7826 38.8802 73.7969 38.8906 73.8125C38.901 73.8255 38.9167 73.8385 38.9375 73.8516C38.9583 73.862 38.9857 73.8685 39.0195 73.8711H40.2969C40.4609 73.8737 40.5964 73.9062 40.7031 73.9688C40.8099 74.0286 40.8854 74.1003 40.9297 74.1836C40.9766 74.2643 41 74.3464 41 74.4297C41 74.5104 40.9766 74.5924 40.9297 74.6758C40.8828 74.7565 40.806 74.8281 40.6992 74.8906C40.5951 74.9505 40.4609 74.9805 40.2969 74.9805C40.2682 74.9831 40.2474 74.9844 40.2344 74.9844H38.7188C38.6458 74.9844 38.5833 74.9635 38.5312 74.9219C38.4818 74.8776 38.457 74.8242 38.457 74.7617C38.457 74.6966 38.4831 74.6419 38.5352 74.5977C38.5846 74.556 38.6458 74.5352 38.7188 74.5352H40.3281C40.3672 74.5378 40.3984 74.5326 40.4219 74.5195C40.4479 74.5065 40.4674 74.4922 40.4805 74.4766C40.4935 74.4609 40.5 74.4453 40.5 74.4297C40.5 74.4219 40.4935 74.4089 40.4805 74.3906C40.4674 74.3698 40.4479 74.3542 40.4219 74.3438C40.3984 74.3307 40.3672 74.3229 40.3281 74.3203H39.0469C38.8958 74.3177 38.7708 74.2865 38.6719 74.2266C38.5729 74.1641 38.5026 74.0924 38.4609 74.0117C38.4193 73.931 38.3984 73.8503 38.3984 73.7695C38.3984 73.6888 38.4193 73.6094 38.4609 73.5312C38.5052 73.4505 38.5755 73.3815 38.6719 73.3242C38.7708 73.2643 38.8958 73.2318 39.0469 73.2266C39.0729 73.224 39.0924 73.2227 39.1055 73.2227H40.6719C40.7448 73.2227 40.806 73.2448 40.8555 73.2891C40.9076 73.3307 40.9336 73.3828 40.9336 73.4453ZM44.2617 73.1602C44.3529 73.1602 44.4414 73.1758 44.5273 73.207C44.6159 73.2383 44.7005 73.2839 44.7812 73.3438C44.7943 73.3568 44.8086 73.3698 44.8242 73.3828C44.8372 73.3698 44.8516 73.3568 44.8672 73.3438C44.9479 73.2839 45.0312 73.2383 45.1172 73.207C45.2057 73.1758 45.2943 73.1602 45.3828 73.1602C45.474 73.1602 45.5625 73.1758 45.6484 73.207C45.737 73.2383 45.8203 73.2852 45.8984 73.3477C45.9792 73.4076 46.0495 73.4883 46.1094 73.5898C46.1719 73.6914 46.2031 73.8125 46.2031 73.9531V74.7852C46.1875 74.9414 46.1016 75.026 45.9453 75.0391C45.8724 75.0391 45.8086 75.0156 45.7539 74.9688C45.7018 74.9193 45.6758 74.8581 45.6758 74.7852V73.9844C45.6758 73.9219 45.6641 73.8698 45.6406 73.8281C45.6172 73.7839 45.5911 73.75 45.5625 73.7266C45.5339 73.7005 45.5039 73.6823 45.4727 73.6719C45.4414 73.6589 45.4102 73.6523 45.3789 73.6523C45.3477 73.6523 45.3164 73.6589 45.2852 73.6719C45.2565 73.6823 45.2279 73.7005 45.1992 73.7266C45.1706 73.75 45.1445 73.7839 45.1211 73.8281C45.0977 73.8698 45.0846 73.9219 45.082 73.9844V74.7852C45.0664 74.9414 44.9805 75.026 44.8242 75.0391C44.7513 75.0391 44.6875 75.0156 44.6328 74.9688C44.5807 74.9193 44.5547 74.8581 44.5547 74.7852V73.9844C44.5547 73.9219 44.543 73.8698 44.5195 73.8281C44.4961 73.7839 44.4701 73.75 44.4414 73.7266C44.4128 73.7005 44.3828 73.6823 44.3516 73.6719C44.3203 73.6589 44.2891 73.6523 44.2578 73.6523C44.2266 73.6523 44.1953 73.6589 44.1641 73.6719C44.1354 73.6823 44.1068 73.7005 44.0781 73.7266C44.0495 73.75 44.0234 73.7839 44 73.8281C43.9766 73.8698 43.9635 73.9219 43.9609 73.9844V74.7852C43.9479 74.9414 43.8633 75.026 43.707 75.0391C43.6341 75.0391 43.5703 75.0156 43.5156 74.9688C43.4635 74.9193 43.4375 74.8581 43.4375 74.7852V73.9531C43.4427 73.8125 43.4753 73.6914 43.5352 73.5898C43.5951 73.4883 43.6654 73.4076 43.7461 73.3477C43.8268 73.2852 43.9102 73.2383 43.9961 73.207C44.0846 73.1758 44.1732 73.1602 44.2617 73.1602ZM47.4961 74.9922C47.2669 74.9844 47.0938 74.931 46.9766 74.832C46.8594 74.7305 46.7747 74.6172 46.7227 74.4922C46.6706 74.3646 46.6445 74.2357 46.6445 74.1055C46.6445 73.9701 46.6693 73.8398 46.7188 73.7148C46.7708 73.5872 46.8555 73.474 46.9727 73.375C47.0924 73.2734 47.2435 73.2214 47.4258 73.2188H48.6914C48.8737 73.2214 49.0234 73.2734 49.1406 73.375C49.2604 73.474 49.3451 73.5872 49.3945 73.7148C49.4466 73.8398 49.4727 73.9701 49.4727 74.1055C49.4727 74.2357 49.4466 74.3646 49.3945 74.4922C49.3424 74.6172 49.2578 74.7305 49.1406 74.832C49.0234 74.931 48.8503 74.9844 48.6211 74.9922H47.4961ZM47.4102 73.7422C47.3607 73.7422 47.3177 73.763 47.2812 73.8047C47.2448 73.8438 47.2174 73.8906 47.1992 73.9453C47.1836 73.9974 47.1758 74.0495 47.1758 74.1016C47.1758 74.1562 47.1836 74.2109 47.1992 74.2656C47.2174 74.3177 47.2448 74.3646 47.2812 74.4062C47.3177 74.4453 47.3607 74.4661 47.4102 74.4688H48.707C48.7565 74.4661 48.7995 74.4453 48.8359 74.4062C48.8724 74.3646 48.8984 74.3177 48.9141 74.2656C48.9323 74.2109 48.9414 74.1562 48.9414 74.1016C48.9414 74.0495 48.9323 73.9974 48.9141 73.9453C48.8984 73.8906 48.8724 73.8438 48.8359 73.8047C48.7995 73.763 48.7565 73.7422 48.707 73.7422H47.4102ZM52.0977 72.8789C52.1133 72.7227 52.1992 72.638 52.3555 72.625C52.4284 72.625 52.4909 72.6497 52.543 72.6992C52.5977 72.7461 52.625 72.806 52.625 72.8789V74.7383C52.6224 74.8112 52.5951 74.8724 52.543 74.9219C52.4909 74.9688 52.4284 74.9922 52.3555 74.9922H50.7148C50.4857 74.9844 50.3125 74.931 50.1953 74.832C50.0781 74.7305 49.9935 74.6172 49.9414 74.4922C49.8893 74.3646 49.8633 74.2357 49.8633 74.1055C49.8633 73.9701 49.888 73.8398 49.9375 73.7148C49.9896 73.5872 50.0742 73.474 50.1914 73.375C50.3112 73.2734 50.4622 73.2214 50.6445 73.2188H51.6289C51.7018 73.2188 51.763 73.2448 51.8125 73.2969C51.8646 73.3464 51.8906 73.4076 51.8906 73.4805C51.8906 73.5534 51.8646 73.6159 51.8125 73.668C51.763 73.7174 51.7018 73.7422 51.6289 73.7422H50.6289C50.5794 73.7422 50.5365 73.763 50.5 73.8047C50.4635 73.8438 50.4362 73.8906 50.418 73.9453C50.4023 73.9974 50.3945 74.0495 50.3945 74.1016C50.3945 74.1562 50.4023 74.2109 50.418 74.2656C50.4362 74.3177 50.4635 74.3646 50.5 74.4062C50.5365 74.4453 50.5794 74.4661 50.6289 74.4688H51.9961C52.0638 74.4661 52.0977 74.4323 52.0977 74.3672V72.8789ZM53.9414 74.9922C53.7122 74.9844 53.5391 74.931 53.4219 74.832C53.3047 74.7305 53.2201 74.6172 53.168 74.4922C53.1159 74.3646 53.0898 74.2357 53.0898 74.1055C53.0898 73.9701 53.1146 73.8398 53.1641 73.7148C53.2161 73.5872 53.3008 73.474 53.418 73.375C53.5378 73.2734 53.6888 73.2214 53.8711 73.2188H55.3555C55.4284 73.2188 55.4896 73.2435 55.5391 73.293C55.5911 73.3398 55.6172 73.3971 55.6172 73.4648C55.6172 73.5352 55.5911 73.5951 55.5391 73.6445C55.4896 73.6914 55.4284 73.7148 55.3555 73.7148H53.8945C53.8372 73.7148 53.7865 73.7344 53.7422 73.7734C53.7005 73.8125 53.6693 73.8633 53.6484 73.9258C53.6302 73.9883 53.6211 74.0495 53.6211 74.1094C53.6211 74.1745 53.6302 74.2383 53.6484 74.3008C53.6693 74.3633 53.7005 74.4141 53.7422 74.4531C53.7865 74.4896 53.8372 74.5091 53.8945 74.5117H55.3555C55.4284 74.5117 55.4896 74.5352 55.5391 74.582C55.5911 74.6289 55.6172 74.6849 55.6172 74.75C55.6172 74.8177 55.5911 74.875 55.5391 74.9219C55.4896 74.9688 55.4284 74.9922 55.3555 74.9922H53.9414ZM55.5703 74.0977C55.5703 74.1471 55.5482 74.1901 55.5039 74.2266C55.4648 74.2604 55.4154 74.2773 55.3555 74.2773H54.0781C54.0182 74.2773 53.9674 74.2604 53.9258 74.2266C53.8841 74.1901 53.8633 74.1471 53.8633 74.0977C53.8633 74.0508 53.8841 74.0091 53.9258 73.9727C53.9674 73.9388 54.0182 73.9219 54.0781 73.9219H55.3555C55.4154 73.9219 55.4661 73.9401 55.5078 73.9766C55.5495 74.0104 55.5703 74.0508 55.5703 74.0977ZM56.4688 75.0547C56.3646 75.0547 56.2773 75.0182 56.207 74.9453C56.1393 74.8724 56.1055 74.7812 56.1055 74.6719C56.1055 74.5625 56.1393 74.4714 56.207 74.3984C56.2773 74.3255 56.3646 74.2891 56.4688 74.2891C56.5729 74.2891 56.6602 74.3255 56.7305 74.3984C56.8008 74.4714 56.8359 74.5625 56.8359 74.6719C56.8359 74.7812 56.8008 74.8724 56.7305 74.9453C56.6602 75.0182 56.5729 75.0547 56.4688 75.0547Z" fill="#537790"/>
</svg>
