<svg width="25" height="29" viewBox="0 0 25 29" fill="none" xmlns="http://www.w3.org/2000/svg">
<path d="M4.16667 4.7125H1.90972C1.86368 4.7125 1.81952 4.7316 1.78696 4.76559C1.7544 4.79958 1.73611 4.84568 1.73611 4.89375V9.51562C1.73622 10.2477 1.97875 10.9572 2.4226 11.5239C2.86645 12.0906 3.48433 12.4796 4.17153 12.6251C4.16827 12.5251 4.16665 12.4251 4.16667 12.325V4.7125ZM4.42569 14.487C3.22305 14.3949 2.09832 13.8311 1.27738 12.909C0.456445 11.9868 0.000101251 10.7746 0 9.51562V4.89375C0 4.36497 0.201202 3.85786 0.559345 3.48396C0.917487 3.11006 1.40323 2.9 1.90972 2.9H4.17153C4.26181 1.28325 5.54653 1.10256e-08 7.11806 1.10256e-08H17.8819C18.6347 -6.64293e-05 19.359 0.300146 19.9067 0.839222C20.4545 1.3783 20.7842 2.11549 20.8285 2.9H23.0903C23.5968 2.9 24.0825 3.11006 24.4407 3.48396C24.7988 3.85786 25 4.36497 25 4.89375V9.51562C25 12.1459 23.0486 14.3006 20.5743 14.487C19.7229 17.9626 16.8667 20.6002 13.3681 20.9786V23.5625H17.3611C18.282 23.5625 19.1652 23.9444 19.8163 24.6242C20.4675 25.3041 20.8333 26.2261 20.8333 27.1875V27.55C20.8333 27.9346 20.687 28.3034 20.4265 28.5753C20.1661 28.8472 19.8128 29 19.4444 29H5.55556C5.1872 29 4.83393 28.8472 4.57346 28.5753C4.313 28.3034 4.16667 27.9346 4.16667 27.55V27.1875C4.16667 26.2261 4.53249 25.3041 5.18366 24.6242C5.83482 23.9444 6.718 23.5625 7.63889 23.5625H11.6319V20.9786C8.13333 20.6002 5.27778 17.9626 4.42569 14.487ZM20.8285 12.6251C22.2174 12.333 23.2639 11.0519 23.2639 9.51562V4.89375C23.2639 4.84568 23.2456 4.79958 23.213 4.76559C23.1805 4.7316 23.1363 4.7125 23.0903 4.7125H20.8333V12.325C20.8333 12.4258 20.8319 12.5251 20.8285 12.6251ZM5.90278 3.08125V12.325C5.90278 14.1517 6.59784 15.9035 7.83506 17.1952C9.07228 18.4869 10.7503 19.2125 12.5 19.2125C14.2497 19.2125 15.9277 18.4869 17.1649 17.1952C18.4022 15.9035 19.0972 14.1517 19.0972 12.325V3.08125C19.0972 2.74476 18.9692 2.42205 18.7413 2.18411C18.5134 1.94617 18.2043 1.8125 17.8819 1.8125H7.11806C6.79574 1.8125 6.48663 1.94617 6.25872 2.18411C6.03082 2.42205 5.90278 2.74476 5.90278 3.08125ZM5.90278 27.1875H19.0972C19.0972 26.7068 18.9143 26.2458 18.5887 25.9059C18.2631 25.566 17.8216 25.375 17.3611 25.375H7.63889C7.17844 25.375 6.73686 25.566 6.41127 25.9059C6.08569 26.2458 5.90278 26.7068 5.90278 27.1875Z" fill="#93ABBB"/>
</svg>
