<svg width="13" height="13" viewBox="0 0 13 13" fill="none" xmlns="http://www.w3.org/2000/svg">
<path fill-rule="evenodd" clip-rule="evenodd" d="M7.89701 9.15135C7.72761 9.14839 7.56638 9.21284 7.44878 9.33052C7.33118 9.44821 7.26684 9.60949 7.26993 9.77889C7.27302 9.94829 7.34327 10.1119 7.46523 10.2338C7.5872 10.3557 7.75088 10.4258 7.92028 10.4288L9.19727 10.4516L9.22009 11.7286C9.22013 11.8134 9.23706 11.8979 9.26989 11.9772C9.30272 12.0565 9.3508 12.129 9.41132 12.1906C9.47183 12.2521 9.54358 12.3014 9.62236 12.3356C9.70114 12.3698 9.78539 12.3882 9.87019 12.3897C9.95498 12.3912 10.0386 12.3758 10.1162 12.3444C10.1939 12.313 10.2639 12.2663 10.3222 12.2069C10.3806 12.1474 10.4261 12.0766 10.4561 11.9984C10.4861 11.9202 10.5001 11.8362 10.4971 11.7514L10.4743 10.4744L11.7512 10.4973C11.836 10.5002 11.92 10.4863 11.9982 10.4563C12.0764 10.4263 12.1473 10.3808 12.2067 10.3224C12.2661 10.2641 12.3129 10.194 12.3443 10.1164C12.3756 10.0388 12.391 9.95516 12.3895 9.87037C12.388 9.78557 12.3696 9.70132 12.3354 9.62254C12.3012 9.54376 12.2519 9.47201 12.1904 9.4115C12.1289 9.35098 12.0563 9.3029 11.977 9.27007C11.8977 9.23724 11.8132 9.22031 11.7284 9.22027L10.4514 9.19745L10.4286 7.92046C10.4227 7.75299 10.3513 7.59219 10.2298 7.47269C10.1083 7.35319 9.94636 7.28455 9.77891 7.28156C9.61147 7.27857 9.4519 7.34146 9.33458 7.4567C9.21725 7.57193 9.15155 7.73028 9.15163 7.89765L9.17445 9.17463L7.89701 9.15135Z" fill="white"/>
<path fill-rule="evenodd" clip-rule="evenodd" d="M5.64461 1.3C5.39753 1.3 5.15286 1.35044 4.92458 1.44843C4.6963 1.54643 4.48888 1.69007 4.31416 1.87114C4.13945 2.05222 4.00085 2.26718 3.9063 2.50377C3.81174 2.74035 3.76307 2.99392 3.76307 3.25C3.76307 3.50608 3.81174 3.75965 3.9063 3.99623C4.00085 4.23282 4.13945 4.44778 4.31416 4.62886C4.48888 4.80993 4.6963 4.95357 4.92458 5.05157C5.15286 5.14956 5.39753 5.2 5.64461 5.2C6.14363 5.2 6.6222 4.99455 6.97506 4.62886C7.32792 4.26316 7.52615 3.76717 7.52615 3.25C7.52615 2.73283 7.32792 2.23684 6.97506 1.87114C6.6222 1.50545 6.14363 1.3 5.64461 1.3ZM2.50872 3.25C2.50872 2.38805 2.8391 1.5614 3.4272 0.951903C4.01529 0.34241 4.81292 0 5.64461 0C6.4763 0 7.27393 0.34241 7.86203 0.951903C8.45012 1.5614 8.78051 2.38805 8.78051 3.25C8.78051 4.11195 8.45012 4.9386 7.86203 5.5481C7.27393 6.15759 6.4763 6.5 5.64461 6.5C4.81292 6.5 4.01529 6.15759 3.4272 5.5481C2.8391 4.9386 2.50872 4.11195 2.50872 3.25ZM1.51338 10.1406C1.3108 10.4071 1.25436 10.6086 1.25436 10.725C1.25436 10.8043 1.27756 10.8881 1.41429 11.0019C1.57046 11.1319 1.84203 11.2664 2.25722 11.3802C3.08384 11.6077 4.27172 11.7 5.64461 11.7C5.78385 11.7 5.9212 11.6987 6.0573 11.6967C6.22363 11.6944 6.38405 11.7607 6.50326 11.8809C6.62247 12.0012 6.6907 12.1656 6.69294 12.338C6.69519 12.5104 6.63126 12.6766 6.51523 12.8002C6.3992 12.9237 6.24057 12.9944 6.07423 12.9967C5.93249 12.9987 5.78886 13 5.64461 13C4.24663 13 2.92579 12.909 1.9361 12.6373C1.44377 12.5021 0.980281 12.3084 0.629061 12.0159C0.257143 11.7065 0 11.2742 0 10.725C0 10.2134 0.22453 9.73505 0.529339 9.33465C0.839166 8.9284 1.26753 8.55465 1.7699 8.23615C2.77527 7.60175 4.14252 7.15 5.64461 7.15C5.92496 7.15 6.20092 7.1656 6.46998 7.1955C6.6354 7.21369 6.78708 7.29923 6.89164 7.43332C6.99621 7.56741 7.04509 7.73906 7.02754 7.9105C7.00999 8.08194 6.92745 8.23914 6.79807 8.34751C6.66869 8.45587 6.50307 8.50654 6.33765 8.48835C6.11186 8.463 5.8798 8.45 5.64461 8.45C4.37583 8.45 3.23436 8.8335 2.42342 9.34635C2.01764 9.60245 1.71094 9.88065 1.51338 10.1406Z" fill="white"/>
</svg>
