<svg width="14" height="14" viewBox="0 0 14 14" fill="none" xmlns="http://www.w3.org/2000/svg">
<path d="M11.9 5.6C11.7143 5.6 11.5363 5.67375 11.405 5.80503C11.2737 5.9363 11.2 6.11435 11.2 6.3V8.666L10.164 7.63C9.7982 7.26708 9.30379 7.06344 8.7885 7.06344C8.27321 7.06344 7.7788 7.26708 7.413 7.63L6.923 8.127L5.187 6.384C4.8212 6.02108 4.32679 5.81744 3.8115 5.81744C3.29621 5.81744 2.8018 6.02108 2.436 6.384L1.4 7.427V3.5C1.4 3.31435 1.47375 3.1363 1.60503 3.00503C1.7363 2.87375 1.91435 2.8 2.1 2.8H7.7C7.88565 2.8 8.0637 2.72625 8.19497 2.59497C8.32625 2.4637 8.4 2.28565 8.4 2.1C8.4 1.91435 8.32625 1.7363 8.19497 1.60503C8.0637 1.47375 7.88565 1.4 7.7 1.4H2.1C1.54305 1.4 1.0089 1.62125 0.615076 2.01508C0.221249 2.4089 0 2.94305 0 3.5V12.054C0.00184454 12.5695 0.207461 13.0634 0.572008 13.428C0.936555 13.7925 1.43046 13.9982 1.946 14H10.654C10.8437 13.9985 11.0322 13.9702 11.214 13.916C11.6182 13.8026 11.9741 13.5598 12.2269 13.2247C12.4798 12.8896 12.6158 12.4808 12.614 12.061V6.3C12.614 6.20688 12.5955 6.1147 12.5594 6.02885C12.5234 5.94299 12.4705 5.8652 12.4041 5.80001C12.3376 5.73482 12.2587 5.68355 12.1722 5.64921C12.0856 5.61487 11.9931 5.59814 11.9 5.6ZM2.1 12.6C1.91435 12.6 1.7363 12.5263 1.60503 12.395C1.47375 12.2637 1.4 12.0857 1.4 11.9V9.401L3.423 7.378C3.52531 7.27626 3.66372 7.21916 3.808 7.21916C3.95228 7.21916 4.09069 7.27626 4.193 7.378L9.422 12.6H2.1ZM11.2 11.9C11.1955 12.0355 11.1517 12.1669 11.074 12.278L7.91 9.1L8.407 8.61C8.45719 8.55878 8.51709 8.51809 8.5832 8.49031C8.6493 8.46253 8.72029 8.44822 8.792 8.44822C8.86371 8.44822 8.9347 8.46253 9.0008 8.49031C9.06691 8.51809 9.12681 8.55878 9.177 8.61L11.2 10.647V11.9ZM13.3 1.4H12.6V0.7C12.6 0.514348 12.5263 0.336301 12.395 0.205025C12.2637 0.0737498 12.0857 0 11.9 0C11.7143 0 11.5363 0.0737498 11.405 0.205025C11.2737 0.336301 11.2 0.514348 11.2 0.7V1.4H10.5C10.3143 1.4 10.1363 1.47375 10.005 1.60503C9.87375 1.7363 9.8 1.91435 9.8 2.1C9.8 2.28565 9.87375 2.4637 10.005 2.59497C10.1363 2.72625 10.3143 2.8 10.5 2.8H11.2V3.5C11.2 3.68565 11.2737 3.8637 11.405 3.99497C11.5363 4.12625 11.7143 4.2 11.9 4.2C12.0857 4.2 12.2637 4.12625 12.395 3.99497C12.5263 3.8637 12.6 3.68565 12.6 3.5V2.8H13.3C13.4857 2.8 13.6637 2.72625 13.795 2.59497C13.9263 2.4637 14 2.28565 14 2.1C14 1.91435 13.9263 1.7363 13.795 1.60503C13.6637 1.47375 13.4857 1.4 13.3 1.4Z" fill="#7B869F"/>
</svg>
