<svg width="20" height="20" viewBox="0 0 20 20" fill="none" xmlns="http://www.w3.org/2000/svg">
<path d="M5.58134 12.6522C5.4652 12.7683 5.37306 12.9061 5.31018 13.0577C5.2473 13.2094 5.2149 13.372 5.21484 13.5361C5.21479 13.7003 5.24707 13.8629 5.30984 14.0146C5.37262 14.1663 5.46466 14.3042 5.58071 14.4203C5.69677 14.5364 5.83456 14.6286 5.98622 14.6915C6.13788 14.7543 6.30044 14.7867 6.46462 14.7868C6.6288 14.7869 6.79139 14.7546 6.9431 14.6918C7.0948 14.629 7.23266 14.537 7.34879 14.4209L14.4199 7.34986C14.536 7.23372 14.6281 7.09585 14.691 6.94411C14.7538 6.79238 14.7862 6.62975 14.7862 6.46551C14.7862 6.30127 14.7538 6.13864 14.691 5.9869C14.6281 5.83516 14.536 5.69729 14.4199 5.58115C14.3037 5.46502 14.1659 5.3729 14.0141 5.31004C13.8624 5.24719 13.6997 5.21484 13.5355 5.21484C13.3713 5.21484 13.2086 5.24719 13.0569 5.31004C12.9052 5.3729 12.7673 5.46502 12.6512 5.58115L5.58134 12.6522Z" fill="#763232"/>
<path fill-rule="evenodd" clip-rule="evenodd" d="M2.92893 17.0711C3.85752 17.9997 4.95991 18.7362 6.17317 19.2388C7.38642 19.7413 8.68678 20 10 20C11.3132 20 12.6136 19.7413 13.8268 19.2388C15.0401 18.7362 16.1425 17.9997 17.0711 17.0711C17.9997 16.1425 18.7362 15.0401 19.2388 13.8268C19.7413 12.6136 20 11.3132 20 10C20 8.68678 19.7413 7.38642 19.2388 6.17317C18.7362 4.95991 17.9997 3.85752 17.0711 2.92893C15.1957 1.05357 12.6522 -1.97602e-08 10 0C7.34784 1.97602e-08 4.8043 1.05357 2.92893 2.92893C1.05357 4.8043 1.97602e-08 7.34784 0 10C-1.97602e-08 12.6522 1.05357 15.1957 2.92893 17.0711ZM15.3036 15.3036C13.8972 16.7102 11.9896 17.5005 10.0004 17.5006C8.01132 17.5007 6.10362 16.7107 4.69701 15.3042C3.29041 13.8978 2.50012 11.9902 2.5 10.0011C2.49988 8.01194 3.28995 6.10424 4.69639 4.69764C6.10283 3.29103 8.01043 2.50074 9.99956 2.50062C10.9845 2.50057 11.9598 2.6945 12.8697 3.07136C13.7797 3.44822 14.6065 4.00061 15.303 4.69701C15.9995 5.39341 16.552 6.22017 16.9289 7.13009C17.3059 8.04001 17.4999 9.01527 17.5 10.0002C17.5001 10.9851 17.3061 11.9604 16.9293 12.8703C16.5524 13.7803 16 14.6071 15.3036 15.3036Z" fill="#763232"/>
</svg>
