<svg width="19" height="19" viewBox="0 0 19 19" fill="none" xmlns="http://www.w3.org/2000/svg">
<path d="M13.9311 18.9902H5.06813C3.69394 19.0756 2.34442 18.5992 1.32895 17.6711C0.400804 16.6547 -0.0756091 15.3052 0.00980355 13.9319V5.06808C-0.0756091 3.69485 0.399855 2.34534 1.32801 1.32894C2.34442 0.4008 3.69394 -0.0756084 5.06813 0.00980345H13.9311C15.3034 -0.0756084 16.652 0.399851 17.6674 1.32799C18.5947 2.34534 19.072 3.6939 18.9904 5.06808V13.9319C19.0749 15.3052 18.5994 16.6547 17.6712 17.6711C16.6548 18.5992 15.3053 19.0756 13.9311 18.9902Z" fill="#849BAD"/>
<path d="M14.5545 7.89756L8.00177 14.4829C7.66099 14.8146 7.2131 15 6.74574 15H4.45762C4.33105 15 4.21421 14.9512 4.12658 14.8634C4.03895 14.7756 4 14.6585 4 14.5317L4.05842 12.2195C4.06816 11.761 4.25315 11.3317 4.57446 11.0098L9.21885 6.3561C9.29675 6.27805 9.43306 6.27805 9.51095 6.3561L11.1399 7.97854C11.247 8.08488 11.4028 8.15415 11.5683 8.15415C11.9286 8.15415 12.2109 7.86146 12.2109 7.51024C12.2109 7.33463 12.1428 7.17854 12.0357 7.06146C12.0065 7.02244 10.4554 5.47805 10.4554 5.47805C10.358 5.38049 10.358 5.21463 10.4554 5.11707L11.1078 4.45366C11.7114 3.84878 12.6851 3.84878 13.2888 4.45366L14.5545 5.72195C15.1485 6.31707 15.1485 7.29268 14.5545 7.89756Z" fill="white"/>
</svg>
