<svg width="41" height="41" viewBox="0 0 41 41" fill="none" xmlns="http://www.w3.org/2000/svg">
<path fillRule="evenodd" clipRule="evenodd" d="M33.582 33.5792C27.9281 39.2337 19.5561 40.4554 12.7049 37.2869C11.6935 36.8797 10.8642 36.5506 10.0759 36.5506C7.8802 36.5636 5.14716 38.6927 3.72672 37.2739C2.30627 35.8533 4.43694 33.1181 4.43694 30.9091C4.43694 30.1207 4.12087 29.3063 3.7137 28.2929C0.543737 21.4428 1.7671 13.068 7.42098 7.41533C14.6385 0.195199 26.3645 0.1952 33.582 7.41347C40.8125 14.6448 40.7995 26.361 33.582 33.5792Z" stroke="#D0C7B4" strokeWidth="3" strokeLinecap="round" strokeLinejoin="round"/>
<path d="M27.7881 21.2637H27.8047" stroke="#D0C7B4" strokeWidth="3" strokeLinecap="round" strokeLinejoin="round"/>
<path d="M20.3711 21.2637H20.3877" stroke="#D0C7B4" strokeWidth="3" strokeLinecap="round" strokeLinejoin="round"/>
<path d="M12.9546 21.2637H12.9712" stroke="#D0C7B4" strokeWidth="3" strokeLinecap="round" strokeLinejoin="round"/>
</svg>
