<svg width="20" height="19" viewBox="0 0 20 19" fill="none" xmlns="http://www.w3.org/2000/svg">
<path opacity="0.4" d="M19.101 7.08786H17.8979V5.91162C17.8979 5.40945 17.4952 5 16.999 5C16.5038 5 16.1 5.40945 16.1 5.91162V7.08786H14.899C14.4027 7.08786 14 7.49731 14 7.99948C14 8.50165 14.4027 8.9111 14.899 8.9111H16.1V10.0884C16.1 10.5906 16.5038 11 16.999 11C17.4952 11 17.8979 10.5906 17.8979 10.0884V8.9111H19.101C19.5962 8.9111 20 8.50165 20 7.99948C20 7.49731 19.5962 7.08786 19.101 7.08786Z" fill="#325876"/>
<path d="M7.5 12.5156C3.45422 12.5156 0 13.1625 0 15.7467C0 18.33 3.4332 19.0001 7.5 19.0001C11.5448 19.0001 15 18.3533 15 15.769C15 13.1848 11.5668 12.5156 7.5 12.5156Z" fill="#325876"/>
<path opacity="0.4" d="M7.49974 10.0542C10.2543 10.0542 12.4624 7.81769 12.4624 5.02761C12.4624 2.23754 10.2543 0 7.49974 0C4.74517 0 2.53711 2.23754 2.53711 5.02761C2.53711 7.81769 4.74517 10.0542 7.49974 10.0542Z" fill="#325876"/>
</svg>
