<svg width="26" height="26" viewBox="0 0 26 26" fill="none" xmlns="http://www.w3.org/2000/svg">
<rect width="26" height="26" rx="8" fill="#325876"/>
<path d="M9.49101 8.24544L13 11.7543L16.4908 8.26362C16.5679 8.18155 16.6608 8.1159 16.7639 8.0706C16.867 8.0253 16.9782 8.00129 17.0908 8C17.3319 8 17.5631 8.09577 17.7336 8.26625C17.9041 8.43672 17.9999 8.66794 17.9999 8.90903C18.002 9.02047 17.9813 9.13118 17.9391 9.23435C17.8969 9.33752 17.834 9.43097 17.7544 9.50898L14.2181 12.9996L17.7544 16.5358C17.9042 16.6823 17.9921 16.8808 17.9999 17.0903C17.9999 17.3313 17.9041 17.5626 17.7336 17.733C17.5631 17.9035 17.3319 17.9993 17.0908 17.9993C16.9749 18.0041 16.8593 17.9848 16.7514 17.9425C16.6434 17.9002 16.5454 17.836 16.4635 17.7538L13 14.245L9.5001 17.7448C9.42329 17.8241 9.33153 17.8874 9.23011 17.9311C9.1287 17.9748 9.01963 17.998 8.90921 17.9993C8.66811 17.9993 8.43689 17.9035 8.26641 17.733C8.09592 17.5626 8.00015 17.3313 8.00015 17.0903C7.99803 16.9788 8.01871 16.8681 8.06091 16.7649C8.10312 16.6618 8.16597 16.5683 8.2456 16.4903L11.7819 12.9996L8.2456 9.46353C8.09577 9.31696 8.00791 9.11848 8.00015 8.90903C8.00015 8.66794 8.09592 8.43672 8.26641 8.26625C8.43689 8.09577 8.66811 8 8.90921 8C9.12739 8.00273 9.33647 8.0909 9.49101 8.24544Z" fill="white"/>
</svg>
