<svg width="25" height="25" viewBox="0 0 25 25" fill="none" xmlns="http://www.w3.org/2000/svg">
<path d="M3.72753 0.613592L12.5 9.38569L21.227 0.659043C21.4198 0.453871 21.652 0.28974 21.9097 0.176492C22.1675 0.0632451 22.4455 0.00321419 22.727 0C23.3297 0 23.9078 0.23943 24.334 0.665618C24.7602 1.09181 24.9996 1.66984 24.9996 2.27256C25.0049 2.55118 24.9532 2.82795 24.8477 3.08587C24.7422 3.3438 24.5851 3.57744 24.386 3.77246L15.5454 12.4991L24.386 21.3394C24.7606 21.7058 24.9802 22.202 24.9996 22.7256C24.9996 23.3284 24.7602 23.9064 24.334 24.3326C23.9078 24.7588 23.3297 24.9982 22.727 24.9982C22.4373 25.0102 22.1484 24.9619 21.8784 24.8562C21.6084 24.7506 21.3634 24.59 21.1588 24.3846L12.5 15.6125L3.75026 24.3619C3.55823 24.5602 3.32883 24.7186 3.07528 24.8278C2.82174 24.937 2.54908 24.9949 2.27303 24.9982C1.67028 24.9982 1.09222 24.7588 0.666016 24.3326C0.23981 23.9064 0.000369777 23.3284 0.000369777 22.7256C-0.00492892 22.447 0.0467671 22.1703 0.152286 21.9123C0.257804 21.6544 0.414919 21.4208 0.613988 21.2257L9.45463 12.4991L0.613988 3.65883C0.239419 3.2924 0.0197774 2.79619 0.000369777 2.27256C0.000369777 1.66984 0.23981 1.09181 0.666016 0.665618C1.09222 0.23943 1.67028 0 2.27303 0C2.81847 0.00681769 3.34118 0.227256 3.72753 0.613592Z" fill="#004B7E"/>
</svg>
