<svg width="8" height="8" viewBox="0 0 8 8" fill="none" xmlns="http://www.w3.org/2000/svg">
<path d="M7.55101 7.09033C7.79862 7.09033 8 7.29434 8 7.54517C8 7.79647 7.79862 8 7.55101 8H5.0132C4.76559 8 4.56421 7.79647 4.56421 7.54517C4.56421 7.29434 4.76559 7.09033 5.0132 7.09033H7.55101ZM5.79105 0.310695L6.44661 0.83146C6.71543 1.04168 6.89465 1.31878 6.95596 1.61022C7.02671 1.9308 6.95125 2.24565 6.73901 2.51797L2.83395 7.56796C2.65474 7.79728 2.39063 7.92628 2.10765 7.93106L0.551287 7.95017C0.466394 7.95017 0.39565 7.89284 0.376785 7.81162L0.023066 6.27799C-0.0382454 5.99611 0.023066 5.70467 0.202284 5.48012L2.97073 1.89688C3.01789 1.83955 3.10278 1.83047 3.15938 1.87299L4.32429 2.79985C4.39975 2.86196 4.50351 2.89541 4.61198 2.88107C4.84308 2.85241 4.99872 2.64219 4.97513 2.41764C4.96099 2.30298 4.90439 2.20742 4.82893 2.13576C4.80535 2.11665 3.69703 1.22801 3.69703 1.22801C3.62629 1.17067 3.61214 1.06556 3.66873 0.994378L4.10734 0.425359C4.51294 -0.0954059 5.22038 -0.143182 5.79105 0.310695Z" fill="#325876"/>
</svg>
