<svg width="23" height="23" viewBox="0 0 23 23" fill="none" xmlns="http://www.w3.org/2000/svg">
<circle cx="11.5" cy="11.5" r="11.5" fill="#EAEDF4"/>
<path d="M15.3114 9.21896C15.3114 9.59194 15.1632 9.94964 14.8995 10.2134C14.6358 10.4771 14.2781 10.6253 13.9051 10.6253C13.5322 10.6253 13.1745 10.4771 12.9108 10.2134C12.6471 9.94964 12.4989 9.59194 12.4989 9.21896C12.4989 8.84598 12.6471 8.48828 12.9108 8.22454C13.1745 7.9608 13.5322 7.81264 13.9051 7.81264C14.2781 7.81264 14.6358 7.9608 14.8995 8.22454C15.1632 8.48828 15.3114 8.84598 15.3114 9.21896ZM14.3739 9.21896C14.3739 9.09463 14.3245 8.9754 14.2366 8.88749C14.1487 8.79957 14.0295 8.75018 13.9051 8.75018C13.7808 8.75018 13.6616 8.79957 13.5737 8.88749C13.4858 8.9754 13.4364 9.09463 13.4364 9.21896C13.4364 9.34328 13.4858 9.46252 13.5737 9.55043C13.6616 9.63834 13.7808 9.68773 13.9051 9.68773C14.0295 9.68773 14.1487 9.63834 14.2366 9.55043C14.3245 9.46252 14.3739 9.34328 14.3739 9.21896ZM5 7.81264C5 7.06668 5.29631 6.35127 5.82375 5.8238C6.35118 5.29633 7.06654 5 7.81245 5H15.3114C16.0573 5 16.7726 5.29633 17.3001 5.8238C17.8275 6.35127 18.1238 7.06668 18.1238 7.81264V10.6272C17.801 10.6418 17.4834 10.7146 17.1863 10.8418V7.81264C17.1863 7.31533 16.9888 6.8384 16.6372 6.48675C16.2855 6.1351 15.8086 5.93755 15.3114 5.93755H7.81151C7.31424 5.93755 6.83733 6.1351 6.48571 6.48675C6.13409 6.8384 5.93655 7.31533 5.93655 7.81264V15.3121C5.93655 15.6608 6.03311 15.988 6.19904 16.2684L10.5761 11.9669C10.8391 11.7087 11.1929 11.564 11.5614 11.564C11.93 11.564 12.2838 11.7087 12.5467 11.9669L14.1826 13.5748L13.5198 14.2376L11.8905 12.6354C11.8028 12.5492 11.6848 12.5009 11.5619 12.5009C11.439 12.5009 11.321 12.5492 11.2333 12.6354L6.86372 16.9293C7.15113 17.0989 7.47875 17.1883 7.81245 17.1881H11.0693C11.0543 17.235 11.0411 17.2847 11.0289 17.3334L10.8311 18.1256H7.81245C7.06654 18.1256 6.35118 17.8293 5.82375 17.3018C5.29631 16.7744 5 16.059 5 15.313V7.81264ZM12.4802 16.6031L17.0073 12.0747C17.3362 11.746 17.7823 11.5614 18.2473 11.5616C18.7123 11.5618 19.1582 11.7467 19.4869 12.0757C19.8156 12.4046 20.0002 12.8507 20 13.3158C19.9998 13.7808 19.8149 14.2268 19.486 14.5555L14.9589 19.0819C14.6951 19.3459 14.3646 19.5332 14.0026 19.6238L12.5983 19.9754C12.4586 20.0101 12.3124 20.0081 12.1737 19.9695C12.0351 19.9309 11.9087 19.8571 11.807 19.7553C11.7053 19.6535 11.6317 19.5271 11.5932 19.3884C11.5548 19.2497 11.5529 19.1035 11.5877 18.9638L11.9383 17.5594C12.0292 17.1975 12.2158 16.8665 12.4802 16.6031Z" fill="#7B869F"/>
</svg>
