<svg width="21" height="20" viewBox="0 0 21 20" fill="none" xmlns="http://www.w3.org/2000/svg">
<path d="M9.49273 0C11.9753 0 14 1.99 14 4.44V9.23H7.89535C7.45785 9.23 7.11192 9.57 7.11192 10C7.11192 10.42 7.45785 10.77 7.89535 10.77H14V15.55C14 18 11.9753 20 9.47238 20H4.51744C2.02471 20 0 18.01 0 15.56V4.45C0 1.99 2.03488 0 4.52762 0H9.49273ZM16.5402 6.5502C16.8402 6.2402 17.3302 6.2402 17.6302 6.5402L20.5502 9.4502C20.7002 9.6002 20.7802 9.7902 20.7802 10.0002C20.7802 10.2002 20.7002 10.4002 20.5502 10.5402L17.6302 13.4502C17.4802 13.6002 17.2802 13.6802 17.0902 13.6802C16.8902 13.6802 16.6902 13.6002 16.5402 13.4502C16.2402 13.1502 16.2402 12.6602 16.5402 12.3602L18.1402 10.7702L14 10.77V9.23L18.1402 9.2302L16.5402 7.6402C16.2402 7.3402 16.2402 6.8502 16.5402 6.5502Z" fill="#763232"/>
</svg>
