<svg width="69" height="60" viewBox="0 0 69 60" fill="none" xmlns="http://www.w3.org/2000/svg">
<path d="M11.2992 44.7234C7.68678 40.4883 5.2603 35.6454 4.1755 30.1655C2.65492 22.4842 3.74427 15.1689 7.4303 8.26351C7.76376 7.63881 8.12536 7.02764 8.50446 6.42996C9.09753 5.49497 9.67073 4.60099 9.88915 3.44081C10.2004 1.78769 11.3926 0.792784 12.9617 0.275209C13.1408 0.216133 13.3214 0.125599 13.5849 0.257062C13.676 0.992438 13.4746 1.70796 13.1483 2.38174C12.5984 3.51697 11.7302 4.32468 10.5201 4.6877C10.0141 4.83952 9.67705 5.12216 9.38937 5.55364C6.34731 10.1164 4.57374 15.1217 4.10954 20.6118C3.57095 26.9817 4.82341 32.9638 7.90379 38.5316C9.85635 42.0608 12.3714 45.1436 15.6147 47.6927C16.1843 48.1138 16.6863 48.4863 17.1883 48.8589C17.9437 49.6107 18.908 50.0399 19.8497 50.5531C19.6126 50.1725 19.3551 49.8031 19.1424 49.4091C18.6795 48.5513 18.5319 47.6409 18.6634 46.6622C18.736 46.1224 18.9419 46.0907 19.3849 46.2495C21.6613 47.0653 22.8704 49.3955 22.2163 51.7456C22.7144 52.1522 23.9924 52.6967 25.034 52.9249C24.0936 52.1409 23.4706 51.2438 23.2451 50.1075C23.1625 49.6911 22.9636 49.1684 23.2738 48.876C23.5944 48.5737 24.0925 48.8394 24.4884 48.9737C26.5204 49.6629 27.5788 51.2647 27.6017 53.6955C28.438 54.0492 29.3493 54.1555 30.2449 54.3087C31.5314 54.5288 32.7953 54.8279 34.0244 55.2717C34.2891 55.3673 34.5423 55.4196 34.8292 55.3116C36.6596 54.622 38.5839 54.333 40.4925 53.9769C40.7829 53.9227 41.0653 53.8246 41.3757 53.7402C41.3371 52.2709 41.745 50.9942 42.7877 49.971C43.4698 49.3017 44.313 48.9606 45.2293 48.7758C45.6353 48.6939 45.8169 48.8403 45.8184 49.2812C45.8235 50.7762 45.1406 51.9115 43.9745 52.9155C44.9859 52.6709 45.8411 52.2717 46.7332 51.878C46.5582 50.8664 46.5166 49.8716 46.8699 48.8945C47.3599 47.5392 48.3351 46.7126 49.6422 46.2201C50.0794 46.0553 50.2757 46.1852 50.3349 46.6406C50.4861 47.8024 50.2271 48.8655 49.6094 49.8459C49.4631 50.078 49.2945 50.2957 49.0762 50.605C50.0571 50.1524 50.8425 49.5764 51.6755 49.0008C51.2297 48.0359 51.0206 47.0433 51.2433 45.9943C51.5327 44.6313 52.284 43.6127 53.4713 42.9048C53.895 42.6522 54.1138 42.7467 54.2556 43.2198C54.5911 44.3395 54.5316 45.4294 54.0872 46.5031C53.9985 46.7176 53.9007 46.9282 53.8541 47.1815C55.166 46.2647 56.2484 45.1112 57.2822 43.8523C57.2959 43.8138 57.2915 43.8183 57.2915 43.8183C58.2034 43.0157 58.8659 42.005 59.5403 41.0121C62.5051 36.6469 64.3182 31.843 64.8327 26.5634C65.4599 20.1273 64.3078 14.0392 61.2782 8.32625C60.9525 7.71199 60.5024 7.16114 60.2569 6.34614C60.6313 6.61554 60.7732 6.90157 60.9301 7.16695C63.1906 10.9911 64.6055 15.1118 65.1693 19.5294C65.8358 24.7523 65.3022 29.8438 63.5087 34.792C62.8401 36.6368 61.9588 38.384 61.023 40.1513C61.0125 40.1939 61.016 40.1905 61.016 40.1905C60.1259 41.4485 59.3029 42.7551 58.3341 43.956C58.1863 44.1393 58.0385 44.3226 57.8262 44.5641C57.3975 44.9835 57.1785 45.4724 56.7593 45.7853C55.8743 46.6202 55.0632 47.5325 54.1195 48.3484C55.3861 47.9722 56.6046 48.0061 57.8104 48.5093C58.6032 48.8401 58.6422 48.9388 58.1084 49.6247C56.7921 51.3162 54.161 51.8245 52.3002 50.7468C51.8812 50.5042 51.8702 50.4569 52.0938 49.8977C51.2452 50.4453 50.3865 50.9995 49.4827 51.5828C49.7353 51.7679 49.9739 51.686 50.1911 51.6878C51.2994 51.6966 52.2777 52.0686 53.1652 52.7245C53.5096 52.979 53.5034 53.1876 53.2027 53.4958C51.6483 55.0887 48.5896 55.1782 46.9838 53.6689C46.7641 53.4624 46.7067 53.2601 46.9638 52.9201C45.8627 53.3485 44.8912 53.7264 43.8132 54.1458C45.215 54.2486 46.4049 54.6399 47.352 55.6171C47.9178 56.2009 47.9112 56.3524 47.2003 56.7433C45.2651 57.8073 42.8554 57.3795 41.4214 55.7161C41.217 55.4789 40.9453 55.2477 41.5306 54.843C39.6033 55.3231 37.8364 55.4768 36.067 56.1168C36.4571 56.4135 36.7567 56.644 37.0591 56.8705C37.557 57.2436 37.8793 57.7468 38.0775 58.3272C38.19 58.6566 38.1685 58.9886 37.7843 59.139C37.4132 59.2844 37.1605 59.1024 37.0196 58.7617C36.5875 57.7164 35.6566 57.2661 34.7428 56.792C34.5795 56.7073 34.4186 56.6977 34.2536 56.7843C33.3254 57.272 32.3613 57.7142 31.9339 58.7946C31.8053 59.1195 31.5622 59.2707 31.2179 59.1434C30.8751 59.0166 30.7836 58.7335 30.8792 58.4074C31.0528 57.8153 31.378 57.3126 31.8568 56.9229C32.1534 56.6816 32.4637 56.4577 32.862 56.1543C31.149 55.4326 29.3709 55.3512 27.5178 54.8494C27.869 55.1655 27.859 55.3629 27.6493 55.62C26.1975 57.3997 23.5652 57.8483 21.6108 56.6522C21.1531 56.3721 21.1397 56.1269 21.4933 55.7524C22.4687 54.7194 23.6683 54.2193 25.1943 54.1741C23.9801 53.667 22.8431 53.3005 21.7411 52.6942C21.8479 53.0046 22.3414 53.0732 22.1605 53.4464C22.0247 53.7264 21.7275 53.8544 21.4759 54.0129C19.7155 55.1226 17.5775 54.9838 15.9843 53.658C15.8056 53.5093 15.605 53.3745 15.5279 53.136C16.1772 52.09 17.9183 51.5306 19.7641 51.7426C18.7935 51.1331 17.8185 50.5303 16.7819 49.8294C17.304 50.4398 16.8773 50.6368 16.4758 50.8362C14.5447 51.795 12.1179 51.2371 10.811 49.5367C10.3804 48.9764 10.4054 48.8716 11.0705 48.5646C12.3843 47.9579 13.7076 47.9185 15.0621 48.4969C14.0092 47.5448 12.9895 46.5687 11.9518 45.4911C11.6955 45.1955 11.4973 44.9595 11.2992 44.7234Z" fill="#F6CB61"/>
<path d="M56.758 45.8298C57.1778 45.4722 57.3968 44.9833 57.7992 44.5947C58.4848 44.1985 59.1289 43.8314 59.8687 43.6626C60.6642 43.4811 61.4326 43.5992 62.2034 43.787C62.6365 43.8925 62.6602 44.1171 62.4764 44.4961C61.5204 46.4682 59.0747 47.5041 56.9982 46.8361C56.322 46.6186 56.6876 46.2313 56.758 45.8298Z" fill="#F6CB61"/>
<path d="M11.2561 44.7088C11.4969 44.9583 11.695 45.1943 11.9168 45.4659C12.5871 46.7401 12.5686 46.7753 11.1576 46.9886C9.33153 47.2647 7.30918 46.1701 6.50173 44.4912C6.30091 44.0736 6.3768 43.8939 6.83412 43.7659C8.46184 43.3105 9.8954 43.7058 11.2561 44.7088Z" fill="#F6CB61"/>
<path d="M17.2265 48.8343C16.6859 48.4873 16.1839 48.1147 15.653 47.706C14.5588 46.3313 14.2195 44.848 14.7453 43.1907C14.8592 42.8317 14.999 42.6433 15.4335 42.8536C17.4045 43.8074 18.4101 46.6605 17.4387 48.6254C17.403 48.6977 17.324 48.7482 17.2265 48.8343Z" fill="#F6CB61"/>
<path d="M61.0108 40.1953C61.503 39.6953 61.9668 39.1641 62.5946 38.8125C63.4644 38.3253 64.3881 38.1565 65.3702 38.2419C65.7311 38.2733 65.8411 38.4223 65.7511 38.7945C65.2643 40.8081 63.0324 42.3576 60.984 42.1156C60.4943 42.0577 60.332 41.8563 60.5063 41.4034C60.6527 41.0232 60.8285 40.6544 61.0035 40.2352C61.0157 40.1899 61.0122 40.1933 61.0108 40.1953Z" fill="#F6CB61"/>
<path d="M8.28046 40.931C8.42837 41.2716 8.5584 41.5673 8.5111 41.9402C8.0061 42.2247 7.45904 42.1432 6.91912 42.0542C5.11392 41.7566 3.91634 40.7151 3.30424 38.9862C3.09342 38.3907 3.18323 38.2786 3.81861 38.2318C5.70803 38.0928 7.33694 39.0663 8.28046 40.931Z" fill="#F6CB61"/>
<path d="M57.2976 43.8124C56.8484 44.1893 56.5349 44.7301 55.9863 44.9912C55.0768 44.0868 54.8115 42.2011 55.3864 40.7959C55.6495 40.1529 56.0213 39.5783 56.5317 39.1058C57.0561 38.6202 57.2053 38.6457 57.5033 39.2797C58.2148 40.7934 58.1079 42.2771 57.3064 43.7749C57.2915 43.8195 57.2958 43.815 57.2976 43.8124Z" fill="#F6CB61"/>
<path d="M13.8878 42.2788C13.8993 43.3095 13.6509 44.1929 13.0669 44.9709C11.4323 44.1206 10.7963 42.0707 11.0478 40.6606C11.1348 40.1723 11.2644 39.696 11.4917 39.2501C11.7932 38.659 11.9341 38.6185 12.4291 39.0871C13.3225 39.9328 13.8246 40.9746 13.8878 42.2788Z" fill="#F6CB61"/>
<path d="M67.9352 32.6875C67.4512 35.0398 66.1437 36.3663 64.0348 36.6911C63.4025 36.7885 63.297 36.687 63.3903 36.0709C63.7025 34.0095 65.4442 32.3492 67.395 32.252C67.6766 32.2379 67.9869 32.1761 67.9352 32.6875Z" fill="#F6CB61"/>
<path d="M4.90059 34.2434C5.40234 34.9789 5.59593 35.7577 5.61006 36.5901C3.79402 37.0325 1.01096 35.1291 1.07683 32.2504C2.69238 32.2307 3.94715 32.8794 4.90059 34.2434Z" fill="#F6CB61"/>
<path d="M10.5327 35.7025C11.0878 37.3078 10.8698 38.7534 9.92328 40.0931C9.67898 40.4389 9.4504 40.5514 9.1256 40.1564C7.88011 38.642 7.85139 36.1892 9.05776 34.6358C9.38787 34.2107 9.64929 34.1962 9.92594 34.6593C10.1237 34.9903 10.3188 35.3228 10.5327 35.7025Z" fill="#F6CB61"/>
<path d="M60.1519 39.6925C60.0823 39.8058 60.0369 39.879 59.9862 39.9483C59.5414 40.5556 59.3748 40.5555 58.9657 39.9492C57.877 38.336 57.8739 36.4193 58.9575 34.7979C59.3967 34.1407 59.585 34.1273 60.0081 34.7741C61.0465 36.3614 61.0933 37.9913 60.1519 39.6925Z" fill="#F6CB61"/>
<path d="M68.7166 28.1363C68.1798 29.5415 67.2123 30.4043 65.8514 30.8541C65.3836 31.0087 65.2336 30.8449 65.2175 30.3863C65.1472 28.3832 66.4832 26.5211 68.3948 25.9558C68.8008 25.8357 69.0004 25.9062 69.0004 26.3764C69.0004 26.964 68.9411 27.5364 68.7166 28.1363Z" fill="#F6CB61"/>
<path d="M3.03075 30.8167C0.865251 29.9545 -0.273443 28.0994 0.0561204 25.9219C1.03741 25.962 1.82722 26.4249 2.49239 27.0965C3.36499 27.9776 3.70423 29.0974 3.75726 30.3228C3.7802 30.8526 3.59765 31.0636 3.03075 30.8167Z" fill="#F6CB61"/>
<path d="M6.0791 32.7184C6.19369 31.2833 6.7522 30.1682 7.90958 29.377C9.67706 31.5838 8.30856 34.7763 6.85055 35.3007C6.2603 34.5649 6.1038 33.6891 6.0791 32.7184Z" fill="#F6CB61"/>
<path d="M62.4211 34.865C62.2102 35.3451 61.9749 35.3652 61.6247 35.0509C60.2309 33.8 59.836 31.4415 60.7371 29.7715C61.0024 29.2797 61.2397 29.4621 61.5253 29.7239C62.8953 30.9805 63.2456 32.9159 62.4211 34.865Z" fill="#F6CB61"/>
<path d="M0.162388 20.1033C0.242396 19.8529 0.219173 19.6154 0.415741 19.4746C1.66719 19.7374 2.91593 21.2011 3.12999 22.6599C3.21448 23.2356 3.24712 23.8083 3.13963 24.3914C3.04332 24.9138 2.82037 24.9769 2.39632 24.7216C0.673897 23.6849 -0.0270153 22.1428 0.162388 20.1033Z" fill="#F6CB61"/>
<path d="M66.3486 21.2841C66.9025 20.4126 67.5829 19.77 68.5107 19.4238C69.5778 21.2163 68.1963 24.2879 66.008 24.8991C65.652 23.6564 65.7215 22.4748 66.3486 21.2841Z" fill="#F6CB61"/>
<path d="M4.87817 28.7511C4.61793 26.7863 5.73135 24.8708 7.25294 24.3496C8.00717 25.4855 7.77121 27.4974 6.72936 28.73C6.46659 29.0409 6.1718 29.3203 5.83247 29.5522C5.2584 29.9443 5.15031 29.9121 4.97742 29.251C4.93937 29.1056 4.91586 28.9562 4.87817 28.7511Z" fill="#F6CB61"/>
<path d="M58.7698 4.80429C56.7807 4.17158 55.6794 2.83892 55.3899 0.804769C55.3198 0.312498 55.4191 0.121603 55.9625 0.269546C57.7839 0.765383 59.1417 2.35154 59.2517 4.26046C59.2871 4.87475 59.7721 5.22372 59.9646 5.84136C59.4509 5.55791 59.3634 4.91303 58.7698 4.80429Z" fill="#F6CB61"/>
<path d="M64.0571 28.9751C63.9836 29.2997 63.9693 29.5874 63.7567 29.7981C61.8061 29.1893 60.694 26.383 61.6855 24.4023C63.227 24.6813 64.3483 26.8053 64.0571 28.9751Z" fill="#F6CB61"/>
<path d="M2.23362 13.3537C3.74147 14.7538 4.21653 16.5157 3.58771 18.2841C3.36556 18.9088 3.24401 18.9447 2.75987 18.5284C1.38679 17.3478 0.869458 15.3515 1.51089 13.6607C1.6273 13.3539 1.72 12.9137 2.23362 13.3537Z" fill="#F6CB61"/>
<path d="M65.6191 14.7281C66.007 14.0492 66.4869 13.528 67.1527 13.0762C67.8435 14.2707 67.8672 15.4466 67.4841 16.6543C67.2446 17.4092 66.7634 18.0031 66.1914 18.5375C65.7984 18.9045 65.5875 18.8107 65.4215 18.336C64.9964 17.1208 65.0594 15.9355 65.6191 14.7281Z" fill="#F6CB61"/>
<path d="M5.15241 23.93C4.41812 24.2343 4.34616 24.188 4.32927 23.4498C4.28593 21.5551 5.10477 20.1917 6.8009 19.3745C7.35452 19.1077 7.46829 19.1833 7.50058 19.7962C7.59889 21.6628 6.82829 23.0315 5.15241 23.93Z" fill="#F6CB61"/>
<path d="M3.30197 11.2167C3.05314 9.79557 3.4431 8.30375 4.19047 7.72852C5.775 8.86247 6.00135 11.8977 4.54504 13.4443C3.90065 12.8477 3.52586 12.1098 3.30197 11.2167Z" fill="#F6CB61"/>
<path d="M61.7249 21.5766C61.4434 20.9382 61.4694 20.3126 61.4844 19.6885C61.4943 19.2766 61.6696 19.1647 62.0617 19.3169C63.7431 19.9697 64.8655 21.8885 64.6442 23.7155C64.5856 24.199 64.3347 24.1576 64.0249 24.0161C62.9512 23.5257 62.1497 22.7656 61.7249 21.5766Z" fill="#F6CB61"/>
<path d="M64.2412 8.27138C64.4306 8.04269 64.5325 7.78567 64.8135 7.73047C66.2373 9.10124 66.0071 12.2602 64.4097 13.3445C63.3797 12.4352 62.9867 10.0467 64.2412 8.27138Z" fill="#F6CB61"/>
<path d="M4.91319 17.097C5.38958 15.5938 6.39065 14.715 7.81708 14.3021C8.42676 14.1256 8.55063 14.2476 8.4525 14.877C8.17306 16.6694 7.16873 17.8283 5.45192 18.3515C4.78409 18.555 4.65511 18.4277 4.76862 17.7116C4.7988 17.5212 4.85372 17.3348 4.91319 17.097Z" fill="#F6CB61"/>
<path d="M60.5441 14.9089C60.5075 14.6712 60.4304 14.4789 60.5817 14.3111C62.3793 14.1537 64.4286 16.2493 64.1706 18.3511C62.6174 18.5624 60.9375 16.9862 60.5441 14.9089Z" fill="#F6CB61"/>
<path d="M60.7219 5.60707C60.6877 4.27395 60.8402 3.63122 61.3252 2.98633C62.9595 3.73741 63.5751 6.88889 62.3114 8.40597C61.3481 7.74655 60.9023 6.78774 60.7219 5.60707Z" fill="#F6CB61"/>
<path d="M5.99961 6.41101C5.95579 4.94721 6.48023 3.81569 7.55245 2.92969C8.88987 4.1716 8.32675 7.41616 6.59863 8.38384C6.18252 7.81553 6.03596 7.16313 5.99961 6.41101Z" fill="#F6CB61"/>
<path d="M9.52094 11.6122C8.62419 12.6464 7.52823 13.0857 6.22879 13.0455C5.89989 11.2982 8.38085 9.29001 10.3877 9.69276C10.3304 10.4222 9.96054 11.0071 9.52094 11.6122Z" fill="#F6CB61"/>
<path d="M61.2442 10.4121C61.697 10.9403 62.0143 11.4947 62.2134 12.1158C62.3184 12.4433 62.2634 12.643 61.8589 12.6733C60.1521 12.8008 58.1794 11.0529 58.0898 9.25387C59.3091 9.14277 60.3262 9.56309 61.2442 10.4121Z" fill="#F6CB61"/>
<path d="M57.6778 5.17344C58.9881 5.58836 60.3463 6.93213 60.2803 8.21629C58.6217 8.53999 56.5449 7.11253 56.2238 5.43893C56.1653 5.13432 56.25 4.961 56.5614 4.98934C56.9193 5.0219 57.2732 5.09903 57.6778 5.17344Z" fill="#F6CB61"/>
<path d="M10.1707 5.8121C10.9937 5.21948 11.8602 4.94174 12.828 4.99214C12.9349 6.78489 10.6822 8.56064 8.70801 8.2372C8.79198 7.19551 9.3896 6.47586 10.1707 5.8121Z" fill="#F6CB61"/>
</svg>
