<svg width="39" height="41" viewBox="0 0 39 41" fill="none" xmlns="http://www.w3.org/2000/svg">
<path d="M14.3458 36.8116V31.1243C14.3458 29.6777 15.5251 28.5023 16.9862 28.4926H22.3385C23.8066 28.4926 24.9967 29.6709 24.9967 31.1243V36.8292C24.9964 38.0574 25.9866 39.0612 27.2268 39.09H30.795C34.352 39.09 37.2355 36.2353 37.2355 32.7139V16.5353C37.2165 15.1499 36.5595 13.849 35.4514 13.0028L23.2483 3.27089C21.1105 1.57637 18.0715 1.57637 15.9336 3.27089L3.78408 13.0205C2.67181 13.8633 2.0137 15.1663 2 16.5529V32.7139C2 36.2353 4.88352 39.09 8.44051 39.09H12.0087C13.2797 39.09 14.3101 38.0699 14.3101 36.8116" stroke="#D0C7B4" strokeWidth="3" strokeLinecap="round" strokeLinejoin="round"/>
</svg>
