<svg width="20" height="20" viewBox="0 0 20 20" fill="none" xmlns="http://www.w3.org/2000/svg">
<path d="M10 0C15.524 0 20.002 4.478 20.002 10.002C20.002 15.525 15.524 20.002 10 20.002C4.476 20.003 1.6749e-07 15.525 1.6749e-07 10.002C-0.000999833 4.478 4.476 0 10 0ZM9.996 8.25C9.75093 8.25033 9.51452 8.34065 9.33165 8.50379C9.14878 8.66694 9.03218 8.89156 9.004 9.135L8.997 9.251L9.001 14.753L9.007 14.869C9.03495 15.1129 9.15164 15.338 9.33485 15.5014C9.51807 15.6649 9.75499 15.7552 10.0005 15.7552C10.246 15.7552 10.4829 15.6649 10.6661 15.5014C10.8494 15.338 10.9661 15.1129 10.994 14.869L11 14.752L10.996 9.25L10.989 9.133C10.9601 8.88976 10.8429 8.66559 10.6597 8.50301C10.4765 8.34043 10.24 8.25076 9.995 8.251M10 4.502C9.66808 4.502 9.34976 4.63385 9.11506 4.86856C8.88035 5.10326 8.7485 5.42158 8.7485 5.7535C8.7485 6.08542 8.88035 6.40374 9.11506 6.63844C9.34976 6.87315 9.66808 7.005 10 7.005C10.3319 7.005 10.6502 6.87315 10.8849 6.63844C11.1196 6.40374 11.2515 6.08542 11.2515 5.7535C11.2515 5.42158 11.1196 5.10326 10.8849 4.86856C10.6502 4.63385 10.3319 4.502 10 4.502Z" fill="white"/>
</svg>
