<svg width="39" height="39" viewBox="0 0 39 39" fill="none" xmlns="http://www.w3.org/2000/svg">
<path d="M25.6667 38H13.3333M25.6667 38V20.7324C25.6667 20.4053 25.5367 20.0916 25.3054 19.8603C25.0741 19.629 24.7604 19.499 24.4333 19.499H14.5667C14.2396 19.499 13.9259 19.629 13.6946 19.8603C13.4633 20.0916 13.3333 20.4053 13.3333 20.7324V38M25.6667 38H36.7667C37.0938 38 37.4075 37.8701 37.6388 37.6387C37.8701 37.4074 38 37.0937 38 36.7666V32.0386C38 31.7115 37.8701 31.3977 37.6388 31.1664C37.4075 30.9351 37.0938 30.8052 36.7667 30.8052H26.9C26.5729 30.8052 26.2592 30.9351 26.0279 31.1664C25.7966 31.3977 25.6667 31.7115 25.6667 32.0386V38ZM13.3333 38V27.9272C13.3333 27.6001 13.2034 27.2864 12.9721 27.0551C12.7408 26.8238 12.4271 26.6938 12.1 26.6938H2.23333C1.90623 26.6938 1.59253 26.8238 1.36123 27.0551C1.12994 27.2864 1 27.6001 1 27.9272V36.7666C1 37.0937 1.12994 37.4074 1.36123 37.6387C1.59253 37.8701 1.90623 38 2.23333 38H13.3333ZM17.0457 5.34165L18.9142 1.38038C18.9646 1.26714 19.0468 1.17094 19.1508 1.10344C19.2547 1.03593 19.376 1 19.5 1C19.624 1 19.7453 1.03593 19.8492 1.10344C19.9532 1.17094 20.0354 1.26714 20.0858 1.38038L21.9564 5.34165L26.1333 5.98096C26.6698 6.06318 26.8836 6.75389 26.4951 7.14858L23.4734 10.2321L24.1867 14.586C24.2771 15.1451 23.718 15.5727 23.237 15.3075L19.5 13.2518L15.763 15.3075C15.2841 15.5706 14.7229 15.1451 14.8133 14.586L15.5266 10.2321L12.5049 7.14858C12.1144 6.75389 12.3302 6.06318 12.8647 5.98096L17.0457 5.34165Z" stroke="#93ABBB" stroke-width="2" stroke-linecap="round" stroke-linejoin="round"/>
</svg>
