<svg width="31" height="31" viewBox="0 0 31 31" fill="none" xmlns="http://www.w3.org/2000/svg">
<path opacity="0.4" d="M15.5 31C6.95175 31 9.53674e-07 24.0467 9.53674e-07 15.5C9.53674e-07 6.9533 6.95175 0 15.5 0C24.0467 0 31 6.9533 31 15.5C31 24.0467 24.0467 31 15.5 31Z" fill="#6491B1"/>
<path d="M17.7359 22.0413C17.4399 22.0413 17.1423 21.9282 16.916 21.7019L11.5111 16.3234C11.2926 16.1048 11.1701 15.8088 11.1701 15.4988C11.1701 15.1903 11.2926 14.8943 11.5111 14.6757L16.916 9.29414C17.3701 8.84154 18.1048 8.84154 18.559 9.29724C19.0116 9.75294 19.01 10.4892 18.5559 10.9418L13.9787 15.4988L18.5559 20.0558C19.01 20.5084 19.0116 21.2431 18.559 21.6988C18.3327 21.9282 18.0335 22.0413 17.7359 22.0413Z" fill="#6491B1"/>
</svg>
