<svg width="18" height="20" viewBox="0 0 18 20" fill="none" xmlns="http://www.w3.org/2000/svg">
<path d="M13 6V5C13 3.93913 12.5786 2.92172 11.8284 2.17157C11.0783 1.42143 10.0609 1 9 1C7.93913 1 6.92172 1.42143 6.17157 2.17157C5.42143 2.92172 5 3.93913 5 5V6" fill="#54555A"/>
<path d="M13 6V5C13 3.93913 12.5786 2.92172 11.8284 2.17157C11.0783 1.42143 10.0609 1 9 1C7.93913 1 6.92172 1.42143 6.17157 2.17157C5.42143 2.92172 5 3.93913 5 5V6" stroke="#54555A" stroke-width="2" stroke-linecap="round"/>
<path fill-rule="evenodd" clip-rule="evenodd" d="M0.879 5.879C-5.96046e-08 6.757 0 8.172 0 11V12C0 15.771 -1.19209e-07 17.657 1.172 18.828C2.343 20 4.229 20 8 20H10C13.771 20 15.657 20 16.828 18.828C18 17.657 18 15.771 18 12V11C18 8.172 18 6.757 17.121 5.879C16.243 5 14.828 5 12 5H6C3.172 5 1.757 5 0.879 5.879ZM9 13C9.26522 13 9.51957 12.8946 9.70711 12.7071C9.89464 12.5196 10 12.2652 10 12C10 11.7348 9.89464 11.4804 9.70711 11.2929C9.51957 11.1054 9.26522 11 9 11C8.73478 11 8.48043 11.1054 8.29289 11.2929C8.10536 11.4804 8 11.7348 8 12C8 12.2652 8.10536 12.5196 8.29289 12.7071C8.48043 12.8946 8.73478 13 9 13ZM12 12C12.0002 12.6206 11.8079 13.226 11.4498 13.7329C11.0916 14.2397 10.5851 14.623 10 14.83V17H8V14.83C7.48115 14.6468 7.02264 14.3245 6.67461 13.8984C6.32657 13.4722 6.1024 12.9585 6.02661 12.4135C5.95081 11.8686 6.02631 11.3132 6.24485 10.8082C6.46339 10.3033 6.81655 9.8681 7.26573 9.55031C7.71491 9.23251 8.24282 9.04433 8.79173 9.00632C9.34065 8.96832 9.88946 9.08197 10.3781 9.33483C10.8668 9.5877 11.2766 9.97005 11.5626 10.4401C11.8487 10.9101 12 11.4498 12 12Z" fill="#54555A"/>
</svg>
