<svg width="30" height="30" viewBox="0 0 30 30" fill="none" xmlns="http://www.w3.org/2000/svg">
<path fill-rule="evenodd" clip-rule="evenodd" d="M10.6846 15.1816C10.6846 14.5603 11.1635 14.0566 11.7543 14.0566H28.9283C29.5191 14.0566 29.998 14.5603 29.998 15.1816C29.998 15.8029 29.5191 16.3066 28.9283 16.3066H11.7543C11.1635 16.3066 10.6846 15.8029 10.6846 15.1816Z" fill="#C4CBDB"/>
<path fill-rule="evenodd" clip-rule="evenodd" d="M23.9961 10.0147C24.413 9.5745 25.0903 9.57303 25.5089 10.0115L29.6851 14.3855C29.8867 14.5965 30.0001 14.8835 30.0001 15.1826C30.0001 15.4818 29.8867 15.7686 29.6851 15.9797L25.5089 20.3537C25.0903 20.7921 24.413 20.7906 23.9961 20.3505C23.5792 19.9103 23.5806 19.1979 23.9992 18.7595L27.4143 15.1826L23.9992 11.6057C23.5806 11.1673 23.5792 10.455 23.9961 10.0147Z" fill="#C4CBDB"/>
<path fill-rule="evenodd" clip-rule="evenodd" d="M18.2273 3.67514C19.3351 4.53846 19.8889 5.94983 20.1167 8.54826C20.1709 9.16697 20.6918 9.62228 21.2801 9.56525C21.8683 9.50822 22.3014 8.96043 22.247 8.34174C22.0041 5.57018 21.367 3.32154 19.501 1.86737C17.712 0.473175 15.0166 0 11.1978 0C6.13474 0 3.02179 0.83481 1.42425 3.56991C0.662841 4.8735 0.326364 6.48795 0.162854 8.33609C-4.25068e-08 10.177 0 12.3885 0 14.9526V15.0474C0 17.6115 -4.25068e-08 19.8231 0.162854 21.6639C0.326364 23.512 0.662841 25.1265 1.42425 26.4301C3.02179 29.1652 6.13474 30 11.1978 30C15.0166 30 17.712 29.5269 19.501 28.1326C21.367 26.6785 22.0041 24.4299 22.247 21.6583C22.3014 21.0396 21.8683 20.4918 21.2801 20.4348C20.6918 20.3778 20.1709 20.833 20.1167 21.4518C19.8889 24.0502 19.3351 25.4616 18.2273 26.3248C17.0425 27.2482 14.9812 27.75 11.1978 27.75C6.13282 27.75 4.18171 26.8524 3.24723 25.2525C2.74262 24.3885 2.44609 23.1849 2.29309 21.4555C2.14047 19.7302 2.13944 17.6208 2.13944 15C2.13944 12.3792 2.14047 10.2698 2.29309 8.54454C2.44609 6.81518 2.74262 5.6115 3.24723 4.74759C4.18171 3.14769 6.13282 2.25 11.1978 2.25C14.9812 2.25 17.0425 2.75181 18.2273 3.67514Z" fill="#C4CBDB"/>
</svg>
