<svg width="13" height="13" viewBox="0 0 13 13" fill="none" xmlns="http://www.w3.org/2000/svg">
<path opacity="0.4" d="M0 2.89055C0 1.2974 1.31966 0 2.94095 0H6.16567C7.78365 0 9.1 1.2935 9.1 2.88405V10.1094C9.1 11.7032 7.78034 13 6.15839 13H2.93499C1.31635 13 0 11.7065 0 10.1159V9.50495V2.89055Z" fill="#52768F"/>
<path d="M12.8562 6.14436L11.0064 4.25351C10.8153 4.05851 10.5076 4.05851 10.317 4.25481C10.1271 4.45111 10.1278 4.76766 10.3183 4.96266L11.3318 5.99811H10.3601H4.90639C4.63735 5.99811 4.41895 6.22236 4.41895 6.49861C4.41895 6.77551 4.63735 6.99911 4.90639 6.99911H11.3318L10.3183 8.03456C10.1278 8.22956 10.1271 8.54611 10.317 8.74241C10.4126 8.84056 10.5373 8.88996 10.6627 8.88996C10.7868 8.88996 10.9115 8.84056 11.0064 8.74371L12.8562 6.85351C12.948 6.75926 12.9999 6.63186 12.9999 6.49861C12.9999 6.36601 12.948 6.23861 12.8562 6.14436Z" fill="#52768F"/>
</svg>
