<svg width="40" height="30" viewBox="0 0 40 30" fill="none" xmlns="http://www.w3.org/2000/svg">
<path d="M30.5508 13.1728C33.1052 12.8139 35.0719 10.6238 35.0774 7.9705C35.0774 5.35561 33.1712 3.18752 30.6716 2.77734" stroke="#93ABBB" stroke-width="2" stroke-linecap="round" stroke-linejoin="round"/>
<path d="M33.9214 19.3125C36.3953 19.6824 38.1221 20.5485 38.1221 22.3339C38.1221 23.5626 37.309 24.361 35.9943 24.8627" stroke="#93ABBB" stroke-width="2" stroke-linecap="round" stroke-linejoin="round"/>
<path fill-rule="evenodd" clip-rule="evenodd" d="M19.5618 20.0703C13.6764 20.0703 8.6499 20.9621 8.6499 24.5237C8.6499 28.0834 13.6453 29.0009 19.5618 29.0009C25.4471 29.0009 30.4718 28.1182 30.4718 24.5548C30.4718 20.9914 25.4782 20.0703 19.5618 20.0703Z" stroke="#93ABBB" stroke-width="2" stroke-linecap="round" stroke-linejoin="round"/>
<path fill-rule="evenodd" clip-rule="evenodd" d="M19.5621 14.9864C23.424 14.9864 26.5553 11.8569 26.5553 7.99318C26.5553 4.13127 23.424 1 19.5621 1C15.7002 1 12.5689 4.13127 12.5689 7.99318C12.5543 11.8423 15.6618 14.9735 19.5109 14.9864H19.5621Z" stroke="#93ABBB" stroke-width="2" stroke-linecap="round" stroke-linejoin="round"/>
<path d="M8.57202 13.1728C6.01573 12.8139 4.0509 10.6238 4.04541 7.9705C4.04541 5.35561 5.95164 3.18752 8.45117 2.77734" stroke="#93ABBB" stroke-width="2" stroke-linecap="round" stroke-linejoin="round"/>
<path d="M5.20067 19.3125C2.72678 19.6824 1 20.5485 1 22.3339C1 23.5626 1.81303 24.361 3.1278 24.8627" stroke="#93ABBB" stroke-width="2" stroke-linecap="round" stroke-linejoin="round"/>
</svg>
