<svg width="12" height="12" viewBox="0 0 12 12" fill="none" xmlns="http://www.w3.org/2000/svg">
<path d="M3.81551 0C4.06281 0 4.25712 0.196532 4.25712 0.433526C4.25712 0.606936 4.40432 0.745665 4.58096 0.745665H5.16389C6.05299 0.751445 6.77723 1.46243 6.78312 2.32948V2.43931C7.34249 2.43931 7.90186 2.45087 8.46713 2.45665C10.5103 2.45665 12 3.91329 12 5.92486V8.50867C12 10.5202 10.5103 11.9769 8.46713 11.9769C7.64868 11.9942 6.83023 12 6.00589 12C5.18155 12 4.35132 11.9942 3.53288 11.9769C1.4897 11.9769 0 10.5202 0 8.50867V5.92486C0 3.91329 1.4897 2.45665 3.53876 2.45665C4.31011 2.44509 5.09912 2.43353 5.8999 2.43353V2.33526C5.8999 1.93642 5.56428 1.61272 5.16389 1.61272H4.58096C3.9156 1.61272 3.3739 1.08092 3.3739 0.433526C3.3739 0.196532 3.57409 0 3.81551 0ZM4.25123 5.73988C4.00393 5.73988 3.80962 5.93642 3.80962 6.17341V6.78035H3.18548C2.94406 6.78035 2.74387 6.97688 2.74387 7.21387C2.74387 7.45665 2.94406 7.6474 3.18548 7.6474H3.80962V8.26012C3.80962 8.49711 4.00393 8.69364 4.25123 8.69364C4.49264 8.69364 4.69284 8.49711 4.69284 8.26012V7.6474H5.31109C5.5525 7.6474 5.7527 7.45665 5.7527 7.21387C5.7527 6.97688 5.5525 6.78035 5.31109 6.78035H4.69284V6.17341C4.69284 5.93642 4.49264 5.73988 4.25123 5.73988ZM8.87929 7.79191H8.82041C8.57252 7.79191 8.3788 7.98844 8.3788 8.22543C8.3788 8.46821 8.57252 8.65896 8.82041 8.65896H8.87929C9.12071 8.65896 9.3209 8.46821 9.3209 8.22543C9.3209 7.98844 9.12071 7.79191 8.87929 7.79191ZM7.87242 5.80347H7.81354C7.56624 5.80347 7.37193 6 7.37193 6.23699C7.37193 6.47977 7.56624 6.67052 7.81354 6.67052H7.87242C8.11384 6.67052 8.31403 6.47977 8.31403 6.23699C8.31403 6 8.11384 5.80347 7.87242 5.80347Z" fill="white"/>
</svg>
