<svg width="35" height="47" viewBox="0 0 35 47" fill="none" xmlns="http://www.w3.org/2000/svg">
<path fillRule="evenodd" clipRule="evenodd" d="M17.2803 44.9984C9.03846 44.9984 2 43.7158 2 38.5795C2 33.443 8.99381 28.7012 17.2803 28.7012C25.5225 28.7012 32.5609 33.397 32.5609 38.5335C32.5609 43.6678 25.5671 44.9984 17.2803 44.9984Z" stroke="#D0C7B4" strokeWidth="3" strokeLinecap="round" strokeLinejoin="round"/>
<path fillRule="evenodd" clipRule="evenodd" d="M17.264 21.5872C22.6729 21.5872 27.0566 17.2033 27.0566 11.7946C27.0566 6.38585 22.6729 2 17.264 2C11.8554 2 7.46954 6.38585 7.46954 11.7946C7.45128 17.1851 11.8047 21.5689 17.195 21.5872C17.2194 21.5872 17.2417 21.5872 17.264 21.5872Z" stroke="#D0C7B4" strokeWidth="3" strokeLinecap="round" strokeLinejoin="round"/>
</svg>
