<svg width="21" height="23" viewBox="0 0 21 23" fill="none" xmlns="http://www.w3.org/2000/svg">
<path d="M10.4836 0C10.1424 0 9.80113 0.0765227 9.53683 0.229568L1.09746 5.11508C0.568728 5.42117 0.568728 5.90518 1.09746 6.21128L9.53683 11.0968C10.0656 11.4029 10.9016 11.4029 11.4303 11.0968L19.8697 6.21128C20.3984 5.90524 20.3984 5.42117 19.8697 5.11513L11.4303 0.229623C11.1659 0.0764674 10.8248 0 10.4836 0ZM10.4381 2.9365C10.936 2.94187 11.3838 3.05604 11.7812 3.27886C12.053 3.43136 12.2311 3.60525 12.3152 3.8007C12.3966 3.99461 12.4014 4.25022 12.3296 4.56731L12.2412 4.8828C12.1826 5.10855 12.1705 5.27094 12.2047 5.36991C12.2362 5.46745 12.3143 5.55116 12.4391 5.62115L12.6264 5.7261L10.7902 6.75561L10.5862 6.64133C10.3586 6.51383 10.2136 6.36974 10.1506 6.20895C10.085 6.04667 10.0959 5.78858 10.1835 5.4346L10.2677 5.11679C10.3167 4.92753 10.3214 4.77233 10.282 4.65135C10.2459 4.52838 10.1641 4.43113 10.0365 4.35958C9.8423 4.25066 9.60964 4.21162 9.3387 4.2422C9.06489 4.27128 8.78224 4.3676 8.49064 4.53109C8.21595 4.68508 7.9665 4.87788 7.74202 5.10944C7.51484 5.33956 7.31993 5.60285 7.15711 5.89943L5.85048 5.16672C6.14429 4.87147 6.43297 4.61326 6.71656 4.39193C7.0002 4.17076 7.29965 3.97172 7.61501 3.79478C8.44241 3.33089 9.21185 3.05499 9.92329 2.96724C10.094 2.94528 10.2661 2.93499 10.4382 2.93645L10.4381 2.9365ZM13.2423 6.0715L14.7238 6.90219L12.8876 7.93171L11.4061 7.10107L13.2423 6.0715ZM0.533921 7.13673C0.216077 7.12816 0 7.37648 0 7.81571V16.5349C0 17.1459 0.418231 17.8709 0.946959 18.1765L9.06462 22.8678C9.59335 23.1733 10.0116 22.9317 10.0116 22.3207V13.6014C10.0116 12.9903 9.59335 12.2655 9.06462 11.9599L0.946959 7.2686C0.798341 7.18263 0.658286 7.13994 0.533921 7.13662V7.13673ZM20.4661 7.13685C20.3418 7.14016 20.2018 7.18274 20.0532 7.26872L11.9352 11.96C11.4065 12.2656 10.9883 12.9905 10.9883 13.6016V22.321C10.9883 22.9319 11.4065 23.1734 11.9352 22.8678L20.0532 18.1767C20.5819 17.8711 21 17.1463 21 16.5352V7.81582C21 7.3767 20.784 7.12844 20.4661 7.13696V7.13685ZM2.70121 10.6618C3.06325 10.7373 3.39391 10.8297 3.69314 10.9389C3.9931 11.0485 4.28296 11.184 4.55944 11.3439C5.28943 11.7658 5.84595 12.2465 6.22893 12.786C6.61192 13.3224 6.80341 13.8944 6.80341 14.5023C6.80341 14.8141 6.74512 15.0604 6.62838 15.2412C6.5117 15.4188 6.31269 15.5679 6.03148 15.6887L5.74418 15.7949C5.54076 15.8746 5.40756 15.9567 5.34474 16.0415C5.28192 16.1228 5.25054 16.2351 5.25054 16.3783V16.5931L3.63038 15.6568V15.423C3.63038 15.162 3.67966 14.9599 3.77844 14.8164C3.87717 14.6698 4.08518 14.5322 4.40231 14.4036L4.6896 14.2927C4.86015 14.2258 4.9843 14.1416 5.06209 14.0401C5.14275 13.9405 5.18319 13.8174 5.18319 13.671C5.18319 13.4484 5.11137 13.2334 4.96772 13.0263C4.82408 12.816 4.62369 12.6365 4.36634 12.4878C4.12397 12.3478 3.86215 12.2506 3.58088 12.1963C3.29966 12.1388 3.0064 12.127 2.70121 12.1606V10.6618ZM17.5929 11.1376C17.677 11.1376 17.7549 11.1468 17.8267 11.1649C18.2097 11.2587 18.4012 11.6094 18.4012 12.2173C18.4012 12.5292 18.3428 12.8429 18.2261 13.1585C18.1095 13.4709 17.9105 13.8501 17.6292 14.2958L17.3419 14.7339C17.1385 15.0488 17.0053 15.2847 16.9425 15.442C16.8797 15.596 16.8483 15.7446 16.8483 15.8878V16.1026L15.2281 17.0388V16.8049C15.2281 16.5439 15.2775 16.2846 15.3762 16.0271C15.4751 15.7664 15.6829 15.3885 16.0001 14.8934L16.2874 14.4506C16.4579 14.1865 16.5821 13.9588 16.6598 13.7675C16.7405 13.5744 16.781 13.4047 16.781 13.2583C16.781 13.0356 16.7091 12.9036 16.5656 12.8625C16.4219 12.8183 16.2214 12.8704 15.9641 13.019C15.7217 13.159 15.46 13.3645 15.1787 13.6352C14.8975 13.9028 14.6043 14.2297 14.2991 14.6161V13.1171C14.6611 12.7743 14.9917 12.4846 15.2908 12.2481C15.5901 12.0115 15.8789 11.8129 16.1571 11.6522C16.7503 11.3094 17.2289 11.1379 17.593 11.1376L17.5929 11.1376ZM3.63032 16.3635L5.25054 17.2995V18.999L3.63038 18.0629V16.3635L3.63032 16.3635ZM16.8483 16.8091V18.5085L15.2281 19.4446V17.7453L16.8483 16.8091Z" fill="white"/>
</svg>
