<svg width="12" height="13" viewBox="0 0 12 13" fill="none" xmlns="http://www.w3.org/2000/svg">
<path fill-rule="evenodd" clip-rule="evenodd" d="M5.64461 1.3C5.39753 1.3 5.15286 1.35044 4.92458 1.44843C4.6963 1.54643 4.48888 1.69007 4.31416 1.87114C4.13945 2.05222 4.00085 2.26718 3.9063 2.50377C3.81174 2.74035 3.76307 2.99392 3.76307 3.25C3.76307 3.50608 3.81174 3.75965 3.9063 3.99623C4.00085 4.23282 4.13945 4.44778 4.31416 4.62886C4.48888 4.80993 4.6963 4.95357 4.92458 5.05157C5.15286 5.14956 5.39753 5.2 5.64461 5.2C6.14363 5.2 6.6222 4.99455 6.97506 4.62886C7.32792 4.26316 7.52615 3.76717 7.52615 3.25C7.52615 2.73283 7.32792 2.23684 6.97506 1.87114C6.6222 1.50545 6.14363 1.3 5.64461 1.3ZM2.50872 3.25C2.50872 2.38805 2.8391 1.5614 3.4272 0.951903C4.01529 0.34241 4.81292 0 5.64461 0C6.4763 0 7.27393 0.34241 7.86203 0.951903C8.45012 1.5614 8.78051 2.38805 8.78051 3.25C8.78051 4.11195 8.45012 4.9386 7.86203 5.5481C7.27393 6.15759 6.4763 6.5 5.64461 6.5C4.81292 6.5 4.01529 6.15759 3.4272 5.5481C2.8391 4.9386 2.50872 4.11195 2.50872 3.25ZM1.51338 10.1406C1.3108 10.4071 1.25436 10.6086 1.25436 10.725C1.25436 10.8043 1.27756 10.8881 1.41429 11.0019C1.57046 11.1319 1.84203 11.2664 2.25722 11.3802C3.08384 11.6077 4.27172 11.7 5.64461 11.7C5.78385 11.7 5.9212 11.6987 6.0573 11.6968C6.22363 11.6944 6.38405 11.7607 6.50326 11.8809C6.62247 12.0012 6.6907 12.1656 6.69294 12.338C6.69519 12.5104 6.63126 12.6766 6.51523 12.8002C6.3992 12.9237 6.24057 12.9944 6.07423 12.9968C5.93249 12.9987 5.78886 13 5.64461 13C4.24663 13 2.92579 12.909 1.9361 12.6373C1.44377 12.5021 0.980281 12.3084 0.629061 12.0159C0.257143 11.7065 0 11.2742 0 10.725C0 10.2134 0.22453 9.73505 0.529339 9.33465C0.839166 8.9284 1.26753 8.55465 1.7699 8.23615C2.77527 7.60175 4.14252 7.15 5.64461 7.15C5.92496 7.15 6.20092 7.1656 6.46998 7.1955C6.6354 7.21369 6.78708 7.29923 6.89164 7.43332C6.99621 7.56741 7.04509 7.73906 7.02754 7.9105C7.00999 8.08194 6.92745 8.23914 6.79807 8.34751C6.66869 8.45587 6.50307 8.50654 6.33764 8.48835C6.11186 8.463 5.8798 8.45 5.64461 8.45C4.37583 8.45 3.23436 8.8335 2.42342 9.34635C2.01764 9.60245 1.71094 9.88065 1.51338 10.1406ZM9.14804 8.56115C9.03035 8.43927 8.87077 8.37083 8.7044 8.37089C8.53803 8.37095 8.37849 8.43951 8.26089 8.56147C8.14329 8.68344 8.07725 8.84883 8.07731 9.02125C8.07737 9.19368 8.14352 9.35902 8.2612 9.4809L9.14804 10.4L8.2612 11.3191C8.2013 11.3791 8.15352 11.4508 8.12065 11.5301C8.08778 11.6094 8.07048 11.6947 8.06976 11.781C8.06903 11.8673 8.0849 11.9529 8.11644 12.0328C8.14797 12.1127 8.19454 12.1852 8.25343 12.2463C8.31232 12.3073 8.38234 12.3556 8.45942 12.3882C8.5365 12.4209 8.61909 12.4374 8.70236 12.4366C8.78564 12.4359 8.86794 12.4179 8.94446 12.3839C9.02097 12.3498 9.09018 12.3003 9.14804 12.2382L10.0349 11.3191L10.9217 12.2382C10.9796 12.3003 11.0488 12.3498 11.1253 12.3839C11.2018 12.4179 11.2841 12.4359 11.3674 12.4366C11.4506 12.4374 11.5332 12.4209 11.6103 12.3882C11.6874 12.3556 11.7574 12.3073 11.8163 12.2463C11.8752 12.1852 11.9218 12.1127 11.9533 12.0328C11.9848 11.9529 12.0007 11.8673 12 11.781C11.9993 11.6947 11.982 11.6094 11.9491 11.5301C11.9162 11.4508 11.8684 11.3791 11.8085 11.3191L10.9217 10.4L11.8085 9.4809C11.9228 9.35831 11.986 9.19412 11.9846 9.02369C11.9831 8.85326 11.9172 8.69023 11.8009 8.56972C11.6846 8.4492 11.5273 8.38084 11.3629 8.37936C11.1984 8.37788 11.04 8.4434 10.9217 8.5618L10.0349 9.4809L9.14804 8.56115Z" fill="#6491B1"/>
</svg>
