<svg width="31" height="31" viewBox="0 0 31 31" fill="none" xmlns="http://www.w3.org/2000/svg">
<path opacity="0.4" d="M15.5 9.53674e-07C24.0482 9.53674e-07 31 6.9533 31 15.5C31 24.0467 24.0482 31 15.5 31C6.9533 31 0 24.0467 0 15.5C0 6.9533 6.9533 9.53674e-07 15.5 9.53674e-07Z" fill="#6491B1"/>
<path d="M13.2641 8.95866C13.5601 8.95866 13.8577 9.07181 14.084 9.29811L19.4889 14.6766C19.7074 14.8952 19.8299 15.1912 19.8299 15.5012C19.8299 15.8097 19.7074 16.1057 19.4889 16.3243L14.084 21.7059C13.6299 22.1585 12.8952 22.1585 12.441 21.7028C11.9884 21.2471 11.99 20.5108 12.4441 20.0582L17.0213 15.5012L12.4441 10.9442C11.99 10.4916 11.9884 9.75691 12.441 9.30121C12.6673 9.07181 12.9665 8.95866 13.2641 8.95866Z" fill="#6491B1"/>
</svg>
