<svg width="24" height="20" viewBox="0 0 24 20" fill="none" xmlns="http://www.w3.org/2000/svg">
<path d="M23.1698 10.0458C23.628 10.0458 24 10.4174 24 10.8761C24 11.3337 23.628 11.7041 23.1698 11.7041H22.0113V15.6592C22.0113 18.0541 20.0618 20 17.6662 20H15.9284C15.4691 20 15.0971 19.6285 15.0971 19.1698C15.0971 18.7121 15.4691 18.3406 15.9284 18.3406H17.6662C19.1465 18.3406 20.3509 17.1388 20.3509 15.6592V11.7041H17.4895V12.8057C17.5004 14.184 16.3931 15.3106 15.0131 15.3236H8.98691C7.608 15.3106 6.50073 14.184 6.51164 12.8057V11.7041H3.65018V15.6636C3.65018 17.1377 4.85127 18.3373 6.32727 18.3395L8.10327 18.3406C8.56145 18.3406 8.93345 18.7121 8.93345 19.1698C8.93236 19.6285 8.56145 20 8.10218 20L6.32509 19.9989C3.93491 19.9967 1.98873 18.0519 1.98873 15.6636V11.7041H0.831273C0.373091 11.7041 0 11.3337 0 10.8761C0 10.4174 0.373091 10.0458 0.831273 10.0458H23.1698ZM15.0136 4.15851C15.6736 4.15851 16.3075 4.42327 16.7689 4.89505C17.2336 5.37118 17.4911 6.01075 17.49 6.67647V8.06021C17.4845 8.22255 17.3547 8.35439 17.1922 8.35875H6.80673C6.64527 8.3533 6.51545 8.22146 6.51209 8.06021V6.67647C6.50018 5.29818 7.60855 4.17267 8.98745 4.15851H15.0136ZM17.6657 0.000326867C20.0625 0.000326867 22.0108 1.94627 22.0108 4.34003V6.40256C22.0108 6.86017 21.6399 7.2328 21.1807 7.2328C20.7225 7.2328 20.3505 6.86017 20.3505 6.40256V4.34003C20.3505 2.8615 19.1461 1.65863 17.6657 1.65863H15.9279C15.4697 1.65863 15.0977 1.28818 15.0977 0.830569C15.0977 0.371866 15.4697 0.000326867 15.9279 0.000326867H17.6657ZM8.10295 0C8.56113 0 8.93313 0.371539 8.93313 0.830242C8.93313 1.28786 8.56222 1.65939 8.10295 1.65939L6.32585 1.66048C4.85095 1.66266 3.65095 2.86226 3.65095 4.33643V6.40223C3.65095 6.85985 3.27785 7.23247 2.81967 7.23247C2.36149 7.23247 1.98949 6.85985 1.98949 6.40223V4.33643C1.98949 1.94813 3.93458 0.00326867 6.32476 0.00108956L8.10295 0Z" fill="black"/>
</svg>
