<svg width="69" height="59" viewBox="0 0 69 59" fill="none" xmlns="http://www.w3.org/2000/svg">
<path d="M11.2987 44.534C7.68628 40.2988 5.2598 35.4559 4.17501 29.976C2.65444 22.2947 3.74378 14.9795 7.4298 8.07406C7.76326 7.44936 8.12485 6.83819 8.50396 6.24051C9.09702 5.30552 9.67022 4.41154 9.88864 3.25136C10.1999 1.59824 11.3921 0.603331 12.9612 0.0857554C13.1403 0.0266796 13.3209 -0.0638541 13.5844 0.0676092C13.6755 0.802985 13.474 1.51851 13.1477 2.19228C12.5979 3.32752 11.7297 4.13523 10.5196 4.49825C10.0136 4.65007 9.67654 4.93271 9.38886 5.36419C6.34681 9.92691 4.57325 14.9322 4.10905 20.4223C3.57046 26.7922 4.82292 32.7743 7.90328 38.3421C9.85584 41.8714 12.3709 44.9542 15.6141 47.5033C16.1838 47.9243 16.6858 48.2969 17.1878 48.6694C17.9432 49.4212 18.9075 49.8504 19.8492 50.3637C19.612 49.9831 19.3545 49.6137 19.1419 49.2196C18.679 48.3619 18.5313 47.4514 18.6629 46.4727C18.7354 45.9329 18.9414 45.9012 19.3844 46.06C21.6607 46.8759 22.8699 49.2061 22.2158 51.5561C22.7139 51.9628 23.9919 52.5072 25.0334 52.7354C24.0931 51.9514 23.4701 51.0543 23.2446 49.9181C23.1619 49.5016 22.9631 48.9789 23.2732 48.6865C23.5939 48.3843 24.0919 48.65 24.4878 48.7842C26.5199 49.4734 27.5782 51.0753 27.6011 53.5061C28.4374 53.8597 29.3488 53.966 30.2443 54.1192C31.5309 54.3393 32.7947 54.6385 34.0238 55.0823C34.2885 55.1778 34.5417 55.2302 34.8286 55.1221C36.659 54.4325 38.5833 54.1435 40.4919 53.7874C40.7823 53.7333 41.0647 53.6352 41.375 53.5508C41.3365 52.0815 41.7444 50.8048 42.7871 49.7816C43.4692 49.1123 44.3124 48.7711 45.2287 48.5863C45.6347 48.5045 45.8163 48.6508 45.8178 49.0917C45.8228 50.5867 45.1399 51.722 43.9739 52.726C44.9853 52.4814 45.8404 52.0822 46.7325 51.6885C46.5576 50.6769 46.516 49.6822 46.8692 48.7051C47.3592 47.3497 48.3344 46.5231 49.6415 46.0306C50.0787 45.8659 50.275 45.9957 50.3343 46.4511C50.4855 47.613 50.2264 48.6761 49.6087 49.6565C49.4625 49.8886 49.2938 50.1063 49.0755 50.4155C50.0564 49.963 50.8418 49.3869 51.6749 48.8113C51.229 47.8464 51.0199 46.8539 51.2426 45.8049C51.532 44.4418 52.2833 43.4232 53.4706 42.7154C53.8943 42.4628 54.1131 42.5572 54.2549 43.0304C54.5904 44.15 54.5309 45.2399 54.0865 46.3137C53.9978 46.5281 53.9 46.7387 53.8535 46.992C55.1654 46.0753 56.2477 44.9217 57.2815 43.6628C57.2952 43.6244 57.2909 43.6289 57.2909 43.6289C58.2027 42.8263 58.8653 41.8156 59.5396 40.8227C62.5044 36.4575 64.3175 31.6536 64.832 26.374C65.4591 19.9378 64.307 13.8498 61.2775 8.1368C60.9518 7.52254 60.5017 6.97169 60.2562 6.15669C60.6306 6.42609 60.7726 6.71212 60.9294 6.97749C63.1899 10.8016 64.6048 14.9223 65.1686 19.34C65.8351 24.5628 65.3015 29.6543 63.508 34.6026C62.8394 36.4473 61.9581 38.1946 61.0223 39.9618C61.0118 40.0044 61.0153 40.0011 61.0153 40.0011C60.1252 41.259 59.3022 42.5657 58.3335 43.7665C58.1856 43.9498 58.0378 44.1331 57.8256 44.3747C57.3968 44.7941 57.1778 45.2829 56.7586 45.5959C55.8736 46.4307 55.0626 47.343 54.1188 48.1589C55.3855 47.7827 56.6039 47.8167 57.8097 48.3198C58.6025 48.6507 58.6415 48.7493 58.1077 49.4352C56.7914 51.1267 54.1603 51.635 52.2995 50.5574C51.8805 50.3148 51.8695 50.2675 52.0931 49.7082C51.2445 50.2559 50.3858 50.81 49.482 51.3933C49.7347 51.5785 49.9732 51.4966 50.1904 51.4983C51.2987 51.5072 52.277 51.8791 53.1645 52.535C53.509 52.7896 53.5028 52.9981 53.202 53.3063C51.6476 54.8992 48.5889 54.9888 46.9832 53.4795C46.7635 53.2729 46.706 53.0706 46.9631 52.7307C45.862 53.159 44.8906 53.537 43.8126 53.9564C45.2144 54.0591 46.4043 54.4505 47.3514 55.4276C47.9172 56.0114 47.9106 56.1629 47.1996 56.5538C45.2644 57.6178 42.8548 57.19 41.4208 55.5266C41.2164 55.2895 40.9447 55.0582 41.53 54.6535C39.6027 55.1337 37.8358 55.2873 36.0664 55.9274C36.4565 56.224 36.7561 56.4545 37.0584 56.6811C37.5564 57.0541 37.8787 57.5574 38.0769 58.1378C38.1894 58.4671 38.1679 58.7991 37.7837 58.9496C37.4126 59.0949 37.1599 58.913 37.019 58.5723C36.5869 57.5269 35.656 57.0766 34.7422 56.6026C34.5789 56.5179 34.418 56.5082 34.253 56.5949C33.3249 57.0825 32.3607 57.5248 31.9333 58.6051C31.8047 58.9301 31.5616 59.0812 31.2173 58.9539C30.8745 58.8272 30.783 58.544 30.8786 58.218C31.0522 57.6258 31.3774 57.1231 31.8562 56.7335C32.1528 56.4922 32.4631 56.2682 32.8614 55.9648C31.1484 55.2431 29.3703 55.1618 27.5172 54.6599C27.8684 54.976 27.8584 55.1735 27.6487 55.4305C26.197 57.2102 23.5646 57.6589 21.6103 56.4628C21.1525 56.1826 21.1391 55.9374 21.4928 55.5629C22.4682 54.53 23.6677 54.0299 25.1937 53.9847C23.9796 53.4776 22.8425 53.111 21.7406 52.5048C21.8474 52.8152 22.3409 52.8838 22.1599 53.2569C22.0241 53.5369 21.7269 53.6649 21.4754 53.8235C19.7149 54.9332 17.5769 54.7943 15.9838 53.4686C15.8051 53.3199 15.6045 53.185 15.5274 52.9466C16.1767 51.9006 17.9178 51.3412 19.7636 51.5531C18.793 50.9436 17.818 50.3408 16.7814 49.6399C17.3034 50.2503 16.8768 50.4474 16.4752 50.6468C14.5442 51.6056 12.1174 51.0477 10.8105 49.3473C10.3799 48.7869 10.4049 48.6822 11.07 48.3751C12.3838 47.7685 13.7071 47.729 15.0616 48.3075C14.0086 47.3553 12.989 46.3792 11.9513 45.3017C11.695 45.0061 11.4968 44.77 11.2987 44.534Z" fill="#BDBDBD"/>
<path d="M58.1618 45.2575C58.5816 44.8999 58.8006 44.4111 59.203 44.0224C59.8886 43.6262 60.5327 43.2591 61.2725 43.0903C62.068 42.9088 62.8364 43.0269 63.6072 43.2147C64.0403 43.3202 64.064 43.5448 63.8802 43.9238C62.9242 45.896 60.4785 46.9319 58.402 46.2639C57.7258 46.0464 58.0914 45.659 58.1618 45.2575Z" fill="#BDBDBD"/>
<path d="M11.2556 45.8846C11.4964 46.134 11.6945 46.3701 11.9163 46.6417C12.5865 47.9159 12.568 47.951 11.157 48.1644C9.33103 48.4405 7.30869 47.3459 6.50124 45.667C6.30042 45.2494 6.37632 45.0697 6.83363 44.9417C8.46134 44.4863 9.8949 44.8816 11.2556 45.8846Z" fill="#BDBDBD"/>
<path d="M17.2265 50.0121C16.6859 49.665 16.1839 49.2924 15.6529 48.8838C14.5588 47.509 14.2195 46.0258 14.7453 44.3684C14.8591 44.0094 14.999 43.821 15.4335 44.0313C17.4044 44.9852 18.4101 47.8383 17.4387 49.8031C17.403 49.8754 17.324 49.9259 17.2265 50.0121Z" fill="#BDBDBD"/>
<path d="M61.0103 40.0058C61.5025 39.5059 61.9663 38.9747 62.5941 38.623C63.4639 38.1359 64.3876 37.9671 65.3697 38.0525C65.7306 38.0838 65.8406 38.2328 65.7506 38.6051C65.2638 40.6186 63.0319 42.1681 60.9835 41.9261C60.4938 41.8682 60.3315 41.6669 60.5059 41.214C60.6522 40.8337 60.828 40.465 61.003 40.0458C61.0152 40.0004 61.0117 40.0038 61.0103 40.0058Z" fill="#BDBDBD"/>
<path d="M8.27996 40.7396C8.42786 41.0802 8.55789 41.3759 8.5106 41.7488C8.00559 42.0333 7.45854 41.9518 6.91862 41.8628C5.11342 41.5652 3.91585 40.5237 3.30376 38.7948C3.09294 38.1993 3.18274 38.0872 3.81812 38.0404C5.70753 37.9014 7.33644 38.8749 8.27996 40.7396Z" fill="#BDBDBD"/>
<path d="M57.2971 43.6229C56.8479 43.9999 56.5344 44.5407 55.9858 44.8017C55.0763 43.8973 54.811 42.0117 55.3859 40.6065C55.649 39.9635 56.0209 39.3888 56.5312 38.9163C57.0556 38.4307 57.2048 38.4562 57.5028 39.0903C58.2143 40.604 58.1074 42.0877 57.3059 43.5855C57.291 43.63 57.2954 43.6255 57.2971 43.6229Z" fill="#BDBDBD"/>
<path d="M13.8878 42.0894C13.8993 43.1201 13.6508 44.0035 13.0669 44.7815C11.4323 43.9312 10.7963 41.8812 11.0478 40.4711C11.1348 39.9828 11.2644 39.5065 11.4917 39.0607C11.7932 38.4696 11.9341 38.4291 12.4291 38.8977C13.3224 39.7434 13.8246 40.7851 13.8878 42.0894Z" fill="#BDBDBD"/>
<path d="M67.9352 32.4961C67.4512 34.8484 66.1436 36.1749 64.0348 36.4997C63.4025 36.5971 63.297 36.4956 63.3903 35.8795C63.7025 33.8181 65.4442 32.1578 67.395 32.0606C67.6766 32.0465 67.9868 31.9847 67.9352 32.4961Z" fill="#BDBDBD"/>
<path d="M4.90057 34.052C5.40233 34.7875 5.59591 35.5663 5.61004 36.3987C3.79401 36.8411 1.01096 34.9377 1.07683 32.059C2.69237 32.0393 3.94714 32.688 4.90057 34.052Z" fill="#BDBDBD"/>
<path d="M10.5327 35.513C11.0878 37.1183 10.8698 38.5639 9.92328 39.9037C9.67898 40.2495 9.4504 40.3619 9.12559 39.967C7.88011 38.4525 7.85139 35.9998 9.05775 34.4463C9.38787 34.0212 9.64928 34.0067 9.92593 34.4699C10.1236 34.8008 10.3188 35.1334 10.5327 35.513Z" fill="#BDBDBD"/>
<path d="M60.1514 39.505C60.0818 39.6183 60.0364 39.6915 59.9857 39.7608C59.5409 40.3681 59.3743 40.368 58.9652 39.7617C57.8765 38.1485 57.8734 36.2318 58.957 34.6104C59.3962 33.9532 59.5845 33.9398 60.0076 34.5866C61.046 36.1739 61.0928 37.8038 60.1514 39.505Z" fill="#BDBDBD"/>
<path d="M68.7161 27.9468C68.1793 29.3521 67.2118 30.2149 65.8509 30.6646C65.3831 30.8192 65.2331 30.6555 65.217 30.1968C65.1467 28.1938 66.4827 26.3317 68.3943 25.7663C68.8003 25.6462 68.9999 25.7168 68.9999 26.187C68.9999 26.7746 68.9406 27.3469 68.7161 27.9468Z" fill="#BDBDBD"/>
<path d="M3.03074 30.6292C0.865248 29.767 -0.273442 27.9119 0.0561202 25.7344C1.03741 25.7745 1.82722 26.2374 2.49238 26.909C3.36498 27.7901 3.70421 28.9099 3.75725 30.1353C3.78018 30.6652 3.59763 30.8761 3.03074 30.6292Z" fill="#BDBDBD"/>
<path d="M6.07861 32.5309C6.1932 31.0958 6.75171 29.9807 7.90908 29.1895C9.67656 31.3963 8.30806 34.5888 6.85006 35.1132C6.25981 34.3774 6.10331 33.5016 6.07861 32.5309Z" fill="#BDBDBD"/>
<path d="M62.4211 34.6756C62.2102 35.1557 61.9749 35.1757 61.6247 34.8615C60.2309 33.6105 59.836 31.252 60.7371 29.582C61.0024 29.0903 61.2397 29.2726 61.5253 29.5345C62.8953 30.7911 63.2455 32.7264 62.4211 34.6756Z" fill="#BDBDBD"/>
<path d="M0.1619 19.9139C0.241908 19.6634 0.218684 19.426 0.415252 19.2852C1.6667 19.5479 2.91543 21.0116 3.12949 22.4704C3.21398 23.0462 3.24662 23.6189 3.13914 24.2019C3.04282 24.7243 2.81987 24.7874 2.39582 24.5322C0.673407 23.4955 -0.027503 21.9533 0.1619 19.9139Z" fill="#BDBDBD"/>
<path d="M66.3486 21.0947C66.9025 20.2231 67.5829 19.5805 68.5107 19.2344C69.5778 21.0269 68.1963 24.0985 66.008 24.7097C65.652 23.4669 65.7215 22.2853 66.3486 21.0947Z" fill="#BDBDBD"/>
<path d="M4.87817 28.5616C4.61793 26.5969 5.73135 24.6814 7.25293 24.1602C8.00716 25.2961 7.7712 27.3079 6.72936 28.5406C6.46658 28.8515 6.1718 29.1309 5.83246 29.3627C5.2584 29.7549 5.15031 29.7226 4.97741 29.0616C4.93937 28.9161 4.91586 28.7668 4.87817 28.5616Z" fill="#BDBDBD"/>
<path d="M58.7698 5.98202C56.7807 5.34931 55.6794 4.01665 55.3899 1.9825C55.3198 1.49023 55.4191 1.29934 55.9625 1.44728C57.7839 1.94312 59.1417 3.52927 59.2517 5.43819C59.2871 6.05248 59.7721 6.40145 59.9646 7.0191C59.4509 6.73564 59.3634 6.09076 58.7698 5.98202Z" fill="#BDBDBD"/>
<path d="M64.057 28.7857C63.9836 29.1103 63.9693 29.3979 63.7567 29.6086C61.8061 28.9998 60.694 26.1935 61.6855 24.2129C63.227 24.4918 64.3482 26.6159 64.057 28.7857Z" fill="#BDBDBD"/>
<path d="M2.23362 13.1662C3.74147 14.5663 4.21652 16.3282 3.5877 18.0966C3.36555 18.7213 3.244 18.7572 2.75987 18.3409C1.38679 17.1603 0.86946 15.164 1.51089 13.4732C1.6273 13.1664 1.71999 12.7262 2.23362 13.1662Z" fill="#BDBDBD"/>
<path d="M65.6191 14.5387C66.007 13.8597 66.4869 13.3385 67.1527 12.8867C67.8435 14.0813 67.8672 15.2571 67.4841 16.4648C67.2446 17.2197 66.7634 17.8136 66.1914 18.348C65.7984 18.7151 65.5875 18.6213 65.4215 18.1466C64.9964 16.9314 65.0594 15.746 65.6191 14.5387Z" fill="#BDBDBD"/>
<path d="M5.15241 23.7406C4.41812 24.0449 4.34616 23.9985 4.32927 23.2603C4.28593 21.3656 5.10477 20.0023 6.8009 19.185C7.35451 18.9183 7.46828 18.9938 7.50057 19.6068C7.59888 21.4733 6.82829 22.8421 5.15241 23.7406Z" fill="#BDBDBD"/>
<path d="M3.30197 12.3945C3.05314 10.9733 3.4431 9.48148 4.19047 8.90625C5.77499 10.0402 6.00134 13.0755 4.54504 14.622C3.90064 14.0254 3.52586 13.2875 3.30197 12.3945Z" fill="#BDBDBD"/>
<path d="M61.7249 21.3872C61.4434 20.7488 61.4694 20.1231 61.4844 19.4991C61.4943 19.0872 61.6696 18.9752 62.0617 19.1275C63.743 19.7803 64.8655 21.6991 64.6442 23.5261C64.5856 24.0095 64.3347 23.9681 64.0249 23.8266C62.9512 23.3363 62.1497 22.5762 61.7249 21.3872Z" fill="#BDBDBD"/>
<path d="M64.2412 9.44911C64.4306 9.22043 64.5325 8.9634 64.8134 8.9082C66.2373 10.279 66.0071 13.4379 64.4097 14.5222C63.3797 13.613 62.9867 11.2244 64.2412 9.44911Z" fill="#BDBDBD"/>
<path d="M4.91318 16.9075C5.38958 15.4043 6.39064 14.5255 7.81707 14.1126C8.42674 13.9361 8.55061 14.0581 8.45249 14.6875C8.17305 16.4799 7.16872 17.6389 5.45192 18.162C4.78409 18.3655 4.65511 18.2383 4.76862 17.5221C4.7988 17.3318 4.85372 17.1454 4.91318 16.9075Z" fill="#BDBDBD"/>
<path d="M60.5441 14.7195C60.5075 14.4818 60.4304 14.2894 60.5817 14.1216C62.3793 13.9642 64.4286 16.0598 64.1706 18.1617C62.6174 18.373 60.9375 16.7968 60.5441 14.7195Z" fill="#BDBDBD"/>
<path d="M60.7214 6.78285C60.6872 5.44973 60.8397 4.807 61.3247 4.16211C62.959 4.91319 63.5746 8.06467 62.3109 9.58175C61.3476 8.92233 60.9018 7.96352 60.7214 6.78285Z" fill="#BDBDBD"/>
<path d="M5.99961 7.58679C5.95579 6.123 6.48023 4.99147 7.55245 4.10547C8.88986 5.34738 8.32674 8.59194 6.59863 9.55962C6.18252 8.99131 6.03596 8.33891 5.99961 7.58679Z" fill="#BDBDBD"/>
<path d="M9.52093 12.788C8.62418 13.8222 7.52823 14.2615 6.22879 14.2213C5.89989 12.474 8.38085 10.4658 10.3877 10.8685C10.3304 11.598 9.96053 12.1829 9.52093 12.788Z" fill="#BDBDBD"/>
<path d="M61.2442 11.5898C61.697 12.118 62.0143 12.6725 62.2134 13.2935C62.3183 13.621 62.2634 13.8208 61.8589 13.851C60.1521 13.9785 58.1794 12.2306 58.0898 10.4316C59.3091 10.3205 60.3262 10.7408 61.2442 11.5898Z" fill="#BDBDBD"/>
<path d="M57.6778 6.35117C58.9881 6.76609 60.3463 8.10987 60.2802 9.39403C58.6217 9.71772 56.5449 8.29027 56.2238 6.61666C56.1653 6.31205 56.25 6.13873 56.5614 6.16707C56.9193 6.19964 57.2732 6.27677 57.6778 6.35117Z" fill="#BDBDBD"/>
<path d="M10.1707 6.98983C10.9937 6.39722 11.8602 6.11947 12.828 6.16987C12.9348 7.96262 10.6822 9.73837 8.70801 9.41494C8.79198 8.37325 9.3896 7.6536 10.1707 6.98983Z" fill="#BDBDBD"/>
</svg>
