<svg width="69" height="59" viewBox="0 0 69 59" fill="none" xmlns="http://www.w3.org/2000/svg">
<path d="M11.2992 44.534C7.68677 40.2988 5.26029 35.4559 4.1755 29.976C2.65493 22.2947 3.74427 14.9795 7.43029 8.07406C7.76375 7.44936 8.12534 6.83819 8.50445 6.24051C9.09751 5.30552 9.67071 4.41154 9.88913 3.25136C10.2004 1.59824 11.3926 0.603331 12.9617 0.0857554C13.1408 0.0266796 13.3213 -0.0638541 13.5849 0.0676092C13.676 0.802985 13.4745 1.51851 13.1482 2.19228C12.5984 3.32752 11.7302 4.13523 10.5201 4.49825C10.014 4.65007 9.67703 4.93271 9.38935 5.36419C6.3473 9.92691 4.57374 14.9322 4.10953 20.4223C3.57095 26.7922 4.82341 32.7743 7.90377 38.3421C9.85633 41.8714 12.3714 44.9542 15.6146 47.5033C16.1843 47.9243 16.6863 48.2969 17.1883 48.6694C17.9437 49.4212 18.9079 49.8504 19.8497 50.3637C19.6125 49.9831 19.355 49.6137 19.1424 49.2196C18.6794 48.3619 18.5318 47.4514 18.6634 46.4727C18.7359 45.9329 18.9419 45.9012 19.3849 46.06C21.6612 46.8759 22.8703 49.2061 22.2163 51.5561C22.7144 51.9628 23.9924 52.5072 25.0339 52.7354C24.0936 51.9514 23.4705 51.0543 23.2451 49.9181C23.1624 49.5016 22.9636 48.9789 23.2737 48.6865C23.5944 48.3843 24.0924 48.65 24.4883 48.7842C26.5204 49.4734 27.5787 51.0753 27.6016 53.5061C28.4379 53.8597 29.3493 53.966 30.2448 54.1192C31.5313 54.3393 32.7952 54.6385 34.0243 55.0823C34.289 55.1778 34.5422 55.2302 34.8291 55.1221C36.6595 54.4325 38.5838 54.1435 40.4924 53.7874C40.7828 53.7333 41.0652 53.6352 41.3755 53.5508C41.337 52.0815 41.7449 50.8048 42.7876 49.7816C43.4697 49.1123 44.3129 48.7711 45.2292 48.5863C45.6352 48.5045 45.8168 48.6508 45.8183 49.0917C45.8233 50.5867 45.1404 51.722 43.9743 52.726C44.9858 52.4814 45.8409 52.0822 46.733 51.6885C46.558 50.6769 46.5165 49.6822 46.8697 48.7051C47.3597 47.3497 48.3349 46.5231 49.642 46.0306C50.0792 45.8659 50.2755 45.9957 50.3348 46.4511C50.486 47.613 50.2269 48.6761 49.6092 49.6565C49.4629 49.8886 49.2943 50.1063 49.076 50.4155C50.0569 49.963 50.8423 49.3869 51.6754 48.8113C51.2295 47.8464 51.0204 46.8539 51.2431 45.8049C51.5325 44.4418 52.2838 43.4232 53.4711 42.7154C53.8948 42.4628 54.1136 42.5572 54.2554 43.0304C54.5909 44.15 54.5314 45.2399 54.087 46.3137C53.9983 46.5281 53.9005 46.7387 53.8539 46.992C55.1658 46.0753 56.2482 44.9217 57.282 43.6628C57.2957 43.6244 57.2913 43.6289 57.2913 43.6289C58.2032 42.8263 58.8657 41.8156 59.5401 40.8227C62.5049 36.4575 64.318 31.6536 64.8325 26.374C65.4596 19.9378 64.3075 13.8498 61.278 8.1368C60.9523 7.52254 60.5022 6.97169 60.2567 6.15669C60.6311 6.42609 60.773 6.71212 60.9299 6.97749C63.1904 10.8016 64.6053 14.9223 65.1691 19.34C65.8356 24.5628 65.302 29.6543 63.5085 34.6026C62.8399 36.4473 61.9586 38.1946 61.0228 39.9618C61.0123 40.0044 61.0158 40.0011 61.0158 40.0011C60.1257 41.259 59.3027 42.5657 58.334 43.7665C58.1861 43.9498 58.0383 44.1331 57.8261 44.3747C57.3973 44.7941 57.1783 45.2829 56.7591 45.5959C55.8741 46.4307 55.063 47.343 54.1193 48.1589C55.3859 47.7827 56.6044 47.8167 57.8102 48.3198C58.603 48.6507 58.642 48.7493 58.1082 49.4352C56.7919 51.1267 54.1608 51.635 52.3 50.5574C51.881 50.3148 51.87 50.2675 52.0936 49.7082C51.245 50.2559 50.3863 50.81 49.4825 51.3933C49.7352 51.5785 49.9737 51.4966 50.1909 51.4983C51.2992 51.5072 52.2775 51.8791 53.165 52.535C53.5094 52.7896 53.5033 52.9981 53.2025 53.3063C51.6481 54.8992 48.5894 54.9888 46.9837 53.4795C46.764 53.2729 46.7065 53.0706 46.9636 52.7307C45.8625 53.159 44.8911 53.537 43.8131 53.9564C45.2149 54.0591 46.4048 54.4505 47.3519 55.4276C47.9177 56.0114 47.9111 56.1629 47.2001 56.5538C45.2649 57.6178 42.8553 57.19 41.4213 55.5266C41.2169 55.2895 40.9452 55.0582 41.5305 54.6535C39.6032 55.1337 37.8362 55.2873 36.0669 55.9274C36.457 56.224 36.7565 56.4545 37.0589 56.6811C37.5569 57.0541 37.8792 57.5574 38.0774 58.1378C38.1898 58.4671 38.1683 58.7991 37.7842 58.9496C37.4131 59.0949 37.1604 58.913 37.0195 58.5723C36.5874 57.5269 35.6564 57.0766 34.7427 56.6026C34.5794 56.5179 34.4185 56.5082 34.2535 56.5949C33.3253 57.0825 32.3612 57.5248 31.9338 58.6051C31.8052 58.9301 31.5621 59.0812 31.2178 58.9539C30.875 58.8272 30.7835 58.544 30.8791 58.218C31.0527 57.6258 31.3779 57.1231 31.8567 56.7335C32.1533 56.4922 32.4636 56.2682 32.8619 55.9648C31.1489 55.2431 29.3708 55.1618 27.5177 54.6599C27.8689 54.976 27.8589 55.1735 27.6492 55.4305C26.1975 57.2102 23.5651 57.6589 21.6107 56.4628C21.153 56.1826 21.1396 55.9374 21.4933 55.5629C22.4686 54.53 23.6682 54.0299 25.1942 53.9847C23.9801 53.4776 22.843 53.111 21.7411 52.5048C21.8479 52.8152 22.3414 52.8838 22.1604 53.2569C22.0246 53.5369 21.7274 53.6649 21.4759 53.8235C19.7154 54.9332 17.5774 54.7943 15.9843 53.4686C15.8056 53.3199 15.605 53.185 15.5278 52.9466C16.1772 51.9006 17.9183 51.3412 19.7641 51.5531C18.7935 50.9436 17.8185 50.3408 16.7819 49.6399C17.3039 50.2503 16.8773 50.4474 16.4757 50.6468C14.5447 51.6056 12.1178 51.0477 10.811 49.3473C10.3803 48.7869 10.4053 48.6822 11.0704 48.3751C12.3842 47.7685 13.7076 47.729 15.0621 48.3075C14.0091 47.3553 12.9895 46.3792 11.9518 45.3017C11.6955 45.0061 11.4973 44.77 11.2992 44.534Z" fill="#BDBDBD"/>
<path d="M58.1618 45.2575C58.5816 44.8999 58.8006 44.4111 59.203 44.0224C59.8886 43.6262 60.5327 43.2591 61.2725 43.0903C62.068 42.9088 62.8364 43.0269 63.6072 43.2147C64.0403 43.3202 64.064 43.5448 63.8802 43.9238C62.9242 45.896 60.4785 46.9319 58.402 46.2639C57.7258 46.0464 58.0914 45.659 58.1618 45.2575Z" fill="#BDBDBD"/>
<path d="M11.2556 45.8846C11.4964 46.134 11.6945 46.3701 11.9163 46.6417C12.5865 47.9159 12.568 47.951 11.157 48.1644C9.33103 48.4405 7.30869 47.3459 6.50124 45.667C6.30042 45.2494 6.37632 45.0697 6.83363 44.9417C8.46134 44.4863 9.8949 44.8816 11.2556 45.8846Z" fill="#BDBDBD"/>
<path d="M17.227 50.0121C16.6863 49.665 16.1843 49.2924 15.6534 48.8838C14.5593 47.509 14.22 46.0258 14.7458 44.3684C14.8596 44.0094 14.9995 43.821 15.434 44.0313C17.4049 44.9852 18.4106 47.8383 17.4392 49.8031C17.4035 49.8754 17.3245 49.9259 17.227 50.0121Z" fill="#BDBDBD"/>
<path d="M61.0099 40.0058C61.502 39.5059 61.9658 38.9747 62.5936 38.623C63.4634 38.1359 64.3871 37.9671 65.3692 38.0525C65.7301 38.0838 65.8401 38.2328 65.7501 38.6051C65.2633 40.6186 63.0314 42.1681 60.983 41.9261C60.4933 41.8682 60.331 41.6669 60.5054 41.214C60.6518 40.8337 60.8276 40.465 61.0025 40.0458C61.0147 40.0004 61.0112 40.0038 61.0099 40.0058Z" fill="#BDBDBD"/>
<path d="M8.28045 40.7396C8.42835 41.0802 8.55838 41.3759 8.51108 41.7488C8.00608 42.0333 7.45903 41.9518 6.91911 41.8628C5.11391 41.5652 3.91634 40.5237 3.30424 38.7948C3.09342 38.1993 3.18323 38.0872 3.81861 38.0404C5.70802 37.9014 7.33693 38.8749 8.28045 40.7396Z" fill="#BDBDBD"/>
<path d="M57.2976 43.6229C56.8484 43.9999 56.5349 44.5407 55.9863 44.8017C55.0768 43.8973 54.8115 42.0117 55.3864 40.6065C55.6495 39.9635 56.0213 39.3888 56.5317 38.9163C57.0561 38.4307 57.2053 38.4562 57.5033 39.0903C58.2148 40.604 58.1078 42.0877 57.3063 43.5855C57.2915 43.63 57.2958 43.6255 57.2976 43.6229Z" fill="#BDBDBD"/>
<path d="M13.8873 42.0894C13.8988 43.1201 13.6504 44.0035 13.0664 44.7815C11.4318 43.9312 10.7958 41.8812 11.0473 40.4711C11.1343 39.9828 11.2639 39.5065 11.4913 39.0607C11.7927 38.4696 11.9336 38.4291 12.4286 38.8977C13.322 39.7434 13.8241 40.7851 13.8873 42.0894Z" fill="#BDBDBD"/>
<path d="M67.9347 32.4961C67.4507 34.8484 66.1432 36.1749 64.0343 36.4997C63.4021 36.5971 63.2966 36.4956 63.3899 35.8795C63.702 33.8181 65.4437 32.1578 67.3945 32.0606C67.6761 32.0465 67.9863 31.9847 67.9347 32.4961Z" fill="#BDBDBD"/>
<path d="M4.90009 34.052C5.40184 34.7875 5.59542 35.5663 5.60956 36.3987C3.79352 36.8411 1.01047 34.9377 1.07634 32.059C2.69188 32.0393 3.94665 32.688 4.90009 34.052Z" fill="#BDBDBD"/>
<path d="M10.5327 35.513C11.0878 37.1183 10.8698 38.5639 9.92328 39.9037C9.67898 40.2495 9.4504 40.3619 9.12559 39.967C7.88011 38.4525 7.85139 35.9998 9.05775 34.4463C9.38787 34.0212 9.64928 34.0067 9.92593 34.4699C10.1236 34.8008 10.3188 35.1334 10.5327 35.513Z" fill="#BDBDBD"/>
<path d="M60.1514 39.505C60.0818 39.6183 60.0364 39.6915 59.9857 39.7608C59.5409 40.3681 59.3743 40.368 58.9652 39.7617C57.8765 38.1485 57.8734 36.2318 58.957 34.6104C59.3962 33.9532 59.5845 33.9398 60.0076 34.5866C61.046 36.1739 61.0928 37.8038 60.1514 39.505Z" fill="#BDBDBD"/>
<path d="M68.7165 27.9468C68.1798 29.3521 67.2123 30.2149 65.8514 30.6646C65.3836 30.8192 65.2336 30.6555 65.2175 30.1968C65.1472 28.1938 66.4832 26.3317 68.3948 25.7663C68.8007 25.6462 69.0004 25.7168 69.0004 26.187C69.0004 26.7746 68.9411 27.3469 68.7165 27.9468Z" fill="#BDBDBD"/>
<path d="M3.03074 30.6292C0.865248 29.767 -0.273442 27.9119 0.0561202 25.7344C1.03741 25.7745 1.82722 26.2374 2.49238 26.909C3.36498 27.7901 3.70421 28.9099 3.75725 30.1353C3.78018 30.6652 3.59763 30.8761 3.03074 30.6292Z" fill="#BDBDBD"/>
<path d="M6.0791 32.5309C6.19369 31.0958 6.7522 29.9807 7.90957 29.1895C9.67705 31.3963 8.30855 34.5888 6.85055 35.1132C6.26029 34.3774 6.1038 33.5016 6.0791 32.5309Z" fill="#BDBDBD"/>
<path d="M62.4211 34.6756C62.2102 35.1557 61.9749 35.1757 61.6247 34.8615C60.2309 33.6105 59.836 31.252 60.7371 29.582C61.0024 29.0903 61.2397 29.2726 61.5253 29.5345C62.8953 30.7911 63.2455 32.7264 62.4211 34.6756Z" fill="#BDBDBD"/>
<path d="M0.1619 19.9139C0.241908 19.6634 0.218684 19.426 0.415252 19.2852C1.6667 19.5479 2.91543 21.0116 3.12949 22.4704C3.21398 23.0462 3.24662 23.6189 3.13914 24.2019C3.04282 24.7243 2.81987 24.7874 2.39582 24.5322C0.673407 23.4955 -0.027503 21.9533 0.1619 19.9139Z" fill="#BDBDBD"/>
<path d="M66.3481 21.0947C66.902 20.2231 67.5824 19.5805 68.5102 19.2344C69.5773 21.0269 68.1958 24.0985 66.0075 24.7097C65.6516 23.4669 65.721 22.2853 66.3481 21.0947Z" fill="#BDBDBD"/>
<path d="M4.87769 28.5616C4.61744 26.5969 5.73086 24.6814 7.25244 24.1602C8.00667 25.2961 7.77071 27.3079 6.72887 28.5406C6.46609 28.8515 6.17131 29.1309 5.83198 29.3627C5.25791 29.7549 5.14982 29.7226 4.97693 29.0616C4.93888 28.9161 4.91537 28.7668 4.87769 28.5616Z" fill="#BDBDBD"/>
<path d="M58.7698 5.98202C56.7807 5.34931 55.6794 4.01665 55.3899 1.9825C55.3198 1.49023 55.4191 1.29934 55.9625 1.44728C57.7839 1.94312 59.1417 3.52927 59.2517 5.43819C59.2871 6.05248 59.7721 6.40145 59.9646 7.0191C59.4509 6.73564 59.3634 6.09076 58.7698 5.98202Z" fill="#BDBDBD"/>
<path d="M64.057 28.7857C63.9836 29.1103 63.9693 29.3979 63.7567 29.6086C61.8061 28.9998 60.694 26.1935 61.6855 24.2129C63.227 24.4918 64.3482 26.6159 64.057 28.7857Z" fill="#BDBDBD"/>
<path d="M2.2341 13.1662C3.74195 14.5663 4.21701 16.3282 3.58819 18.0966C3.36604 18.7213 3.24449 18.7572 2.76036 18.3409C1.38728 17.1603 0.869948 15.164 1.51138 13.4732C1.62779 13.1664 1.72048 12.7262 2.2341 13.1662Z" fill="#BDBDBD"/>
<path d="M65.6191 14.5387C66.007 13.8597 66.4869 13.3385 67.1527 12.8867C67.8435 14.0813 67.8672 15.2571 67.4841 16.4648C67.2446 17.2197 66.7634 17.8136 66.1914 18.348C65.7984 18.7151 65.5875 18.6213 65.4215 18.1466C64.9964 16.9314 65.0594 15.746 65.6191 14.5387Z" fill="#BDBDBD"/>
<path d="M5.1529 23.7406C4.4186 24.0449 4.34665 23.9985 4.32976 23.2603C4.28642 21.3656 5.10525 20.0023 6.80138 19.185C7.355 18.9183 7.46877 18.9938 7.50106 19.6068C7.59937 21.4733 6.82877 22.8421 5.1529 23.7406Z" fill="#BDBDBD"/>
<path d="M3.30148 12.3945C3.05265 10.9733 3.44261 9.48148 4.18998 8.90625C5.7745 10.0402 6.00086 13.0755 4.54455 14.622C3.90016 14.0254 3.52537 13.2875 3.30148 12.3945Z" fill="#BDBDBD"/>
<path d="M61.7254 21.3872C61.4439 20.7488 61.4699 20.1231 61.4849 19.4991C61.4947 19.0872 61.6701 18.9752 62.0621 19.1275C63.7435 19.7803 64.866 21.6991 64.6446 23.5261C64.5861 24.0095 64.3352 23.9681 64.0254 23.8266C62.9517 23.3363 62.1502 22.5762 61.7254 21.3872Z" fill="#BDBDBD"/>
<path d="M64.2412 9.44911C64.4306 9.22043 64.5325 8.9634 64.8134 8.9082C66.2373 10.279 66.0071 13.4379 64.4097 14.5222C63.3797 13.613 62.9867 11.2244 64.2412 9.44911Z" fill="#BDBDBD"/>
<path d="M4.91367 16.9075C5.39007 15.4043 6.39113 14.5255 7.81755 14.1126C8.42723 13.9361 8.5511 14.0581 8.45298 14.6875C8.17354 16.4799 7.16921 17.6389 5.45241 18.162C4.78458 18.3655 4.6556 18.2383 4.76911 17.5221C4.79929 17.3318 4.85421 17.1454 4.91367 16.9075Z" fill="#BDBDBD"/>
<path d="M60.5437 14.7195C60.507 14.4818 60.4299 14.2894 60.5813 14.1216C62.3788 13.9642 64.4281 16.0598 64.1701 18.1617C62.6169 18.373 60.937 16.7968 60.5437 14.7195Z" fill="#BDBDBD"/>
<path d="M60.7214 6.78285C60.6872 5.44973 60.8397 4.807 61.3247 4.16211C62.959 4.91319 63.5746 8.06467 62.3109 9.58175C61.3476 8.92233 60.9018 7.96352 60.7214 6.78285Z" fill="#BDBDBD"/>
<path d="M5.99961 7.58679C5.95579 6.123 6.48023 4.99147 7.55245 4.10547C8.88986 5.34738 8.32674 8.59194 6.59863 9.55962C6.18252 8.99131 6.03596 8.33891 5.99961 7.58679Z" fill="#BDBDBD"/>
<path d="M9.52093 12.788C8.62418 13.8222 7.52823 14.2615 6.22879 14.2213C5.89989 12.474 8.38085 10.4658 10.3877 10.8685C10.3304 11.598 9.96053 12.1829 9.52093 12.788Z" fill="#BDBDBD"/>
<path d="M61.2442 11.5898C61.697 12.118 62.0143 12.6725 62.2134 13.2935C62.3183 13.621 62.2634 13.8208 61.8589 13.851C60.1521 13.9785 58.1794 12.2306 58.0898 10.4316C59.3091 10.3205 60.3262 10.7408 61.2442 11.5898Z" fill="#BDBDBD"/>
<path d="M57.6773 6.35117C58.9876 6.76609 60.3458 8.10987 60.2797 9.39403C58.6212 9.71772 56.5444 8.29027 56.2233 6.61666C56.1649 6.31205 56.2495 6.13873 56.561 6.16707C56.9188 6.19964 57.2727 6.27677 57.6773 6.35117Z" fill="#BDBDBD"/>
<path d="M10.1707 6.98983C10.9937 6.39722 11.8602 6.11947 12.828 6.16987C12.9348 7.96262 10.6822 9.73837 8.70801 9.41494C8.79198 8.37325 9.3896 7.6536 10.1707 6.98983Z" fill="#BDBDBD"/>
</svg>
