<svg width="37" height="36" viewBox="0 0 37 36" fill="none" xmlns="http://www.w3.org/2000/svg">
<path d="M35.2012 1.04784C34.2952 0.121941 32.9544 -0.220515 31.7041 0.141872L2.55015 8.56554C1.23106 8.93155 0.296106 9.97704 0.0442477 11.3034C-0.213047 12.6551 0.685671 14.3728 1.8598 15.0903L10.9756 20.6566C11.9106 21.2291 13.1173 21.086 13.891 20.3105L24.3296 9.87194C24.855 9.32655 25.7248 9.32655 26.2502 9.87194C26.7757 10.3956 26.7757 11.249 26.2502 11.7926L15.7936 22.2311C15.0181 23.0066 14.8731 24.2098 15.4439 25.1465L21.0137 34.2968C21.666 35.3821 22.7894 36 24.0215 36C24.1665 36 24.3296 36 24.4745 35.9801C25.8878 35.8007 27.0112 34.8386 27.428 33.4796L36.0709 4.54487C36.4514 3.31275 36.1071 1.97192 35.2012 1.04784Z" fill="#325876"/>
<path opacity="0.4" d="M13.5016 31.0616C14.0307 31.5925 14.0307 32.4531 13.5016 32.984L11.0265 35.4573C10.762 35.7237 10.4141 35.856 10.0662 35.856C9.71831 35.856 9.37042 35.7237 9.10588 35.4573C8.57498 34.9264 8.57498 34.0676 9.10588 33.5367L11.5792 31.0616C12.1101 30.5325 12.9707 30.5325 13.5016 31.0616ZM12.0816 24.198C12.6107 24.7289 12.6107 25.5895 12.0816 26.1204L9.60651 28.5937C9.34197 28.8601 8.99408 28.9924 8.64619 28.9924C8.2983 28.9924 7.95041 28.8601 7.68587 28.5937C7.15497 28.0628 7.15497 27.204 7.68587 26.6731L10.1592 24.198C10.69 23.6689 11.5507 23.6689 12.0816 24.198ZM5.26657 22.0374C5.79566 22.5683 5.79566 23.429 5.26657 23.9599L2.79148 26.4332C2.52693 26.6995 2.17904 26.8318 1.83115 26.8318C1.48326 26.8318 1.13537 26.6995 0.870828 26.4332C0.339932 25.9023 0.339932 25.0434 0.870828 24.5125L3.34411 22.0374C3.87501 21.5084 4.73568 21.5084 5.26657 22.0374Z" fill="#325876"/>
</svg>
