<svg width="12" height="12" viewBox="0 0 12 12" fill="none" xmlns="http://www.w3.org/2000/svg">
<path d="M11.6612 0.349279C11.3611 0.0406469 10.9169 -0.0735049 10.5028 0.0472906L0.844798 2.85518C0.407819 2.97718 0.0980923 3.32568 0.0146581 3.76779C-0.0705768 4.21836 0.227145 4.79093 0.616104 5.0301L3.63594 6.88552C3.94567 7.07638 4.34543 7.02866 4.60174 6.77016L8.05975 3.29065C8.23382 3.10885 8.52194 3.10885 8.69601 3.29065C8.87008 3.4652 8.87008 3.74967 8.69601 3.93086L5.23199 7.41038C4.97509 7.66888 4.92707 8.06992 5.11615 8.38218L6.9613 11.4323C7.17739 11.794 7.54954 12 7.95771 12C8.00573 12 8.05975 12 8.10777 11.9934C8.57596 11.9336 8.94812 11.6129 9.08617 11.1599L11.9493 1.51496C12.0754 1.10425 11.9613 0.657308 11.6612 0.349279Z" fill="white"/>
<path opacity="0.4" d="M4.47241 10.3532C4.64768 10.5302 4.64768 10.8171 4.47241 10.994L3.65247 11.8185C3.56484 11.9072 3.44959 11.9513 3.33434 11.9513C3.21909 11.9513 3.10385 11.9072 3.01621 11.8185C2.84034 11.6415 2.84034 11.3552 3.01621 11.1782L3.83555 10.3532C4.01142 10.1768 4.29653 10.1768 4.47241 10.3532ZM4.00199 8.06534C4.17727 8.24231 4.17727 8.5292 4.00199 8.70616L3.18206 9.53059C3.09442 9.61938 2.97918 9.66347 2.86393 9.66347C2.74868 9.66347 2.63343 9.61938 2.5458 9.53059C2.36993 9.35363 2.36993 9.06734 2.5458 8.89038L3.36513 8.06534C3.54101 7.88898 3.82612 7.88898 4.00199 8.06534ZM1.74435 7.34516C1.91962 7.52213 1.91962 7.80902 1.74435 7.98598L0.924414 8.81041C0.836779 8.8992 0.721531 8.94329 0.606284 8.94329C0.491037 8.94329 0.37579 8.8992 0.288154 8.81041C0.112282 8.63345 0.112282 8.34716 0.288154 8.17019L1.10749 7.34516C1.28336 7.1688 1.56848 7.1688 1.74435 7.34516Z" fill="white"/>
</svg>
