<svg width="17" height="20" viewBox="0 0 17 20" fill="none" xmlns="http://www.w3.org/2000/svg">
<path d="M12.7312 6.71289C15.0886 6.71289 17 8.5821 17 10.8875V15.8244C17 18.1298 15.0886 19.9991 12.7312 19.9991H4.2688C1.91136 19.9991 0 18.1298 0 15.8244V10.8875C0 8.5821 1.91136 6.71289 4.2688 6.71289H12.7312ZM8.49492 11.3834C8.00717 11.3834 7.61088 11.771 7.61088 12.248V14.454C7.61088 14.941 8.00717 15.3285 8.49492 15.3285C8.99283 15.3285 9.38912 14.941 9.38912 14.454V12.248C9.38912 11.771 8.99283 11.3834 8.49492 11.3834Z" fill="white"/>
<path d="M14.022 5.39595V6.86667C13.6663 6.7673 13.2904 6.71761 12.9042 6.71761H12.2437V5.39595C12.2437 3.37868 10.5671 1.73903 8.50436 1.73903C6.4416 1.73903 4.76497 3.36874 4.75481 5.37608V6.71761H4.10448C3.70818 6.71761 3.33221 6.7673 2.97656 6.87661V5.39595C2.98672 2.41476 5.45594 0 8.48403 0C11.5528 0 14.022 2.41476 14.022 5.39595Z" fill="#849BAD"/>
</svg>
