<svg width="17" height="20" viewBox="0 0 17 20" fill="none" xmlns="http://www.w3.org/2000/svg">
<path d="M4.73918 6.70907V5.36726C4.74934 3.37044 6.42597 1.73939 8.49889 1.73939C10.0841 1.73939 11.5067 2.72339 12.0249 4.19541C12.1976 4.65262 12.7057 4.89017 13.163 4.73213C13.3865 4.66156 13.5694 4.50253 13.671 4.29381C13.7727 4.08508 13.793 3.84654 13.7117 3.62787C12.9394 1.46208 10.8462 0 8.47857 0C5.45048 0 2.98126 2.41626 2.96094 5.38714V6.91084L4.73918 6.70907Z" fill="#849BAD"/>
<path d="M12.7312 6.71094C15.0886 6.71094 17 8.58053 17 10.8865V15.8243C17 18.1303 15.0886 19.9999 12.7312 19.9999H4.2688C1.91136 19.9999 0 18.1303 0 15.8243V10.8865C0 8.58053 1.91136 6.71094 4.2688 6.71094H12.7312ZM8.49492 11.3824C8.00717 11.3824 7.61088 11.7701 7.61088 12.2472V14.4537C7.61088 14.9407 8.00717 15.3284 8.49492 15.3284C8.99283 15.3284 9.38912 14.9407 9.38912 14.4537V12.2472C9.38912 11.7701 8.99283 11.3824 8.49492 11.3824Z" fill="white"/>
</svg>
