<svg width="20" height="20" viewBox="0 0 20 20" fill="none" xmlns="http://www.w3.org/2000/svg">
<path fill-rule="evenodd" clip-rule="evenodd" d="M19.9997 4.72C19.9997 7.327 17.8777 9.44 15.2597 9.44C14.7827 9.44 13.6947 9.33 13.1657 8.891L12.5047 9.55C12.1157 9.937 12.2207 10.051 12.3947 10.239C12.4657 10.317 12.5497 10.409 12.6147 10.538C12.6147 10.538 13.1657 11.306 12.6147 12.075C12.2847 12.514 11.3587 13.128 10.3007 12.075L10.0807 12.295C10.0807 12.295 10.7407 13.063 10.1907 13.831C9.85965 14.27 8.97765 14.709 8.20565 13.941L7.43465 14.709C6.90465 15.236 6.25865 14.929 6.00165 14.709L5.34065 14.05C4.72365 13.436 5.08365 12.77 5.34065 12.514L11.0717 6.806C11.0717 6.806 10.5217 5.928 10.5217 4.72C10.5217 2.113 12.6427 0 15.2607 0C17.8777 0 19.9997 2.113 19.9997 4.72ZM16.9137 4.72C16.9137 5.63 16.1737 6.367 15.2607 6.367C15.0439 6.36753 14.8291 6.32534 14.6287 6.24284C14.4282 6.16034 14.246 6.03915 14.0924 5.8862C13.9388 5.73325 13.8168 5.55153 13.7335 5.35143C13.6501 5.15133 13.607 4.93677 13.6067 4.72C13.6067 3.81 14.3467 3.073 15.2607 3.073C15.4773 3.07261 15.692 3.11489 15.8923 3.19745C16.0926 3.28001 16.2748 3.40121 16.4283 3.55415C16.5818 3.70709 16.7036 3.88876 16.7869 4.0888C16.8702 4.28884 16.9133 4.50332 16.9137 4.72Z" fill="#849BAD"/>
<path d="M10.6362 1.00095C9.98759 1.55412 9.4669 2.24159 9.11014 3.0158C8.75338 3.79002 8.56906 4.63249 8.56995 5.48495C8.56995 6.13095 8.6906 6.69715 8.8293 7.13605L4.0679 11.8785C3.6936 12.2547 3.44474 12.7375 3.3554 13.2607C3.2395 13.9703 3.44565 14.738 4.0679 15.3574L4.6968 15.9834C4.72245 16.009 4.74905 16.0338 4.7766 16.0575C5.14776 16.3707 5.5981 16.5755 6.0781 16.6493C6.43723 16.7039 6.80417 16.6727 7.14893 16.5583C7.49368 16.4439 7.80646 16.2495 8.0617 15.991C8.42745 16.0832 8.8027 16.0908 9.1637 16.0214C9.83283 15.89 10.4295 15.5154 10.8386 14.9697C10.9574 14.8057 11.0563 14.6281 11.133 14.4406C11.2258 14.4328 11.3181 14.4201 11.4095 14.4026C12.1039 14.2631 12.7215 13.8703 13.1423 13.3006C13.3477 13.0189 13.4945 12.6989 13.574 12.3595C13.6534 12.0201 13.664 11.6682 13.6049 11.3246C14.5995 11.4775 15.6166 11.3746 16.5603 11.0256C17.5041 10.6765 18.3434 10.0929 18.9991 9.3296L19 10.5C19 14.9783 19 17.2174 17.6082 18.6082C16.2184 20 13.9783 20 9.5 20C5.0217 20 2.78255 20 1.3908 18.6082C0 17.2184 0 14.9783 0 10.5C0 6.0217 0 3.78255 1.3908 2.3908C2.7835 1 5.0217 1 9.5 1L10.6362 1.00095Z" fill="white"/>
</svg>
