<svg width="26" height="28" viewBox="0 0 26 28" fill="none" xmlns="http://www.w3.org/2000/svg">
<path d="M13.9815 0C15.0163 0 15.9533 0.574737 16.4707 1.42316C16.7225 1.83368 16.8903 2.34 16.8483 2.87368C16.8204 3.28421 16.9462 3.69474 17.17 4.07789C17.8832 5.24105 19.4635 5.67895 20.6941 5.02211C22.0786 4.22842 23.8267 4.70737 24.6238 6.06211L25.5608 7.67684C26.3719 9.03158 25.9244 10.7695 24.5259 11.5495C23.3372 12.2474 22.9177 13.7937 23.6309 14.9705C23.8547 15.34 24.1064 15.6547 24.4979 15.8463C24.9874 16.1063 25.365 16.5168 25.6307 16.9274C26.1481 17.7758 26.1062 18.8158 25.6027 19.7326L24.6238 21.3747C24.1064 22.2505 23.1414 22.7979 22.1485 22.7979C21.6591 22.7979 21.1137 22.6611 20.6661 22.3874C20.3025 22.1547 19.883 22.0726 19.4355 22.0726C18.051 22.0726 16.8903 23.2084 16.8483 24.5632C16.8483 26.1368 15.5617 27.3684 13.9535 27.3684H12.0516C10.4294 27.3684 9.14277 26.1368 9.14277 24.5632C9.1148 23.2084 7.95407 22.0726 6.56959 22.0726C6.10809 22.0726 5.68855 22.1547 5.33893 22.3874C4.89143 22.6611 4.33204 22.7979 3.85656 22.7979C2.84966 22.7979 1.88472 22.2505 1.36729 21.3747L0.402343 19.7326C-0.11509 18.8432 -0.14306 17.7758 0.374374 16.9274C0.598128 16.5168 1.01767 16.1063 1.49315 15.8463C1.88472 15.6547 2.13644 15.34 2.37418 14.9705C3.07342 13.7937 2.65388 12.2474 1.46518 11.5495C0.0806953 10.7695 -0.366815 9.03158 0.430312 7.67684L1.36729 6.06211C2.1784 4.70737 3.9125 4.22842 5.31097 5.02211C6.52763 5.67895 8.1079 5.24105 8.82112 4.07789C9.04488 3.69474 9.17074 3.28421 9.14277 2.87368C9.1148 2.34 9.26863 1.83368 9.53434 1.42316C10.0518 0.574737 10.9887 0.0273684 12.0096 0H13.9815ZM13.0165 9.82526C10.8209 9.82526 9.04488 11.5495 9.04488 13.6979C9.04488 15.8463 10.8209 17.5568 13.0165 17.5568C15.2121 17.5568 16.9462 15.8463 16.9462 13.6979C16.9462 11.5495 15.2121 9.82526 13.0165 9.82526Z" fill="#325876"/>
</svg>
