<svg width="6" height="21" viewBox="0 0 6 21" fill="none" xmlns="http://www.w3.org/2000/svg">
<path d="M0.144043 10.5C0.144043 11.1962 0.424946 11.8639 0.924955 12.3562C1.42496 12.8484 2.10312 13.125 2.81024 13.125C3.51736 13.125 4.19552 12.8484 4.69553 12.3562C5.19554 11.8639 5.47644 11.1962 5.47644 10.5C5.47644 9.80381 5.19554 9.13613 4.69553 8.64385C4.19552 8.15156 3.51736 7.875 2.81024 7.875C2.10312 7.875 1.42496 8.15156 0.924955 8.64385C0.424946 9.13613 0.144043 9.80381 0.144043 10.5ZM0.144043 2.625C0.144043 3.32119 0.424946 3.98887 0.924955 4.48116C1.42496 4.97344 2.10312 5.25 2.81024 5.25C3.51736 5.25 4.19552 4.97344 4.69553 4.48116C5.19554 3.98887 5.47644 3.32119 5.47644 2.625C5.47644 1.92881 5.19554 1.26113 4.69553 0.768845C4.19552 0.276562 3.51736 0 2.81024 0C2.10312 0 1.42496 0.276562 0.924955 0.768845C0.424946 1.26113 0.144043 1.92881 0.144043 2.625ZM0.144043 18.375C0.144043 19.0712 0.424946 19.7389 0.924955 20.2312C1.42496 20.7234 2.10312 21 2.81024 21C3.51736 21 4.19552 20.7234 4.69553 20.2312C5.19554 19.7389 5.47644 19.0712 5.47644 18.375C5.47644 17.6788 5.19554 17.0111 4.69553 16.5188C4.19552 16.0266 3.51736 15.75 2.81024 15.75C2.10312 15.75 1.42496 16.0266 0.924955 16.5188C0.424946 17.0111 0.144043 17.6788 0.144043 18.375Z" fill="#52768F"/>
</svg>
