<svg width="14" height="14" viewBox="0 0 14 14" fill="none" xmlns="http://www.w3.org/2000/svg">
<path d="M6.6586 8.98039C5.53547 8.98039 4.62695 8.10539 4.62695 7.00639C4.62695 5.90739 5.53547 5.02539 6.6586 5.02539C7.78174 5.02539 8.66879 5.90739 8.66879 7.00639C8.66879 8.10539 7.78174 8.98039 6.6586 8.98039Z" fill="#52768F"/>
<path opacity="0.4" d="M13.1111 8.659C12.9752 8.449 12.782 8.239 12.5316 8.106C12.3313 8.008 12.2026 7.847 12.0881 7.658C11.7233 7.056 11.9379 6.265 12.5459 5.908C13.2613 5.509 13.4902 4.62 13.0753 3.927L12.596 3.101C12.1883 2.408 11.2941 2.163 10.5858 2.569C9.95631 2.905 9.14794 2.681 8.7831 2.086C8.66864 1.89 8.60426 1.68 8.61857 1.47C8.64003 1.197 8.55418 0.938 8.42542 0.728C8.16073 0.294 7.68143 0 7.15206 0H6.14339C5.62117 0.014 5.14187 0.294 4.87718 0.728C4.74126 0.938 4.66257 1.197 4.67688 1.47C4.69118 1.68 4.6268 1.89 4.51234 2.086C4.1475 2.681 3.33914 2.905 2.71676 2.569C2.00139 2.163 1.11433 2.408 0.699419 3.101L0.220121 3.927C-0.18764 4.62 0.0412787 5.509 0.749495 5.908C1.35756 6.265 1.57217 7.056 1.21449 7.658C1.09287 7.847 0.964106 8.008 0.763803 8.106C0.520577 8.239 0.305966 8.449 0.191506 8.659C-0.0731805 9.093 -0.0588731 9.639 0.205814 10.094L0.699419 10.934C0.964106 11.382 1.45771 11.662 1.97278 11.662C2.216 11.662 2.50215 11.592 2.73107 11.452C2.90991 11.333 3.12452 11.291 3.3606 11.291C4.06881 11.291 4.66257 11.872 4.67688 12.565C4.67688 13.37 5.33502 14 6.16485 14H7.13775C7.96043 14 8.61857 13.37 8.61857 12.565C8.64003 11.872 9.23379 11.291 9.942 11.291C10.1709 11.291 10.3855 11.333 10.5715 11.452C10.8004 11.592 11.0794 11.662 11.3298 11.662C11.8377 11.662 12.3313 11.382 12.596 10.934L13.0968 10.094C13.3543 9.625 13.3758 9.093 13.1111 8.659Z" fill="#52768F"/>
</svg>
