<svg width="41" height="41" viewBox="0 0 41 41" fill="none" xmlns="http://www.w3.org/2000/svg">
<path fillRule="evenodd" clipRule="evenodd" d="M20.4998 15.6309C23.5053 15.6309 25.941 17.8102 25.941 20.4993C25.941 23.1884 23.5053 25.3677 20.4998 25.3677C17.4943 25.3677 15.0586 23.1884 15.0586 20.4993C15.0586 17.8102 17.4943 15.6309 20.4998 15.6309Z" stroke="#D0C7B4" strokeWidth="3" strokeLinecap="round" strokeLinejoin="round"/>
<path fillRule="evenodd" clipRule="evenodd" d="M38.2775 11.2505C36.7899 8.92872 33.4962 8.13429 30.9221 9.47501C28.6831 10.6388 25.8849 9.18263 25.8849 6.85319C25.8849 4.17363 23.4729 2 20.4996 2C17.5263 2 15.1143 4.17363 15.1143 6.85319C15.1143 9.18263 12.316 10.6388 10.0791 9.47501C7.50276 8.13429 4.20927 8.92872 2.72157 11.2505C1.23597 13.5722 2.11751 16.5403 4.6938 17.879C6.93072 19.0447 6.93072 21.9553 4.6938 23.121C2.11751 24.4615 1.23597 27.4297 2.72157 29.7496C4.20927 32.0713 7.50276 32.8658 10.0769 31.527C12.3139 30.3613 15.1143 31.8173 15.1143 34.1468C15.1143 36.8263 17.5263 39 20.4996 39C23.4729 39 25.8849 36.8263 25.8849 34.1468C25.8849 31.8173 28.6831 30.3613 30.9221 31.527C33.4962 32.8658 36.7899 32.0713 38.2775 29.7496C39.7651 27.4297 38.8815 24.4615 36.3073 23.121C34.0706 21.9553 34.0684 19.0447 36.3073 17.879C38.8815 16.5403 39.7651 13.5722 38.2775 11.2505Z" stroke="#D0C7B4" strokeWidth="3" strokeLinecap="round" strokeLinejoin="round"/>
</svg>
