<svg width="69" height="59" viewBox="0 0 69 59" fill="none" xmlns="http://www.w3.org/2000/svg">
<path d="M11.2992 44.534C7.68678 40.2988 5.2603 35.4559 4.1755 29.976C2.65492 22.2947 3.74427 14.9795 7.4303 8.07406C7.76376 7.44936 8.12536 6.83819 8.50446 6.24051C9.09753 5.30552 9.67073 4.41154 9.88915 3.25136C10.2004 1.59824 11.3926 0.603331 12.9617 0.0857554C13.1408 0.0266796 13.3214 -0.0638541 13.5849 0.0676092C13.676 0.802985 13.4746 1.51851 13.1483 2.19228C12.5984 3.32752 11.7302 4.13523 10.5201 4.49825C10.0141 4.65007 9.67705 4.93271 9.38937 5.36419C6.34731 9.92691 4.57374 14.9322 4.10954 20.4223C3.57095 26.7922 4.82341 32.7743 7.90379 38.3421C9.85635 41.8714 12.3714 44.9542 15.6147 47.5033C16.1843 47.9243 16.6863 48.2969 17.1883 48.6694C17.9437 49.4212 18.908 49.8504 19.8497 50.3637C19.6126 49.9831 19.3551 49.6137 19.1424 49.2196C18.6795 48.3619 18.5319 47.4514 18.6634 46.4727C18.736 45.9329 18.9419 45.9012 19.3849 46.06C21.6613 46.8759 22.8704 49.2061 22.2163 51.5561C22.7144 51.9628 23.9924 52.5072 25.034 52.7354C24.0936 51.9514 23.4706 51.0543 23.2451 49.9181C23.1625 49.5016 22.9636 48.9789 23.2738 48.6865C23.5944 48.3843 24.0925 48.65 24.4884 48.7842C26.5204 49.4734 27.5788 51.0753 27.6017 53.5061C28.438 53.8597 29.3493 53.966 30.2449 54.1192C31.5314 54.3393 32.7953 54.6385 34.0244 55.0823C34.2891 55.1778 34.5423 55.2302 34.8292 55.1221C36.6596 54.4325 38.5839 54.1435 40.4925 53.7874C40.7829 53.7333 41.0653 53.6352 41.3757 53.5508C41.3371 52.0815 41.745 50.8048 42.7877 49.7816C43.4698 49.1123 44.313 48.7711 45.2293 48.5863C45.6353 48.5045 45.8169 48.6508 45.8184 49.0917C45.8235 50.5867 45.1406 51.722 43.9745 52.726C44.9859 52.4814 45.8411 52.0822 46.7332 51.6885C46.5582 50.6769 46.5166 49.6822 46.8699 48.7051C47.3599 47.3497 48.3351 46.5231 49.6422 46.0306C50.0794 45.8659 50.2757 45.9957 50.3349 46.4511C50.4861 47.613 50.2271 48.6761 49.6094 49.6565C49.4631 49.8886 49.2945 50.1063 49.0762 50.4155C50.0571 49.963 50.8425 49.3869 51.6756 48.8113C51.2297 47.8464 51.0206 46.8539 51.2433 45.8049C51.5327 44.4418 52.284 43.4232 53.4713 42.7154C53.895 42.4628 54.1138 42.5572 54.2556 43.0304C54.5911 44.15 54.5316 45.2399 54.0872 46.3137C53.9985 46.5281 53.9007 46.7387 53.8541 46.992C55.166 46.0753 56.2484 44.9217 57.2822 43.6628C57.2959 43.6244 57.2915 43.6289 57.2915 43.6289C58.2034 42.8263 58.8659 41.8156 59.5403 40.8227C62.5051 36.4575 64.3183 31.6536 64.8327 26.374C65.4599 19.9378 64.3078 13.8498 61.2782 8.1368C60.9525 7.52254 60.5024 6.97169 60.2569 6.15669C60.6313 6.42609 60.7733 6.71212 60.9301 6.97749C63.1907 10.8016 64.6055 14.9223 65.1693 19.34C65.8358 24.5628 65.3022 29.6543 63.5087 34.6026C62.8401 36.4473 61.9588 38.1946 61.023 39.9618C61.0125 40.0044 61.016 40.0011 61.016 40.0011C60.1259 41.259 59.3029 42.5657 58.3341 43.7665C58.1863 43.9498 58.0385 44.1331 57.8263 44.3747C57.3975 44.7941 57.1785 45.2829 56.7593 45.5959C55.8743 46.4307 55.0632 47.343 54.1195 48.1589C55.3861 47.7827 56.6046 47.8167 57.8104 48.3198C58.6032 48.6507 58.6422 48.7493 58.1084 49.4352C56.7921 51.1267 54.161 51.635 52.3002 50.5574C51.8812 50.3148 51.8702 50.2675 52.0938 49.7082C51.2452 50.2559 50.3865 50.81 49.4827 51.3933C49.7353 51.5785 49.9739 51.4966 50.1911 51.4983C51.2994 51.5072 52.2777 51.8791 53.1652 52.535C53.5096 52.7896 53.5034 52.9981 53.2027 53.3063C51.6483 54.8992 48.5896 54.9888 46.9838 53.4795C46.7641 53.2729 46.7067 53.0706 46.9638 52.7307C45.8627 53.159 44.8912 53.537 43.8132 53.9564C45.215 54.0591 46.4049 54.4505 47.352 55.4276C47.9178 56.0114 47.9112 56.1629 47.2003 56.5538C45.2651 57.6178 42.8554 57.19 41.4214 55.5266C41.217 55.2895 40.9453 55.0582 41.5306 54.6535C39.6033 55.1337 37.8364 55.2873 36.067 55.9274C36.4572 56.224 36.7567 56.4545 37.0591 56.6811C37.557 57.0541 37.8793 57.5574 38.0775 58.1378C38.19 58.4671 38.1685 58.7991 37.7843 58.9496C37.4132 59.0949 37.1605 58.913 37.0196 58.5723C36.5875 57.5269 35.6566 57.0766 34.7428 56.6026C34.5795 56.5179 34.4186 56.5082 34.2536 56.5949C33.3254 57.0825 32.3613 57.5248 31.9339 58.6051C31.8053 58.9301 31.5622 59.0812 31.2179 58.9539C30.8751 58.8272 30.7836 58.544 30.8792 58.218C31.0528 57.6258 31.378 57.1231 31.8568 56.7335C32.1534 56.4922 32.4637 56.2682 32.862 55.9648C31.149 55.2431 29.3709 55.1618 27.5178 54.6599C27.869 54.976 27.859 55.1735 27.6493 55.4305C26.1975 57.2102 23.5652 57.6589 21.6108 56.4628C21.1531 56.1826 21.1397 55.9374 21.4933 55.5629C22.4687 54.53 23.6683 54.0299 25.1943 53.9847C23.9801 53.4776 22.8431 53.111 21.7411 52.5048C21.8479 52.8152 22.3414 52.8838 22.1605 53.2569C22.0247 53.5369 21.7275 53.6649 21.4759 53.8235C19.7155 54.9332 17.5775 54.7943 15.9843 53.4686C15.8056 53.3199 15.605 53.185 15.5279 52.9466C16.1772 51.9006 17.9183 51.3412 19.7641 51.5531C18.7935 50.9436 17.8185 50.3408 16.7819 49.6399C17.304 50.2503 16.8773 50.4474 16.4758 50.6468C14.5447 51.6056 12.1179 51.0477 10.811 49.3473C10.3804 48.7869 10.4054 48.6822 11.0705 48.3751C12.3843 47.7685 13.7076 47.729 15.0621 48.3075C14.0092 47.3553 12.9895 46.3792 11.9518 45.3017C11.6955 45.0061 11.4973 44.77 11.2992 44.534Z" fill="#D7936C"/>
<path d="M56.758 45.6404C57.1778 45.2827 57.3968 44.7939 57.7992 44.4053C58.4848 44.009 59.1289 43.6419 59.8687 43.4731C60.6642 43.2916 61.4326 43.4098 62.2034 43.5975C62.6365 43.703 62.6602 43.9276 62.4764 44.3066C61.5204 46.2788 59.0747 47.3147 56.9982 46.6467C56.322 46.4292 56.6876 46.0418 56.758 45.6404Z" fill="#D7936C"/>
<path d="M11.2561 44.5193C11.4969 44.7688 11.695 45.0048 11.9168 45.2765C12.5871 46.5507 12.5686 46.5858 11.1576 46.7992C9.33153 47.0753 7.30918 45.9806 6.50173 44.3017C6.30091 43.8842 6.3768 43.7045 6.83412 43.5765C8.46184 43.121 9.8954 43.5164 11.2561 44.5193Z" fill="#D7936C"/>
<path d="M17.2265 48.6449C16.6859 48.2978 16.1839 47.9253 15.653 47.5166C14.5588 46.1418 14.2195 44.6586 14.7453 43.0012C14.8592 42.6422 14.999 42.4538 15.4335 42.6641C17.4045 43.618 18.4101 46.4711 17.4387 48.4359C17.403 48.5082 17.324 48.5588 17.2265 48.6449Z" fill="#D7936C"/>
<path d="M61.0108 40.0058C61.503 39.5059 61.9668 38.9747 62.5946 38.623C63.4644 38.1359 64.3881 37.9671 65.3702 38.0525C65.7311 38.0838 65.8411 38.2328 65.7511 38.6051C65.2643 40.6186 63.0324 42.1681 60.984 41.9261C60.4943 41.8682 60.332 41.6669 60.5063 41.214C60.6527 40.8337 60.8285 40.465 61.0035 40.0458C61.0157 40.0004 61.0122 40.0038 61.0108 40.0058Z" fill="#D7936C"/>
<path d="M8.28046 40.7396C8.42837 41.0802 8.5584 41.3759 8.5111 41.7488C8.0061 42.0333 7.45904 41.9518 6.91912 41.8628C5.11392 41.5652 3.91634 40.5237 3.30424 38.7948C3.09342 38.1993 3.18323 38.0872 3.81861 38.0404C5.70803 37.9014 7.33694 38.8749 8.28046 40.7396Z" fill="#D7936C"/>
<path d="M57.2976 43.6229C56.8484 43.9999 56.5349 44.5407 55.9863 44.8017C55.0768 43.8973 54.8115 42.0117 55.3864 40.6065C55.6495 39.9635 56.0213 39.3888 56.5317 38.9163C57.0561 38.4307 57.2053 38.4562 57.5033 39.0903C58.2148 40.604 58.1079 42.0877 57.3064 43.5855C57.2915 43.63 57.2958 43.6255 57.2976 43.6229Z" fill="#D7936C"/>
<path d="M13.8878 42.0894C13.8993 43.1201 13.6509 44.0035 13.0669 44.7815C11.4323 43.9312 10.7963 41.8812 11.0478 40.4711C11.1348 39.9828 11.2644 39.5065 11.4917 39.0607C11.7932 38.4696 11.9341 38.4291 12.4291 38.8977C13.3225 39.7434 13.8246 40.7851 13.8878 42.0894Z" fill="#D7936C"/>
<path d="M67.9352 32.4961C67.4512 34.8484 66.1437 36.1749 64.0348 36.4997C63.4025 36.5971 63.297 36.4956 63.3903 35.8795C63.7025 33.8181 65.4442 32.1578 67.395 32.0606C67.6766 32.0465 67.9869 31.9847 67.9352 32.4961Z" fill="#D7936C"/>
<path d="M4.90059 34.052C5.40234 34.7875 5.59593 35.5663 5.61006 36.3987C3.79402 36.8411 1.01096 34.9377 1.07683 32.059C2.69238 32.0393 3.94715 32.688 4.90059 34.052Z" fill="#D7936C"/>
<path d="M10.5327 35.513C11.0878 37.1183 10.8698 38.5639 9.92328 39.9037C9.67898 40.2495 9.4504 40.3619 9.1256 39.967C7.88011 38.4525 7.85139 35.9998 9.05776 34.4463C9.38787 34.0212 9.64929 34.0067 9.92594 34.4699C10.1237 34.8008 10.3188 35.1334 10.5327 35.513Z" fill="#D7936C"/>
<path d="M60.1519 39.505C60.0823 39.6183 60.0369 39.6915 59.9862 39.7608C59.5414 40.3681 59.3748 40.368 58.9657 39.7617C57.877 38.1485 57.8739 36.2318 58.9575 34.6104C59.3967 33.9532 59.585 33.9398 60.0081 34.5866C61.0465 36.1739 61.0933 37.8038 60.1519 39.505Z" fill="#D7936C"/>
<path d="M68.7166 27.9468C68.1798 29.3521 67.2123 30.2149 65.8514 30.6646C65.3836 30.8192 65.2336 30.6555 65.2175 30.1968C65.1472 28.1938 66.4832 26.3317 68.3948 25.7663C68.8008 25.6462 69.0004 25.7168 69.0004 26.187C69.0004 26.7746 68.9411 27.3469 68.7166 27.9468Z" fill="#D7936C"/>
<path d="M3.03075 30.6292C0.865251 29.767 -0.273443 27.9119 0.0561204 25.7344C1.03741 25.7745 1.82722 26.2374 2.49239 26.909C3.36499 27.7901 3.70423 28.9099 3.75726 30.1353C3.7802 30.6652 3.59765 30.8761 3.03075 30.6292Z" fill="#D7936C"/>
<path d="M6.0791 32.5309C6.19369 31.0958 6.7522 29.9807 7.90958 29.1895C9.67706 31.3963 8.30856 34.5888 6.85055 35.1132C6.2603 34.3774 6.1038 33.5016 6.0791 32.5309Z" fill="#D7936C"/>
<path d="M62.4211 34.6756C62.2102 35.1557 61.9749 35.1757 61.6247 34.8615C60.2309 33.6105 59.836 31.252 60.7371 29.582C61.0024 29.0903 61.2397 29.2726 61.5253 29.5345C62.8953 30.7911 63.2456 32.7264 62.4211 34.6756Z" fill="#D7936C"/>
<path d="M0.162388 19.9139C0.242396 19.6634 0.219173 19.426 0.415741 19.2852C1.66719 19.5479 2.91593 21.0116 3.12999 22.4704C3.21448 23.0462 3.24712 23.6189 3.13964 24.2019C3.04332 24.7243 2.82037 24.7874 2.39632 24.5322C0.673898 23.4955 -0.0270153 21.9533 0.162388 19.9139Z" fill="#D7936C"/>
<path d="M66.3486 21.0947C66.9025 20.2231 67.5829 19.5805 68.5107 19.2344C69.5778 21.0269 68.1963 24.0985 66.008 24.7097C65.652 23.4669 65.7215 22.2853 66.3486 21.0947Z" fill="#D7936C"/>
<path d="M4.87817 28.5616C4.61793 26.5969 5.73135 24.6814 7.25294 24.1602C8.00717 25.2961 7.77121 27.3079 6.72936 28.5406C6.46659 28.8515 6.1718 29.1309 5.83247 29.3627C5.2584 29.7549 5.15031 29.7226 4.97742 29.0616C4.93937 28.9161 4.91586 28.7668 4.87817 28.5616Z" fill="#D7936C"/>
<path d="M58.7698 4.61483C56.7807 3.98213 55.6794 2.64947 55.3899 0.615316C55.3198 0.123045 55.4191 -0.0678502 55.9625 0.0800931C57.7839 0.57593 59.1417 2.16208 59.2517 4.071C59.2871 4.6853 59.7721 5.03427 59.9646 5.65191C59.4509 5.36845 59.3634 4.72357 58.7698 4.61483Z" fill="#D7936C"/>
<path d="M64.0571 28.7857C63.9836 29.1103 63.9693 29.3979 63.7567 29.6086C61.8061 28.9998 60.694 26.1935 61.6855 24.2129C63.227 24.4918 64.3483 26.6159 64.0571 28.7857Z" fill="#D7936C"/>
<path d="M2.23362 13.1662C3.74147 14.5663 4.21653 16.3282 3.58771 18.0966C3.36556 18.7213 3.24401 18.7572 2.75987 18.3409C1.38679 17.1603 0.869458 15.164 1.51089 13.4732C1.6273 13.1664 1.72 12.7262 2.23362 13.1662Z" fill="#D7936C"/>
<path d="M65.6191 14.5387C66.007 13.8597 66.4869 13.3385 67.1527 12.8867C67.8435 14.0813 67.8672 15.2571 67.4841 16.4648C67.2446 17.2197 66.7634 17.8136 66.1914 18.348C65.7984 18.7151 65.5875 18.6213 65.4215 18.1466C64.9964 16.9314 65.0594 15.746 65.6191 14.5387Z" fill="#D7936C"/>
<path d="M5.15241 23.7406C4.41812 24.0449 4.34616 23.9985 4.32927 23.2603C4.28593 21.3656 5.10477 20.0023 6.8009 19.185C7.35452 18.9183 7.46829 18.9938 7.50058 19.6068C7.59889 21.4733 6.82829 22.8421 5.15241 23.7406Z" fill="#D7936C"/>
<path d="M3.30197 11.0273C3.05314 9.60612 3.4431 8.1143 4.19047 7.53906C5.775 8.67301 6.00135 11.7083 4.54504 13.2548C3.90065 12.6582 3.52586 11.9203 3.30197 11.0273Z" fill="#D7936C"/>
<path d="M61.7249 21.3872C61.4434 20.7488 61.4694 20.1231 61.4844 19.4991C61.4943 19.0872 61.6696 18.9752 62.0617 19.1275C63.7431 19.7803 64.8655 21.6991 64.6442 23.5261C64.5856 24.0095 64.3347 23.9681 64.0249 23.8266C62.9512 23.3363 62.1497 22.5762 61.7249 21.3872Z" fill="#D7936C"/>
<path d="M64.2412 8.08388C64.4306 7.85519 64.5325 7.59817 64.8135 7.54297C66.2373 8.91374 66.0071 12.0727 64.4097 13.157C63.3797 12.2477 62.9867 9.8592 64.2412 8.08388Z" fill="#D7936C"/>
<path d="M4.91319 16.9075C5.38958 15.4043 6.39065 14.5255 7.81708 14.1126C8.42676 13.9361 8.55063 14.0581 8.4525 14.6875C8.17306 16.4799 7.16873 17.6389 5.45192 18.162C4.78409 18.3655 4.65511 18.2383 4.76862 17.5221C4.7988 17.3318 4.85372 17.1454 4.91319 16.9075Z" fill="#D7936C"/>
<path d="M60.5441 14.7195C60.5075 14.4818 60.4304 14.2894 60.5817 14.1216C62.3793 13.9642 64.4286 16.0598 64.1706 18.1617C62.6174 18.373 60.9375 16.7968 60.5441 14.7195Z" fill="#D7936C"/>
<path d="M60.7219 5.41762C60.6877 4.0845 60.8402 3.44177 61.3252 2.79688C62.9595 3.54796 63.5751 6.69944 62.3114 8.21651C61.3481 7.55709 60.9023 6.59829 60.7219 5.41762Z" fill="#D7936C"/>
<path d="M5.99961 6.22156C5.95579 4.75776 6.48023 3.62624 7.55245 2.74023C8.88987 3.98215 8.32675 7.22671 6.59863 8.19438C6.18252 7.62608 6.03596 6.97368 5.99961 6.22156Z" fill="#D7936C"/>
<path d="M9.52094 11.4227C8.62419 12.457 7.52823 12.8962 6.22879 12.8561C5.89989 11.1088 8.38085 9.10055 10.3877 9.50331C10.3304 10.2328 9.96054 10.8176 9.52094 11.4227Z" fill="#D7936C"/>
<path d="M61.2442 10.2227C61.697 10.7508 62.0143 11.3053 62.2134 11.9264C62.3184 12.2538 62.2634 12.4536 61.8589 12.4838C60.1521 12.6114 58.1794 10.8634 58.0898 9.06441C59.3091 8.95331 60.3262 9.37364 61.2442 10.2227Z" fill="#D7936C"/>
<path d="M57.6778 4.98399C58.9881 5.39891 60.3463 6.74268 60.2803 8.02684C58.6217 8.35054 56.5449 6.92308 56.2238 5.24947C56.1653 4.94486 56.25 4.77155 56.5614 4.79989C56.9193 4.83245 57.2732 4.90958 57.6778 4.98399Z" fill="#D7936C"/>
<path d="M10.1707 5.62265C10.9937 5.03003 11.8602 4.75229 12.828 4.80269C12.9349 6.59544 10.6822 8.37119 8.70801 8.04775C8.79198 7.00606 9.3896 6.28641 10.1707 5.62265Z" fill="#D7936C"/>
</svg>
