<svg width="3" height="13" viewBox="0 0 3 13" fill="none" xmlns="http://www.w3.org/2000/svg">
<path d="M0.0335369 1.27352C0.0290697 1.44704 0.0641142 1.61959 0.136613 1.78105C0.209113 1.9425 0.317605 2.08961 0.455721 2.21373C0.593837 2.33785 0.758793 2.43649 0.940904 2.50384C1.12301 2.5712 1.31861 2.60591 1.51621 2.60596C1.71381 2.606 1.90942 2.57137 2.09157 2.50409C2.27372 2.43682 2.43873 2.33826 2.57692 2.2142C2.7151 2.09014 2.82368 1.94308 2.89627 1.78165C2.96886 1.62023 3.00401 1.44769 2.99964 1.27417C2.99107 0.933728 2.8311 0.60976 2.55399 0.371618C2.27688 0.133475 1.90463 8.45569e-05 1.51695 -5.96046e-07C1.12927 -8.5749e-05 0.756949 0.133142 0.4797 0.371163C0.20245 0.609184 0.0423016 0.933081 0.0335369 1.27352ZM1.51696 10.3944C1.31941 10.3905 1.12296 10.4212 0.939147 10.4849C0.755331 10.5486 0.587851 10.6439 0.446541 10.7652C0.305231 10.8865 0.192939 11.0314 0.116257 11.1914C0.0395753 11.3513 4.94116e-05 11.5231 0 11.6967C-4.94116e-05 11.8703 0.0393786 12.0421 0.115969 12.2021C0.19256 12.3621 0.30477 12.507 0.446011 12.6284C0.587252 12.7498 0.754677 12.8451 0.938457 12.9089C1.12224 12.9727 1.31867 13.0035 1.51622 12.9997C1.90381 12.9922 2.27264 12.8516 2.54376 12.6082C2.81488 12.3648 2.96675 12.0379 2.96684 11.6973C2.96694 11.3568 2.81526 11.0298 2.54428 10.7863C2.2733 10.5427 1.90454 10.4021 1.51696 10.3944ZM1.51696 5.18246C1.31941 5.17853 1.12296 5.20932 0.939147 5.273C0.755331 5.33668 0.587851 5.43197 0.446541 5.55329C0.305231 5.6746 0.192939 5.81949 0.116257 5.97945C0.0395753 6.13941 4.94116e-05 6.31122 0 6.48478C-4.94116e-05 6.65834 0.0393786 6.83016 0.115969 6.99015C0.19256 7.15015 0.30477 7.29509 0.446011 7.41646C0.587252 7.53784 0.754677 7.63321 0.938457 7.69697C1.12224 7.76073 1.31867 7.7916 1.51622 7.78776C1.90381 7.78024 2.27264 7.63973 2.54376 7.39632C2.81488 7.15292 2.96675 6.82596 2.96684 6.48543C2.96694 6.1449 2.81526 5.81787 2.54428 5.57435C2.2733 5.33082 1.90454 5.19016 1.51696 5.18246Z" fill="#325876"/>
</svg>
