<svg width="44" height="38" viewBox="0 0 44 38" fill="none" xmlns="http://www.w3.org/2000/svg">
<path d="M9.5 1H1L9.5 36H20.5L29.5 1H21L15.5 28V28.5H15V28L9.5 1Z" fill="#D9D9D9" stroke="#D9D9D9"/>
<path d="M29.5 1.00993L27.5 8.00993C33.1 6.41006 34.5 9.67665 34.5 11.5099H41.5C42.7 2.70993 34 0.843265 29.5 1.00993Z" fill="#52768F"/>
<path d="M41.5 22.0098L27.5 11.5099L25 18.5098L36 26.5098C32.8 34.1098 29 29.6764 27.5 26.5098H23L21 34.0098C23.8 37.6098 32.1667 37.1764 36 36.5098C44.8 33.7098 43.3333 25.6764 41.5 22.0098Z" fill="#52768F"/>
<path d="M29.5 1.00993L27.5 8.00993C33.1 6.41006 34.5 9.67665 34.5 11.5099H41.5C42.7 2.70993 34 0.843265 29.5 1.00993Z" stroke="#52768F"/>
<path d="M41.5 22.0098L27.5 11.5099L25 18.5098L36 26.5098C32.8 34.1098 29 29.6764 27.5 26.5098H23L21 34.0098C23.8 37.6098 32.1667 37.1764 36 36.5098C44.8 33.7098 43.3333 25.6764 41.5 22.0098Z" stroke="#52768F"/>
</svg>
