<?xml version="1.0" standalone="no"?><svg xmlns="http://www.w3.org/2000/svg" viewBox="0 0 1440 320"><path fill="#52768F" fill-opacity="1" d="M0,224L34.3,240C68.6,256,137,288,206,266.7C274.3,245,343,171,411,144C480,117,549,139,617,128C685.7,117,754,75,823,90.7C891.4,107,960,181,1029,213.3C1097.1,245,1166,235,1234,202.7C1302.9,171,1371,117,1406,90.7L1440,64L1440,0L1405.7,0C1371.4,0,1303,0,1234,0C1165.7,0,1097,0,1029,0C960,0,891,0,823,0C754.3,0,686,0,617,0C548.6,0,480,0,411,0C342.9,0,274,0,206,0C137.1,0,69,0,34,0L0,0Z"></path></svg>