<svg id="visual" viewBox="0 0 960 540" width="960" height="540" xmlns="http://www.w3.org/2000/svg" xmlns:xlink="http://www.w3.org/1999/xlink" version="1.1"><path d="M0 128L26.7 120.7C53.3 113.3 106.7 98.7 160 103.8C213.3 109 266.7 134 320 156C373.3 178 426.7 197 480 189.2C533.3 181.3 586.7 146.7 640 145.7C693.3 144.7 746.7 177.3 800 180C853.3 182.7 906.7 155.3 933.3 141.7L960 128L960 0L933.3 0C906.7 0 853.3 0 800 0C746.7 0 693.3 0 640 0C586.7 0 533.3 0 480 0C426.7 0 373.3 0 320 0C266.7 0 213.3 0 160 0C106.7 0 53.3 0 26.7 0L0 0Z" fill="#52768F" stroke-linecap="round" stroke-linejoin="miter"></path></svg>