<svg width="20" height="20" viewBox="0 0 20 20" fill="none" xmlns="http://www.w3.org/2000/svg">
<path d="M2.97538 1.37305L9.62119 8.01857L16.2326 1.40748C16.3786 1.25204 16.5545 1.1277 16.7498 1.04191C16.945 0.956116 17.1556 0.910638 17.3689 0.908203C17.8255 0.908203 18.2634 1.08959 18.5863 1.41246C18.9092 1.73533 19.0906 2.17324 19.0906 2.62984C19.0946 2.84092 19.0555 3.05059 18.9755 3.24599C18.8956 3.44138 18.7766 3.61838 18.6257 3.76612L11.9283 10.3772L18.6257 17.0744C18.9095 17.352 19.0759 17.7279 19.0906 18.1246C19.0906 18.5812 18.9092 19.0191 18.5863 19.342C18.2634 19.6648 17.8255 19.8462 17.3689 19.8462C17.1495 19.8553 16.9305 19.8187 16.726 19.7387C16.5215 19.6587 16.3359 19.537 16.1809 19.3814L9.62119 12.7359L2.99259 19.3642C2.84712 19.5144 2.67333 19.6344 2.48125 19.7171C2.28917 19.7999 2.08261 19.8437 1.87348 19.8462C1.41686 19.8462 0.978931 19.6648 0.656047 19.342C0.333164 19.0191 0.151769 18.5812 0.151769 18.1246C0.147755 17.9135 0.186919 17.7039 0.266857 17.5085C0.346795 17.3131 0.465822 17.1361 0.616632 16.9883L7.31409 10.3772L0.616632 3.68004C0.332868 3.40244 0.166472 3.02653 0.151769 2.62984C0.151769 2.17324 0.333164 1.73533 0.656047 1.41246C0.978931 1.08959 1.41686 0.908203 1.87348 0.908203C2.28669 0.913368 2.68269 1.08037 2.97538 1.37305Z" fill="white"/>
</svg>
