<svg width="36" height="22" viewBox="0 0 36 22" fill="none" xmlns="http://www.w3.org/2000/svg">
<path d="M28.5 18.5V21.5H10.5V18.5C10.5 18.5 10.5 12.5 19.5 12.5C28.5 12.5 28.5 18.5 28.5 18.5ZM24 5.00003C24 4.11003 23.736 3.24003 23.242 2.50003C22.747 1.76003 22.044 1.18305 21.222 0.843052C20.4 0.502052 19.495 0.413033 18.622 0.586033C17.749 0.760033 16.947 1.18903 16.318 1.81803C15.689 2.44703 15.26 3.24904 15.086 4.12204C14.913 4.99504 15.002 5.90002 15.343 6.72202C15.683 7.54402 16.26 8.24704 17 8.74204C17.74 9.23604 18.61 9.50003 19.5 9.50003C20.693 9.50003 21.838 9.02604 22.682 8.18204C23.526 7.33804 24 6.19303 24 5.00003ZM28.8 12.5901C29.62 13.3461 30.281 14.259 30.745 15.273C31.208 16.288 31.465 17.385 31.5 18.5V21.5H36V18.5C36 18.5 36 13.3251 28.8 12.5901ZM27 0.500034C26.547 0.500034 26.096 0.571056 25.665 0.710056C26.543 1.96806 27.013 3.46603 27.013 5.00003C27.013 6.53403 26.543 8.03201 25.665 9.29001C26.096 9.42901 26.547 9.50003 27 9.50003C28.193 9.50003 29.338 9.02604 30.182 8.18204C31.026 7.33804 31.5 6.19303 31.5 5.00003C31.5 3.80703 31.026 2.66203 30.182 1.81803C29.338 0.974028 28.193 0.500034 27 0.500034ZM12 8.00003H7.5V3.50003H4.5V8.00003H0V11H4.5V15.5H7.5V11H12V8.00003Z" fill="white"/>
</svg>
